<svg width="120" height="120" viewBox="0 0 120 120" fill="none" xmlns="http://www.w3.org/2000/svg">
<path d="M84.0804 83.0346C85.4341 86.6505 85.7433 90.5744 84.9726 94.3578L92.157 93.5628L88.155 82.5336L84.0804 83.0346Z" fill="#644DF6"/>
<path d="M29.94 91.6242L31.0854 94.1004C35.1644 93.3132 38.9742 91.4956 42.1524 88.8204L43.3158 89.394C43.3158 89.394 43.5846 81.747 40.4124 75.714C38.5625 75.9924 36.7823 76.6197 35.1666 77.5626C35.1666 77.5626 34.203 82.1742 37.8354 85.4028C37.8354 85.4064 33.5598 90.6876 29.94 91.6242Z" fill="#644DF6"/>
<path d="M33.5106 99.981C33.5106 99.981 42.1032 99.1914 51.8652 92.799C51.8652 92.799 55.593 93.708 58.8852 94.1706C56.7992 96.4989 54.3509 98.4751 51.6348 100.023L34.0548 101.287L33.5106 99.981Z" fill="#644DF6"/>
<path d="M49.9884 75.96C49.9884 75.96 51.7326 82.932 48.4806 91.65C48.4806 91.65 49.8606 92.109 53.0016 92.988C53.0016 92.988 57.1236 85.7316 55.3116 77.3448L49.9884 75.96Z" fill="#644DF6"/>
<path d="M62.1378 79.6356C62.1378 79.6356 62.6778 89.3034 59.2056 94.0626C61.0879 94.4049 62.9863 94.6518 64.8936 94.8024C64.8936 94.8024 68.7216 90.1584 68.4384 81.6024C68.4384 81.6 62.1546 79.7736 62.1378 79.6356Z" fill="#644DF6"/>
<path d="M73.4664 82.6266C73.4664 82.6266 75.1926 89.7606 72.5166 95.2104C72.5166 95.2104 77.7306 95.1504 79.461 94.836C80.3599 90.9918 80.4345 87.0009 79.68 83.1258C77.5974 83.1656 75.516 82.9984 73.4664 82.6266Z" fill="#644DF6"/>
<path d="M22.152 81.0906C22.1358 81.0375 22.1045 80.9904 22.0619 80.9549C22.0193 80.9194 21.9672 80.897 21.9121 80.8907C21.857 80.8843 21.8013 80.8942 21.7517 80.919C21.7021 80.9439 21.6609 80.9826 21.633 81.0306C20.5488 82.806 19.0278 85.0326 17.8248 86.748C17.7949 86.7918 17.7739 86.8411 17.7631 86.893C17.7524 86.9449 17.7521 86.9985 17.7622 87.0506C17.7723 87.1026 17.7926 87.1522 17.822 87.1963C17.8514 87.2405 17.8893 87.2784 17.9334 87.3078C18.4445 87.6843 19.0364 87.9364 19.662 88.044C23.487 88.512 24.96 83.1 22.152 81.0906ZM21.9582 81.6138C22.3792 82.0335 22.6782 82.5598 22.8231 83.1363C22.968 83.7128 22.9534 84.3179 22.7808 84.8868C22.1947 84.3513 21.5453 83.8897 20.847 83.5122C21.229 82.8846 21.6 82.2518 21.96 81.6138H21.9582ZM18.7224 86.8458C18.9388 86.517 19.1544 86.1878 19.3692 85.8582C19.8367 86.364 20.3942 86.7784 21.0132 87.0804C20.6389 87.2218 20.2369 87.2742 19.8389 87.2334C19.4409 87.1927 19.0579 87.06 18.72 86.8458H18.7224ZM21.6216 86.736C21.053 86.1804 20.422 85.6925 19.7412 85.2822C19.9512 84.9552 20.4684 84.1308 20.5212 84.0474C21.103 84.6628 21.789 85.1706 22.5474 85.5474C22.3378 86.0116 22.0204 86.4191 21.6216 86.736Z" fill="#252525"/>
<path d="M29.4312 89.5356L29.0076 88.4622C28.978 88.4071 28.935 88.3604 28.8826 88.3264C28.8301 88.2924 28.7699 88.2723 28.7076 88.2678C27.4686 88.1598 27.7368 88.0926 25.3602 87.9678C25.7244 87.4287 26.0151 86.8436 26.2248 86.2278C26.2503 86.1562 26.2464 86.0773 26.2138 86.0086C26.1812 85.9399 26.1227 85.887 26.0511 85.8615C25.9795 85.8359 25.9007 85.8399 25.832 85.8725C25.7633 85.905 25.7103 85.9636 25.6848 86.0352C24.6102 88.8474 21.327 91.1802 18.5286 89.5944C16.7886 88.6518 15.6186 86.9412 14.5608 85.2576C14.8102 85.2251 15.0505 85.143 15.2676 85.0161C15.4847 84.8893 15.6743 84.7202 15.825 84.519C16.1159 84.0944 16.3054 83.6087 16.3788 83.0994C16.5646 83.5375 16.7874 83.9591 17.0448 84.3594C17.0711 84.4058 17.1068 84.4462 17.1496 84.478C17.1925 84.5098 17.2415 84.5322 17.2936 84.5439C17.3456 84.5556 17.3995 84.5563 17.4519 84.5459C17.5042 84.5355 17.5538 84.5143 17.5974 84.4836L18.4878 83.7084C18.5446 83.6618 18.5813 83.595 18.5901 83.5221C18.599 83.4491 18.5794 83.3756 18.5355 83.3167C18.4915 83.2578 18.4265 83.2182 18.3541 83.206C18.2816 83.1938 18.2072 83.2099 18.1464 83.2512L17.5356 83.6268C17.1324 82.7634 17.052 82.614 16.809 82.1766C17.349 81.7176 18.372 82.182 19.7412 82.065C20.1992 82.0483 20.6458 81.9174 21.0405 81.6843C21.4351 81.4512 21.7652 81.1231 22.0008 80.73C22.6272 79.6812 22.5498 78.474 23.7282 76.3902C24.012 76.1748 23.619 75.7386 23.4852 74.5866C23.4802 74.5493 23.4678 74.5133 23.4489 74.4808C23.4299 74.4482 23.4047 74.4198 23.3747 74.397C23.3447 74.3743 23.3105 74.3577 23.2741 74.3482C23.2376 74.3387 23.1997 74.3365 23.1624 74.3418C21.9728 74.5675 20.8201 74.9566 19.737 75.498C17.0861 76.6283 14.6157 78.1421 12.405 79.9908C12.311 79.76 12.1995 79.5367 12.0714 79.323C12.0475 79.2533 11.9976 79.1956 11.9322 79.1619C11.8667 79.1281 11.7908 79.1209 11.7202 79.1418C11.6496 79.1627 11.5898 79.2101 11.5533 79.274C11.5168 79.338 11.5063 79.4135 11.5242 79.485C11.5214 79.8635 11.5974 80.2384 11.7474 80.586C11.378 80.9386 11.0369 81.3198 10.7274 81.726C10.6819 81.7873 10.6542 81.8599 10.6474 81.9359C10.6405 82.0119 10.6547 82.0883 10.6884 82.1568C10.8371 82.4954 11.0037 82.8259 11.1876 83.1468C11.8023 84.1423 12.7595 84.8791 13.8792 85.2186C15.0264 87.3258 16.0392 89.124 18.123 90.3186C20.5674 91.6578 23.2422 90.6444 24.972 88.4868C26.1051 88.8272 27.2827 88.9961 28.4658 88.9878L28.9134 89.778C28.9464 89.8457 29.0049 89.8976 29.0761 89.9224C29.1472 89.9471 29.2253 89.9426 29.2932 89.91C29.3611 89.8773 29.4133 89.819 29.4384 89.748C29.4635 89.6769 29.4594 89.5988 29.427 89.5308L29.4312 89.5356ZM16.3266 79.0014C17.0231 78.4169 17.7581 77.8801 18.5268 77.3946H18.54C18.5724 77.3691 18.6107 77.3519 18.6513 77.3447C18.6919 77.3375 18.7337 77.3405 18.773 77.3533C18.8122 77.3661 18.8477 77.3884 18.8762 77.4182C18.9047 77.448 18.9255 77.4844 18.9366 77.5242C19.563 78.8118 19.4796 79.509 19.4076 79.764C19.0308 81.015 17.6772 81.144 16.7868 80.2212C16.5666 79.9973 16.3833 79.7399 16.2438 79.4586C16.2063 79.3836 16.1942 79.2986 16.2091 79.2162C16.224 79.1338 16.2653 79.0584 16.3266 79.0014ZM12.5676 82.2738C12.5393 82.2534 12.5164 82.2265 12.501 82.1952C12.4856 82.164 12.478 82.1295 12.479 82.0947C12.48 82.0598 12.4896 82.0258 12.5068 81.9955C12.524 81.9652 12.5484 81.9396 12.5778 81.921V81.9048C13.1672 81.399 13.79 80.9336 14.442 80.5116C14.504 80.476 14.5758 80.4615 14.6468 80.4702C14.7177 80.4788 14.784 80.5102 14.8356 80.5596C15.9276 81.5328 15.7452 83.2278 14.2908 83.2194C13.5 83.2008 12.6276 82.269 12.5676 82.2738Z" fill="#252525"/>
<path d="M26.2488 83.0178C27.1428 83.1726 28.3584 83.2956 29.1216 83.3412C29.1951 83.3479 29.2631 83.3828 29.3115 83.4385C29.3598 83.4943 29.3847 83.5666 29.3809 83.6403C29.3771 83.714 29.3449 83.7834 29.2911 83.8339C29.2373 83.8844 29.166 83.9121 29.0922 83.9112C28.0016 83.8927 26.9131 83.8095 25.8324 83.6622C25.7494 83.6481 25.6741 83.6049 25.62 83.5404C25.5659 83.4758 25.5366 83.3942 25.5372 83.31C25.5372 81.69 24.8844 79.791 24.4104 78.333C24.3795 78.237 24.3846 78.1329 24.425 78.0405C24.4653 77.948 24.538 77.8734 24.6294 77.8308C25.4802 77.436 26.4558 76.7016 26.6514 75.7854C26.6903 75.6474 26.7011 75.5031 26.6834 75.3609C26.6656 75.2187 26.6195 75.0815 26.5479 74.9574C26.4763 74.8332 26.3805 74.7247 26.2663 74.6381C26.1521 74.5516 26.0217 74.4888 25.8828 74.4534C25.2392 74.232 24.5382 74.2443 23.9028 74.4882C23.8403 74.5137 23.7704 74.5141 23.7077 74.4892C23.645 74.4644 23.5942 74.4163 23.5661 74.355C23.538 74.2936 23.5347 74.2238 23.5568 74.1601C23.579 74.0964 23.6249 74.0437 23.685 74.013C24.1385 73.8082 24.6307 73.7031 25.1283 73.705C25.6259 73.7068 26.1173 73.8156 26.5692 74.0238C26.9043 74.2005 27.1701 74.4851 27.3235 74.8316C27.4769 75.178 27.509 75.566 27.4146 75.933C27.2675 76.4769 27.002 76.9817 26.6372 77.4112C26.2725 77.8407 25.8174 78.1843 25.3044 78.4176C25.8476 79.8951 26.1659 81.4458 26.2488 83.0178Z" fill="#252525"/>
<path d="M3.6066 79.488C4.17187 79.7801 4.77912 79.9826 5.4066 80.088C10.7004 81.003 12.7986 74.6958 17.5458 73.947C18.2902 73.7845 19.0687 73.922 19.7124 74.3298C19.7741 74.37 19.8489 74.3849 19.9213 74.3713C19.9937 74.3577 20.0581 74.3168 20.101 74.257C20.144 74.1972 20.1622 74.1231 20.152 74.0502C20.1417 73.9773 20.1038 73.9111 20.046 73.8654C19.29 73.3435 18.361 73.1353 17.4546 73.2846C12.3648 73.9008 10.3002 80.0388 5.4966 79.4688C4.92412 79.4079 4.36495 79.2564 3.84 79.02C3.77824 78.9915 3.70778 78.9881 3.64358 79.0106C3.57938 79.0332 3.52648 79.0798 3.49611 79.1407C3.46574 79.2016 3.4603 79.2719 3.48092 79.3368C3.50155 79.4016 3.54663 79.4559 3.6066 79.488Z" fill="#252525"/>
<path d="M3.1128 75.9245C3.44129 76.3509 3.86071 76.6987 4.34055 76.9425C4.82039 77.1863 5.34856 77.32 5.8866 77.3339C7.44971 77.3109 8.95509 76.7397 10.14 75.7199C10.2009 75.6752 10.2416 75.608 10.253 75.5332C10.2644 75.4584 10.2457 75.3822 10.2009 75.3212C10.1561 75.2603 10.0889 75.2196 10.0142 75.2082C9.93939 75.1968 9.86315 75.2156 9.8022 75.2603C8.83151 75.9006 7.72975 76.3154 6.5778 76.4741C6.03009 76.5657 5.46878 76.5323 4.93579 76.3764C4.4028 76.2206 3.91192 75.9463 3.4998 75.5741C3.45209 75.528 3.38861 75.5017 3.32222 75.5006C3.25583 75.4995 3.19151 75.5236 3.14229 75.5682C3.09307 75.6128 3.06264 75.6744 3.05717 75.7406C3.05169 75.8067 3.07158 75.8725 3.1128 75.9245Z" fill="#252525"/>
<path d="M21.1536 70.341C21.424 70.2744 21.7019 70.2427 21.9804 70.2468C23.7558 70.2684 24.819 71.4468 24.9504 73.2306C24.9534 73.268 24.9489 73.3056 24.9373 73.3413C24.9257 73.377 24.9072 73.4101 24.8828 73.4387C24.8336 73.4963 24.7635 73.5321 24.6879 73.5381C24.6123 73.544 24.5375 73.5197 24.4798 73.4705C24.4221 73.4213 24.3864 73.3511 24.3804 73.2756C24.2502 71.8632 23.4372 70.9104 21.9804 70.9356C21.6923 70.9379 21.4067 70.9899 21.1362 71.0892C21.0651 71.1146 20.9877 71.1166 20.9153 71.0951C20.8429 71.0735 20.7792 71.0294 20.7336 70.9692C20.024 70.061 19.0212 69.4273 17.8964 69.1764C16.7715 68.9255 15.5945 69.0729 14.5662 69.5934C11.9742 70.7886 11.1 72.8772 9.1992 73.9734C7.3482 75.042 4.5396 74.7768 3.0684 73.176C3.02066 73.1253 2.99498 73.0579 2.99701 72.9883C2.99903 72.9188 3.0286 72.8529 3.0792 72.8052C3.1298 72.7574 3.1973 72.7317 3.26684 72.7338C3.33638 72.7358 3.40226 72.7653 3.45 72.816C4.15488 73.4889 5.07878 73.8852 6.0522 73.932C9.9984 74.2542 10.3914 70.5876 14.2218 68.8404C15.6125 68.1693 17.2123 68.0763 18.6714 68.5818C19.6599 68.8992 20.5266 69.5135 21.1536 70.341Z" fill="#252525"/>
<path d="M100.837 75.8076C100.195 77.4092 99.2218 78.8571 97.9812 80.0562C97.925 80.1043 97.8896 80.1724 97.8826 80.2461C97.8756 80.3197 97.8975 80.3933 97.9436 80.4511C97.9897 80.509 98.0565 80.5467 98.1299 80.5563C98.2033 80.5659 98.2775 80.5467 98.337 80.5026C99.1277 79.9968 99.8033 79.3305 100.32 78.5469C100.837 77.7634 101.183 76.88 101.337 75.954C101.35 75.8897 101.339 75.8229 101.305 75.7667C101.271 75.7105 101.217 75.6691 101.154 75.6507C101.091 75.6322 101.024 75.6381 100.965 75.6672C100.906 75.6963 100.86 75.7464 100.837 75.8076Z" fill="#252525"/>
<path d="M102.6 76.2312C101.99 77.6712 100.705 79.9758 99.4596 81.006C99.3997 81.0525 99.3607 81.1208 99.3512 81.1961C99.3417 81.2713 99.3624 81.3472 99.4089 81.4071C99.4554 81.467 99.5237 81.506 99.5989 81.5155C99.6742 81.525 99.7501 81.5043 99.81 81.4578C101.749 80.0484 102.524 78.6378 103.095 76.3974C103.117 76.3318 103.112 76.2601 103.081 76.1981C103.05 76.1361 102.996 76.0888 102.931 76.0668C102.865 76.0448 102.793 76.0497 102.731 76.0805C102.669 76.1114 102.622 76.1656 102.6 76.2312Z" fill="#252525"/>
<path d="M104.28 77.067C103.26 80.4426 100.14 84.7926 96.8634 86.28C96.8291 86.2951 96.7982 86.3167 96.7722 86.3438C96.7463 86.3708 96.726 86.4026 96.7124 86.4375C96.6988 86.4724 96.6922 86.5096 96.693 86.547C96.6938 86.5845 96.702 86.6214 96.717 86.6556C96.7321 86.6899 96.7537 86.7209 96.7807 86.7468C96.8077 86.7727 96.8396 86.793 96.8745 86.8066C96.9094 86.8202 96.9466 86.8268 96.984 86.826C97.0214 86.8252 97.0583 86.8171 97.0926 86.802C101.092 85.113 103.704 81.3822 104.783 77.2074C104.798 77.1419 104.788 77.0731 104.753 77.0153C104.719 76.9576 104.663 76.9153 104.599 76.8972C104.534 76.8791 104.465 76.8867 104.405 76.9183C104.346 76.9499 104.301 77.0032 104.28 77.067Z" fill="#252525"/>
<path d="M101.871 84.3529C99.033 87.2071 94.458 89.0071 90.9636 88.8703C90.3836 87.3231 89.8218 85.7671 89.2782 84.2023C89.7582 84.1747 90.4884 84.0979 90.9516 84.0337C91.4988 83.9575 90.8916 83.1799 92.2062 81.8599C94.2954 79.7713 99.1104 78.9439 99.489 75.1213C99.4951 75.0478 99.4725 74.9748 99.426 74.9175C99.3795 74.8603 99.3127 74.8233 99.2395 74.8142C99.1663 74.8051 99.0925 74.8247 99.0334 74.8689C98.9743 74.913 98.9346 74.9783 98.9226 75.0511C98.304 79.2799 91.1826 79.1149 90.5982 83.4301C90.1266 83.5213 89.5782 83.6233 89.0982 83.6809C88.9322 83.2009 88.767 82.7219 88.6026 82.2439C88.5684 82.1438 88.4971 82.0606 88.4035 82.0114C88.3099 81.9622 88.201 81.9507 88.0992 81.9793C85.9356 82.5949 83.7474 82.5967 81.4992 82.6759C69.471 83.1001 62.0034 78.1939 50.9028 75.6559C43.0602 73.8667 34.8018 75.0067 29.9628 81.4333C29.9289 81.4781 29.9068 81.5306 29.8984 81.5862C29.89 81.6417 29.8956 81.6985 29.9148 81.7513C31.047 84.8659 31.707 88.6699 29.5728 91.1911C29.5356 91.235 29.5112 91.2882 29.5024 91.3451C29.4935 91.4019 29.5004 91.4601 29.5224 91.5133C30.4824 93.8131 33.2586 100.367 33.6624 101.353C33.6928 101.42 33.748 101.473 33.8164 101.5C33.8848 101.528 33.9611 101.528 34.0293 101.5C34.0976 101.472 34.1526 101.42 34.1829 101.352C34.2131 101.285 34.2162 101.209 34.1916 101.14C33.7908 100.148 31.0968 93.6907 30.1716 91.4455C32.3118 88.7785 31.743 84.9361 30.6102 81.6949C35.3094 75.6571 43.2306 74.6593 50.736 76.3999C61.8804 78.9799 69.3192 83.9245 81.5316 83.5027C83.6879 83.5274 85.8405 83.318 87.9516 82.8781C89.1726 86.4289 90.3942 89.8309 91.8258 93.3037C78.1122 95.3383 64.4502 95.5609 51.1218 92.1841C47.2516 91.1442 43.581 89.4686 40.26 87.2257C40.2043 87.1845 40.1345 87.167 40.066 87.1773C39.9975 87.1875 39.9358 87.2246 39.8946 87.2803C39.8534 87.336 39.836 87.4057 39.8462 87.4743C39.8565 87.5428 39.8935 87.6044 39.9492 87.6457C43.3092 89.955 47.0306 91.6881 50.9604 92.7739C53.508 93.4363 56.0622 93.9719 58.623 94.3807C59.1155 95.8047 59.7415 97.179 60.4926 98.4853C60.5231 98.5523 60.5782 98.605 60.6466 98.6324C60.715 98.6597 60.7913 98.6596 60.8595 98.632C60.9278 98.6045 60.9828 98.5516 61.0131 98.4844C61.0433 98.4173 61.0464 98.3411 61.0218 98.2717C60.6172 96.9511 60.0568 95.6834 59.3526 94.4953C70.371 96.1753 81.3876 95.6719 92.4546 94.0369C92.5163 94.0278 92.575 94.0047 92.6263 93.9693C92.6776 93.934 92.72 93.8873 92.7504 93.8329C92.9154 93.5407 92.8104 93.7525 91.1826 89.4577C95.2788 89.8309 99.3906 87.8779 102.283 84.7453C102.329 84.6897 102.352 84.6187 102.348 84.5466C102.344 84.4745 102.312 84.4067 102.26 84.3568C102.208 84.307 102.139 84.2789 102.066 84.2781C101.994 84.2774 101.924 84.3041 101.871 84.3529Z" fill="#252525"/>
<path d="M47.7246 24.54C47.706 24.0382 47.5432 23.5524 47.2557 23.1408C46.9682 22.7291 46.5682 22.409 46.1036 22.2187C45.6389 22.0284 45.1292 21.976 44.6356 22.0679C44.1419 22.1597 43.6852 22.3918 43.32 22.7364C43.0747 22.9725 42.8786 23.2549 42.7432 23.5672C42.6078 23.8796 42.5358 24.2157 42.5312 24.5561C42.5266 24.8966 42.5896 25.2345 42.7166 25.5504C42.8435 25.8663 43.0319 26.1538 43.2708 26.3964C43.6348 26.766 44.1011 27.0182 44.6096 27.1208C45.1181 27.2233 45.6456 27.1715 46.1245 26.9719C46.6033 26.7724 47.0115 26.4342 47.2966 26.0008C47.5818 25.5674 47.7308 25.0587 47.7246 24.54ZM45.12 26.349C44.8126 26.349 44.51 26.2729 44.2392 26.1273C43.9684 25.9818 43.7379 25.7714 43.5684 25.5149C43.3988 25.2585 43.2955 24.9641 43.2675 24.6579C43.2396 24.3518 43.288 24.0435 43.4084 23.7606C43.5288 23.4777 43.7174 23.2291 43.9574 23.037C44.1974 22.8449 44.4812 22.7152 44.7836 22.6597C45.0859 22.6041 45.3974 22.6243 45.69 22.7185C45.9826 22.8128 46.2473 22.978 46.4604 23.1996C46.7069 23.4648 46.8714 23.7957 46.9338 24.1524C46.9962 24.509 46.954 24.8761 46.8122 25.2093C46.6704 25.5424 46.4351 25.8274 46.1348 26.0297C45.8345 26.2319 45.482 26.3428 45.12 26.349Z" fill="#252525"/>
<path d="M55.026 25.5156C55.0078 25.0133 54.8451 24.527 54.5575 24.1148C54.2699 23.7027 53.8696 23.3822 53.4044 23.1919C52.9393 23.0015 52.4291 22.9493 51.9351 23.0416C51.441 23.1338 50.9841 23.3666 50.619 23.712C50.3736 23.948 50.1775 24.2304 50.0421 24.5427C49.9066 24.8551 49.8345 25.1912 49.8299 25.5316C49.8252 25.872 49.8882 26.21 50.0151 26.5259C50.142 26.8418 50.3303 27.1294 50.5692 27.372C50.9332 27.7423 51.3996 27.9952 51.9086 28.0982C52.4175 28.2012 52.9456 28.1496 53.4249 27.9499C53.9043 27.7502 54.3129 27.4117 54.5982 26.9779C54.8835 26.5441 55.0325 26.0348 55.026 25.5156ZM52.4238 27.3246C52.1164 27.3245 51.8139 27.2483 51.5432 27.1027C51.2725 26.9571 51.0421 26.7467 50.8726 26.4903C50.7031 26.2339 50.5998 25.9395 50.5719 25.6334C50.544 25.3274 50.5924 25.0191 50.7127 24.7363C50.8331 24.4535 51.0216 24.2049 51.2615 24.0128C51.5014 23.8207 51.7852 23.691 52.0875 23.6353C52.3898 23.5797 52.7011 23.5998 52.9937 23.6939C53.2863 23.788 53.551 23.9532 53.7642 24.1746C54.0107 24.4398 54.175 24.7708 54.2374 25.1275C54.2998 25.4841 54.2576 25.8512 54.1158 26.1844C53.974 26.5176 53.7388 26.8025 53.4385 27.0049C53.1383 27.2072 52.7858 27.3183 52.4238 27.3246Z" fill="#252525"/>
<path d="M62.3838 26.565C62.3655 26.0627 62.2027 25.5764 61.915 25.1643C61.6273 24.7522 61.2269 24.4318 60.7618 24.2414C60.2966 24.0511 59.7865 23.9989 59.2924 24.0911C58.7984 24.1833 58.3414 24.416 57.9762 24.7614C57.7309 24.9974 57.5348 25.2798 57.3994 25.5922C57.264 25.9045 57.192 26.2407 57.1874 26.5811C57.1828 26.9215 57.2458 27.2594 57.3728 27.5753C57.4997 27.8912 57.6881 28.1788 57.927 28.4213C58.291 28.7917 58.7575 29.0446 59.2664 29.1476C59.7753 29.2506 60.3034 29.1989 60.7827 28.9993C61.2621 28.7996 61.6707 28.4611 61.956 28.0273C62.2413 27.5934 62.3903 27.0842 62.3838 26.565ZM59.781 28.3739C59.4736 28.3739 59.1711 28.2976 58.9004 28.1521C58.6297 28.0065 58.3993 27.7961 58.2298 27.5397C58.0603 27.2833 57.957 26.9889 57.9291 26.6828C57.9012 26.3767 57.9496 26.0685 58.0699 25.7857C58.1903 25.5029 58.3788 25.2543 58.6187 25.0621C58.8586 24.87 59.1424 24.7403 59.4447 24.6847C59.747 24.629 60.0583 24.6492 60.3509 24.7433C60.6435 24.8374 60.9082 25.0025 61.1214 25.224C61.3679 25.4892 61.5322 25.8202 61.5946 26.1768C61.657 26.5335 61.6148 26.9006 61.473 27.2338C61.3312 27.5669 61.096 27.8519 60.7957 28.0542C60.4955 28.2566 60.143 28.3676 59.781 28.3739Z" fill="#252525"/>
<path d="M60.36 55.7191C60.36 55.7191 59.8428 55.5691 59.031 55.3393C59.7302 52.4095 60.1748 49.4248 60.36 46.4185C60.3881 46.2933 60.391 46.1637 60.3687 46.0374C60.3464 45.911 60.2992 45.7904 60.23 45.6824C60.1607 45.5744 60.0707 45.4812 59.9652 45.4082C59.8597 45.3352 59.7407 45.2839 59.6152 45.2572C59.4897 45.2305 59.3602 45.2289 59.2341 45.2526C59.108 45.2763 58.9879 45.3248 58.8806 45.3953C58.7734 45.4657 58.6812 45.5567 58.6094 45.663C58.5375 45.7694 58.4875 45.8889 58.4622 46.0147C57.4285 48.778 56.631 51.624 56.0784 54.5221C54.2184 54.0193 52.8048 53.6593 50.9352 53.2273C51.7152 50.7073 52.4352 47.7673 52.989 45.1669C53.063 44.9238 53.0389 44.6615 52.9217 44.4361C52.8046 44.2106 52.6039 44.04 52.3625 43.9609C52.1211 43.8817 51.8583 43.9002 51.6304 44.0125C51.4026 44.1247 51.2277 44.3218 51.1434 44.5615C49.7654 47.6018 48.5477 50.7122 47.4954 53.8801C47.4293 54.0849 47.4068 54.3013 47.4293 54.5153C47.4519 54.7293 47.519 54.9363 47.6264 55.1228C47.7338 55.3093 47.8791 55.4713 48.0528 55.5983C48.2266 55.7252 48.4251 55.8144 48.6354 55.8601C51.072 56.3821 53.457 56.7979 55.6248 57.1429C55.2 59.8357 54.9768 61.9501 54.9768 61.9501C54.9453 62.0871 54.9414 62.229 54.9653 62.3675C54.9891 62.506 55.0403 62.6384 55.1159 62.757C55.1915 62.8755 55.2899 62.9779 55.4054 63.058C55.5208 63.1382 55.6511 63.1945 55.7886 63.2238C55.9261 63.2531 56.0681 63.2548 56.2062 63.2287C56.3443 63.2026 56.4759 63.1492 56.5932 63.0718C56.7105 62.9943 56.8113 62.8943 56.8896 62.7775C56.9678 62.6608 57.0221 62.5296 57.0492 62.3917C57.0492 62.3917 57.7344 60.2875 58.461 57.5779C59.3448 57.7087 59.9148 57.7885 59.9148 57.7885C60.0521 57.8209 60.1944 57.8256 60.3336 57.8024C60.4727 57.7791 60.6057 57.7282 60.725 57.6529C60.8442 57.5775 60.9471 57.479 61.0278 57.3633C61.1085 57.2476 61.1653 57.117 61.1948 56.979C61.2243 56.8411 61.226 56.6987 61.1997 56.5601C61.1735 56.4215 61.1198 56.2895 61.0419 56.172C60.964 56.0544 60.8634 55.9535 60.746 55.8754C60.6286 55.7972 60.4967 55.7432 60.3582 55.7167L60.36 55.7191Z" fill="#252525"/>
<path d="M94.2192 61.4335C94.2192 61.4335 93.7026 61.2835 92.8908 61.0537C93.5909 58.124 94.0363 55.1393 94.2222 52.1329C94.2726 51.8824 94.2222 51.6222 94.082 51.4087C93.9417 51.1952 93.7229 51.0456 93.473 50.9924C93.2231 50.9392 92.9624 50.9868 92.7473 51.1247C92.5323 51.2626 92.3803 51.4798 92.3244 51.7291C91.2901 54.4922 90.4925 57.3383 89.94 60.2365C88.08 59.7331 86.6688 59.3743 84.7968 58.9417C85.5768 56.4139 86.2968 53.4679 86.8506 50.8807C86.9308 50.6359 86.9105 50.3693 86.7941 50.1396C86.6778 49.9098 86.4749 49.7357 86.2302 49.6555C85.9855 49.5753 85.7189 49.5956 85.4891 49.7119C85.2594 49.8283 85.0852 50.0311 85.005 50.2759C83.6264 53.3159 82.4087 56.4264 81.357 59.5945C81.2908 59.7993 81.2682 60.0157 81.2907 60.2298C81.3132 60.4438 81.3804 60.6508 81.4878 60.8374C81.5952 61.0239 81.7405 61.1859 81.9143 61.3128C82.0881 61.4398 82.2866 61.5289 82.497 61.5745C84.9282 62.0953 87.3114 62.5111 89.4864 62.8573C89.0616 65.5501 88.839 67.6645 88.839 67.6645C88.8075 67.8015 88.8036 67.9434 88.8275 68.0819C88.8513 68.2204 88.9026 68.3528 88.9781 68.4714C89.0537 68.5899 89.1521 68.6923 89.2676 68.7724C89.3831 68.8526 89.5133 68.9089 89.6508 68.9382C89.7883 68.9675 89.9303 68.9692 90.0684 68.9431C90.2065 68.917 90.3381 68.8636 90.4554 68.7862C90.5727 68.7087 90.6735 68.6087 90.7518 68.4919C90.83 68.3752 90.8843 68.244 90.9114 68.1061C90.9114 68.1061 91.5966 66.0019 92.3226 63.2923C93.2064 63.4231 93.777 63.5029 93.777 63.5029C94.0517 63.5616 94.3386 63.5088 94.5743 63.356C94.8101 63.2033 94.9756 62.9631 95.0343 62.6884C95.093 62.4136 95.0402 62.1268 94.8874 61.891C94.7347 61.6552 94.4945 61.4898 94.2198 61.4311L94.2192 61.4335Z" fill="#252525"/>
<path d="M78.387 51.903C78.2366 51.0829 77.9251 50.3007 77.4703 49.6019C77.0156 48.903 76.4267 48.3013 75.7378 47.8316C75.0489 47.3619 74.2737 47.0335 73.457 46.8655C72.6403 46.6975 71.7984 46.6932 70.98 46.8528C69.7005 47.0937 68.5235 47.7151 67.6029 48.6357C66.6823 49.5563 66.0609 50.7333 65.82 52.0128L64.74 57.8328C64.5874 58.691 64.6059 59.5708 64.7943 60.4218C64.9828 61.2728 65.3374 62.0782 65.838 62.7918C66.3322 63.4965 66.9612 64.0962 67.6887 64.5562C68.4162 65.0162 69.2277 65.3274 70.0762 65.4718C70.9248 65.6161 71.7935 65.5908 72.6322 65.3972C73.4708 65.2036 74.2628 64.8456 74.9622 64.344C75.6449 63.8511 76.2237 63.2283 76.6655 62.5115C77.1073 61.7946 77.4034 60.9976 77.5368 60.1662L78.4212 54.3108C78.567 53.5137 78.5554 52.6957 78.387 51.903ZM76.3428 53.9316C75.0228 60.0888 75.0984 60.2262 74.5002 61.098C73.9278 61.9168 73.0558 62.4773 72.0732 62.658C71.1234 62.8338 70.1424 62.6315 69.3396 62.0943C68.5368 61.557 67.9757 60.7273 67.776 59.7822C67.5786 58.8342 67.7478 58.6698 68.8134 52.5564C68.9478 51.8274 69.2913 51.1533 69.802 50.6161C70.3127 50.0789 70.9687 49.7018 71.6899 49.5308C72.4112 49.3598 73.1666 49.4023 73.8642 49.653C74.5617 49.9037 75.1713 50.3519 75.6186 50.943C75.9551 51.3553 76.1949 51.8378 76.3202 52.355C76.4456 52.8722 76.4533 53.411 76.3428 53.9316Z" fill="#252525"/>
<path d="M35.04 74.58C34.3304 74.5515 33.6375 74.3568 33.0168 74.0118C32.2746 73.5911 31.6781 72.9543 31.3067 72.1863C30.9353 71.4182 30.8066 70.5552 30.9378 69.7122L38.22 22.7268C38.3851 21.6598 38.9663 20.7017 39.8365 20.0625C40.7066 19.4232 41.7946 19.1549 42.8622 19.3164C116.704 30.5466 112.933 29.5764 114.254 30.3696C114.948 30.7867 115.503 31.4001 115.848 32.1323C116.193 32.8645 116.314 33.6826 116.194 34.4832L109.303 80.643C109.14 81.7252 108.561 82.7007 107.687 83.3603C106.814 84.0198 105.717 84.3109 104.632 84.171L103.124 83.976C103.05 83.9677 102.975 83.9888 102.916 84.0349C102.857 84.0811 102.819 84.1485 102.809 84.2226C102.8 84.2968 102.82 84.3717 102.865 84.4313C102.91 84.4909 102.977 84.5304 103.051 84.5412L104.557 84.7422C105.795 84.9054 107.047 84.577 108.045 83.8275C109.044 83.0779 109.709 81.967 109.897 80.733L116.944 34.593C117.137 33.3189 116.816 32.0202 116.052 30.9826C115.287 29.945 114.142 29.2533 112.868 29.0598C105.96 28.0134 49.8888 19.5552 42.9828 18.522C41.7067 18.3307 40.4069 18.6535 39.3687 19.4197C38.3305 20.1859 37.6387 21.3328 37.4454 22.6086L30.3822 69.6252C30.2389 70.5789 30.3893 71.5537 30.8134 72.4199C31.2375 73.2861 31.9152 74.0027 32.7564 74.4744C33.4425 74.8477 34.2045 75.0603 34.9848 75.096C35.0491 75.0959 35.1112 75.072 35.159 75.029C35.2068 74.9859 35.237 74.9267 35.2439 74.8628C35.2507 74.7988 35.2337 74.7345 35.1961 74.6824C35.1584 74.6302 35.1029 74.5937 35.04 74.58Z" fill="#252525"/>
<path d="M37.1076 28.1808L115.822 39.7506C115.895 39.7581 115.969 39.737 116.027 39.6918C116.085 39.6466 116.123 39.5807 116.134 39.5079C116.144 39.4352 116.127 39.3611 116.084 39.3011C116.041 39.2411 115.977 39.1999 115.905 39.186L37.185 27.666C37.1193 27.6611 37.0541 27.6811 37.0026 27.7222C36.9511 27.7633 36.917 27.8223 36.9072 27.8875C36.8974 27.9526 36.9126 28.0191 36.9498 28.0735C36.9869 28.1279 37.0433 28.1663 37.1076 28.1808Z" fill="#252525"/>
</svg>
