<svg width="115" height="114" viewBox="0 0 115 114" fill="none" xmlns="http://www.w3.org/2000/svg">
<g clip-path="url(#clip0_430_179)">
<path d="M114.13 113.65H0V113.85H114.13V113.65Z" fill="#1B1A2E"/>
<path d="M106.59 68.51H39.9497C38.7197 68.51 37.7197 69.51 37.7197 70.74V110.3H108.82V70.74C108.82 69.51 107.82 68.51 106.59 68.51Z" fill="#04003D"/>
<path d="M107.23 70.4401H39.2998V108.36H107.23V70.4401Z" fill="white"/>
<path d="M34.0699 110.3H112.47C113.1 110.3 113.61 110.81 113.61 111.44V111.67C113.61 112.72 112.75 113.58 111.7 113.58H34.8299C33.7799 113.58 32.9199 112.72 32.9199 111.67V111.44C32.9199 110.81 33.4299 110.3 34.0599 110.3H34.0699Z" fill="#04003D"/>
<path d="M63.73 111.12H82.8C83.08 111.12 83.31 110.89 83.31 110.61C83.31 110.44 83.17 110.3 83 110.3H63.52C63.35 110.3 63.21 110.44 63.21 110.61C63.21 110.89 63.44 111.12 63.72 111.12H63.73Z" fill="#94FCFF"/>
<path d="M37.7197 110.3L55.4897 110.28L73.2697 110.27L91.0397 110.28L108.82 110.3L91.0397 110.32L73.2697 110.33L55.4897 110.32L37.7197 110.3Z" fill="#1B1A2E"/>
<path d="M73.27 69.78C73.4412 69.78 73.58 69.6412 73.58 69.47C73.58 69.2988 73.4412 69.16 73.27 69.16C73.0988 69.16 72.96 69.2988 72.96 69.47C72.96 69.6412 73.0988 69.78 73.27 69.78Z" fill="#1B1A2E"/>
<path d="M38.0097 111.67H37.7197V112.17H38.0097V111.67Z" fill="#F9A21B"/>
<path d="M38.8696 111.67H38.5796V112.17H38.8696V111.67Z" fill="#1B1A2E"/>
<path d="M39.7397 111.67H39.4497V112.17H39.7397V111.67Z" fill="#1B1A2E"/>
<path d="M105.13 71.59H41.4102V71.64H105.13V71.59Z" fill="#F0F2F5"/>
<path d="M105.13 107.16H41.4102V107.21H105.13V107.16Z" fill="#F0F2F5"/>
<path d="M34.59 76.4401H0.52002V101.89H34.59V76.4401Z" fill="white"/>
<g opacity="0.25">
<path d="M34.6699 76.55H0.689941V101.95H34.6699V76.55Z" fill="white"/>
<path d="M34.5698 76.55H0.589844V79.69H34.5698V76.55Z" fill="#E1E1E1"/>
<path d="M2.45 78.57C2.69853 78.57 2.9 78.3686 2.9 78.12C2.9 77.8715 2.69853 77.67 2.45 77.67C2.20147 77.67 2 77.8715 2 78.12C2 78.3686 2.20147 78.57 2.45 78.57Z" fill="white"/>
<path d="M3.97002 78.57C4.21855 78.57 4.42002 78.3686 4.42002 78.12C4.42002 77.8715 4.21855 77.67 3.97002 77.67C3.72149 77.67 3.52002 77.8715 3.52002 78.12C3.52002 78.3686 3.72149 78.57 3.97002 78.57Z" fill="white"/>
<path d="M5.4998 78.57C5.74833 78.57 5.9498 78.3686 5.9498 78.12C5.9498 77.8715 5.74833 77.67 5.4998 77.67C5.25128 77.67 5.0498 77.8715 5.0498 78.12C5.0498 78.3686 5.25128 78.57 5.4998 78.57Z" fill="white"/>
<path d="M34.5698 101.96C34.5698 101.96 34.5698 101.8 34.5698 101.5C34.5698 101.19 34.5698 100.74 34.5698 100.15C34.5698 98.9701 34.5698 97.2301 34.5598 95.0201C34.5598 90.5901 34.5498 84.2501 34.5398 76.5601L34.5798 76.6001C24.9998 76.6001 13.2598 76.6001 0.599824 76.6001L0.649824 76.5501C0.649824 85.6801 0.649824 94.3301 0.649824 101.95L0.609824 101.91C10.6698 101.91 19.1598 101.93 25.1398 101.93C28.1298 101.93 30.4898 101.93 32.1098 101.94C32.9198 101.94 33.5398 101.94 33.9598 101.94C34.1698 101.94 34.3298 101.94 34.4398 101.94C34.3298 101.94 34.1798 101.94 33.9698 101.94C33.5498 101.94 32.9298 101.94 32.1298 101.94C30.5198 101.94 28.1598 101.94 25.1698 101.95C19.1898 101.95 10.6898 101.96 0.609824 101.97H0.569824V101.93C0.569824 94.3001 0.569824 85.6601 0.569824 76.5301V76.4801H0.619824C13.2798 76.4801 25.0198 76.4801 34.5998 76.4801H34.6398V76.5201C34.6398 84.2201 34.6198 90.5701 34.6198 95.0001C34.6198 97.2101 34.6198 98.9401 34.6098 100.12C34.6098 100.71 34.6098 101.16 34.6098 101.46C34.6098 101.76 34.6098 101.92 34.6098 101.92L34.5698 101.96Z" fill="#1A2E35"/>
<path d="M32.6997 91.8601C32.6997 91.8601 25.9397 91.9101 17.5997 91.9101C9.25975 91.9101 2.48975 91.8901 2.48975 91.8601C2.48975 91.8301 9.24975 91.8101 17.5997 91.8101C25.9497 91.8101 32.6997 91.8301 32.6997 91.8601Z" fill="#E1E1E1"/>
<path d="M32.6997 89.2501C32.6997 89.2501 25.9397 89.3001 17.5997 89.3001C9.25975 89.3001 2.48975 89.2801 2.48975 89.2501C2.48975 89.2201 9.24975 89.2001 17.5997 89.2001C25.9497 89.2001 32.6997 89.2201 32.6997 89.2501Z" fill="#E1E1E1"/>
<path d="M32.6997 86.6501C32.6997 86.6501 25.9397 86.7001 17.5997 86.7001C9.25975 86.7001 2.48975 86.6801 2.48975 86.6501C2.48975 86.6201 9.24975 86.6001 17.5997 86.6001C25.9497 86.6001 32.6997 86.6201 32.6997 86.6501Z" fill="#E1E1E1"/>
<path d="M32.6997 84.0401C32.6997 84.0401 25.9397 84.0901 17.5997 84.0901C9.25975 84.0901 2.48975 84.0701 2.48975 84.0401C2.48975 84.0101 9.24975 83.9901 17.5997 83.9901C25.9497 83.9901 32.6997 84.0101 32.6997 84.0401Z" fill="#E1E1E1"/>
<path d="M7.5598 90.6801H5.0498V95.7301H7.5598V90.6801Z" fill="#BABABA"/>
<path d="M16.5798 90.6801H14.0698V95.7301H16.5798V90.6801Z" fill="#E1E1E1"/>
<path d="M30.26 92.4001H27.75V95.7301H30.26V92.4001Z" fill="#E1E1E1"/>
<path d="M25.5998 88.29H23.0898V95.74H25.5998V88.29Z" fill="#E1E1E1"/>
<path d="M20.99 85.3901H18.48V95.7401H20.99V85.3901Z" fill="#BABABA"/>
<path d="M11.8899 88.29H9.37988V95.74H11.8899V88.29Z" fill="#E1E1E1"/>
<path d="M32.3397 95.7301C32.3397 95.7301 32.2997 95.7301 32.2297 95.7301C32.1497 95.7301 32.0397 95.7301 31.8997 95.7301C31.6097 95.7301 31.1797 95.7301 30.6297 95.7301C29.5197 95.7301 27.9297 95.7301 25.9597 95.7501C22.0197 95.7501 16.5797 95.7501 10.5697 95.7601C7.68967 95.7601 4.94967 95.7601 2.44967 95.7601H2.40967V95.7201C2.40967 91.7201 2.41967 88.3001 2.42967 85.8901C2.42967 84.6901 2.42967 83.7301 2.43967 83.0701C2.43967 82.7501 2.43967 82.4901 2.43967 82.3201C2.43967 82.2401 2.43967 82.1701 2.43967 82.1301C2.43967 82.0901 2.43967 82.0601 2.43967 82.0601C2.43967 82.0601 2.43967 82.0801 2.43967 82.1301C2.43967 82.1801 2.43967 82.2401 2.43967 82.3201C2.43967 82.4901 2.43967 82.7401 2.43967 83.0701C2.43967 83.7301 2.43967 84.6801 2.44967 85.8901C2.44967 88.3101 2.45967 91.7201 2.46967 95.7201L2.42967 95.6801C4.92967 95.6801 7.66967 95.6801 10.5497 95.6801C16.5597 95.6801 21.9997 95.6901 25.9397 95.6901C27.9097 95.6901 29.4997 95.7001 30.6097 95.7101C31.1597 95.7101 31.5897 95.7101 31.8797 95.7101C32.0197 95.7101 32.1297 95.7101 32.2097 95.7101C32.2797 95.7101 32.3197 95.7101 32.3197 95.7101L32.3397 95.7301Z" fill="#1A2E35"/>
<path d="M8.82998 98.3002H7.72998V99.4002H8.82998V98.3002Z" fill="#BABABA"/>
<path d="M15.58 98.2601H14.48V99.3601H15.58V98.2601Z" fill="#E1E1E1"/>
<path d="M22.8798 98.3002H21.7798V99.4002H22.8798V98.3002Z" fill="#E1E1E1"/>
<path d="M12.4897 98.8201C12.4897 98.8201 11.8197 98.8701 10.9897 98.8701C10.1597 98.8701 9.48975 98.8501 9.48975 98.8201C9.48975 98.7901 10.1597 98.7701 10.9897 98.7701C11.8197 98.7701 12.4897 98.7901 12.4897 98.8201Z" fill="#1A2E35"/>
<path d="M19.1899 98.8201C19.1899 98.8201 18.5199 98.8701 17.6899 98.8701C16.8599 98.8701 16.1899 98.8501 16.1899 98.8201C16.1899 98.7901 16.8599 98.7701 17.6899 98.7701C18.5199 98.7701 19.1899 98.7901 19.1899 98.8201Z" fill="#1A2E35"/>
<path d="M26.3198 98.8201C26.3198 98.8201 25.6498 98.8701 24.8198 98.8701C23.9898 98.8701 23.3198 98.8501 23.3198 98.8201C23.3198 98.7901 23.9898 98.7701 24.8198 98.7701C25.6498 98.7701 26.3198 98.7901 26.3198 98.8201Z" fill="#1A2E35"/>
</g>
<path d="M106.79 80.39H80.8799V106.3H106.79V80.39Z" fill="white"/>
<g opacity="0.25">
<path d="M94.3901 95.3601L101.53 95.4601C101.48 99.2701 98.2701 102.37 94.3901 102.37C94.3801 102.37 94.3601 102.37 94.3501 102.37L94.3901 95.3601Z" fill="#E1E1E1"/>
<path d="M93.2599 94.3501L93.1599 101.36C89.2799 101.31 86.1099 98.1601 86.1099 94.3501C86.1099 90.5401 89.3399 87.3401 93.2599 87.3401C97.1799 87.3401 100.41 90.5001 100.41 94.3501H93.2599Z" fill="#BABABA"/>
</g>
<g opacity="0.25">
<path d="M106.77 80.39H80.8799V85.49H106.77V80.39Z" fill="#E1E1E1"/>
</g>
<path d="M83.8999 83.6701C84.3031 83.6701 84.6299 83.3433 84.6299 82.9401C84.6299 82.5369 84.3031 82.2101 83.8999 82.2101C83.4968 82.2101 83.1699 82.5369 83.1699 82.9401C83.1699 83.3433 83.4968 83.6701 83.8999 83.6701Z" fill="white"/>
<path d="M86.3799 83.6701C86.7831 83.6701 87.1099 83.3433 87.1099 82.9401C87.1099 82.5369 86.7831 82.2101 86.3799 82.2101C85.9767 82.2101 85.6499 82.5369 85.6499 82.9401C85.6499 83.3433 85.9767 83.6701 86.3799 83.6701Z" fill="white"/>
<path d="M89.5899 82.9401C89.5899 83.3501 89.2599 83.6701 88.8599 83.6701C88.4599 83.6701 88.1299 83.3401 88.1299 82.9401C88.1299 82.5401 88.4599 82.2101 88.8599 82.2101C89.2599 82.2101 89.5899 82.5401 89.5899 82.9401Z" fill="white"/>
<g opacity="0.25">
<path d="M106.79 106.3C106.79 106.3 106.79 106.26 106.79 106.18C106.79 106.1 106.79 105.98 106.79 105.82C106.79 105.5 106.79 105.03 106.79 104.43C106.79 103.21 106.79 101.43 106.77 99.16C106.77 94.63 106.75 88.16 106.74 80.4L106.8 80.46C99.2701 80.46 90.3801 80.46 80.8901 80.46L80.9601 80.39C80.9601 89.88 80.9601 98.77 80.9601 106.3L80.9001 106.24C88.6601 106.25 95.1301 106.26 99.6601 106.27C101.93 106.27 103.71 106.28 104.93 106.29C105.54 106.29 106 106.29 106.32 106.29C106.48 106.29 106.6 106.29 106.68 106.29C106.6 106.29 106.48 106.29 106.33 106.29C106.01 106.29 105.55 106.29 104.95 106.29C103.73 106.29 101.96 106.29 99.6901 106.31C95.1501 106.31 88.6601 106.33 80.8901 106.34H80.8301V106.28C80.8301 98.75 80.8301 89.86 80.8301 80.37V80.3H80.9001C90.3901 80.3 99.2801 80.3 106.81 80.3H106.87V80.36C106.86 88.14 106.85 94.62 106.84 99.16C106.84 101.42 106.83 103.2 106.82 104.42C106.82 105.02 106.82 105.49 106.82 105.8C106.82 105.95 106.82 106.07 106.82 106.15C106.82 106.23 106.82 106.27 106.82 106.27L106.79 106.3Z" fill="#1A2E35"/>
</g>
<path d="M87.9896 71.97H39.5796V107H87.9896V71.97Z" fill="white"/>
<g opacity="0.25">
<path d="M87.9998 72.02H39.5898V106.95H87.9998V72.02Z" fill="white"/>
<path d="M80.0196 79.9399H67.0596C65.5629 79.9399 64.3496 81.1532 64.3496 82.6499V85.2799C64.3496 86.7766 65.5629 87.9899 67.0596 87.9899H80.0196C81.5163 87.9899 82.7296 86.7766 82.7296 85.2799V82.6499C82.7296 81.1532 81.5163 79.9399 80.0196 79.9399Z" fill="#ECECEC"/>
<path d="M43.0499 88.9299C42.9799 84.7799 46.2899 81.3499 50.4199 81.2899C54.5499 81.2199 57.9599 84.5399 58.0299 88.6899C58.0999 92.8399 54.7899 96.2699 50.6599 96.3299C46.5299 96.3999 43.1199 93.0799 43.0499 88.9299ZM54.1199 88.7499C54.0899 86.7699 52.4599 85.1799 50.4799 85.2099C48.5099 85.2399 46.9299 86.8799 46.9599 88.8599C46.9899 90.8399 48.6199 92.4299 50.5999 92.3999C52.5699 92.3699 54.1499 90.7299 54.1199 88.7499Z" fill="#F5F5F5"/>
<path d="M43.0499 88.9299C42.9799 84.7799 46.2899 81.3499 50.4199 81.2899L50.4799 85.2199C48.5099 85.2499 46.9299 86.8899 46.9599 88.8699C46.9899 90.8499 48.6199 92.4399 50.5999 92.4099L50.6599 96.3399C46.5299 96.4099 43.1199 93.0899 43.0499 88.9399V88.9299Z" fill="#E1E1E1"/>
<path d="M54.1202 88.7499C54.1202 88.7499 54.1202 88.7699 54.1202 88.8099C54.1202 88.8499 54.1202 88.9099 54.1202 88.9799C54.1202 89.0599 54.1202 89.1499 54.1002 89.2599C54.0902 89.3699 54.0702 89.4999 54.0402 89.6399C53.9902 89.9199 53.8602 90.2599 53.6702 90.6099C53.4702 90.9699 53.1802 91.3399 52.7802 91.6599C52.3802 91.9799 51.8702 92.2499 51.2702 92.3699C50.6802 92.4899 50.0102 92.4799 49.3602 92.2499C49.2002 92.1999 49.0402 92.1199 48.8802 92.0499C48.7302 91.9599 48.5702 91.8799 48.4302 91.7699C48.2802 91.6699 48.1502 91.5499 48.0102 91.4299C47.8902 91.2999 47.7602 91.1699 47.6502 91.0099C47.4302 90.7099 47.2402 90.3799 47.1202 90.0199C47.0002 89.6599 46.9302 89.2699 46.9102 88.8799C46.9102 88.4899 46.9702 88.0999 47.0802 87.7299C47.1902 87.3599 47.3702 87.0199 47.5802 86.7199C47.6802 86.5599 47.8102 86.4299 47.9302 86.2899C48.0602 86.1699 48.1902 86.0399 48.3402 85.9299C48.4802 85.8099 48.6302 85.7299 48.7802 85.6399C48.9402 85.5599 49.0902 85.4799 49.2502 85.4199C49.8902 85.1699 50.5602 85.1399 51.1502 85.2399C51.7502 85.3399 52.2702 85.5999 52.6802 85.9099C53.0902 86.2199 53.4002 86.5799 53.6102 86.9299C53.8202 87.2799 53.9502 87.6099 54.0102 87.8899C54.0502 88.0299 54.0702 88.1499 54.0802 88.2599C54.1002 88.3699 54.1102 88.4599 54.1102 88.5399C54.1102 88.6099 54.1102 88.6699 54.1102 88.7099C54.1102 88.6699 54.1102 88.6099 54.0902 88.5399C54.0902 88.4699 54.0802 88.3699 54.0502 88.2699C54.0302 88.1599 54.0102 88.0399 53.9702 87.8999C53.9002 87.6199 53.7702 87.2999 53.5602 86.9599C53.3502 86.6199 53.0502 86.2599 52.6402 85.9699C52.2302 85.6699 51.7202 85.4199 51.1402 85.3299C50.5602 85.2399 49.9002 85.2699 49.2802 85.5199C49.1202 85.5699 48.9702 85.6599 48.8202 85.7299C48.6802 85.8199 48.5202 85.9099 48.3902 86.0199C48.2502 86.1199 48.1202 86.2499 48.0002 86.3699C47.8802 86.4999 47.7602 86.6399 47.6602 86.7899C47.4602 87.0899 47.2802 87.4199 47.1702 87.7699C47.0602 88.1299 47.0102 88.5099 47.0102 88.8899C47.0302 89.6599 47.2902 90.3999 47.7302 90.9699C47.8302 91.1199 47.9602 91.2499 48.0802 91.3799C48.2102 91.4999 48.3402 91.6199 48.4902 91.7199C48.6302 91.8299 48.7802 91.9099 48.9302 91.9899C49.0802 92.0599 49.2302 92.1399 49.3902 92.1899C50.0202 92.4199 50.6702 92.4299 51.2502 92.3199C51.8302 92.2099 52.3402 91.9399 52.7302 91.6299C53.1302 91.3199 53.4202 90.9499 53.6202 90.6099C53.8202 90.2599 53.9402 89.9299 54.0002 89.6599C54.0402 89.5199 54.0502 89.3999 54.0702 89.2899C54.0902 89.1799 54.1002 89.0899 54.1002 89.0099C54.1002 88.9399 54.1002 88.8799 54.1102 88.8399C54.1102 88.7999 54.1102 88.7799 54.1102 88.7799L54.1202 88.7499Z" fill="#1A2E35"/>
<path d="M43.05 88.9299C43.05 88.9299 43.05 88.9699 43.06 89.0499C43.06 89.1299 43.08 89.2499 43.09 89.4099C43.09 89.4899 43.1 89.5799 43.11 89.6699C43.12 89.7699 43.14 89.8699 43.16 89.9799C43.18 90.0899 43.2 90.2099 43.22 90.3399C43.24 90.4699 43.29 90.5999 43.32 90.7499C43.46 91.3299 43.74 92.0099 44.18 92.7299C44.62 93.4499 45.25 94.1899 46.11 94.8199C46.22 94.8999 46.33 94.9799 46.44 95.0599C46.55 95.1299 46.67 95.1999 46.79 95.2699C46.91 95.3399 47.03 95.4199 47.16 95.4799C47.29 95.5399 47.42 95.5999 47.55 95.6599C47.62 95.6899 47.68 95.7199 47.75 95.7499C47.82 95.7699 47.89 95.7999 47.96 95.8199C48.1 95.8699 48.24 95.9199 48.38 95.9699C48.52 96.0199 48.67 96.0399 48.82 96.0799C48.97 96.1099 49.12 96.1599 49.27 96.1799C49.58 96.2199 49.89 96.2799 50.22 96.2699C50.38 96.2699 50.54 96.2899 50.71 96.2799C50.87 96.2699 51.04 96.2599 51.2 96.2499C51.28 96.2499 51.37 96.2499 51.45 96.2299L51.7 96.1899C51.87 96.1599 52.03 96.1399 52.2 96.0999C52.53 96.0099 52.87 95.9299 53.19 95.7899C53.52 95.6799 53.83 95.4999 54.15 95.3399C54.3 95.2499 54.45 95.1499 54.61 95.0499C54.77 94.9599 54.91 94.8399 55.05 94.7299C55.35 94.5199 55.61 94.2499 55.88 93.9899C56 93.8499 56.13 93.7099 56.25 93.5699L56.34 93.4599L56.42 93.3399L56.59 93.1099L56.76 92.8799L56.91 92.6299L57.06 92.3799L57.13 92.2499L57.19 92.1199C57.27 91.9399 57.35 91.7699 57.43 91.5899C57.49 91.4099 57.56 91.2199 57.62 91.0299C57.85 90.2799 57.97 89.4799 57.97 88.6699C57.95 87.8599 57.8 87.0699 57.55 86.3199C57.48 86.1399 57.41 85.9499 57.34 85.7699C57.25 85.5999 57.17 85.4199 57.08 85.2499L57.01 85.1199L56.93 84.9999L56.78 84.7599L56.63 84.5199L56.46 84.2899L56.29 84.0599L56.2 83.9499L56.1 83.8499C55.97 83.7099 55.84 83.5699 55.72 83.4399C55.44 83.1899 55.17 82.9399 54.87 82.7299C54.72 82.6199 54.58 82.5099 54.42 82.4299C54.26 82.3399 54.11 82.2399 53.95 82.1599C53.62 82.0099 53.31 81.8499 52.97 81.7499C52.64 81.6199 52.3 81.5599 51.97 81.4699C51.8 81.4399 51.63 81.4199 51.47 81.3999L51.22 81.3699C51.14 81.3599 51.05 81.3699 50.97 81.3599C50.8 81.3599 50.64 81.3499 50.48 81.3399C50.32 81.3399 50.15 81.3599 49.99 81.3699C49.67 81.3699 49.36 81.4499 49.05 81.4999C48.89 81.5199 48.75 81.5699 48.6 81.6099C48.45 81.6499 48.3 81.6899 48.16 81.7399C48.02 81.7899 47.88 81.8499 47.74 81.8999C47.67 81.9299 47.6 81.9499 47.53 81.9799C47.46 82.0099 47.4 82.0499 47.33 82.0799C47.2 82.1499 47.07 82.2099 46.95 82.2699C46.82 82.3299 46.71 82.4199 46.59 82.4899C46.47 82.5699 46.35 82.6299 46.24 82.7099C46.13 82.7899 46.03 82.8799 45.92 82.9599C45.09 83.6199 44.48 84.3899 44.06 85.1199C43.65 85.8499 43.39 86.5399 43.26 87.1299C43.23 87.2799 43.18 87.4099 43.17 87.5399C43.15 87.6699 43.13 87.7899 43.12 87.9099C43.11 88.0199 43.09 88.1299 43.08 88.2199C43.08 88.3199 43.08 88.3999 43.07 88.4799C43.07 88.6299 43.06 88.7499 43.05 88.8399C43.05 88.7599 43.05 88.6399 43.05 88.4799C43.05 88.3999 43.05 88.3099 43.05 88.2199C43.05 88.1199 43.07 88.0199 43.09 87.8999C43.1 87.7899 43.12 87.6599 43.14 87.5299C43.15 87.3999 43.2 87.2599 43.23 87.1199C43.35 86.5299 43.6 85.8399 44.02 85.0999C44.44 84.3599 45.04 83.5799 45.88 82.9199C45.99 82.8399 46.09 82.7499 46.2 82.6699C46.31 82.5899 46.43 82.5199 46.55 82.4399C46.67 82.3699 46.78 82.2799 46.91 82.2199C47.04 82.1599 47.17 82.0899 47.3 82.0199C47.37 81.9899 47.43 81.9499 47.5 81.9199C47.57 81.8899 47.64 81.8699 47.71 81.8399C47.85 81.7899 47.99 81.7299 48.13 81.6799C48.27 81.6299 48.42 81.5999 48.57 81.5499C48.72 81.5099 48.87 81.4599 49.02 81.4399C49.33 81.3899 49.65 81.3199 49.97 81.3099C50.13 81.3099 50.3 81.2799 50.46 81.2799C50.63 81.2799 50.79 81.2899 50.96 81.2999C51.04 81.2999 51.13 81.2999 51.21 81.3099L51.46 81.3399C51.63 81.3699 51.8 81.3799 51.97 81.4099C52.3 81.4899 52.65 81.5599 52.98 81.6899C53.32 81.7899 53.64 81.9599 53.97 82.1099C54.13 82.1999 54.28 82.2899 54.44 82.3799C54.6 82.4699 54.75 82.5799 54.9 82.6899C55.21 82.8999 55.48 83.1599 55.77 83.4099C55.9 83.5499 56.03 83.6899 56.16 83.8299L56.26 83.9299L56.35 84.0399L56.53 84.2699L56.71 84.4999L56.87 84.7499L57.03 84.9999L57.11 85.1199L57.18 85.2499C57.27 85.4299 57.36 85.5999 57.44 85.7799C57.51 85.9599 57.58 86.1499 57.65 86.3399C57.91 87.0899 58.05 87.8999 58.08 88.7199C58.08 89.5399 57.96 90.3499 57.73 91.1099C57.66 91.2999 57.6 91.4899 57.53 91.6699C57.45 91.8499 57.36 92.0299 57.28 92.2099L57.22 92.3399L57.15 92.4699L57 92.7199L56.85 92.9699L56.68 93.2099L56.51 93.4399L56.43 93.5599L56.34 93.6699C56.21 93.8099 56.09 93.9599 55.96 94.0999C55.68 94.3599 55.42 94.6299 55.12 94.8399C54.97 94.9499 54.83 95.0699 54.67 95.1599C54.51 95.2599 54.36 95.3599 54.21 95.4499C53.89 95.6099 53.57 95.7899 53.23 95.8999C52.9 96.0399 52.56 96.1199 52.23 96.2099C52.06 96.2499 51.89 96.2699 51.72 96.2999L51.47 96.3399C51.39 96.3499 51.3 96.3499 51.22 96.3599C51.05 96.3699 50.89 96.3799 50.72 96.3899C50.55 96.3899 50.39 96.3899 50.23 96.3799C49.9 96.3799 49.59 96.3199 49.27 96.2799C49.11 96.2699 48.96 96.2099 48.81 96.1799C48.66 96.1399 48.51 96.1099 48.36 96.0699C48.22 96.0199 48.07 95.9699 47.93 95.9199C47.86 95.8999 47.79 95.8699 47.72 95.8499C47.65 95.8199 47.59 95.7899 47.52 95.7599C47.39 95.6999 47.26 95.6399 47.13 95.5799C47 95.5199 46.88 95.4399 46.76 95.3699C46.64 95.2999 46.52 95.2299 46.4 95.1599C46.29 95.0799 46.18 94.9999 46.07 94.9199C45.21 94.2799 44.58 93.5199 44.14 92.7999C43.7 92.0699 43.43 91.3799 43.29 90.7999C43.26 90.6499 43.21 90.5199 43.19 90.3899C43.17 90.2599 43.15 90.1399 43.13 90.0199C43.11 89.9099 43.09 89.7999 43.08 89.7099C43.08 89.6099 43.07 89.5299 43.06 89.4499C43.06 89.2999 43.05 89.1799 43.04 89.0899C43.04 89.0099 43.04 88.9699 43.04 88.9699L43.05 88.9299Z" fill="#1A2E35"/>
<path d="M49.75 80.69C54.58 80.61 58.43 84.36 58.51 89.21L53.94 89.28C53.9 86.96 52.14 85.5 49.83 85.54L49.75 80.69Z" fill="#BABABA"/>
<path d="M49.75 80.6899C49.75 80.6899 49.75 80.7199 49.75 80.7799C49.75 80.8399 49.75 80.9299 49.75 81.0399C49.75 81.2699 49.76 81.5999 49.77 82.0099C49.79 82.8499 49.81 84.0599 49.85 85.5399L49.81 85.4999C50.25 85.4999 50.71 85.5399 51.18 85.6699C51.65 85.7999 52.12 86.0099 52.54 86.3299C52.96 86.6499 53.32 87.0799 53.57 87.5899C53.82 88.0999 53.95 88.6799 53.96 89.2799L53.91 89.2299C55.03 89.2099 56.22 89.1899 57.45 89.1699C57.8 89.1699 58.15 89.1599 58.48 89.1499L58.43 89.1999C58.4 88.2499 58.24 87.3399 57.96 86.4999C57.88 86.2899 57.8 86.0899 57.73 85.8799C57.64 85.6799 57.54 85.4899 57.45 85.2999C57.36 85.0999 57.25 84.9299 57.14 84.7499C57.03 84.5799 56.93 84.3899 56.8 84.2399C56.68 84.0799 56.56 83.9199 56.44 83.7599C56.31 83.6099 56.17 83.4699 56.05 83.3299C55.98 83.2599 55.92 83.1899 55.86 83.1199C55.79 83.0599 55.72 82.9999 55.65 82.9299C55.51 82.8099 55.37 82.6899 55.24 82.5699C54.67 82.1399 54.1 81.7699 53.54 81.5199C53.4 81.4599 53.27 81.3899 53.13 81.3299C52.99 81.2799 52.86 81.2299 52.73 81.1899C52.6 81.1399 52.47 81.0999 52.35 81.0599C52.23 81.0199 52.1 80.9999 51.99 80.9699C51.87 80.9399 51.76 80.9099 51.65 80.8899C51.6 80.8799 51.54 80.8599 51.49 80.8499C51.44 80.8499 51.38 80.8299 51.33 80.8299C51.13 80.7999 50.94 80.7799 50.77 80.7499C50.6 80.7199 50.45 80.7199 50.32 80.7099C50.19 80.7099 50.08 80.6999 49.99 80.6899C49.9 80.6899 49.84 80.6899 49.79 80.6799C49.84 80.6799 49.91 80.6799 49.99 80.6799C50.08 80.6799 50.19 80.6799 50.32 80.6799C50.45 80.6799 50.61 80.6799 50.77 80.7099C50.94 80.7299 51.13 80.7599 51.33 80.7799C51.38 80.7799 51.43 80.7899 51.49 80.7999C51.54 80.8099 51.6 80.8199 51.65 80.8399C51.76 80.8699 51.87 80.8899 51.99 80.9199C52.11 80.9499 52.23 80.9699 52.36 81.0099C52.48 81.0499 52.61 81.0899 52.74 81.1399C52.87 81.1899 53.01 81.2299 53.14 81.2799C53.27 81.3399 53.41 81.3999 53.55 81.4699C54.12 81.7099 54.69 82.0799 55.27 82.5199C55.41 82.6399 55.55 82.7599 55.69 82.8799C55.76 82.9399 55.83 82.9999 55.9 83.0699C55.97 83.1399 56.03 83.2099 56.1 83.2799C56.23 83.4199 56.37 83.5599 56.5 83.7099C56.62 83.8699 56.74 84.0299 56.87 84.1899C57 84.3499 57.1 84.5299 57.21 84.7099C57.32 84.8899 57.44 85.0699 57.53 85.2599C57.62 85.4499 57.73 85.6499 57.81 85.8499C57.89 86.0599 57.97 86.2599 58.05 86.4699C58.33 87.3199 58.5 88.2499 58.52 89.1999V89.2499H58.47C58.14 89.2499 57.79 89.2599 57.44 89.2699C56.21 89.2899 55.02 89.3099 53.9 89.3299H53.85V89.2799C53.85 88.6999 53.71 88.1299 53.47 87.6299C53.23 87.1299 52.88 86.7099 52.47 86.3999C52.06 86.0799 51.6 85.8699 51.14 85.7499C50.68 85.6199 50.22 85.5799 49.79 85.5799H49.75V85.5399C49.73 84.0499 49.72 82.8299 49.71 81.9799C49.71 81.5699 49.71 81.2399 49.71 81.0099C49.71 80.8999 49.71 80.8199 49.71 80.7599C49.71 80.6999 49.71 80.6799 49.71 80.6799L49.75 80.6899Z" fill="#1A2E35"/>
<path d="M87.9998 72.02H39.5898V76.69H87.9998V72.02Z" fill="#E1E1E1"/>
<path d="M80.5699 82.6399H66.9599C66.7999 82.6399 66.6699 82.5099 66.6699 82.3499C66.6699 82.1899 66.7999 82.0599 66.9599 82.0599H80.5699C80.7299 82.0599 80.8599 82.1899 80.8599 82.3499C80.8599 82.5099 80.7299 82.6399 80.5699 82.6399Z" fill="#E1E1E1"/>
<path d="M80.5699 84.19H66.9599C66.7999 84.19 66.6699 84.06 66.6699 83.9C66.6699 83.74 66.7999 83.61 66.9599 83.61H80.5699C80.7299 83.61 80.8599 83.74 80.8599 83.9C80.8599 84.06 80.7299 84.19 80.5699 84.19Z" fill="#E1E1E1"/>
<path d="M73.1497 85.73H66.9697C66.8097 85.73 66.6797 85.6 66.6797 85.44C66.6797 85.28 66.8097 85.15 66.9697 85.15H73.1497C73.3097 85.15 73.4397 85.28 73.4397 85.44C73.4397 85.6 73.3097 85.73 73.1497 85.73Z" fill="#E1E1E1"/>
<path d="M80.0196 89.7899H67.0596C65.5629 89.7899 64.3496 91.0032 64.3496 92.4999V95.1299C64.3496 96.6266 65.5629 97.8399 67.0596 97.8399H80.0196C81.5163 97.8399 82.7296 96.6266 82.7296 95.1299V92.4999C82.7296 91.0032 81.5163 89.7899 80.0196 89.7899Z" fill="#ECECEC"/>
<path d="M80.9397 102.87H65.7497C64.8697 102.87 64.1597 102.16 64.1597 101.28C64.1597 100.4 64.8697 99.6899 65.7497 99.6899H80.9397C81.8197 99.6899 82.5297 100.4 82.5297 101.28C82.5297 102.16 81.8197 102.87 80.9397 102.87Z" fill="#ECECEC"/>
<path d="M80.4796 92.57H66.8696C66.7096 92.57 66.5796 92.44 66.5796 92.28C66.5796 92.12 66.7096 91.99 66.8696 91.99H80.4796C80.6396 91.99 80.7696 92.12 80.7696 92.28C80.7696 92.44 80.6396 92.57 80.4796 92.57Z" fill="#E1E1E1"/>
<path d="M79.9 101.61H66.29C66.13 101.61 66 101.48 66 101.32C66 101.16 66.13 101.03 66.29 101.03H79.9C80.06 101.03 80.19 101.16 80.19 101.32C80.19 101.48 80.06 101.61 79.9 101.61Z" fill="#E1E1E1"/>
<path d="M80.4796 94.11H66.8696C66.7096 94.11 66.5796 93.98 66.5796 93.82C66.5796 93.66 66.7096 93.53 66.8696 93.53H80.4796C80.6396 93.53 80.7696 93.66 80.7696 93.82C80.7696 93.98 80.6396 94.11 80.4796 94.11Z" fill="#E1E1E1"/>
<path d="M73.0598 95.6499H66.8798C66.7198 95.6499 66.5898 95.5199 66.5898 95.3599C66.5898 95.1999 66.7198 95.0699 66.8798 95.0699H73.0598C73.2198 95.0699 73.3498 95.1999 73.3498 95.3599C73.3498 95.5199 73.2198 95.6499 73.0598 95.6499Z" fill="#E1E1E1"/>
<path d="M63.3999 81.66C63.3999 81.66 63.3099 81.67 63.1499 81.68C62.9699 81.68 62.7299 81.68 62.4599 81.7C61.8699 81.7 61.0699 81.71 60.1699 81.71C59.7999 81.71 59.4499 81.71 59.1299 81.71H59.1599C58.7099 82.15 58.3099 82.53 58.0299 82.8C57.8999 82.92 57.7899 83.03 57.6999 83.11C57.6199 83.18 57.5799 83.22 57.5699 83.21C57.5599 83.2 57.5999 83.16 57.6699 83.08C57.7499 82.99 57.8599 82.88 57.9799 82.75C58.2499 82.47 58.6299 82.08 59.0799 81.62H59.0899L59.1099 81.61C59.4299 81.61 59.7899 81.61 60.1499 81.61C61.0399 81.61 61.8499 81.61 62.4399 81.62C62.7199 81.62 62.9499 81.63 63.1299 81.64C63.2899 81.64 63.3799 81.65 63.3799 81.66H63.3999Z" fill="#1A2E35"/>
<path d="M63.1996 82.0699C63.415 82.0699 63.5896 81.8953 63.5896 81.6799C63.5896 81.4645 63.415 81.2899 63.1996 81.2899C62.9842 81.2899 62.8096 81.4645 62.8096 81.6799C62.8096 81.8953 62.9842 82.0699 63.1996 82.0699Z" fill="#1A2E35"/>
<path d="M63.1996 93.6899C63.415 93.6899 63.5896 93.5153 63.5896 93.2999C63.5896 93.0845 63.415 92.9099 63.1996 92.9099C62.9842 92.9099 62.8096 93.0845 62.8096 93.2999C62.8096 93.5153 62.9842 93.6899 63.1996 93.6899Z" fill="#1A2E35"/>
<path d="M62.9398 93.3599C62.9398 93.3599 62.6898 93.3799 62.2898 93.3899C61.8898 93.3899 61.3398 93.3899 60.7198 93.3899C60.1198 93.3899 59.5798 93.3799 59.1498 93.3699C58.9698 93.3699 58.8098 93.3699 58.6798 93.3699C58.5698 93.3699 58.5098 93.3699 58.5098 93.3699C58.5098 93.3499 58.7598 93.3299 59.1598 93.3199C59.5598 93.3099 60.1198 93.2999 60.7298 93.3099C61.3398 93.3099 61.8998 93.3199 62.2998 93.3299C62.6998 93.3399 62.9498 93.3599 62.9498 93.3699L62.9398 93.3599Z" fill="#1A2E35"/>
<path d="M46.75 101.86H45.48V103.13H46.75V101.86Z" fill="#E1E1E1"/>
<path d="M51 101.86H49.73V103.13H51V101.86Z" fill="#E1E1E1"/>
<path d="M55.6098 101.86H54.3398V103.13H55.6098V101.86Z" fill="#BABABA"/>
<path d="M42.8796 74.3499C42.8796 74.7199 42.5896 75.0199 42.2396 75.0199C41.8896 75.0199 41.5996 74.7199 41.5996 74.3499C41.5996 73.9799 41.8896 73.6799 42.2396 73.6799C42.5896 73.6799 42.8796 73.9799 42.8796 74.3499Z" fill="white"/>
<path d="M45.05 74.3499C45.05 74.7199 44.76 75.0199 44.41 75.0199C44.06 75.0199 43.77 74.7199 43.77 74.3499C43.77 73.9799 44.06 73.6799 44.41 73.6799C44.76 73.6799 45.05 73.9799 45.05 74.3499Z" fill="white"/>
<path d="M47.2297 74.3499C47.2297 74.7199 46.9397 75.0199 46.5897 75.0199C46.2397 75.0199 45.9497 74.7199 45.9497 74.3499C45.9497 73.9799 46.2397 73.6799 46.5897 73.6799C46.9397 73.6799 47.2297 73.9799 47.2297 74.3499Z" fill="white"/>
<path d="M87.9898 106.96C87.9898 106.64 87.9698 93.21 87.9498 72.03L87.9898 72.07C74.4398 72.07 57.6898 72.07 39.5798 72.07L39.6298 72.02C39.6298 84.54 39.6298 96.42 39.6298 106.95L39.5898 106.91C68.2198 106.94 87.6098 106.95 87.9998 106.95C87.6098 106.95 68.2198 106.97 39.5898 106.99H39.5498V106.95C39.5498 96.41 39.5498 84.54 39.5498 72.02V71.97H39.5998C57.6998 71.97 74.4598 71.97 88.0098 71.97H88.0498V72.01C88.0298 93.2 88.0098 106.62 88.0098 106.94L87.9898 106.96Z" fill="#1A2E35"/>
</g>
<path d="M104.27 11.13L8.92979 3.58996C6.01979 3.35996 3.52979 5.65996 3.52979 8.57996V64.22C3.52979 67.08 5.92979 69.36 8.78979 69.22L82.7998 65.55L81.7998 82.69L97.9398 64.8L104.13 64.49C106.8 64.36 108.89 62.16 108.89 59.49V16.12C108.89 13.51 106.88 11.33 104.28 11.13H104.27Z" fill="#F0F2F5"/>
<path d="M101.23 58.11L104.63 57.91L106.33 57.81C106.61 57.79 106.9 57.78 107.18 57.76C107.46 57.74 107.74 57.69 108.01 57.62C109.1 57.34 110.07 56.64 110.69 55.71C111 55.25 111.23 54.72 111.36 54.18C111.42 53.91 111.46 53.63 111.48 53.35C111.49 53.07 111.48 52.79 111.48 52.5L111.46 38.87L111.48 25.24L111.51 18.42L111.53 15.01V13.31L111.55 12.46C111.55 12.32 111.55 12.18 111.55 12.03C111.55 12.17 111.55 12.31 111.55 12.46V13.31L111.57 15.01L111.59 18.42L111.62 25.24L111.64 38.87L111.62 52.5C111.62 52.78 111.62 53.07 111.61 53.36C111.59 53.65 111.55 53.93 111.48 54.21C111.34 54.77 111.1 55.31 110.78 55.78C110.13 56.73 109.13 57.44 108.02 57.72C107.74 57.79 107.46 57.83 107.17 57.85C106.88 57.87 106.6 57.88 106.32 57.89L104.62 57.96L101.21 58.1L101.23 58.11Z" fill="#1B1A2E"/>
<path d="M86.9399 58.82L86.7499 62.87C86.6899 64.22 86.6099 65.57 86.5399 66.92C86.4699 68.27 86.3999 69.62 86.3199 70.97L86.0899 75.02L85.9199 74.95L87.8199 72.84L89.7299 70.73L93.5499 66.52L97.3799 62.32C98.0199 61.62 98.6599 60.92 99.2999 60.23L101.23 58.14L99.3499 60.27C98.7199 60.98 98.0999 61.69 97.4599 62.4L93.6699 66.64L89.8699 70.87L87.9699 72.98L86.0599 75.09L85.8799 75.29L85.8999 75.02L86.1399 70.98C86.2199 69.63 86.3099 68.28 86.3999 66.94C86.4899 65.59 86.5699 64.24 86.6599 62.9L86.9399 58.86V58.82Z" fill="#1B1A2E"/>
<path d="M17.0698 62.2799L25.7998 61.7999L34.5398 61.3299L51.9998 60.4499L69.4698 59.5999L78.1998 59.1999L86.9398 58.8199L78.2098 59.2999L69.4798 59.7599L52.0098 60.6499L34.5398 61.4899L25.8098 61.8999L17.0698 62.2799Z" fill="#1B1A2E"/>
<path d="M111.53 11.6C111.47 11.17 111.37 10.76 111.2 10.36L111.07 10.07C111.02 9.97 110.97 9.88 110.92 9.79C110.87 9.69 110.81 9.61 110.75 9.52L110.66 9.39C110.66 9.39 110.59 9.31 110.56 9.26L110.46 9.13C110.46 9.13 110.39 9.05 110.36 9.01L110.14 8.78C109.98 8.64 109.82 8.49 109.65 8.37C109.3 8.12 108.93 7.9 108.53 7.76C108.43 7.72 108.33 7.69 108.23 7.66L108.08 7.61C108.03 7.59 107.98 7.59 107.92 7.57C107.82 7.55 107.71 7.52 107.61 7.51L107.29 7.47C106.86 7.43 106.43 7.4 106.01 7.37L103.44 7.17L93.1698 6.38L72.6398 4.78L31.5498 1.56L21.2798 0.74L18.7098 0.54L17.4298 0.44C17.3198 0.44 17.2098 0.42 17.1098 0.42H16.9498H16.7898C16.5798 0.42 16.3698 0.44 16.1598 0.47C15.3298 0.59 14.5298 0.94 13.8798 1.48C13.2298 2.01 12.7198 2.72 12.4498 3.52C12.3098 3.92 12.2298 4.33 12.1998 4.75C12.1998 4.85 12.1998 4.96 12.1898 5.07V5.39V6.03V8.6V13.75V24.05L12.1498 44.65L12.1198 54.95V57.52C12.1098 57.95 12.1598 58.38 12.2698 58.79C12.3298 59 12.3898 59.2 12.4798 59.4C12.5198 59.5 12.5698 59.59 12.6098 59.69C12.6598 59.78 12.7098 59.88 12.7598 59.97C13.1898 60.71 13.8298 61.33 14.5798 61.74C15.3298 62.15 16.1998 62.35 17.0598 62.31C16.1998 62.35 15.3298 62.17 14.5798 61.75C13.8198 61.34 13.1798 60.73 12.7398 59.99C12.6798 59.9 12.6398 59.8 12.5798 59.71C12.5398 59.61 12.4798 59.52 12.4498 59.42C12.3598 59.22 12.2998 59.02 12.2398 58.81C12.1298 58.39 12.0798 57.96 12.0798 57.53V54.96L12.0498 44.66L12.0198 24.06V13.76L12.0098 8.61V6.04V5.4V5.08C12.0098 4.97 12.0098 4.86 12.0198 4.75C12.0498 4.31 12.1298 3.88 12.2798 3.47C12.5698 2.64 13.0898 1.9 13.7698 1.35C14.4498 0.79 15.2798 0.42 16.1398 0.3C16.3598 0.27 16.5798 0.25 16.7898 0.25H16.9498H17.1098C17.2198 0.25 17.3298 0.27 17.4298 0.27L18.7098 0.37L21.2798 0.57L31.5498 1.38L72.6098 4.65L93.1398 6.3L103.4 7.14L105.97 7.35C106.4 7.39 106.83 7.42 107.25 7.46L107.57 7.5C107.68 7.52 107.78 7.54 107.89 7.57C107.94 7.58 108 7.59 108.05 7.61L108.2 7.66C108.3 7.69 108.41 7.72 108.51 7.76C108.91 7.91 109.29 8.13 109.64 8.38C109.82 8.5 109.97 8.65 110.13 8.8L110.35 9.03C110.35 9.03 110.42 9.11 110.45 9.15L110.55 9.28C110.55 9.28 110.62 9.36 110.65 9.41L110.74 9.54C110.8 9.63 110.86 9.72 110.91 9.81C110.96 9.9 111.02 10 111.06 10.09L111.19 10.38C111.35 10.78 111.46 11.2 111.51 11.62L111.53 11.6Z" fill="#1B1A2E"/>
<mask id="mask0_430_179" style="mask-type:luminance" maskUnits="userSpaceOnUse" x="12" y="-1" width="103" height="77">
<path d="M114.07 38.63L114.04 52.26C114.04 52.54 114.04 52.82 114.03 53.11C114.02 53.4 113.97 53.69 113.9 53.97C113.76 54.53 113.51 55.07 113.18 55.54C112.52 56.5 111.5 57.21 110.36 57.48C110.08 57.54 109.78 57.59 109.48 57.61C109.2 57.64 108.9 57.64 108.61 57.65L106.86 57.73L103.38 57.87L101.45 60C100.8 60.71 100.16 61.43 99.5098 62.12L95.6398 66.36L91.7498 70.59L89.7998 72.7L87.8498 74.81L87.6598 75.01L87.6898 74.74L87.9398 70.69C88.0198 69.35 88.1198 68 88.1998 66.65C88.2898 65.31 88.3798 63.96 88.4698 62.61L88.7498 58.57L79.8098 59.06L70.8698 59.51L52.9998 60.41L35.1198 61.24L26.1798 61.64L17.2298 62.02C16.3498 62.07 15.4598 61.88 14.6998 61.46C13.9198 61.06 13.2598 60.45 12.8098 59.71C12.7598 59.62 12.7098 59.52 12.6498 59.42C12.5998 59.33 12.5498 59.23 12.5098 59.13C12.4198 58.94 12.3498 58.73 12.2998 58.52C12.1798 58.1 12.1298 57.67 12.1298 57.24V54.66L12.0898 44.37L12.0598 23.79V13.5L12.0498 4.80997C12.0498 4.69997 12.0498 4.57997 12.0598 4.47997C12.0898 4.03997 12.1798 3.60997 12.3298 3.18997C12.6098 2.36997 13.1598 1.61997 13.8398 1.06997C14.5398 0.509971 15.3798 0.149971 16.2698 0.0199707C16.4898 -0.0100293 16.7198 -0.0300293 16.9398 -0.0300293H17.2798C17.3998 -0.0200293 17.4998 -2.92975e-05 17.5998 0.0099707L18.9198 0.109971L21.5498 0.309971L32.0598 1.11997L74.0898 4.38997L95.0998 6.03997L105.6 6.86997L108.23 7.06997C108.67 7.10997 109.11 7.14997 109.55 7.17997L109.87 7.21997C109.99 7.22997 110.09 7.26997 110.19 7.27997C110.24 7.28997 110.31 7.30997 110.36 7.31997L110.52 7.36997C110.62 7.40997 110.73 7.42997 110.83 7.46997C111.24 7.61997 111.63 7.83997 111.98 8.08997C112.16 8.21997 112.33 8.36997 112.48 8.50997L112.71 8.74997C112.71 8.74997 112.77 8.82997 112.81 8.87997L112.91 9.00997C112.91 9.00997 112.97 9.08997 113.01 9.13997L113.1 9.26997C113.15 9.35997 113.22 9.44997 113.27 9.54997C113.32 9.63997 113.39 9.73997 113.43 9.82997L113.57 10.13C113.73 10.52 113.84 10.94 113.89 11.37C113.9 11.51 113.92 11.65 113.93 11.8V13.08L113.96 14.78L113.99 18.18L114.02 25L114.05 38.62L114.07 38.63Z" fill="white"/>
</mask>
<g mask="url(#mask0_430_179)">
<path d="M85.9099 9H28.9399V82.84H85.9099V9Z" fill="white" stroke="#1A2E35" stroke-width="0.25" stroke-linecap="round" stroke-linejoin="round"/>
<path d="M39.1199 54.52H34.6899" stroke="#1A2E35" stroke-width="0.25" stroke-miterlimit="10"/>
<path d="M69.8 54.52H42.54" stroke="#1A2E35" stroke-width="0.25" stroke-miterlimit="10"/>
<path d="M45.6799 57.9401H34.6899" stroke="#1A2E35" stroke-width="0.25" stroke-miterlimit="10"/>
<path d="M62.5202 57.9401H48.6802" stroke="#1A2E35" stroke-width="0.25" stroke-miterlimit="10"/>
<path d="M69.7999 57.9401H65.0898" stroke="#1A2E35" stroke-width="0.25" stroke-miterlimit="10"/>
<path d="M56.0999 61.37H34.6899" stroke="#1A2E35" stroke-width="0.25" stroke-miterlimit="10"/>
<path d="M69.8001 61.37H60.8101" stroke="#1A2E35" stroke-width="0.25" stroke-miterlimit="10"/>
<path d="M79.5386 61.2629C81.5321 60.7891 82.764 58.789 82.2902 56.7955C81.8164 54.8021 79.8163 53.5702 77.8228 54.044C75.8294 54.5178 74.5975 56.5179 75.0713 58.5113C75.5451 60.5047 77.5452 61.7367 79.5386 61.2629Z" stroke="#1A2E35" stroke-width="0.25" stroke-miterlimit="10"/>
<path d="M77.2598 57.04L78.2698 58.84L82.0798 55.14" stroke="#644DF4" stroke-miterlimit="10" stroke-linecap="round"/>
<path d="M65.3701 39.25H69.8001" stroke="#1A2E35" stroke-width="0.25" stroke-miterlimit="10"/>
<path d="M34.6899 39.25H61.9499" stroke="#1A2E35" stroke-width="0.25" stroke-miterlimit="10"/>
<path d="M58.8101 42.6801H69.8001" stroke="#1A2E35" stroke-width="0.25" stroke-miterlimit="10"/>
<path d="M41.9697 42.6801H55.8097" stroke="#1A2E35" stroke-width="0.25" stroke-miterlimit="10"/>
<path d="M34.6899 42.6801H39.3999" stroke="#1A2E35" stroke-width="0.25" stroke-miterlimit="10"/>
<path d="M48.3901 46.1H69.8001" stroke="#1A2E35" stroke-width="0.25" stroke-miterlimit="10"/>
<path d="M34.6899 46.1H43.6799" stroke="#1A2E35" stroke-width="0.25" stroke-miterlimit="10"/>
<path d="M79.5376 45.9967C81.5311 45.5229 82.763 43.5228 82.2892 41.5294C81.8154 39.536 79.8153 38.304 77.8218 38.7778C75.8284 39.2516 74.5965 41.2517 75.0703 43.2452C75.5441 45.2386 77.5442 46.4705 79.5376 45.9967Z" stroke="#1A2E35" stroke-width="0.25" stroke-miterlimit="10"/>
<path d="M77.2598 41.62L78.2698 43.41L82.0798 39.71" stroke="#644DF4" stroke-miterlimit="10" stroke-linecap="round"/>
<path d="M65.3701 24.1599H69.8001" stroke="#1A2E35" stroke-width="0.25" stroke-miterlimit="10"/>
<path d="M34.6899 24.1599H61.9499" stroke="#1A2E35" stroke-width="0.25" stroke-miterlimit="10"/>
<path d="M58.8101 27.58H69.8001" stroke="#1A2E35" stroke-width="0.25" stroke-miterlimit="10"/>
<path d="M41.9697 27.58H55.8097" stroke="#1A2E35" stroke-width="0.25" stroke-miterlimit="10"/>
<path d="M34.6899 27.58H39.3999" stroke="#1A2E35" stroke-width="0.25" stroke-miterlimit="10"/>
<path d="M48.3901 31.0099H69.8001" stroke="#1A2E35" stroke-width="0.25" stroke-miterlimit="10"/>
<path d="M34.6899 31.0099H43.6799" stroke="#1A2E35" stroke-width="0.25" stroke-miterlimit="10"/>
<path d="M78.6797 31.01C80.7287 31.01 82.3897 29.3489 82.3897 27.3C82.3897 25.251 80.7287 23.59 78.6797 23.59C76.6307 23.59 74.9697 25.251 74.9697 27.3C74.9697 29.3489 76.6307 31.01 78.6797 31.01Z" stroke="#1A2E35" stroke-width="0.25" stroke-miterlimit="10"/>
<path d="M77.2598 26.52L78.2698 28.31L82.0798 24.62" stroke="#644DF4" stroke-miterlimit="10" stroke-linecap="round"/>
<path d="M65.3701 69.7899H69.8001" stroke="#1A2E35" stroke-width="0.25" stroke-miterlimit="10"/>
<path d="M34.6899 69.7899H61.9499" stroke="#1A2E35" stroke-width="0.25" stroke-miterlimit="10"/>
<path d="M58.8101 73.21H69.8001" stroke="#1A2E35" stroke-width="0.25" stroke-miterlimit="10"/>
<path d="M41.9697 73.21H55.8097" stroke="#1A2E35" stroke-width="0.25" stroke-miterlimit="10"/>
<path d="M34.6899 73.21H39.3999" stroke="#1A2E35" stroke-width="0.25" stroke-miterlimit="10"/>
<path d="M78.6797 76.64C80.7287 76.64 82.3897 74.9789 82.3897 72.93C82.3897 70.881 80.7287 69.22 78.6797 69.22C76.6307 69.22 74.9697 70.881 74.9697 72.93C74.9697 74.9789 76.6307 76.64 78.6797 76.64Z" stroke="#1A2E35" stroke-width="0.25" stroke-miterlimit="10"/>
<path d="M76.73 71.6L77.74 73.4L81.55 69.7" stroke="#644DF4" stroke-miterlimit="10" stroke-linecap="round"/>
</g>
<path d="M75.261 13.3242C75.261 13.7109 75.1849 14.0462 75.0326 14.3303C74.8875 14.6144 74.6881 14.8472 74.4342 15.0287C74.1876 15.2102 73.9048 15.3443 73.5857 15.4311V15.4666C74.2094 15.5455 74.6808 15.7507 74.9999 16.0821C75.3263 16.4135 75.4895 16.8594 75.4895 17.4196C75.4895 17.9089 75.3771 18.3508 75.1522 18.7453C74.9347 19.132 74.5938 19.4397 74.1296 19.6686C73.6727 19.8895 73.0816 20 72.3563 20C71.9284 20 71.5295 19.9605 71.1596 19.8816C70.7897 19.8027 70.4416 19.6883 70.1152 19.5384V18.0233C70.4489 18.2048 70.797 18.3429 71.1596 18.4376C71.5295 18.5323 71.8704 18.5796 72.1823 18.5796C72.7697 18.5796 73.1795 18.4691 73.4116 18.2482C73.6509 18.0273 73.7706 17.7156 73.7706 17.3131C73.7706 17.0764 73.7162 16.8791 73.6074 16.7213C73.4986 16.5556 73.3064 16.4333 73.0308 16.3544C72.7625 16.2676 72.3853 16.2242 71.8994 16.2242H71.3119V14.8511H71.9103C72.389 14.8511 72.7516 14.8038 72.9982 14.7091C73.252 14.6065 73.4225 14.4724 73.5095 14.3066C73.6038 14.133 73.6509 13.9358 73.6509 13.7148C73.6509 13.415 73.5639 13.1822 73.3898 13.0165C73.223 12.8429 72.9402 12.7561 72.5413 12.7561C72.2947 12.7561 72.0698 12.7916 71.8668 12.8626C71.6637 12.9257 71.4787 13.0046 71.3119 13.0993C71.1524 13.194 71.0109 13.2848 70.8876 13.3716L70.1261 12.1406C70.3292 11.9827 70.554 11.8407 70.8006 11.7145C71.0545 11.5882 71.3337 11.4896 71.6383 11.4185C71.9429 11.3475 72.2838 11.312 72.6609 11.312C73.4587 11.312 74.0897 11.4896 74.5539 11.8447C75.0253 12.1919 75.261 12.685 75.261 13.3242Z" fill="#644DF4"/>
<path d="M69.357 19.8817H65.8213V18.8637L66.7678 18.3903V12.9218L65.8213 12.4484V11.4304H69.357V12.4484L68.4105 12.9218V18.3903L69.357 18.8637V19.8817Z" fill="#644DF4"/>
<path d="M59.4754 19.8817L57.6042 13.2532H57.5607C57.568 13.4111 57.5788 13.6478 57.5933 13.9634C57.6078 14.2791 57.6224 14.6184 57.6369 14.9814C57.6514 15.3365 57.6586 15.66 57.6586 15.952V19.8817H56.1899V11.4304H58.431L60.2696 17.8931H60.3022L62.2496 11.4304H64.4907V19.8817H62.9567V15.8809C62.9567 15.6126 62.9603 15.3049 62.9676 14.9577C62.9821 14.6105 62.993 14.283 63.0002 13.9753C63.0147 13.6596 63.0256 13.4229 63.0329 13.2651H62.9894L60.9876 19.8817H59.4754Z" fill="#644DF4"/>
<path d="M52.559 12.8034C52.2472 12.8034 51.9679 12.8705 51.7213 13.0046C51.482 13.1388 51.2789 13.3321 51.1121 13.5846C50.9453 13.8292 50.8184 14.1291 50.7314 14.4842C50.6516 14.8393 50.6117 15.2378 50.6117 15.6797C50.6117 16.2794 50.677 16.7923 50.8075 17.2184C50.9453 17.6366 51.1593 17.9562 51.4494 18.1772C51.7395 18.3981 52.1094 18.5086 52.559 18.5086C52.8782 18.5086 53.1936 18.4691 53.5055 18.3902C53.8246 18.3113 54.1691 18.2009 54.539 18.0588V19.562C54.1982 19.712 53.8609 19.8225 53.5273 19.8935C53.1936 19.9645 52.8201 20 52.4067 20C51.6089 20 50.9489 19.8225 50.4267 19.4674C49.9118 19.1044 49.531 18.5993 49.2844 17.9523C49.0378 17.2973 48.9146 16.5359 48.9146 15.6678C48.9146 15.0287 48.9943 14.4447 49.1539 13.916C49.3134 13.3795 49.5455 12.9178 49.8501 12.5312C50.162 12.1445 50.5428 11.8447 50.9925 11.6316C51.4494 11.4185 51.9716 11.312 52.559 11.312C52.9434 11.312 53.3278 11.3672 53.7122 11.4777C54.1039 11.5803 54.4774 11.7223 54.8328 11.9038L54.2997 13.3597C54.0096 13.2098 53.7158 13.0796 53.4185 12.9691C53.1284 12.8586 52.8419 12.8034 52.559 12.8034Z" fill="#644DF4"/>
<path d="M42.2855 19.8817L40.4143 13.2532H40.3708C40.378 13.4111 40.3889 13.6478 40.4034 13.9634C40.4179 14.2791 40.4324 14.6184 40.4469 14.9814C40.4614 15.3365 40.4687 15.66 40.4687 15.952V19.8817H39V11.4304H41.2411L43.0796 17.8931H43.1123L45.0596 11.4304H47.3007V19.8817H45.7668V15.8809C45.7668 15.6126 45.7704 15.3049 45.7777 14.9577C45.7922 14.6105 45.803 14.283 45.8103 13.9753C45.8248 13.6596 45.8357 13.4229 45.8429 13.2651H45.7994L43.7977 19.8817H42.2855Z" fill="#644DF4"/>
</g>
<defs>
<clipPath id="clip0_430_179">
<rect width="114.13" height="113.85" fill="white"/>
</clipPath>
</defs>
</svg>
