<svg width="115" height="114" viewBox="0 0 115 114" fill="none" xmlns="http://www.w3.org/2000/svg">
<g clip-path="url(#clip0_416_4396)">
<path d="M114.13 113.65H0V113.85H114.13V113.65Z" fill="#1B1A2E"/>
<path d="M106.59 68.51H39.9497C38.7197 68.51 37.7197 69.51 37.7197 70.74V110.3H108.82V70.74C108.82 69.51 107.82 68.51 106.59 68.51Z" fill="#04003D"/>
<path d="M107.23 70.44H39.2998V108.36H107.23V70.44Z" fill="white"/>
<path d="M34.0699 110.3H112.47C113.1 110.3 113.61 110.81 113.61 111.44V111.67C113.61 112.72 112.75 113.58 111.7 113.58H34.8299C33.7799 113.58 32.9199 112.72 32.9199 111.67V111.44C32.9199 110.81 33.4299 110.3 34.0599 110.3H34.0699Z" fill="#04003D"/>
<path d="M63.73 111.12H82.8C83.08 111.12 83.31 110.89 83.31 110.61C83.31 110.44 83.17 110.3 83 110.3H63.52C63.35 110.3 63.21 110.44 63.21 110.61C63.21 110.89 63.44 111.12 63.72 111.12H63.73Z" fill="#94FCFF"/>
<path d="M37.7197 110.3L55.4897 110.28L73.2697 110.27L91.0397 110.28L108.82 110.3L91.0397 110.32L73.2697 110.33L55.4897 110.32L37.7197 110.3Z" fill="#1B1A2E"/>
<path d="M73.27 69.78C73.4412 69.78 73.58 69.6412 73.58 69.47C73.58 69.2988 73.4412 69.16 73.27 69.16C73.0988 69.16 72.96 69.2988 72.96 69.47C72.96 69.6412 73.0988 69.78 73.27 69.78Z" fill="#1B1A2E"/>
<path d="M38.0097 111.67H37.7197V112.17H38.0097V111.67Z" fill="#F9A21B"/>
<path d="M38.8696 111.67H38.5796V112.17H38.8696V111.67Z" fill="#1B1A2E"/>
<path d="M39.7397 111.67H39.4497V112.17H39.7397V111.67Z" fill="#1B1A2E"/>
<path d="M105.13 71.59H41.4102V71.64H105.13V71.59Z" fill="#F0F2F5"/>
<path d="M105.13 107.16H41.4102V107.21H105.13V107.16Z" fill="#F0F2F5"/>
<path d="M34.59 76.44H0.52002V101.89H34.59V76.44Z" fill="white"/>
<g opacity="0.25">
<path d="M34.6699 76.55H0.689941V101.95H34.6699V76.55Z" fill="white"/>
<path d="M34.5698 76.55H0.589844V79.69H34.5698V76.55Z" fill="#E1E1E1"/>
<path d="M2.45 78.57C2.69853 78.57 2.9 78.3685 2.9 78.12C2.9 77.8715 2.69853 77.67 2.45 77.67C2.20147 77.67 2 77.8715 2 78.12C2 78.3685 2.20147 78.57 2.45 78.57Z" fill="white"/>
<path d="M3.97002 78.57C4.21855 78.57 4.42002 78.3685 4.42002 78.12C4.42002 77.8715 4.21855 77.67 3.97002 77.67C3.72149 77.67 3.52002 77.8715 3.52002 78.12C3.52002 78.3685 3.72149 78.57 3.97002 78.57Z" fill="white"/>
<path d="M5.4998 78.57C5.74833 78.57 5.9498 78.3685 5.9498 78.12C5.9498 77.8715 5.74833 77.67 5.4998 77.67C5.25128 77.67 5.0498 77.8715 5.0498 78.12C5.0498 78.3685 5.25128 78.57 5.4998 78.57Z" fill="white"/>
<path d="M34.5698 101.96C34.5698 101.96 34.5698 101.8 34.5698 101.5C34.5698 101.19 34.5698 100.74 34.5698 100.15C34.5698 98.97 34.5698 97.23 34.5598 95.02C34.5598 90.59 34.5498 84.25 34.5398 76.56L34.5798 76.6C24.9998 76.6 13.2598 76.6 0.599824 76.6L0.649824 76.55C0.649824 85.68 0.649824 94.33 0.649824 101.95L0.609824 101.91C10.6698 101.91 19.1598 101.93 25.1398 101.93C28.1298 101.93 30.4898 101.93 32.1098 101.94C32.9198 101.94 33.5398 101.94 33.9598 101.94C34.1698 101.94 34.3298 101.94 34.4398 101.94C34.3298 101.94 34.1798 101.94 33.9698 101.94C33.5498 101.94 32.9298 101.94 32.1298 101.94C30.5198 101.94 28.1598 101.94 25.1698 101.95C19.1898 101.95 10.6898 101.96 0.609824 101.97H0.569824V101.93C0.569824 94.3 0.569824 85.66 0.569824 76.53V76.48H0.619824C13.2798 76.48 25.0198 76.48 34.5998 76.48H34.6398V76.52C34.6398 84.22 34.6198 90.57 34.6198 95C34.6198 97.21 34.6198 98.94 34.6098 100.12C34.6098 100.71 34.6098 101.16 34.6098 101.46C34.6098 101.76 34.6098 101.92 34.6098 101.92L34.5698 101.96Z" fill="#1A2E35"/>
<path d="M32.6997 91.86C32.6997 91.86 25.9397 91.91 17.5997 91.91C9.25975 91.91 2.48975 91.89 2.48975 91.86C2.48975 91.83 9.24975 91.81 17.5997 91.81C25.9497 91.81 32.6997 91.83 32.6997 91.86Z" fill="#E1E1E1"/>
<path d="M32.6997 89.25C32.6997 89.25 25.9397 89.3 17.5997 89.3C9.25975 89.3 2.48975 89.28 2.48975 89.25C2.48975 89.22 9.24975 89.2 17.5997 89.2C25.9497 89.2 32.6997 89.22 32.6997 89.25Z" fill="#E1E1E1"/>
<path d="M32.6997 86.65C32.6997 86.65 25.9397 86.7 17.5997 86.7C9.25975 86.7 2.48975 86.68 2.48975 86.65C2.48975 86.62 9.24975 86.6 17.5997 86.6C25.9497 86.6 32.6997 86.62 32.6997 86.65Z" fill="#E1E1E1"/>
<path d="M32.6997 84.04C32.6997 84.04 25.9397 84.09 17.5997 84.09C9.25975 84.09 2.48975 84.07 2.48975 84.04C2.48975 84.01 9.24975 83.99 17.5997 83.99C25.9497 83.99 32.6997 84.01 32.6997 84.04Z" fill="#E1E1E1"/>
<path d="M7.5598 90.68H5.0498V95.73H7.5598V90.68Z" fill="#BABABA"/>
<path d="M16.5798 90.68H14.0698V95.73H16.5798V90.68Z" fill="#E1E1E1"/>
<path d="M30.26 92.4H27.75V95.73H30.26V92.4Z" fill="#E1E1E1"/>
<path d="M25.5998 88.29H23.0898V95.74H25.5998V88.29Z" fill="#E1E1E1"/>
<path d="M20.99 85.39H18.48V95.74H20.99V85.39Z" fill="#BABABA"/>
<path d="M11.8899 88.29H9.37988V95.74H11.8899V88.29Z" fill="#E1E1E1"/>
<path d="M32.3397 95.73C32.3397 95.73 32.2997 95.73 32.2297 95.73C32.1497 95.73 32.0397 95.73 31.8997 95.73C31.6097 95.73 31.1797 95.73 30.6297 95.73C29.5197 95.73 27.9297 95.73 25.9597 95.75C22.0197 95.75 16.5797 95.75 10.5697 95.76C7.68967 95.76 4.94967 95.76 2.44967 95.76H2.40967V95.72C2.40967 91.72 2.41967 88.3 2.42967 85.89C2.42967 84.69 2.42967 83.73 2.43967 83.07C2.43967 82.75 2.43967 82.49 2.43967 82.32C2.43967 82.24 2.43967 82.17 2.43967 82.13C2.43967 82.09 2.43967 82.06 2.43967 82.06C2.43967 82.06 2.43967 82.08 2.43967 82.13C2.43967 82.18 2.43967 82.24 2.43967 82.32C2.43967 82.49 2.43967 82.74 2.43967 83.07C2.43967 83.73 2.43967 84.68 2.44967 85.89C2.44967 88.31 2.45967 91.72 2.46967 95.72L2.42967 95.68C4.92967 95.68 7.66967 95.68 10.5497 95.68C16.5597 95.68 21.9997 95.69 25.9397 95.69C27.9097 95.69 29.4997 95.7 30.6097 95.71C31.1597 95.71 31.5897 95.71 31.8797 95.71C32.0197 95.71 32.1297 95.71 32.2097 95.71C32.2797 95.71 32.3197 95.71 32.3197 95.71L32.3397 95.73Z" fill="#1A2E35"/>
<path d="M8.82998 98.3H7.72998V99.4H8.82998V98.3Z" fill="#BABABA"/>
<path d="M15.58 98.26H14.48V99.36H15.58V98.26Z" fill="#E1E1E1"/>
<path d="M22.8798 98.3H21.7798V99.4H22.8798V98.3Z" fill="#E1E1E1"/>
<path d="M12.4897 98.82C12.4897 98.82 11.8197 98.87 10.9897 98.87C10.1597 98.87 9.48975 98.85 9.48975 98.82C9.48975 98.79 10.1597 98.77 10.9897 98.77C11.8197 98.77 12.4897 98.79 12.4897 98.82Z" fill="#1A2E35"/>
<path d="M19.1899 98.82C19.1899 98.82 18.5199 98.87 17.6899 98.87C16.8599 98.87 16.1899 98.85 16.1899 98.82C16.1899 98.79 16.8599 98.77 17.6899 98.77C18.5199 98.77 19.1899 98.79 19.1899 98.82Z" fill="#1A2E35"/>
<path d="M26.3198 98.82C26.3198 98.82 25.6498 98.87 24.8198 98.87C23.9898 98.87 23.3198 98.85 23.3198 98.82C23.3198 98.79 23.9898 98.77 24.8198 98.77C25.6498 98.77 26.3198 98.79 26.3198 98.82Z" fill="#1A2E35"/>
</g>
<path d="M106.79 80.39H80.8799V106.3H106.79V80.39Z" fill="white"/>
<g opacity="0.25">
<path d="M94.3901 95.36L101.53 95.46C101.48 99.27 98.2701 102.37 94.3901 102.37C94.3801 102.37 94.3601 102.37 94.3501 102.37L94.3901 95.36Z" fill="#E1E1E1"/>
<path d="M93.2599 94.35L93.1599 101.36C89.2799 101.31 86.1099 98.16 86.1099 94.35C86.1099 90.54 89.3399 87.34 93.2599 87.34C97.1799 87.34 100.41 90.5 100.41 94.35H93.2599Z" fill="#BABABA"/>
</g>
<g opacity="0.25">
<path d="M106.77 80.39H80.8799V85.49H106.77V80.39Z" fill="#E1E1E1"/>
</g>
<path d="M83.8999 83.67C84.3031 83.67 84.6299 83.3431 84.6299 82.94C84.6299 82.5368 84.3031 82.21 83.8999 82.21C83.4968 82.21 83.1699 82.5368 83.1699 82.94C83.1699 83.3431 83.4968 83.67 83.8999 83.67Z" fill="white"/>
<path d="M86.3799 83.67C86.7831 83.67 87.1099 83.3431 87.1099 82.94C87.1099 82.5368 86.7831 82.21 86.3799 82.21C85.9767 82.21 85.6499 82.5368 85.6499 82.94C85.6499 83.3431 85.9767 83.67 86.3799 83.67Z" fill="white"/>
<path d="M89.5899 82.94C89.5899 83.35 89.2599 83.67 88.8599 83.67C88.4599 83.67 88.1299 83.34 88.1299 82.94C88.1299 82.54 88.4599 82.21 88.8599 82.21C89.2599 82.21 89.5899 82.54 89.5899 82.94Z" fill="white"/>
<g opacity="0.25">
<path d="M106.79 106.3C106.79 106.3 106.79 106.26 106.79 106.18C106.79 106.1 106.79 105.98 106.79 105.82C106.79 105.5 106.79 105.03 106.79 104.43C106.79 103.21 106.79 101.43 106.77 99.16C106.77 94.63 106.75 88.16 106.74 80.4L106.8 80.46C99.2701 80.46 90.3801 80.46 80.8901 80.46L80.9601 80.39C80.9601 89.88 80.9601 98.77 80.9601 106.3L80.9001 106.24C88.6601 106.25 95.1301 106.26 99.6601 106.27C101.93 106.27 103.71 106.28 104.93 106.29C105.54 106.29 106 106.29 106.32 106.29C106.48 106.29 106.6 106.29 106.68 106.29C106.6 106.29 106.48 106.29 106.33 106.29C106.01 106.29 105.55 106.29 104.95 106.29C103.73 106.29 101.96 106.29 99.6901 106.31C95.1501 106.31 88.6601 106.33 80.8901 106.34H80.8301V106.28C80.8301 98.75 80.8301 89.86 80.8301 80.37V80.3H80.9001C90.3901 80.3 99.2801 80.3 106.81 80.3H106.87V80.36C106.86 88.14 106.85 94.62 106.84 99.16C106.84 101.42 106.83 103.2 106.82 104.42C106.82 105.02 106.82 105.49 106.82 105.8C106.82 105.95 106.82 106.07 106.82 106.15C106.82 106.23 106.82 106.27 106.82 106.27L106.79 106.3Z" fill="#1A2E35"/>
</g>
<path d="M87.9896 71.97H39.5796V107H87.9896V71.97Z" fill="white"/>
<g opacity="0.25">
<path d="M87.9998 72.02H39.5898V106.95H87.9998V72.02Z" fill="white"/>
<path d="M80.0196 79.9401H67.0596C65.5629 79.9401 64.3496 81.1534 64.3496 82.6501V85.2801C64.3496 86.7768 65.5629 87.9901 67.0596 87.9901H80.0196C81.5163 87.9901 82.7296 86.7768 82.7296 85.2801V82.6501C82.7296 81.1534 81.5163 79.9401 80.0196 79.9401Z" fill="#ECECEC"/>
<path d="M43.0499 88.93C42.9799 84.78 46.2899 81.35 50.4199 81.29C54.5499 81.22 57.9599 84.54 58.0299 88.69C58.0999 92.84 54.7899 96.27 50.6599 96.33C46.5299 96.4 43.1199 93.08 43.0499 88.93ZM54.1199 88.75C54.0899 86.77 52.4599 85.18 50.4799 85.21C48.5099 85.24 46.9299 86.88 46.9599 88.86C46.9899 90.84 48.6199 92.43 50.5999 92.4C52.5699 92.37 54.1499 90.73 54.1199 88.75Z" fill="#F5F5F5"/>
<path d="M43.0499 88.93C42.9799 84.78 46.2899 81.35 50.4199 81.29L50.4799 85.22C48.5099 85.25 46.9299 86.89 46.9599 88.87C46.9899 90.85 48.6199 92.44 50.5999 92.41L50.6599 96.34C46.5299 96.41 43.1199 93.09 43.0499 88.94V88.93Z" fill="#E1E1E1"/>
<path d="M54.1202 88.75C54.1202 88.75 54.1202 88.77 54.1202 88.81C54.1202 88.85 54.1202 88.91 54.1202 88.98C54.1202 89.06 54.1202 89.15 54.1002 89.26C54.0902 89.37 54.0702 89.5 54.0402 89.64C53.9902 89.92 53.8602 90.26 53.6702 90.61C53.4702 90.97 53.1802 91.34 52.7802 91.66C52.3802 91.98 51.8702 92.25 51.2702 92.37C50.6802 92.49 50.0102 92.48 49.3602 92.25C49.2002 92.2 49.0402 92.12 48.8802 92.05C48.7302 91.96 48.5702 91.88 48.4302 91.77C48.2802 91.67 48.1502 91.55 48.0102 91.43C47.8902 91.3 47.7602 91.17 47.6502 91.01C47.4302 90.71 47.2402 90.38 47.1202 90.02C47.0002 89.66 46.9302 89.27 46.9102 88.88C46.9102 88.49 46.9702 88.1 47.0802 87.73C47.1902 87.36 47.3702 87.02 47.5802 86.72C47.6802 86.56 47.8102 86.43 47.9302 86.29C48.0602 86.17 48.1902 86.04 48.3402 85.93C48.4802 85.81 48.6302 85.73 48.7802 85.64C48.9402 85.56 49.0902 85.48 49.2502 85.42C49.8902 85.17 50.5602 85.14 51.1502 85.24C51.7502 85.34 52.2702 85.6 52.6802 85.91C53.0902 86.22 53.4002 86.58 53.6102 86.93C53.8202 87.28 53.9502 87.61 54.0102 87.89C54.0502 88.03 54.0702 88.15 54.0802 88.26C54.1002 88.37 54.1102 88.46 54.1102 88.54C54.1102 88.61 54.1102 88.67 54.1102 88.71C54.1102 88.67 54.1102 88.61 54.0902 88.54C54.0902 88.47 54.0802 88.37 54.0502 88.27C54.0302 88.16 54.0102 88.04 53.9702 87.9C53.9002 87.62 53.7702 87.3 53.5602 86.96C53.3502 86.62 53.0502 86.26 52.6402 85.97C52.2302 85.67 51.7202 85.42 51.1402 85.33C50.5602 85.24 49.9002 85.27 49.2802 85.52C49.1202 85.57 48.9702 85.66 48.8202 85.73C48.6802 85.82 48.5202 85.91 48.3902 86.02C48.2502 86.12 48.1202 86.25 48.0002 86.37C47.8802 86.5 47.7602 86.64 47.6602 86.79C47.4602 87.09 47.2802 87.42 47.1702 87.77C47.0602 88.13 47.0102 88.51 47.0102 88.89C47.0302 89.66 47.2902 90.4 47.7302 90.97C47.8302 91.12 47.9602 91.25 48.0802 91.38C48.2102 91.5 48.3402 91.62 48.4902 91.72C48.6302 91.83 48.7802 91.91 48.9302 91.99C49.0802 92.06 49.2302 92.14 49.3902 92.19C50.0202 92.42 50.6702 92.43 51.2502 92.32C51.8302 92.21 52.3402 91.94 52.7302 91.63C53.1302 91.32 53.4202 90.95 53.6202 90.61C53.8202 90.26 53.9402 89.93 54.0002 89.66C54.0402 89.52 54.0502 89.4 54.0702 89.29C54.0902 89.18 54.1002 89.09 54.1002 89.01C54.1002 88.94 54.1002 88.88 54.1102 88.84C54.1102 88.8 54.1102 88.78 54.1102 88.78L54.1202 88.75Z" fill="#1A2E35"/>
<path d="M43.05 88.93C43.05 88.93 43.05 88.97 43.06 89.05C43.06 89.13 43.08 89.25 43.09 89.41C43.09 89.49 43.1 89.58 43.11 89.67C43.12 89.77 43.14 89.87 43.16 89.98C43.18 90.09 43.2 90.21 43.22 90.34C43.24 90.47 43.29 90.6 43.32 90.75C43.46 91.33 43.74 92.01 44.18 92.73C44.62 93.45 45.25 94.19 46.11 94.82C46.22 94.9 46.33 94.98 46.44 95.06C46.55 95.13 46.67 95.2 46.79 95.27C46.91 95.34 47.03 95.42 47.16 95.48C47.29 95.54 47.42 95.6 47.55 95.66C47.62 95.69 47.68 95.72 47.75 95.75C47.82 95.77 47.89 95.8 47.96 95.82C48.1 95.87 48.24 95.92 48.38 95.97C48.52 96.02 48.67 96.04 48.82 96.08C48.97 96.11 49.12 96.16 49.27 96.18C49.58 96.22 49.89 96.28 50.22 96.27C50.38 96.27 50.54 96.29 50.71 96.28C50.87 96.27 51.04 96.26 51.2 96.25C51.28 96.25 51.37 96.25 51.45 96.23L51.7 96.19C51.87 96.16 52.03 96.14 52.2 96.1C52.53 96.01 52.87 95.93 53.19 95.79C53.52 95.68 53.83 95.5 54.15 95.34C54.3 95.25 54.45 95.15 54.61 95.05C54.77 94.96 54.91 94.84 55.05 94.73C55.35 94.52 55.61 94.25 55.88 93.99C56 93.85 56.13 93.71 56.25 93.57L56.34 93.46L56.42 93.34L56.59 93.11L56.76 92.88L56.91 92.63L57.06 92.38L57.13 92.25L57.19 92.12C57.27 91.94 57.35 91.77 57.43 91.59C57.49 91.41 57.56 91.22 57.62 91.03C57.85 90.28 57.97 89.48 57.97 88.67C57.95 87.86 57.8 87.07 57.55 86.32C57.48 86.14 57.41 85.95 57.34 85.77C57.25 85.6 57.17 85.42 57.08 85.25L57.01 85.12L56.93 85L56.78 84.76L56.63 84.52L56.46 84.29L56.29 84.06L56.2 83.95L56.1 83.85C55.97 83.71 55.84 83.57 55.72 83.44C55.44 83.19 55.17 82.94 54.87 82.73C54.72 82.62 54.58 82.51 54.42 82.43C54.26 82.34 54.11 82.24 53.95 82.16C53.62 82.01 53.31 81.85 52.97 81.75C52.64 81.62 52.3 81.56 51.97 81.47C51.8 81.44 51.63 81.42 51.47 81.4L51.22 81.37C51.14 81.36 51.05 81.37 50.97 81.36C50.8 81.36 50.64 81.35 50.48 81.34C50.32 81.34 50.15 81.36 49.99 81.37C49.67 81.37 49.36 81.45 49.05 81.5C48.89 81.52 48.75 81.57 48.6 81.61C48.45 81.65 48.3 81.69 48.16 81.74C48.02 81.79 47.88 81.85 47.74 81.9C47.67 81.93 47.6 81.95 47.53 81.98C47.46 82.01 47.4 82.05 47.33 82.08C47.2 82.15 47.07 82.21 46.95 82.27C46.82 82.33 46.71 82.42 46.59 82.49C46.47 82.57 46.35 82.63 46.24 82.71C46.13 82.79 46.03 82.88 45.92 82.96C45.09 83.62 44.48 84.39 44.06 85.12C43.65 85.85 43.39 86.54 43.26 87.13C43.23 87.28 43.18 87.41 43.17 87.54C43.15 87.67 43.13 87.79 43.12 87.91C43.11 88.02 43.09 88.13 43.08 88.22C43.08 88.32 43.08 88.4 43.07 88.48C43.07 88.63 43.06 88.75 43.05 88.84C43.05 88.76 43.05 88.64 43.05 88.48C43.05 88.4 43.05 88.31 43.05 88.22C43.05 88.12 43.07 88.02 43.09 87.9C43.1 87.79 43.12 87.66 43.14 87.53C43.15 87.4 43.2 87.26 43.23 87.12C43.35 86.53 43.6 85.84 44.02 85.1C44.44 84.36 45.04 83.58 45.88 82.92C45.99 82.84 46.09 82.75 46.2 82.67C46.31 82.59 46.43 82.52 46.55 82.44C46.67 82.37 46.78 82.28 46.91 82.22C47.04 82.16 47.17 82.09 47.3 82.02C47.37 81.99 47.43 81.95 47.5 81.92C47.57 81.89 47.64 81.87 47.71 81.84C47.85 81.79 47.99 81.73 48.13 81.68C48.27 81.63 48.42 81.6 48.57 81.55C48.72 81.51 48.87 81.46 49.02 81.44C49.33 81.39 49.65 81.32 49.97 81.31C50.13 81.31 50.3 81.28 50.46 81.28C50.63 81.28 50.79 81.29 50.96 81.3C51.04 81.3 51.13 81.3 51.21 81.31L51.46 81.34C51.63 81.37 51.8 81.38 51.97 81.41C52.3 81.49 52.65 81.56 52.98 81.69C53.32 81.79 53.64 81.96 53.97 82.11C54.13 82.2 54.28 82.29 54.44 82.38C54.6 82.47 54.75 82.58 54.9 82.69C55.21 82.9 55.48 83.16 55.77 83.41C55.9 83.55 56.03 83.69 56.16 83.83L56.26 83.93L56.35 84.04L56.53 84.27L56.71 84.5L56.87 84.75L57.03 85L57.11 85.12L57.18 85.25C57.27 85.43 57.36 85.6 57.44 85.78C57.51 85.96 57.58 86.15 57.65 86.34C57.91 87.09 58.05 87.9 58.08 88.72C58.08 89.54 57.96 90.35 57.73 91.11C57.66 91.3 57.6 91.49 57.53 91.67C57.45 91.85 57.36 92.03 57.28 92.21L57.22 92.34L57.15 92.47L57 92.72L56.85 92.97L56.68 93.21L56.51 93.44L56.43 93.56L56.34 93.67C56.21 93.81 56.09 93.96 55.96 94.1C55.68 94.36 55.42 94.63 55.12 94.84C54.97 94.95 54.83 95.07 54.67 95.16C54.51 95.26 54.36 95.36 54.21 95.45C53.89 95.61 53.57 95.79 53.23 95.9C52.9 96.04 52.56 96.12 52.23 96.21C52.06 96.25 51.89 96.27 51.72 96.3L51.47 96.34C51.39 96.35 51.3 96.35 51.22 96.36C51.05 96.37 50.89 96.38 50.72 96.39C50.55 96.39 50.39 96.39 50.23 96.38C49.9 96.38 49.59 96.32 49.27 96.28C49.11 96.27 48.96 96.21 48.81 96.18C48.66 96.14 48.51 96.11 48.36 96.07C48.22 96.02 48.07 95.97 47.93 95.92C47.86 95.9 47.79 95.87 47.72 95.85C47.65 95.82 47.59 95.79 47.52 95.76C47.39 95.7 47.26 95.64 47.13 95.58C47 95.52 46.88 95.44 46.76 95.37C46.64 95.3 46.52 95.23 46.4 95.16C46.29 95.08 46.18 95 46.07 94.92C45.21 94.28 44.58 93.52 44.14 92.8C43.7 92.07 43.43 91.38 43.29 90.8C43.26 90.65 43.21 90.52 43.19 90.39C43.17 90.26 43.15 90.14 43.13 90.02C43.11 89.91 43.09 89.8 43.08 89.71C43.08 89.61 43.07 89.53 43.06 89.45C43.06 89.3 43.05 89.18 43.04 89.09C43.04 89.01 43.04 88.97 43.04 88.97L43.05 88.93Z" fill="#1A2E35"/>
<path d="M49.75 80.69C54.58 80.61 58.43 84.36 58.51 89.21L53.94 89.28C53.9 86.96 52.14 85.5 49.83 85.54L49.75 80.69Z" fill="#BABABA"/>
<path d="M49.75 80.6901C49.75 80.6901 49.75 80.7201 49.75 80.7801C49.75 80.8401 49.75 80.9301 49.75 81.0401C49.75 81.2701 49.76 81.6001 49.77 82.0101C49.79 82.8501 49.81 84.0601 49.85 85.5401L49.81 85.5001C50.25 85.5001 50.71 85.5401 51.18 85.6701C51.65 85.8001 52.12 86.0101 52.54 86.3301C52.96 86.6501 53.32 87.08 53.57 87.59C53.82 88.1 53.95 88.6801 53.96 89.2801L53.91 89.2301C55.03 89.2101 56.22 89.1901 57.45 89.1701C57.8 89.1701 58.15 89.1601 58.48 89.1501L58.43 89.2001C58.4 88.2501 58.24 87.3401 57.96 86.5001C57.88 86.2901 57.8 86.0901 57.73 85.8801C57.64 85.6801 57.54 85.4901 57.45 85.3001C57.36 85.1001 57.25 84.9301 57.14 84.7501C57.03 84.5801 56.93 84.3901 56.8 84.2401C56.68 84.0801 56.56 83.9201 56.44 83.7601C56.31 83.6101 56.17 83.4701 56.05 83.3301C55.98 83.2601 55.92 83.1901 55.86 83.1201C55.79 83.0601 55.72 83.0001 55.65 82.9301C55.51 82.8101 55.37 82.6901 55.24 82.5701C54.67 82.1401 54.1 81.7701 53.54 81.5201C53.4 81.4601 53.27 81.3901 53.13 81.3301C52.99 81.2801 52.86 81.2301 52.73 81.1901C52.6 81.1401 52.47 81.1001 52.35 81.0601C52.23 81.0201 52.1 81.0001 51.99 80.9701C51.87 80.9401 51.76 80.9101 51.65 80.8901C51.6 80.8801 51.54 80.8601 51.49 80.8501C51.44 80.8501 51.38 80.8301 51.33 80.8301C51.13 80.8001 50.94 80.7801 50.77 80.7501C50.6 80.7201 50.45 80.7201 50.32 80.7101C50.19 80.7101 50.08 80.7001 49.99 80.6901C49.9 80.6901 49.84 80.6901 49.79 80.6801C49.84 80.6801 49.91 80.6801 49.99 80.6801C50.08 80.6801 50.19 80.6801 50.32 80.6801C50.45 80.6801 50.61 80.6801 50.77 80.7101C50.94 80.7301 51.13 80.7601 51.33 80.7801C51.38 80.7801 51.43 80.7901 51.49 80.8001C51.54 80.8101 51.6 80.82 51.65 80.84C51.76 80.87 51.87 80.8901 51.99 80.9201C52.11 80.9501 52.23 80.9701 52.36 81.0101C52.48 81.0501 52.61 81.0901 52.74 81.1401C52.87 81.1901 53.01 81.2301 53.14 81.2801C53.27 81.3401 53.41 81.4001 53.55 81.4701C54.12 81.7101 54.69 82.08 55.27 82.5201C55.41 82.6401 55.55 82.7601 55.69 82.8801C55.76 82.9401 55.83 83.0001 55.9 83.0701C55.97 83.1401 56.03 83.2101 56.1 83.2801C56.23 83.4201 56.37 83.5601 56.5 83.7101C56.62 83.8701 56.74 84.0301 56.87 84.1901C57 84.3501 57.1 84.5301 57.21 84.7101C57.32 84.8901 57.44 85.0701 57.53 85.2601C57.62 85.4501 57.73 85.6501 57.81 85.8501C57.89 86.0601 57.97 86.2601 58.05 86.4701C58.33 87.3201 58.5 88.2501 58.52 89.2001V89.2501H58.47C58.14 89.2501 57.79 89.26 57.44 89.2701C56.21 89.2901 55.02 89.3101 53.9 89.3301H53.85V89.2801C53.85 88.7001 53.71 88.1301 53.47 87.6301C53.23 87.1301 52.88 86.7101 52.47 86.4001C52.06 86.0801 51.6 85.8701 51.14 85.7501C50.68 85.6201 50.22 85.5801 49.79 85.5801H49.75V85.5401C49.73 84.0501 49.72 82.8301 49.71 81.9801C49.71 81.5701 49.71 81.2401 49.71 81.0101C49.71 80.9001 49.71 80.8201 49.71 80.7601C49.71 80.7001 49.71 80.6801 49.71 80.6801L49.75 80.6901Z" fill="#1A2E35"/>
<path d="M87.9998 72.02H39.5898V76.69H87.9998V72.02Z" fill="#E1E1E1"/>
<path d="M80.5699 82.6401H66.9599C66.7999 82.6401 66.6699 82.5101 66.6699 82.3501C66.6699 82.1901 66.7999 82.0601 66.9599 82.0601H80.5699C80.7299 82.0601 80.8599 82.1901 80.8599 82.3501C80.8599 82.5101 80.7299 82.6401 80.5699 82.6401Z" fill="#E1E1E1"/>
<path d="M80.5699 84.19H66.9599C66.7999 84.19 66.6699 84.06 66.6699 83.9C66.6699 83.74 66.7999 83.61 66.9599 83.61H80.5699C80.7299 83.61 80.8599 83.74 80.8599 83.9C80.8599 84.06 80.7299 84.19 80.5699 84.19Z" fill="#E1E1E1"/>
<path d="M73.1497 85.73H66.9697C66.8097 85.73 66.6797 85.6 66.6797 85.44C66.6797 85.28 66.8097 85.15 66.9697 85.15H73.1497C73.3097 85.15 73.4397 85.28 73.4397 85.44C73.4397 85.6 73.3097 85.73 73.1497 85.73Z" fill="#E1E1E1"/>
<path d="M80.0196 89.79H67.0596C65.5629 89.79 64.3496 91.0033 64.3496 92.5V95.13C64.3496 96.6267 65.5629 97.84 67.0596 97.84H80.0196C81.5163 97.84 82.7296 96.6267 82.7296 95.13V92.5C82.7296 91.0033 81.5163 89.79 80.0196 89.79Z" fill="#ECECEC"/>
<path d="M80.9397 102.87H65.7497C64.8697 102.87 64.1597 102.16 64.1597 101.28C64.1597 100.4 64.8697 99.6901 65.7497 99.6901H80.9397C81.8197 99.6901 82.5297 100.4 82.5297 101.28C82.5297 102.16 81.8197 102.87 80.9397 102.87Z" fill="#ECECEC"/>
<path d="M80.4796 92.5701H66.8696C66.7096 92.5701 66.5796 92.4401 66.5796 92.2801C66.5796 92.1201 66.7096 91.9901 66.8696 91.9901H80.4796C80.6396 91.9901 80.7696 92.1201 80.7696 92.2801C80.7696 92.4401 80.6396 92.5701 80.4796 92.5701Z" fill="#E1E1E1"/>
<path d="M79.9 101.61H66.29C66.13 101.61 66 101.48 66 101.32C66 101.16 66.13 101.03 66.29 101.03H79.9C80.06 101.03 80.19 101.16 80.19 101.32C80.19 101.48 80.06 101.61 79.9 101.61Z" fill="#E1E1E1"/>
<path d="M80.4796 94.11H66.8696C66.7096 94.11 66.5796 93.98 66.5796 93.82C66.5796 93.66 66.7096 93.53 66.8696 93.53H80.4796C80.6396 93.53 80.7696 93.66 80.7696 93.82C80.7696 93.98 80.6396 94.11 80.4796 94.11Z" fill="#E1E1E1"/>
<path d="M73.0598 95.65H66.8798C66.7198 95.65 66.5898 95.52 66.5898 95.36C66.5898 95.2 66.7198 95.07 66.8798 95.07H73.0598C73.2198 95.07 73.3498 95.2 73.3498 95.36C73.3498 95.52 73.2198 95.65 73.0598 95.65Z" fill="#E1E1E1"/>
<path d="M63.3999 81.66C63.3999 81.66 63.3099 81.67 63.1499 81.68C62.9699 81.68 62.7299 81.68 62.4599 81.7C61.8699 81.7 61.0699 81.71 60.1699 81.71C59.7999 81.71 59.4499 81.71 59.1299 81.71H59.1599C58.7099 82.15 58.3099 82.53 58.0299 82.8C57.8999 82.92 57.7899 83.03 57.6999 83.11C57.6199 83.18 57.5799 83.22 57.5699 83.21C57.5599 83.2 57.5999 83.16 57.6699 83.08C57.7499 82.99 57.8599 82.88 57.9799 82.75C58.2499 82.47 58.6299 82.08 59.0799 81.62H59.0899L59.1099 81.61C59.4299 81.61 59.7899 81.61 60.1499 81.61C61.0399 81.61 61.8499 81.61 62.4399 81.62C62.7199 81.62 62.9499 81.63 63.1299 81.64C63.2899 81.64 63.3799 81.65 63.3799 81.66H63.3999Z" fill="#1A2E35"/>
<path d="M63.1996 82.07C63.415 82.07 63.5896 81.8954 63.5896 81.68C63.5896 81.4646 63.415 81.29 63.1996 81.29C62.9842 81.29 62.8096 81.4646 62.8096 81.68C62.8096 81.8954 62.9842 82.07 63.1996 82.07Z" fill="#1A2E35"/>
<path d="M63.1996 93.69C63.415 93.69 63.5896 93.5154 63.5896 93.3C63.5896 93.0846 63.415 92.91 63.1996 92.91C62.9842 92.91 62.8096 93.0846 62.8096 93.3C62.8096 93.5154 62.9842 93.69 63.1996 93.69Z" fill="#1A2E35"/>
<path d="M62.9398 93.3601C62.9398 93.3601 62.6898 93.3801 62.2898 93.3901C61.8898 93.3901 61.3398 93.3901 60.7198 93.3901C60.1198 93.3901 59.5798 93.3801 59.1498 93.3701C58.9698 93.3701 58.8098 93.3701 58.6798 93.3701C58.5698 93.3701 58.5098 93.3701 58.5098 93.3701C58.5098 93.3501 58.7598 93.3301 59.1598 93.3201C59.5598 93.3101 60.1198 93.3 60.7298 93.31C61.3398 93.31 61.8998 93.3201 62.2998 93.3301C62.6998 93.3401 62.9498 93.3601 62.9498 93.3701L62.9398 93.3601Z" fill="#1A2E35"/>
<path d="M46.75 101.86H45.48V103.13H46.75V101.86Z" fill="#E1E1E1"/>
<path d="M51 101.86H49.73V103.13H51V101.86Z" fill="#E1E1E1"/>
<path d="M55.6098 101.86H54.3398V103.13H55.6098V101.86Z" fill="#BABABA"/>
<path d="M42.8796 74.3501C42.8796 74.7201 42.5896 75.0201 42.2396 75.0201C41.8896 75.0201 41.5996 74.7201 41.5996 74.3501C41.5996 73.9801 41.8896 73.6801 42.2396 73.6801C42.5896 73.6801 42.8796 73.9801 42.8796 74.3501Z" fill="white"/>
<path d="M45.05 74.3501C45.05 74.7201 44.76 75.0201 44.41 75.0201C44.06 75.0201 43.77 74.7201 43.77 74.3501C43.77 73.9801 44.06 73.6801 44.41 73.6801C44.76 73.6801 45.05 73.9801 45.05 74.3501Z" fill="white"/>
<path d="M47.2297 74.3501C47.2297 74.7201 46.9397 75.0201 46.5897 75.0201C46.2397 75.0201 45.9497 74.7201 45.9497 74.3501C45.9497 73.9801 46.2397 73.6801 46.5897 73.6801C46.9397 73.6801 47.2297 73.9801 47.2297 74.3501Z" fill="white"/>
<path d="M87.9898 106.96C87.9898 106.64 87.9698 93.21 87.9498 72.03L87.9898 72.07C74.4398 72.07 57.6898 72.07 39.5798 72.07L39.6298 72.02C39.6298 84.54 39.6298 96.42 39.6298 106.95L39.5898 106.91C68.2198 106.94 87.6098 106.95 87.9998 106.95C87.6098 106.95 68.2198 106.97 39.5898 106.99H39.5498V106.95C39.5498 96.41 39.5498 84.54 39.5498 72.02V71.97H39.5998C57.6998 71.97 74.4598 71.97 88.0098 71.97H88.0498V72.01C88.0298 93.2 88.0098 106.62 88.0098 106.94L87.9898 106.96Z" fill="#1A2E35"/>
</g>
<path d="M104.27 11.13L8.92979 3.59002C6.01979 3.36002 3.52979 5.66002 3.52979 8.58002V64.22C3.52979 67.08 5.92979 69.36 8.78979 69.22L82.7998 65.55L81.7998 82.69L97.9398 64.8L104.13 64.49C106.8 64.36 108.89 62.16 108.89 59.49V16.12C108.89 13.51 106.88 11.33 104.28 11.13H104.27Z" fill="#F0F2F5"/>
<path d="M101.23 58.11L104.63 57.91L106.33 57.81C106.61 57.79 106.9 57.78 107.18 57.76C107.46 57.74 107.74 57.69 108.01 57.62C109.1 57.34 110.07 56.64 110.69 55.71C111 55.25 111.23 54.72 111.36 54.18C111.42 53.91 111.46 53.63 111.48 53.35C111.49 53.07 111.48 52.79 111.48 52.5L111.46 38.87L111.48 25.24L111.51 18.42L111.53 15.01V13.31L111.55 12.46C111.55 12.32 111.55 12.18 111.55 12.03C111.55 12.17 111.55 12.31 111.55 12.46V13.31L111.57 15.01L111.59 18.42L111.62 25.24L111.64 38.87L111.62 52.5C111.62 52.78 111.62 53.07 111.61 53.36C111.59 53.65 111.55 53.93 111.48 54.21C111.34 54.77 111.1 55.31 110.78 55.78C110.13 56.73 109.13 57.44 108.02 57.72C107.74 57.79 107.46 57.83 107.17 57.85C106.88 57.87 106.6 57.88 106.32 57.89L104.62 57.96L101.21 58.1L101.23 58.11Z" fill="#1B1A2E"/>
<path d="M86.9399 58.82L86.7499 62.87C86.6899 64.22 86.6099 65.57 86.5399 66.92C86.4699 68.27 86.3999 69.62 86.3199 70.97L86.0899 75.02L85.9199 74.95L87.8199 72.84L89.7299 70.73L93.5499 66.52L97.3799 62.32C98.0199 61.62 98.6599 60.92 99.2999 60.23L101.23 58.14L99.3499 60.27C98.7199 60.98 98.0999 61.69 97.4599 62.4L93.6699 66.64L89.8699 70.87L87.9699 72.98L86.0599 75.09L85.8799 75.29L85.8999 75.02L86.1399 70.98C86.2199 69.63 86.3099 68.28 86.3999 66.94C86.4899 65.59 86.5699 64.24 86.6599 62.9L86.9399 58.86V58.82Z" fill="#1B1A2E"/>
<path d="M17.0698 62.28L25.7998 61.8L34.5398 61.33L51.9998 60.45L69.4698 59.6L78.1998 59.2L86.9398 58.82L78.2098 59.3L69.4798 59.76L52.0098 60.65L34.5398 61.49L25.8098 61.9L17.0698 62.28Z" fill="#1B1A2E"/>
<path d="M111.53 11.6C111.47 11.17 111.37 10.76 111.2 10.36L111.07 10.07C111.02 9.97 110.97 9.88 110.92 9.79C110.87 9.69 110.81 9.61 110.75 9.52L110.66 9.39C110.66 9.39 110.59 9.31 110.56 9.26L110.46 9.13C110.46 9.13 110.39 9.05 110.36 9.01L110.14 8.78C109.98 8.64 109.82 8.49 109.65 8.37C109.3 8.12 108.93 7.9 108.53 7.76C108.43 7.72 108.33 7.69 108.23 7.66L108.08 7.61C108.03 7.59 107.98 7.59 107.92 7.57C107.82 7.55 107.71 7.52 107.61 7.51L107.29 7.47C106.86 7.43 106.43 7.4 106.01 7.37L103.44 7.17L93.1698 6.38L72.6398 4.78L31.5498 1.56L21.2798 0.74L18.7098 0.54L17.4298 0.44C17.3198 0.44 17.2098 0.42 17.1098 0.42H16.9498H16.7898C16.5798 0.42 16.3698 0.44 16.1598 0.47C15.3298 0.59 14.5298 0.94 13.8798 1.48C13.2298 2.01 12.7198 2.72 12.4498 3.52C12.3098 3.92 12.2298 4.33 12.1998 4.75C12.1998 4.85 12.1998 4.96 12.1898 5.07V5.39V6.03V8.6V13.75V24.05L12.1498 44.65L12.1198 54.95V57.52C12.1098 57.95 12.1598 58.38 12.2698 58.79C12.3298 59 12.3898 59.2 12.4798 59.4C12.5198 59.5 12.5698 59.59 12.6098 59.69C12.6598 59.78 12.7098 59.88 12.7598 59.97C13.1898 60.71 13.8298 61.33 14.5798 61.74C15.3298 62.15 16.1998 62.35 17.0598 62.31C16.1998 62.35 15.3298 62.17 14.5798 61.75C13.8198 61.34 13.1798 60.73 12.7398 59.99C12.6798 59.9 12.6398 59.8 12.5798 59.71C12.5398 59.61 12.4798 59.52 12.4498 59.42C12.3598 59.22 12.2998 59.02 12.2398 58.81C12.1298 58.39 12.0798 57.96 12.0798 57.53V54.96L12.0498 44.66L12.0198 24.06V13.76L12.0098 8.61V6.04V5.4V5.08C12.0098 4.97 12.0098 4.86 12.0198 4.75C12.0498 4.31 12.1298 3.88 12.2798 3.47C12.5698 2.64 13.0898 1.9 13.7698 1.35C14.4498 0.79 15.2798 0.42 16.1398 0.3C16.3598 0.27 16.5798 0.25 16.7898 0.25H16.9498H17.1098C17.2198 0.25 17.3298 0.27 17.4298 0.27L18.7098 0.37L21.2798 0.57L31.5498 1.38L72.6098 4.65L93.1398 6.3L103.4 7.14L105.97 7.35C106.4 7.39 106.83 7.42 107.25 7.46L107.57 7.5C107.68 7.52 107.78 7.54 107.89 7.57C107.94 7.58 108 7.59 108.05 7.61L108.2 7.66C108.3 7.69 108.41 7.72 108.51 7.76C108.91 7.91 109.29 8.13 109.64 8.38C109.82 8.5 109.97 8.65 110.13 8.8L110.35 9.03C110.35 9.03 110.42 9.11 110.45 9.15L110.55 9.28C110.55 9.28 110.62 9.36 110.65 9.41L110.74 9.54C110.8 9.63 110.86 9.72 110.91 9.81C110.96 9.9 111.02 10 111.06 10.09L111.19 10.38C111.35 10.78 111.46 11.2 111.51 11.62L111.53 11.6Z" fill="#1B1A2E"/>
<path d="M100.43 43.74C99.96 43.38 99.54 43.03 99.45 42.48C99.37 42.01 99.42 41.6 99.83 41.24C100.06 41.03 100.24 40.79 100.45 40.56C102.12 41.45 103.88 41.1 104.83 39.69C104.89 39.6 105 39.52 105.12 39.48C106.68 39.01 107.15 37.66 106.17 36.54C106.04 36.39 105.96 36.18 105.97 36C105.99 35.41 105.76 34.93 105.2 34.53C105.07 34.43 104.95 34.25 104.96 34.11C104.96 33.44 104.5 32.95 103.69 32.79C103.53 32.76 103.3 32.66 103.26 32.56C102.9 31.53 101.23 30.97 100.02 31.42C99.96 31.44 99.89 31.46 99.83 31.47C98.07 30.29 96.92 30.3 95.28 31.51C93.77 31 92.32 31.57 91.86 32.82C91.7 32.82 91.53 32.82 91.36 32.82C90.78 32.88 90.32 33.16 90.24 33.6C90.14 34.13 89.88 34.53 89.49 34.94C89.3 35.14 89.26 35.48 89.25 35.76C89.18 37.11 91.01 38.39 92.63 38.12C93.15 38.72 93.83 38.84 94.62 38.55C95.26 39.67 95.74 39.88 97.53 39.79C97.65 40.13 97.8 40.47 97.89 40.82C98.18 41.99 99.42 42.89 100.44 43.74" fill="#C0BBFF"/>
<path d="M99.55 47.2C100.41 47.76 100.51 48.19 99.64 48.76C98.39 49.57 98.72 51.08 100.28 51.47C101.69 51.82 103.06 51.67 104.11 50.73C104.86 50.06 105.57 49.29 106.03 48.46C107.49 45.8 108.56 43.03 108.86 40.09C109.52 33.79 103.98 28.83 96.47 29C93.47 29.07 90.62 29.64 88.06 31.02C85.27 32.52 83.77 34.68 83.63 37.45C83.6 37.98 83.68 38.52 83.78 39.04C84.09 40.67 83.45 42.1 82.38 43.44C82.12 43.77 81.86 44.11 81.69 44.47C81.26 45.36 81.61 46.01 82.65 46.34C82.71 46.36 82.77 46.37 82.83 46.39C84.01 46.72 84.07 46.84 83.56 47.79C83.26 48.36 83.13 48.89 83.83 49.32C83.5 49.87 83.67 50.32 84.08 50.76C84.24 50.94 84.29 51.23 84.29 51.47C84.29 51.84 84.18 52.21 84.15 52.59C84.05 53.73 84.65 54.4 86 54.51C86.88 54.58 87.77 54.56 88.66 54.55C90.36 54.52 91.37 55.09 91.83 56.47C92.05 57.13 92.61 57.8 92.74 58.48C92.51 57.6 92.4 56.68 92.03 55.85C91.53 54.72 90.48 54.16 88.98 54.19C87.93 54.21 86.86 54.19 85.82 54.09C84.97 54.01 84.66 53.66 84.63 52.94C84.61 52.6 84.63 52.26 84.7 51.93C84.84 51.32 84.85 50.78 84.29 50.3C84.15 50.17 84.16 49.77 84.29 49.6C84.51 49.32 84.43 49.16 84.17 49.03C83.67 48.79 83.68 48.46 83.9 48.08C83.95 48 83.99 47.92 84.03 47.83C84.58 46.83 84.37 46.42 83.13 46.07C81.87 45.71 81.64 45.22 82.3 44.22C82.76 43.53 83.25 42.86 83.69 42.16C84.27 41.22 84.44 40.21 84.22 39.19C83.35 35.18 86.01 31.82 90.47 30.39C94.9 28.97 99.21 28.85 103.31 30.99C107.05 32.94 108.61 35.87 108.44 39.53C108.3 42.63 107.11 45.52 105.61 48.33C105.29 48.93 104.79 49.47 104.33 50C103.51 50.95 102.36 51.29 101.03 51.18C100.65 51.15 100.24 51.03 99.92 50.85C99.19 50.46 99.15 49.67 99.78 49.16C99.92 49.05 100.08 48.95 100.21 48.83C100.96 48.15 100.45 47.68 99.57 47.17L99.55 47.2Z" fill="#5E5E5E"/>
<path d="M100.11 34.1C100.17 34 100.23 33.91 100.29 33.83C100.68 33.29 101.32 33.2 101.87 33.61C102.42 34.03 102.5 34.65 102.06 35.18C101.95 35.31 101.82 35.43 101.69 35.55C101.4 35.81 101.1 36.05 100.83 36.32C100.57 36.59 100.34 36.89 100.09 37.18C99.9198 36.97 99.7598 36.72 99.5598 36.52C99.2498 36.21 98.9098 35.92 98.5998 35.62C98.4198 35.45 98.2398 35.28 98.0898 35.09C97.7298 34.62 97.8198 34.06 98.2898 33.66C98.7698 33.25 99.3898 33.26 99.7798 33.68C99.8998 33.81 99.9998 33.96 100.11 34.11V34.1Z" fill="#4638F4"/>
<mask id="mask0_416_4396" style="mask-type:luminance" maskUnits="userSpaceOnUse" x="10" y="-1" width="103" height="77">
<path d="M112.91 38.63L112.88 52.26C112.88 52.54 112.88 52.82 112.87 53.11C112.86 53.4 112.81 53.69 112.74 53.97C112.6 54.53 112.35 55.07 112.02 55.54C111.36 56.5 110.34 57.21 109.2 57.48C108.92 57.54 108.62 57.59 108.32 57.61C108.04 57.64 107.74 57.64 107.45 57.65L105.7 57.73L102.22 57.87L100.29 60C99.6401 60.71 99.0001 61.43 98.3501 62.12L94.4801 66.36L90.5901 70.59L88.6401 72.7L86.6901 74.81L86.5001 75.01L86.5301 74.74L86.7801 70.69C86.8601 69.35 86.9601 68 87.0401 66.65C87.1301 65.31 87.2201 63.96 87.3101 62.61L87.5901 58.57L78.6501 59.06L69.7101 59.51L51.8401 60.41L33.9601 61.24L25.0201 61.64L16.0701 62.02C15.1901 62.07 14.3001 61.88 13.5401 61.46C12.7601 61.06 12.1001 60.45 11.6501 59.71C11.6001 59.62 11.5501 59.52 11.4901 59.42C11.4401 59.33 11.3901 59.23 11.3501 59.13C11.2601 58.94 11.1901 58.73 11.1401 58.52C11.0201 58.1 10.9701 57.67 10.9701 57.24V54.66L10.9301 44.37L10.9001 23.79V13.5L10.8901 4.80997C10.8901 4.69997 10.8901 4.57997 10.9001 4.47997C10.9301 4.03997 11.0201 3.60997 11.1701 3.18997C11.4501 2.36997 12.0001 1.61997 12.6801 1.06997C13.3801 0.509971 14.2201 0.149971 15.1101 0.0199707C15.3301 -0.0100293 15.5601 -0.0300293 15.7801 -0.0300293H16.1201C16.2401 -0.0200293 16.3401 -2.92975e-05 16.4401 0.0099707L17.7601 0.109971L20.3901 0.309971L30.9001 1.11997L72.9301 4.38997L93.9401 6.03997L104.44 6.86997L107.07 7.06997C107.51 7.10997 107.95 7.14997 108.39 7.17997L108.71 7.21997C108.83 7.22997 108.93 7.26997 109.03 7.27997C109.08 7.28997 109.15 7.30997 109.2 7.31997L109.36 7.36997C109.46 7.40997 109.57 7.42997 109.67 7.46997C110.08 7.61997 110.47 7.83997 110.82 8.08997C111 8.21997 111.17 8.36997 111.32 8.50997L111.55 8.74997C111.55 8.74997 111.61 8.82997 111.65 8.87997L111.75 9.00997C111.75 9.00997 111.81 9.08997 111.85 9.13997L111.94 9.26997C111.99 9.35997 112.06 9.44997 112.11 9.54997C112.16 9.63997 112.23 9.73997 112.27 9.82997L112.41 10.13C112.57 10.52 112.68 10.94 112.73 11.37C112.74 11.51 112.76 11.65 112.77 11.8V13.08L112.8 14.78L112.83 18.18L112.86 25L112.89 38.62L112.91 38.63Z" fill="white"/>
</mask>
<g mask="url(#mask0_416_4396)">
<path d="M57.5704 32.09C57.5504 32.2 57.4404 32.19 57.3704 32.22C56.1904 32.69 55.0204 33.16 53.8404 33.62C52.9504 33.97 52.0604 34.32 51.1804 34.68C51.1204 34.71 51.0304 34.71 51.0004 34.8C51.0304 34.82 51.0504 34.84 51.0704 34.85C52.2804 35.44 53.5504 35.63 54.8804 35.39C55.9104 35.21 56.8304 34.79 57.6804 34.2C58.5604 33.59 59.3304 32.86 60.0204 32.05C60.2004 31.84 60.3504 31.62 60.5104 31.39C60.5404 31.35 60.5504 31.29 60.5704 31.23C60.4804 31.2 60.4104 31.17 60.3304 31.15C59.8104 30.99 59.2804 30.86 58.7404 30.77C57.6204 30.58 56.4904 30.51 55.3604 30.68C54.5004 30.81 53.6904 31.07 52.9304 31.49C52.1804 31.9 51.5704 32.47 51.1604 33.23C51.0804 33.38 50.9904 33.51 50.9204 33.66C50.8404 33.85 50.7104 33.97 50.5104 34.04C50.2104 34.15 49.9104 34.28 49.6204 34.41C47.2604 35.49 45.2504 37.03 43.5404 38.98C43.0304 39.56 42.5704 40.17 42.1304 40.81C42.0904 40.87 42.0604 40.95 41.9604 40.9799C41.9604 40.9199 41.9404 40.88 41.9404 40.83C41.9204 40.22 41.8904 39.6 41.8804 38.99C41.8604 37.86 41.9404 36.73 42.1104 35.61C42.1904 35.07 42.2804 34.53 42.3504 33.99C42.3804 33.75 42.4504 33.53 42.5704 33.33C42.7904 32.96 43.0004 32.59 43.2404 32.23C44.0204 31.09 44.9704 30.12 46.0404 29.27C46.5104 28.89 47.0104 28.55 47.5004 28.19C47.5704 28.14 47.6304 28.09 47.6904 28.04C47.5804 28.04 47.4904 28.08 47.4104 28.13C47.0504 28.34 46.6804 28.55 46.3304 28.78C45.5304 29.31 44.8004 29.92 44.0804 30.56C43.5604 31.02 43.0804 31.52 42.7504 32.14C42.7304 32.17 42.7004 32.19 42.6504 32.24C42.6804 32.05 42.7004 31.9 42.7204 31.74C42.8204 31.05 42.9504 30.36 43.0004 29.65C43.0204 29.3 43.1104 28.96 43.2604 28.64C43.9004 27.23 44.6504 25.87 45.5704 24.62C46.0904 23.91 46.6604 23.24 47.2304 22.58C47.2904 22.51 47.3504 22.44 47.4104 22.36C47.3804 22.36 47.3704 22.35 47.3604 22.36C47.3204 22.39 47.2804 22.42 47.2504 22.45C46.5604 23.08 45.9004 23.74 45.2804 24.45C44.4804 25.36 43.7604 26.33 43.2404 27.43C43.2304 27.46 43.2204 27.48 43.2004 27.51C43.1804 27.54 43.1604 27.58 43.1104 27.55C43.1104 27.46 43.1104 27.36 43.1104 27.26C43.1104 26.75 43.1104 26.25 43.0904 25.74C43.0604 25.06 42.9904 24.38 42.8804 23.71C42.7804 23.13 42.6704 22.56 42.5604 21.99C42.5604 21.94 42.5304 21.9 42.5104 21.86C42.4604 22.4 42.4404 22.92 42.4304 23.45C42.4004 24.55 42.3804 25.65 42.3504 26.75C42.3404 27.17 42.3204 27.59 42.3104 28.01C42.3104 28.05 42.3304 28.11 42.2504 28.13C42.2104 28.05 42.1604 27.96 42.1104 27.88C41.7804 27.26 41.4504 26.64 41.0604 26.06C40.3404 24.97 39.4904 24 38.5904 23.06C38.4904 22.95 38.3804 22.86 38.2704 22.76C38.2504 22.74 38.2204 22.7 38.1604 22.74C38.1704 22.77 38.1804 22.81 38.2104 22.83C38.3104 22.96 38.4104 23.1 38.5104 23.22C39.2004 24.07 39.8304 24.96 40.4104 25.89C41.0804 26.97 41.6304 28.11 42.0304 29.32C42.0804 29.49 42.0904 29.63 42.0304 29.8C41.9404 30.06 41.8804 30.32 41.8104 30.59C41.3204 32.29 40.8704 33.99 40.5304 35.72C40.3804 36.48 40.2504 37.24 40.2004 38C40.1604 38.5 40.1404 38.99 40.1104 39.49C40.1104 39.54 40.1304 39.61 40.0604 39.64C40.0504 39.64 40.0404 39.64 40.0304 39.64C39.9904 39.6 39.9404 39.56 39.9004 39.52C38.8504 38.39 37.6904 37.41 36.3404 36.64C36.1904 36.55 36.0604 36.44 35.9604 36.29C34.8704 34.62 34.0504 32.83 33.5304 30.9C33.3804 30.36 33.2704 29.82 33.1204 29.29C32.7504 27.95 31.9904 26.86 30.8804 26.02C30.3304 25.6 29.7404 25.27 29.1204 24.99C28.0104 24.49 26.8504 24.18 25.6604 23.95C25.6104 23.94 25.5504 23.95 25.4804 23.95C25.4804 24.01 25.4804 24.05 25.4904 24.08C25.5604 24.54 25.6804 25 25.8104 25.44C26.1804 26.68 26.7204 27.85 27.4904 28.89C28.1704 29.8 28.9904 30.56 29.9904 31.1C30.8104 31.54 31.6904 31.82 32.6104 32C32.6104 32 32.6304 31.98 32.6504 31.96C32.6304 31.93 32.6204 31.89 32.6004 31.86C32.3804 31.53 32.1604 31.19 31.9204 30.87C30.7904 29.37 29.5704 27.95 28.2004 26.67C28.1204 26.6 28.0404 26.52 27.9704 26.45C27.9504 26.43 27.9004 26.41 27.9504 26.34C28.0204 26.39 28.0904 26.44 28.1504 26.49C28.5804 26.83 29.0004 27.18 29.4204 27.52C30.0904 28.07 30.7604 28.62 31.3904 29.22C31.9104 29.72 32.3904 30.26 32.8304 30.84C33.0104 31.08 33.1704 31.34 33.2604 31.63C33.3504 31.91 33.4604 32.18 33.5504 32.46C33.9104 33.46 34.2704 34.46 34.6204 35.46C34.6404 35.52 34.7104 35.59 34.6304 35.68C34.4704 35.62 34.3204 35.57 34.1604 35.51C34.0904 35.4799 34.0204 35.43 33.9804 35.38C33.6304 34.94 33.2004 34.58 32.7604 34.25C31.5604 33.35 30.2004 32.87 28.7204 32.67C27.8004 32.5499 26.8704 32.55 25.9504 32.62C25.0604 32.69 24.1704 32.83 23.2804 32.97C23.1704 32.99 23.0504 32.99 22.9404 33.06C22.9804 33.21 23.0604 33.31 23.1404 33.43C23.5204 34.02 24.0004 34.54 24.5004 35.03C25.2404 35.77 26.0404 36.44 26.9504 36.96C28.0504 37.6 29.2404 37.93 30.5104 37.98C31.6104 38.02 32.6804 37.82 33.7304 37.5C33.7704 37.49 33.8004 37.46 33.8704 37.42C33.7404 37.35 33.6404 37.28 33.5304 37.23C32.9204 36.94 32.3204 36.64 31.7104 36.36C30.3704 35.73 29.0004 35.16 27.5904 34.72C27.2504 34.61 26.9104 34.49 26.5704 34.36C26.5304 34.34 26.4904 34.31 26.4504 34.28C26.6504 34.29 26.8404 34.33 27.0304 34.38C27.5904 34.52 28.1404 34.68 28.7004 34.82C30.0304 35.16 31.3504 35.54 32.6504 35.98C33.8904 36.4 34.9904 37.04 35.9504 37.92C36.2604 38.21 36.5804 38.51 36.8704 38.82C38.1404 40.19 39.2504 41.68 40.1404 43.33C40.3404 43.71 40.5104 44.1 40.7004 44.49C40.7504 44.6 40.7704 44.71 40.7204 44.83C40.7004 44.88 40.6904 44.9399 40.6804 45C40.3904 46.0499 40.1504 47.1199 39.9804 48.2C39.8604 49.02 39.7604 49.8399 39.7204 50.6699C39.6804 51.4899 39.6904 52.31 39.7404 53.13C39.7404 53.18 39.7304 53.2399 39.7204 53.2999C39.5004 53.27 39.3004 53.2299 39.1004 53.2C38.0204 53.0499 36.9504 52.81 35.9104 52.49C33.1004 51.63 30.5504 50.2799 28.2704 48.41C25.9904 46.54 24.2004 44.2799 22.8204 41.68C21.1704 38.58 20.3604 35.25 20.2504 31.75C20.2104 30.57 20.2804 29.39 20.4304 28.22C20.5804 27.1 20.8104 25.99 21.1204 24.9C22.1304 21.44 23.8504 18.39 26.3104 15.76C27.4704 14.51 28.7904 13.45 30.1904 12.49C31.5604 11.56 33.0104 10.79 34.5604 10.21C36.1704 9.60995 37.8304 9.19995 39.5504 8.99995C40.1404 8.92995 40.7304 8.88995 41.3304 8.85995C41.9404 8.82995 42.5604 8.82995 43.1704 8.87995C43.6604 8.91995 44.1404 8.95995 44.6304 9.00995C45.5304 9.09995 46.4304 9.23995 47.3104 9.44995C50.3604 10.18 53.1304 11.49 55.6204 13.39C57.9004 15.13 59.7104 17.28 61.0304 19.83C62.0504 21.82 62.6204 23.93 62.6704 26.17C62.7004 27.5 62.5504 28.82 62.1704 30.1C61.2904 33.1 59.5604 35.47 56.9104 37.16C56.0204 37.73 55.0804 38.2 54.1004 38.6C52.9704 39.07 51.8204 39.51 50.6804 39.96C49.4004 40.47 48.1304 40.9799 46.9004 41.61C45.2304 42.4599 43.6904 43.5 42.4504 44.9199C42.4304 44.9399 42.3904 44.95 42.3304 44.99C42.3504 44.9 42.3604 44.84 42.3704 44.79C42.4804 44.42 42.5804 44.0399 42.7004 43.6699C43.3304 41.7099 44.2804 39.92 45.6104 38.34C46.7504 36.98 48.0804 35.86 49.6704 35.04C49.9204 34.91 50.1604 34.76 50.4004 34.61C50.5104 34.54 50.6104 34.46 50.6904 34.36C50.8004 34.22 50.9304 34.13 51.0704 34.05C51.7204 33.71 52.4004 33.43 53.1004 33.24C54.4804 32.87 55.8704 32.52 57.2604 32.16C57.3504 32.14 57.4504 32.13 57.5504 32.11L57.5704 32.09ZM38.2804 34.98C38.2804 34.98 38.2804 35 38.2804 35.01C38.2804 35 38.3104 34.98 38.3104 34.98C38.3104 34.96 38.2904 34.93 38.2704 34.91C38.2304 34.63 38.1904 34.35 38.1404 34.08C37.9904 33.39 37.8404 32.7 37.6804 32C37.6604 31.91 37.6304 31.81 37.6004 31.72C37.5904 31.69 37.5604 31.66 37.5304 31.62C37.4804 31.82 37.5404 31.99 37.5704 32.16C37.7304 33.05 37.9504 33.93 38.2004 34.79C38.2104 34.84 38.2104 34.89 38.2704 34.9C38.2704 34.93 38.2704 34.96 38.2704 34.98H38.2804ZM53.5904 25.37C53.5604 25.45 53.4704 25.47 53.4104 25.5C52.9904 25.71 52.5804 25.92 52.1604 26.13C51.0004 26.7 49.8304 27.27 48.6704 27.84C48.5804 27.89 48.4704 27.91 48.4004 28C48.4004 28.08 48.4704 28.06 48.5104 28.08C48.5404 28.1 48.5804 28.1 48.6204 28.11C49.1404 28.24 49.6704 28.3 50.2104 28.28C51.1404 28.24 52.0204 28.02 52.8304 27.56C53.4004 27.24 53.9204 26.84 54.4004 26.39C55.1304 25.7 55.7804 24.93 56.3704 24.12C56.4304 24.04 56.4704 23.96 56.5404 23.85C56.4604 23.83 56.4104 23.81 56.3604 23.81C55.8904 23.81 55.4204 23.78 54.9604 23.79C54.1704 23.81 53.3904 23.89 52.6104 24.06C51.9204 24.22 51.2504 24.42 50.6304 24.76C49.5704 25.33 48.7704 26.16 48.2404 27.25C48.2104 27.31 48.1904 27.38 48.1604 27.44C48.1604 27.44 48.1604 27.46 48.1604 27.47C48.2004 27.5 48.2304 27.47 48.2604 27.45C49.0904 26.99 49.9704 26.65 50.8604 26.32C51.6504 26.03 52.4304 25.73 53.2104 25.44C53.3304 25.4 53.4404 25.32 53.5704 25.35L53.5904 25.37ZM42.0304 20.85C42.0504 20.57 42.0604 20.29 42.0704 20C42.0804 19.72 42.0904 19.44 42.1004 19.15C42.1104 18.86 42.1204 18.57 42.1304 18.27C42.1404 17.99 42.1604 17.71 42.1704 17.42C42.1804 17.14 42.1904 16.86 42.2004 16.57C42.2104 16.29 42.2304 16.01 42.2504 15.72C42.2604 15.44 42.2604 15.16 42.3504 14.88C42.3804 15.44 42.4104 15.99 42.4404 16.55C42.4704 17.12 42.5104 17.7 42.5404 18.27C42.5704 18.83 42.6104 19.4 42.6404 19.96C42.6704 20.52 42.7104 21.08 42.7304 21.68C42.8104 21.62 42.8504 21.6 42.8904 21.57C43.7804 20.67 44.3504 19.61 44.5304 18.35C44.7004 17.14 44.5604 15.96 44.2004 14.8C44.0004 14.15 43.7504 13.51 43.4504 12.9C43.1504 12.3 42.8204 11.71 42.5104 11.12C42.4804 11.05 42.4304 11 42.3804 10.92C42.3404 10.96 42.3104 10.98 42.2904 11.01C41.6904 12.02 41.1404 13.05 40.7304 14.15C40.4704 14.86 40.2704 15.58 40.1704 16.32C40.0104 17.49 40.1004 18.63 40.5604 19.73C40.8604 20.44 41.3004 21.05 41.8704 21.58C41.9104 21.61 41.9504 21.64 41.9904 21.67C41.9904 21.67 42.0104 21.67 42.0404 21.66C42.0704 21.39 42.0404 21.11 42.0504 20.83L42.0304 20.85ZM37.4304 19.06C37.0204 18.56 36.5304 18.17 35.9804 17.85C35.3704 17.48 34.7104 17.2 34.0404 16.97C33.6604 16.84 33.2804 16.73 32.8904 16.62C32.8204 16.6 32.7404 16.59 32.6404 16.58C32.6404 16.68 32.6404 16.75 32.6604 16.82C32.9004 17.94 33.2904 19.01 33.8904 19.99C34.4404 20.89 35.1704 21.58 36.1304 22.03C36.6204 22.26 37.1404 22.4 37.6604 22.52C37.6804 22.52 37.7004 22.52 37.7104 22.51C37.6304 22.31 37.0404 21.46 36.4004 20.66C35.9304 20.07 35.4404 19.51 34.9704 18.94C35.1504 19.02 35.6904 19.51 36.6504 20.46C37.2004 21 37.7104 21.57 38.2504 22.22C38.4104 21 38.1604 19.96 37.4204 19.06H37.4304ZM37.7404 31.07C38.0804 30.4 38.2804 29.69 38.2804 28.94C38.2804 28.46 38.1704 27.99 38.0004 27.54C37.7504 26.9 37.3704 26.33 36.9104 25.82C36.2704 25.11 35.5204 24.54 34.7204 24.03C34.6904 24.01 34.6504 24 34.6104 23.98C34.5504 24.08 34.5404 24.19 34.5404 24.3C34.5404 24.96 34.5404 25.63 34.5604 26.29C34.5804 26.86 34.6504 27.42 34.7604 27.97C34.9104 28.67 35.1504 29.34 35.5404 29.94C35.9004 30.5 36.3704 30.95 36.9204 31.31C36.9804 31.35 37.0404 31.37 37.0904 31.4C37.1104 31.38 37.1204 31.38 37.1204 31.37C37.1204 31.37 37.1304 31.35 37.1204 31.34C37.1204 31.29 37.1004 31.24 37.0904 31.2C36.7804 29.84 36.4804 28.48 36.1704 27.12C36.1704 27.12 36.1704 27.1 36.1904 27.09C36.3104 27.26 36.3704 27.46 36.4404 27.65C36.8004 28.73 37.1504 29.82 37.5104 30.9C37.5404 31 37.5504 31.11 37.6504 31.19C37.6804 31.15 37.7104 31.11 37.7304 31.07H37.7404ZM50.1404 19.22C49.9004 19.55 49.6604 19.88 49.4204 20.21C49.1704 20.55 48.9204 20.89 48.6804 21.23C48.4404 21.56 48.1904 21.88 47.9504 22.25C48.0104 22.25 48.0504 22.27 48.0804 22.26C49.3504 22.06 50.3604 21.44 51.1004 20.4C51.5304 19.8 51.8404 19.14 52.0804 18.45C52.3204 17.76 52.4804 17.05 52.6004 16.32C52.6204 16.23 52.6204 16.13 52.6304 16.03C52.5904 16.03 52.5604 16.01 52.5304 16.03C51.5704 16.41 50.6204 16.83 49.7604 17.4C49.2104 17.76 48.7104 18.18 48.2804 18.67C47.7504 19.27 47.4704 19.97 47.4104 20.77C47.3804 21.13 47.4104 21.49 47.4104 21.85C47.4104 21.88 47.4204 21.9 47.4304 21.93C47.5104 21.96 47.5404 21.89 47.5704 21.86C47.9704 21.41 48.3704 20.96 48.7804 20.51C49.4004 19.81 50.0204 19.11 50.6504 18.41C50.7104 18.34 50.7804 18.27 50.8404 18.2C50.8504 18.21 50.8704 18.22 50.8804 18.24C50.6304 18.58 50.3904 18.92 50.1404 19.26V19.22ZM47.1504 38.02C47.6104 38.57 48.1904 38.89 48.9104 38.95C49.6704 39.01 50.3704 38.8 51.0304 38.43C51.0504 38.43 51.0604 38.4 51.0804 38.38C51.0604 38.34 51.0404 38.3 51.0104 38.26C50.4904 37.6399 49.8604 37.19 49.0804 36.95C48.5304 36.78 48.0204 36.86 47.5504 37.18C47.3204 37.34 47.3104 37.34 47.1904 37.53C47.3804 37.56 47.5604 37.58 47.7404 37.6C48.3404 37.66 48.9304 37.78 49.5104 37.97C49.6104 38 49.7204 38.01 49.8004 38.13C49.4804 38.09 49.1804 38.05 48.8904 38.01C48.5904 37.9699 48.2904 37.93 47.9904 37.9C47.6904 37.87 47.4004 37.81 47.0704 37.86C47.1104 37.93 47.1304 37.98 47.1704 38.02H47.1504ZM48.1504 30.26C47.7704 30.48 47.4104 30.73 47.0704 31.01C46.8304 31.21 46.6204 31.44 46.4504 31.71C46.2604 32 46.1604 32.32 46.1504 32.67C46.1504 32.94 46.1604 33.22 46.2304 33.48C46.2304 33.49 46.2504 33.5 46.2804 33.53C46.4704 33.3 46.5904 33.04 46.7304 32.79C46.8804 32.54 47.0204 32.29 47.1704 32.03C47.3204 31.78 47.4704 31.53 47.6404 31.24C47.6704 31.37 47.6204 31.45 47.5904 31.52C47.4804 31.8 47.3504 32.07 47.2404 32.35C47.0804 32.75 46.9304 33.15 46.7804 33.55C46.7504 33.62 46.7204 33.69 46.7704 33.79C46.8304 33.77 46.8904 33.75 46.9504 33.72C47.8304 33.25 48.3004 32.51 48.3804 31.52C48.4104 31.1 48.3804 30.68 48.3104 30.27C48.3104 30.25 48.2904 30.24 48.2604 30.2C48.2104 30.22 48.1804 30.23 48.1404 30.25L48.1504 30.26Z" fill="#644DF6"/>
<path d="M42.6003 63.02C44.8103 62.97 46.9903 63.12 49.1603 63.46C51.3203 63.79 53.4303 64.31 55.5103 65C55.5503 64.91 55.4903 64.89 55.4603 64.86C55.2703 64.69 55.0703 64.53 54.8903 64.36C54.1603 63.65 53.8203 62.78 53.8503 61.75C53.8903 60.74 54.0203 59.75 54.2903 58.78C54.7403 57.12 55.3803 55.53 56.2703 54.05C56.3803 53.87 56.4903 53.7 56.6003 53.52C56.6703 53.52 56.7403 53.52 56.8003 53.54C58.0103 53.8 59.2303 54.01 60.4603 54.18C61.4603 54.31 62.4503 54.41 63.4603 54.42C63.9003 54.42 64.3403 54.42 64.7703 54.34C64.9103 54.31 65.0603 54.28 65.2003 54.25C65.5503 54.16 65.8103 53.95 66.0103 53.66C66.2703 53.28 66.4003 52.85 66.4103 52.4C66.4303 51.99 66.3503 51.59 66.2703 51.18C66.1903 50.78 66.1003 50.38 66.0403 49.97C65.9203 49.18 66.0903 48.46 66.6003 47.83C66.7203 47.69 66.8603 47.56 66.9903 47.43C67.1103 47.31 67.2503 47.19 67.3603 47.05C67.6703 46.67 67.5803 46.34 67.1203 46.16C66.8803 46.07 66.6303 46.04 66.3803 46.02C66.3003 46.02 66.2003 46.04 66.1203 45.94C66.2503 45.91 66.3603 45.88 66.4703 45.86C66.7703 45.78 67.0803 45.72 67.3703 45.62C67.5303 45.57 67.6903 45.48 67.8303 45.38C68.0703 45.21 68.1103 44.98 67.9203 44.75C67.8003 44.6 67.6603 44.46 67.5103 44.33C67.0403 43.89 66.9103 43.35 66.9903 42.73C67.0203 42.47 67.1603 42.25 67.3503 42.08C67.5303 41.92 67.7303 41.8 67.9403 41.71C68.2303 41.58 68.5203 41.47 68.8003 41.35C69.0103 41.25 69.2203 41.15 69.4303 41.04C69.5303 40.98 69.6203 40.9 69.7003 40.82C69.8803 40.62 69.8603 40.31 69.7303 40.14C69.6303 40.01 69.5303 39.88 69.4303 39.74C69.0603 39.21 68.6903 38.69 68.3403 38.15C67.8203 37.36 67.3303 36.55 66.8203 35.75C66.7103 35.57 66.6003 35.38 66.5003 35.19C66.3203 34.84 66.2703 34.47 66.3503 34.08C66.4103 33.76 66.5103 33.46 66.6203 33.16C67.1403 31.78 67.6703 30.41 68.1903 29.04C68.2703 28.84 68.3603 28.64 68.4403 28.45C68.5603 28.17 68.5903 27.89 68.5403 27.59C68.2603 25.5 67.8203 23.44 67.1003 21.46C66.1903 18.96 64.9303 16.65 63.3103 14.54C60.7403 11.2 57.5803 8.57998 53.7903 6.72998C51.6203 5.66998 49.3503 4.91998 46.9803 4.46998C45.0503 4.09998 43.0903 3.96998 41.1303 4.05998C37.8903 4.19998 34.7703 4.87998 31.8003 6.18998C27.5203 8.06998 23.9203 10.82 21.0703 14.54C18.8703 17.41 17.2803 20.6 16.3403 24.09C16.0303 25.22 15.8003 26.37 15.6603 27.53C15.4703 29.05 15.3903 30.58 15.4503 32.11C15.4803 32.87 15.5203 33.63 15.6003 34.39C15.7803 36.09 16.1403 37.76 16.6703 39.38C18.1403 43.87 20.5903 47.75 24.0303 50.99C26.3603 53.18 29.0003 54.91 31.9503 56.15C33.2103 56.68 34.5203 57.07 35.8403 57.42C35.9303 57.44 36.0303 57.47 36.1203 57.5C36.1203 57.5 36.1403 57.51 36.1603 57.53C36.1803 57.63 36.1203 57.72 36.0803 57.82C35.7303 58.78 35.3003 59.71 34.7903 60.6C34.1403 61.73 33.4103 62.79 32.5303 63.76C32.1903 64.14 31.8203 64.49 31.4303 64.81C31.3903 64.84 31.3603 64.87 31.3403 64.92C31.8003 64.82 32.2403 64.67 32.6903 64.55C33.1403 64.44 33.5903 64.31 34.0503 64.2C34.5003 64.09 34.9603 63.99 35.4203 63.89C35.8903 63.79 36.3603 63.71 36.8303 63.63C37.2903 63.55 37.7503 63.48 38.2203 63.42C38.6803 63.36 39.1503 63.31 39.6103 63.27C40.0803 63.23 40.5403 63.19 41.0103 63.16C41.4803 63.13 41.9403 63.11 42.4103 63.09C42.4603 63 42.3903 62.94 42.3603 62.87C42.0503 62.28 41.7703 61.69 41.5103 61.07C40.9303 59.69 40.5203 58.26 40.2303 56.79C40.1303 56.25 40.0303 55.72 39.9803 55.17C39.9803 55.13 39.9603 55.1 39.9503 55.04C39.8203 55.02 39.6803 55 39.5503 54.98C36.2803 54.59 33.2003 53.58 30.3503 51.93C28.4803 50.85 26.8103 49.51 25.3203 47.96C22.3803 44.91 20.4103 41.32 19.3403 37.22C19.0503 36.1 18.8403 34.96 18.7103 33.8C18.5603 32.47 18.5203 31.13 18.6003 29.8C18.8503 25.66 20.0603 21.82 22.2703 18.31C24.5503 14.69 27.5803 11.88 31.3503 9.85998C33.4303 8.74998 35.6303 7.97998 37.9403 7.53998C39.6003 7.21998 41.2803 7.08998 42.9703 7.14998C43.9003 7.17998 44.8203 7.25998 45.7403 7.39998C48.2903 7.78998 50.7203 8.56998 53.0203 9.75998C53.8503 10.19 54.6403 10.7 55.4203 11.22C57.8003 12.81 59.7603 14.83 61.4003 17.17C62.4003 18.6 63.2503 20.1 63.9503 21.7C64.4803 22.9 64.8603 24.15 65.0703 25.44C65.2603 26.59 65.3303 27.74 65.2803 28.91C65.2203 30.26 65.0003 31.58 64.5903 32.87C63.9203 34.96 62.7803 36.77 61.2503 38.34C59.9403 39.69 58.4103 40.73 56.7303 41.58C55.5903 42.16 54.4003 42.62 53.1903 43.04C52.1803 43.39 51.1603 43.73 50.1503 44.1C49.0103 44.51 47.9003 44.99 46.8603 45.61C45.5603 46.38 44.4503 47.36 43.6003 48.62C42.9003 49.66 42.3803 50.79 42.0203 52C41.7303 52.98 41.5603 53.97 41.4803 54.99C41.4103 55.91 41.4303 56.82 41.5103 57.74C41.6003 58.68 41.7703 59.61 41.9803 60.53C42.1703 61.35 42.3603 62.16 42.5503 62.98C42.5503 63.01 42.5703 63.03 42.6003 63.09V63.02Z" fill="#5E5E5E"/>
<path d="M57.5703 32.09H57.6803C57.6803 32.09 57.6803 32.07 57.6803 32.05C57.6503 32.06 57.6203 32.08 57.5903 32.09H57.5703Z" fill="#644DF6"/>
<path d="M53.5903 25.37C53.5903 25.37 53.6203 25.37 53.6403 25.37C53.6403 25.37 53.6503 25.37 53.6603 25.35C53.6503 25.35 53.6303 25.33 53.6203 25.34C53.6103 25.34 53.6003 25.37 53.6003 25.38L53.5903 25.37Z" fill="#644DF6"/>
</g>
</g>
<defs>
<clipPath id="clip0_416_4396">
<rect width="114.13" height="113.85" fill="white"/>
</clipPath>
</defs>
</svg>
