<svg width="120" height="120" viewBox="0 0 120 120" fill="none" xmlns="http://www.w3.org/2000/svg">
<path d="M75.6576 27.8271C78.1776 26.7471 82.6176 26.5071 81.3576 27.7071C79.4976 29.4471 77.5176 31.0071 74.8776 31.0071C72.7776 31.0071 72.7176 37.8471 72.7776 39.9471C73.1376 48.1671 65.8176 53.4471 58.1977 51.2871C54.5377 50.2671 52.6778 47.1471 51.1178 43.7271C50.2178 41.7471 50.8776 38.6271 50.3376 36.0471C49.9776 34.2471 49.4978 32.4471 49.0178 30.7071C48.7778 29.7471 45.1177 30.8271 42.5977 25.0071C42.4777 24.6471 42.5377 24.4671 42.9577 24.5271C48.0577 24.8871 47.7577 29.867 48.5977 29.567C48.9577 29.447 48.5976 29.027 48.5376 28.667C48.4176 27.287 47.8777 25.9671 47.6977 24.5871C47.5777 23.8671 48.2975 23.2071 45.7775 22.9071C45.2975 22.8471 44.8176 22.7871 44.3376 22.7271C47.0376 21.4071 47.5175 23.5071 47.8775 21.8871C48.2975 19.9671 46.6777 22.1271 44.0977 20.4471C43.3177 19.9071 40.8577 18.587 42.3577 18.167C47.1577 16.787 48.4777 20.2071 48.8977 19.3071C49.0777 19.0071 49.7377 18.7671 49.1977 18.2271C49.0177 18.1071 48.8975 17.9271 48.7775 17.7471C47.8775 16.4871 46.4375 18.1071 44.5775 15.8271C44.0375 15.2271 43.2575 14.0271 43.3775 13.8471C43.5575 13.5471 43.6777 14.0271 44.7577 14.0871C45.5377 14.0871 45.1177 12.9471 44.9977 12.6471C44.7577 12.1671 45.1776 11.9271 45.5376 12.2871C45.8376 12.5871 46.5577 13.2471 46.8577 12.9471C47.0977 12.7071 46.7976 12.3471 46.4376 11.5071C45.6576 9.76707 50.6376 13.7271 48.8376 16.4871C48.6576 16.7271 48.7777 16.8471 48.9577 17.0271C49.3177 17.3271 49.5575 17.807 49.9775 17.867C50.4575 17.987 50.6377 17.3271 50.9977 17.0871C54.8377 14.2671 54.4178 16.727 52.0178 13.067C49.7978 9.70701 50.9975 1.42703 51.7775 3.76703C52.8575 6.94701 54.2977 7.72707 54.8977 13.6071C55.0777 15.1671 54.7778 14.9871 58.0178 14.3271C56.1578 11.8071 54.7775 9.46707 55.6775 5.32709C55.7375 5.02709 55.8577 4.78706 56.0977 5.14706C56.9377 6.34707 58.0177 7.36707 58.5577 8.80707C59.8777 12.3471 59.0378 14.2671 59.8178 14.2071C60.2976 14.1471 59.8177 12.6471 60.3576 9.64707C60.8976 6.58707 58.7377 9.34707 58.8577 3.82709C58.8577 3.64709 58.7976 3.40706 59.0376 3.34706C59.5176 3.22706 59.4575 4.66703 59.8775 4.66703C60.1176 4.66703 60.1776 4.36706 60.4776 3.64706C60.5976 3.34706 60.8976 3.28706 61.0176 3.64706C61.1976 4.06706 61.1976 4.78706 61.7976 4.24706C62.5176 3.58706 62.4576 2.92706 62.8176 3.04706C63.1176 3.16706 62.9376 5.62709 62.2176 7.12707C61.6176 8.44707 60.9576 7.54707 61.0176 8.68707C61.1376 13.3071 59.8775 14.507 61.3776 13.967C61.8576 13.787 62.5176 13.7271 62.8776 13.4271C63.2976 13.0671 62.8176 12.4671 62.8176 11.9271C62.9976 7.78707 66.6576 5.68708 67.3176 3.58708C67.6176 2.68708 70.1376 7.00701 66.3576 11.867C67.1976 11.687 68.0376 11.3871 68.9376 11.3271C70.6776 11.2071 69.9576 11.0271 69.8376 10.1271C69.7176 8.98707 70.8576 2.86709 71.8176 4.72709C74.7576 10.4271 70.9176 11.5671 72.3576 11.7471C74.2776 11.9871 75.4176 13.2471 76.9176 13.7871C76.9176 12.8871 77.0976 12.0471 76.9776 11.1471C76.7976 10.1271 76.1376 11.567 75.0576 8.86701C74.8776 8.44701 74.5776 7.60707 74.9976 7.42707C75.5976 7.18707 75.4776 8.56707 76.0176 8.44707C76.6176 8.32707 76.0776 7.06701 76.7376 7.06701C77.2176 7.06701 77.0376 7.54701 77.1576 7.96701C77.2176 8.20701 77.4576 8.32701 77.6376 7.96701C77.9376 7.36701 77.8776 7.18707 78.1176 7.18707C78.8976 7.24707 78.7176 9.64707 77.6376 10.4871C77.0976 10.9071 77.8176 11.0871 77.5176 14.2071C77.4576 15.0471 79.3176 15.947 79.1976 20.567C79.9176 19.847 80.3976 19.007 80.9376 18.167C81.0576 17.987 80.9976 17.8071 80.8776 17.6271C79.5576 15.7071 81.8376 11.9871 82.3776 12.3471C82.7376 12.5871 81.7176 13.9671 82.0776 14.3271C82.3776 14.6271 83.0976 13.9671 83.3376 13.5471C83.6376 13.1271 84.1176 13.2471 83.9376 13.9071C83.0376 16.8471 85.1976 14.6271 85.4976 15.0471C85.7976 15.4671 84.1776 17.5071 83.2776 18.0471C81.8976 18.8271 81.6576 18.0471 81.2976 18.7071C80.5176 20.1471 79.6176 21.467 78.4776 22.667C77.7576 23.387 77.5776 24.5271 76.9776 25.4271C78.3576 24.9471 79.6776 24.2271 80.8776 23.2071C80.7576 23.9271 80.3376 24.2871 79.9176 24.6471C76.9176 27.1071 76.0776 25.6671 75.3576 27.6471C75.4776 27.8871 75.4776 27.8871 75.6576 27.8271ZM69.1776 22.667C66.4176 21.047 63.4776 20.0871 60.2376 20.6271C54.9576 21.4671 50.6978 23.8071 51.1178 29.1471C51.4778 33.1671 51.7177 36.0471 53.9977 38.3871C54.2977 38.6871 54.5975 39.107 55.0775 38.867C56.5175 38.147 57.8376 38.5071 59.0376 39.4071C61.3776 41.0271 62.3976 40.2471 66.5376 38.9871C69.3576 38.1471 71.0376 36.2871 71.3376 33.3471C72.1776 25.6071 71.9376 24.227 69.1776 22.667ZM61.3776 43.3071C60.9576 42.8871 58.9176 43.9671 58.1376 40.7871C58.0176 40.4271 58.0777 40.007 57.6577 40.067C56.9977 40.187 57.3577 41.8071 57.5977 42.4071C58.2577 43.8471 60.5376 44.3271 61.3776 43.3071ZM54.3577 14.9271C53.2777 12.1071 52.6177 9.28707 51.8977 6.52707C52.1377 10.1271 53.3977 14.3871 54.3577 14.9271ZM66.9576 5.62709C65.9376 8.68707 62.8176 11.9271 63.8376 13.2471C64.7376 10.0071 67.3776 7.42707 66.9576 5.62709ZM82.0776 16.067C81.8376 16.187 81.4176 16.247 81.4176 16.667C81.4176 17.027 81.5976 17.2671 82.0176 17.3271C82.7976 17.3871 82.7976 16.247 82.0776 16.067ZM60.6576 7.06701C61.4976 7.00701 61.3776 5.98709 60.7176 5.92709C60.0576 5.86709 59.9377 6.88701 60.6576 7.06701ZM47.7577 14.867C47.0377 14.927 47.2775 15.9471 47.8775 15.9471C48.4775 16.0071 48.4777 15.047 47.7577 14.867ZM57.5376 49.367C58.1376 49.187 57.8976 48.5271 57.5376 48.5871C56.9976 48.5871 56.8776 49.307 57.5376 49.367ZM51.2376 20.5071C50.9976 19.9071 50.4578 20.147 50.5178 20.567C50.5778 21.047 51.1776 20.9871 51.2376 20.5071ZM59.0376 49.1271C58.9176 48.6471 58.2578 48.7071 58.3178 49.1871C58.3178 49.6671 58.9176 49.6071 59.0376 49.1271ZM73.7976 14.0271C73.7976 13.6071 73.0776 13.5471 73.0176 14.0271C73.0176 14.5671 73.7976 14.5071 73.7976 14.0271ZM70.9176 41.4471C70.8576 40.9671 70.2576 40.9671 70.1976 41.4471C70.1376 41.9271 70.8576 41.9271 70.9176 41.4471ZM58.8577 48.1071C58.8577 47.6271 58.1377 47.747 58.1977 48.167C58.1977 48.527 58.7977 48.6471 58.8577 48.1071ZM69.8976 40.8471C69.7776 40.4271 69.1176 40.3671 69.1776 40.8471C69.1776 41.3871 69.8376 41.2671 69.8976 40.8471ZM73.3776 12.5871C72.8976 12.6471 72.9576 13.1871 73.3776 13.2471C73.8576 13.2471 73.8576 12.6471 73.3776 12.5871ZM50.0977 19.9071C50.0977 19.4871 49.4376 19.487 49.4376 19.967C49.4376 20.327 50.0377 20.4471 50.0977 19.9071ZM50.9977 19.3071C50.9977 18.8871 50.3976 18.8871 50.3376 19.3071C50.3376 19.6071 50.8177 19.7871 50.9977 19.3071ZM72.4176 13.367C71.9376 13.487 72.0576 13.967 72.4176 13.967C72.8376 13.967 72.8976 13.427 72.4176 13.367ZM70.7976 40.3071C70.6176 39.8871 70.1976 40.007 70.2576 40.367C70.2576 40.667 70.7376 40.7271 70.7976 40.3071Z" fill="#644DF6"/>
<path d="M72.8976 60.3468C67.7976 59.567 67.6176 60.4068 67.4376 59.507C66.0576 51.227 67.4976 48.347 67.9776 54.767C68.2776 58.907 67.7976 59.147 68.7576 59.207C84.3576 59.627 102.898 71.7468 104.218 90.3468C105.838 112.967 76.9176 121.787 63.3576 104.507C62.7576 103.727 62.7576 103.727 63.4176 102.827C67.3776 107.927 71.3376 111.707 78.9576 112.307C111.598 115.007 112.498 69.5868 74.0976 60.5868C73.7376 60.5268 73.5576 60.5868 73.3776 60.8868C69.9576 68.1468 60.2376 68.5068 53.8774 65.2668C48.2974 62.4468 49.3776 59.327 48.1176 59.627C12.8976 67.3068 6.95761 105.527 29.2176 113.687C55.6776 123.407 61.7976 97.8468 64.0176 99.1668C64.6776 99.5868 60.2376 106.427 57.1176 109.787C50.0976 117.287 40.3775 118.427 30.2975 115.307C13.4975 110.087 9.35749 87.8868 24.2975 71.6268C30.8375 64.4868 40.9775 59.687 49.7975 58.427C54.1175 57.827 54.5974 58.847 54.7774 57.647C54.7774 57.647 55.4974 51.827 55.6774 51.767C56.2774 51.707 56.2174 56.147 55.4374 58.607C55.1374 59.567 54.7775 58.487 50.1575 59.207C49.4375 59.327 49.4975 59.327 49.7975 59.987C53.2775 66.7668 67.6776 69.4668 72.8976 60.3468Z" fill="#252525"/>
<path d="M83.5776 51.5871C81.4176 56.7471 82.1976 55.1271 79.5576 59.3271C79.3176 59.6871 79.0776 59.5671 78.7776 59.4471C78.4176 59.3271 78.5376 59.1471 78.5976 58.8471C79.9776 53.5671 80.6376 51.3471 84.1776 47.5671C84.7776 46.9071 84.9576 48.8871 85.0776 49.6071C86.5776 57.8271 78.4176 61.4868 80.0376 59.2671C81.5976 57.2271 83.4576 54.1671 83.5776 51.5871Z" fill="#644DF6"/>
<path d="M26.2774 94.6668C27.5374 93.0468 35.6376 91.1868 37.9176 90.8868C38.3976 90.8268 38.4575 90.6468 38.4575 90.2268C38.2175 86.0268 37.0775 82.0068 35.9975 77.8668C36.5375 78.3468 36.7776 78.8268 37.0176 79.3668C40.5576 88.3068 38.4575 90.7668 39.8375 90.6468C42.6575 90.2868 54.1175 89.9868 53.9375 91.3068C53.6975 92.5668 47.3374 88.7868 26.2774 94.6668Z" fill="#252525"/>
<path d="M73.9176 89.4468C74.0376 90.5868 70.7976 95.1468 65.6376 97.0668C59.9374 99.2268 54.7174 94.9668 55.4374 90.0468C56.4574 82.9068 63.8376 80.0268 61.2576 82.3068C59.7575 83.6268 58.2575 85.0068 57.3575 86.8668C54.8975 92.0268 57.6575 96.2268 62.1576 96.4668C67.4376 96.7668 70.9176 91.8468 73.9176 89.4468Z" fill="#252525"/>
<path d="M106.558 70.1268C106.978 75.1068 105.898 77.5669 103.438 79.8469C102.958 80.3269 103.138 79.9668 101.758 76.7868C101.338 75.8868 101.937 72.0469 105.177 69.3469C106.797 68.0269 106.558 69.1068 106.558 70.1268Z" fill="#644DF6"/>
<path d="M25.0177 53.4471C28.3177 54.3471 30.7177 55.7871 32.5177 59.3871C33.6577 61.6668 34.0774 61.7868 33.7774 62.0868C32.0974 63.5868 26.8774 59.6871 24.4774 53.9871C24.3574 53.6271 24.4177 53.3871 25.0177 53.4471Z" fill="#644DF6"/>
<path d="M16.0773 80.4468C14.8173 84.7668 14.9975 84.4668 14.4575 84.1668C10.6175 81.7668 10.0775 76.7868 9.05749 74.8668C8.03749 73.0668 15.0573 76.2468 16.0773 80.4468Z" fill="#644DF6"/>
<path d="M81.8376 72.8868C85.7376 72.9468 85.3176 77.6268 82.7376 80.6268C81.7776 81.7068 85.0176 84.4668 83.9376 85.1268C83.4576 85.4268 83.1576 84.9468 82.9176 84.5868C81.4176 82.4268 81.5376 82.0068 80.9976 82.6068C78.5376 85.3068 78.4176 85.0668 78.1776 84.8868C77.5176 84.4068 79.5576 82.3668 80.0976 81.8268C81.4176 80.4468 79.7976 80.4468 79.0176 76.9068C78.5976 74.7468 79.7976 73.0068 81.8376 72.8868ZM83.5176 75.7668C83.6376 73.1868 79.4376 73.7268 80.3376 76.7268C80.6376 77.6868 81.0576 78.6468 81.5376 79.5468C81.7176 79.9068 81.8976 79.8468 82.0776 79.5468C82.9176 78.4668 83.3976 77.2068 83.5176 75.7668Z" fill="#644DF6"/>
<path d="M110.638 93.4668C109.798 97.5468 110.218 99.5268 106.138 102.107C104.998 102.827 103.078 103.547 102.898 103.367C102.658 103.187 102.958 103.367 105.358 97.6068C106.198 95.5668 108.418 94.3668 109.978 93.2868C110.218 93.1068 110.638 93.0468 110.638 93.4668Z" fill="#644DF6"/>
<path d="M10.7373 99.1068C14.7573 104.267 15.2372 102.947 16.0772 104.507C16.6172 105.527 16.5574 105.467 16.5574 105.587C15.6574 105.647 8.75742 102.707 8.15742 94.9668C8.09742 94.4268 8.57748 94.5468 8.81748 94.7268C14.3975 98.5068 14.3374 100.007 15.3574 102.947C13.1974 101.687 9.29748 97.1868 10.6175 98.8668C10.6175 98.9268 10.6173 99.0468 10.7373 99.1068Z" fill="#644DF6"/>
<path d="M97.7976 71.3868C97.6176 71.7468 97.5576 71.6868 97.3176 71.5068C96.1776 70.6068 96.5376 69.4668 96.7776 68.3868C97.2576 66.3468 98.1576 64.5468 99.6576 62.9868C100.078 62.5668 100.318 62.6268 100.498 63.1668C101.878 66.8268 101.458 70.3068 99.6576 73.7268C99.4176 74.1468 99.3576 74.0868 99.0576 73.7868C97.0176 71.6268 100.378 69.8268 99.8376 64.7868C99.5376 64.7268 99.2976 67.8468 97.7976 71.3868Z" fill="#644DF6"/>
<path d="M105.478 93.9468C105.238 92.9268 105.478 92.5668 107.098 88.5468C107.218 88.1868 107.158 88.0068 106.858 87.7668C104.098 85.6668 105.838 80.3868 107.038 83.5668C107.398 84.5868 108.058 83.4468 108.418 82.9668C108.778 82.4868 109.318 82.7268 109.378 83.1468C109.498 84.1068 110.038 84.5868 110.938 83.6868C111.178 83.4468 111.298 82.9068 111.778 83.2068C112.618 83.6868 111.118 88.5468 108.838 88.3068C107.098 88.1268 108.598 90.2868 105.898 93.5868C105.838 93.7668 105.718 93.9468 105.478 93.9468ZM108.238 85.8468C107.218 85.8468 107.338 87.1668 108.178 87.1668C109.018 87.1068 109.138 85.9668 108.238 85.8468Z" fill="#644DF6"/>
<path d="M20.8177 73.2468C20.3377 69.4668 22.6175 66.4068 21.5975 65.9868C19.3175 65.0868 19.0175 61.3068 19.7375 61.1868C20.1575 61.1268 20.2176 62.5668 21.0576 62.4468C21.5976 62.3268 21.5975 61.7868 21.7775 61.1868C21.9575 60.5868 22.6175 60.6468 22.7375 61.2468C22.8575 61.6668 22.7975 62.2668 23.3375 62.3268C24.1175 62.4468 24.4175 60.5868 25.1375 60.7068C25.6175 60.8268 25.5576 61.3668 25.5576 61.7868C25.7976 66.4068 23.2775 64.9668 22.7375 67.4268C22.4375 68.8068 22.1977 70.1268 22.0177 71.5668C21.8977 72.2868 21.1777 72.6468 20.8177 73.2468ZM22.9177 64.3668C22.7377 63.4668 21.8375 63.6468 21.8375 64.3068C21.8375 65.1468 22.8577 64.9668 22.9177 64.3668Z" fill="#644DF6"/>
<path d="M18.1775 77.3268C17.5775 74.9868 17.3975 72.5868 16.9775 70.2468C16.4375 74.2068 18.6575 78.5868 17.2775 78.8868C16.9775 78.9468 16.9177 78.4668 16.7977 78.2268C14.5777 74.2068 15.0577 71.0868 16.2577 67.1868C16.3777 66.8268 16.6176 66.8268 16.7376 67.1268C17.5176 68.7468 20.9975 73.6068 18.1775 77.3268Z" fill="#644DF6"/>
<path d="M90.2976 55.607C90.2976 58.247 89.2176 60.2868 87.1776 61.9668C86.4576 62.5668 85.9176 62.5068 85.1976 62.1468C84.6576 61.8468 84.4776 61.6068 84.5976 60.9468C84.8976 58.7871 86.0376 57.1671 87.5976 55.7871C90.6576 53.0271 90.2976 53.807 90.2976 55.607Z" fill="#644DF6"/>
<path d="M43.4375 57.1071C43.7375 58.1271 43.0175 58.5471 41.8775 58.8471C40.3175 59.3271 40.2575 59.387 39.8375 57.767C39.1775 55.367 39.4176 53.0271 39.8976 50.6271C40.1976 49.3071 43.4375 52.9071 43.4375 57.1071Z" fill="#644DF6"/>
<path d="M53.2774 55.907C53.3974 56.807 52.7976 56.327 50.6976 56.747C49.3776 57.047 48.5376 52.487 48.3576 51.227C48.2376 50.507 48.2374 49.787 48.1774 49.067C48.1174 46.727 52.4974 51.107 53.2774 55.907Z" fill="#644DF6"/>
<path d="M13.9178 96.5268C12.8978 96.1668 12.0577 92.8068 11.6977 91.7268C11.3377 90.5868 10.4375 92.5068 8.57754 89.3868C8.03754 88.4268 7.79772 86.8668 8.15772 86.7468C8.33772 86.6868 8.69772 87.3468 9.05772 87.7068C9.53772 88.1268 10.0775 88.0068 10.0775 86.8068C10.0775 86.5668 9.89772 86.2068 10.2577 86.1468C10.5577 86.0868 10.6777 86.3868 10.7977 86.5668C11.2177 87.1668 11.9976 87.1068 12.2376 85.9668C12.2976 85.6068 12.4778 85.6068 12.7178 85.8468C13.6778 87.1668 14.0975 88.4268 13.3775 90.0468C12.9575 91.0068 12.1177 90.5868 12.6577 91.8468C14.1577 95.0868 13.5578 95.9868 13.9178 96.5268ZM11.9376 89.2668C11.9376 88.3668 10.6177 88.3668 10.5577 89.3268C10.4977 90.2268 11.8776 90.2868 11.9376 89.2668Z" fill="#644DF6"/>
<path d="M76.2576 53.0271C76.1376 53.8071 75.8976 57.8871 75.8376 57.9471C75.8376 58.1871 76.0176 58.667 75.5376 58.607C75.1176 58.547 74.5776 58.667 74.4576 58.007C73.9776 55.367 74.6376 52.9671 76.1376 50.7471C77.1576 49.3071 78.7176 55.0071 77.3976 58.5471C77.2776 58.9071 77.0976 58.9671 76.7376 58.8471C76.3776 58.7871 76.3176 58.607 76.3776 58.307C76.4976 56.927 76.8576 54.2271 76.2576 53.0271Z" fill="#644DF6"/>
<path d="M75.8376 90.5268C75.4776 90.5268 74.9976 90.6468 74.9376 90.1668C74.8776 88.7868 85.7976 89.2068 93.9576 93.4668C93.5376 94.3668 85.4976 90.2268 75.8376 90.5268Z" fill="#252525"/>
<path d="M36.5975 52.487C36.1775 55.727 35.0974 54.767 35.2774 55.667C36.1774 60.0468 37.4976 60.4068 36.6576 60.8268C35.8176 61.2468 34.9175 56.987 34.7375 56.207C34.4975 54.767 33.5974 56.267 32.2774 52.907C31.6774 51.347 32.0375 50.567 32.9975 51.947C33.2375 52.307 33.5375 52.367 33.5975 51.767C33.7175 51.107 33.5375 50.507 33.8975 50.447C34.2575 50.387 34.0777 50.687 34.6177 51.587C34.9777 52.247 35.4576 51.347 35.4576 50.567C35.4576 49.907 36.1174 49.907 36.1774 50.507C36.4174 51.167 36.5375 51.827 36.5975 52.487ZM35.0975 53.687C35.0975 52.847 34.1374 53.027 34.0774 53.807C34.0774 54.527 35.0975 54.467 35.0975 53.687Z" fill="#644DF6"/>
<path d="M96.4776 60.7068C95.9376 62.3268 95.5176 64.3068 92.7576 66.2268C92.1576 66.6468 91.9776 66.2268 90.5976 65.2068C90.3576 65.0268 90.3576 64.9068 90.4776 64.6668C91.7976 62.5668 93.4776 60.9468 95.9376 60.2268C96.1776 60.1668 96.4776 59.987 96.4776 60.7068Z" fill="#644DF6"/>
<path d="M26.6975 61.8468C26.6975 61.3068 26.9375 61.0668 27.5375 61.2468C28.3775 61.5468 29.2775 61.7268 29.9975 62.3268C31.0775 63.2268 30.9574 63.5868 30.1774 64.0668C28.5574 65.1468 28.8576 65.5068 28.3176 65.1468C27.1176 64.3668 26.8175 63.1668 26.6975 61.8468Z" fill="#644DF6"/>
<path d="M73.7376 33.5871C74.5776 31.1871 79.0776 33.107 77.2176 36.467C76.3776 37.907 74.6976 38.2671 73.4376 40.1271C73.2576 38.1471 75.2976 37.3671 76.0176 36.6471C77.7576 34.9671 76.7976 32.3271 73.7376 33.5871Z" fill="#252525"/>
<path d="M49.4974 34.3071C48.9574 34.2471 48.4774 34.1271 47.9974 34.2471C46.9174 34.4871 46.4374 35.4471 46.7974 36.5271C47.4574 38.5671 48.9574 37.6671 49.8574 40.4871C49.7374 40.5471 49.6772 40.5471 49.6772 40.5471C48.9572 39.7071 48.0575 39.1671 47.2175 38.5071C43.8575 35.8071 47.6374 31.9671 49.4974 34.3071Z" fill="#252525"/>
<path d="M73.6776 83.5068C72.2376 84.4668 73.4376 83.5068 66.4176 87.8268C66.1776 87.9468 65.8776 88.3068 65.6376 87.9468C64.7976 86.8668 72.7776 82.9668 73.6776 83.5068Z" fill="#252525"/>
<path d="M70.5576 81.6469C63.8976 85.1869 63.8376 85.2469 63.7776 85.2469C62.9976 85.6669 62.8176 84.9468 63.2976 84.5868C66.1176 82.5468 69.9576 80.9869 70.5576 81.6469Z" fill="#252525"/>
<path d="M75.7776 86.6868C73.6176 87.8268 74.1576 87.2868 68.4576 90.4068C68.2176 90.5268 67.9176 90.7668 67.7376 90.4668C67.1376 89.4468 72.8376 86.8668 75.7776 86.6868Z" fill="#252525"/>
<path d="M61.5576 76.0068C63.3576 75.6468 66.9576 81.7068 65.5176 82.0668C64.6776 82.2468 65.0976 80.4468 62.6976 77.6268C62.2776 77.1468 61.9176 76.6668 61.5576 76.0068Z" fill="#252525"/>
<path d="M51.1177 83.1469C52.7377 85.0669 54.8977 86.1468 55.3177 86.5668C55.8577 86.9868 55.4977 87.5268 54.9577 87.2868C52.4977 86.2068 50.8177 83.7469 51.1177 83.1469Z" fill="#252525"/>
<path d="M44.8175 50.567C46.5575 56.987 47.6975 56.9871 47.1575 57.2871C46.8575 57.4671 46.6173 57.4071 46.3773 56.9871C45.7173 55.6071 44.2175 51.647 44.8175 50.567Z" fill="#644DF6"/>
<path d="M52.3176 79.9068C56.2176 84.1068 56.6975 83.5668 56.3975 84.1068C55.9175 85.0068 52.4976 81.9468 52.3176 79.9068Z" fill="#252525"/>
<path d="M54.6575 77.8068C55.8575 79.1868 56.5775 80.1468 58.0175 81.5268C58.4975 82.0068 58.1375 82.4268 57.6575 82.1268C55.7975 80.9268 54.4175 78.5868 54.6575 77.8068Z" fill="#252525"/>
<path d="M71.0376 52.7271C71.6976 53.9271 71.3976 55.7271 71.2176 57.2271C71.1576 57.5871 71.0376 57.767 70.6176 57.707C70.1376 57.647 70.3176 57.407 70.3176 57.107C71.0376 52.727 70.8576 53.3871 71.0376 52.7271Z" fill="#644DF6"/>
<path d="M57.5375 76.4868C61.0176 80.3268 61.0776 80.2668 60.7776 80.5068C60.1176 81.1668 56.9975 76.7868 57.5375 76.4868Z" fill="#252525"/>
<path d="M70.2576 49.367C70.9776 49.487 71.1576 50.7471 70.3776 50.6871C69.8976 50.6871 69.7776 50.267 69.7176 49.907C69.7176 49.547 70.0176 49.487 70.2576 49.367Z" fill="#644DF6"/>
<path d="M82.0176 21.707C82.7976 21.647 82.7976 22.847 82.0176 22.847C81.2976 22.847 81.2976 21.707 82.0176 21.707Z" fill="#644DF6"/>
<path d="M13.0176 73.3068C12.9576 74.0868 11.9375 74.0268 11.9375 73.3068C11.9375 72.7068 12.8976 72.4668 13.0176 73.3068Z" fill="#644DF6"/>
<path d="M14.2175 71.8668C14.1575 72.5868 13.1374 72.5268 13.1974 71.8068C13.3174 71.0868 14.2775 71.1468 14.2175 71.8668Z" fill="#644DF6"/>
<path d="M44.2176 49.487C43.4376 49.367 43.6174 48.407 44.2774 48.407C44.8174 48.467 44.9376 49.307 44.2176 49.487Z" fill="#644DF6"/>
<path d="M12.6575 71.7468C12.5975 72.3468 11.6375 72.3468 11.6375 71.6268C11.6975 71.0268 12.7175 70.8468 12.6575 71.7468Z" fill="#644DF6"/>
<path d="M71.9376 51.287C71.7576 52.007 70.9176 52.007 70.9176 51.407C70.9776 50.867 71.6376 50.567 71.9376 51.287Z" fill="#644DF6"/>
<path d="M99.0576 59.867C99.7776 59.867 99.5376 60.8268 99.0576 60.8268C98.3976 60.7668 98.3376 59.867 99.0576 59.867Z" fill="#644DF6"/>
<path d="M99.3576 61.8468C99.2976 62.5668 98.4576 62.5068 98.4576 61.8468C98.5176 61.3068 99.2976 61.3068 99.3576 61.8468Z" fill="#644DF6"/>
<path d="M43.7975 50.6271C43.1375 50.5671 43.3175 49.7271 43.7975 49.7271C44.5175 49.7871 44.3975 50.6271 43.7975 50.6271Z" fill="#644DF6"/>
<path d="M80.8176 22.967C80.0976 22.967 80.2776 22.0671 80.8176 22.1271C81.4776 22.2471 81.3576 23.027 80.8176 22.967Z" fill="#644DF6"/>
<path d="M98.3376 61.1269C98.2776 61.3669 98.2776 61.6069 97.9176 61.5469C97.6176 61.5469 97.4376 61.3669 97.4376 61.0669C97.4976 60.5269 98.2776 60.4069 98.3376 61.1269Z" fill="#644DF6"/>
<path d="M45.7175 49.787C45.7175 50.327 44.8174 50.3271 44.8774 49.7271C44.9374 49.1871 45.6575 49.187 45.7175 49.787Z" fill="#644DF6"/>
<path d="M81.7176 23.3871C82.4376 23.5671 82.1376 24.167 81.7176 24.167C81.3576 24.227 81.0576 23.6271 81.7176 23.3871Z" fill="#644DF6"/>
<path d="M70.4976 51.7071C69.5976 52.4271 69.4776 51.1671 70.0176 51.2271C70.3176 51.2271 70.3776 51.5271 70.4976 51.7071Z" fill="#644DF6"/>
<path d="M63.2976 37.607C63.2976 39.587 60.7776 39.767 60.6576 39.047C60.5976 38.807 60.8376 38.807 61.0176 38.747C62.5776 38.147 62.5776 38.147 62.3976 36.467C62.3376 35.987 61.6176 28.787 62.3976 28.787C62.6976 28.787 62.5776 29.327 62.5776 29.627C62.6376 32.267 62.9976 34.607 63.2976 37.607Z" fill="#252525"/>
<path d="M70.377 26.3871C68.697 26.2071 67.4376 25.1271 65.3976 25.8471C65.0976 25.9671 64.6776 26.147 64.4976 25.667C64.0176 24.527 68.637 23.1471 70.377 26.3871Z" fill="#252525"/>
<path d="M52.5575 27.6471C52.1975 26.6271 54.5376 24.7071 56.8176 25.4271C57.2376 25.5471 57.5974 25.7271 57.4774 26.1471C57.2974 26.8071 56.2775 26.1471 54.6575 26.6271C53.8175 26.8071 53.2775 27.3471 52.5575 27.6471Z" fill="#252525"/>
<path d="M70.4376 32.567C70.4976 33.587 68.8176 31.427 66.4776 32.807C66.2976 32.927 66.0576 33.047 65.8776 32.807C65.3976 32.087 68.2776 30.407 70.0776 31.967C70.2576 32.087 70.3776 32.267 70.4376 32.567Z" fill="#252525"/>
<path d="M57.8375 33.047C57.7775 34.547 56.6374 31.967 54.1774 33.647C53.9374 33.767 53.8174 33.767 53.8774 33.467C54.3574 31.667 57.2375 31.607 57.8375 33.047Z" fill="#252525"/>
</svg>
