<svg width="120" height="120" viewBox="0 0 120 120" fill="none" xmlns="http://www.w3.org/2000/svg">
<path d="M30.9 59.1972C29.9984 59.898 29.2246 60.7493 28.6128 61.7136C25.8372 60.2058 22.5882 60.441 19.518 63.081C15.543 66.5778 16.2474 74.7384 21.8148 75.7512C22.5101 75.8789 23.2188 75.917 23.9238 75.8646C24.0556 75.8627 24.1816 75.81 24.2754 75.7173C24.3692 75.6247 24.4235 75.4993 24.427 75.3676C24.4305 75.2358 24.3829 75.1078 24.2941 75.0103C24.2053 74.9128 24.0823 74.8534 23.9508 74.8446C20.43 74.4144 18.7014 72.2682 18.7374 69.0768C18.7209 68.2055 18.8823 67.3399 19.2117 66.533C19.5411 65.7262 20.0316 64.995 20.6532 64.3842C22.7412 62.5164 25.347 61.7442 27.96 62.787C27.8166 63.0444 27.681 63.2994 27.5622 63.5442C27.4878 63.661 27.4629 63.8026 27.4928 63.9378C27.5228 64.073 27.6053 64.1907 27.7221 64.2651C27.8389 64.3395 27.9805 64.3644 28.1157 64.3344C28.2509 64.3045 28.3686 64.222 28.443 64.1052C28.6038 63.9114 28.8222 63.6474 29.0676 63.3462C29.3053 63.4859 29.5338 63.6408 29.7516 63.81C29.8035 63.8554 29.864 63.8901 29.9295 63.9118C29.995 63.9336 30.0642 63.9421 30.133 63.9368C30.2018 63.9316 30.2689 63.9126 30.3303 63.8811C30.3917 63.8496 30.4462 63.8061 30.4906 63.7533C30.535 63.7005 30.5684 63.6393 30.5889 63.5734C30.6094 63.5075 30.6165 63.4382 30.6099 63.3695C30.6033 63.3008 30.583 63.2341 30.5503 63.1734C30.5176 63.1126 30.4731 63.059 30.4194 63.0156C30.2082 62.8206 29.9916 62.64 29.7708 62.469C30.4494 61.611 31.1838 60.6414 31.6476 59.8992C32.0166 59.3124 31.4658 58.7928 30.9 59.1972Z" fill="#644DF6"/>
<path d="M22.8324 69.2274C23.3161 68.6374 23.859 68.0984 24.4524 67.6188C24.494 67.5633 24.5464 67.5167 24.6064 67.4818C24.6664 67.4469 24.7328 67.4244 24.8017 67.4157C24.8706 67.407 24.9405 67.4122 25.0073 67.4311C25.0741 67.4499 25.1364 67.482 25.1905 67.5254C25.2447 67.5688 25.2896 67.6227 25.3225 67.6838C25.3554 67.7449 25.3757 67.812 25.3822 67.8811C25.3887 67.9502 25.3812 68.0199 25.3602 68.0861C25.3392 68.1522 25.3051 68.2135 25.26 68.2662C24.8276 69.3114 24.2304 70.2805 23.4912 71.1366C23.4043 71.2377 23.2952 71.3173 23.1725 71.3693C23.0498 71.4214 22.9168 71.4444 22.7837 71.4366C22.6506 71.4289 22.5212 71.3905 22.4054 71.3245C22.2896 71.2585 22.1905 71.1667 22.116 71.0562C21.9762 70.8492 21.5886 70.4562 21.195 70.0086C20.5752 69.3354 19.4478 67.8054 20.2002 67.3782C20.7906 67.044 22.3668 68.736 22.8324 69.2274Z" fill="#644DF6"/>
<path d="M14.364 61.5804C14.355 62.193 14.3442 64.4238 14.3436 64.4376C14.2836 65.2776 14.1636 66.546 13.5762 66.5736C12.4242 66.6012 12.6012 61.8426 12.6612 60.6936C12.6732 60.4721 12.7688 60.2634 12.9288 60.1097C13.0887 59.956 13.301 59.8688 13.5228 59.8656C14.673 59.8944 18.8292 59.7792 18.756 60.8256C18.7218 61.3158 18.468 61.3788 15.876 61.5264C15.372 61.56 14.871 61.5672 14.364 61.5804Z" fill="#644DF6"/>
<path d="M87.9918 60.4446C87.9084 60.1344 87.6204 60.2046 87.0438 60.2646C84.7638 60.5412 81.7038 60.9246 79.611 60.021C75.4332 58.317 76.7526 53.4462 77.001 49.2C77.0051 49.1312 76.9956 49.0622 76.973 48.9971C76.9504 48.9319 76.9152 48.8719 76.8693 48.8204C76.8234 48.769 76.7678 48.7271 76.7056 48.6972C76.6435 48.6673 76.5761 48.65 76.5072 48.6462C75.3123 48.5907 74.1152 48.6063 72.9222 48.693C73.7526 45.4752 75.1782 42.066 77.1678 37.0242C77.1849 36.9874 77.1945 36.9476 77.196 36.9071C77.1975 36.8666 77.1909 36.8262 77.1766 36.7882C77.1623 36.7503 77.1406 36.7156 77.1127 36.6862C77.0848 36.6567 77.0513 36.6331 77.0142 36.6168C76.9379 36.5844 76.852 36.583 76.7747 36.6129C76.6974 36.6428 76.6348 36.7017 76.6002 36.777C75.5526 39.0672 73.0698 43.569 71.7342 49.1202C71.716 49.1981 71.7158 49.2792 71.7335 49.3572C71.7512 49.4352 71.7865 49.5082 71.8366 49.5706C71.8868 49.633 71.9504 49.6831 72.0228 49.7173C72.0952 49.7514 72.1744 49.7686 72.2544 49.7676C73.4952 49.7502 74.6058 49.6368 75.906 49.674C75.5916 53.787 74.4444 59.034 79.2372 60.9354C80.1018 61.2356 81.0017 61.4219 81.9144 61.4898C82.0098 63.5358 81.954 65.5698 82.1814 67.8582C82.1902 67.9419 82.2315 68.0187 82.2963 68.0724C82.3611 68.126 82.4444 68.1521 82.5282 68.145C82.5696 68.1419 82.6099 68.1306 82.6468 68.1118C82.6837 68.0929 82.7165 68.0669 82.7433 68.0352C82.7701 68.0035 82.7902 67.9668 82.8027 67.9273C82.8151 67.8877 82.8195 67.8461 82.8156 67.8048C82.7016 65.928 82.8024 63.5778 82.7988 61.5804C84.2953 61.7534 85.8115 61.5702 87.2238 61.0458C87.7056 60.8562 88.071 60.7752 87.9918 60.4446Z" fill="#191919"/>
<path d="M81.72 53.46C81.88 53.7671 82.11 54.0323 82.3915 54.234C82.6729 54.4358 82.9978 54.5686 83.34 54.6216C84.9438 54.8784 85.8 53.5668 86.1102 51.9648C86.1865 51.4539 86.2334 50.9391 86.2506 50.4228C86.2665 50.3405 86.2491 50.2552 86.2021 50.1857C86.1551 50.1162 86.0824 50.0682 86.0001 50.0523C85.9177 50.0364 85.8324 50.0539 85.763 50.1008C85.6935 50.1478 85.6455 50.2205 85.6296 50.3028C85.0368 52.1814 84.8946 52.5888 84.6486 52.98C84.5327 53.2301 84.3268 53.4274 84.0719 53.5326C83.8171 53.6378 83.532 53.6432 83.2734 53.5476C82.8923 53.4447 82.5297 53.2827 82.1988 53.0676C82.1444 53.0123 82.0713 52.9793 81.9939 52.9752C81.9164 52.971 81.8402 52.996 81.7802 53.0452C81.7202 53.0943 81.6808 53.1642 81.6696 53.2409C81.6585 53.3177 81.6765 53.3958 81.72 53.46Z" fill="#191919"/>
<path d="M80.256 35.1342C80.9238 34.3842 81.8856 34.6008 82.7328 35.1342C83.8536 35.8272 83.8578 36.2928 84.2214 36.0558C84.6858 35.76 83.7414 34.6566 83.2998 34.3266C81.672 33.0288 79.6998 33.6144 79.2144 34.9806C79.0524 35.418 78.9516 35.8266 79.2414 35.9352C79.5744 36.0744 79.6044 35.7042 80.256 35.1342Z" fill="#191919"/>
<path d="M80.2416 40.1244C80.2416 40.6166 80.3604 41.0886 80.572 41.4367C80.7835 41.7847 81.0704 41.9802 81.3696 41.9802C81.6688 41.9802 81.9557 41.7847 82.1672 41.4367C82.3788 41.0886 82.4976 40.6166 82.4976 40.1244C82.4976 39.6322 82.3788 39.1602 82.1672 38.8122C81.9557 38.4641 81.6688 38.2686 81.3696 38.2686C81.0704 38.2686 80.7835 38.4641 80.572 38.8122C80.3604 39.1602 80.2416 39.6322 80.2416 40.1244Z" fill="#191919"/>
<path d="M95.7564 25.6596C93.9911 25.3079 92.1797 25.2515 90.396 25.4928C89.856 25.1256 83.0466 20.6928 80.8698 19.2312C78.1596 17.412 75.744 15.3216 72.579 16.5882C66.933 18.846 64.5768 28.074 70.5696 31.2942C72.6822 32.4342 75.0378 32.217 77.4186 32.1816C80.6202 32.1168 83.625 32.0268 86.8446 31.7076C86.9887 33.9726 87.861 36.1304 89.3315 37.8591C90.8021 39.5879 92.792 40.795 95.0046 41.3004C96.1878 41.6004 95.7678 41.355 96.3966 41.325C97.6284 41.265 99.5928 41.1972 100.52 42.009C101.094 42.5716 101.451 43.318 101.529 44.1174C101.607 44.9169 101.401 45.7183 100.948 46.3812C100.437 47.026 99.7829 47.5436 99.0382 47.8934C98.2935 48.2432 97.4778 48.4156 96.6552 48.3972C96.5673 48.3935 96.4798 48.4117 96.4006 48.4501C96.3214 48.4885 96.2529 48.546 96.2013 48.6173C96.1498 48.6886 96.1167 48.7716 96.105 48.8588C96.0933 48.946 96.1034 49.0348 96.1344 49.1172C96.3573 49.6915 96.5403 50.2805 96.6822 50.88C96.756 51.18 97.8516 56.1216 97.9572 56.6472C98.461 58.9566 98.8 61.2989 98.9718 63.6564C98.9754 63.7395 99.0118 63.8179 99.0732 63.8741C99.1345 63.9304 99.2157 63.96 99.2988 63.9564C99.3401 63.9552 99.3808 63.9457 99.4185 63.9285C99.4561 63.9113 99.4899 63.8867 99.5178 63.8562C99.5458 63.8257 99.5674 63.79 99.5813 63.751C99.5952 63.712 99.6011 63.6707 99.5988 63.6294C99.5582 60.7738 99.2417 57.9287 98.6538 55.134C99.7398 52.4862 101.006 50.2524 101.619 47.214C101.679 47.1396 101.747 47.0706 101.799 46.9938C102.175 46.4408 102.424 45.8117 102.528 45.1513C102.633 44.4909 102.59 43.8156 102.404 43.1736C102.613 42.1788 102.756 41.1712 102.832 40.1574C103.443 33.7836 102 26.9622 95.7564 25.6596ZM74.4402 19.1622C73.5592 19.4105 72.7715 19.9146 72.177 20.6106C71.2983 21.6447 70.6967 22.8851 70.4286 24.2154C70.4265 24.2568 70.4161 24.2974 70.398 24.3347C70.38 24.372 70.3546 24.4053 70.3235 24.4327C70.2923 24.46 70.256 24.4808 70.2166 24.4939C70.1773 24.507 70.1357 24.5121 70.0944 24.5088C70.0116 24.5025 69.9346 24.4641 69.8798 24.4017C69.825 24.3394 69.7967 24.2581 69.801 24.1752C69.7116 21.0858 72.0942 18.5316 74.22 18.1872C74.67 18.1068 75.9744 18.1128 75.9354 18.621C75.906 18.9924 75.6186 18.8046 74.4402 19.1622Z" fill="#191919"/>
<path d="M116.665 102.937L116.614 102.941L116.51 102.541C116.579 102.525 116.639 102.486 116.682 102.431C116.725 102.375 116.747 102.306 116.746 102.236C116.557 87.9084 112.897 72.2004 100.757 64.593L100.391 64.5264C97.4334 65.1048 94.6254 66.462 91.9128 67.6302C88.9344 68.9052 86.0652 70.0746 83.4084 71.4354C82.2336 72.1286 80.972 72.6629 79.6566 73.0242C79.358 73.0941 79.0474 73.0941 78.7488 73.0242C78.597 72.684 79.6524 71.3976 79.8966 71.115C79.9811 71.0195 80.0277 70.8964 80.0276 70.7689C80.0275 70.6415 79.9806 70.5184 79.896 70.4231C79.8113 70.3278 79.6947 70.2668 79.5681 70.2517C79.4415 70.2366 79.3138 70.2683 79.209 70.341C71.8609 75.2801 66.1289 82.2726 62.7276 90.447C62.6889 90.5354 62.6759 90.633 62.69 90.7284C62.7042 90.8239 62.7448 90.9135 62.8074 90.987C64.3087 92.9429 66.067 94.6874 68.0346 96.1734C68.091 96.2128 68.1546 96.2407 68.2218 96.2553C68.289 96.2699 68.3584 96.2711 68.426 96.2587C68.4937 96.2463 68.5582 96.2206 68.6158 96.1831C68.6735 96.1456 68.7231 96.097 68.7618 96.0402C69.7428 94.6506 70.9362 93.3624 71.9466 92.0952C72.0066 92.1552 84.3498 103.139 87.3468 105.459C87.4028 105.503 87.4673 105.534 87.5363 105.552C87.6052 105.569 87.677 105.571 87.747 105.559C91.3866 104.93 95.187 105.161 98.8884 104.978C104.959 104.655 110.537 104.143 116.719 103.55C116.8 103.543 116.875 103.504 116.928 103.441C116.98 103.378 117.006 103.298 116.999 103.216C116.992 103.135 116.953 103.06 116.89 103.007C116.827 102.954 116.747 102.929 116.665 102.936V102.937Z" fill="#644DF6"/>
<path d="M73.7196 89.1654C77.8596 84.1566 79.4796 82.3524 85.8756 75.9546C85.9058 75.9265 85.9302 75.8928 85.9474 75.8553C85.9646 75.8178 85.9742 75.7774 85.9757 75.7361C85.9773 75.6949 85.9707 75.6539 85.9563 75.6152C85.942 75.5765 85.9202 75.5411 85.8921 75.5109C85.8641 75.4807 85.8303 75.4563 85.7928 75.4391C85.7554 75.4219 85.7149 75.4123 85.6737 75.4107C85.6325 75.4092 85.5914 75.4158 85.5527 75.4302C85.5141 75.4445 85.4786 75.4663 85.4484 75.4944C81.4515 78.7417 77.8409 82.4373 74.6874 86.5086C74.037 87.4026 73.653 88.074 73.212 88.8054C73.1653 88.873 73.1469 88.9561 73.1606 89.0371C73.1742 89.1181 73.2189 89.1906 73.2852 89.2392C73.3185 89.263 73.3562 89.2799 73.3961 89.2891C73.436 89.2982 73.4774 89.2994 73.5177 89.2926C73.5581 89.2857 73.5967 89.2709 73.6314 89.2491C73.666 89.2273 73.696 89.1988 73.7196 89.1654Z" fill="#191919"/>
<path d="M32.4738 75.2934C31.6438 77.4587 31.3355 79.789 31.5738 82.0956C32.5002 92.1366 41.7834 102.431 45.5322 107.435C45.5558 107.47 45.5862 107.5 45.6214 107.523C45.6567 107.546 45.6963 107.562 45.7377 107.569C45.7791 107.576 45.8216 107.575 45.8627 107.566C45.9037 107.557 45.9425 107.54 45.9768 107.515C46.011 107.491 46.0401 107.46 46.0621 107.424C46.0842 107.388 46.0989 107.348 46.1053 107.307C46.1118 107.265 46.1098 107.222 46.0996 107.182C46.0894 107.141 46.0711 107.102 46.0458 107.069C43.2726 103.003 40.6842 99.66 38.376 96.1344C34.4262 90.0144 31.0626 82.4856 33.0624 75.4866C33.088 75.4086 33.0816 75.3235 33.0445 75.2502C33.0074 75.1769 32.9427 75.1213 32.8647 75.0957C32.7866 75.0701 32.7016 75.0765 32.6283 75.1136C32.555 75.1507 32.4994 75.2154 32.4738 75.2934Z" fill="#191919"/>
<path d="M71.4138 98.8626C71.2644 98.7654 69.54 97.7352 69.3876 97.6452C70.9938 95.7174 70.9764 95.5014 72.1944 93.8976C72.2443 93.8316 72.2667 93.7488 72.2567 93.6666C72.2467 93.5844 72.2053 93.5094 72.141 93.4572C72.0741 93.4064 71.9901 93.3836 71.9067 93.3936C71.8233 93.4036 71.7471 93.4455 71.694 93.5106C70.788 94.6338 69.4842 96.2706 68.5434 97.2624C63.4983 94.0009 58.8518 90.1609 54.6984 85.8204C54.378 85.4868 52.194 83.343 51.4674 82.5294C51.4127 82.4688 51.3365 82.432 51.2551 82.4268C51.1737 82.4216 51.0934 82.4485 51.0315 82.5017C50.9696 82.5549 50.931 82.6302 50.9239 82.7115C50.9168 82.7928 50.9417 82.8737 50.9934 82.9368C53.3449 86.028 56.0226 88.8569 58.98 91.3746C60.7331 92.9147 62.5648 94.3631 64.4676 95.7138C66.6035 97.1975 68.8136 98.5715 71.0892 99.8304C72.132 100.304 72.4764 100.385 72.6252 100.117C72.8064 99.7854 72.3762 99.5622 71.4138 98.8626Z" fill="#191919"/>
<path d="M34.5276 75.6348C34.2529 76.6451 34.2141 77.7049 34.4142 78.7326C34.4592 78.9402 34.7862 80.274 35.2284 80.1678C35.5242 80.085 35.4684 79.9224 35.3952 78.5922C35.2987 77.6842 35.3324 76.7672 35.4954 75.8688C35.5824 75.0888 35.547 74.829 35.322 74.754C34.98 74.64 34.605 75.4254 34.5276 75.6348Z" fill="#191919"/>
<path d="M36.9978 76.0572C37.0032 76.7586 37.1203 77.4548 37.3446 78.1194C37.4886 78.504 37.8966 79.4538 38.2794 79.2948C38.592 79.1694 38.4696 78.909 38.2992 77.8548C38.16 77.254 38.075 76.642 38.0454 76.026C38.0334 75.6882 38.0454 74.5416 37.6182 74.4906C37.191 74.4396 36.9792 75.4698 36.9978 76.0572Z" fill="#191919"/>
<path d="M50.1786 76.1718C49.017 74.4846 47.1786 75.06 45.8256 74.7702C43.8216 74.3502 42.186 72.0246 42.054 70.0236C42.0457 69.9066 41.9984 69.7958 41.9198 69.7088C41.8412 69.6218 41.7357 69.5637 41.6202 69.5436C40.5762 69.4222 39.5209 69.6396 38.6098 70.1637C37.6988 70.6877 36.9803 71.4907 36.5604 72.4542C36.5256 72.5354 36.5128 72.6244 36.5231 72.7121C36.5335 72.7999 36.5667 72.8834 36.6194 72.9543C36.6721 73.0252 36.7425 73.0811 36.8235 73.1163C36.9045 73.1515 36.9934 73.1649 37.0812 73.155C39.309 72.8796 40.737 75.375 40.5012 77.475C40.4778 77.4942 40.4576 77.5168 40.4412 77.5422C40.326 77.6862 40.4088 78.2094 40.6482 78.2766C40.6813 78.2866 40.716 78.29 40.7504 78.2865C40.7848 78.283 40.8182 78.2727 40.8486 78.2562C42.3564 79.743 42.1194 82.8858 44.7534 83.7762C48.8058 85.122 52.5708 79.6446 50.1786 76.1718Z" fill="#191919"/>
<path d="M30.567 79.074C29.6328 79.104 28.1436 79.1022 27.4164 78.54C25.7466 77.2644 26.8164 73.6644 27.0624 71.718C27.267 70.0608 27.2724 67.6812 28.3644 66.3906C28.7994 65.886 29.6886 65.8152 30.36 65.7636C35.5037 65.5649 40.6525 65.9908 45.6936 67.032C46.9434 67.2684 48.2538 67.6044 48.798 68.7606C49.4508 70.1814 48.8028 72.4512 48.6378 74.061C48.6281 74.1442 48.6518 74.2278 48.7037 74.2934C48.7557 74.3591 48.8316 74.4014 48.9147 74.4111C48.9978 74.4208 49.0814 74.3971 49.1471 74.3452C49.2128 74.2932 49.2551 74.2174 49.2648 74.1342C49.5096 72.381 50.2908 70.1478 49.5648 68.4204C48.9336 66.9366 47.4534 66.4314 45.8802 66.0972C40.7647 64.9585 35.5225 64.4917 30.2862 64.7088C29.2746 64.7736 28.2072 64.9374 27.5556 65.7102C26.2494 67.2582 26.2638 69.6102 26.0274 71.5902C25.7754 73.737 24.135 79.2234 28.4238 79.728C29.1485 79.7883 29.8774 79.7772 30.6 79.695C30.6409 79.6933 30.681 79.6834 30.718 79.6659C30.755 79.6484 30.7882 79.6237 30.8155 79.5932C30.8428 79.5628 30.8638 79.5272 30.8772 79.4885C30.8906 79.4498 30.8961 79.4088 30.8934 79.368C30.8883 79.286 30.8513 79.2093 30.7902 79.1544C30.7292 79.0994 30.6491 79.0705 30.567 79.074Z" fill="#191919"/>
<path d="M20.9646 23.907C22.8246 23.4984 25.2426 23.5152 35.8776 22.4118C36.8856 22.3116 37.887 22.218 38.9016 22.1718C38.9848 22.1718 39.0646 22.1387 39.1235 22.0799C39.1823 22.021 39.2154 21.9412 39.2154 21.858C39.2154 21.7748 39.1823 21.695 39.1235 21.6361C39.0646 21.5773 38.9848 21.5442 38.9016 21.5442C34.7214 21.3642 32.5644 21.7674 28.7082 22.0842C25.3998 22.38 23.5092 22.2642 20.7882 23.313C20.7491 23.3239 20.7126 23.3423 20.6807 23.3674C20.6488 23.3924 20.6222 23.4235 20.6024 23.4588C20.5825 23.4942 20.5698 23.5331 20.5651 23.5733C20.5603 23.6136 20.5636 23.6544 20.5746 23.6934C20.5988 23.7729 20.6532 23.8398 20.7261 23.8797C20.7989 23.9196 20.8846 23.9294 20.9646 23.907Z" fill="#191919"/>
<path d="M13.9014 33.8352C16.9614 33.5214 42.6 31.9572 42.9126 31.9464C45.96 31.812 48.8592 31.986 52.065 31.926C52.1078 31.9279 52.1505 31.921 52.1906 31.9059C52.2307 31.8908 52.2674 31.8678 52.2983 31.8382C52.3292 31.8085 52.3539 31.7729 52.3707 31.7335C52.3875 31.6941 52.3962 31.6517 52.3962 31.6089C52.3962 31.5661 52.3875 31.5237 52.3707 31.4843C52.3539 31.4448 52.3292 31.4093 52.2983 31.3796C52.2674 31.35 52.2307 31.3269 52.1906 31.3119C52.1505 31.2968 52.1078 31.2899 52.065 31.2918C49.005 31.2252 46.2246 30.9168 42.8796 30.9648C38.9022 31.044 22.2996 32.181 20.0892 32.3736C17.9106 32.559 15.8526 32.8536 13.8144 33.2214C13.7729 33.2256 13.7326 33.2382 13.6961 33.2584C13.6595 33.2786 13.6274 33.3059 13.6017 33.3388C13.576 33.3717 13.5572 33.4094 13.5464 33.4498C13.5356 33.4901 13.533 33.5322 13.5389 33.5735C13.5447 33.6148 13.5589 33.6546 13.5805 33.6903C13.602 33.726 13.6306 33.7571 13.6645 33.7815C13.6983 33.8059 13.7367 33.8233 13.7775 33.8325C13.8182 33.8417 13.8603 33.8426 13.9014 33.8352Z" fill="#191919"/>
<path d="M14.3736 44.94C16.749 44.6706 43.0896 43.056 43.3854 43.044C46.1808 42.924 49.6464 43.0872 52.5372 43.0242C52.6211 43.0245 52.7018 42.9918 52.7618 42.9331C52.8218 42.8743 52.8562 42.7943 52.8576 42.7104C52.8574 42.6687 52.849 42.6274 52.8328 42.589C52.8165 42.5505 52.7928 42.5157 52.763 42.4865C52.7332 42.4573 52.6979 42.4343 52.6591 42.4189C52.6204 42.4035 52.5789 42.3959 52.5372 42.3966C49.3122 42.3162 46.6764 42.015 43.3518 42.063C38.9808 42.1716 22.5414 43.3032 20.562 43.4712C18.7404 43.6458 17.1648 43.8108 14.2872 44.3256C14.2057 44.3371 14.1321 44.3804 14.0826 44.4461C14.0331 44.5118 14.0117 44.5945 14.0232 44.676C14.0347 44.7575 14.078 44.8311 14.1437 44.8806C14.2094 44.9301 14.2921 44.9515 14.3736 44.94Z" fill="#191919"/>
<path d="M15.6186 55.3644C17.994 55.095 44.3346 53.4804 44.6304 53.4684C47.3172 53.3484 50.9304 53.502 53.7822 53.4486C53.8661 53.4489 53.9468 53.4162 54.0068 53.3574C54.0668 53.2987 54.1012 53.2187 54.1026 53.1348C54.1024 53.0931 54.094 53.0518 54.0778 53.0134C54.0615 52.9749 54.0378 52.9401 54.008 52.9109C53.9782 52.8817 53.9429 52.8587 53.9041 52.8433C53.8654 52.8279 53.8239 52.8203 53.7822 52.821C50.5464 52.7406 47.9184 52.4394 44.5968 52.4874C40.2252 52.596 23.7864 53.7276 21.807 53.8956C19.9854 54.0702 18.4098 54.2352 15.5322 54.75C15.4918 54.7551 15.4528 54.7681 15.4174 54.7884C15.3821 54.8087 15.3511 54.8357 15.3263 54.868C15.3015 54.9003 15.2833 54.9372 15.2728 54.9766C15.2623 55.016 15.2597 55.057 15.2652 55.0974C15.2783 55.1789 15.3223 55.2522 15.3882 55.302C15.4541 55.3517 15.5366 55.3741 15.6186 55.3644Z" fill="#191919"/>
<path d="M24.9828 83.667C19.983 83.7036 13.0314 84.2622 8.034 84.588C7.44271 84.6231 6.86145 84.4235 6.41647 84.0325C5.97148 83.6416 5.69871 83.0909 5.6574 82.5C5.196 75.1134 5.2692 62.913 5.1234 59.8302C4.9836 57.2136 4.7832 54.5964 4.7094 51.9798C4.5426 45.6234 4.0956 18.588 4.0758 16.719C4.06739 16.424 4.11996 16.1304 4.23022 15.8567C4.34048 15.583 4.50605 15.3349 4.71657 15.1281C4.9271 14.9213 5.17804 14.7602 5.4537 14.6548C5.72936 14.5495 6.0238 14.5021 6.3186 14.5158C8.3346 14.589 10.3572 14.5626 12.3732 14.5026C15.3906 14.409 55.8504 13.4742 56.4846 13.4676C57.0455 13.4729 57.5825 13.6958 57.9823 14.0894C58.382 14.4829 58.6132 15.0164 58.6272 15.5772C58.86 22.548 59.634 28.9446 59.9292 35.58C60.3492 44.655 60.1176 53.8668 60.3828 62.9496C60.5088 67.7322 61.0656 73.8516 61.4112 79.1706C61.4268 79.4812 61.3804 79.7918 61.2746 80.0842C61.1688 80.3766 61.0058 80.645 60.7951 80.8737C60.5844 81.1024 60.3302 81.2868 60.0474 81.4162C59.7646 81.5455 59.4588 81.6172 59.148 81.627C54.6366 81.7572 55.362 81.6828 53.7942 81.7878C53.7102 81.7931 53.6317 81.8316 53.5761 81.8948C53.5204 81.958 53.4922 82.0407 53.4975 82.1247C53.5028 82.2087 53.5413 82.2872 53.6045 82.3428C53.6677 82.3985 53.7504 82.4267 53.8344 82.4214C54.9378 82.3464 55.641 82.3902 56.7786 82.368L59.1684 82.3014C59.5715 82.2916 59.9686 82.2011 60.3362 82.0354C60.7038 81.8697 61.0345 81.6321 61.3088 81.3366C61.5832 81.0411 61.7956 80.6936 61.9335 80.3147C62.0715 79.9358 62.1321 79.5331 62.112 79.1304C61.9182 75.5262 61.2444 64.4382 61.212 62.9226C61.0716 56.541 61.1652 50.1522 61.1118 43.764C60.9684 28.9914 59.9718 25.8048 59.6634 15.5466C59.6398 14.7164 59.2944 13.9278 58.7003 13.3475C58.1061 12.7671 57.3097 12.4404 56.4792 12.4362C52.6392 12.4758 50.0724 12.705 46.8864 12.7296C41.7798 12.7698 24.7704 12.957 21.366 13.0704C16.5618 13.221 11.2632 13.6386 6.36 13.4574C5.92176 13.4399 5.48456 13.5122 5.07529 13.6698C4.66602 13.8275 4.29331 14.0672 3.98007 14.3742C3.66684 14.6812 3.4197 15.049 3.25384 15.455C3.08798 15.861 3.0069 16.2967 3.0156 16.7352C3.045 19.4868 2.9442 22.092 3.0552 24.7788C3.162 27.5028 3.5028 45.6534 3.6762 52.008C3.756 55.0122 4.0236 58.0026 4.1502 61.0002C4.35 65.4786 4.1574 74.1972 4.764 82.5618C4.82569 83.3839 5.21114 84.148 5.83573 84.6862C6.46031 85.2244 7.27295 85.4927 8.0952 85.4322C13.5708 85.0212 19.0554 84.4674 24.9978 84.2922C25.0381 84.2914 25.0779 84.2827 25.1149 84.2664C25.1518 84.2502 25.1852 84.2269 25.2131 84.1977C25.241 84.1685 25.2628 84.1341 25.2773 84.0965C25.2919 84.0589 25.2988 84.0187 25.2978 83.9784C25.2978 83.9372 25.2896 83.8964 25.2738 83.8584C25.2579 83.8204 25.2346 83.7859 25.2053 83.7569C25.176 83.728 25.1413 83.7051 25.1031 83.6897C25.0649 83.6742 25.024 83.6665 24.9828 83.667Z" fill="#191919"/>
</svg>
