<svg width="120" height="120" viewBox="0 0 120 120" fill="none" xmlns="http://www.w3.org/2000/svg">
<path d="M83.4888 97.0645C85.3611 96.9883 87.2119 96.6359 88.9812 96.0187C88.1988 92.8679 87.3712 89.7304 86.4984 86.6064C85.3638 90.1926 84.402 93.5605 83.4888 97.0645Z" fill="#644DF6"/>
<path d="M90.432 68.28C90.4992 68.34 90.5064 68.3472 90.486 68.3268C90.4656 68.3064 90.4524 68.301 90.432 68.28Z" fill="#644DF6"/>
<path d="M93.0834 74.0837C93.0856 74.1339 93.0789 74.1841 93.0636 74.2319C93.0702 74.2385 93.0702 74.2523 93.0768 74.2589C93.792 77.2677 94.4262 80.2949 94.9794 83.3405C94.9728 82.9493 94.9794 76.8227 94.9794 74.1443C94.347 74.1915 93.7115 74.1712 93.0834 74.0837Z" fill="#644DF6"/>
<path d="M75.4326 16.44C72.1104 8.16604 64.1448 5.68264 55.299 6.82024C54.0771 6.95928 52.868 7.194 51.6828 7.52224C45.0078 9.47584 38.685 17.0022 38.5656 29.2278C38.5596 29.8488 38.583 30.4626 38.5926 31.0764C38.5925 31.0931 38.5986 31.1093 38.6096 31.1218C38.6207 31.1343 38.636 31.1423 38.6526 31.1442L38.6454 31.191C38.6284 31.1872 38.6108 31.1872 38.5938 31.1909C38.5767 31.1946 38.5607 31.2019 38.5468 31.2124C38.5329 31.2229 38.5215 31.2363 38.5133 31.2517C38.5051 31.2671 38.5004 31.2841 38.4994 31.3015C38.4984 31.3188 38.5012 31.3362 38.5077 31.3524C38.5141 31.3686 38.524 31.3832 38.5366 31.3952C38.5493 31.4072 38.5644 31.4163 38.5809 31.4219C38.5974 31.4274 38.6149 31.4293 38.6322 31.4274C40.3962 31.506 41.9208 31.4976 43.3416 31.461C44.9916 31.4184 45.174 31.5276 45.1566 30.9012C45.0144 25.7358 46.1508 20.2266 49.5966 16.4352C50.7776 15.0712 52.3006 14.0465 54.009 13.4664C57.441 12.4032 61.9368 12.4404 65.2026 14.4516C66.7093 15.3915 67.9372 16.7173 68.7588 18.2916C70.7754 22.0806 70.7622 26.5644 71.0124 30.6324C71.0553 30.857 71.0666 31.0864 71.046 31.314C71.0418 31.3315 71.0415 31.3497 71.0453 31.3673C71.049 31.3849 71.0567 31.4014 71.0677 31.4157C71.0787 31.4299 71.0928 31.4415 71.1089 31.4495C71.1249 31.4576 71.1426 31.4619 71.1606 31.4622C72.2544 31.4862 73.347 31.5336 74.4396 31.5222C77.0196 31.4976 76.9638 31.3638 77.5596 31.434C77.5911 31.4329 77.6209 31.4198 77.6431 31.3976C77.6654 31.3753 77.6784 31.3455 77.6796 31.314C77.3556 26.3604 77.319 21.1392 75.4326 16.44Z" fill="#644DF6"/>
<path d="M26.5356 74.3874C26.3604 73.9824 26.1846 73.5774 26.016 73.1724C24.9333 73.2811 23.8406 73.2358 22.7706 73.038C22.7706 85.3068 22.5456 88.0782 23.607 90.9924C24.2592 85.5174 24.9684 79.8726 26.5356 74.3874Z" fill="#644DF6"/>
<path d="M33.7482 88.62C32.9082 91.2198 32.04 94.2366 31.3734 96.7368C32.8525 96.9838 34.3477 97.1214 35.847 97.1484C35.1654 94.2992 34.4658 91.4564 33.7482 88.62Z" fill="#644DF6"/>
<path d="M33.4242 53.1336C33.4032 52.9842 33.249 52.9536 33.1206 52.9446C32.9763 52.9324 32.8309 52.9415 32.6892 52.9716C32.601 52.9914 32.5644 53.1516 32.6622 53.1804C32.799 53.2295 32.9394 53.2678 33.0822 53.295C33.1584 53.3094 33.4632 53.4084 33.4242 53.1336Z" fill="#252525"/>
<path d="M35.7456 50.772C35.7242 50.7789 35.7055 50.7924 35.6923 50.8106C35.679 50.8287 35.6719 50.8506 35.6719 50.8731C35.6719 50.8956 35.679 50.9175 35.6923 50.9357C35.7055 50.9538 35.7242 50.9673 35.7456 50.9742C36.2928 51.195 35.9208 51.8346 35.4552 51.8376C35.4033 51.8379 35.3537 51.8587 35.317 51.8955C35.2804 51.9322 35.2598 51.9819 35.2596 52.0338C35.2662 52.803 35.2896 53.565 35.3136 54.3342C35.3214 54.5838 35.7156 54.591 35.7048 54.3342C35.6766 53.6262 35.6646 52.9104 35.658 52.2024C35.8283 52.1615 35.9832 52.0722 36.104 51.9453C36.2248 51.8184 36.3064 51.6594 36.339 51.4872C36.3972 51.1626 36.156 50.5998 35.7456 50.772Z" fill="#252525"/>
<path d="M44.868 58.6998C44.0765 57.5304 43.0529 56.5363 41.8608 55.7794C40.6687 55.0224 39.3336 54.5189 37.9386 54.3C37.4466 54.2052 36.417 54.0834 36.0084 54.3744C35.5522 54.7939 35.0416 55.1501 34.4904 55.4334C33.6467 55.6233 32.7622 55.4808 32.0208 55.0356C31.812 54.8398 31.5656 54.6885 31.2964 54.5911C31.0273 54.4936 30.7412 54.4519 30.4554 54.4686C28.0668 54.4014 26.2116 55.4886 24.363 56.9586C21.9462 58.8975 20.0553 61.4125 18.864 64.2726C18.8527 64.3021 18.8486 64.3338 18.8522 64.3651C18.8557 64.3965 18.8668 64.4265 18.8844 64.4526C16.3044 70.8186 22.779 75.6936 34.0116 69.7896C37.224 68.1018 38.0916 67.1658 39.261 66.7536C39.2569 66.7679 39.2559 66.7829 39.2583 66.7976C39.2606 66.8122 39.2662 66.8262 39.2746 66.8385C39.2829 66.8507 39.2939 66.861 39.3067 66.8685C39.3195 66.8761 39.3338 66.8807 39.3486 66.882C40.0758 66.9754 40.7761 67.2165 41.4066 67.5906C42.6294 68.1846 42.6558 68.4786 42.9852 68.3868C43.009 68.3807 43.0299 68.3667 43.0447 68.347C43.0594 68.3274 43.067 68.3033 43.0662 68.2788C43.0458 67.9746 42.6816 67.8402 42.4458 67.698C41.7072 67.2546 40.4364 66.597 39.5778 66.6522C39.666 66.6324 39.7536 66.6126 39.8478 66.5982C40.152 66.5532 40.0236 66.0858 39.7194 66.1326C38.4888 66.3234 37.7904 67.0968 34.9896 68.6904C31.7466 70.5342 28.1496 72.0504 24.4374 71.9424C20.1774 71.8152 17.58 68.997 19.2486 64.554C21.2687 64.5121 23.289 64.6275 25.2912 64.899C25.4346 64.2282 25.722 63.129 25.8876 62.4354C25.9126 62.1303 26.0173 61.8371 26.1912 61.5852C26.2031 61.5733 26.2178 61.5646 26.234 61.5601C26.2502 61.5556 26.2673 61.5553 26.2836 61.5593C26.2999 61.5634 26.3149 61.5716 26.3271 61.5832C26.3393 61.5948 26.3483 61.6093 26.3532 61.6254C26.3922 61.9517 26.3456 62.2825 26.2182 62.5854C25.2816 66.453 25.2264 67.0926 25.2264 67.0926C24.7027 67.3051 24.2085 67.584 23.7558 67.9224C23.5128 68.0982 23.7426 68.5104 23.9958 68.334C24.435 68.034 24.8862 67.761 25.3314 67.4838C25.3601 67.4935 25.3904 67.4974 25.4206 67.4951C25.4508 67.4928 25.4803 67.4845 25.5072 67.4706C29.3214 65.5026 34.6272 64.3116 38.367 65.4306C39.7152 65.8344 39.951 66.345 40.4742 66.105C40.0851 64.793 40.0868 63.3961 40.479 62.085C40.4839 62.0682 40.492 62.0525 40.503 62.0388C40.5139 62.0252 40.5275 62.0138 40.5428 62.0053C40.5582 61.9969 40.575 61.9916 40.5924 61.9896C40.6099 61.9877 40.6275 61.9892 40.6443 61.9941C40.6611 61.999 40.6768 62.0072 40.6905 62.0181C40.7042 62.0291 40.7155 62.0426 40.724 62.0579C40.7324 62.0733 40.7378 62.0902 40.7397 62.1076C40.7416 62.125 40.7401 62.1426 40.7352 62.1594C40.5102 63.397 40.5294 64.6666 40.7916 65.8968C41.1774 65.967 41.4006 65.8242 46.5582 66.5652C46.5864 66.6136 46.6293 66.6516 46.6807 66.6737C46.7321 66.6957 46.7892 66.7007 46.8436 66.6879C46.8981 66.6751 46.947 66.6451 46.9831 66.6024C47.0192 66.5596 47.0406 66.5064 47.0442 66.4506C47.1618 63.7013 46.3995 60.9861 44.868 58.6998Z" fill="#252525"/>
<path d="M49.989 115.303C49.3572 114.907 48.5592 114.89 47.889 114.567C47.1876 114.229 46.569 113.765 45.9048 113.373C44.9976 112.833 44.5044 112.588 43.6986 113.193C42.8082 113.858 42.1386 113.664 41.0808 113.186C40.764 113.044 40.4862 113.512 40.8042 113.659C41.4123 113.999 42.0975 114.178 42.7944 114.178C43.773 114.101 43.9008 113.566 44.4144 113.409C44.7516 113.306 45.117 113.557 45.3996 113.713C46.2458 114.28 47.1321 114.785 48.0516 115.224C48.624 115.442 49.347 115.46 49.8396 115.852C50.2716 116.195 49.5156 116.384 49.2522 116.411C48.7722 116.461 42.6858 116.467 41.9112 116.418C40.6716 116.339 40.869 115.904 40.6026 113.49C40.6026 113.45 40.5866 113.411 40.5581 113.383C40.5297 113.354 40.4911 113.338 40.4508 113.338C40.4105 113.338 40.3719 113.354 40.3435 113.383C40.315 113.411 40.299 113.45 40.299 113.49C40.2294 114.341 40.2838 115.198 40.4604 116.033C40.8396 117.23 42.2976 116.988 47.532 116.978C48.8172 116.978 49.4874 117.013 49.992 116.762C50.64 116.441 50.7894 115.803 49.989 115.303Z" fill="#252525"/>
<path d="M26.5692 113.501C26.5421 114.284 26.4451 115.063 26.2794 115.829C26.0682 116.537 25.1928 116.436 24.606 116.443C22.9662 116.462 18.945 116.45 18.5736 116.45C18.1751 116.488 17.7731 116.433 17.4 116.288C16.9338 116.048 17.4468 115.754 17.7234 115.646C18.0245 115.544 18.331 115.459 18.6414 115.39C19.9776 115.033 20.9562 114.049 22.197 113.508C22.367 113.427 22.5585 113.403 22.7431 113.44C22.9277 113.476 23.0958 113.571 23.2224 113.71C24.2424 114.49 25.188 114.205 26.367 113.663C26.685 113.516 26.4066 113.054 26.0904 113.191C23.742 114.211 23.7588 113.08 22.8582 112.867C21.8052 112.617 20.226 114.325 18.675 114.803C18.324 114.911 17.9598 114.973 17.6154 115.1C17.0832 115.297 16.2954 115.82 16.7724 116.463C17.2392 117.089 18.2568 116.977 18.9384 116.983C20.8206 116.999 22.71 117.013 24.5922 116.962C25.2876 116.944 26.217 116.982 26.6028 116.274C26.7652 115.88 26.8477 115.458 26.8458 115.033C26.8996 114.523 26.9018 114.01 26.8524 113.501C26.8524 113.463 26.8375 113.427 26.8109 113.401C26.7844 113.374 26.7484 113.359 26.7108 113.359C26.6732 113.359 26.6372 113.374 26.6107 113.401C26.5841 113.427 26.5692 113.463 26.5692 113.501Z" fill="#252525"/>
<path d="M102.827 114.554C102.191 114.164 101.397 114.141 100.727 113.818C100.026 113.48 99.4068 113.016 98.7432 112.624C97.836 112.084 97.3428 111.839 96.537 112.444C95.6466 113.109 94.977 112.915 93.9192 112.437C93.6024 112.294 93.3246 112.762 93.6426 112.909C94.2507 113.25 94.9359 113.428 95.6328 113.429C96.6108 113.351 96.7392 112.816 97.2528 112.66C97.59 112.556 97.9548 112.807 98.238 112.963C99.0842 113.53 99.9703 114.035 100.889 114.475C101.462 114.693 102.185 114.71 102.677 115.102C103.11 115.445 102.354 115.634 102.091 115.662C101.614 115.712 95.5236 115.718 94.7496 115.669C93.51 115.59 93.7074 115.154 93.4404 112.741C93.4404 112.7 93.4244 112.662 93.3959 112.633C93.3675 112.605 93.3289 112.589 93.2886 112.589C93.2483 112.589 93.2097 112.605 93.1813 112.633C93.1528 112.662 93.1368 112.7 93.1368 112.741C93.0674 113.592 93.122 114.449 93.2988 115.284C93.678 116.48 95.136 116.238 100.37 116.228C101.656 116.228 102.325 116.263 102.833 116.013C103.48 115.691 103.631 115.046 102.827 114.554Z" fill="#252525"/>
<path d="M79.407 112.745C79.3797 113.528 79.2825 114.307 79.1166 115.073C78.906 115.781 78.0306 115.68 77.4438 115.687C75.804 115.706 71.7828 115.694 71.4114 115.694C71.0127 115.732 70.6106 115.677 70.2372 115.532C69.7716 115.292 70.2846 114.998 70.5612 114.891C70.8624 114.789 71.1688 114.703 71.4792 114.634C72.8148 114.278 73.794 113.293 75.0348 112.752C75.2048 112.671 75.3962 112.648 75.5808 112.684C75.7654 112.72 75.9335 112.815 76.0602 112.954C77.0802 113.734 78.0252 113.45 79.2048 112.907C79.5228 112.761 79.2444 112.298 78.9282 112.435C76.5798 113.455 76.5966 112.325 75.696 112.111C74.643 111.861 73.0638 113.569 71.5128 114.047C71.1618 114.155 70.7976 114.217 70.4532 114.347C69.921 114.544 69.1332 115.067 69.6102 115.711C70.0764 116.337 71.0946 116.224 71.7756 116.23C73.6584 116.246 75.5478 116.261 77.43 116.21C78.1248 116.191 79.0548 116.229 79.4406 115.522C79.6026 115.128 79.6852 114.706 79.6836 114.28C79.7368 113.771 79.739 113.258 79.6902 112.748C79.6904 112.73 79.6869 112.711 79.68 112.694C79.6731 112.677 79.6628 112.661 79.6498 112.648C79.6368 112.635 79.6213 112.624 79.6042 112.617C79.5871 112.609 79.5687 112.605 79.5501 112.605C79.5315 112.605 79.513 112.609 79.4958 112.615C79.4785 112.622 79.4628 112.633 79.4495 112.646C79.4362 112.659 79.4256 112.674 79.4183 112.691C79.4111 112.708 79.4072 112.727 79.407 112.745Z" fill="#252525"/>
<path d="M83.7858 52.62C84.0444 52.6656 84.0126 52.7214 84.1704 52.755C84.4248 52.8084 84.5028 52.2972 83.7924 52.4448C83.7728 52.4492 83.7552 52.4599 83.7424 52.4753C83.7296 52.4906 83.7222 52.5099 83.7214 52.5299C83.7207 52.5499 83.7266 52.5696 83.7382 52.5859C83.7499 52.6023 83.7666 52.6142 83.7858 52.62Z" fill="#252525"/>
<path d="M82.7538 46.2714C82.6763 46.346 82.6185 46.4386 82.5855 46.541C82.5525 46.6434 82.5454 46.7524 82.5648 46.8582C82.5761 46.9455 82.6127 47.0275 82.6701 47.0943C82.7274 47.1611 82.803 47.2097 82.8876 47.2341C82.9721 47.2585 83.062 47.2577 83.1461 47.2317C83.2302 47.2058 83.3049 47.1558 83.361 47.088C83.4567 46.9673 83.5093 46.818 83.5105 46.664C83.5117 46.51 83.4614 46.36 83.3676 46.2378C83.4661 46.1711 83.5416 46.0757 83.5839 45.9646C83.6262 45.8535 83.6332 45.732 83.604 45.6168C83.6139 45.5487 83.6069 45.4793 83.5836 45.4146C83.5836 45.408 83.5902 45.408 83.5902 45.4008C83.6291 45.334 83.6491 45.2578 83.6479 45.1806C83.6467 45.1033 83.6245 45.0278 83.5836 44.9622C83.5236 44.868 83.3544 44.814 83.2734 44.922C83.2185 44.9803 83.1811 45.0528 83.1654 45.1314C83.1431 45.141 83.1228 45.1546 83.1054 45.1716C82.9931 45.2162 82.8975 45.2949 82.8322 45.3966C82.7669 45.4983 82.735 45.6179 82.7412 45.7386C82.7209 45.8167 82.7182 45.8984 82.7334 45.9776C82.7485 46.0569 82.7811 46.1318 82.8288 46.197C82.8022 46.2201 82.7771 46.2449 82.7538 46.2714Z" fill="#252525"/>
<path d="M84.06 45.9342C83.88 46.3728 83.9658 47.0592 84.492 47.007C85.0518 46.9512 85.0518 46.1364 84.7014 45.8196C84.9462 45.4764 84.7068 44.9796 84.3636 45.0096C84.357 44.9892 84.3438 44.976 84.3366 44.9556C84.2922 44.8302 84.1272 44.8272 84.0402 44.8542C83.8776 44.9052 83.853 45.1278 83.9202 45.2592C83.8649 45.3711 83.8486 45.4984 83.8739 45.6207C83.8992 45.743 83.9647 45.8534 84.06 45.9342Z" fill="#252525"/>
<path d="M85.1556 45.6912C85.171 45.7062 85.1894 45.7176 85.2096 45.7248C85.2078 45.8357 85.2311 45.9455 85.2779 46.046C85.3247 46.1465 85.3936 46.2351 85.4796 46.305C85.155 46.9206 85.4376 47.3562 85.7964 47.3376C86.238 47.3148 86.5656 46.422 86.2554 46.0824C86.3964 45.6402 85.9776 45.2376 85.5066 45.2256C85.425 45.0078 85.0014 45.0426 84.9732 45.2526C84.9354 45.444 84.9696 45.6288 85.1556 45.6912Z" fill="#252525"/>
<path d="M86.2692 47.6952C86.2142 47.7929 86.1809 47.9013 86.1716 48.013C86.1623 48.1247 86.1771 48.2371 86.2152 48.3426C86.4684 48.8904 87.3552 48.4368 87.099 47.6952C87.1696 47.6337 87.2245 47.5562 87.259 47.4692C87.2936 47.3821 87.3068 47.2881 87.2975 47.1949C87.2882 47.1017 87.2567 47.0121 87.2057 46.9336C87.1547 46.8551 87.0856 46.7899 87.0042 46.7436C87.0202 46.6685 87.0107 46.5901 86.9772 46.521C86.9485 46.4676 86.9028 46.4252 86.8473 46.4007C86.7919 46.3762 86.7298 46.3709 86.671 46.3856C86.6122 46.4004 86.5599 46.4343 86.5226 46.4821C86.4852 46.5299 86.4649 46.5887 86.4648 46.6494C86.4654 46.6951 86.4753 46.7402 86.4939 46.782C86.5124 46.8237 86.5393 46.8613 86.5728 46.8924C86.5064 46.9783 86.4619 47.079 86.443 47.186C86.4242 47.2929 86.4317 47.4028 86.4648 47.5062C86.3933 47.5624 86.3278 47.6257 86.2692 47.6952Z" fill="#252525"/>
<path d="M87.0246 48.5586C86.9165 48.6648 86.8365 48.7963 86.7918 48.9411C86.7471 49.086 86.739 49.2397 86.7684 49.3884C86.6291 49.5384 86.554 49.7369 86.559 49.9416C86.5643 50.0149 86.5918 50.0848 86.638 50.142C86.6842 50.1992 86.7467 50.2408 86.8173 50.2614C86.8878 50.282 86.963 50.2805 87.0326 50.2571C87.1023 50.2337 87.1632 50.1896 87.207 50.1306C87.258 50.0514 87.2906 49.9617 87.3022 49.8682C87.3139 49.7748 87.3043 49.6798 87.2742 49.5906C87.3896 49.4945 87.4695 49.3625 87.5014 49.2158C87.5332 49.0691 87.5151 48.9159 87.45 48.7806C87.4598 48.7571 87.4649 48.7319 87.4649 48.7065C87.4649 48.681 87.4598 48.6558 87.45 48.6324C87.4992 48.3852 87.1236 48.1638 87.0246 48.5586Z" fill="#252525"/>
<path d="M87.2742 50.5896C87.288 50.7014 87.3296 50.808 87.3952 50.8996C87.4609 50.9912 87.5484 51.0649 87.6499 51.1139C87.7514 51.1629 87.8635 51.1857 87.9761 51.1802C88.0887 51.1746 88.198 51.1409 88.2942 51.0822C88.4568 50.9544 88.281 50.7108 88.1052 50.7516C87.8346 50.8146 87.7626 50.7216 87.5052 50.4516C87.4836 50.429 87.455 50.4144 87.424 50.4102C87.393 50.406 87.3615 50.4124 87.3347 50.4285C87.3078 50.4445 87.2872 50.4692 87.2762 50.4984C87.2653 50.5277 87.2645 50.5598 87.2742 50.5896Z" fill="#252525"/>
<path d="M87.72 51.7164C87.5809 51.6272 87.452 51.5232 87.3354 51.4062C87.2196 51.306 87.012 51.4398 87.1128 51.5814C87.2062 51.7341 87.3124 51.8786 87.4302 52.0134C87.4919 52.0836 87.5785 52.127 87.6717 52.1345C87.7648 52.142 87.8572 52.113 87.9294 52.0536C87.9505 52.0305 87.9654 52.0024 87.9729 51.972C87.9803 51.9416 87.98 51.9099 87.9719 51.8796C87.9638 51.8494 87.9483 51.8217 87.9267 51.799C87.9051 51.7764 87.8782 51.7595 87.8484 51.75C87.8072 51.7334 87.764 51.7221 87.72 51.7164Z" fill="#252525"/>
<path d="M82.92 48.795C83.0874 48.9042 83.2374 48.639 83.0748 48.525C82.8732 48.3828 82.449 48.3504 82.3062 48.5922C82.297 48.6092 82.2922 48.6282 82.2923 48.6475C82.2924 48.6669 82.2973 48.6858 82.3067 48.7027C82.3161 48.7196 82.3297 48.7339 82.346 48.7441C82.3624 48.7544 82.3811 48.7603 82.4004 48.7614C82.5504 48.7494 82.6656 48.627 82.92 48.795Z" fill="#252525"/>
<path d="M84.7038 48.5586C84.6856 48.5783 84.6742 48.6034 84.6712 48.6301C84.6682 48.6569 84.6738 48.6838 84.6872 48.7072C84.7005 48.7305 84.721 48.749 84.7455 48.7599C84.7701 48.7708 84.7975 48.7736 84.8238 48.768C84.925 48.7362 85.0288 48.7135 85.134 48.7002C85.242 48.7002 85.3368 48.7542 85.4448 48.7542C85.471 48.7534 85.4964 48.7451 85.518 48.7302C85.5396 48.7153 85.5564 48.6944 85.5664 48.6702C85.5763 48.6459 85.579 48.6193 85.5742 48.5935C85.5693 48.5677 85.5571 48.5439 85.539 48.525C85.4168 48.4345 85.2674 48.3885 85.1155 48.3946C84.9636 48.4007 84.8183 48.4585 84.7038 48.5586Z" fill="#252525"/>
<path d="M81.2286 51.0756C81.4248 51.0294 81.3768 50.787 81.2286 50.7246C81.1531 50.6992 81.088 50.6499 81.043 50.5842C80.9979 50.5185 80.9755 50.44 80.979 50.3604C80.9826 50.1714 81.108 50.1204 81.2694 50.0604C81.3002 50.0506 81.3271 50.0312 81.3462 50.0051C81.3652 49.979 81.3755 49.9475 81.3755 49.9152C81.3755 49.8829 81.3652 49.8514 81.3462 49.8253C81.3271 49.7992 81.3002 49.7798 81.2694 49.77C80.9172 49.6254 80.5944 50.04 80.5878 50.3574C80.5812 50.6748 80.8446 51.1656 81.2286 51.0756Z" fill="#252525"/>
<path d="M86.4714 71.6681C85.2542 72.0867 84.0068 72.4114 82.74 72.6395C79.3008 73.1843 74.5128 72.6263 72.5046 69.8261C71.8344 68.8465 71.4518 67.6988 71.4 66.513C73.5101 65.77 75.7277 65.378 77.9646 65.3525C78.174 65.3525 78.4026 65.313 78.552 65.4725C78.771 65.7095 78.945 66.3887 79.2336 66.4577C79.545 66.5327 79.2336 66.2645 81.21 65.7977C83.4793 65.3102 85.8203 65.2553 88.11 65.6357C89.8956 65.9175 91.6523 66.3593 93.3588 66.9557C95.0034 67.7687 95.2188 68.4221 95.7342 68.5079C95.7529 68.5129 95.7725 68.5129 95.7912 68.5078C95.8099 68.5028 95.8269 68.493 95.8406 68.4793C95.8542 68.4656 95.8641 68.4486 95.8691 68.43C95.8741 68.4113 95.8742 68.3916 95.8692 68.3729C95.7506 68.0954 95.5535 67.8585 95.3022 67.6913C94.7541 67.1914 94.1086 66.81 93.4062 66.5711C93.4062 66.3822 93.3738 66.4445 93.4662 66.4229C95.3931 65.9886 97.3709 65.8228 99.3432 65.9303C99.3796 65.9304 99.4155 65.9233 99.4491 65.9095C99.4827 65.8956 99.5133 65.8752 99.539 65.8495C99.5647 65.8238 99.585 65.7933 99.5989 65.7597C99.6128 65.7261 99.6199 65.6901 99.6198 65.6537C99.1872 62.4404 97.6425 59.4802 95.2542 57.2873C93.1992 55.2737 90.5382 53.6975 87.5826 53.7041C87.2422 53.6842 86.9007 53.7184 86.571 53.8055C86.5366 53.0903 86.5366 52.3751 86.571 51.6599C86.7027 51.6455 86.8286 51.5977 86.9368 51.5211C87.0449 51.4445 87.1318 51.3416 87.1891 51.2221C87.2464 51.1026 87.2724 50.9705 87.2645 50.8382C87.2566 50.7059 87.2151 50.5778 87.144 50.4659C87.0888 50.3927 86.9688 50.4521 86.9688 50.5397C86.9688 50.9315 86.8608 51.3197 86.3886 51.2957C86.3389 51.297 86.2915 51.3173 86.2563 51.3525C86.2211 51.3876 86.2008 51.435 86.1996 51.4847C86.1328 52.2815 86.126 53.0822 86.1792 53.8799C86.1803 53.9161 86.1917 53.9512 86.2122 53.9811C86.2326 54.011 86.2611 54.0344 86.2944 54.0485C86.1475 54.16 85.986 54.2509 85.8144 54.3185C85.1706 54.6185 83.8944 54.9257 83.2638 54.3857C83.2814 54.3713 83.2955 54.3529 83.3049 54.3321C83.3142 54.3113 83.3187 54.2886 83.3178 54.2657C83.3214 54.0497 83.325 53.8403 83.3178 53.6315C83.3778 53.6369 84.6774 53.7317 85.005 53.7053C85.1802 53.6915 85.245 53.4155 85.0518 53.3819C83.9118 53.1857 82.2756 53.6459 81.8268 52.2143C81.6918 51.5953 81.6804 50.9556 81.7932 50.3321C81.8298 49.9379 82.0704 48.2951 81.921 48.1457C82.0962 48.0123 82.2173 47.8201 82.262 47.6044C82.3066 47.3887 82.2718 47.1642 82.164 46.9721C82.307 46.7767 82.3807 46.5392 82.3734 46.2971C82.4676 46.235 82.5407 46.1457 82.5828 46.0409C82.722 45.7121 82.548 45.4901 82.3464 45.5417C82.2646 45.5609 82.1895 45.6017 82.1289 45.6599C82.0684 45.7181 82.0245 45.7914 82.002 45.8723C81.9822 45.8723 81.9552 45.8657 81.9348 45.8651C81.8118 45.8758 81.6962 45.9286 81.6077 46.0147C81.5191 46.1007 81.463 46.2147 81.4488 46.3373C81.4119 46.5525 81.4188 46.7729 81.4692 46.9853C81.0624 47.3453 81.144 48.1853 81.7188 48.1853C81.6387 48.5629 81.5891 48.9464 81.5706 49.3319C81.3696 51.2381 80.9706 53.2769 83.0478 53.5967C83.0208 53.7581 83.001 53.9273 82.9878 54.0887C82.9592 54.0701 82.9268 54.058 82.893 54.0534C82.8592 54.0487 82.8248 54.0516 82.7922 54.0617C82.716 54.0947 82.7322 54.0569 82.0164 54.0419C80.9383 53.9717 79.8571 54.1201 78.8379 54.4784C77.8186 54.8368 76.8824 55.3975 76.0854 56.1269C73.6254 58.2833 71.9508 60.7973 70.8564 66.2544C70.821 66.4296 70.971 66.6389 71.1666 66.5645C71.1738 66.5645 71.1804 66.5579 71.187 66.5579C70.947 68.1905 72.021 70.6523 74.3922 71.8883C77.4258 73.4699 81.0636 73.5503 84.4254 72.7247C85.1816 72.5705 85.9191 72.3354 86.625 72.0233C86.8494 71.9447 86.694 71.6141 86.4714 71.6681Z" fill="#252525"/>
<path d="M99.4056 66.06C99.395 66.0275 99.3733 65.9998 99.3444 65.9817C99.3154 65.9636 99.2809 65.9564 99.2471 65.9612C99.2133 65.966 99.1823 65.9825 99.1594 66.008C99.1366 66.0334 99.1235 66.0661 99.1224 66.1002C99.0762 67.332 99.573 69.2136 98.6028 70.8102C98.1762 71.4268 97.6095 71.9335 96.9492 72.2889C96.2889 72.6442 95.5538 72.838 94.8042 72.8544C92.9892 72.9702 91.1676 72.3954 89.4738 71.802C86.169 70.6434 86.5722 69.984 82.416 67.6794C81.6271 67.1536 80.7343 66.8037 79.7982 66.6534C79.4382 66.624 79.4382 67.1808 79.7982 67.2138C80.75 67.4004 81.6529 67.7818 82.4502 68.334C86.3676 70.524 85.9128 71.1762 89.5416 72.4026C91.2816 72.9906 93.1584 73.5588 95.0202 73.3806C95.7598 73.3372 96.4814 73.1359 97.1367 72.7903C97.7919 72.4446 98.3655 71.9625 98.8188 71.3766C99.8046 69.9738 99.84 67.5216 99.4056 66.06Z" fill="#252525"/>
<path d="M78.051 68.3886C78.0078 68.5026 78.1182 68.5932 78.213 68.6046C78.5358 68.6448 78.8958 68.3106 79.1778 68.1732C79.53 68.001 79.8858 67.8216 80.2434 67.6602C80.3784 67.6002 80.2776 67.4106 80.1492 67.431C79.7375 67.4948 79.3361 67.6126 78.9552 67.7814C78.6456 67.92 78.18 68.049 78.051 68.3886Z" fill="#252525"/>
<path d="M27.318 74.1509C27.3726 74.2847 27.438 74.2709 27.438 74.3063C28.7794 73.9209 30.1557 73.6699 31.5468 73.5569C31.5468 73.4153 31.5534 73.2671 31.5606 73.1255C31.5614 73.0997 31.5702 73.0747 31.586 73.0541C31.6017 73.0336 31.6234 73.0185 31.6482 73.0109C32.1483 72.8594 32.6722 72.8021 33.1932 72.8417C33.2604 72.8501 33.261 72.9617 33.1932 72.9767C32.7222 73.0643 32.2554 73.0967 31.7898 73.2131C31.7632 73.56 31.7769 73.9087 31.8306 74.2523C32.343 74.2319 32.856 74.2037 33.3756 74.1845C33.6894 74.1731 33.6252 74.2403 33.6252 72.8489C33.6252 72.8186 33.6373 72.7894 33.6588 72.7679C33.6803 72.7464 33.7094 72.7343 33.7398 72.7343C33.7702 72.7343 33.7993 72.7464 33.8208 72.7679C33.8423 72.7894 33.8544 72.8186 33.8544 72.8489C33.8544 73.0577 33.861 73.2605 33.861 73.4693C35.2651 73.4931 36.6637 73.6512 38.0376 73.9415C37.986 73.8119 37.9338 73.9415 38.2404 73.2065C38.574 72.4073 36.0204 72.7865 33.9288 70.5479C33.8918 70.5121 33.844 70.4894 33.7929 70.4833C33.7417 70.4773 33.69 70.4882 33.6456 70.5143C31.5357 71.5619 29.2861 72.3003 26.9658 72.7067C26.9365 72.7147 26.9091 72.7284 26.8851 72.747C26.8611 72.7656 26.841 72.7887 26.826 72.8151C26.811 72.8414 26.8013 72.8705 26.7974 72.9006C26.7936 72.9307 26.7958 72.9613 26.8038 72.9905C26.9658 73.3919 27.1584 73.7585 27.318 74.1509Z" fill="#252525"/>
<path d="M42.7356 95.3304C42.3024 91.5558 41.4 84.4896 40.4886 80.7702C39.9386 78.4507 39.1337 76.1992 38.0886 74.0568C38.0893 74.078 38.0852 74.0991 38.0766 74.1184C38.068 74.1378 38.055 74.155 38.0388 74.1686C38.0225 74.1823 38.0034 74.1921 37.9828 74.1972C37.9622 74.2024 37.9408 74.2028 37.92 74.1984C36.5824 73.9252 35.2229 73.7738 33.858 73.746C33.858 74.0982 33.8976 74.3064 33.7032 74.394C33.4183 74.462 33.1241 74.4822 32.8326 74.454C31.7592 74.502 31.6452 74.5434 31.6248 74.4138C31.5936 74.2176 31.5648 74.022 31.5504 73.8198C30.1343 73.9404 28.732 74.1888 27.3606 74.562C26.7972 76.4772 26.2512 78.9348 25.8828 80.8974C24.9228 86.019 23.8032 95.913 23.5008 100.222C23.1779 103.895 23.319 107.595 23.9208 111.233C23.9302 111.269 23.9489 111.301 23.975 111.327C24.001 111.353 24.0334 111.372 24.069 111.382C24.9451 111.637 25.8573 111.746 26.769 111.706C27.093 111.697 27.2256 111.563 27.255 111.24C27.5561 108.63 28.0684 106.048 28.7868 103.521C30.2388 97.731 31.7832 91.5678 33.8604 85.722C33.9804 86.202 39.8724 110.662 40.0272 111.51C40.0373 111.547 40.0569 111.581 40.0842 111.608C40.1115 111.636 40.1454 111.655 40.1826 111.665C41.2002 111.809 42.2374 111.715 43.212 111.388C43.2572 111.374 43.297 111.347 43.326 111.309C43.355 111.272 43.3718 111.227 43.374 111.179C43.6338 105.888 43.4202 100.584 42.7356 95.3304Z" fill="#252525"/>
<path d="M88.347 73.6248C87.567 73.6974 87.4188 73.713 87.3822 73.584C87.099 73.5774 86.8086 73.584 86.5254 73.5978V74.286H86.5116C86.5056 74.379 86.4864 74.664 86.5794 74.664C86.6466 74.7144 86.5638 74.691 87.942 74.691C87.996 74.691 88.1922 74.7246 88.242 74.691C88.3098 74.637 88.2876 74.6232 88.302 74.5356C88.314 74.4678 88.3224 74.4006 88.329 74.3334C88.327 74.2454 88.3316 74.1573 88.3428 74.07C88.3404 73.92 88.3404 73.773 88.347 73.6248Z" fill="#252525"/>
<path d="M81.0936 74.3802C82.248 73.9464 84.708 73.9998 86.289 74.0202C86.289 73.845 86.2962 73.6698 86.2962 73.494C86.2975 73.464 86.31 73.4356 86.3312 73.4144C86.3524 73.3932 86.3808 73.3807 86.4108 73.3794C86.7986 73.3573 87.1877 73.3774 87.5712 73.4394C87.8712 73.3926 88.1712 73.3986 88.4712 73.3722C88.5026 73.3737 88.5322 73.3868 88.5544 73.409C88.5766 73.4312 88.5897 73.4608 88.5912 73.4922C88.5774 73.6878 88.5708 73.8834 88.5576 74.0796C89.181 74.1018 91.9776 74.25 92.2614 74.2818C92.2538 74.2733 92.2446 74.2664 92.2344 74.2614C92.2614 74.1606 92.2878 74.0658 92.3154 73.9644C92.3266 73.9228 92.3272 73.879 92.3172 73.837C92.3072 73.7951 92.2869 73.7563 92.2581 73.7242C92.2293 73.6921 92.193 73.6677 92.1524 73.6531C92.1118 73.6386 92.0682 73.6344 92.0256 73.641C91.1778 73.3458 89.9178 73.341 87.8892 72.3522C87.7404 72.279 87.4848 72.0852 87.309 72.0888C87.147 72.0924 86.949 72.2688 86.8164 72.3456C85.9833 72.8049 85.069 73.0981 84.1242 73.209C83.1528 73.3254 82.2006 73.5372 81.2298 73.6542C81.193 73.6545 81.1569 73.6633 81.124 73.6798C81.0912 73.6964 81.0626 73.7202 81.0405 73.7496C81.0183 73.7789 81.0032 73.8129 80.9963 73.849C80.9894 73.8851 80.9909 73.9224 81.0006 73.9578C81.0422 74.0961 81.0733 74.2373 81.0936 74.3802Z" fill="#252525"/>
<path d="M92.3952 74.583C91.9752 74.5764 91.0986 74.4426 88.5552 74.3466C88.5552 75.0288 88.5444 74.9268 87.4218 74.9268C86.9316 74.9268 86.4744 74.9868 86.3556 74.8326C86.25 74.6958 86.3082 74.3886 86.3082 74.286C83.3082 74.2404 82.5882 74.2566 81.0792 74.5896C78.3006 86.145 75.5298 99.0444 75.4854 110.897C75.488 110.984 75.5236 111.066 75.5851 111.128C75.6465 111.189 75.7291 111.225 75.816 111.227C76.9836 111.277 78.1506 111.343 79.3182 111.389C79.3697 111.388 79.4204 111.376 79.4664 111.353C79.5124 111.33 79.5526 111.296 79.5838 111.255C79.615 111.214 79.6365 111.167 79.6466 111.116C79.6568 111.066 79.6552 111.014 79.6422 110.964C79.5438 110.866 82.3224 97.1004 86.5422 84.2316C87.7674 88.4772 88.902 92.7436 89.946 97.0308C93.7194 112.511 92.6562 111.434 93.5154 111.781C93.9558 111.875 94.4131 111.857 94.8444 111.727C95.9808 111.563 97.068 111.651 97.0644 110.492C97.0374 101.344 95.4204 86.6826 92.3952 74.583ZM79.6152 110.93C79.608 110.91 79.6152 110.897 79.6152 110.93V110.93Z" fill="#252525"/>
<path d="M86.9304 28.641C86.7229 28.5194 86.489 28.4498 86.2488 28.4382C86.3217 27.9697 86.3488 27.4953 86.3298 27.0216C86.3272 26.9785 86.3083 26.9381 86.2769 26.9085C86.2455 26.8789 86.204 26.8624 86.1609 26.8624C86.1178 26.8624 86.0763 26.8789 86.0449 26.9085C86.0135 26.9381 85.9946 26.9785 85.992 27.0216C85.932 27.4938 85.8774 27.9594 85.8036 28.4316C85.4843 28.4493 85.1664 28.4876 84.852 28.5462C84.663 28.5792 84.717 28.8648 84.8922 28.8702C85.1622 28.8786 85.4322 28.8972 85.7022 28.9302C85.5963 29.2637 85.5484 29.613 85.5606 29.9628C85.5738 30.0642 85.7148 30.1644 85.7964 30.057C86.0037 29.734 86.131 29.3662 86.1678 28.9842C86.4009 29.0312 86.6395 29.0449 86.8764 29.025C87.0654 28.9986 87.066 28.7274 86.9304 28.641Z" fill="#644DF6"/>
<path d="M38.1882 15.531C37.8444 15.6426 37.434 15.9264 37.2432 15.99C37.1154 15.6864 37.0068 15.3756 36.8724 15.0786C36.7776 14.8698 36.495 15.0318 36.528 15.2274C36.5913 15.5537 36.6886 15.8725 36.8184 16.1784C36.6768 16.2324 36.5286 16.2888 36.3732 16.3338C36.3342 16.3457 36.3013 16.3722 36.2815 16.4078C36.2617 16.4435 36.2564 16.4854 36.267 16.5248C36.2775 16.5642 36.3029 16.598 36.3378 16.619C36.3727 16.64 36.4145 16.6466 36.4542 16.6374C36.6162 16.6038 36.7848 16.5702 36.9534 16.5228C37.0512 16.7846 37.2083 17.0202 37.4124 17.211C37.4356 17.2316 37.4647 17.2443 37.4955 17.2473C37.5263 17.2502 37.5573 17.2434 37.584 17.2276C37.6106 17.2119 37.6316 17.1881 37.6439 17.1597C37.6562 17.1313 37.6592 17.0997 37.6524 17.0694C37.6045 16.8244 37.5204 16.5878 37.4028 16.3674C37.7618 16.2388 38.0791 16.0151 38.3208 15.72C38.4042 15.6324 38.289 15.504 38.1882 15.531Z" fill="#644DF6"/>
<path d="M68.1996 20.5201C67.9971 20.5046 67.7934 20.5114 67.5924 20.5405C67.6062 20.3245 67.6224 20.1079 67.6524 19.8925C67.6824 19.6771 67.3686 19.5823 67.3218 19.8049C67.2653 20.07 67.2226 20.338 67.194 20.6077C67.032 20.6347 66.8766 20.6677 66.7284 20.6887C66.5256 20.7199 66.573 21.0715 66.7758 21.0487C66.8958 21.0343 67.0254 21.0217 67.1604 21.0085C67.131 21.1193 67.1291 21.2356 67.155 21.3472C67.1808 21.4589 67.2335 21.5626 67.3086 21.6493C67.3298 21.6688 67.3575 21.6796 67.3863 21.6796C67.4151 21.6796 67.4428 21.6688 67.464 21.6493C67.644 21.4693 67.5786 21.2041 67.5786 20.9611C67.8028 20.9352 68.0228 20.8807 68.2332 20.7991C68.2678 20.7919 68.2985 20.772 68.3192 20.7433C68.3398 20.7146 68.3489 20.6792 68.3447 20.6441C68.3405 20.609 68.3232 20.5768 68.2963 20.5538C68.2695 20.5308 68.2349 20.5188 68.1996 20.5201Z" fill="#644DF6"/>
<path d="M58.5 25.8948C58.274 25.8927 58.0484 25.9108 57.8256 25.9488C57.7244 25.652 57.6164 25.355 57.5016 25.0578C57.4266 24.8628 57.1176 24.9432 57.1848 25.146C57.2802 25.4358 57.3648 25.7262 57.4542 26.016C57.2316 26.0634 57.0156 26.1156 56.8134 26.151C56.523 26.2026 56.6442 26.5338 56.9334 26.4816C57.129 26.4468 57.345 26.4216 57.561 26.3874C57.6066 26.7453 57.7312 27.0886 57.9258 27.3924C57.9413 27.4075 57.9605 27.4184 57.9814 27.424C58.0024 27.4296 58.0244 27.4297 58.0454 27.4243C58.0664 27.4188 58.0857 27.4081 58.1013 27.393C58.1169 27.378 58.1284 27.3591 58.1346 27.3384C58.1626 26.9904 58.0974 26.6412 57.9456 26.3268C58.1655 26.2909 58.3806 26.2305 58.587 26.1468C58.7604 26.0904 58.6728 25.9008 58.5 25.8948Z" fill="#644DF6"/>
<path d="M50.9268 4.35054C50.633 4.31413 50.3355 4.31878 50.043 4.36434C49.9817 3.93369 49.8731 3.51113 49.719 3.10434C49.6506 2.92434 49.3692 2.99574 49.4292 3.18534C49.5501 3.57608 49.6305 3.97818 49.6692 4.38534C49.3728 4.39254 49.0692 4.38534 48.7692 4.37214C48.5328 4.36014 48.54 4.72194 48.7692 4.73634C49.0728 4.75554 49.383 4.76994 49.6866 4.76334C49.6566 5.17893 49.6544 5.59606 49.68 6.01194C49.6878 6.03553 49.702 6.05647 49.721 6.07241C49.7401 6.08835 49.7632 6.09864 49.7878 6.10214C49.8124 6.10563 49.8374 6.10218 49.8602 6.09218C49.8829 6.08218 49.9024 6.06603 49.9164 6.04554C50.1103 5.64306 50.1694 5.18884 50.085 4.75014C50.3843 4.75529 50.6812 4.6953 50.955 4.57434C50.9751 4.56179 50.9913 4.54373 51.0015 4.5223C51.0117 4.50086 51.0155 4.47696 51.0125 4.45342C51.0096 4.42987 50.9999 4.40767 50.9847 4.38944C50.9695 4.37121 50.9494 4.35771 50.9268 4.35054Z" fill="#644DF6"/>
<path d="M88.374 52.7826C88.2277 52.8648 88.0677 52.9197 87.9018 52.9446C90.4656 52.9986 92.8338 54.2196 94.7976 55.8522C94.6692 52.518 94.4274 49.2408 94.0284 46.0758C93.5526 42.3012 93.0438 37.6602 90.3984 35.1924C87.4296 32.4234 82.9116 32.6652 79.0764 32.6124C77.052 32.586 39.261 32.5446 35.1924 32.6598C33.2842 32.6569 31.3929 33.0167 29.619 33.72C25.863 35.3484 24.8568 38.7396 24.1944 42.7608C23.4493 47.518 23.0166 52.3189 22.899 57.1326C24.8508 55.3416 27.2898 53.7192 29.9496 53.631C29.433 52.6662 29.5686 51.591 29.646 50.6214C29.6095 50.4135 29.6281 50.1996 29.7 50.001C29.727 49.677 29.76 49.3596 29.7876 49.0362C29.2173 48.5941 28.8249 47.9618 28.6817 47.2545C28.5385 46.5473 28.6542 45.8122 29.0076 45.183C29.8026 43.836 31.7796 43.4208 33.393 44.718C33.7446 45 34.0002 45.4128 34.365 45.669C34.545 45.7974 34.7898 45.7038 34.992 45.6756C35.3916 45.5959 35.8063 45.646 36.1754 45.8187C36.5445 45.9914 36.8486 46.2777 37.0434 46.6356C37.5936 47.676 37.3344 49.3098 36.9492 50.4156C37.1964 50.7764 37.2904 51.2205 37.2107 51.6505C37.1309 52.0805 36.8839 52.4613 36.5238 52.7094C36.5304 52.9458 36.5304 53.175 36.5376 53.4114C37.3682 53.3664 38.2001 53.4714 38.9934 53.7216C44.0184 55.032 46.899 58.9122 47.6706 63.849C47.8265 65.0022 47.8649 66.1681 47.7852 67.329C47.7853 67.366 47.778 67.4026 47.7636 67.4367C47.7493 67.4707 47.7283 67.5016 47.7018 67.5274C47.6754 67.5532 47.644 67.5734 47.6096 67.5869C47.5751 67.6003 47.5383 67.6067 47.5014 67.6056C46.9842 71.958 44.1228 74.706 38.9664 73.4826C38.9328 73.5702 38.8986 73.6512 38.865 73.7388C39.9897 76.0787 40.8433 78.5395 41.409 81.0732C42.3174 84.969 43.4184 93.6084 43.7772 97.2666C53.0046 97.2666 59.1036 97.1076 59.1678 97.044C64.8414 97.2198 70.0242 97.329 75.7926 97.233C76.8372 89.5332 78.534 81.8838 80.28 74.3598C80.2596 74.2584 80.2326 74.157 80.2122 74.0598C75.6222 74.004 71.1168 72.21 70.3548 67.6836C70.2948 67.704 70.2348 67.7298 70.1748 67.7508C69.9576 67.8282 69.7836 67.596 69.8238 67.4004C70.791 62.7054 71.6292 59.085 75.3972 55.6938C76.9105 54.2268 78.9114 53.3691 81.0174 53.2848C80.7227 52.8115 80.5555 52.2699 80.532 51.7128C80.2785 51.5686 80.0708 51.3558 79.9328 51.0989C79.7948 50.8419 79.732 50.5513 79.7518 50.2603C79.7715 49.9693 79.8729 49.6898 80.0444 49.4538C80.2158 49.2179 80.4503 49.0351 80.721 48.9264C80.7342 48.771 80.7546 48.609 80.7678 48.4542C80.6005 48.2503 80.4972 48.0015 80.4708 47.739C80.4598 47.3721 80.5241 47.0067 80.6598 46.6656C80.7726 46.2594 80.7054 45.6162 81.375 45.2556C81.478 45.0913 81.619 44.9541 81.786 44.8555C81.9531 44.757 82.1413 44.6999 82.335 44.6892C82.3416 44.682 82.3488 44.6688 82.3554 44.6622C82.3853 44.618 82.4268 44.583 82.4754 44.5608C82.7568 44.1078 83.103 44.0532 83.859 43.731C83.8969 43.71 83.939 43.6977 83.9823 43.695C84.0256 43.6923 84.0689 43.6992 84.1091 43.7154C84.1493 43.7315 84.1855 43.7565 84.2149 43.7883C84.2442 43.8202 84.2662 43.8582 84.279 43.8996C84.3228 44.0922 84.1818 43.815 84.8256 44.1828C85.0482 44.046 85.1856 44.2356 85.338 44.2776C85.574 44.2624 85.8109 44.2646 86.0466 44.2842C86.1213 44.2856 86.1925 44.3159 86.2453 44.3687C86.2981 44.4215 86.3284 44.4928 86.3298 44.5674V44.6274C86.5092 44.7319 86.666 44.871 86.7911 45.0367C86.9163 45.2023 87.0073 45.3911 87.0588 45.5922C87.2328 45.6391 87.3921 45.7293 87.5219 45.8544C87.6517 45.9794 87.7477 46.1353 87.801 46.3074C87.9613 46.5197 88.0641 46.7697 88.0995 47.0333C88.1349 47.2969 88.1018 47.5652 88.0032 47.8122C88.1176 47.9208 88.2066 48.0533 88.2638 48.2003C88.3209 48.3473 88.3449 48.5051 88.3338 48.6624C88.3669 49.0828 88.2951 49.5048 88.125 49.8906C88.1807 49.8967 88.2336 49.9182 88.2778 49.9528C88.3219 49.9873 88.3554 50.0336 88.3746 50.0862C88.4027 50.1193 88.4228 50.1584 88.4334 50.2005C88.4439 50.2426 88.4446 50.2865 88.4355 50.3289C88.4263 50.3713 88.4075 50.4111 88.3805 50.4451C88.3535 50.479 88.319 50.5063 88.2798 50.5248C88.4826 50.7808 88.6852 51.0372 88.8876 51.294C89.16 51.6414 88.6896 51.894 88.26 51.9822C88.341 52.1172 88.4286 52.2522 88.5096 52.3872C88.5374 52.4585 88.5391 52.5374 88.5143 52.6098C88.4894 52.6822 88.4397 52.7434 88.374 52.7826ZM32.898 35.9076C32.1188 36.0558 31.3771 36.3584 30.7166 36.7976C30.0561 37.2368 29.4901 37.8036 29.052 38.4648C28.3657 39.5726 27.9798 40.84 27.9324 42.1422C27.9566 42.5618 27.8954 42.9819 27.7524 43.377C27.7272 43.42 27.6912 43.4556 27.648 43.4803C27.6048 43.505 27.5559 43.518 27.5061 43.518C27.4563 43.518 27.4074 43.505 27.3642 43.4803C27.321 43.4556 27.285 43.42 27.2598 43.377C27.0617 42.9349 27.0028 42.4428 27.0912 41.9664C27.3408 38.4756 29.4588 35.3946 32.9004 35.5632C32.9436 35.5671 32.9837 35.5871 33.0128 35.6192C33.042 35.6513 33.058 35.6932 33.0577 35.7365C33.0574 35.7799 33.0408 35.8215 33.0112 35.8532C32.9816 35.8849 32.9412 35.9043 32.898 35.9076ZM45.66 38.2626C45.6258 38.4279 45.562 38.5857 45.4716 38.7282C45.4164 38.8086 45.264 38.8152 45.2418 38.7012C45.2122 38.5056 45.2214 38.306 45.2688 38.1138C45.0666 38.0262 44.8728 37.9338 44.6754 37.8372C44.5482 37.7772 44.6418 37.5804 44.7696 37.6146C44.9658 37.6674 45.1542 37.7292 45.3432 37.7898C45.4104 37.4862 45.489 37.1898 45.579 36.8862C45.6288 36.7182 45.9186 36.7446 45.8964 36.9264C45.8647 37.262 45.8128 37.5954 45.741 37.9248C46.0542 38.0832 45.9786 38.3268 45.66 38.2626ZM58.7874 35.172C59.01 35.1834 59.2326 35.1792 59.4552 35.172C59.4282 34.9632 59.3856 34.761 59.3406 34.5582C59.3341 34.526 59.34 34.4925 59.3573 34.4645C59.3746 34.4365 59.4019 34.4161 59.4337 34.4074C59.4654 34.3988 59.4992 34.4026 59.5283 34.418C59.5574 34.4334 59.5795 34.4593 59.5902 34.4904C59.6613 34.7097 59.718 34.9334 59.76 35.16C60.1778 35.1311 60.5969 35.1265 61.0152 35.1462C61.0347 35.1471 61.0534 35.1548 61.0678 35.168C61.0822 35.1813 61.0914 35.1992 61.0938 35.2186C61.0963 35.238 61.0918 35.2577 61.0811 35.2741C61.0705 35.2905 61.0543 35.3026 61.0356 35.3082C60.6421 35.4307 60.2332 35.4965 59.8212 35.5038C59.8344 35.5782 59.841 35.6592 59.8482 35.7336C59.9282 36.1192 59.9075 36.5188 59.7882 36.894C59.7468 36.981 59.6316 36.9486 59.5992 36.867C59.5254 36.4165 59.4917 35.9603 59.4984 35.5038C59.262 35.4972 59.0262 35.4822 58.7898 35.4636C58.5984 35.4474 58.5984 35.16 58.7874 35.172ZM60.9804 57.42C61.215 64.9692 62.0604 74.9604 62.694 80.2734C62.934 82.3044 63.3144 84.3216 63.5172 86.3592C63.5238 86.4264 63.4572 86.4744 63.3972 86.4792C61.8738 86.6316 60.3402 86.52 58.8222 86.6484C57.5492 86.748 56.2708 86.757 54.9966 86.6754C54.9366 86.6682 54.8688 86.6214 54.8766 86.5554C55.1076 84.1608 56.1792 70.8414 56.4618 66.5754C56.658 63.6138 56.8218 60.6582 56.9952 57.6954C52.986 56.9754 51.0642 53.142 51.9078 49.3968C52.4106 45.7512 55.9548 42.6258 59.8152 43.0542C63.3306 43.4442 66.327 46.3398 66.441 49.9362C66.5101 51.6171 66.0079 53.2718 65.0163 54.6308C64.0247 55.9897 62.6022 56.9729 60.9804 57.42ZM73.5906 41.2338C73.447 41.3426 73.2878 41.429 73.1184 41.49C73.2574 41.8144 73.3571 42.1542 73.4154 42.5022C73.4292 42.6504 73.2198 42.6822 73.152 42.576C72.9876 42.2639 72.861 41.9334 72.7746 41.5914C72.6011 41.6255 72.4251 41.6455 72.2484 41.6514C72.0594 41.658 72.0684 41.3832 72.2484 41.3682C72.3933 41.3532 72.5373 41.3305 72.6798 41.3004C72.5856 41.0106 72.4956 40.7142 72.4098 40.4232C72.3546 40.2348 72.6264 40.1736 72.6936 40.3422C72.8088 40.632 72.9162 40.9224 73.0176 41.2194C73.1862 41.172 73.3542 41.124 73.5234 41.0778C73.5426 41.074 73.5625 41.0768 73.5799 41.0859C73.5973 41.0949 73.611 41.1096 73.6189 41.1276C73.6267 41.1455 73.6282 41.1656 73.623 41.1845C73.6179 41.2034 73.6065 41.2199 73.5906 41.2314V41.2338ZM83.8806 36.207C83.7312 36.2201 83.5806 36.2087 83.4348 36.1734C83.4082 36.3575 83.344 36.5341 83.2464 36.6924C83.2338 36.71 83.2167 36.7239 83.1969 36.7325C83.1771 36.7412 83.1553 36.7443 83.1338 36.7416C83.1124 36.7389 83.0921 36.7305 83.075 36.7172C83.058 36.7038 83.0448 36.6862 83.037 36.666C82.984 36.4819 82.9703 36.2888 82.9968 36.099C82.8348 36.072 82.68 36.0432 82.5168 36.0114C82.3014 35.9688 82.3968 35.6514 82.6044 35.6808C82.7466 35.7 82.8948 35.7144 83.0502 35.7348C83.097 35.4984 83.1504 35.2692 83.1846 35.0748C83.2188 34.8804 83.5446 34.9326 83.5224 35.1216C83.5002 35.3106 83.4954 35.5536 83.475 35.7966C83.6374 35.8252 83.7959 35.8727 83.9472 35.9382C84.096 36.0036 84.009 36.1854 83.88 36.2046L83.8806 36.207Z" fill="#644DF6"/>
<path d="M36.1506 46.8247C35.7258 46.3447 35.145 46.5415 34.5906 46.5751C33.9156 46.6159 33.5514 46.0351 33.1194 45.6103C32.3034 44.8069 30.9228 44.3851 29.9892 45.2593C29.7972 45.4743 29.6503 45.7258 29.5573 45.9987C29.4643 46.2717 29.4271 46.5605 29.4478 46.8481C29.4686 47.1357 29.5469 47.4161 29.6782 47.6729C29.8094 47.9296 29.9909 48.1574 30.2118 48.3427C30.3847 48.478 30.5753 48.5892 30.7782 48.6733C30.6638 49.113 30.5915 49.5626 30.5622 50.0161C30.4969 50.0563 30.4417 50.1111 30.401 50.1761C30.3602 50.2411 30.3349 50.3146 30.3271 50.3909C30.3193 50.4672 30.3291 50.5443 30.3558 50.6162C30.3825 50.6881 30.4254 50.753 30.4812 50.8057C30.3173 51.5554 30.3546 52.3351 30.5892 53.0659C30.7174 53.4039 30.9456 53.6948 31.2434 53.8998C31.5412 54.1048 31.8945 54.2141 32.256 54.2131C32.2428 54.3481 32.2356 54.4897 32.229 54.6247C32.2224 54.7597 32.1768 54.9199 32.2626 55.0363C32.2706 55.0479 32.2809 55.0578 32.293 55.0652C32.305 55.0727 32.3185 55.0775 32.3325 55.0794C32.3465 55.0813 32.3608 55.0803 32.3743 55.0764C32.3879 55.0725 32.4006 55.0657 32.4114 55.0567C32.5314 54.9511 32.499 54.7729 32.499 54.6247C32.4991 54.4916 32.4923 54.3586 32.4786 54.2263C32.9646 54.2467 33.4704 54.2065 33.9426 54.2065C33.9944 54.2036 34.0431 54.1811 34.0788 54.1434C34.1145 54.1057 34.1344 54.0558 34.1344 54.004C34.1344 53.9521 34.1145 53.9022 34.0788 53.8645C34.0431 53.8268 33.9944 53.8043 33.9426 53.8015C32.475 53.8015 31.2678 54.0757 30.8862 52.6681C30.7768 52.1214 30.7585 51.5604 30.8322 51.0079H30.84C31.2858 51.1567 32.2974 51.3925 32.4 50.7043C32.3983 50.6926 32.4006 50.6808 32.4066 50.6707C32.4948 50.6437 32.5956 50.6167 32.6904 50.5963C32.6562 51.1027 32.6238 51.6163 32.562 52.1215C32.5635 52.1765 32.5861 52.2288 32.625 52.2676C32.664 52.3065 32.7164 52.3289 32.7714 52.3303C33.0342 52.3303 33.291 52.3903 33.5514 52.3903C33.72 52.3903 33.8148 52.1257 33.6462 52.0459C33.4417 51.9598 33.2218 51.9165 33 51.9187C33.0474 51.4873 33.0744 51.0487 33.0876 50.6167C33.1375 50.6345 33.1834 50.662 33.2226 50.6977C33.2408 50.7173 33.2644 50.7313 33.2904 50.7379C33.405 51.3793 34.4166 51.1549 34.842 51.0079C35.502 50.7799 35.4576 50.1823 35.0172 49.9621C35.0172 49.9555 35.0172 49.9555 35.0244 49.9489C35.2951 50.0824 35.522 50.2906 35.6784 50.5489C35.7002 50.583 35.7313 50.6103 35.7679 50.6275C35.8046 50.6447 35.8454 50.6513 35.8856 50.6463C35.9258 50.6414 35.9638 50.6251 35.9952 50.5995C36.0266 50.5739 36.0501 50.5399 36.063 50.5015C36.3518 49.8314 36.5099 49.1123 36.5286 48.3829C36.5954 47.8348 36.4611 47.2812 36.1506 46.8247ZM31.7514 50.4211C31.6778 50.569 31.5565 50.6878 31.407 50.7583C31.3869 50.7628 31.366 50.7616 31.3466 50.7546C31.3272 50.7477 31.3102 50.7354 31.2976 50.7191C31.285 50.7029 31.2773 50.6833 31.2754 50.6628C31.2736 50.6424 31.2776 50.6217 31.287 50.6035C31.38 50.4511 31.7886 50.2333 31.7514 50.4211ZM34.2612 50.3131C34.1163 50.4808 33.9397 50.6185 33.7416 50.7181C33.6402 50.7571 33.5982 50.6221 33.6474 50.5561C33.7915 50.4009 33.9659 50.2769 34.1598 50.1919C34.2342 50.1715 34.302 50.2525 34.26 50.3131H34.2612ZM34.7538 49.8811C34.5064 49.8347 34.2517 49.8467 34.0098 49.9159C33.7678 49.9852 33.5454 50.1099 33.36 50.2801C32.8536 49.9909 33.1914 50.5843 32.982 49.1263C32.9628 48.9913 32.7666 49.0387 32.7594 49.1599C32.7394 49.5043 32.7194 49.8485 32.6994 50.1925C32.57 50.226 32.448 50.2832 32.3394 50.3611C32.1444 49.9705 31.3824 49.8073 30.9222 49.8811C30.957 49.5065 30.9684 49.1302 30.9564 48.7543C31.4103 48.8831 31.8809 48.9438 32.3526 48.9343C33.1607 48.9321 33.9677 48.8758 34.7682 48.7657C34.7871 49.1374 34.7823 49.5099 34.7538 49.8811ZM36.0894 48.3211C36.0707 48.8961 35.9638 49.465 35.7726 50.0077C35.6354 49.8583 35.4761 49.7309 35.3004 49.6297C35.3274 49.2859 35.349 48.9349 35.3742 48.5905C35.3755 48.5516 35.3653 48.5133 35.345 48.4801C35.3247 48.447 35.2951 48.4206 35.2599 48.4041C35.2247 48.3876 35.1855 48.3818 35.147 48.3874C35.1086 48.393 35.0726 48.4098 35.0436 48.4357C34.9446 48.3115 34.8738 48.4435 33.0264 48.5029C32.398 48.5621 31.7642 48.5165 31.1508 48.3679C30.8698 48.2933 30.6126 48.1482 30.4035 47.9462C30.1945 47.7443 30.0405 47.4923 29.9562 47.2141C29.454 45.4621 31.3128 44.2741 33.033 46.1143C33.3032 46.4637 33.6529 46.7437 34.053 46.9309C34.92 47.2477 36.1608 46.1035 36.0894 48.3229V48.3211Z" fill="#252525"/>
<path d="M85.6416 49.1118C85.5406 49.0366 85.4238 48.9856 85.3001 48.9627C85.1764 48.9397 85.049 48.9454 84.9279 48.9793C84.8067 49.0131 84.6949 49.0743 84.601 49.1582C84.5071 49.242 84.4337 49.3462 84.3864 49.4628C84.2571 49.405 84.1164 49.3773 83.9748 49.3818C83.9748 49.1322 83.9748 48.876 83.9544 48.6264C83.9466 48.5118 83.7582 48.471 83.739 48.5994C83.6964 48.8754 83.6712 49.1526 83.6508 49.4292C83.5976 49.4455 83.5475 49.4707 83.5026 49.5036C83.4434 49.3358 83.3328 49.1909 83.1864 49.0896C83.0401 48.9884 82.8656 48.9358 82.6876 48.9396C82.5097 48.9433 82.3375 49.0031 82.1956 49.1104C82.0536 49.2177 81.9491 49.367 81.897 49.5372C81.8551 49.698 81.8641 49.8678 81.9226 50.0232C81.9812 50.1787 82.0865 50.3122 82.224 50.4054C82.3615 50.4986 82.5246 50.5469 82.6907 50.5437C82.8568 50.5405 83.0178 50.4859 83.1516 50.3874C83.2562 50.332 83.3458 50.2521 83.4128 50.1545C83.4798 50.0569 83.5221 49.9445 83.5362 49.827C83.5698 49.8072 83.604 49.7934 83.6376 49.773C83.625 49.9344 83.5926 50.7114 83.5902 50.772C83.5752 51.1194 83.4918 51.4878 83.7048 51.5412C83.9835 51.597 84.2707 51.5945 84.5484 51.534C84.6972 51.501 84.6768 51.2976 84.5484 51.2508C84.3394 51.2121 84.1262 51.2008 83.9142 51.2172C83.9151 51.0277 83.9263 50.8384 83.9478 50.6502C83.9796 49.7502 83.9628 49.8606 83.9748 49.7058C84.3066 49.7244 84.2784 49.8306 84.339 49.8612C84.3632 49.9973 84.4214 50.1251 84.5082 50.2327C84.595 50.3403 84.7076 50.4242 84.8355 50.4767C84.9634 50.5292 85.1024 50.5485 85.2398 50.5329C85.3772 50.5173 85.5083 50.4672 85.6212 50.3874C85.7312 50.3221 85.8227 50.2298 85.8869 50.1191C85.9511 50.0085 85.9859 49.8832 85.988 49.7553C85.99 49.6274 85.9593 49.5011 85.8986 49.3884C85.838 49.2758 85.7495 49.1805 85.6416 49.1118ZM82.6662 49.4766C82.5756 49.5534 82.5318 49.5966 82.5048 49.6188C82.401 49.7076 82.2996 49.6434 82.3554 49.5306C82.4112 49.4178 82.6002 49.2504 82.6932 49.3614C82.7008 49.3811 82.7023 49.4026 82.6975 49.4232C82.6927 49.4437 82.6818 49.4623 82.6662 49.4766ZM84.9804 49.4628C84.9235 49.562 84.8505 49.651 84.7644 49.7262C84.6888 49.809 84.5364 49.7118 84.609 49.6182C84.6816 49.5246 84.729 49.4688 84.825 49.3548C84.8406 49.3376 84.8618 49.3266 84.8849 49.324C84.9079 49.3214 84.9312 49.3272 84.9502 49.3404C84.9693 49.3537 84.9828 49.3734 84.9884 49.3959C84.9939 49.4184 84.9911 49.4422 84.9804 49.4628Z" fill="#252525"/>
</svg>
