<svg width="24" height="24" viewBox="0 0 24 24" fill="none" xmlns="http://www.w3.org/2000/svg">
<mask id="mask0_1236_9163" style="mask-type:alpha" maskUnits="userSpaceOnUse" x="0" y="0" width="24" height="24">
<rect width="24" height="24" fill="#D9D9D9"/>
</mask>
<g mask="url(#mask0_1236_9163)">
<path d="M10.95 13.7L9.52499 12.275C9.32499 12.075 9.09166 11.975 8.82499 11.975C8.55833 11.975 8.32499 12.075 8.12499 12.275C7.92499 12.475 7.82499 12.7125 7.82499 12.9875C7.82499 13.2625 7.92499 13.5 8.12499 13.7L10.25 15.85C10.45 16.05 10.6833 16.15 10.95 16.15C11.2167 16.15 11.45 16.05 11.65 15.85L15.9 11.6C16.1 11.4 16.2 11.1625 16.2 10.8875C16.2 10.6125 16.1 10.375 15.9 10.175C15.7 9.975 15.4625 9.875 15.1875 9.875C14.9125 9.875 14.675 9.975 14.475 10.175L10.95 13.7ZM12 22C10.75 22 9.57916 21.7625 8.48749 21.2875C7.39583 20.8125 6.44583 20.1708 5.63749 19.3625C4.82916 18.5542 4.18749 17.6042 3.71249 16.5125C3.23749 15.4208 2.99999 14.25 2.99999 13C2.99999 11.75 3.23749 10.5792 3.71249 9.4875C4.18749 8.39583 4.82916 7.44583 5.63749 6.6375C6.44583 5.82917 7.39583 5.1875 8.48749 4.7125C9.57916 4.2375 10.75 4 12 4C13.25 4 14.4208 4.2375 15.5125 4.7125C16.6042 5.1875 17.5542 5.82917 18.3625 6.6375C19.1708 7.44583 19.8125 8.39583 20.2875 9.4875C20.7625 10.5792 21 11.75 21 13C21 14.25 20.7625 15.4208 20.2875 16.5125C19.8125 17.6042 19.1708 18.5542 18.3625 19.3625C17.5542 20.1708 16.6042 20.8125 15.5125 21.2875C14.4208 21.7625 13.25 22 12 22ZM2.04999 7.3C1.86666 7.11667 1.77499 6.88333 1.77499 6.6C1.77499 6.31667 1.86666 6.08333 2.04999 5.9L4.89999 3.05C5.08333 2.86667 5.31666 2.775 5.59999 2.775C5.88333 2.775 6.11666 2.86667 6.29999 3.05C6.48333 3.23333 6.57499 3.46667 6.57499 3.75C6.57499 4.03333 6.48333 4.26667 6.29999 4.45L3.44999 7.3C3.26666 7.48333 3.03333 7.575 2.74999 7.575C2.46666 7.575 2.23333 7.48333 2.04999 7.3ZM21.95 7.3C21.7667 7.48333 21.5333 7.575 21.25 7.575C20.9667 7.575 20.7333 7.48333 20.55 7.3L17.7 4.45C17.5167 4.26667 17.425 4.03333 17.425 3.75C17.425 3.46667 17.5167 3.23333 17.7 3.05C17.8833 2.86667 18.1167 2.775 18.4 2.775C18.6833 2.775 18.9167 2.86667 19.1 3.05L21.95 5.9C22.1333 6.08333 22.225 6.31667 22.225 6.6C22.225 6.88333 22.1333 7.11667 21.95 7.3ZM12 20C13.95 20 15.6042 19.3208 16.9625 17.9625C18.3208 16.6042 19 14.95 19 13C19 11.05 18.3208 9.39583 16.9625 8.0375C15.6042 6.67917 13.95 6 12 6C10.05 6 8.39583 6.67917 7.03749 8.0375C5.67916 9.39583 4.99999 11.05 4.99999 13C4.99999 14.95 5.67916 16.6042 7.03749 17.9625C8.39583 19.3208 10.05 20 12 20Z" fill="#ffffff"/>
</g>
</svg>
