<svg width="38" height="20" viewBox="0 0 38 20" fill="none" xmlns="http://www.w3.org/2000/svg">
<rect width="38" height="20" rx="2" fill="#02894C"/>
<path d="M15.0778 5.45981C16.1665 4.51636 17.5594 3.99794 19 4.00001C22.3138 4.00001 25 6.68621 25 10C25 11.2816 24.598 12.4696 23.914 13.444L22 10H23.8C23.8001 9.05898 23.5235 8.13869 23.0048 7.35356C22.486 6.56843 21.748 5.9531 20.8823 5.58408C20.0167 5.21506 19.0616 5.10863 18.136 5.27802C17.2103 5.44741 16.3549 5.88515 15.676 6.53681L15.0778 5.45981ZM22.9222 14.5402C21.8335 15.4837 20.4406 16.0021 19 16C15.6862 16 13 13.3138 13 10C13 8.71841 13.402 7.53041 14.086 6.55601L16 10H14.2C14.1999 10.941 14.4765 11.8613 14.9952 12.6465C15.514 13.4316 16.252 14.0469 17.1177 14.4159C17.9833 14.785 18.9384 14.8914 19.864 14.722C20.7897 14.5526 21.6451 14.1149 22.324 13.4632L22.9222 14.5402Z" fill="white"/>
</svg>
