<svg width="24" height="24" viewBox="0 0 24 24" fill="none" xmlns="http://www.w3.org/2000/svg">
<path d="M18.7651 15.7594C18.8042 15.5601 18.7402 15.3548 18.5991 15.2113L9.93115 6.54452L10.708 5.76744C10.8218 5.65364 10.8848 5.49931 10.8848 5.33795C10.8848 5.17659 10.8208 5.02246 10.708 4.90726L8.92628 3.12792C8.81249 3.01412 8.65816 2.95131 8.4962 2.95131C8.33484 2.95131 8.18071 3.01533 8.06611 3.12792L7.5417 3.65474C7.12586 3.23469 6.31807 2.42208 4.74624 0.843223C3.69963 -0.205199 2.17415 -0.28929 1.21805 0.666613C0.706885 1.17678 0.491542 1.80194 0.595902 2.47325C0.682602 3.03199 0.994479 3.59312 1.49621 4.09486C3.07166 5.66428 3.88406 6.47227 4.30472 6.89092L3.67775 7.51849C3.44113 7.75591 3.44113 8.14023 3.67775 8.37725L5.4571 10.1566C5.57631 10.2752 5.73185 10.3346 5.88718 10.3346C6.04252 10.3346 6.19866 10.274 6.31727 10.1566L7.09495 9.37972L15.7603 18.0465C15.8777 18.1615 16.032 18.2245 16.191 18.2245C16.2301 18.2245 16.2682 18.2199 16.3086 18.2124C16.8222 18.1117 17.7391 17.8887 18.0889 17.5351C18.44 17.1853 18.6631 16.2717 18.7651 15.7594ZM5.88819 8.86955L4.96781 7.94777L5.59718 7.31779C5.71218 7.20279 5.77439 7.04384 5.77319 6.88128C5.77199 6.71872 5.70254 6.56098 5.58574 6.44839C5.46472 6.33199 2.35618 3.23589 2.35618 3.23589C2.0425 2.92261 1.84502 2.58584 1.79866 2.28801C1.75471 2.00805 1.84723 1.75778 2.07903 1.52759C2.57434 1.02947 3.31329 1.12781 3.88747 1.70319C3.88747 1.70319 6.99963 4.82899 7.09215 4.92513C7.20373 5.04855 7.36208 5.121 7.52705 5.12562C7.68841 5.12562 7.85378 5.06501 7.97199 4.9476L8.4986 4.41978L9.41979 5.34016L5.88819 8.86955ZM17.2466 16.6645C17.1483 16.7367 16.778 16.859 16.3842 16.9527L7.99085 8.56109L9.11012 7.44142L17.5027 15.834C17.4092 16.2268 17.294 16.592 17.2466 16.6645ZM19.6917 20.7145C19.6917 21.4249 19.1163 22.0001 18.4044 22.0001C17.694 22.0001 17.1162 21.4249 17.1162 20.7145C17.1162 20.0038 18.4044 18.0976 18.4044 18.0976C18.4044 18.0976 19.6917 20.0038 19.6917 20.7145Z" fill="#ffffff"/>
</svg>
