<svg width="24" height="24" viewBox="0 0 24 24" fill="none" xmlns="http://www.w3.org/2000/svg">
<path d="M10.8 19.04C8.72 20.56 5.84 20.32 3.92 18.48C1.84 16.4 1.84 13.04 3.92 10.96L10.88 4C12 2.88 13.36 2.4 14.72 2.4C16.08 2.4 17.44 2.88 18.48 3.92C20.32 5.76 20.56 8.72 19.04 10.8C18.32 10.56 17.6 10.4 16.8 10.4C16.56 10.4 16.32 10.4 16.08 10.48L16.72 9.84C17.84 8.72 17.84 6.88 16.72 5.76C16.16 5.12 15.44 4.8 14.72 4.8C13.92 4.8 13.2 5.12 12.64 5.68L9.6 8.64L12.72 11.76C11.28 12.96 10.32 14.72 10.32 16.72C10.4 17.6 10.56 18.32 10.8 19.04ZM19.6 12.88C18.8 12.32 17.84 12 16.8 12C14.16 12 12 14.16 12 16.8C12 17.84 12.32 18.8 12.88 19.6L19.6 12.88ZM20.72 14L14 20.72C14.8 21.28 15.76 21.6 16.8 21.6C19.44 21.6 21.6 19.44 21.6 16.8C21.6 15.76 21.28 14.8 20.72 14Z" fill="#ffffff"/>
</svg>
