<svg xmlns="http://www.w3.org/2000/svg" width="18" height="18" viewBox="0 0 18 18" fill="none">
  <path d="M15.7139 1.87074L16.1253 2.27769C16.6922 2.83915 16.6064 3.83447 15.9321 4.50077L7.44843 12.893L4.69978 13.8876C4.35463 14.0132 4.01855 13.8504 3.95021 13.5255C3.9272 13.4076 3.93807 13.2858 3.98159 13.1737L5.00658 10.4313L13.4666 2.0618C14.1408 1.3955 15.147 1.30928 15.7139 1.87074ZM7.07818 2.70534C7.16974 2.70534 7.26041 2.72318 7.34501 2.75784C7.42961 2.79251 7.50647 2.84331 7.57122 2.90736C7.63597 2.97141 7.68733 3.04745 7.72237 3.13114C7.75741 3.21482 7.77545 3.30451 7.77545 3.39509C7.77545 3.48567 7.75741 3.57536 7.72237 3.65905C7.68733 3.74273 7.63597 3.81877 7.57122 3.88282C7.50647 3.94687 7.42961 3.99768 7.34501 4.03234C7.26041 4.067 7.16974 4.08485 7.07818 4.08485H4.28909C3.91923 4.08485 3.56452 4.23019 3.303 4.48889C3.04147 4.7476 2.89454 5.09848 2.89454 5.46435V13.7414C2.89454 14.1073 3.04147 14.4581 3.303 14.7168C3.56452 14.9756 3.91923 15.1209 4.28909 15.1209H12.6564C13.0262 15.1209 13.3809 14.9756 13.6424 14.7168C13.904 14.4581 14.0509 14.1073 14.0509 13.7414V10.9824C14.0509 10.7994 14.1244 10.624 14.2551 10.4946C14.3859 10.3653 14.5632 10.2926 14.7482 10.2926C14.9331 10.2926 15.1104 10.3653 15.2412 10.4946C15.372 10.624 15.4454 10.7994 15.4454 10.9824V13.7414C15.4454 14.4731 15.1516 15.1749 14.6285 15.6923C14.1055 16.2097 13.3961 16.5004 12.6564 16.5004H4.28909C3.54938 16.5004 2.83996 16.2097 2.3169 15.6923C1.79385 15.1749 1.5 14.4731 1.5 13.7414V5.46435C1.5 4.73262 1.79385 4.03085 2.3169 3.51344C2.83996 2.99602 3.54938 2.70534 4.28909 2.70534H7.07818Z" fill="#7B7B7B"/>
</svg>