<svg width="12" height="20" viewBox="0 0 12 20" fill="none" xmlns="http://www.w3.org/2000/svg">
<path d="M4.2773 9.97225L11.3607 17.0556C11.6292 17.3241 11.7588 17.6482 11.7496 18.0278C11.7403 18.4074 11.6014 18.7315 11.3329 19C11.0644 19.2686 10.7357 19.4028 10.3468 19.4028C9.95787 19.4028 9.62918 19.2686 9.36068 19L1.30509 10.9445C1.15696 10.7963 1.05279 10.6436 0.992594 10.4862C0.932428 10.3287 0.902344 10.1574 0.902344 9.97225C0.902344 9.78708 0.932428 9.61579 0.992594 9.45837C1.05279 9.30096 1.15696 9.14818 1.30509 9.00004L9.38843 0.916707C9.65696 0.64818 9.98566 0.513916 10.3746 0.513916C10.7634 0.513916 11.0921 0.64818 11.3607 0.916707C11.6292 1.18521 11.7634 1.5139 11.7634 1.90279C11.7634 2.29168 11.6292 2.62039 11.3607 2.88892L4.2773 9.97225Z" fill="#252525"/>
</svg>
