<svg width="18" height="18" viewBox="0 0 18 18" fill="none" xmlns="http://www.w3.org/2000/svg">
<g clip-path="url(#clip0_3804_127046)">
<path d="M2.99922 7.8V7.2H2.39922V7.8H2.99922ZM7.79922 7.8V7.2H7.19922V7.8H7.79922ZM7.79922 12.6H7.19922V13.2H7.79922V12.6ZM16.1992 4.2H16.7992V3.9516L16.624 3.7752L16.1992 4.2ZM12.5992 0.6L13.024 0.1752L12.8476 0H12.5992V0.6ZM2.99922 8.4H4.19922V7.2H2.99922V8.4ZM3.59922 13.2V10.2H2.39922V13.2H3.59922ZM3.59922 10.2V7.8H2.39922V10.2H3.59922ZM4.19922 9.6H2.99922V10.8H4.19922V9.6ZM4.79922 9C4.79922 9.15913 4.736 9.31174 4.62348 9.42426C4.51096 9.53679 4.35835 9.6 4.19922 9.6V10.8C4.67661 10.8 5.13445 10.6104 5.47201 10.2728C5.80958 9.93523 5.99922 9.47739 5.99922 9H4.79922ZM4.19922 8.4C4.35835 8.4 4.51096 8.46321 4.62348 8.57574C4.736 8.68826 4.79922 8.84087 4.79922 9H5.99922C5.99922 8.52261 5.80958 8.06477 5.47201 7.72721C5.13445 7.38964 4.67661 7.2 4.19922 7.2V8.4ZM7.19922 7.8V12.6H8.39922V7.8H7.19922ZM7.79922 13.2H8.99922V12H7.79922V13.2ZM10.7992 11.4V9H9.59922V11.4H10.7992ZM8.99922 7.2H7.79922V8.4H8.99922V7.2ZM10.7992 9C10.7992 8.52261 10.6096 8.06477 10.272 7.72721C9.93445 7.38964 9.47661 7.2 8.99922 7.2V8.4C9.15835 8.4 9.31096 8.46321 9.42348 8.57574C9.53601 8.68826 9.59922 8.84087 9.59922 9H10.7992ZM8.99922 13.2C9.47661 13.2 9.93445 13.0104 10.272 12.6728C10.6096 12.3352 10.7992 11.8774 10.7992 11.4H9.59922C9.59922 11.5591 9.53601 11.7117 9.42348 11.8243C9.31096 11.9368 9.15835 12 8.99922 12V13.2ZM11.9992 7.2V13.2H13.1992V7.2H11.9992ZM12.5992 8.4H15.5992V7.2H12.5992V8.4ZM12.5992 10.8H14.3992V9.6H12.5992V10.8ZM2.39922 6V1.8H1.19922V6H2.39922ZM15.5992 4.2V6H16.7992V4.2H15.5992ZM2.99922 1.2H12.5992V0H2.99922V1.2ZM12.1744 1.0248L15.7744 4.6248L16.624 3.7752L13.024 0.1752L12.1744 1.0248ZM2.39922 1.8C2.39922 1.64087 2.46243 1.48826 2.57495 1.37574C2.68748 1.26321 2.84009 1.2 2.99922 1.2V0C2.52183 0 2.06399 0.189642 1.72643 0.527208C1.38886 0.864773 1.19922 1.32261 1.19922 1.8H2.39922ZM1.19922 14.4V16.2H2.39922V14.4H1.19922ZM2.99922 18H14.9992V16.8H2.99922V18ZM16.7992 16.2V14.4H15.5992V16.2H16.7992ZM14.9992 18C15.4766 18 15.9344 17.8104 16.272 17.4728C16.6096 17.1352 16.7992 16.6774 16.7992 16.2H15.5992C15.5992 16.3591 15.536 16.5117 15.4235 16.6243C15.311 16.7368 15.1583 16.8 14.9992 16.8V18ZM1.19922 16.2C1.19922 16.6774 1.38886 17.1352 1.72643 17.4728C2.06399 17.8104 2.52183 18 2.99922 18V16.8C2.84009 16.8 2.68748 16.7368 2.57495 16.6243C2.46243 16.5117 2.39922 16.3591 2.39922 16.2H1.19922Z" fill="black"/>
</g>
<defs>
<clipPath id="clip0_3804_127046">
<rect width="18" height="18" fill="white"/>
</clipPath>
</defs>
</svg>
