<svg width="24" height="24" viewBox="0 0 24 24" fill="none" xmlns="http://www.w3.org/2000/svg">
<mask id="mask0_1236_9162" style="mask-type:alpha" maskUnits="userSpaceOnUse" x="0" y="0" width="24" height="24">
<rect width="24" height="24" fill="#D9D9D9"/>
</mask>
<g mask="url(#mask0_1236_9162)">
<path d="M11.95 2C13 2 14.025 2.15833 15.025 2.475C16.025 2.79167 16.9417 3.24167 17.775 3.825C18.0083 3.99167 18.1417 4.2125 18.175 4.4875C18.2083 4.7625 18.1333 5.00833 17.95 5.225C17.7667 5.45833 17.5333 5.59167 17.25 5.625C16.9667 5.65833 16.7083 5.58333 16.475 5.4C15.875 4.93333 15.1708 4.58333 14.3625 4.35C13.5542 4.11667 12.75 4 11.95 4C10.3 4 8.87917 4.43333 7.6875 5.3C6.49584 6.16667 5.55 7.20833 4.85 8.425C4.71667 8.675 4.52084 8.85 4.2625 8.95C4.00417 9.05 3.75 9.04167 3.5 8.925C3.23334 8.79167 3.05834 8.59167 2.975 8.325C2.89167 8.05833 2.91667 7.8 3.05 7.55C3.9 5.98333 5.07917 4.66667 6.5875 3.6C8.09584 2.53333 9.88334 2 11.95 2ZM11.875 22C10.025 22 8.32917 21.5042 6.7875 20.5125C5.24584 19.5208 4.00834 18.2167 3.075 16.6C2.94167 16.35 2.90834 16.0833 2.975 15.8C3.04167 15.5167 3.19167 15.3 3.425 15.15C3.65834 15 3.90834 14.9625 4.175 15.0375C4.44167 15.1125 4.64167 15.2667 4.775 15.5C5.525 16.8167 6.51667 17.8958 7.75 18.7375C8.98334 19.5792 10.3583 20 11.875 20C14.125 20 16.0417 19.2167 17.625 17.65C19.2083 16.0833 20 14.1917 20 11.975C19.9667 11.7083 20.0583 11.475 20.275 11.275C20.4917 11.075 20.7333 10.9833 21 11C21.3333 11.0167 21.5792 11.1167 21.7375 11.3C21.8958 11.4833 21.9833 11.725 22 12.025C22 13.4083 21.7375 14.7083 21.2125 15.925C20.6875 17.1417 19.9667 18.2 19.05 19.1C18.1333 20 17.0583 20.7083 15.825 21.225C14.5917 21.7417 13.275 22 11.875 22ZM8.4 9.475L7.85 10.025C7.7 10.175 7.62917 10.35 7.6375 10.55C7.64584 10.75 7.725 10.925 7.875 11.075C8.025 11.225 8.2 11.3 8.4 11.3C8.6 11.3 8.775 11.225 8.925 11.075L9.8 10.2C10 10 10.1 9.76667 10.1 9.5C10.1 9.23333 10 9 9.8 8.8L8.9 7.9C8.76667 7.76667 8.59167 7.7 8.375 7.7C8.15834 7.7 7.98334 7.76667 7.85 7.9C7.7 8.05 7.625 8.225 7.625 8.425C7.625 8.625 7.7 8.8 7.85 8.95L8.4 9.475ZM21 9C20.45 9 19.9792 8.80417 19.5875 8.4125C19.1958 8.02083 19 7.55 19 7C19 6.4 19.1833 5.80833 19.55 5.225C19.9167 4.64167 20.2583 4.10833 20.575 3.625C20.625 3.54167 20.6875 3.48333 20.7625 3.45C20.8375 3.41667 20.9167 3.4 21 3.4C21.0833 3.4 21.1625 3.41667 21.2375 3.45C21.3125 3.48333 21.375 3.54167 21.425 3.625C21.7417 4.10833 22.0833 4.64167 22.45 5.225C22.8167 5.80833 23 6.4 23 7C23 7.55 22.8042 8.02083 22.4125 8.4125C22.0208 8.80417 21.55 9 21 9ZM15.625 9.475L16.15 8.95C16.3 8.8 16.375 8.625 16.375 8.425C16.375 8.225 16.3 8.05 16.15 7.9C16 7.75 15.825 7.675 15.625 7.675C15.425 7.675 15.25 7.75 15.1 7.9L14.2 8.8C14 9 13.9 9.23333 13.9 9.5C13.9 9.76667 14 10 14.2 10.2L15.1 11.1C15.25 11.25 15.4292 11.3208 15.6375 11.3125C15.8458 11.3042 16.025 11.225 16.175 11.075C16.325 10.925 16.4 10.7458 16.4 10.5375C16.4 10.3292 16.325 10.15 16.175 10L15.625 9.475ZM8.125 17C8.24167 17 8.3625 16.9667 8.4875 16.9C8.6125 16.8333 8.70834 16.75 8.775 16.65C9.14167 16.15 9.6 15.75 10.15 15.45C10.7 15.15 11.3167 15 12 15C12.6833 15 13.3 15.15 13.85 15.45C14.4 15.75 14.8583 16.15 15.225 16.65C15.2917 16.75 15.3833 16.8333 15.5 16.9C15.6167 16.9667 15.7333 17 15.85 17C16.15 17 16.3708 16.8667 16.5125 16.6C16.6542 16.3333 16.625 16.05 16.425 15.75C15.9917 15.1 15.3833 14.5625 14.6 14.1375C13.8167 13.7125 12.95 13.5 12 13.5C11.5667 13.5 11.1417 13.5458 10.725 13.6375C10.3083 13.7292 9.91667 13.8667 9.55 14.05L6 12C6 11.7333 5.93334 11.4833 5.8 11.25C5.66667 11.0167 5.48334 10.8333 5.25 10.7C4.88334 10.5 4.50417 10.4542 4.1125 10.5625C3.72084 10.6708 3.41667 10.9 3.2 11.25C3 11.6167 2.95417 11.9958 3.0625 12.3875C3.17084 12.7792 3.4 13.0833 3.75 13.3C3.98334 13.4333 4.23334 13.5 4.5 13.5C4.76667 13.5 5.01667 13.4333 5.25 13.3L8.2 15C8.06667 15.1333 7.95 15.2667 7.85 15.4L7.55 15.8C7.36667 16.0833 7.34584 16.3542 7.4875 16.6125C7.62917 16.8708 7.84167 17 8.125 17Z" fill="#ffffff"/>
</g>
</svg>
