<svg width="15" height="14" viewBox="0 0 15 14" fill="none" xmlns="http://www.w3.org/2000/svg">
<g clip-path="url(#clip0_962_2)">
<path d="M13.7594 4.38345L12.7453 5.37793C12.9029 5.89448 12.9816 6.43517 12.9816 7C12.9816 10.1621 10.3577 12.7352 7.13324 12.7352C3.90876 12.7352 1.28979 10.1621 1.28979 7C1.28979 3.83793 3.91369 1.26483 7.13817 1.26483C8.58549 1.26483 9.91467 1.78621 10.9386 2.64552L11.8543 1.74759C10.5497 0.617931 8.89071 0 7.13817 0C5.23302 0 3.44109 0.728966 2.09222 2.05172C0.743354 3.36966 0 5.13172 0 7C0 8.86828 0.743354 10.6255 2.09222 11.9483C3.44109 13.271 5.23302 14 7.13817 14C9.04332 14 10.8352 13.271 12.1841 11.9483C13.533 10.6255 14.2763 8.86828 14.2763 7C14.2763 6.08759 14.0991 5.20414 13.7644 4.38345H13.7594Z" fill="#0A9355"/>
<path d="M14.9113 2.53449L13.5329 3.88622L12.5532 4.84691L7.29069 10.0076C7.17747 10.1186 6.9904 10.1186 6.87717 10.0076L5.51846 8.67518L3.48531 6.68139C3.37208 6.57036 3.37208 6.38691 3.48531 6.27587L4.63726 5.14622C4.75049 5.03518 4.93756 5.03518 5.05078 5.14622L6.87717 6.93725C6.9904 7.04829 7.17747 7.04829 7.29069 6.93725L13.3458 0.999322C13.4591 0.888288 13.6461 0.888288 13.7594 0.999322L14.9113 2.12898C15.0245 2.24001 15.0245 2.42346 14.9113 2.53449Z" fill="#0A9355"/>
</g>
<defs>
<clipPath id="clip0_962_2">
<rect width="15" height="14" fill="white"/>
</clipPath>
</defs>
</svg>
