<svg xmlns="http://www.w3.org/2000/svg" width="17" height="17" viewBox="0 0 17 17" fill="none">
  <g clip-path="url(#clip0_1108_170148)">
    <path d="M13.7837 8.42064H3.22559V0H10.9235L13.7837 3.01556V8.42064Z" fill="#D5C2B0"/>
    <path d="M13.7831 3.01556L10.9229 0V3.01556H13.7831Z" fill="#D5AD80"/>
    <path d="M14.2584 11.0484H2.74121V1.8606H11.1436L14.2584 5.14068V11.0484Z" fill="#FFD9B5"/>
    <path d="M17 7.81226H0V17H17V7.81226Z" fill="#F8B567"/>
    <path d="M11.4069 13.0586H5.60159C5.15176 13.0586 4.77832 13.4377 4.77832 13.9139C4.77832 14.39 5.14327 14.7692 5.60159 14.7692H11.4069C11.8567 14.7692 12.2301 14.39 12.2301 13.9139C12.2301 13.4377 11.8652 13.0586 11.4069 13.0586Z" fill="#653F18"/>
    <path d="M11.4069 13.2615H5.60159C5.15176 13.2615 4.77832 13.6406 4.77832 14.1168C4.77832 14.5929 5.14327 14.9721 5.60159 14.9721H11.4069C11.8567 14.9721 12.2301 14.5929 12.2301 14.1168C12.2301 13.6406 11.8652 13.2615 11.4069 13.2615Z" fill="#B26E2D"/>
    <path d="M14.2591 5.14046L11.1357 1.85156V5.14046H14.2591Z" fill="#FFD09A"/>
    <path d="M10.4992 3.35059H4.02344V3.65038H10.4992V3.35059Z" fill="black"/>
    <path d="M10.4992 4.61157H4.02344V4.91136H10.4992V4.61157Z" fill="black"/>
    <path d="M12.9605 5.86353H4.02344V6.16332H12.9605V5.86353Z" fill="black"/>
    <path d="M12.9605 7.12451H4.02344V7.4243H12.9605V7.12451Z" fill="black"/>
  </g>
  <defs>
    <clipPath id="clip0_1108_170148">
      <rect width="17" height="17" fill="white"/>
    </clipPath>
  </defs>
</svg>