<svg width="120" height="120" viewBox="0 0 120 120" fill="none" xmlns="http://www.w3.org/2000/svg">
<g clip-path="url(#clip0_615_1424)">
<rect width="120" height="120" fill="white"/>
<mask id="mask0_615_1424" style="mask-type:luminance" maskUnits="userSpaceOnUse" x="0" y="0" width="120" height="120">
<path d="M120 0H0V120H120V0Z" fill="white"/>
</mask>
<g mask="url(#mask0_615_1424)">
<g opacity="0.5">
<path d="M124.988 109.713C134.822 89.1041 139.124 59.2635 116.824 34.777C91.1432 6.57658 48.8153 20.7295 37.8007 28.5558C26.786 36.3821 18.8627 47.9809 20.4534 55.8072C22.6843 66.75 20.5834 70.9677 12.8001 79.3798C8.58835 83.9256 -15.2117 98.9456 -7.45843 131.375C-2.56637 151.843 25.4255 182.61 56.3685 177.419C82.2295 173.084 115.153 130.321 124.988 109.713Z" fill="#644DF6"/>
</g>
<path d="M3.07037 6.13C2.55037 6.13 2.13037 6.55 2.13037 7.07V9.84C2.13037 10.36 2.55037 10.78 3.07037 10.78H32.8904L34.4304 12.32L35.9704 10.78H72.2804V6.14H3.07037V6.13Z" fill="url(#paint0_linear_615_1424)"/>
<path d="M72.2803 6.13V10.77H82.5203L84.0603 12.31L85.6003 10.77H95.8503V6.13H72.2803Z" fill="url(#paint1_linear_615_1424)"/>
<path d="M116.92 6.13H95.8501V10.77H106.28L107.82 12.31L109.36 10.77H116.92C117.44 10.77 117.86 10.35 117.86 9.83V7.06C117.86 6.54 117.44 6.12 116.92 6.12V6.13Z" fill="url(#paint2_linear_615_1424)"/>
<path d="M23.3701 15.15C23.5301 15.13 23.7201 15.11 23.9301 15.11C24.3101 15.11 24.5801 15.2 24.7601 15.36C24.9401 15.53 25.0501 15.76 25.0501 16.09C25.0501 16.42 24.9501 16.7 24.7601 16.89C24.5701 17.08 24.2501 17.18 23.8601 17.18C23.6701 17.18 23.5101 17.18 23.3801 17.16V15.15H23.3701ZM23.6401 16.96C23.7101 16.97 23.8001 16.98 23.9101 16.98C24.4801 16.98 24.7801 16.66 24.7801 16.11C24.7801 15.63 24.5101 15.32 23.9501 15.32C23.8101 15.32 23.7101 15.33 23.6401 15.35V16.97V16.96Z" fill="#FF195C"/>
<path d="M26.4602 16.21H25.6702V16.95H26.5602V17.17H25.4102V15.12H26.5202V15.34H25.6802V15.99H26.4702V16.21H26.4602Z" fill="#FF195C"/>
<path d="M27.33 15.35H26.71V15.13H28.22V15.35H27.6V17.17H27.33V15.35Z" fill="#FF195C"/>
<path d="M28.4502 15.15C28.5802 15.12 28.7802 15.11 28.9602 15.11C29.2402 15.11 29.4202 15.16 29.5502 15.28C29.6502 15.37 29.7102 15.51 29.7102 15.67C29.7102 15.94 29.5402 16.12 29.3202 16.19C29.4802 16.25 29.5702 16.4 29.6202 16.61C29.6902 16.9 29.7402 17.09 29.7802 17.17H29.5102C29.4802 17.11 29.4302 16.94 29.3702 16.68C29.3102 16.4 29.2002 16.29 28.9602 16.28H28.7102V17.17H28.4502V15.15ZM28.7102 16.08H28.9802C29.2602 16.08 29.4402 15.92 29.4402 15.69C29.4402 15.43 29.2502 15.31 28.9702 15.31C28.8402 15.31 28.7502 15.32 28.7102 15.33V16.08Z" fill="#FF195C"/>
<path d="M30.4302 16.53L30.2202 17.17H29.9502L30.6502 15.12H30.9702L31.6702 17.17H31.3902L31.1702 16.53H30.4402H30.4302ZM31.1002 16.32L30.9002 15.73C30.8602 15.6 30.8202 15.48 30.7902 15.36C30.7602 15.48 30.7302 15.61 30.6902 15.73L30.4902 16.32H31.1102H31.1002Z" fill="#FF195C"/>
<path d="M33.34 17.1C33.24 17.15 33.05 17.2 32.8 17.2C32.22 17.2 31.79 16.84 31.79 16.16C31.79 15.48 32.22 15.08 32.86 15.08C33.12 15.08 33.28 15.13 33.35 15.17L33.29 15.39C33.19 15.34 33.05 15.31 32.88 15.31C32.4 15.31 32.08 15.62 32.08 16.15C32.08 16.65 32.37 16.97 32.87 16.97C33.03 16.97 33.2 16.94 33.3 16.89L33.35 17.1H33.34Z" fill="#FF195C"/>
<path d="M34.1503 15.35H33.5303V15.13H35.0403V15.35H34.4203V17.17H34.1503V15.35Z" fill="#FF195C"/>
<path d="M36.9403 16.12C36.9403 16.83 36.5103 17.2 35.9903 17.2C35.4703 17.2 35.0703 16.78 35.0703 16.16C35.0703 15.51 35.4703 15.08 36.0203 15.08C36.5703 15.08 36.9403 15.51 36.9403 16.12ZM35.3503 16.16C35.3503 16.6 35.5903 16.99 36.0003 16.99C36.4103 16.99 36.6603 16.61 36.6603 16.14C36.6603 15.73 36.4503 15.31 36.0103 15.31C35.5703 15.31 35.3503 15.71 35.3503 16.16Z" fill="#FF195C"/>
<path d="M37.2803 15.15C37.4103 15.12 37.6103 15.11 37.7903 15.11C38.0703 15.11 38.2503 15.16 38.3803 15.28C38.4803 15.37 38.5403 15.51 38.5403 15.67C38.5403 15.94 38.3703 16.12 38.1503 16.19C38.3103 16.25 38.4003 16.4 38.4503 16.61C38.5203 16.9 38.5703 17.09 38.6103 17.17H38.3403C38.3103 17.11 38.2603 16.94 38.2003 16.68C38.1403 16.4 38.0303 16.29 37.7903 16.28H37.5403V17.17H37.2803V15.15ZM37.5403 16.08H37.8103C38.0903 16.08 38.2703 15.92 38.2703 15.69C38.2703 15.43 38.0803 15.31 37.8003 15.31C37.6703 15.31 37.5803 15.32 37.5403 15.33V16.08Z" fill="#FF195C"/>
<path d="M38.8801 16.85C39.0001 16.92 39.1701 16.98 39.3501 16.98C39.6201 16.98 39.7801 16.84 39.7801 16.63C39.7801 16.44 39.6701 16.33 39.4001 16.22C39.0701 16.1 38.8601 15.93 38.8601 15.64C38.8601 15.32 39.1201 15.08 39.5201 15.08C39.7301 15.08 39.8801 15.13 39.9701 15.18L39.9001 15.39C39.8301 15.35 39.7001 15.29 39.5101 15.29C39.2301 15.29 39.1201 15.46 39.1201 15.6C39.1201 15.79 39.2401 15.89 39.5301 15.99C39.8801 16.12 40.0501 16.29 40.0501 16.59C40.0501 16.89 39.8201 17.18 39.3301 17.18C39.1301 17.18 38.9201 17.12 38.8101 17.05L38.8801 16.83V16.85Z" fill="#FF195C"/>
<path d="M97.0801 15.15C97.2101 15.13 97.3701 15.11 97.5901 15.11C97.8501 15.11 98.0401 15.17 98.1601 15.28C98.2701 15.38 98.3401 15.53 98.3401 15.71C98.3401 15.89 98.2901 16.04 98.1801 16.15C98.0401 16.3 97.8101 16.37 97.5501 16.37C97.4701 16.37 97.4001 16.37 97.3401 16.35V17.17H97.0801V15.15ZM97.3401 16.13C97.4001 16.14 97.4701 16.15 97.5601 16.15C97.8801 16.15 98.0701 16 98.0701 15.71C98.0701 15.42 97.8801 15.31 97.5901 15.31C97.4701 15.31 97.3901 15.31 97.3401 15.33V16.13Z" fill="#00D579"/>
<path d="M98.7002 15.15C98.8302 15.12 99.0302 15.11 99.2102 15.11C99.4902 15.11 99.6702 15.16 99.8002 15.28C99.9002 15.37 99.9602 15.51 99.9602 15.67C99.9602 15.94 99.7902 16.12 99.5702 16.19C99.7302 16.25 99.8202 16.4 99.8702 16.61C99.9402 16.9 99.9902 17.09 100.03 17.17H99.7602C99.7302 17.11 99.6802 16.94 99.6202 16.68C99.5602 16.4 99.4502 16.29 99.2102 16.28H98.9602V17.17H98.7002V15.15ZM98.9602 16.08H99.2302C99.5102 16.08 99.6902 15.92 99.6902 15.69C99.6902 15.43 99.5002 15.31 99.2202 15.31C99.0902 15.31 99.0002 15.32 98.9602 15.33V16.08Z" fill="#00D579"/>
<path d="M102.09 16.12C102.09 16.83 101.66 17.2 101.14 17.2C100.62 17.2 100.22 16.78 100.22 16.16C100.22 15.51 100.62 15.08 101.17 15.08C101.72 15.08 102.09 15.51 102.09 16.12ZM100.5 16.16C100.5 16.6 100.74 16.99 101.15 16.99C101.56 16.99 101.81 16.61 101.81 16.14C101.81 15.73 101.6 15.31 101.16 15.31C100.72 15.31 100.5 15.71 100.5 16.16Z" fill="#00D579"/>
<path d="M104.16 16.27C104.15 15.98 104.13 15.64 104.13 15.39C104.06 15.63 103.97 15.89 103.87 16.17L103.51 17.16H103.31L102.98 16.18C102.88 15.89 102.8 15.63 102.74 15.39C102.74 15.64 102.72 15.99 102.7 16.29L102.65 17.17H102.4L102.54 15.12H102.88L103.23 16.11C103.31 16.36 103.39 16.59 103.44 16.8C103.49 16.59 103.56 16.37 103.66 16.11L104.02 15.12H104.36L104.49 17.17H104.23L104.18 16.27H104.16Z" fill="#00D579"/>
<path d="M106.62 16.12C106.62 16.83 106.19 17.2 105.67 17.2C105.15 17.2 104.75 16.78 104.75 16.16C104.75 15.51 105.15 15.08 105.7 15.08C106.25 15.08 106.62 15.51 106.62 16.12ZM105.04 16.16C105.04 16.6 105.28 16.99 105.69 16.99C106.1 16.99 106.35 16.61 106.35 16.14C106.35 15.73 106.14 15.31 105.7 15.31C105.26 15.31 105.04 15.71 105.04 16.16Z" fill="#00D579"/>
<path d="M107.28 15.35H106.66V15.13H108.17V15.35H107.55V17.17H107.28V15.35Z" fill="#00D579"/>
<path d="M109.46 16.21H108.67V16.95H109.56V17.17H108.41V15.12H109.52V15.34H108.68V15.99H109.47V16.21H109.46Z" fill="#00D579"/>
<path d="M109.9 15.15C110.03 15.12 110.23 15.11 110.41 15.11C110.69 15.11 110.87 15.16 111 15.28C111.1 15.37 111.16 15.51 111.16 15.67C111.16 15.94 110.99 16.12 110.77 16.19C110.93 16.25 111.02 16.4 111.07 16.61C111.14 16.9 111.19 17.09 111.23 17.17H110.96C110.93 17.11 110.88 16.94 110.82 16.68C110.76 16.4 110.65 16.29 110.41 16.28H110.16V17.17H109.9V15.15ZM110.16 16.08H110.43C110.71 16.08 110.89 15.92 110.89 15.69C110.89 15.43 110.7 15.31 110.42 15.31C110.29 15.31 110.2 15.32 110.16 15.33V16.08Z" fill="#00D579"/>
<path d="M111.49 16.85C111.61 16.92 111.78 16.98 111.96 16.98C112.23 16.98 112.39 16.84 112.39 16.63C112.39 16.44 112.28 16.33 112.01 16.22C111.68 16.1 111.47 15.93 111.47 15.64C111.47 15.32 111.73 15.08 112.13 15.08C112.34 15.08 112.49 15.13 112.58 15.18L112.51 15.39C112.44 15.35 112.31 15.29 112.12 15.29C111.84 15.29 111.73 15.46 111.73 15.6C111.73 15.79 111.85 15.89 112.14 15.99C112.49 16.12 112.66 16.29 112.66 16.59C112.66 16.89 112.43 17.18 111.94 17.18C111.74 17.18 111.53 17.12 111.42 17.05L111.49 16.83V16.85Z" fill="#00D579"/>
<path d="M75.96 15.15C76.09 15.13 76.25 15.11 76.47 15.11C76.73 15.11 76.92 15.17 77.04 15.28C77.15 15.38 77.22 15.53 77.22 15.71C77.22 15.89 77.17 16.04 77.06 16.15C76.92 16.3 76.69 16.37 76.43 16.37C76.35 16.37 76.28 16.37 76.22 16.35V17.17H75.96V15.15ZM76.23 16.13C76.29 16.14 76.36 16.15 76.45 16.15C76.77 16.15 76.96 16 76.96 15.71C76.96 15.42 76.77 15.31 76.48 15.31C76.36 15.31 76.28 15.31 76.23 15.33V16.13Z" fill="#FFB400"/>
<path d="M77.6602 16.53L77.4502 17.17H77.1802L77.8802 15.12H78.2002L78.9002 17.17H78.6202L78.4002 16.53H77.6702H77.6602ZM78.3302 16.32L78.1302 15.73C78.0902 15.6 78.0502 15.48 78.0202 15.36C77.9902 15.48 77.9602 15.61 77.9202 15.73L77.7202 16.32H78.3402H78.3302Z" fill="#FFB400"/>
<path d="M79.1501 16.85C79.2701 16.92 79.4401 16.98 79.6201 16.98C79.8901 16.98 80.0501 16.84 80.0501 16.63C80.0501 16.44 79.9401 16.33 79.6701 16.22C79.3401 16.1 79.1301 15.93 79.1301 15.64C79.1301 15.32 79.3901 15.08 79.7901 15.08C80.0001 15.08 80.1501 15.13 80.2401 15.18L80.1701 15.39C80.1001 15.35 79.9701 15.29 79.7801 15.29C79.5001 15.29 79.3901 15.46 79.3901 15.6C79.3901 15.79 79.5101 15.89 79.8001 15.99C80.1501 16.12 80.3201 16.29 80.3201 16.59C80.3201 16.89 80.0901 17.18 79.6001 17.18C79.4001 17.18 79.1901 17.12 79.0801 17.05L79.1501 16.83V16.85Z" fill="#FFB400"/>
<path d="M80.6398 16.85C80.7598 16.92 80.9298 16.98 81.1098 16.98C81.3798 16.98 81.5398 16.84 81.5398 16.63C81.5398 16.44 81.4298 16.33 81.1598 16.22C80.8298 16.1 80.6198 15.93 80.6198 15.64C80.6198 15.32 80.8798 15.08 81.2798 15.08C81.4898 15.08 81.6398 15.13 81.7298 15.18L81.6598 15.39C81.5898 15.35 81.4598 15.29 81.2698 15.29C80.9898 15.29 80.8798 15.46 80.8798 15.6C80.8798 15.79 80.9998 15.89 81.2898 15.99C81.6398 16.12 81.8098 16.29 81.8098 16.59C81.8098 16.89 81.5798 17.18 81.0898 17.18C80.8898 17.18 80.6798 17.12 80.5698 17.05L80.6398 16.83V16.85Z" fill="#FFB400"/>
<path d="M82.4402 15.12V17.17H82.1802V15.12H82.4402Z" fill="#FFB400"/>
<path d="M83.3502 17.17L82.6802 15.12H82.9702L83.2902 16.13C83.3802 16.41 83.4502 16.66 83.5102 16.89C83.5702 16.65 83.6502 16.39 83.7402 16.13L84.0902 15.12H84.3702L83.6402 17.17H83.3502Z" fill="#FFB400"/>
<path d="M85.6599 16.21H84.8699V16.95H85.7599V17.17H84.6099V15.12H85.7199V15.34H84.8799V15.99H85.6699V16.21H85.6599Z" fill="#FFB400"/>
<path d="M86.0597 16.85C86.1797 16.92 86.3497 16.98 86.5297 16.98C86.7997 16.98 86.9597 16.84 86.9597 16.63C86.9597 16.44 86.8497 16.33 86.5797 16.22C86.2497 16.1 86.0397 15.93 86.0397 15.64C86.0397 15.32 86.2997 15.08 86.6997 15.08C86.9097 15.08 87.0597 15.13 87.1497 15.18L87.0797 15.39C87.0097 15.35 86.8797 15.29 86.6897 15.29C86.4097 15.29 86.2997 15.46 86.2997 15.6C86.2997 15.79 86.4197 15.89 86.7097 15.99C87.0597 16.12 87.2297 16.29 87.2297 16.59C87.2297 16.89 86.9997 17.18 86.5097 17.18C86.3097 17.18 86.0997 17.12 85.9897 17.05L86.0597 16.83V16.85Z" fill="#FFB400"/>
<path d="M100.93 9.21997V8.80997H100.23V8.67997L100.9 7.71997H101.12V8.64997H101.33V8.80997H101.12V9.21997H100.93ZM100.93 8.64997V8.14997C100.93 8.06997 100.93 7.98997 100.93 7.90997C100.88 7.99997 100.85 8.05997 100.81 8.12997L100.44 8.63997H100.93V8.64997Z" fill="white"/>
<path d="M102.49 8.45998C102.49 8.96998 102.3 9.24998 101.97 9.24998C101.68 9.24998 101.48 8.97998 101.47 8.47998C101.47 7.97998 101.69 7.69998 101.99 7.69998C102.29 7.69998 102.49 7.97998 102.49 8.45998ZM101.68 8.47998C101.68 8.86998 101.8 9.08998 101.98 9.08998C102.19 9.08998 102.29 8.84998 102.29 8.46998C102.29 8.08998 102.2 7.85998 101.99 7.85998C101.81 7.85998 101.68 8.07998 101.68 8.47998Z" fill="white"/>
<path d="M77.4699 7.90997L77.2099 8.04997L77.1699 7.89997L77.4999 7.71997H77.6699V9.21997H77.4699V7.90997Z" fill="white"/>
<path d="M79.2099 8.45998C79.2099 8.96998 79.0199 9.24998 78.6899 9.24998C78.3999 9.24998 78.1999 8.97998 78.1899 8.47998C78.1899 7.97998 78.4099 7.69998 78.7099 7.69998C79.0099 7.69998 79.2099 7.97998 79.2099 8.45998ZM78.3899 8.47998C78.3899 8.86998 78.5099 9.08998 78.6899 9.08998C78.8999 9.08998 78.9999 8.84998 78.9999 8.46998C78.9999 8.08998 78.9099 7.85998 78.6999 7.85998C78.5199 7.85998 78.3899 8.07998 78.3899 8.47998Z" fill="white"/>
<path d="M6.59031 8.45998C6.59031 8.96998 6.40031 9.24998 6.07031 9.24998C5.78031 9.24998 5.58031 8.97998 5.57031 8.47998C5.57031 7.97998 5.79031 7.69998 6.09031 7.69998C6.39031 7.69998 6.59031 7.97998 6.59031 8.45998ZM5.77031 8.47998C5.77031 8.86998 5.89031 9.08998 6.07031 9.08998C6.28031 9.08998 6.38031 8.84998 6.38031 8.46998C6.38031 8.08998 6.29031 7.85998 6.08031 7.85998C5.90031 7.85998 5.77031 8.07998 5.77031 8.47998Z" fill="white"/>
<path d="M18.26 7.91L18 8.05L17.96 7.9L18.29 7.72H18.46V9.22H18.26V7.91Z" fill="white"/>
<path d="M29.6799 9.22V9.1L29.8399 8.95C30.2199 8.59 30.3999 8.39 30.3999 8.17C30.3999 8.02 30.3299 7.88 30.0999 7.88C29.9599 7.88 29.8499 7.95 29.7799 8.01L29.7199 7.87C29.8199 7.78 29.9699 7.72 30.1399 7.72C30.4599 7.72 30.5999 7.94 30.5999 8.16C30.5999 8.44 30.3999 8.66 30.0799 8.96L29.9599 9.07H30.6299V9.24H29.6699L29.6799 9.22Z" fill="white"/>
<path d="M41.59 8.99C41.65 9.03 41.78 9.08 41.92 9.08C42.18 9.08 42.26 8.91 42.26 8.79C42.26 8.58 42.07 8.49 41.87 8.49H41.76V8.34H41.87C42.02 8.34 42.2 8.26 42.2 8.09C42.2 7.97 42.12 7.86 41.94 7.86C41.82 7.86 41.7 7.91 41.64 7.96L41.59 7.81C41.67 7.75 41.82 7.69 41.98 7.69C42.27 7.69 42.41 7.87 42.41 8.05C42.41 8.2 42.32 8.34 42.13 8.4C42.31 8.44 42.46 8.58 42.46 8.79C42.46 9.03 42.27 9.24 41.91 9.24C41.74 9.24 41.59 9.19 41.52 9.14L41.58 8.98L41.59 8.99Z" fill="white"/>
<path d="M53.91 9.22V8.81H53.21V8.68L53.88 7.72H54.1V8.65H54.31V8.81H54.1V9.22H53.91ZM53.91 8.65V8.15C53.91 8.07 53.91 7.99 53.91 7.91C53.86 8 53.83 8.06 53.79 8.13L53.42 8.64H53.91V8.65Z" fill="white"/>
<path d="M66.2503 7.89H65.6803L65.6203 8.27C65.6203 8.27 65.6903 8.27 65.7403 8.27C65.8603 8.27 65.9703 8.3 66.0603 8.35C66.1803 8.42 66.2703 8.55 66.2703 8.73C66.2703 9.02 66.0403 9.24 65.7103 9.24C65.5503 9.24 65.4103 9.19 65.3403 9.15L65.3903 8.99C65.4503 9.03 65.5703 9.07 65.7103 9.07C65.9003 9.07 66.0603 8.95 66.0603 8.75C66.0603 8.56 65.9303 8.42 65.6303 8.42C65.5503 8.42 65.4803 8.42 65.4203 8.44L65.5203 7.72H66.2403V7.89H66.2503Z" fill="white"/>
<path d="M89.3801 7.91L89.1201 8.05L89.0801 7.9L89.4101 7.72H89.5801V9.22H89.3801V7.91Z" fill="white"/>
<path d="M91.0199 7.89H90.4499L90.3899 8.27C90.3899 8.27 90.4599 8.27 90.5099 8.27C90.6299 8.27 90.7399 8.3 90.8299 8.35C90.9499 8.42 91.0399 8.55 91.0399 8.73C91.0399 9.02 90.8099 9.24 90.4799 9.24C90.3199 9.24 90.1799 9.19 90.1099 9.15L90.1599 8.99C90.2199 9.03 90.3399 9.07 90.4799 9.07C90.6699 9.07 90.8299 8.95 90.8299 8.75C90.8299 8.56 90.6999 8.42 90.3999 8.42C90.3199 8.42 90.2499 8.42 90.1899 8.44L90.2899 7.72H91.0099V7.89H91.0199Z" fill="white"/>
<path d="M112.36 9.21997V9.09997L112.52 8.94997C112.9 8.58997 113.08 8.38997 113.08 8.16997C113.08 8.01997 113.01 7.87997 112.78 7.87997C112.64 7.87997 112.53 7.94997 112.46 8.00997L112.4 7.86997C112.5 7.77997 112.65 7.71997 112.82 7.71997C113.14 7.71997 113.28 7.93997 113.28 8.15997C113.28 8.43997 113.08 8.65997 112.76 8.95997L112.64 9.06997H113.31V9.23997H112.35L112.36 9.21997Z" fill="white"/>
<path d="M114.54 8.45998C114.54 8.96998 114.35 9.24998 114.02 9.24998C113.73 9.24998 113.53 8.97998 113.52 8.47998C113.52 7.97998 113.74 7.69998 114.04 7.69998C114.34 7.69998 114.54 7.97998 114.54 8.45998ZM113.72 8.47998C113.72 8.86998 113.84 9.08998 114.02 9.08998C114.23 9.08998 114.33 8.84998 114.33 8.46998C114.33 8.08998 114.24 7.85998 114.03 7.85998C113.85 7.85998 113.72 8.07998 113.72 8.47998Z" fill="white"/>
<path d="M91.7804 37H30.6104V116.29H91.7804V37Z" fill="white" stroke="#1A2E35" stroke-width="0.25" stroke-linecap="round" stroke-linejoin="round"/>
<path d="M41.5503 85.88H36.8003" stroke="#1A2E35" stroke-width="0.25" stroke-miterlimit="10"/>
<path d="M74.4905 85.88H45.2305" stroke="#1A2E35" stroke-width="0.25" stroke-miterlimit="10"/>
<path d="M48.6003 89.56H36.8003" stroke="#1A2E35" stroke-width="0.25" stroke-miterlimit="10"/>
<path d="M66.6801 89.56H51.8101" stroke="#1A2E35" stroke-width="0.25" stroke-miterlimit="10"/>
<path d="M74.4902 89.56H69.4302" stroke="#1A2E35" stroke-width="0.25" stroke-miterlimit="10"/>
<path d="M59.7803 93.23H36.8003" stroke="#1A2E35" stroke-width="0.25" stroke-miterlimit="10"/>
<path d="M74.4903 93.23H64.8403" stroke="#1A2E35" stroke-width="0.25" stroke-miterlimit="10"/>
<path d="M84.9496 93.1151C87.0881 92.6069 88.4097 90.4612 87.9014 88.3227C87.3931 86.1842 85.2475 84.8626 83.109 85.3709C80.9704 85.8792 79.6489 88.0248 80.1571 90.1633C80.6654 92.3019 82.8111 93.6234 84.9496 93.1151Z" stroke="#1A2E35" stroke-width="0.25" stroke-miterlimit="10"/>
<path d="M82.5103 88.59L83.5903 90.51L87.6803 86.54" stroke="#644DF4" stroke-miterlimit="10" stroke-linecap="round"/>
<path d="M69.7402 69.48H74.4902" stroke="#1A2E35" stroke-width="0.25" stroke-miterlimit="10"/>
<path d="M36.8003 69.48H66.0603" stroke="#1A2E35" stroke-width="0.25" stroke-miterlimit="10"/>
<path d="M62.6904 73.16H74.4904" stroke="#1A2E35" stroke-width="0.25" stroke-miterlimit="10"/>
<path d="M44.6104 73.16H59.4703" stroke="#1A2E35" stroke-width="0.25" stroke-miterlimit="10"/>
<path d="M36.8003 73.16H41.8503" stroke="#1A2E35" stroke-width="0.25" stroke-miterlimit="10"/>
<path d="M51.5103 76.84H74.4903" stroke="#1A2E35" stroke-width="0.25" stroke-miterlimit="10"/>
<path d="M36.8003 76.84H46.4503" stroke="#1A2E35" stroke-width="0.25" stroke-miterlimit="10"/>
<path d="M84.9496 76.7294C87.0881 76.2211 88.4097 74.0754 87.9014 71.9369C87.3931 69.7984 85.2475 68.4768 83.109 68.9851C80.9704 69.4934 79.6489 71.639 80.1571 73.7776C80.6654 75.9161 82.8111 77.2376 84.9496 76.7294Z" stroke="#1A2E35" stroke-width="0.25" stroke-miterlimit="10"/>
<path d="M82.5103 72.02L83.5903 73.95L87.6803 69.98" stroke="#644DF4" stroke-miterlimit="10" stroke-linecap="round"/>
<path d="M69.7402 53.28H74.4902" stroke="#1A2E35" stroke-width="0.25" stroke-miterlimit="10"/>
<path d="M36.8003 53.28H66.0603" stroke="#1A2E35" stroke-width="0.25" stroke-miterlimit="10"/>
<path d="M62.6904 56.95H74.4904" stroke="#1A2E35" stroke-width="0.25" stroke-miterlimit="10"/>
<path d="M44.6104 56.95H59.4703" stroke="#1A2E35" stroke-width="0.25" stroke-miterlimit="10"/>
<path d="M36.8003 56.95H41.8503" stroke="#1A2E35" stroke-width="0.25" stroke-miterlimit="10"/>
<path d="M51.5103 60.63H74.4903" stroke="#1A2E35" stroke-width="0.25" stroke-miterlimit="10"/>
<path d="M36.8003 60.63H46.4503" stroke="#1A2E35" stroke-width="0.25" stroke-miterlimit="10"/>
<path d="M84.0303 60.63C86.2284 60.63 88.0103 58.8481 88.0103 56.65C88.0103 54.4519 86.2284 52.67 84.0303 52.67C81.8322 52.67 80.0503 54.4519 80.0503 56.65C80.0503 58.8481 81.8322 60.63 84.0303 60.63Z" stroke="#1A2E35" stroke-width="0.25" stroke-miterlimit="10"/>
<path d="M82.5103 55.81L83.5903 57.74L87.6803 53.77" stroke="#644DF4" stroke-miterlimit="10" stroke-linecap="round"/>
<path d="M69.7402 102.27H74.4902" stroke="#1A2E35" stroke-width="0.25" stroke-miterlimit="10"/>
<path d="M36.8003 102.27H66.0603" stroke="#1A2E35" stroke-width="0.25" stroke-miterlimit="10"/>
<path d="M62.6904 105.95H74.4904" stroke="#1A2E35" stroke-width="0.25" stroke-miterlimit="10"/>
<path d="M44.6104 105.95H59.4703" stroke="#1A2E35" stroke-width="0.25" stroke-miterlimit="10"/>
<path d="M36.8003 105.95H41.8503" stroke="#1A2E35" stroke-width="0.25" stroke-miterlimit="10"/>
<path d="M51.5103 109.63H74.4903" stroke="#1A2E35" stroke-width="0.25" stroke-miterlimit="10"/>
<path d="M36.8003 109.63H46.4503" stroke="#1A2E35" stroke-width="0.25" stroke-miterlimit="10"/>
<path d="M84.0303 109.62C86.2284 109.62 88.0103 107.838 88.0103 105.64C88.0103 103.442 86.2284 101.66 84.0303 101.66C81.8322 101.66 80.0503 103.442 80.0503 105.64C80.0503 107.838 81.8322 109.62 84.0303 109.62Z" stroke="#1A2E35" stroke-width="0.25" stroke-miterlimit="10"/>
<path d="M81.9302 104.22L83.0202 106.15L87.1102 102.18" stroke="#644DF4" stroke-miterlimit="10" stroke-linecap="round"/>
<path d="M56.5503 48.76H54.7103L50.8503 42.4V48.76H49.0103V39.42H50.8503L54.7203 45.79V39.42H56.5503V48.76Z" fill="#644DF4"/>
<path d="M63.87 44.66H60.11V47.31H64.5V48.76H58.29V39.42H64.49V40.87H60.12V43.26H63.88V44.67L63.87 44.66Z" fill="#644DF4"/>
<path d="M72.8004 46.73C72.4804 47.42 72.0204 47.95 71.4204 48.32C70.8204 48.7 70.1304 48.89 69.3404 48.89C68.5504 48.89 67.8804 48.7 67.2804 48.33C66.6804 47.96 66.2104 47.44 65.8804 46.77C65.5504 46.1 65.3804 45.33 65.3804 44.45V43.86C65.3804 42.97 65.5404 42.17 65.8504 41.48C66.1704 40.79 66.6204 40.25 67.2204 39.87C67.8204 39.49 68.5204 39.29 69.3204 39.29C70.1204 39.29 70.8004 39.48 71.4004 39.85C72.0004 40.22 72.4604 40.75 72.7904 41.44C73.1104 42.13 73.2804 42.93 73.2804 43.84V44.33C73.2804 45.25 73.1204 46.05 72.7904 46.74L72.8004 46.73ZM70.8804 41.56C70.5204 41.04 70.0004 40.77 69.3304 40.77C68.6604 40.77 68.1604 41.02 67.8004 41.51C67.4404 42 67.2504 42.71 67.2404 43.63V44.31C67.2404 45.3 67.4204 46.06 67.7904 46.6C68.1604 47.14 68.6704 47.41 69.3504 47.41C70.0304 47.41 70.5304 47.15 70.8804 46.63C71.2304 46.11 71.4204 45.36 71.4304 44.38V43.84C71.4304 42.84 71.2504 42.08 70.8904 41.55L70.8804 41.56Z" fill="#644DF4"/>
<path d="M124.15 24H75.1602V87.5H124.15V24Z" fill="white" stroke="#1A2E35" stroke-width="0.25" stroke-linecap="round" stroke-linejoin="round"/>
<path d="M83.9201 63.15H80.1201" stroke="#1A2E35" stroke-width="0.25" stroke-miterlimit="10"/>
<path d="M110.3 63.15H86.8701" stroke="#1A2E35" stroke-width="0.25" stroke-miterlimit="10"/>
<path d="M89.5701 66.09H80.1201" stroke="#1A2E35" stroke-width="0.25" stroke-miterlimit="10"/>
<path d="M104.05 66.09H92.1401" stroke="#1A2E35" stroke-width="0.25" stroke-miterlimit="10"/>
<path d="M110.3 66.09H106.25" stroke="#1A2E35" stroke-width="0.25" stroke-miterlimit="10"/>
<path d="M98.5201 69.04H80.1201" stroke="#1A2E35" stroke-width="0.25" stroke-miterlimit="10"/>
<path d="M110.3 69.04H102.57" stroke="#1A2E35" stroke-width="0.25" stroke-miterlimit="10"/>
<path d="M118.676 68.9495C120.391 68.5421 121.45 66.8223 121.042 65.1083C120.635 63.3942 118.915 62.335 117.201 62.7424C115.487 63.1498 114.428 64.8695 114.835 66.5836C115.243 68.2976 116.962 69.3569 118.676 68.9495Z" stroke="#1A2E35" stroke-width="0.25" stroke-miterlimit="10"/>
<path d="M116.72 65.32L117.59 66.86L120.87 63.68" stroke="#644DF4" stroke-miterlimit="10" stroke-linecap="round"/>
<path d="M106.5 50.02H110.3" stroke="#1A2E35" stroke-width="0.25" stroke-miterlimit="10"/>
<path d="M80.1201 50.02H103.55" stroke="#1A2E35" stroke-width="0.25" stroke-miterlimit="10"/>
<path d="M100.85 52.96H110.3" stroke="#1A2E35" stroke-width="0.25" stroke-miterlimit="10"/>
<path d="M86.3701 52.96H98.2801" stroke="#1A2E35" stroke-width="0.25" stroke-miterlimit="10"/>
<path d="M80.1201 52.96H84.1701" stroke="#1A2E35" stroke-width="0.25" stroke-miterlimit="10"/>
<path d="M91.8999 55.91H110.3" stroke="#1A2E35" stroke-width="0.25" stroke-miterlimit="10"/>
<path d="M80.1201 55.91H87.8501" stroke="#1A2E35" stroke-width="0.25" stroke-miterlimit="10"/>
<path d="M118.68 55.8253C120.394 55.4179 121.454 53.6982 121.046 51.9841C120.639 50.2701 118.919 49.2109 117.205 49.6182C115.491 50.0256 114.432 51.7454 114.839 53.4594C115.247 55.1735 116.966 56.2327 118.68 55.8253Z" stroke="#1A2E35" stroke-width="0.25" stroke-miterlimit="10"/>
<path d="M116.72 52.05L117.59 53.59L120.87 50.41" stroke="#644DF4" stroke-miterlimit="10" stroke-linecap="round"/>
<path d="M106.5 37.04H110.3" stroke="#1A2E35" stroke-width="0.25" stroke-miterlimit="10"/>
<path d="M80.1201 37.04H103.55" stroke="#1A2E35" stroke-width="0.25" stroke-miterlimit="10"/>
<path d="M100.85 39.98H110.3" stroke="#1A2E35" stroke-width="0.25" stroke-miterlimit="10"/>
<path d="M86.3701 39.98H98.2801" stroke="#1A2E35" stroke-width="0.25" stroke-miterlimit="10"/>
<path d="M80.1201 39.98H84.1701" stroke="#1A2E35" stroke-width="0.25" stroke-miterlimit="10"/>
<path d="M91.8999 42.93H110.3" stroke="#1A2E35" stroke-width="0.25" stroke-miterlimit="10"/>
<path d="M80.1201 42.93H87.8501" stroke="#1A2E35" stroke-width="0.25" stroke-miterlimit="10"/>
<path d="M117.94 42.93C119.702 42.93 121.13 41.5018 121.13 39.74C121.13 37.9782 119.702 36.55 117.94 36.55C116.178 36.55 114.75 37.9782 114.75 39.74C114.75 41.5018 116.178 42.93 117.94 42.93Z" stroke="#1A2E35" stroke-width="0.25" stroke-miterlimit="10"/>
<path d="M116.72 39.07L117.59 40.61L120.87 37.43" stroke="#644DF4" stroke-miterlimit="10" stroke-linecap="round"/>
<path d="M106.5 76.28H110.3" stroke="#1A2E35" stroke-width="0.25" stroke-miterlimit="10"/>
<path d="M80.1201 76.28H103.55" stroke="#1A2E35" stroke-width="0.25" stroke-miterlimit="10"/>
<path d="M100.85 79.22H110.3" stroke="#1A2E35" stroke-width="0.25" stroke-miterlimit="10"/>
<path d="M86.3701 79.22H98.2801" stroke="#1A2E35" stroke-width="0.25" stroke-miterlimit="10"/>
<path d="M80.1201 79.22H84.1701" stroke="#1A2E35" stroke-width="0.25" stroke-miterlimit="10"/>
<path d="M91.8999 82.17H110.3" stroke="#1A2E35" stroke-width="0.25" stroke-miterlimit="10"/>
<path d="M80.1201 82.17H87.8501" stroke="#1A2E35" stroke-width="0.25" stroke-miterlimit="10"/>
<path d="M117.94 82.17C119.702 82.17 121.13 80.7418 121.13 78.98C121.13 77.2182 119.702 75.79 117.94 75.79C116.178 75.79 114.75 77.2182 114.75 78.98C114.75 80.7418 116.178 82.17 117.94 82.17Z" stroke="#1A2E35" stroke-width="0.25" stroke-miterlimit="10"/>
<path d="M116.27 77.84L117.13 79.38L120.41 76.2" stroke="#644DF4" stroke-miterlimit="10" stroke-linecap="round"/>
<path d="M86.28 34.08C85.9 34.08 85.53 34.04 85.17 33.97C84.81 33.9 84.47 33.78 84.15 33.63C83.83 33.48 83.55 33.31 83.29 33.1L83.98 31.87C84.29 32.12 84.64 32.31 85.04 32.45C85.44 32.59 85.85 32.65 86.27 32.65C86.76 32.65 87.14 32.57 87.4 32.4C87.66 32.23 87.8 32 87.8 31.7C87.8 31.47 87.73 31.29 87.6 31.17C87.47 31.05 87.29 30.96 87.07 30.9C86.85 30.84 86.61 30.79 86.35 30.75C86.04 30.7 85.73 30.64 85.41 30.57C85.09 30.5 84.8 30.39 84.54 30.23C84.28 30.07 84.06 29.85 83.9 29.57C83.74 29.29 83.66 28.9 83.66 28.42C83.66 27.64 83.91 27.04 84.42 26.62C84.93 26.2 85.65 25.98 86.58 25.98C87.01 25.98 87.45 26.05 87.89 26.2C88.33 26.35 88.75 26.55 89.13 26.81L88.5 28.08C88.19 27.87 87.88 27.7 87.54 27.59C87.2 27.48 86.89 27.42 86.58 27.42C86.12 27.42 85.77 27.5 85.52 27.65C85.27 27.8 85.14 28.01 85.14 28.29C85.14 28.55 85.21 28.74 85.36 28.87C85.51 29 85.7 29.1 85.94 29.16C86.18 29.22 86.44 29.28 86.71 29.34C87.02 29.4 87.32 29.47 87.62 29.56C87.92 29.65 88.2 29.77 88.45 29.93C88.7 30.09 88.9 30.31 89.05 30.59C89.2 30.87 89.27 31.23 89.27 31.68C89.27 32.45 89.01 33.05 88.48 33.47C87.95 33.89 87.21 34.1 86.25 34.1L86.28 34.08Z" fill="#644DF4"/>
<path d="M93.1503 34.08C92.5403 34.08 92.0303 33.96 91.6003 33.73C91.1703 33.5 90.8503 33.16 90.6203 32.72C90.3903 32.28 90.2803 31.74 90.2803 31.12V28.94C90.2803 28.31 90.3903 27.78 90.6203 27.34C90.8503 26.9 91.1703 26.56 91.6003 26.33C92.0303 26.1 92.5403 25.98 93.1503 25.98C93.6503 25.98 94.1003 26.09 94.4903 26.3C94.8803 26.51 95.2003 26.83 95.4603 27.23C95.7203 27.63 95.8903 28.13 95.9903 28.71H94.4403C94.3803 28.44 94.2903 28.22 94.1703 28.04C94.0503 27.86 93.9003 27.72 93.7303 27.62C93.5603 27.52 93.3603 27.47 93.1503 27.47C92.7303 27.47 92.4103 27.6 92.1803 27.85C91.9503 28.1 91.8303 28.47 91.8303 28.93V31.11C91.8303 31.58 91.9503 31.94 92.1803 32.19C92.4103 32.44 92.7403 32.57 93.1503 32.57C93.4803 32.57 93.7503 32.46 93.9803 32.25C94.2103 32.04 94.3603 31.73 94.4403 31.33H95.9903C95.8903 31.91 95.7103 32.4 95.4503 32.81C95.1903 33.22 94.8703 33.53 94.4803 33.75C94.0903 33.97 93.6503 34.07 93.1403 34.07L93.1503 34.08Z" fill="#644DF4"/>
<path d="M97.25 34V26.07H98.74V34H97.25ZM97.91 34V32.56H102.56V34H97.91Z" fill="#644DF4"/>
<path d="M107.41 34L109.13 30.06L109.4 30.26C109.31 30.43 109.17 30.55 108.98 30.63C108.79 30.71 108.58 30.74 108.34 30.74C107.74 30.74 107.25 30.53 106.88 30.1C106.51 29.67 106.33 29.11 106.33 28.41C106.33 27.63 106.53 27.04 106.94 26.61C107.35 26.18 107.92 25.97 108.66 25.97C109.4 25.97 109.97 26.18 110.37 26.61C110.77 27.04 110.98 27.64 110.98 28.42C110.98 28.75 110.93 29.1 110.82 29.46C110.71 29.82 110.58 30.2 110.42 30.58L109 33.98H107.42L107.41 34ZM108.65 29.35C108.91 29.35 109.11 29.27 109.26 29.1C109.41 28.93 109.48 28.69 109.48 28.38C109.48 28.08 109.41 27.85 109.26 27.68C109.11 27.51 108.91 27.44 108.65 27.44C108.39 27.44 108.18 27.52 108.04 27.69C107.9 27.86 107.82 28.08 107.82 28.38C107.82 28.69 107.89 28.93 108.04 29.1C108.19 29.27 108.39 29.35 108.65 29.35Z" fill="#644DF4"/>
<path d="M114.59 34.08C113.8 34.08 113.21 33.88 112.81 33.47C112.41 33.06 112.22 32.52 112.22 31.83V28.22C112.22 27.52 112.42 26.97 112.82 26.57C113.22 26.17 113.81 25.97 114.59 25.97C115.37 25.97 115.97 26.17 116.37 26.57C116.77 26.97 116.97 27.52 116.97 28.23V31.84C116.97 32.54 116.77 33.09 116.37 33.49C115.97 33.89 115.38 34.09 114.6 34.09L114.59 34.08ZM114.59 32.64C114.9 32.64 115.13 32.53 115.26 32.32C115.39 32.11 115.46 31.82 115.46 31.44V28.6C115.46 28.23 115.39 27.93 115.26 27.72C115.13 27.51 114.9 27.4 114.59 27.4C114.28 27.4 114.06 27.51 113.92 27.72C113.78 27.93 113.71 28.22 113.71 28.6V31.44C113.71 31.81 113.78 32.1 113.92 32.32C114.06 32.54 114.28 32.64 114.59 32.64Z" fill="#644DF4"/>
<path d="M46.1204 46.5H-2.86963V110H46.1204V46.5Z" fill="white" stroke="#1A2E35" stroke-width="0.25" stroke-linecap="round" stroke-linejoin="round"/>
<path d="M5.88057 85.65H2.08057" stroke="#1A2E35" stroke-width="0.25" stroke-miterlimit="10"/>
<path d="M32.2706 85.65H8.83057" stroke="#1A2E35" stroke-width="0.25" stroke-miterlimit="10"/>
<path d="M11.5306 88.59H2.08057" stroke="#1A2E35" stroke-width="0.25" stroke-miterlimit="10"/>
<path d="M26.0106 88.59H14.1006" stroke="#1A2E35" stroke-width="0.25" stroke-miterlimit="10"/>
<path d="M32.2707 88.59H28.2207" stroke="#1A2E35" stroke-width="0.25" stroke-miterlimit="10"/>
<path d="M20.4906 91.54H2.08057" stroke="#1A2E35" stroke-width="0.25" stroke-miterlimit="10"/>
<path d="M32.2705 91.54H24.5405" stroke="#1A2E35" stroke-width="0.25" stroke-miterlimit="10"/>
<path d="M40.6428 91.4458C42.3568 91.0384 43.4161 89.3186 43.0087 87.6046C42.6013 85.8905 40.8815 84.8313 39.1675 85.2387C37.4535 85.6461 36.3942 87.3658 36.8016 89.0799C37.209 90.7939 38.9288 91.8532 40.6428 91.4458Z" stroke="#1A2E35" stroke-width="0.25" stroke-miterlimit="10"/>
<path d="M38.6904 87.82L39.5504 89.36L42.8304 86.18" stroke="#644DF4" stroke-miterlimit="10" stroke-linecap="round"/>
<path d="M28.4604 72.52H32.2705" stroke="#1A2E35" stroke-width="0.25" stroke-miterlimit="10"/>
<path d="M2.08057 72.52H25.5206" stroke="#1A2E35" stroke-width="0.25" stroke-miterlimit="10"/>
<path d="M22.8208 75.46H32.2708" stroke="#1A2E35" stroke-width="0.25" stroke-miterlimit="10"/>
<path d="M8.34033 75.46H20.2403" stroke="#1A2E35" stroke-width="0.25" stroke-miterlimit="10"/>
<path d="M2.08057 75.46H6.13057" stroke="#1A2E35" stroke-width="0.25" stroke-miterlimit="10"/>
<path d="M13.8604 78.41H32.2704" stroke="#1A2E35" stroke-width="0.25" stroke-miterlimit="10"/>
<path d="M2.08057 78.41H9.81057" stroke="#1A2E35" stroke-width="0.25" stroke-miterlimit="10"/>
<path d="M40.6365 78.3116C42.3505 77.9042 43.4097 76.1845 43.0024 74.4704C42.595 72.7564 40.8752 71.6971 39.1612 72.1045C37.4471 72.5119 36.3879 74.2317 36.7953 75.9457C37.2027 77.6598 38.9224 78.719 40.6365 78.3116Z" stroke="#1A2E35" stroke-width="0.25" stroke-miterlimit="10"/>
<path d="M38.6904 74.55L39.5504 76.09L42.8304 72.91" stroke="#644DF4" stroke-miterlimit="10" stroke-linecap="round"/>
<path d="M28.4604 59.54H32.2705" stroke="#1A2E35" stroke-width="0.25" stroke-miterlimit="10"/>
<path d="M2.08057 59.54H25.5206" stroke="#1A2E35" stroke-width="0.25" stroke-miterlimit="10"/>
<path d="M22.8208 62.48H32.2708" stroke="#1A2E35" stroke-width="0.25" stroke-miterlimit="10"/>
<path d="M8.34033 62.48H20.2403" stroke="#1A2E35" stroke-width="0.25" stroke-miterlimit="10"/>
<path d="M2.08057 62.48H6.13057" stroke="#1A2E35" stroke-width="0.25" stroke-miterlimit="10"/>
<path d="M13.8604 65.43H32.2704" stroke="#1A2E35" stroke-width="0.25" stroke-miterlimit="10"/>
<path d="M2.08057 65.43H9.81057" stroke="#1A2E35" stroke-width="0.25" stroke-miterlimit="10"/>
<path d="M39.9005 65.42C41.6622 65.42 43.0905 63.9918 43.0905 62.23C43.0905 60.4682 41.6622 59.04 39.9005 59.04C38.1387 59.04 36.7104 60.4682 36.7104 62.23C36.7104 63.9918 38.1387 65.42 39.9005 65.42Z" stroke="#1A2E35" stroke-width="0.25" stroke-miterlimit="10"/>
<path d="M38.6904 61.57L39.5504 63.11L42.8304 59.93" stroke="#644DF4" stroke-miterlimit="10" stroke-linecap="round"/>
<path d="M28.4604 98.78H32.2705" stroke="#1A2E35" stroke-width="0.25" stroke-miterlimit="10"/>
<path d="M2.08057 98.78H25.5206" stroke="#1A2E35" stroke-width="0.25" stroke-miterlimit="10"/>
<path d="M22.8208 101.72H32.2708" stroke="#1A2E35" stroke-width="0.25" stroke-miterlimit="10"/>
<path d="M8.34033 101.72H20.2403" stroke="#1A2E35" stroke-width="0.25" stroke-miterlimit="10"/>
<path d="M2.08057 101.72H6.13057" stroke="#1A2E35" stroke-width="0.25" stroke-miterlimit="10"/>
<path d="M13.8604 104.67H32.2704" stroke="#1A2E35" stroke-width="0.25" stroke-miterlimit="10"/>
<path d="M2.08057 104.67H9.81057" stroke="#1A2E35" stroke-width="0.25" stroke-miterlimit="10"/>
<path d="M39.9005 104.66C41.6622 104.66 43.0905 103.232 43.0905 101.47C43.0905 99.7082 41.6622 98.28 39.9005 98.28C38.1387 98.28 36.7104 99.7082 36.7104 101.47C36.7104 103.232 38.1387 104.66 39.9005 104.66Z" stroke="#1A2E35" stroke-width="0.25" stroke-miterlimit="10"/>
<path d="M38.2305 100.34L39.1005 101.88L42.3705 98.7" stroke="#644DF4" stroke-miterlimit="10" stroke-linecap="round"/>
<path d="M15.5703 56.45V48.04H17.1503V56.45H15.5703ZM16.1403 49.56V48.03H21.2003V49.56H16.1403ZM16.1403 53.03V51.5H20.5603V53.03H16.1403ZM16.1403 56.45V54.92H21.2003V56.45H16.1403Z" fill="#644DF4"/>
<path d="M25.5505 56.53C24.9305 56.53 24.3905 56.4 23.9305 56.15C23.4705 55.9 23.1105 55.53 22.8605 55.07C22.6105 54.61 22.4805 54.06 22.4805 53.44V51.06C22.4805 50.44 22.6105 49.89 22.8605 49.43C23.1105 48.97 23.4705 48.6 23.9305 48.35C24.3905 48.1 24.9305 47.97 25.5505 47.97C26.1705 47.97 26.7105 48.1 27.1705 48.35C27.6305 48.6 27.9905 48.97 28.2405 49.43C28.4905 49.89 28.6205 50.44 28.6205 51.06V53.44C28.6205 54.06 28.4905 54.6 28.2405 55.07C27.9905 55.54 27.6305 55.9 27.1705 56.15C26.7105 56.4 26.1705 56.53 25.5505 56.53ZM25.5505 54.95C25.9805 54.95 26.3305 54.82 26.5905 54.55C26.8505 54.28 26.9805 53.92 26.9805 53.48V51.02C26.9805 50.57 26.8505 50.22 26.5905 49.95C26.3305 49.68 25.9805 49.55 25.5505 49.55C25.1205 49.55 24.7705 49.68 24.5105 49.95C24.2505 50.22 24.1205 50.58 24.1205 51.02V53.48C24.1205 53.92 24.2505 54.28 24.5105 54.55C24.7705 54.82 25.1205 54.95 25.5505 54.95ZM28.5505 56.58L25.3005 54.11L26.1405 53.04L29.3905 55.5L28.5505 56.58Z" fill="#644DF4"/>
</g>
</g>
<defs>
<linearGradient id="paint0_linear_615_1424" x1="2.96037" y1="9.22" x2="73.1104" y2="9.22" gradientUnits="userSpaceOnUse">
<stop stop-color="#C80E3F"/>
<stop offset="0.02" stop-color="#C90E3F"/>
<stop offset="0.63" stop-color="#F01654"/>
<stop offset="0.95" stop-color="#FF195C"/>
</linearGradient>
<linearGradient id="paint1_linear_615_1424" x1="72.2803" y1="9.22001" x2="95.8503" y2="9.22001" gradientUnits="userSpaceOnUse">
<stop offset="0.01" stop-color="#FF7807"/>
<stop offset="0.22" stop-color="#FF8D04"/>
<stop offset="0.49" stop-color="#FFA202"/>
<stop offset="0.75" stop-color="#FFAF00"/>
<stop offset="1" stop-color="#FFB400"/>
</linearGradient>
<linearGradient id="paint2_linear_615_1424" x1="95.8501" y1="9.22" x2="117.86" y2="9.22" gradientUnits="userSpaceOnUse">
<stop stop-color="#00A854"/>
<stop offset="0.12" stop-color="#00B25C"/>
<stop offset="0.4" stop-color="#00C56C"/>
<stop offset="0.69" stop-color="#00D175"/>
<stop offset="1" stop-color="#00D579"/>
</linearGradient>
<clipPath id="clip0_615_1424">
<rect width="120" height="120" fill="white"/>
</clipPath>
</defs>
</svg>
