<svg xmlns="http://www.w3.org/2000/svg" width="21" height="18" viewBox="0 0 21 18" fill="none">
  <g clip-path="url(#clip0_1204_158435)">
    <path d="M0 3.0049V16.7417C0 17.4369 0.55019 18 1.22945 18H19.7705C20.4498 18 21 17.4369 21 16.7417V3.01951C21 2.31639 20.4433 1.74658 19.7563 1.74658H1.22945C0.55019 1.74658 0 2.3103 0 3.0049ZM17.4104 2.80218C17.7512 2.80218 18.0278 3.08526 18.0278 3.43408C18.0278 3.78291 17.7512 4.06598 17.4104 4.06598C17.0696 4.06598 16.793 3.78291 16.793 3.43408C16.793 3.08526 17.0696 2.80218 17.4104 2.80218ZM3.30947 2.80218C3.65029 2.80218 3.92687 3.08526 3.92687 3.43408C3.92687 3.78291 3.65029 4.06598 3.30947 4.06598C2.96865 4.06598 2.69206 3.78291 2.69206 3.43408C2.69206 3.08526 2.96865 2.80218 3.30947 2.80218Z" fill="url(#paint0_linear_1204_158435)"/>
    <path d="M0 3.0049V5.12158H21V3.01951C21 2.31639 20.4433 1.74658 19.7563 1.74658H1.22945C0.55019 1.74658 0 2.3103 0 3.0049ZM3.30947 4.06598C2.96865 4.06598 2.69206 3.78291 2.69206 3.43408C2.69206 3.08526 2.96865 2.80218 3.30947 2.80218C3.65029 2.80218 3.92687 3.08526 3.92687 3.43408C3.92687 3.78291 3.65029 4.06598 3.30947 4.06598ZM17.4104 4.06598C17.0696 4.06598 16.793 3.78291 16.793 3.43408C16.793 3.08526 17.0696 2.80218 17.4104 2.80218C17.7512 2.80218 18.0278 3.08526 18.0278 3.43408C18.0278 3.78291 17.7512 4.06598 17.4104 4.06598Z" fill="url(#paint1_linear_1204_158435)"/>
    <path d="M3.01575 12.0938H1.10645V14.0479H3.01575V12.0938Z" fill="#12BFBF"/>
    <path d="M5.83607 12.0938H3.92676V14.0479H5.83607V12.0938Z" fill="#BCBEC0"/>
    <path d="M8.65638 12.0938H6.74707V14.0479H8.65638V12.0938Z" fill="#BCBEC0"/>
    <path d="M11.4767 12.0938H9.56738V14.0479H11.4767V12.0938Z" fill="#FF8C00"/>
    <path d="M14.297 12.0938H12.3877V14.0479H14.297V12.0938Z" fill="#BCBEC0"/>
    <path d="M17.1173 12.0938H15.208V14.0479H17.1173V12.0938Z" fill="#BCBEC0"/>
    <path d="M19.9367 12.0938H18.0273V14.0479H19.9367V12.0938Z" fill="#F93B2B"/>
    <path d="M3.01575 9.26599H1.10645V11.2201H3.01575V9.26599Z" fill="#12BFBF"/>
    <path d="M5.83607 9.26599H3.92676V11.2201H5.83607V9.26599Z" fill="#BCBEC0"/>
    <path d="M8.65638 9.26599H6.74707V11.2201H8.65638V9.26599Z" fill="#BCBEC0"/>
    <path d="M11.4767 9.26599H9.56738V11.2201H11.4767V9.26599Z" fill="#BCBEC0"/>
    <path d="M14.297 9.26599H12.3877V11.2201H14.297V9.26599Z" fill="#BCBEC0"/>
    <path d="M17.1173 9.26599H15.208V11.2201H17.1173V9.26599Z" fill="#BCBEC0"/>
    <path d="M19.9367 9.26599H18.0273V11.2201H19.9367V9.26599Z" fill="#F93B2B"/>
    <path d="M11.4767 6.43896H9.56738V8.3931H11.4767V6.43896Z" fill="#BCBEC0"/>
    <path d="M14.297 6.43896H12.3877V8.3931H14.297V6.43896Z" fill="#BCBEC0"/>
    <path d="M17.1173 6.43896H15.208V8.3931H17.1173V6.43896Z" fill="#BCBEC0"/>
    <path d="M19.9367 6.43896H18.0273V8.3931H19.9367V6.43896Z" fill="#F93B2B"/>
    <path d="M3.01575 14.743H1.10645V16.6972H3.01575V14.743Z" fill="#12BFBF"/>
    <path d="M5.83607 14.743H3.92676V16.6972H5.83607V14.743Z" fill="#BCBEC0"/>
    <path d="M8.65638 14.743H6.74707V16.6972H8.65638V14.743Z" fill="#BCBEC0"/>
    <path d="M11.4767 14.743H9.56738V16.6972H11.4767V14.743Z" fill="#BCBEC0"/>
    <path d="M14.297 14.743H12.3877V16.6972H14.297V14.743Z" fill="#BCBEC0"/>
    <path d="M3.4821 0H3.13533C3.04926 0 2.97949 0.0714091 2.97949 0.159497V3.49675C2.97949 3.58484 3.04926 3.65625 3.13533 3.65625H3.4821C3.56816 3.65625 3.63794 3.58484 3.63794 3.49675V0.159497C3.63794 0.0714091 3.56816 0 3.4821 0Z" fill="url(#paint2_linear_1204_158435)"/>
    <path d="M17.5837 0H17.2369C17.1508 0 17.0811 0.0714091 17.0811 0.159497V3.49675C17.0811 3.58484 17.1508 3.65625 17.2369 3.65625H17.5837C17.6697 3.65625 17.7395 3.58484 17.7395 3.49675V0.159497C17.7395 0.0714091 17.6697 0 17.5837 0Z" fill="url(#paint3_linear_1204_158435)"/>
  </g>
  <defs>
    <linearGradient id="paint0_linear_1204_158435" x1="3.35586" y1="0.0724752" x2="18.2428" y2="19.5785" gradientUnits="userSpaceOnUse">
      <stop stop-color="#F1F2F2"/>
      <stop offset="0.57" stop-color="#EFF0F0"/>
      <stop offset="0.77" stop-color="#E8E9E9"/>
      <stop offset="0.91" stop-color="#DCDEDE"/>
      <stop offset="1" stop-color="#D1D3D4"/>
    </linearGradient>
    <linearGradient id="paint1_linear_1204_158435" x1="10.5" y1="2.92941" x2="10.5" y2="5.17394" gradientUnits="userSpaceOnUse">
      <stop stop-color="#F93B2B"/>
      <stop offset="0.32" stop-color="#F9382D"/>
      <stop offset="0.55" stop-color="#F92E33"/>
      <stop offset="0.75" stop-color="#F91F3E"/>
      <stop offset="0.94" stop-color="#F9094E"/>
      <stop offset="1" stop-color="#FA0055"/>
    </linearGradient>
    <linearGradient id="paint2_linear_1204_158435" x1="3.30901" y1="3.65625" x2="3.30901" y2="0" gradientUnits="userSpaceOnUse">
      <stop stop-color="#6D6E71"/>
      <stop offset="1" stop-color="#231F20"/>
    </linearGradient>
    <linearGradient id="paint3_linear_1204_158435" x1="17.41" y1="3.65625" x2="17.41" y2="0" gradientUnits="userSpaceOnUse">
      <stop stop-color="#6D6E71"/>
      <stop offset="1" stop-color="#231F20"/>
    </linearGradient>
    <clipPath id="clip0_1204_158435">
      <rect width="21" height="18" fill="white"/>
    </clipPath>
  </defs>
</svg>