<svg xmlns="http://www.w3.org/2000/svg" width="17" height="17" viewBox="0 0 17 17" fill="none">
  <g clip-path="url(#clip0_1108_170132)">
    <path d="M8.80637 4.87891C9.35037 4.87891 9.77537 5.36057 9.74137 5.92724L9.43537 10.6079C9.40137 11.1236 8.99337 11.5202 8.50037 11.5202C8.00737 11.5202 7.59937 11.1179 7.56537 10.6079L7.25937 5.92724C7.21971 5.36057 7.65037 4.87891 8.19437 4.87891H8.81204H8.80637Z" fill="#DFF9FB"/>
    <path d="M8.49992 12.6707C9.10625 12.6707 9.59358 13.1863 9.59358 13.8153C9.59358 14.4443 9.10625 14.96 8.49992 14.96C7.89358 14.96 7.40625 14.4443 7.40625 13.8153C7.40625 13.1863 7.89358 12.6707 8.49992 12.6707Z" fill="#DFF9FB"/>
    <path d="M16.8412 14.892C17.3229 15.8497 16.6655 17 15.6342 17H1.37119C0.33986 17 -0.32314 15.8497 0.164193 14.892L7.29286 0.765C7.80853 -0.255 9.19686 -0.255 9.71253 0.765L16.8412 14.892ZM9.74086 5.92733C9.78053 5.36067 9.34986 4.879 8.80586 4.879H8.18819C7.64419 4.879 7.21919 5.36067 7.25319 5.92733L7.55919 10.608C7.59319 11.1237 8.00119 11.5203 8.49419 11.5203C8.98719 11.5203 9.39519 11.118 9.42919 10.608L9.73519 5.92733H9.74086ZM9.59353 13.8153C9.59353 13.1807 9.10619 12.6707 8.49986 12.6707C7.89353 12.6707 7.40619 13.1863 7.40619 13.8153C7.40619 14.4443 7.89353 14.96 8.49986 14.96C9.10619 14.96 9.59353 14.4443 9.59353 13.8153Z" fill="url(#paint0_linear_1108_170132)"/>
  </g>
  <defs>
    <linearGradient id="paint0_linear_1108_170132" x1="8.50154" y1="17" x2="8.50154" y2="0" gradientUnits="userSpaceOnUse">
      <stop stop-color="#7C0902"/>
      <stop offset="1" stop-color="#D40005"/>
    </linearGradient>
    <clipPath id="clip0_1108_170132">
      <rect width="17" height="17" fill="white"/>
    </clipPath>
  </defs>
</svg>