<svg width="120" height="120" viewBox="0 0 120 120" fill="none" xmlns="http://www.w3.org/2000/svg">
<rect width="120" height="120" fill="white"/>
<g clip-path="url(#clip0_616_907)">
<path d="M55.68 81.82H35.5V82.9H55.68V81.82Z" fill="#644DF6"/>
<path d="M73.1703 82.16H22.3003V83.26H73.1703V82.16Z" fill="white"/>
<path d="M55.3103 84.74H22.3003V85.84H55.3103V84.74Z" fill="white"/>
<path d="M46.8203 79.58H22.3003V80.68H46.8203V79.58Z" fill="url(#paint0_linear_616_907)"/>
<path d="M48.7903 82.16H22.3003V83.26H48.7903V82.16Z" fill="url(#paint1_linear_616_907)"/>
<path d="M39.4903 84.74H22.3003V85.84H39.4903V84.74Z" fill="url(#paint2_linear_616_907)"/>
<g style="mix-blend-mode:hard-light">
<path d="M97.7502 8.12H11.4502C9.24106 8.12 7.4502 9.91086 7.4502 12.12V89.14C7.4502 91.3491 9.24106 93.14 11.4502 93.14H97.7502C99.9593 93.14 101.75 91.3491 101.75 89.14V12.12C101.75 9.91086 99.9593 8.12 97.7502 8.12Z" fill="white"/>
<path d="M97.7502 8.12H11.4502C9.24106 8.12 7.4502 9.91086 7.4502 12.12V89.14C7.4502 91.3491 9.24106 93.14 11.4502 93.14H97.7502C99.9593 93.14 101.75 91.3491 101.75 89.14V12.12C101.75 9.91086 99.9593 8.12 97.7502 8.12Z" stroke="#252525" stroke-width="0.25" stroke-miterlimit="10"/>
</g>
<path d="M67.2204 49.27H15.5304C14.6302 49.27 13.9004 49.9998 13.9004 50.9V51.6C13.9004 52.5002 14.6302 53.23 15.5304 53.23H67.2204C68.1206 53.23 68.8504 52.5002 68.8504 51.6V50.9C68.8504 49.9998 68.1206 49.27 67.2204 49.27Z" fill="#8A81F7"/>
<path d="M16.4604 54.93H66.2904C67.7004 54.93 68.8504 56.08 68.8504 57.49V68.53C68.8504 69.94 67.7004 71.09 66.2904 71.09H16.4604C15.0504 71.09 13.9004 69.94 13.9004 68.53V57.49C13.9004 56.08 15.0504 54.93 16.4604 54.93Z" fill="#644DF6"/>
<path d="M93.7002 21.03H82.1802V22.19H93.7002V21.03Z" fill="#252525"/>
<path d="M95.4302 24.61H82.1802V25.77H95.4302V24.61Z" fill="#252525"/>
<path d="M89.0102 28.17H82.1602V29.33H89.0102V28.17Z" fill="#252525"/>
<path d="M92.7202 31.73H82.1602V32.89H92.7202V31.73Z" fill="#252525"/>
<path d="M62.9403 76.65H26.5903V77.81H62.9403V76.65Z" fill="#644DF6"/>
<path d="M68.3703 80.23H26.5903V81.39H68.3703V80.23Z" fill="#644DF6"/>
<path d="M59.8303 87.35H26.5303V88.51H59.8303V87.35Z" fill="#644DF6"/>
<path d="M62.8104 81.4H12.3804V82.58H62.8104V81.4Z" fill="white"/>
<path d="M14.2 19.67H14V40.14H14.2V19.67Z" fill="#E0E0E0"/>
<path d="M28.0701 19.67H27.8701V40.14H28.0701V19.67Z" fill="#E0E0E0"/>
<path d="M41.95 19.67H41.75V40.14H41.95V19.67Z" fill="#E0E0E0"/>
<path d="M55.8201 19.67H55.6201V40.14H55.8201V19.67Z" fill="#E0E0E0"/>
<path d="M69.69 19.67H69.5V40.14H69.69V19.67Z" fill="#E0E0E0"/>
<path d="M16.3101 41.35H14.1001V42.06H16.3101V41.35Z" fill="#B8B8B8"/>
<path d="M17.4201 17.14H14.1001V17.67H17.4201V17.14Z" fill="#D9D9D9"/>
<path d="M18.8101 18.13H14.1001V18.66H18.8101V18.13Z" fill="#D9D9D9"/>
<path d="M31.7198 17.14H27.8198V17.67H31.7198V17.14Z" fill="#D9D9D9"/>
<path d="M30.3098 18.13H27.8198V18.66H30.3098V18.13Z" fill="#D9D9D9"/>
<path d="M44.3599 17.14H41.9399V17.67H44.3599V17.14Z" fill="#D9D9D9"/>
<path d="M44.7599 18.13H41.9399V18.66H44.7599V18.13Z" fill="#D9D9D9"/>
<path d="M59.3398 17.14H55.8198V17.67H59.3398V17.14Z" fill="#D9D9D9"/>
<path d="M58.6398 18.13H55.8198V18.66H58.6398V18.13Z" fill="#D9D9D9"/>
<path d="M71.7001 17.14H69.6001V17.67H71.7001V17.14Z" fill="#D9D9D9"/>
<path d="M71.2801 18.13H69.6001V18.66H71.2801V18.13Z" fill="#D9D9D9"/>
<path d="M30.1802 41.35H27.9702V42.06H30.1802V41.35Z" fill="#B8B8B8"/>
<path d="M44.1499 41.35H41.9399V42.06H44.1499V41.35Z" fill="#B8B8B8"/>
<path d="M58.0298 41.35H55.8198V42.06H58.0298V41.35Z" fill="#B8B8B8"/>
<path d="M71.8999 41.35H69.6899V42.06H71.8999V41.35Z" fill="#B8B8B8"/>
<path d="M64.7901 34.06C60.4601 34.06 56.7001 32.19 52.7801 30.24C47.9401 27.83 42.9301 25.34 36.2601 26.02C32.0001 26.46 29.3301 28.19 26.9701 29.72C24.8301 31.11 22.8101 32.32 20.0801 32.43C15.6601 32.6 14.1301 30.71 14.1001 30.6V29.39C14.1001 29.39 15.0701 31.53 20.0701 31.5C22.5301 31.49 24.3501 30.31 26.4601 28.94C28.9101 27.35 31.6801 25.55 36.1601 25.09C43.1001 24.38 48.2301 26.93 53.1901 29.4C58.3801 31.98 63.3301 34.4 69.6001 32.3V33.29C67.8101 33.89 66.3901 34.05 64.7901 34.05V34.06Z" fill="#644DF6"/>
<path d="M38.8101 33.83C35.6201 33.83 33.0801 31.68 30.6001 29.58C28.7201 27.99 26.7701 26.36 24.5201 25.55C17.6501 23.1 14.1301 27.58 14.1001 27.62V26.26C14.1001 26.26 14.7601 25.4 16.5801 24.62C18.2301 23.91 21.0001 23.35 24.8301 24.68C27.2501 25.52 29.2601 27.23 31.2101 28.88C35.1601 32.23 38.5701 35.12 44.4801 30.59C48.9601 27.16 53.1901 23.89 57.3501 22.7C61.4201 21.53 65.6601 22.39 69.6301 26.36L69.6001 27.6C61.1701 19.13 53.9901 24.5 45.0501 31.33C42.6801 33.14 40.6401 33.84 38.8201 33.84L38.8101 33.83Z" fill="white" stroke="black" stroke-width="0.25" stroke-miterlimit="10"/>
<path d="M76.8901 36.44H113.96C115.06 36.44 115.96 37.34 115.96 38.44V93.56C115.96 94.66 115.06 95.56 113.96 95.56H76.8901C75.7901 95.56 74.8901 94.66 74.8901 93.56V38.44C74.8901 37.34 75.7901 36.44 76.8901 36.44Z" fill="white" stroke="#252525" stroke-width="0.25" stroke-miterlimit="10"/>
<path d="M93.7902 87.45H97.0602C99.1702 87.45 100.88 89.16 100.88 91.27V94.54C100.88 96.65 99.1702 98.36 97.0602 98.36H93.7902C91.6802 98.36 89.9702 96.65 89.9702 94.54V91.27C89.9702 89.16 91.6802 87.45 93.7902 87.45Z" fill="white" stroke="#252525" stroke-width="0.25" stroke-miterlimit="10"/>
<path d="M95.9402 90.74H94.9102V95.08H95.9402V90.74Z" fill="#644DF6"/>
<path d="M97.5898 93.42V92.39H93.2498V93.42H97.5898Z" fill="#644DF6"/>
<path d="M108.67 72.49H80.5801C80.1769 72.49 79.8501 72.8168 79.8501 73.22V73.86C79.8501 74.2632 80.1769 74.59 80.5801 74.59H108.67C109.073 74.59 109.4 74.2632 109.4 73.86V73.22C109.4 72.8168 109.073 72.49 108.67 72.49Z" fill="#252525"/>
<path d="M80.5801 77.13H100.14C100.55 77.13 100.87 77.46 100.87 77.86V78.49C100.87 78.9 100.54 79.23 100.13 79.23H80.5701C80.1601 79.23 79.8301 78.9 79.8301 78.49V77.86C79.8301 77.45 80.1601 77.13 80.5601 77.13H80.5801Z" fill="#252525"/>
<path d="M104.09 81.76H80.5901C80.1814 81.76 79.8501 82.0913 79.8501 82.5V83.12C79.8501 83.5287 80.1814 83.86 80.5901 83.86H104.09C104.499 83.86 104.83 83.5287 104.83 83.12V82.5C104.83 82.0913 104.499 81.76 104.09 81.76Z" fill="#252525"/>
<path d="M110.45 69.4H80.7799C79.7599 69.4 78.9399 68.58 78.9399 67.56V40.9C78.9399 39.88 79.7699 39.06 80.7799 39.06H110.45C111.47 39.06 112.29 39.89 112.29 40.9V67.56C112.29 68.58 111.46 69.4 110.45 69.4ZM80.7799 39.49C79.9999 39.49 79.3799 40.12 79.3799 40.89V67.56C79.3799 68.34 80.0099 68.96 80.7799 68.96H110.45C111.23 68.96 111.85 68.33 111.85 67.56V40.9C111.85 40.12 111.22 39.5 110.45 39.5H80.7799V39.49Z" fill="#644DF6"/>
<path fill-rule="evenodd" clip-rule="evenodd" d="M97.2701 52C97.7601 52 98.1501 52.39 98.1501 52.88C98.1501 53.37 97.7601 53.76 97.2701 53.76C96.7801 53.76 96.3901 53.37 96.3901 52.88C96.3901 52.39 96.7801 52 97.2701 52Z" fill="white"/>
<path fill-rule="evenodd" clip-rule="evenodd" d="M83.6102 41.43H81.4202V43.61H80.4502V41.43V40.46H81.4202H83.6102V41.43Z" fill="#644DF6"/>
<path fill-rule="evenodd" clip-rule="evenodd" d="M107.63 41.43H109.81V43.61H110.78V41.43V40.46H109.81H107.63V41.43Z" fill="#644DF6"/>
<path fill-rule="evenodd" clip-rule="evenodd" d="M83.6102 67.02H81.4202V64.84H80.4502V67.02V67.99H81.4202H83.6102V67.02Z" fill="#644DF6"/>
<path fill-rule="evenodd" clip-rule="evenodd" d="M107.63 67.02H109.81V64.84H110.78V67.02V67.99H109.81H107.63V67.02Z" fill="#644DF6"/>
<g style="mix-blend-mode:hard-light">
<path d="M59.4901 59.27H5.12012C4.01555 59.27 3.12012 60.1654 3.12012 61.27V110.72C3.12012 111.825 4.01555 112.72 5.12012 112.72H59.4901C60.5947 112.72 61.4901 111.825 61.4901 110.72V61.27C61.4901 60.1654 60.5947 59.27 59.4901 59.27Z" fill="white"/>
<path d="M59.4901 59.27H5.12012C4.01555 59.27 3.12012 60.1654 3.12012 61.27V110.72C3.12012 111.825 4.01555 112.72 5.12012 112.72H59.4901C60.5947 112.72 61.4901 111.825 61.4901 110.72V61.27C61.4901 60.1654 60.5947 59.27 59.4901 59.27Z" stroke="#252525" stroke-width="0.25" stroke-miterlimit="10"/>
</g>
<path d="M45.3499 67.46H53.4499C53.9599 67.46 54.3799 67.05 54.3799 66.53C54.3799 66.02 53.9699 65.6 53.4499 65.6H45.3499C44.8399 65.6 44.4199 66.01 44.4199 66.53C44.4199 67.04 44.8299 67.46 45.3499 67.46Z" stroke="#252525" stroke-width="0.25" stroke-miterlimit="10"/>
<path d="M45.3499 70.69H53.4499C53.9599 70.69 54.3799 70.28 54.3799 69.76C54.3799 69.25 53.9699 68.83 53.4499 68.83H45.3499C44.8399 68.83 44.4199 69.24 44.4199 69.76C44.4199 70.27 44.8299 70.69 45.3499 70.69Z" stroke="#252525" stroke-width="0.25" stroke-miterlimit="10"/>
<path d="M45.3499 73.92H53.4499C53.9599 73.92 54.3799 73.51 54.3799 72.99C54.3799 72.48 53.9699 72.06 53.4499 72.06H45.3499C44.8399 72.06 44.4199 72.47 44.4199 72.99C44.4199 73.5 44.8299 73.92 45.3499 73.92Z" stroke="#252525" stroke-width="0.25" stroke-miterlimit="10"/>
<path d="M9.90004 65.32H37.2C38.23 65.32 39.06 66.15 39.06 67.18V67.91C39.06 68.94 38.23 69.77 37.2 69.77H9.90004C8.87004 69.77 8.04004 68.94 8.04004 67.91V67.18C8.04004 66.15 8.87004 65.32 9.90004 65.32Z" fill="#644DF6"/>
<path d="M37.19 71.7H9.90004C8.87279 71.7 8.04004 72.5328 8.04004 73.56V74.29C8.04004 75.3173 8.87279 76.15 9.90004 76.15H37.19C38.2173 76.15 39.05 75.3173 39.05 74.29V73.56C39.05 72.5328 38.2173 71.7 37.19 71.7Z" stroke="#644DF6" stroke-width="0.25" stroke-miterlimit="10"/>
<path d="M52.4604 79.33H10.0304C8.96996 79.33 8.11035 80.1896 8.11035 81.25V106.38C8.11035 107.44 8.96996 108.3 10.0304 108.3H52.4604C53.5207 108.3 54.3804 107.44 54.3804 106.38V81.25C54.3804 80.1896 53.5207 79.33 52.4604 79.33Z" stroke="#644DF6" stroke-width="0.25" stroke-miterlimit="10"/>
<path d="M33.76 108.42H34.05V107.51C34.18 104.82 35.35 103.7 36.03 103.27C36.85 102.75 37.0701 102.71 37.7001 102.57C37.8801 102.53 38.1 102.48 38.37 102.42C38.49 102.39 38.6101 102.36 38.7401 102.33C39.2601 102.21 39.79 102.09 40.28 101.85C40.99 101.51 41.49 100.96 41.64 100.35C41.8 99.71 41.53 99.05 41.3 98.47C41.27 98.39 41.2301 98.3 41.2001 98.22C41.1201 98.02 41.15 97.79 41.26 97.61C41.29 97.56 41.33 97.52 41.37 97.47C41.43 97.4 41.4901 97.33 41.5401 97.24C41.6601 97.02 41.67 96.74 41.55 96.51C41.49 96.4 41.3901 96.29 41.2701 96.21C41.35 96.15 41.42 96.07 41.46 95.98C41.6 95.71 41.5801 95.44 41.4001 95.29C41.1101 95.04 40.86 94.82 40.78 94.52C40.75 94.42 40.75 94.34 40.78 94.23C41.06 94.04 41.37 93.82 41.6 93.53C41.87 93.16 41.96 92.72 41.82 92.36C41.68 92.01 41.3701 91.78 41.1101 91.61C40.9001 91.46 40.68 91.32 40.4701 91.19C39.8801 90.81 39.33 90.46 38.91 89.93C38.58 89.51 38.4001 89.01 38.2001 88.48C38.1201 88.26 38.0401 88.04 37.9501 87.83C37.5 86.76 36.7701 85.84 36.0601 84.96C35.2701 83.97 33.7801 83.03 33.34 82.77C31.1 81.42 29.28 81.38 27.31 81.46C25.04 81.55 22.85 82.28 21.16 83.51C19.97 84.37 18.96 85.53 18.24 86.87C17.52 88.21 17.1 89.69 17.04 91.16C16.97 92.63 17.26 94.14 17.85 95.54C18.45 96.94 19.35 98.18 20.46 99.15C21.41 99.98 21.98 100.55 22.82 101.5C24.29 103.17 24.62 105.74 23.63 107.73L23.9 107.86C24.94 105.76 24.59 103.06 23.05 101.3C22.2 100.34 21.62 99.76 20.66 98.92C19.58 97.98 18.71 96.77 18.13 95.42C17.55 94.07 17.28 92.6 17.34 91.17C17.4 89.75 17.81 88.31 18.51 87.01C19.21 85.71 20.19 84.59 21.35 83.75C23 82.56 25.13 81.85 27.34 81.76C29.67 81.67 31.2201 81.84 33.2001 83.03C33.6301 83.29 35.07 84.2 35.84 85.15C36.5301 86.02 37.25 86.92 37.69 87.95C37.78 88.16 37.8601 88.38 37.93 88.59C38.1201 89.12 38.32 89.67 38.68 90.13C39.1301 90.7 39.73 91.08 40.32 91.45C40.53 91.58 40.7401 91.72 40.9501 91.86C41.2201 92.05 41.46 92.23 41.55 92.48C41.67 92.79 41.53 93.14 41.37 93.36C41.16 93.63 40.8701 93.83 40.5801 94.03C40.5501 94.05 40.5301 94.08 40.5201 94.11C40.4701 94.29 40.46 94.44 40.5 94.61C40.6101 95.03 40.9601 95.32 41.2201 95.54C41.2901 95.6 41.26 95.75 41.21 95.86C41.15 95.98 41.0201 96.07 40.8801 96.08C40.8001 96.08 40.75 96.15 40.75 96.23C40.75 96.31 40.8001 96.37 40.8801 96.38C41.0401 96.4 41.23 96.53 41.3 96.67C41.37 96.81 41.37 96.99 41.3 97.12C41.27 97.18 41.22 97.24 41.17 97.3C41.13 97.35 41.0801 97.41 41.0401 97.47C40.8701 97.73 40.84 98.07 40.9501 98.36C40.9801 98.44 41.02 98.53 41.05 98.61C41.28 99.18 41.51 99.76 41.3801 100.3C41.2501 100.83 40.81 101.3 40.18 101.6C39.7201 101.82 39.2001 101.94 38.7001 102.06C38.58 102.09 38.4501 102.12 38.3301 102.15C38.0601 102.22 37.85 102.26 37.67 102.3C37.01 102.44 36.7701 102.5 35.9001 103.04C35.1101 103.54 34.5301 104.33 34.17 105.39C33.9501 106.03 33.8201 106.76 33.7801 107.52V108.43L33.76 108.42Z" fill="black"/>
<path d="M34.6 92.51C34.94 92.51 35.29 92.44 35.61 92.3C36.23 92.02 36.76 91.48 37.06 90.8C37.09 90.72 37.06 90.64 36.98 90.6C36.9 90.57 36.82 90.6 36.78 90.68C36.51 91.29 36.04 91.78 35.49 92.02C34.94 92.27 34.31 92.27 33.75 92.04C33.67 92.01 33.59 92.04 33.55 92.12C33.52 92.2 33.55 92.28 33.63 92.32C33.94 92.45 34.27 92.52 34.6 92.52V92.51Z" fill="black"/>
<path d="M39.03 88.19L39.21 88.13C39.23 88.2 39.26 88.27 39.28 88.35L39.1 88.41C39.08 88.34 39.05 88.27 39.03 88.2V88.19ZM38.88 87.77L39.05 87.7C39.08 87.77 39.11 87.84 39.13 87.91L38.95 87.98C38.92 87.91 38.9 87.84 38.87 87.77H38.88ZM38.7 87.36L38.87 87.28C38.9 87.35 38.93 87.42 38.96 87.49L38.79 87.56C38.76 87.49 38.73 87.42 38.7 87.36ZM38.51 86.96L38.68 86.87C38.71 86.94 38.75 87.01 38.78 87.07L38.61 87.15C38.58 87.08 38.54 87.02 38.51 86.95V86.96ZM38.29 86.56L38.45 86.47C38.49 86.54 38.52 86.6 38.56 86.67L38.39 86.76C38.35 86.69 38.32 86.63 38.28 86.56H38.29ZM38.06 86.18L38.22 86.08C38.26 86.14 38.3 86.21 38.34 86.27L38.18 86.37C38.14 86.31 38.1 86.24 38.06 86.18ZM37.82 85.81L37.97 85.7C38.01 85.76 38.06 85.83 38.1 85.89L37.94 85.99C37.9 85.93 37.86 85.87 37.81 85.81H37.82ZM37.55 85.45L37.7 85.34C37.75 85.4 37.79 85.46 37.84 85.52L37.69 85.63C37.65 85.57 37.6 85.51 37.56 85.45H37.55ZM37.27 85.1L37.41 84.98C37.46 85.04 37.51 85.1 37.55 85.16L37.4 85.28C37.35 85.22 37.31 85.16 37.26 85.11L37.27 85.1ZM36.98 84.76L37.12 84.63C37.17 84.69 37.22 84.74 37.27 84.8L37.13 84.92C37.08 84.86 37.03 84.81 36.98 84.75V84.76ZM36.67 84.44L36.8 84.31C36.85 84.36 36.91 84.42 36.96 84.47L36.82 84.6C36.77 84.55 36.72 84.49 36.66 84.44H36.67ZM36.34 84.14L36.47 84C36.53 84.05 36.58 84.1 36.64 84.15L36.51 84.29C36.46 84.24 36.4 84.19 36.35 84.14H36.34ZM36 83.84L36.12 83.69C36.18 83.74 36.24 83.79 36.29 83.84L36.17 83.98C36.11 83.93 36.06 83.88 36 83.84ZM35.65 83.57L35.76 83.42C35.82 83.46 35.88 83.51 35.94 83.56L35.82 83.71C35.76 83.66 35.7 83.62 35.64 83.57H35.65ZM35.29 83.31L35.39 83.15C35.45 83.19 35.52 83.24 35.58 83.28L35.47 83.43C35.41 83.39 35.35 83.34 35.29 83.3V83.31Z" fill="black"/>
<path d="M25.0899 105.55C25.0999 105.48 25.1099 105.4 25.1199 105.33L25.3099 105.35C25.3099 105.43 25.2899 105.5 25.2699 105.58L25.0799 105.55H25.0899ZM25.1499 105.12C25.1499 105.05 25.1499 104.97 25.1499 104.9H25.3399C25.3399 104.98 25.3399 105.06 25.3299 105.13H25.1399L25.1499 105.12ZM25.1499 104.45L25.3399 104.43C25.3399 104.51 25.3499 104.58 25.3499 104.66H25.1599C25.1599 104.59 25.1599 104.52 25.1499 104.45ZM25.0899 104.01L25.2799 103.98C25.2899 104.06 25.2999 104.13 25.3099 104.21L25.1199 104.23C25.1199 104.16 25.0999 104.08 25.0899 104.01ZM24.9899 103.58L25.1699 103.53C25.1899 103.6 25.2099 103.68 25.2199 103.75L25.0399 103.79C25.0199 103.72 25.0099 103.65 24.9899 103.57V103.58ZM24.8599 103.16L25.0399 103.1C25.0699 103.17 25.0899 103.25 25.1099 103.32L24.9299 103.38C24.9099 103.31 24.8899 103.24 24.8599 103.17V103.16ZM24.6999 102.74L24.8699 102.66C24.8999 102.73 24.9299 102.8 24.9599 102.87L24.7799 102.94C24.7499 102.87 24.7199 102.8 24.6899 102.73L24.6999 102.74ZM24.5099 102.34L24.6799 102.25C24.7199 102.32 24.7499 102.39 24.7799 102.45L24.6099 102.53C24.5799 102.46 24.5399 102.4 24.5099 102.33V102.34ZM24.2899 101.96L24.4499 101.86C24.4899 101.93 24.5299 101.99 24.5699 102.06L24.4099 102.15C24.3699 102.09 24.3399 102.02 24.2999 101.96H24.2899ZM24.0499 101.58L24.1999 101.47C24.2399 101.53 24.2899 101.6 24.3299 101.66L24.1699 101.76C24.1299 101.7 24.0899 101.64 24.0499 101.57V101.58ZM23.7799 101.22L23.9299 101.11C23.9799 101.17 24.0199 101.23 24.0699 101.29L23.9199 101.4C23.8799 101.34 23.8299 101.28 23.7899 101.22H23.7799ZM23.4999 100.87L23.6399 100.75C23.6899 100.81 23.7399 100.87 23.7799 100.93L23.6299 101.05C23.5799 100.99 23.5399 100.93 23.4899 100.88L23.4999 100.87ZM23.2099 100.53L23.3499 100.4C23.3999 100.46 23.4499 100.51 23.4999 100.57L23.3599 100.69C23.3099 100.63 23.2599 100.58 23.2099 100.52V100.53ZM22.8999 100.21L23.0399 100.08C23.0899 100.13 23.1399 100.19 23.1999 100.24L23.0599 100.37C23.0099 100.32 22.9599 100.26 22.9099 100.21H22.8999ZM22.5899 99.89L22.7199 99.76C22.7699 99.81 22.8299 99.87 22.8799 99.92L22.7499 100.05C22.6999 100 22.6399 99.94 22.5899 99.89ZM22.3899 99.69C22.3899 99.69 22.3099 99.61 22.2699 99.57L22.3999 99.43C22.3999 99.43 22.4799 99.51 22.5199 99.55L22.5599 99.59L22.4299 99.73L22.3899 99.69ZM21.9299 99.27L22.0599 99.13C22.1199 99.18 22.1699 99.23 22.2299 99.28L22.0999 99.42C22.0399 99.37 21.9899 99.32 21.9299 99.27ZM21.5999 98.97L21.7299 98.83C21.7899 98.88 21.8399 98.93 21.8999 98.98L21.7699 99.12C21.7099 99.07 21.6599 99.02 21.5999 98.97ZM21.2599 98.66L21.3899 98.52L21.5599 98.67L21.4299 98.81L21.2599 98.66ZM20.9299 98.36L21.0599 98.22C21.1199 98.27 21.1699 98.32 21.2299 98.37L21.0999 98.51C21.0399 98.46 20.9899 98.41 20.9299 98.36ZM20.5899 98.06L20.7199 97.92C20.7799 97.97 20.8299 98.02 20.8899 98.07L20.7599 98.21C20.6999 98.16 20.6499 98.11 20.5899 98.06ZM20.2599 97.75L20.3899 97.61C20.4399 97.66 20.4999 97.71 20.5499 97.76L20.4199 97.9C20.3599 97.85 20.3099 97.8 20.2599 97.74V97.75ZM19.9399 97.43L20.0699 97.3C20.1199 97.35 20.1799 97.41 20.2299 97.46L20.0999 97.59C20.0499 97.54 19.9899 97.48 19.9399 97.43Z" fill="black"/>
<path d="M34.6802 106.55C34.7002 106.48 34.7202 106.4 34.7302 106.33L34.9102 106.38C34.8902 106.45 34.8702 106.53 34.8602 106.6L34.6802 106.56V106.55ZM34.7902 106.11C34.8102 106.03 34.8302 105.96 34.8502 105.89L35.0302 105.94C35.0102 106.01 34.9902 106.08 34.9702 106.16L34.7902 106.11ZM34.9202 105.68C34.9402 105.61 34.9702 105.53 35.0002 105.46L35.1802 105.53C35.1602 105.6 35.1302 105.67 35.1102 105.74L34.9302 105.68H34.9202ZM35.0902 105.25C35.1202 105.18 35.1502 105.11 35.1802 105.04L35.3502 105.12C35.3202 105.19 35.2902 105.25 35.2602 105.32L35.0902 105.25ZM35.2902 104.83C35.3302 104.76 35.3702 104.69 35.4102 104.63L35.5702 104.73C35.5302 104.79 35.4902 104.85 35.4602 104.92L35.3002 104.83H35.2902ZM35.5402 104.44C35.5902 104.38 35.6402 104.32 35.6902 104.26L35.8302 104.38C35.7802 104.43 35.7402 104.49 35.6902 104.55L35.5402 104.44ZM35.8402 104.09C35.9002 104.04 35.9502 103.98 36.0102 103.93L36.1302 104.08C36.0702 104.13 36.0202 104.18 35.9702 104.22L35.8402 104.08V104.09ZM36.2002 103.79C36.2602 103.75 36.3302 103.7 36.3902 103.66L36.4902 103.82C36.4302 103.86 36.3602 103.9 36.3102 103.94L36.2002 103.79ZM36.6002 103.55C36.6702 103.52 36.7402 103.48 36.8102 103.45L36.8902 103.62C36.8202 103.65 36.7502 103.68 36.6902 103.72L36.6002 103.55ZM37.0202 103.36C37.0902 103.33 37.1602 103.3 37.2302 103.28L37.3002 103.46C37.2302 103.49 37.1602 103.51 37.0902 103.54L37.0202 103.37V103.36ZM37.4502 103.2C37.5202 103.18 37.5902 103.15 37.6702 103.13L37.7302 103.31C37.6602 103.33 37.5902 103.36 37.5202 103.38L37.4602 103.2H37.4502ZM37.8802 103.06C37.9502 103.04 38.0202 103.02 38.1002 102.99L38.1502 103.17C38.0802 103.19 38.0102 103.21 37.9302 103.24L37.8702 103.06H37.8802Z" fill="black"/>
<path d="M94.7904 60.09C94.6604 60.23 95.8204 60.98 96.3004 61.6C96.7904 62.23 98.5404 65.47 99.4804 65.23C100.42 64.99 99.7204 62.48 99.7204 62.48C99.7204 62.48 100.14 59.73 99.9704 59.75C99.8004 59.77 95.1904 59.66 94.7804 60.07L94.7904 60.09Z" fill="#644DF6"/>
<g opacity="0.3">
<path d="M94.7904 60.09C94.6604 60.23 95.8204 60.98 96.3004 61.6C96.7904 62.23 98.5404 65.47 99.4804 65.23C100.42 64.99 99.7204 62.48 99.7204 62.48C99.7204 62.48 100.14 59.73 99.9704 59.75C99.8004 59.77 95.1904 59.66 94.7804 60.07L94.7904 60.09Z" fill="black"/>
</g>
<path d="M82.6501 54.24C82.6501 54.24 82.7201 56.61 85.5401 57.13L88.0201 57.37C88.0201 57.37 88.0901 60.78 92.1201 60.85L95.2501 60.47C95.2501 60.47 100.07 60.33 103.17 60.61C104.05 60.69 105.34 60.81 106.61 60.37C107.88 59.92 112.22 55.83 107.85 50.74C107.85 50.74 108.23 48.43 105.89 47.88C105.89 47.88 104.86 44.71 101.42 44.75C101.42 44.75 100.28 43.34 98.5601 43.92C98.5601 43.92 95.2601 42.43 92.7401 43.78C92.7401 43.78 89.7501 43.13 87.5101 45.57C87.5101 45.57 85.1001 46.33 84.4801 48.15C84.4801 48.15 81.5201 50.06 82.4101 52.27C82.4101 52.27 81.8901 52.66 82.0001 53.41C82.1001 54.17 82.6501 54.24 82.6501 54.24Z" fill="#644DF6"/>
<path d="M100.48 51.7C100.48 51.7 100.34 51.72 100.14 51.89C100.05 51.97 99.9402 52.1 99.8802 52.27C99.8202 52.44 99.7802 52.66 99.8602 52.89V52.92H99.8402C99.5102 52.83 99.1202 52.74 98.6802 52.69C98.2402 52.64 97.7502 52.63 97.2202 52.67C96.1702 52.75 94.9702 53.09 93.8802 53.78H93.8702C93.6402 53.71 93.3902 53.65 93.1302 53.61C92.5502 53.52 91.9802 53.49 91.4302 53.55C91.1602 53.58 90.8902 53.63 90.6502 53.73C90.4002 53.82 90.1602 53.92 89.9402 54.05C89.7202 54.18 89.5302 54.34 89.3502 54.5C89.1702 54.66 89.0002 54.82 88.8502 54.99C88.5602 55.33 88.3402 55.7 88.1902 56.05C88.1202 56.23 88.0602 56.4 88.0302 56.57C88.0002 56.74 87.9802 56.9 87.9802 57.05C87.9802 57.35 88.0302 57.61 88.0802 57.82C88.1302 58.03 88.1802 58.19 88.2202 58.29C88.2402 58.34 88.2502 58.38 88.2602 58.41C88.2602 58.44 88.2702 58.45 88.2702 58.45C88.2702 58.45 88.1702 58.23 88.0602 57.82C88.0102 57.61 87.9602 57.35 87.9502 57.04C87.9502 56.89 87.9602 56.72 87.9902 56.55C88.0202 56.38 88.0802 56.2 88.1502 56.02C88.3002 55.66 88.5102 55.29 88.8102 54.95C88.9602 54.78 89.1302 54.62 89.3102 54.46C89.4902 54.3 89.6802 54.14 89.9002 54.01C90.1202 53.88 90.3602 53.78 90.6102 53.68C90.8602 53.58 91.1302 53.52 91.4102 53.49C91.9602 53.43 92.5402 53.46 93.1202 53.55C93.3802 53.59 93.6302 53.65 93.8702 53.72H93.8502C94.9502 53.03 96.1602 52.69 97.2202 52.61C97.7502 52.57 98.2502 52.58 98.6902 52.63C99.1302 52.68 99.5202 52.77 99.8602 52.87L99.8402 52.89C99.7602 52.66 99.7902 52.43 99.8602 52.26C99.9302 52.09 100.04 51.96 100.13 51.87C100.23 51.79 100.32 51.74 100.38 51.72C100.44 51.7 100.48 51.69 100.48 51.69V51.7Z" fill="#1A2E35"/>
<path d="M104.78 51.38C104.78 51.38 104.78 51.4 104.77 51.42C104.77 51.45 104.75 51.49 104.73 51.55C104.7 51.66 104.64 51.82 104.55 52.03C104.46 52.23 104.35 52.48 104.19 52.75C104.11 52.89 104.02 53.03 103.92 53.18C103.82 53.33 103.71 53.48 103.58 53.64C103.08 54.26 102.38 54.92 101.44 55.41C100.97 55.65 100.45 55.85 99.9003 55.99C99.3403 56.12 98.7503 56.19 98.1403 56.18C97.8103 56.18 97.4803 56.14 97.1603 56.09C96.8403 56.04 96.5303 55.96 96.2403 55.87H96.2603C95.7403 56.26 95.1403 56.47 94.5703 56.54C93.9903 56.61 93.4403 56.54 92.9803 56.36H93.0003C92.7903 56.52 92.5703 56.63 92.3503 56.71C92.1303 56.79 91.9103 56.84 91.7003 56.86C91.6503 56.86 91.6003 56.87 91.5503 56.87C91.5003 56.87 91.4503 56.87 91.4003 56.87C91.3003 56.87 91.2103 56.87 91.1203 56.85C91.0803 56.85 91.0303 56.84 90.9903 56.83C90.9503 56.83 90.9103 56.81 90.8703 56.81C90.7903 56.8 90.7103 56.77 90.6403 56.75C90.3603 56.67 90.1503 56.55 90.0203 56.47C89.9503 56.43 89.9103 56.39 89.8703 56.37C89.8403 56.35 89.8203 56.33 89.8203 56.33C89.8203 56.33 89.8403 56.34 89.8703 56.36C89.9003 56.38 89.9503 56.42 90.0203 56.46C90.1503 56.54 90.3603 56.65 90.6403 56.73C90.7103 56.75 90.7903 56.77 90.8703 56.78C90.9103 56.78 90.9503 56.79 90.9903 56.8C91.0303 56.8 91.0803 56.8 91.1203 56.81C91.2103 56.82 91.3003 56.81 91.4003 56.82C91.4503 56.82 91.5003 56.82 91.5503 56.82C91.6003 56.82 91.6503 56.82 91.7003 56.81C91.9103 56.79 92.1203 56.74 92.3403 56.66C92.5603 56.58 92.7803 56.46 92.9803 56.31H92.9903C93.4503 56.48 93.9903 56.55 94.5603 56.48C95.1303 56.41 95.7203 56.2 96.2303 55.81H96.2403C96.5303 55.9 96.8403 55.98 97.1603 56.03C97.4803 56.08 97.8003 56.11 98.1303 56.12C98.7303 56.13 99.3203 56.06 99.8703 55.93C100.42 55.8 100.94 55.6 101.4 55.36C102.33 54.87 103.03 54.22 103.53 53.61C103.66 53.46 103.76 53.3 103.87 53.16C103.97 53.01 104.06 52.87 104.14 52.73C104.3 52.46 104.41 52.21 104.51 52.01C104.59 51.81 104.66 51.65 104.7 51.54C104.72 51.49 104.73 51.45 104.74 51.42C104.75 51.39 104.76 51.38 104.76 51.38H104.78Z" fill="#1A2E35"/>
<path d="M90.3501 58.81C90.3501 58.81 90.3501 58.78 90.3501 58.72C90.3501 58.66 90.3501 58.58 90.3501 58.47C90.3501 58.26 90.3801 57.96 90.5001 57.66C90.6201 57.36 90.8501 57.13 91.0401 57.04C91.1301 56.99 91.2201 56.96 91.2801 56.95C91.3401 56.94 91.3701 56.94 91.3701 56.95C91.3701 56.96 91.2401 56.97 91.0601 57.07C90.8801 57.17 90.6701 57.39 90.5501 57.68C90.4301 57.98 90.4001 58.27 90.3901 58.48C90.3701 58.69 90.3701 58.82 90.3601 58.82L90.3501 58.81Z" fill="#1A2E35"/>
<path d="M103.93 58.18C103.93 58.18 103.92 58.18 103.9 58.18C103.88 58.18 103.85 58.17 103.82 58.16C103.74 58.14 103.64 58.11 103.5 58.08C103.43 58.06 103.35 58.04 103.27 58.02C103.18 58 103.09 57.98 102.99 57.96C102.89 57.94 102.78 57.91 102.67 57.89C102.56 57.87 102.44 57.85 102.31 57.82C101.8 57.72 101.19 57.64 100.51 57.59C99.8301 57.54 99.0801 57.53 98.3001 57.58C97.2901 57.64 96.3501 57.79 95.5501 57.97C94.7501 58.15 94.0901 58.38 93.6201 58.54C93.6001 58.67 93.5601 58.8 93.5101 58.9C93.4501 59 93.3801 59.07 93.3201 59.11C93.2001 59.21 93.1201 59.24 93.1201 59.24C93.1201 59.24 93.1401 59.23 93.1701 59.21C93.2001 59.19 93.2501 59.15 93.3101 59.11C93.3701 59.06 93.4301 58.99 93.4901 58.9C93.5401 58.8 93.5801 58.68 93.5901 58.54V58.53C94.0601 58.36 94.7201 58.13 95.5201 57.94C96.3201 57.75 97.2701 57.6 98.2801 57.54C99.0701 57.49 99.8201 57.5 100.5 57.56C101.18 57.61 101.79 57.7 102.3 57.8C102.43 57.82 102.55 57.85 102.66 57.87C102.77 57.9 102.88 57.92 102.98 57.95C103.08 57.97 103.17 58 103.26 58.02C103.35 58.04 103.42 58.07 103.49 58.08C103.63 58.12 103.73 58.15 103.81 58.17C103.84 58.18 103.87 58.19 103.89 58.2C103.91 58.2 103.92 58.2 103.92 58.21L103.93 58.18Z" fill="#1A2E35"/>
<path d="M106.47 56.81C106.47 56.81 106.47 56.81 106.5 56.79C106.52 56.78 106.54 56.76 106.58 56.74C106.65 56.7 106.75 56.63 106.87 56.54C107.11 56.36 107.45 56.07 107.76 55.62C107.91 55.4 108.05 55.13 108.15 54.83C108.25 54.53 108.3 54.19 108.29 53.83C108.27 53.47 108.18 53.1 107.98 52.77C107.78 52.44 107.49 52.15 107.12 51.96C106.89 51.84 106.65 51.78 106.41 51.76H106.37L106.39 51.72C106.55 51.39 106.65 51.04 106.63 50.69C106.61 50.35 106.48 50.03 106.32 49.76C106.16 49.49 105.94 49.27 105.71 49.12C105.48 48.97 105.23 48.88 105 48.83C104.77 48.78 104.56 48.77 104.37 48.78C104.18 48.78 104.02 48.8 103.89 48.81C103.76 48.82 103.66 48.83 103.59 48.84C103.56 48.84 103.53 48.84 103.51 48.84C103.49 48.84 103.48 48.84 103.48 48.84C103.48 48.84 103.48 48.84 103.51 48.84C103.53 48.84 103.56 48.84 103.59 48.84C103.66 48.84 103.76 48.82 103.89 48.8C104.02 48.79 104.18 48.77 104.37 48.76C104.56 48.76 104.77 48.76 105.01 48.8C105.24 48.84 105.5 48.93 105.73 49.09C105.97 49.24 106.18 49.46 106.35 49.74C106.52 50.01 106.65 50.33 106.67 50.69C106.69 51.04 106.59 51.41 106.43 51.74L106.41 51.7C106.65 51.72 106.91 51.79 107.14 51.91C107.51 52.1 107.82 52.4 108.02 52.74C108.22 53.08 108.32 53.46 108.33 53.83C108.35 54.19 108.29 54.54 108.19 54.84C108.09 55.15 107.95 55.41 107.79 55.64C107.48 56.09 107.13 56.38 106.88 56.55C106.63 56.73 106.48 56.8 106.48 56.8L106.47 56.81Z" fill="#1A2E35"/>
<path d="M97.8701 52.52C97.8701 52.52 97.8401 52.52 97.8001 52.52C97.7801 52.52 97.7501 52.51 97.7201 52.5C97.6901 52.49 97.6501 52.48 97.6101 52.46C97.5301 52.43 97.4401 52.37 97.3501 52.3C97.2601 52.23 97.1701 52.14 97.1001 52.03C97.0301 51.92 96.9701 51.81 96.9301 51.7C96.9001 51.59 96.8801 51.49 96.8701 51.4C96.8701 51.36 96.8701 51.32 96.8701 51.28C96.8701 51.25 96.8701 51.22 96.8701 51.19C96.8701 51.14 96.8801 51.12 96.8901 51.12C96.8901 51.12 96.8901 51.23 96.9001 51.39C96.9001 51.47 96.9301 51.57 96.9701 51.67C97.0101 51.77 97.0601 51.88 97.1301 51.99C97.2001 52.09 97.2901 52.18 97.3701 52.25C97.4501 52.32 97.5401 52.38 97.6101 52.41C97.7601 52.49 97.8601 52.51 97.8601 52.52H97.8701Z" fill="#1A2E35"/>
<path d="M94.3804 52.29C94.3804 52.29 94.4204 52.37 94.4304 52.52C94.4504 52.67 94.4304 52.87 94.3604 53.08C94.2904 53.29 94.1704 53.46 94.0604 53.57C93.9604 53.68 93.8804 53.72 93.8804 53.72C93.8804 53.72 93.9504 53.66 94.0404 53.55C94.1304 53.44 94.2404 53.28 94.3104 53.07C94.3804 52.86 94.4004 52.67 94.3904 52.52C94.3904 52.38 94.3604 52.29 94.3704 52.29H94.3804Z" fill="#1A2E35"/>
<path d="M91.3703 53.52C91.3703 53.52 91.3603 53.52 91.3303 53.52C91.3003 53.52 91.2703 53.52 91.2203 53.52C91.1303 53.51 90.9903 53.45 90.8703 53.33C90.7503 53.21 90.6403 53.03 90.5903 52.8C90.5403 52.58 90.5603 52.33 90.5903 52.07C90.6203 51.81 90.6303 51.57 90.6203 51.35C90.6103 51.13 90.5803 50.93 90.5403 50.77C90.5003 50.61 90.4603 50.48 90.4303 50.39C90.4003 50.3 90.3803 50.25 90.3903 50.25C90.3903 50.25 90.3903 50.26 90.4103 50.28C90.4203 50.3 90.4403 50.34 90.4503 50.38C90.4903 50.47 90.5303 50.6 90.5703 50.76C90.6103 50.92 90.6503 51.12 90.6603 51.35C90.6803 51.57 90.6603 51.82 90.6403 52.08C90.6203 52.34 90.6003 52.58 90.6403 52.8C90.6803 53.02 90.7803 53.19 90.9003 53.31C91.0203 53.43 91.1403 53.49 91.2303 53.51C91.3203 53.53 91.3703 53.52 91.3703 53.53V53.52Z" fill="#1A2E35"/>
<path d="M89.1402 54.66C89.1402 54.66 89.2402 54.54 89.2802 54.3C89.3202 54.06 89.2602 53.71 89.0402 53.42C88.8102 53.13 88.5202 52.95 88.3102 52.83C88.2102 52.77 88.1302 52.73 88.0602 52.69C88.0002 52.66 87.9702 52.64 87.9702 52.63C87.9702 52.63 88.0102 52.64 88.0702 52.67C88.1302 52.7 88.2202 52.74 88.3302 52.8C88.5402 52.92 88.8502 53.09 89.0902 53.39C89.3202 53.7 89.3802 54.07 89.3302 54.31C89.3002 54.43 89.2602 54.53 89.2202 54.58C89.1802 54.64 89.1502 54.66 89.1502 54.66H89.1402Z" fill="#1A2E35"/>
<path d="M88.0302 56.42C88.0302 56.42 88.0102 56.42 87.9602 56.42C87.9102 56.42 87.8402 56.42 87.7502 56.42C87.6602 56.42 87.5502 56.41 87.4302 56.39C87.3102 56.37 87.1602 56.35 87.0102 56.3C86.7002 56.22 86.3402 56.08 85.9802 55.86C85.6202 55.64 85.2502 55.34 84.9502 54.96C84.6402 54.58 84.4302 54.16 84.3002 53.76C84.2402 53.56 84.2102 53.36 84.2002 53.17C84.2002 53.08 84.2002 52.98 84.2202 52.9C84.2402 52.81 84.2602 52.73 84.2902 52.66C84.4002 52.36 84.5402 52.14 84.6602 52C84.7202 51.93 84.7702 51.89 84.8102 51.86C84.8502 51.83 84.8702 51.82 84.8702 51.82C84.8702 51.82 84.8502 51.84 84.8202 51.87C84.7902 51.9 84.7402 51.95 84.6802 52.02C84.5702 52.16 84.4402 52.38 84.3302 52.68C84.3002 52.75 84.2802 52.83 84.2602 52.92C84.2402 53 84.2402 53.09 84.2402 53.18C84.2402 53.36 84.2802 53.56 84.3402 53.76C84.4702 54.16 84.6802 54.57 84.9802 54.95C85.2802 55.33 85.6402 55.62 86.0002 55.84C86.3602 56.06 86.7102 56.2 87.0102 56.28C87.1602 56.33 87.3002 56.35 87.4302 56.37C87.5502 56.39 87.6602 56.4 87.7502 56.41C87.8302 56.41 87.9002 56.41 87.9502 56.41C88.0002 56.41 88.0202 56.41 88.0202 56.41L88.0302 56.42Z" fill="#1A2E35"/>
<path d="M85.6801 49.67C85.6801 49.67 85.6601 49.67 85.6301 49.67C85.5901 49.67 85.5401 49.67 85.4901 49.65C85.3701 49.64 85.1801 49.62 84.9601 49.62C84.7401 49.62 84.4701 49.65 84.1901 49.75C83.9201 49.85 83.6301 50.04 83.4601 50.33C83.2901 50.62 83.2601 50.97 83.3601 51.24C83.4701 51.51 83.7001 51.68 83.9001 51.77C84.1001 51.86 84.2801 51.9 84.4001 51.92C84.5201 51.94 84.5901 51.94 84.5901 51.95C84.5901 51.95 84.5701 51.95 84.5401 51.95C84.5101 51.95 84.4601 51.95 84.4001 51.95C84.2801 51.94 84.0901 51.91 83.8801 51.82C83.7801 51.77 83.6701 51.71 83.5701 51.62C83.4701 51.53 83.3801 51.41 83.3201 51.27C83.2001 50.99 83.2401 50.62 83.4201 50.32C83.6001 50.02 83.9001 49.83 84.1801 49.73C84.4601 49.63 84.7401 49.6 84.9601 49.61C85.1901 49.61 85.3701 49.64 85.4901 49.66C85.5501 49.66 85.6001 49.68 85.6301 49.69C85.6601 49.69 85.6801 49.7 85.6801 49.7V49.67Z" fill="#1A2E35"/>
<path d="M93.6601 46.15C93.6601 46.15 93.6601 46.15 93.6401 46.13C93.6201 46.12 93.6001 46.1 93.5801 46.08C93.5201 46.04 93.4401 45.97 93.3301 45.89C93.1101 45.73 92.7701 45.51 92.3001 45.39C92.0701 45.33 91.8001 45.3 91.5201 45.29C91.2401 45.29 90.9301 45.31 90.6201 45.4C90.3101 45.49 90.0001 45.63 89.7101 45.82C89.4201 46.02 89.1701 46.28 88.9601 46.58C88.9101 46.65 88.8701 46.72 88.8301 46.78L88.8201 46.79C88.1101 46.77 87.4401 47.04 86.9701 47.41C86.7301 47.6 86.5301 47.82 86.3801 48.04C86.2301 48.27 86.1201 48.5 86.0501 48.72C85.9001 49.16 85.8801 49.54 85.8901 49.79C85.8901 49.85 85.8901 49.91 85.9001 49.96C85.9001 50.01 85.9001 50.05 85.9101 50.08C85.9101 50.11 85.9101 50.14 85.9201 50.16C85.9201 50.18 85.9201 50.19 85.9201 50.19C85.9201 50.19 85.8801 50.05 85.8601 49.79C85.8401 49.53 85.8601 49.15 86.0001 48.7C86.0701 48.48 86.1801 48.24 86.3301 48.01C86.4801 47.78 86.6801 47.56 86.9201 47.36C87.4001 46.97 88.0801 46.7 88.8001 46.72H88.7801C88.8201 46.67 88.8601 46.6 88.9101 46.53C89.1201 46.22 89.3801 45.96 89.6701 45.76C89.9601 45.56 90.2801 45.42 90.5901 45.34C90.9001 45.25 91.2101 45.23 91.5001 45.23C91.7901 45.23 92.0601 45.27 92.2901 45.34C92.7701 45.47 93.1001 45.69 93.3201 45.86C93.4301 45.94 93.5101 46.01 93.5601 46.06C93.5901 46.08 93.6101 46.1 93.6201 46.11C93.6301 46.12 93.6401 46.13 93.6401 46.13L93.6601 46.15Z" fill="#1A2E35"/>
<path d="M87.68 48.14C87.68 48.14 87.69 48.14 87.72 48.14C87.75 48.14 87.79 48.14 87.84 48.16C87.94 48.18 88.09 48.24 88.25 48.34C88.41 48.44 88.58 48.6 88.71 48.82C88.84 49.04 88.91 49.32 88.89 49.61C88.87 49.9 88.77 50.17 88.61 50.37C88.46 50.57 88.26 50.71 88.09 50.79C87.92 50.87 87.76 50.9 87.66 50.92C87.61 50.92 87.57 50.92 87.54 50.92C87.51 50.92 87.5 50.92 87.5 50.92C87.5 50.92 87.56 50.92 87.66 50.9C87.76 50.88 87.91 50.85 88.08 50.76C88.25 50.68 88.43 50.54 88.58 50.35C88.73 50.16 88.83 49.89 88.85 49.61C88.87 49.33 88.8 49.06 88.68 48.84C88.56 48.63 88.39 48.47 88.24 48.37C88.08 48.27 87.94 48.21 87.84 48.18C87.74 48.15 87.68 48.14 87.68 48.14Z" fill="#1A2E35"/>
<path d="M90.7702 47.31C90.7702 47.31 90.7902 47.35 90.8102 47.42C90.8302 47.5 90.8502 47.61 90.8602 47.75C90.8702 48.03 90.8002 48.43 90.5402 48.78C90.2802 49.13 89.9002 49.31 89.6302 49.37C89.4902 49.4 89.3802 49.41 89.3002 49.41C89.2202 49.41 89.1802 49.41 89.1802 49.41C89.1802 49.4 89.3502 49.41 89.6202 49.34C89.8802 49.27 90.2402 49.09 90.5002 48.75C90.7502 48.41 90.8302 48.02 90.8302 47.75C90.8302 47.47 90.7702 47.31 90.7802 47.31H90.7702Z" fill="#1A2E35"/>
<path d="M92.9001 51.6C92.9001 51.6 92.9001 51.54 92.9101 51.45C92.9101 51.35 92.9201 51.21 92.9101 51.03C92.8801 50.68 92.7601 50.19 92.4501 49.76C92.1301 49.32 91.7101 49.05 91.3901 48.92C91.2301 48.85 91.0901 48.81 91.0001 48.79C90.9001 48.77 90.8501 48.76 90.8501 48.75C90.8501 48.75 90.8601 48.75 90.8901 48.75C90.9201 48.75 90.9501 48.75 91.0001 48.77C91.1001 48.79 91.2401 48.82 91.4001 48.89C91.7301 49.02 92.1701 49.29 92.4901 49.73C92.8101 50.18 92.9301 50.67 92.9501 51.03C92.9501 51.21 92.9501 51.35 92.9401 51.45C92.9401 51.5 92.9301 51.54 92.9201 51.56C92.9201 51.59 92.9201 51.6 92.9101 51.6H92.9001Z" fill="#1A2E35"/>
<path d="M91.89 46.4901C91.89 46.4901 91.93 46.51 92 46.55C92.07 46.59 92.16 46.67 92.26 46.78C92.36 46.89 92.46 47.03 92.54 47.21C92.62 47.39 92.67 47.6001 92.68 47.8301C92.68 48.0601 92.63 48.2701 92.55 48.4501C92.47 48.6301 92.37 48.7801 92.27 48.8801C92.17 48.9901 92.08 49.0601 92.01 49.1101C91.94 49.1601 91.9 49.17 91.9 49.17C91.9 49.17 92.06 49.0801 92.24 48.8601C92.43 48.6501 92.62 48.2701 92.62 47.8301C92.62 47.3901 92.41 47.0201 92.22 46.8101C92.03 46.5901 91.86 46.51 91.87 46.5L91.89 46.4901Z" fill="#1A2E35"/>
<path d="M93.22 46.56C93.22 46.56 93.18 46.82 93.01 47.1C92.85 47.38 92.65 47.55 92.64 47.54C92.63 47.53 92.81 47.35 92.97 47.07C93.13 46.8 93.21 46.55 93.22 46.56Z" fill="#1A2E35"/>
<path d="M95.0502 43.24C95.0502 43.24 95.0802 43.25 95.1302 43.27C95.1602 43.28 95.1902 43.3 95.2202 43.32C95.2602 43.34 95.2902 43.37 95.3402 43.39C95.5202 43.5 95.7602 43.7 95.9802 44C96.2002 44.3 96.4002 44.72 96.4502 45.22C96.5102 45.72 96.3802 46.28 96.0602 46.77C95.7402 47.27 95.2602 47.62 94.7802 47.78V47.75C95.0102 48.46 95.0002 49.1 94.9502 49.53C94.9202 49.75 94.8902 49.92 94.8602 50.03C94.8502 50.09 94.8302 50.13 94.8202 50.16C94.8202 50.19 94.8102 50.2 94.8002 50.2C94.8002 50.2 94.8002 50.18 94.8002 50.15C94.8002 50.12 94.8202 50.07 94.8302 50.02C94.8602 49.9 94.8902 49.73 94.9102 49.52C94.9602 49.09 94.9602 48.45 94.7402 47.75V47.73H94.7502C95.2202 47.57 95.6902 47.22 96.0002 46.73C96.3102 46.25 96.4402 45.7 96.3802 45.21C96.3302 44.72 96.1402 44.31 95.9202 44C95.7002 43.7 95.4702 43.5 95.3002 43.38C95.2602 43.35 95.2202 43.33 95.1802 43.3C95.1502 43.28 95.1202 43.26 95.0902 43.25C95.0402 43.22 95.0202 43.21 95.0202 43.21L95.0502 43.24Z" fill="#1A2E35"/>
<path d="M93.4302 43.55C93.4302 43.55 93.4602 43.57 93.5202 43.61C93.5702 43.65 93.6402 43.73 93.7102 43.83C93.7802 43.93 93.8402 44.07 93.8802 44.23C93.9202 44.39 93.9202 44.58 93.8802 44.76C93.8302 44.95 93.7502 45.11 93.6402 45.24C93.5302 45.37 93.4202 45.46 93.3102 45.52C93.2002 45.58 93.1102 45.62 93.0402 45.63C92.9702 45.65 92.9302 45.65 92.9302 45.65C92.9302 45.64 93.0802 45.62 93.2902 45.49C93.4902 45.37 93.7502 45.11 93.8302 44.75C93.9102 44.39 93.8002 44.05 93.6802 43.84C93.5502 43.63 93.4202 43.54 93.4302 43.54V43.55Z" fill="#1A2E35"/>
<path d="M101.3 44.6C101.25 44.6 101.18 44.6 101.08 44.62C100.89 44.64 100.61 44.69 100.29 44.8C100.13 44.86 99.9502 44.93 99.7802 45.02C99.6102 45.12 99.4302 45.24 99.2502 45.38C98.9002 45.66 98.5302 46.01 98.2702 46.46C98.0102 46.92 97.7802 47.36 97.5902 47.77C97.4002 48.18 97.2602 48.57 97.1802 48.9C97.0902 49.23 97.0402 49.5 97.0202 49.7C97.0102 49.79 97.0002 49.87 97.0002 49.92C97.0002 49.97 97.0002 50 96.9902 50C96.9902 50 96.9902 49.97 96.9902 49.92C96.9902 49.87 96.9902 49.79 97.0002 49.7C97.0202 49.51 97.0602 49.23 97.1402 48.9C97.2202 48.57 97.3602 48.18 97.5502 47.76C97.7402 47.34 97.9702 46.9 98.2202 46.44C98.4902 45.98 98.8602 45.63 99.2202 45.35C99.4002 45.21 99.5802 45.09 99.7602 44.99C99.9402 44.89 100.12 44.82 100.28 44.77C100.61 44.66 100.89 44.62 101.08 44.61C101.18 44.61 101.25 44.6 101.3 44.6Z" fill="#1A2E35"/>
<path d="M98.3599 43.84C98.3599 43.84 98.2299 43.84 98.0199 43.88C97.9199 43.9 97.7899 43.93 97.6599 43.98C97.5299 44.03 97.3899 44.09 97.2499 44.17C97.1099 44.25 96.9899 44.35 96.8899 44.44C96.7899 44.54 96.6999 44.63 96.6399 44.71C96.5099 44.88 96.4499 44.99 96.4399 44.99C96.4399 44.99 96.4499 44.96 96.4799 44.9C96.4899 44.87 96.5099 44.84 96.5299 44.8C96.5499 44.76 96.5799 44.72 96.6099 44.68C96.6699 44.59 96.7599 44.5 96.8599 44.4C96.9599 44.3 97.0899 44.21 97.2299 44.12C97.3699 44.04 97.5199 43.97 97.6499 43.93C97.7899 43.89 97.9099 43.86 98.0199 43.84C98.0699 43.84 98.1199 43.83 98.1599 43.83C98.1999 43.83 98.2399 43.83 98.2699 43.83C98.3299 43.83 98.3599 43.83 98.3599 43.83V43.84Z" fill="#1A2E35"/>
<path d="M99.1601 50.25C99.1601 50.25 99.2001 50.25 99.2601 50.22C99.3301 50.2 99.4201 50.15 99.5001 50.06C99.5901 49.97 99.6601 49.84 99.7101 49.68C99.7601 49.52 99.8001 49.34 99.8401 49.15C99.9201 48.77 99.9401 48.42 99.9501 48.17C99.9501 48.04 99.9501 47.94 99.9501 47.87C99.9501 47.8 99.9501 47.76 99.9501 47.76C99.9501 47.76 99.9501 47.8 99.9601 47.87C99.9601 47.94 99.9701 48.04 99.9601 48.17C99.9601 48.42 99.9401 48.78 99.8601 49.16C99.8201 49.35 99.7801 49.53 99.7201 49.69C99.6601 49.85 99.5901 49.99 99.4901 50.08C99.4001 50.17 99.3001 50.22 99.2301 50.24C99.2001 50.24 99.1701 50.25 99.1501 50.25C99.1301 50.25 99.1201 50.25 99.1201 50.25H99.1601Z" fill="#1A2E35"/>
<path d="M102.05 51.68C102.05 51.68 102.15 51.48 102.15 51.13C102.15 50.96 102.11 50.75 102.02 50.54C101.93 50.33 101.79 50.12 101.6 49.94C101.4 49.77 101.18 49.64 100.97 49.56C100.76 49.48 100.55 49.44 100.38 49.42C100.21 49.4 100.07 49.4 99.9703 49.4C99.8703 49.4 99.8203 49.4 99.8203 49.4C99.8203 49.4 99.8303 49.4 99.8603 49.4C99.8903 49.4 99.9203 49.4 99.9703 49.39C100.07 49.39 100.21 49.39 100.38 49.39C100.55 49.41 100.76 49.44 100.98 49.52C101.2 49.6 101.43 49.72 101.63 49.9C101.83 50.08 101.98 50.3 102.06 50.52C102.15 50.74 102.18 50.95 102.18 51.12C102.18 51.3 102.14 51.44 102.11 51.53C102.1 51.58 102.08 51.61 102.07 51.63C102.06 51.65 102.05 51.67 102.05 51.66V51.68Z" fill="#1A2E35"/>
<path d="M99.8403 46.6C99.8403 46.6 99.8603 46.6 99.9003 46.58C99.9403 46.57 100 46.55 100.07 46.54C100.22 46.51 100.45 46.48 100.72 46.48C101 46.48 101.33 46.54 101.67 46.69C102.01 46.84 102.34 47.09 102.58 47.45C102.82 47.8 102.94 48.21 102.91 48.59C102.88 48.96 102.74 49.28 102.57 49.5C102.4 49.72 102.21 49.86 102.07 49.93C102 49.96 101.94 49.99 101.91 50C101.87 50.01 101.85 50.02 101.85 50.02C101.85 50.02 101.87 50.01 101.91 49.99C101.95 49.98 102 49.95 102.07 49.91C102.2 49.84 102.38 49.7 102.55 49.48C102.71 49.26 102.85 48.95 102.87 48.59C102.89 48.23 102.78 47.83 102.55 47.49C102.31 47.15 101.99 46.89 101.66 46.75C101.33 46.6 101 46.55 100.73 46.53C100.46 46.52 100.23 46.55 100.08 46.57C99.9303 46.6 99.8503 46.62 99.8403 46.61V46.6Z" fill="#1A2E35"/>
<path d="M102.7 47.5601C102.7 47.5601 102.73 47.41 102.74 47.17C102.74 47.11 102.74 47.0401 102.74 46.9701C102.74 46.9001 102.73 46.83 102.72 46.75C102.69 46.59 102.65 46.43 102.58 46.26C102.51 46.09 102.42 45.9401 102.33 45.8101C102.28 45.7501 102.24 45.6901 102.19 45.6301C102.14 45.5801 102.1 45.5301 102.05 45.4901C101.87 45.3301 101.74 45.2501 101.75 45.2401C101.75 45.2401 101.78 45.2501 101.84 45.2901C101.87 45.3101 101.9 45.3301 101.94 45.3601C101.98 45.3901 102.02 45.42 102.07 45.46C102.12 45.5 102.17 45.55 102.21 45.6C102.26 45.65 102.31 45.71 102.36 45.78C102.45 45.91 102.55 46.0601 102.62 46.2401C102.69 46.4101 102.73 46.59 102.76 46.75C102.76 46.83 102.78 46.91 102.78 46.98C102.78 47.05 102.78 47.12 102.78 47.18C102.78 47.24 102.77 47.3 102.76 47.34C102.76 47.39 102.75 47.43 102.74 47.46C102.72 47.53 102.71 47.5601 102.71 47.5601H102.7Z" fill="#1A2E35"/>
<path d="M105.81 47.71C105.81 47.71 105.66 47.69 105.42 47.69C105.3 47.69 105.16 47.7 105.01 47.73C104.86 47.76 104.69 47.81 104.52 47.87C104.35 47.94 104.2 48.02 104.07 48.11C103.94 48.2 103.83 48.29 103.75 48.37C103.58 48.53 103.49 48.66 103.49 48.65C103.49 48.65 103.51 48.62 103.55 48.56C103.57 48.53 103.59 48.5 103.62 48.46C103.65 48.42 103.68 48.38 103.73 48.34C103.81 48.25 103.92 48.16 104.05 48.07C104.18 47.98 104.34 47.89 104.51 47.82C104.68 47.75 104.85 47.71 105.01 47.68C105.17 47.66 105.31 47.65 105.43 47.65C105.49 47.65 105.54 47.65 105.59 47.66C105.64 47.66 105.68 47.67 105.71 47.68C105.78 47.69 105.81 47.7 105.81 47.7V47.71Z" fill="#1A2E35"/>
<path d="M107.65 55.79C107.65 55.79 107.65 55.8 107.67 55.83C107.68 55.86 107.7 55.91 107.71 55.97C107.74 56.09 107.76 56.27 107.74 56.49C107.72 56.71 107.66 56.97 107.54 57.24C107.42 57.51 107.24 57.78 107.01 58.03C106.78 58.28 106.52 58.48 106.25 58.6C105.98 58.73 105.72 58.78 105.5 58.8C105.28 58.82 105.1 58.81 104.98 58.81C104.92 58.81 104.87 58.81 104.84 58.81C104.81 58.81 104.79 58.81 104.79 58.81C104.79 58.81 104.81 58.81 104.84 58.8C104.87 58.8 104.92 58.8 104.98 58.8C105.1 58.8 105.28 58.8 105.5 58.77C105.72 58.74 105.98 58.69 106.24 58.56C106.5 58.44 106.76 58.24 106.98 58C107.2 57.75 107.38 57.49 107.51 57.22C107.63 56.96 107.7 56.7 107.72 56.49C107.74 56.27 107.72 56.09 107.7 55.97C107.69 55.91 107.68 55.86 107.67 55.83C107.67 55.8 107.66 55.78 107.66 55.78L107.65 55.79Z" fill="#1A2E35"/>
<g opacity="0.3">
<path d="M100.25 51.77C99.8502 51.91 99.4802 52.14 99.1702 52.43C97.6302 51.9 95.8802 52.02 94.4302 52.78C94.1802 52.91 93.9302 53.07 93.6502 53.14C93.3002 53.23 92.9402 53.19 92.5802 53.17C91.7802 53.13 90.9602 53.17 90.1902 53.42C89.4202 53.67 88.7102 54.13 88.2502 54.8C87.7902 55.46 87.6202 56.34 87.8902 57.1L87.9802 57.23C87.9102 56.41 88.2702 55.59 88.8702 54.92C89.4802 54.25 90.3202 53.66 91.2102 53.53C92.1102 53.41 92.9702 53.58 93.8602 53.75C95.6902 52.75 97.8002 52.42 99.8202 52.92C99.6402 52.51 99.8402 51.97 100.24 51.76L100.25 51.77Z" fill="black"/>
</g>
<g opacity="0.3">
<path d="M96.27 55.8501C95.33 56.4801 94.11 56.6801 93.03 56.3401C91.45 57.1501 90.98 56.8401 90.25 56.6001C90.61 57.0401 91.28 57.2801 91.85 57.3101C92.42 57.3401 93 57.1101 93.4 56.7101C94.19 57.0001 95.06 56.9001 95.89 56.8001C96.58 56.7201 97.28 56.6301 97.97 56.5501C98.74 56.4601 99.51 56.3701 100.25 56.1301C100.99 55.9001 101.7 55.5101 102.2 54.9301C100.45 56.1101 98.3 56.4101 96.27 55.8401V55.8501Z" fill="black"/>
</g>
<g opacity="0.3">
<path d="M87.5903 50.92C87.9203 51.03 88.4103 50.93 88.7203 50.76C89.0303 50.59 89.2603 50.2901 89.3503 49.9501C89.3703 49.8601 89.3903 49.7601 89.4703 49.7001C89.5503 49.6401 89.6603 49.65 89.7603 49.64C90.0903 49.64 90.4103 49.4701 90.6103 49.2201C90.8103 48.9701 90.8903 48.62 90.8203 48.3C90.5403 49.05 89.6403 49.5 88.8803 49.28C88.8503 49.94 88.6603 50.72 87.6003 50.92" fill="black"/>
</g>
<g opacity="0.3">
<path d="M93.8102 45.8701C93.2002 45.0401 92.1702 44.6101 91.1502 44.7501C90.1202 44.8901 89.1702 45.5001 88.6202 46.3801C88.1002 46.3901 87.5702 46.48 87.0902 46.6901C86.6102 46.9 86.1802 47.2501 85.9402 47.7101C85.5302 48.4801 85.4802 49.4201 85.9302 50.2201C85.7802 49.2701 85.9702 48.4701 86.4902 47.8601C87.0102 47.2501 88.0902 46.7401 88.9002 46.7801C89.1802 46.11 89.7102 45.6601 90.4102 45.4701C91.1102 45.2701 91.9002 45.2501 92.5902 45.4701C93.2802 45.6901 94.2702 46.7401 94.2702 46.8901C94.3102 46.5501 94.1502 46.3201 93.8202 45.8801L93.8102 45.8701Z" fill="black"/>
</g>
<g opacity="0.3">
<path d="M101.03 44.59C99.7601 44.4 98.4601 45.1 97.7201 46.15C96.9801 47.2 96.8901 48.4 96.9901 49.68C96.9901 49.68 97.4602 47.51 98.2302 46.49C99.1602 45.24 100.73 44.4 101.03 44.59Z" fill="black"/>
</g>
<g opacity="0.3">
<path d="M99.9903 48.0801C100.13 48.4001 100.18 48.75 100.13 49.09C100.79 49.09 101.39 49.51 101.75 50.07C101.51 49.82 101.16 49.61 100.81 49.51C100.46 49.41 100.14 49.35 99.8203 49.46C99.9003 48.97 100.03 48.5 99.9803 48.05" fill="black"/>
</g>
<g opacity="0.3">
<path d="M108.73 53.52C108.58 53.04 108.23 52.62 107.79 52.38C108.5 53.42 108.39 54.79 107.65 55.79C107.87 56.57 107.7 57.54 106.41 58.49C107.19 58.36 108.03 57.52 108.13 56.74C108.17 56.42 108.13 56.08 108.22 55.77C108.3 55.49 108.49 55.26 108.61 55.01C108.83 54.56 108.88 54.02 108.72 53.53L108.73 53.52Z" fill="black"/>
</g>
<g opacity="0.3">
<path d="M83.2605 50.89C83.2605 50.89 83.2605 50.91 83.2605 50.93C83.2605 50.91 83.2605 50.89 83.2705 50.87L83.2505 50.89H83.2605Z" fill="black"/>
</g>
<g opacity="0.3">
<path d="M84.5803 54.25C84.4403 54.05 84.3103 53.83 84.2603 53.59C84.1203 53.03 84.4103 52.46 84.6903 51.95C84.0203 52.02 83.4503 51.68 83.2703 50.92C83.1603 51.44 83.3003 52.05 83.7303 52.36C83.5403 53.14 83.7003 54 84.1503 54.67C84.6003 55.34 85.3403 55.81 86.1403 55.93C85.5403 55.45 85.0203 54.88 84.5903 54.25H84.5803Z" fill="black"/>
</g>
<path d="M98.6202 60.23C98.5402 60.37 97.5702 61.18 97.8902 62.19C98.3002 63.5 100.28 63.54 101.83 63.24C104.11 62.8 105.19 61.82 105.19 60.52C105.19 59.47 98.6202 60.24 98.6202 60.24V60.23Z" fill="#644DF6"/>
<path d="M105.19 60.52C105.19 60.52 105.16 60.52 105.11 60.51C105.06 60.51 104.98 60.49 104.89 60.47C104.8 60.45 104.68 60.43 104.55 60.41C104.42 60.39 104.26 60.36 104.09 60.34C103.75 60.29 103.34 60.26 102.89 60.23C102.44 60.2 101.94 60.19 101.42 60.19C100.37 60.19 99.4304 60.24 98.7404 60.28C98.4004 60.3 98.1304 60.32 97.9304 60.33C97.8404 60.33 97.7604 60.33 97.7104 60.34C97.6604 60.34 97.6304 60.34 97.6304 60.34C97.6304 60.34 97.6604 60.34 97.7104 60.33C97.7604 60.33 97.8404 60.32 97.9304 60.31C98.1204 60.29 98.4004 60.27 98.7404 60.25C99.4204 60.2 100.37 60.15 101.42 60.15C101.94 60.15 102.44 60.17 102.89 60.2C103.34 60.23 103.75 60.27 104.09 60.32C104.26 60.34 104.41 60.37 104.55 60.39C104.68 60.41 104.8 60.43 104.89 60.46C104.98 60.48 105.05 60.5 105.11 60.51C105.16 60.52 105.18 60.53 105.18 60.53L105.19 60.52Z" fill="#1A2E35"/>
<g opacity="0.3">
<path d="M105.191 60.54C102.881 59.97 100.451 60.21 98.0806 60.32C100.591 60.55 102.991 60.56 105.191 60.54Z" fill="black"/>
</g>
<g opacity="0.3">
<path d="M95.1002 58.04C94.7002 58.16 93.9702 58.38 93.6102 58.52C93.5602 58.82 93.4402 59.07 93.1702 59.21C92.8602 59.35 92.5202 59.4 92.1802 59.36C92.5802 59.44 92.9902 59.5 93.3902 59.41C93.7802 59.32 94.1602 59.02 94.2202 58.62C96.4802 57.85 98.8802 57.54 101.26 57.69C99.2302 57.28 97.0902 57.46 95.1102 58.04H95.1002Z" fill="black"/>
</g>
<g opacity="0.3">
<path d="M102.52 49.52C102.52 49.52 102.53 49.52 102.54 49.51C103.06 49.22 103.33 48.53 103.13 47.96C103.1 47.87 103.05 47.77 103.05 47.67C103.05 47.57 103.08 47.47 103.11 47.37C103.26 46.79 102.94 46.13 102.39 45.89C102.52 46.04 102.94 46.65 102.67 47.67C102.67 47.67 103 48.26 102.87 48.77" fill="black"/>
</g>
<g opacity="0.3">
<path d="M92.9104 51.53C93.2004 51.26 93.2003 50.7 93.1003 50.32C92.9903 49.94 92.7504 49.62 92.4804 49.33C92.7604 49.13 92.9404 48.8 92.9704 48.46C93.0004 48.12 92.8804 47.77 92.6504 47.51C92.6104 47.83 92.6104 48.24 92.4604 48.53C92.3204 48.82 92.1504 48.99 91.8604 49.15C92.6004 49.52 92.9503 50.58 92.9203 51.27L92.9004 51.53H92.9104Z" fill="black"/>
</g>
<path d="M105.43 56.29C105.43 56.29 105.5 56.09 105.45 55.77C105.42 55.61 105.36 55.43 105.25 55.24C105.14 55.06 104.97 54.89 104.76 54.75C104.56 54.61 104.34 54.51 104.14 54.44C103.94 54.37 103.75 54.32 103.59 54.29C103.43 54.26 103.3 54.24 103.21 54.23C103.12 54.22 103.07 54.21 103.07 54.2C103.07 54.2 103.12 54.2 103.21 54.2C103.3 54.2 103.43 54.22 103.6 54.25C103.76 54.28 103.95 54.32 104.16 54.39C104.37 54.46 104.59 54.56 104.8 54.7C105.01 54.84 105.18 55.02 105.3 55.21C105.42 55.4 105.48 55.59 105.5 55.75C105.52 55.91 105.51 56.05 105.5 56.14C105.5 56.19 105.48 56.22 105.47 56.24C105.47 56.26 105.46 56.27 105.46 56.27L105.43 56.29Z" fill="#1A2E35"/>
<g opacity="0.3">
<path d="M104.24 53.8C104.44 53.3 104.52 52.75 104.48 52.21C104.15 52.96 103.63 53.65 103.05 54.23C103.82 54.27 104.6 54.56 105.15 55.1C105.14 54.54 104.76 54 104.24 53.8Z" fill="black"/>
</g>
</g>
<defs>
<linearGradient id="paint0_linear_616_907" x1="58.8603" y1="80.14" x2="11.7403" y2="80.14" gradientUnits="userSpaceOnUse">
<stop stop-color="#FFC05C"/>
<stop offset="1" stop-color="#FF3857"/>
</linearGradient>
<linearGradient id="paint1_linear_616_907" x1="58.8603" y1="82.71" x2="11.7403" y2="82.71" gradientUnits="userSpaceOnUse">
<stop stop-color="#FFC05C"/>
<stop offset="1" stop-color="#FF3857"/>
</linearGradient>
<linearGradient id="paint2_linear_616_907" x1="58.8603" y1="85.29" x2="11.7403" y2="85.29" gradientUnits="userSpaceOnUse">
<stop stop-color="#FFC05C"/>
<stop offset="1" stop-color="#FF3857"/>
</linearGradient>
<clipPath id="clip0_616_907">
<rect width="113.08" height="104.84" fill="white" transform="translate(3 8)"/>
</clipPath>
</defs>
</svg>
