<svg xmlns="http://www.w3.org/2000/svg" width="30" height="17" viewBox="0 0 30 17" fill="none">
  <g clip-path="url(#clip0_1108_170139)">
    <path d="M27.5427 0H2.45727C1.10016 0 0 1.14294 0 2.55283V14.4472C0 15.8571 1.10016 17 2.45727 17H27.5427C28.8998 17 30 15.8571 30 14.4472V2.55283C30 1.14294 28.8998 0 27.5427 0Z" fill="url(#paint0_linear_1108_170139)"/>
    <path d="M3.74494 8.19976C3.71494 6.43176 3.61676 4.94426 3.45312 3.74009L4.84403 3.40576C4.92313 4.00643 4.98312 4.73743 5.02131 5.59876C5.05949 6.46009 5.08131 7.27043 5.08131 8.02976C5.08131 8.28476 5.1004 8.48026 5.14131 8.61343C5.18222 8.74659 5.24767 8.84293 5.34585 8.89676C5.44403 8.95059 5.58312 8.97893 5.76312 8.97893H5.80949L5.89949 9.87993L5.80949 10.7809H5.76312C4.43494 10.7809 3.76131 9.92243 3.74222 8.20543L3.74494 8.19976Z" fill="white"/>
    <path d="M5.71973 8.97315H5.91882C6.34973 8.97315 6.72882 8.66998 7.05609 8.06365C7.36427 7.47715 7.667 7.03798 7.96155 6.74615C8.25609 6.45431 8.56973 6.30981 8.90245 6.30981C9.28973 6.30981 9.60882 6.43165 9.857 6.67248C10.1052 6.91615 10.3261 7.29298 10.5225 7.80298C10.6915 8.27048 10.8197 8.57931 10.9043 8.73798C10.9888 8.89381 11.0761 8.97315 11.1688 8.97315H11.297L11.387 9.87415L11.297 10.7751H11.1688C11.0161 10.7751 10.8552 10.7326 10.6834 10.6505C10.5115 10.5683 10.3534 10.4493 10.2143 10.2963C10.1052 10.455 9.97973 10.5796 9.84064 10.6703C9.67155 10.778 9.48336 10.8318 9.27609 10.8318C8.80427 10.8318 8.18518 10.5825 7.42154 10.0866C7.04518 10.5456 6.53518 10.7751 5.89155 10.7751H5.71973V8.97598V8.97315ZM9.61427 8.80031C9.52427 8.53115 9.41245 8.31865 9.28154 8.15998C9.15064 8.00131 9.01154 7.91915 8.85882 7.91915C8.62154 7.91915 8.37882 8.16565 8.13064 8.65581C8.40882 8.88531 8.69245 9.04681 8.97609 9.14315C9.25973 9.23948 9.49427 9.28765 9.677 9.28765C9.73154 9.28765 9.76427 9.28481 9.77791 9.27915C9.75882 9.22815 9.70427 9.06948 9.61427 8.80031Z" fill="white"/>
    <path d="M11.207 8.97315H11.2534C11.7334 8.96749 12.0661 8.91365 12.2543 8.81165C12.4425 8.70965 12.5434 8.53682 12.5543 8.29599C12.5488 8.00982 12.5161 7.69532 12.4534 7.35815L13.5825 7.13715C13.667 7.66132 13.7107 8.19399 13.7107 8.73515C13.7461 8.80032 13.8143 8.85415 13.9098 8.90232C14.0079 8.95049 14.1334 8.97315 14.2916 8.97315H14.327L14.417 9.87415L14.327 10.7752H14.2916C14.0543 10.7752 13.8334 10.7213 13.6234 10.6165C13.4134 10.5117 13.2279 10.37 13.0643 10.1915C12.6579 10.5797 12.0552 10.7752 11.2534 10.7752H11.207V8.97599V8.97315ZM12.4261 4.49365L13.3916 5.50799L12.4261 6.53365L11.4525 5.50799L12.4261 4.49365Z" fill="white"/>
    <path d="M14.2529 8.97322H14.8175C14.7193 8.74939 14.6729 8.52555 14.6729 8.30172C14.6729 8.14872 14.6947 7.99572 14.7357 7.84272C14.8257 7.51122 14.9375 7.21655 15.0629 6.96155L14.7357 6.86522L15.3738 5.19922C16.642 5.57605 17.6375 5.94155 18.3629 6.29572C19.0884 6.64989 19.6011 7.00972 19.9011 7.37239C20.2011 7.73505 20.3511 8.14305 20.3511 8.59639C20.3511 8.89105 20.2884 9.24805 20.1602 9.66739C20.0566 10.0131 19.8329 10.2709 19.4866 10.4437C19.1402 10.6166 18.7257 10.7016 18.2402 10.7016C17.7547 10.7016 17.2802 10.6222 16.7757 10.4636C16.2302 10.6676 15.4393 10.7696 14.4002 10.7696H14.2557V8.97039L14.2529 8.97322ZM16.0747 8.45755C16.2084 8.57939 16.3857 8.68705 16.612 8.78339C17.0375 8.66155 17.272 8.47739 17.3211 8.22805C17.3457 8.06089 17.2911 7.90222 17.1575 7.74922C17.0238 7.59622 16.8629 7.49705 16.6747 7.45172C16.6502 7.44605 16.612 7.44322 16.5575 7.44322C16.3802 7.44322 16.2247 7.50272 16.0857 7.61889C15.9466 7.73788 15.8757 7.89089 15.8757 8.08355C15.8757 8.21105 15.9438 8.33572 16.0775 8.45755H16.0747ZM18.4311 9.17439C18.8375 9.17439 19.0693 9.10072 19.1238 8.95339C19.1429 8.90239 19.1511 8.85705 19.1511 8.82022C19.1511 8.57088 18.8729 8.31589 18.3138 8.05522C18.3138 8.17139 18.3057 8.29039 18.2866 8.41789C18.2375 8.71255 18.1775 8.95622 18.1038 9.15455C18.262 9.16872 18.3711 9.17439 18.4311 9.17439Z" fill="white"/>
    <path d="M21.7779 8.687C21.7779 7.81433 21.7452 6.88783 21.6825 5.91033C21.6197 4.93283 21.5488 4.21033 21.4697 3.73717L22.8797 3.40283C22.9397 3.842 22.9943 4.51067 23.0434 5.40883C23.0925 6.30417 23.117 7.191 23.117 8.0665C23.117 9.2735 23.0679 10.2057 22.9725 10.863L21.6715 10.7185C21.7452 10.2397 21.7806 9.5625 21.7806 8.68983L21.7779 8.687Z" fill="white"/>
    <path d="M24.276 11.4664C24.6196 11.2398 24.8923 11.0273 25.0942 10.8289C25.2987 10.6306 25.3996 10.4748 25.3996 10.3586C25.3996 10.1036 25.2114 9.34427 24.8351 8.08061L26.0623 7.56494C26.2151 8.00411 26.3323 8.47161 26.4169 8.96744C26.5014 9.46327 26.5451 9.92511 26.5451 10.3614C26.5451 11.0244 26.3078 11.6308 25.836 12.1804C25.3642 12.7301 24.7069 13.2004 23.8696 13.5971L23.1523 12.0926C23.5587 11.9028 23.9323 11.6931 24.276 11.4664Z" fill="white"/>
  </g>
  <defs>
    <linearGradient id="paint0_linear_1108_170139" x1="15" y1="17" x2="15" y2="0" gradientUnits="userSpaceOnUse">
      <stop stop-color="#7C0902"/>
      <stop offset="1" stop-color="#D40005"/>
    </linearGradient>
    <clipPath id="clip0_1108_170139">
      <rect width="30" height="17" fill="white"/>
    </clipPath>
  </defs>
</svg>