<svg width="120" height="120" viewBox="0 0 120 120" fill="none" xmlns="http://www.w3.org/2000/svg">
<g clip-path="url(#clip0_616_357)">
<rect width="120" height="120" fill="white"/>
<g clip-path="url(#clip1_616_357)">
<mask id="mask0_616_357" style="mask-type:luminance" maskUnits="userSpaceOnUse" x="0" y="0" width="120" height="120">
<path d="M120 0H0V120H120V0Z" fill="white"/>
</mask>
<g mask="url(#mask0_616_357)">
<path d="M36.1101 1.42H5.3601C3.28351 1.42 1.6001 3.10341 1.6001 5.18V34.93C1.6001 37.0066 3.28351 38.69 5.3601 38.69H36.1101C38.1867 38.69 39.8701 37.0066 39.8701 34.93V5.18C39.8701 3.10341 38.1867 1.42 36.1101 1.42Z" fill="#FAFAFA"/>
<path d="M36.1101 38.68C36.1101 38.68 36.6401 38.73 37.5301 38.37C37.9701 38.19 38.4801 37.86 38.9301 37.33C39.3801 36.8 39.7501 36.04 39.7901 35.14C39.7901 31.47 39.7701 26.18 39.7501 19.65C39.7501 16.38 39.7401 12.8 39.7301 8.95001C39.7301 7.99001 39.7301 7.01 39.7301 6.02001C39.7301 5.52001 39.7601 5.02001 39.6701 4.54001C39.5901 4.06001 39.4001 3.60001 39.1301 3.18001C38.5901 2.35001 37.6801 1.76001 36.6801 1.60001C36.1901 1.52001 35.6501 1.56001 35.1101 1.55001C34.5801 1.55001 34.0401 1.55001 33.5001 1.55001C24.8501 1.55001 15.3401 1.55001 5.3601 1.56001C4.7601 1.56001 4.1701 1.72001 3.6401 1.99001C3.1201 2.28001 2.6701 2.69001 2.3401 3.18001C2.0201 3.68001 1.8101 4.25001 1.7601 4.83001C1.7301 5.41001 1.7601 6.04001 1.7401 6.65001C1.7401 9.08001 1.7401 11.48 1.7401 13.83C1.7401 18.54 1.7401 23.08 1.7401 27.4C1.7401 29.56 1.7401 31.67 1.7401 33.72C1.7401 34.23 1.7201 34.75 1.7501 35.23C1.7901 35.72 1.9301 36.19 2.1601 36.61C2.6101 37.46 3.4001 38.1 4.2901 38.37C4.7401 38.52 5.1901 38.54 5.6701 38.53C6.1401 38.53 6.6101 38.53 7.0701 38.53C8.0001 38.53 8.9101 38.53 9.8001 38.53C11.5901 38.53 13.3001 38.53 14.9301 38.53C21.4601 38.55 26.7601 38.57 30.4201 38.58C32.2401 38.59 33.6601 38.6 34.6301 38.61C35.1001 38.61 35.4701 38.62 35.7301 38.63C35.9801 38.63 36.1001 38.65 36.1001 38.65C36.1001 38.65 35.9701 38.66 35.7301 38.67C35.4701 38.67 35.1101 38.67 34.6301 38.69C33.6601 38.69 32.2401 38.71 30.4201 38.72C26.7501 38.73 21.4601 38.75 14.9301 38.77C13.2901 38.77 11.5801 38.77 9.8001 38.77C8.9101 38.77 8.0001 38.77 7.0701 38.77C6.6101 38.77 6.1401 38.77 5.6701 38.77C5.2001 38.77 4.6901 38.75 4.2201 38.6C3.2701 38.31 2.4201 37.63 1.9401 36.72C1.7001 36.27 1.5401 35.76 1.5001 35.24C1.4601 34.71 1.4901 34.22 1.4801 33.7C1.4801 31.65 1.4801 29.54 1.4801 27.38C1.4801 23.05 1.4801 18.51 1.4801 13.81C1.4801 11.46 1.4801 9.06001 1.4801 6.63001C1.4801 6.02001 1.4601 5.43001 1.5001 4.79001C1.5501 4.15001 1.7801 3.54001 2.1301 3.00001C2.4801 2.46001 2.9701 2.02001 3.5401 1.71001C4.1101 1.41001 4.7601 1.24001 5.4001 1.24001C15.3801 1.24001 24.8901 1.24001 33.5401 1.25001C34.0801 1.25001 34.6201 1.25001 35.1501 1.25001C35.6801 1.26001 36.2101 1.22001 36.7601 1.30001C37.8401 1.47001 38.8201 2.11001 39.3901 3.00001C39.6801 3.44001 39.8801 3.94001 39.9701 4.46001C40.0601 4.98001 40.0201 5.49001 40.0301 5.98001C40.0301 6.97001 40.0301 7.95001 40.0301 8.91001C40.0301 12.76 40.0201 16.34 40.0101 19.61C39.9901 26.15 39.9901 31.44 39.9501 35.11C39.9001 36.04 39.5001 36.82 39.0401 37.35C38.5701 37.89 38.0401 38.21 37.5901 38.39C37.1401 38.58 36.7601 38.61 36.5201 38.64C36.2701 38.64 36.1501 38.64 36.1501 38.64L36.1101 38.68Z" fill="#E1E1E1"/>
<path d="M33.65 8.76C33.65 8.84 28.01 8.91 21.07 8.91C14.13 8.91 8.47998 8.84 8.47998 8.76C8.47998 8.68 14.11 8.61 21.07 8.61C28.03 8.61 33.65 8.68 33.65 8.76Z" fill="#E1E1E1"/>
<path d="M33.65 12.1C33.65 12.18 28.01 12.25 21.07 12.25C14.13 12.25 8.47998 12.18 8.47998 12.1C8.47998 12.02 14.11 11.95 21.07 11.95C28.03 11.95 33.65 12.02 33.65 12.1Z" fill="#E1E1E1"/>
<path d="M33.65 15.44C33.65 15.52 28.01 15.59 21.07 15.59C14.13 15.59 8.47998 15.52 8.47998 15.44C8.47998 15.36 14.11 15.29 21.07 15.29C28.03 15.29 33.65 15.36 33.65 15.44Z" fill="#E1E1E1"/>
<path d="M33.65 18.78C33.65 18.86 28.01 18.93 21.07 18.93C14.13 18.93 8.47998 18.86 8.47998 18.78C8.47998 18.7 14.11 18.63 21.07 18.63C28.03 18.63 33.65 18.7 33.65 18.78Z" fill="#E1E1E1"/>
<path d="M33.65 22.12C33.65 22.2 28.01 22.27 21.07 22.27C14.13 22.27 8.47998 22.2 8.47998 22.12C8.47998 22.04 14.11 21.97 21.07 21.97C28.03 21.97 33.65 22.04 33.65 22.12Z" fill="#E1E1E1"/>
<path d="M33.65 25.46C33.65 25.54 28.01 25.61 21.07 25.61C14.13 25.61 8.47998 25.54 8.47998 25.46C8.47998 25.38 14.11 25.31 21.07 25.31C28.03 25.31 33.65 25.38 33.65 25.46Z" fill="#E1E1E1"/>
<path d="M33.65 28.8C33.65 28.88 28.01 28.95 21.07 28.95C14.13 28.95 8.47998 28.88 8.47998 28.8C8.47998 28.72 14.11 28.65 21.07 28.65C28.03 28.65 33.65 28.72 33.65 28.8Z" fill="#E1E1E1"/>
<path d="M115.14 29.45H87.5V31.1H115.14V29.45Z" fill="white"/>
<path d="M17.9157 19.5789L16.6621 29.9535L18.7767 30.209L20.0303 19.8345L17.9157 19.5789Z" fill="#DEDEE3"/>
<path d="M20.406 21.1136L19.1528 29.9855L20.5589 30.1841L21.8121 21.3122L20.406 21.1136Z" fill="#DEDEE3"/>
<path d="M22.1734 20.3733L20.9209 29.9518L23.0329 30.228L24.2854 20.6495L22.1734 20.3733Z" fill="#DEDEE3"/>
<path d="M30.8002 27.49H21.7202V29.68H30.8002V27.49Z" fill="#DEDEE3"/>
<path d="M29.5805 25.23H22.7705V27.15H29.5805V25.23Z" fill="#DEDEE3"/>
<path d="M27.6605 23.66H22.2505V24.81H27.6605V23.66Z" fill="#DEDEE3"/>
<path d="M28.6298 14.82C29.4498 16.25 29.4698 17.87 28.6298 19.24C27.7898 17.86 27.8098 16.25 28.6298 14.82Z" fill="#DEDEE3"/>
<path d="M26.4199 17.03C27.8399 16.14 29.4799 16.12 30.8399 17.03C29.4799 17.94 27.8399 17.92 26.4199 17.03Z" fill="#DEDEE3"/>
<path d="M105.3 35.61C106.11 37.58 106.15 39.7 105.3 41.63C104.45 39.7 104.49 37.58 105.3 35.61Z" fill="#DEDEE3"/>
<path d="M102.29 38.62C104.25 37.73 106.39 37.69 108.31 38.62C106.4 39.55 104.25 39.51 102.29 38.62Z" fill="#DEDEE3"/>
<path d="M12.3697 86.85C13.1797 88.82 13.2197 90.94 12.3697 92.87C11.5197 90.94 11.5597 88.82 12.3697 86.85Z" fill="#DEDEE3"/>
<path d="M9.35986 89.86C11.3199 88.97 13.4599 88.93 15.3799 89.86C13.4699 90.79 11.3199 90.75 9.35986 89.86Z" fill="#DEDEE3"/>
<g style="mix-blend-mode:multiply" opacity="0.3">
<path d="M100.44 25.91H51.23L48.38 20.68C48 19.99 47.28 19.56 46.49 19.56H22.44C21.25 19.56 20.29 20.52 20.29 21.71V109.17C20.29 110.82 21.63 112.16 23.28 112.16H100.44C102.09 112.16 103.43 110.82 103.43 109.17V28.9C103.43 27.25 102.09 25.91 100.44 25.91Z" fill="#CACAD3"/>
</g>
<path d="M19.5598 107.94C18.1798 107.94 17.0698 106.82 17.0698 105.44V22.68H96.7198C98.0998 22.68 99.2098 23.8 99.2098 25.17V105.44C99.2098 106.82 98.0898 107.94 96.7198 107.94H19.5598Z" fill="white"/>
<path d="M96.7201 23.18C97.8201 23.18 98.7101 24.07 98.7101 25.17V105.44C98.7101 106.54 97.8201 107.43 96.7201 107.43H19.5601C18.4601 107.43 17.5701 106.54 17.5701 105.44V23.18H96.7201ZM96.7201 22.18H16.5601V105.44C16.5601 107.09 17.9001 108.43 19.5501 108.43H96.7101C98.3701 108.43 99.7001 107.09 99.7001 105.44V25.17C99.7001 23.52 98.3601 22.18 96.7101 22.18H96.7201Z" fill="#02894C"/>
<path d="M42.7698 15.83H18.7198C17.5298 15.83 16.5698 16.79 16.5698 17.98V22.18H47.5098L44.6598 16.95C44.2798 16.26 43.5598 15.83 42.7698 15.83Z" fill="#02894C"/>
<path d="M23.7903 20.54C24.6353 20.54 25.3203 19.855 25.3203 19.01C25.3203 18.165 24.6353 17.48 23.7903 17.48C22.9453 17.48 22.2603 18.165 22.2603 19.01C22.2603 19.855 22.9453 20.54 23.7903 20.54Z" stroke="white" stroke-miterlimit="10"/>
<path d="M31.7602 19.01C31.7602 19.86 31.0702 20.54 30.2302 20.54C29.3902 20.54 28.7002 19.85 28.7002 19.01C28.7002 18.17 29.3902 17.48 30.2302 17.48C31.0702 17.48 31.7602 18.17 31.7602 19.01Z" stroke="white" stroke-miterlimit="10"/>
<path d="M36.6701 20.54C37.5151 20.54 38.2001 19.855 38.2001 19.01C38.2001 18.165 37.5151 17.48 36.6701 17.48C35.8251 17.48 35.1401 18.165 35.1401 19.01C35.1401 19.855 35.8251 20.54 36.6701 20.54Z" stroke="white" stroke-miterlimit="10"/>
<path d="M53.0899 29.43H23.8399C22.3432 29.43 21.1299 30.6433 21.1299 32.14V47.76C21.1299 49.2567 22.3432 50.47 23.8399 50.47H53.0899C54.5866 50.47 55.7999 49.2567 55.7999 47.76V32.14C55.7999 30.6433 54.5866 29.43 53.0899 29.43Z" fill="#E5E5E5"/>
<path d="M92.2796 29.43H58.3896V32.77H92.2796V29.43Z" fill="#D4D4FF"/>
<path d="M92.2796 35.93H58.3896V39.27H92.2796V35.93Z" fill="#D4D4FF"/>
<path d="M92.2796 42.43H58.3896V45.77H92.2796V42.43Z" fill="#D4D4FF"/>
<path d="M92.2796 54.9H58.3896V58.24H92.2796V54.9Z" fill="#E5E5E5"/>
<path d="M92.2796 61.4H58.3896V64.74H92.2796V61.4Z" fill="#E5E5E5"/>
<path d="M92.2796 67.9H58.3896V71.24H92.2796V67.9Z" fill="#E5E5E5"/>
<path d="M92.2796 74.14H58.3896V77.48H92.2796V74.14Z" fill="#E5E5E5"/>
<path d="M91.3596 80.64H59.3097C58.8015 80.64 58.3896 81.0519 58.3896 81.56V83.06C58.3896 83.5681 58.8015 83.98 59.3097 83.98H91.3596C91.8678 83.98 92.2796 83.5681 92.2796 83.06V81.56C92.2796 81.0519 91.8678 80.64 91.3596 80.64Z" fill="#E5E5E5"/>
<path d="M91.3596 87.14H59.3097C58.8015 87.14 58.3896 87.5519 58.3896 88.06V89.56C58.3896 90.0681 58.8015 90.48 59.3097 90.48H91.3596C91.8678 90.48 92.2796 90.0681 92.2796 89.56V88.06C92.2796 87.5519 91.8678 87.14 91.3596 87.14Z" fill="#E5E5E5"/>
<path d="M53.0899 54.01H23.8399C22.3432 54.01 21.1299 55.2233 21.1299 56.72V89.57C21.1299 91.0667 22.3432 92.28 23.8399 92.28H53.0899C54.5866 92.28 55.7999 91.0667 55.7999 89.57V56.72C55.7999 55.2233 54.5866 54.01 53.0899 54.01Z" fill="#E5E5E5"/>
<path d="M61.7697 68.8H7.00975C5.88975 68.8 4.98975 69.7 4.98975 70.82V92.29C4.98975 93.41 5.88975 94.31 7.00975 94.31H50.2697L58.1097 100.38C59.0998 101.15 60.5397 100.44 60.5397 99.19V94.31H61.7697C62.8897 94.31 63.7897 93.41 63.7897 92.29V70.82C63.7897 69.7 62.8897 68.8 61.7697 68.8Z" fill="white"/>
<path d="M59.0299 101C58.6399 101 58.2499 100.87 57.9299 100.62L50.1699 94.62H7.00994C5.72994 94.62 4.68994 93.58 4.68994 92.3V70.83C4.68994 69.55 5.72994 68.51 7.00994 68.51H61.7699C63.0499 68.51 64.0899 69.55 64.0899 70.83V92.3C64.0899 93.58 63.0499 94.62 61.7699 94.62H60.8399V99.2C60.8399 99.9 60.4499 100.52 59.8299 100.82C59.5699 100.94 59.2999 101.01 59.0299 101.01V101ZM7.00994 69.1C6.05994 69.1 5.28994 69.87 5.28994 70.82V92.29C5.28994 93.24 6.05994 94.01 7.00994 94.01H50.3699L58.2899 100.14C58.6599 100.43 59.1399 100.48 59.5599 100.27C59.9799 100.06 60.2399 99.66 60.2399 99.19V94.01H61.7699C62.7199 94.01 63.4899 93.24 63.4899 92.29V70.82C63.4899 69.87 62.7199 69.1 61.7699 69.1H7.00994Z" fill="#644DF4"/>
<path d="M33.2199 82.92H59.1799C59.9299 82.92 60.5399 82.31 60.5399 81.56C60.5399 80.81 59.9299 80.2 59.1799 80.2H33.2199C32.4699 80.2 31.8599 80.81 31.8599 81.56C31.8599 82.31 32.4699 82.92 33.2199 82.92Z" fill="#644DF4"/>
<path d="M15.09 82.92H27.94C28.69 82.92 29.3 82.31 29.3 81.56C29.3 80.81 28.69 80.2 27.94 80.2H15.09C14.34 80.2 13.73 80.81 13.73 81.56C13.73 82.31 14.34 82.92 15.09 82.92Z" fill="#644DF4"/>
<path d="M19.38 88.55H60.02C60.3072 88.55 60.54 88.3172 60.54 88.03V86.35C60.54 86.0628 60.3072 85.83 60.02 85.83H19.38C19.0929 85.83 18.86 86.0628 18.86 86.35V88.03C18.86 88.3172 19.0929 88.55 19.38 88.55Z" fill="#644DF4"/>
<path d="M9.59975 77.28H59.1797C59.9297 77.28 60.5397 76.67 60.5397 75.92C60.5397 75.17 59.9297 74.56 59.1797 74.56H9.59975C8.84975 74.56 8.23975 75.17 8.23975 75.92C8.23975 76.67 8.84975 77.28 9.59975 77.28Z" fill="#644DF4"/>
<path d="M76.8701 24H71.3901V24.67H76.8701V24Z" fill="#644DF4"/>
<path d="M51.2203 31.91H50.5503V28.61C50.5503 26.07 52.6203 24 55.1603 24H67.4003V24.67H55.1603C52.9903 24.67 51.2203 26.44 51.2203 28.61V31.91Z" fill="#644DF4"/>
<path d="M53.8404 26.35H117.67C118.19 26.35 118.61 26.77 118.61 27.29V53.92C118.61 54.44 118.19 54.86 117.67 54.86H53.8404C53.3204 54.86 52.9004 54.44 52.9004 53.92V27.29C52.9004 26.77 53.3204 26.35 53.8404 26.35Z" fill="#644DF4"/>
<path d="M113.46 42.12H58.0503C57.2103 42.12 56.5303 41.44 56.5303 40.6C56.5303 39.76 57.2103 39.08 58.0503 39.08H113.46C114.3 39.08 114.98 39.76 114.98 40.6C114.98 41.44 114.3 42.12 113.46 42.12Z" fill="white"/>
<path d="M101.6 48.43H58.0503C57.2103 48.43 56.5303 47.75 56.5303 46.91C56.5303 46.07 57.2103 45.39 58.0503 45.39H101.6C102.44 45.39 103.12 46.07 103.12 46.91C103.12 47.75 102.44 48.43 101.6 48.43Z" fill="white"/>
<path d="M76.7405 35.82H58.0605C57.2205 35.82 56.5405 35.14 56.5405 34.3C56.5405 33.46 57.2205 32.78 58.0605 32.78H76.7405C77.5805 32.78 78.2605 33.46 78.2605 34.3C78.2605 35.14 77.5805 35.82 76.7405 35.82Z" fill="white"/>
<path d="M101.51 35.82H82.8301C81.9901 35.82 81.3101 35.14 81.3101 34.3C81.3101 33.46 81.9901 32.78 82.8301 32.78H101.51C102.35 32.78 103.03 33.46 103.03 34.3C103.03 35.14 102.35 35.82 101.51 35.82Z" fill="white"/>
<path d="M56.5403 53.04V60.31C56.5403 61.71 58.1503 62.5 59.2503 61.64L70.3903 53.02L56.5303 53.04H56.5403Z" fill="#644DF4"/>
</g>
</g>
</g>
<defs>
<clipPath id="clip0_616_357">
<rect width="120" height="120" fill="white"/>
</clipPath>
<clipPath id="clip1_616_357">
<rect width="120" height="120" fill="white"/>
</clipPath>
</defs>
</svg>
