<svg width="120" height="120" viewBox="0 0 120 120" fill="none" xmlns="http://www.w3.org/2000/svg">
<g clip-path="url(#clip0_626_3)">
<rect width="120" height="120" fill="white"/>
<mask id="mask0_626_3" style="mask-type:luminance" maskUnits="userSpaceOnUse" x="0" y="0" width="120" height="120">
<path d="M120 0H0V120H120V0Z" fill="white"/>
</mask>
<g mask="url(#mask0_626_3)">
<path d="M47.4598 13.04C47.4598 13.04 47.4398 13.04 47.3998 13.02C47.3498 13 47.2998 12.98 47.2298 12.95C47.0698 12.88 46.8498 12.79 46.5798 12.68C46.0098 12.43 45.1998 12.09 44.1998 11.66C42.1898 10.78 39.4298 9.57999 36.3798 8.24999C36.2898 8.20999 36.1898 8.16999 36.1098 8.12999H36.1698C33.1698 9.40999 30.4698 10.57 28.5098 11.41C27.5398 11.82 26.7498 12.15 26.1898 12.38C25.9198 12.49 25.7098 12.57 25.5598 12.64C25.4098 12.7 25.3398 12.73 25.3398 12.72C25.3398 12.72 25.4098 12.68 25.5498 12.61C25.6998 12.54 25.9098 12.45 26.1698 12.33C26.7198 12.09 27.5098 11.74 28.4698 11.31C30.4298 10.46 33.1298 9.28999 36.1198 7.98999H36.1498H36.1798C36.2698 8.02999 36.3598 8.06999 36.4498 8.10999C39.4898 9.44999 42.2498 10.67 44.2498 11.56C45.2398 12 46.0398 12.36 46.6098 12.62C46.8798 12.74 47.0898 12.84 47.2498 12.91C47.3198 12.94 47.3698 12.97 47.4098 12.99C47.4498 13.01 47.4698 13.02 47.4598 13.02V13.04Z" fill="#E1E1E1"/>
<path d="M59.6499 11.92H9.41992V49.53H59.6499V11.92Z" fill="#E1E1E1"/>
<path d="M58.0897 13.67H11.1797V47.99H58.0897V13.67Z" fill="#FAFAFA"/>
<path d="M21.54 28.66C21.54 28.66 21.59 34.42 21.88 36.18L29.11 35.84C29.11 35.84 28.48 30.18 28.72 28.66H21.54Z" fill="#E1E1E1"/>
<path d="M25.1 29.48C25.1 29.48 25.1 29.48 25.13 29.48C25.15 29.48 25.18 29.48 25.21 29.48C25.28 29.48 25.38 29.48 25.51 29.49C25.64 29.51 25.8 29.55 25.97 29.63C26.14 29.71 26.32 29.84 26.47 30.03C26.62 30.22 26.75 30.45 26.82 30.73C26.88 31.01 26.85 31.32 26.74 31.62C26.69 31.77 26.62 31.92 26.54 32.07C26.46 32.22 26.38 32.36 26.31 32.52C26.17 32.84 26.07 33.18 26.02 33.55V33.57H25.99C25.76 33.57 25.52 33.57 25.28 33.58C25.02 33.58 24.77 33.58 24.53 33.59H24.5V33.56C24.49 33.2 24.32 32.87 24.15 32.57C24.06 32.42 23.97 32.28 23.88 32.14C23.79 32 23.7 31.87 23.63 31.73C23.49 31.44 23.46 31.12 23.52 30.85C23.57 30.58 23.66 30.33 23.8 30.13C23.94 29.93 24.11 29.8 24.27 29.71C24.43 29.62 24.59 29.57 24.71 29.54C24.84 29.51 24.94 29.5 25.01 29.49C25.04 29.49 25.07 29.49 25.09 29.49C25.11 29.49 25.12 29.49 25.12 29.49C25.12 29.49 25.12 29.49 25.09 29.49C25.07 29.49 25.04 29.49 25.01 29.49C24.94 29.49 24.84 29.51 24.72 29.55C24.6 29.58 24.44 29.64 24.29 29.73C24.13 29.82 23.97 29.96 23.84 30.15C23.71 30.34 23.62 30.59 23.57 30.86C23.52 31.13 23.55 31.43 23.68 31.71C23.75 31.85 23.84 31.98 23.93 32.12C24.02 32.26 24.11 32.4 24.2 32.55C24.37 32.85 24.54 33.18 24.56 33.56L24.53 33.53C24.77 33.53 25.02 33.53 25.28 33.52C25.52 33.52 25.77 33.52 25.99 33.51L25.96 33.53C26.01 33.16 26.12 32.81 26.26 32.49C26.33 32.33 26.41 32.18 26.5 32.04C26.58 31.9 26.65 31.75 26.7 31.6C26.8 31.31 26.84 31 26.78 30.73C26.72 30.46 26.59 30.23 26.45 30.05C26.3 29.87 26.13 29.74 25.97 29.66C25.8 29.58 25.65 29.54 25.52 29.52C25.39 29.5 25.29 29.49 25.22 29.5C25.19 29.5 25.16 29.5 25.14 29.5C25.12 29.5 25.11 29.5 25.11 29.5L25.1 29.48Z" fill="white"/>
<path d="M25.4702 33.49C25.4702 33.49 25.4702 33.49 25.4702 33.47C25.4702 33.45 25.4702 33.43 25.4602 33.4C25.4602 33.34 25.4402 33.25 25.4202 33.14C25.3902 32.92 25.3402 32.59 25.3102 32.19C25.3102 32.09 25.3002 31.98 25.2902 31.87C25.2902 31.76 25.2902 31.64 25.2902 31.52C25.2902 31.4 25.3202 31.28 25.3702 31.16C25.4302 31.04 25.5202 30.94 25.6502 30.88C25.7802 30.83 25.9402 30.85 26.0402 30.95C26.0902 31 26.1302 31.07 26.1202 31.15C26.1202 31.22 26.0902 31.3 26.0502 31.36C26.0102 31.42 25.9402 31.47 25.8802 31.5C25.8102 31.53 25.7402 31.55 25.6702 31.57C25.5202 31.6 25.3702 31.62 25.2102 31.62C25.0502 31.62 24.9002 31.62 24.7502 31.6C24.6802 31.59 24.6002 31.57 24.5302 31.54C24.4602 31.51 24.4002 31.47 24.3502 31.41C24.3002 31.36 24.2602 31.29 24.2502 31.22C24.2302 31.15 24.2502 31.07 24.2802 31.01C24.3102 30.95 24.3602 30.89 24.4302 30.86C24.5002 30.83 24.5702 30.84 24.6402 30.86C24.7002 30.89 24.7602 30.94 24.7902 30.99C24.8302 31.05 24.8502 31.11 24.8702 31.17C24.9002 31.3 24.9002 31.42 24.9102 31.54C24.9202 31.78 24.9302 32 24.9402 32.2C24.9602 32.6 24.9802 32.93 24.9902 33.16C24.9902 33.27 24.9902 33.36 25.0002 33.42C25.0002 33.36 25.0002 33.27 24.9802 33.16C24.9702 32.93 24.9502 32.61 24.9202 32.2C24.9102 32 24.9002 31.78 24.8802 31.54C24.8802 31.42 24.8802 31.3 24.8402 31.18C24.8302 31.12 24.8002 31.06 24.7702 31.01C24.7302 30.96 24.6802 30.91 24.6202 30.89C24.5602 30.86 24.4902 30.86 24.4302 30.89C24.3702 30.91 24.3202 30.97 24.2902 31.03C24.2602 31.09 24.2502 31.16 24.2702 31.23C24.2902 31.3 24.3202 31.36 24.3702 31.41C24.4702 31.52 24.6102 31.57 24.7602 31.6C24.9102 31.62 25.0602 31.63 25.2102 31.62C25.3602 31.62 25.5202 31.6 25.6602 31.57C25.7302 31.55 25.8002 31.53 25.8702 31.5C25.9402 31.47 25.9902 31.42 26.0402 31.37C26.0802 31.31 26.1102 31.25 26.1102 31.18C26.1102 31.11 26.0802 31.05 26.0302 31C25.9302 30.91 25.7802 30.88 25.6602 30.93C25.5402 30.98 25.4502 31.08 25.3902 31.2C25.3402 31.31 25.3202 31.44 25.3102 31.55C25.3102 31.67 25.3102 31.78 25.3102 31.89C25.3102 32 25.3202 32.11 25.3302 32.21C25.3602 32.61 25.4102 32.94 25.4402 33.16C25.4602 33.27 25.4702 33.36 25.4802 33.42C25.4802 33.45 25.4802 33.47 25.4802 33.49C25.4802 33.51 25.4802 33.51 25.4802 33.51L25.4702 33.49Z" fill="white"/>
<path d="M24.52 33.53C24.52 33.53 24.52 33.62 24.54 33.77C24.54 33.94 24.56 34.15 24.57 34.4V34.38C24.71 34.55 24.87 34.74 25.05 34.94H25.03C25.21 34.92 25.4 34.91 25.59 34.9H25.57C25.66 34.8 25.75 34.69 25.85 34.57C25.9 34.51 25.94 34.46 25.99 34.4V34.42C25.97 34.09 25.97 33.78 25.96 33.49L25.99 33.52C25.58 33.52 25.23 33.52 24.94 33.53C24.83 33.53 24.73 33.53 24.64 33.53C24.57 33.53 24.53 33.53 24.53 33.53C24.53 33.53 24.56 33.53 24.63 33.53C24.72 33.53 24.82 33.53 24.93 33.51C25.22 33.5 25.58 33.48 26 33.47H26.03V33.5C26.03 33.78 26.05 34.1 26.06 34.43V34.45C26.01 34.51 25.97 34.56 25.92 34.62C25.82 34.74 25.73 34.85 25.64 34.96L25.63 34.97C25.43 34.97 25.24 34.99 25.07 35H25.05V34.99C24.88 34.78 24.72 34.59 24.57 34.42V34.4C24.57 34.15 24.57 33.94 24.57 33.76C24.57 33.61 24.57 33.53 24.57 33.53H24.52Z" fill="white"/>
<path d="M25.9698 34.34C25.9698 34.34 25.9498 34.34 25.9198 34.32C25.8898 34.3 25.8398 34.28 25.7698 34.26C25.6498 34.22 25.4598 34.18 25.2598 34.18C25.0598 34.18 24.8798 34.24 24.7598 34.29C24.6998 34.32 24.6498 34.34 24.6198 34.36C24.6498 34.34 24.6998 34.31 24.7598 34.29C24.8798 34.23 25.0598 34.18 25.2698 34.17C25.4798 34.17 25.6598 34.21 25.7798 34.25C25.8398 34.27 25.8898 34.3 25.9198 34.31C25.9498 34.33 25.9698 34.34 25.9698 34.34Z" fill="white"/>
<path d="M25.9698 34.1199C25.9698 34.1199 25.9498 34.1199 25.9198 34.0999C25.8898 34.0799 25.8398 34.06 25.7698 34.04C25.6498 34 25.4598 33.9599 25.2598 33.9599C25.0598 33.9599 24.8798 34.02 24.7598 34.07C24.6998 34.1 24.6498 34.1199 24.6198 34.1399C24.6498 34.1199 24.6998 34.09 24.7598 34.07C24.8798 34.01 25.0598 33.96 25.2698 33.95C25.4798 33.95 25.6598 33.9899 25.7798 34.0299C25.8398 34.0499 25.8898 34.08 25.9198 34.09C25.9498 34.11 25.9698 34.1199 25.9698 34.1199Z" fill="white"/>
<path d="M25.9601 33.9C25.9601 33.9 25.9401 33.9 25.9101 33.88C25.8801 33.86 25.8301 33.84 25.7601 33.82C25.6401 33.78 25.4501 33.74 25.2501 33.74C25.0501 33.74 24.8701 33.8 24.7501 33.85C24.6901 33.88 24.6401 33.9 24.6101 33.92C24.6401 33.9 24.6901 33.87 24.7501 33.85C24.8701 33.79 25.0501 33.74 25.2601 33.73C25.4701 33.73 25.6501 33.77 25.7701 33.81C25.8301 33.83 25.8801 33.86 25.9101 33.87C25.9401 33.89 25.9601 33.9 25.9601 33.9Z" fill="white"/>
<path d="M13.4897 19.24C13.4897 19.24 13.5397 25 13.8297 26.76L21.0597 26.42C21.0597 26.42 20.4297 20.76 20.6697 19.24H13.4897Z" fill="#ECECEC"/>
<path d="M19.58 21.66C19.58 21.66 18.5 21.8 17.16 21.88C15.82 21.96 14.73 21.99 14.73 21.96C14.73 21.92 15.81 21.82 17.15 21.74C18.49 21.66 19.58 21.63 19.58 21.66Z" fill="white"/>
<path d="M19.58 22.88C19.58 22.88 18.5 23.02 17.16 23.1C15.82 23.18 14.73 23.21 14.73 23.18C14.73 23.14 15.81 23.04 17.15 22.96C18.49 22.88 19.58 22.85 19.58 22.88Z" fill="white"/>
<path d="M18.3598 24.08C18.3598 24.08 17.7498 24.19 16.9798 24.23C16.2198 24.28 15.5998 24.28 15.5898 24.24C15.5898 24.2 16.1998 24.13 16.9698 24.09C17.7298 24.04 18.3498 24.04 18.3598 24.08Z" fill="white"/>
<path d="M13.1499 36.19C13.1499 36.19 13.1999 41.95 13.4899 43.71L20.7199 43.37C20.7199 43.37 20.0899 37.71 20.3299 36.19H13.1499Z" fill="#ECECEC"/>
<path d="M19.2401 38.61C19.2401 38.61 18.1601 38.75 16.8201 38.83C15.4801 38.91 14.3901 38.94 14.3901 38.91C14.3901 38.87 15.4701 38.77 16.8101 38.69C18.1501 38.61 19.2401 38.58 19.2401 38.61Z" fill="white"/>
<path d="M19.2401 39.83C19.2401 39.83 18.1601 39.97 16.8201 40.05C15.4801 40.13 14.3901 40.16 14.3901 40.13C14.3901 40.09 15.4701 39.99 16.8101 39.91C18.1501 39.83 19.2401 39.8 19.2401 39.83Z" fill="white"/>
<path d="M18.0097 41.03C18.0097 41.03 17.3997 41.14 16.6297 41.18C15.8697 41.23 15.2497 41.23 15.2397 41.19C15.2397 41.15 15.8497 41.08 16.6197 41.04C17.3797 40.99 17.9997 40.99 18.0097 41.03Z" fill="white"/>
<path d="M32.8999 20.77L33.6099 37.39L54.3599 37.64L53.4299 20.99L32.8999 20.77Z" fill="#ECECEC"/>
<path d="M53.2597 20.65H32.6597V36.21H53.2597V20.65Z" fill="#F5F5F5"/>
<path d="M53.2596 36.21C53.2596 36.21 53.2596 36.11 53.2596 35.92C53.2596 35.73 53.2596 35.45 53.2596 35.09C53.2596 34.36 53.2596 33.3 53.2496 31.94C53.2496 29.23 53.2297 25.34 53.2197 20.65L53.2796 20.71C47.4496 20.71 40.3396 20.71 32.6796 20.72L32.7496 20.65C32.7496 26.25 32.7496 31.54 32.7496 36.21L32.6896 36.15C38.7896 36.16 43.9296 36.17 47.5496 36.18C49.3596 36.18 50.7896 36.19 51.7796 36.2C52.2696 36.2 52.6397 36.2 52.8997 36.2C53.0197 36.2 53.1196 36.2 53.1896 36.2C53.2596 36.2 53.2896 36.2 53.2896 36.2C53.2896 36.2 53.2596 36.2 53.1996 36.2C53.1297 36.2 53.0396 36.2 52.9196 36.2C52.6596 36.2 52.2896 36.2 51.8097 36.2C50.8297 36.2 49.3996 36.2 47.5996 36.22C43.9696 36.22 38.8096 36.24 32.6996 36.25H32.6396V36.19C32.6396 31.53 32.6396 26.23 32.6396 20.63V20.56H32.7096C40.3796 20.56 47.4897 20.56 53.3097 20.57H53.3696V20.63C53.3596 25.34 53.3496 29.24 53.3396 31.96C53.3396 33.31 53.3297 34.37 53.3297 35.1C53.3297 35.46 53.3297 35.73 53.3297 35.92C53.3297 36.1 53.3297 36.2 53.3297 36.2L53.2596 36.21Z" fill="#E1E1E1"/>
<path d="M43.4897 23.95H35.1396V34.46H43.4897V23.95Z" fill="#F5F5F5"/>
<path d="M43.4997 34.46C43.4997 34.46 43.4997 34.44 43.4997 34.41C43.4997 34.37 43.4997 34.32 43.4997 34.26C43.4997 34.12 43.4997 33.93 43.4997 33.69C43.4997 33.18 43.4997 32.45 43.4797 31.53C43.4797 29.68 43.4597 27.06 43.4497 23.95L43.5097 24.01C41.0197 24.01 38.1697 24.01 35.1597 24.01C35.1397 24.02 35.2897 23.88 35.2297 23.94V24.3V24.66C35.2297 24.9 35.2297 25.14 35.2297 25.38C35.2297 25.86 35.2297 26.33 35.2297 26.8C35.2297 27.73 35.2297 28.64 35.2297 29.53C35.2297 31.3 35.2297 32.95 35.2297 34.45L35.1697 34.39C37.6797 34.4 39.7597 34.41 41.2197 34.42C41.9497 34.42 42.5197 34.43 42.9197 34.44C43.1097 34.44 43.2597 34.44 43.3697 34.44C43.4697 34.44 43.5297 34.44 43.5297 34.44C43.5297 34.44 43.4797 34.44 43.3797 34.44C43.2697 34.44 43.1297 34.44 42.9397 34.44C42.5397 34.44 41.9797 34.44 41.2597 34.46C39.7897 34.46 37.6997 34.48 35.1797 34.49H35.1197V34.43C35.1197 32.93 35.1197 31.27 35.1197 29.51C35.1197 28.63 35.1197 27.72 35.1197 26.78C35.1197 26.31 35.1197 25.84 35.1197 25.36C35.1197 25.12 35.1197 24.88 35.1197 24.64V24.28V24.1V23.94V23.92C35.0597 23.98 35.2097 23.83 35.1897 23.84C38.1997 23.84 41.0497 23.84 43.5397 23.84H43.5997V23.9C43.5897 27.03 43.5797 29.66 43.5697 31.52C43.5697 32.43 43.5597 33.16 43.5497 33.66C43.5497 33.9 43.5497 34.09 43.5497 34.22C43.5497 34.28 43.5497 34.32 43.5497 34.36C43.5497 34.39 43.5497 34.41 43.5497 34.41L43.4997 34.46Z" fill="#E1E1E1"/>
<path d="M51.4695 21.54H35.4595V23.05H51.4695V21.54Z" fill="#F5F5F5"/>
<path d="M51.4696 23.06C51.4696 23.06 51.4696 23.02 51.4696 22.96C51.4696 22.89 51.4696 22.79 51.4696 22.67C51.4696 22.41 51.4696 22.03 51.4496 21.55L51.4796 21.58C48.7796 21.6 42.6296 21.62 35.4696 21.62C35.6096 21.48 35.5096 21.58 35.5396 21.55V21.94C35.5396 22.07 35.5396 22.2 35.5396 22.32C35.5396 22.57 35.5396 22.82 35.5396 23.06L35.4696 22.99C39.9496 23 43.9396 23.01 46.8196 23.02C48.2596 23.02 49.4196 23.04 50.2296 23.04C50.6296 23.04 50.9396 23.04 51.1596 23.04C51.2596 23.04 51.3396 23.04 51.3996 23.04C51.4596 23.04 51.4796 23.04 51.4896 23.04C51.4896 23.04 51.4696 23.04 51.4096 23.04C51.3496 23.04 51.2696 23.04 51.1796 23.04C50.9596 23.04 50.6596 23.04 50.2696 23.04C49.4596 23.04 48.3096 23.05 46.8796 23.06C43.9896 23.06 39.9796 23.08 35.4796 23.09H35.4096V23.02C35.4096 22.78 35.4096 22.53 35.4096 22.28C35.4096 22.15 35.4096 22.03 35.4096 21.9V21.71V21.61V21.54V21.52C35.4096 21.52 35.3396 21.59 35.4796 21.44C42.6296 21.44 48.7896 21.46 51.4896 21.48H51.5196V21.51C51.5196 22 51.5096 22.38 51.4996 22.64C51.4996 22.76 51.4996 22.86 51.4996 22.93C51.4996 22.99 51.4996 23.03 51.4996 23.02L51.4696 23.06Z" fill="#E1E1E1"/>
<path d="M51.4695 23.95H44.5195V30.29H51.4695V23.95Z" fill="#F5F5F5"/>
<path d="M51.4696 30.28C51.4696 30.28 51.4696 30.24 51.4696 30.16C51.4696 30.07 51.4696 29.96 51.4696 29.82C51.4696 29.51 51.4696 29.08 51.4496 28.53C51.4496 27.42 51.4296 25.84 51.4196 23.95L51.4796 24.01C49.4696 24.01 47.0796 24.01 44.5296 24.02C44.5096 24.04 44.6596 23.89 44.5996 23.95V24.38C44.5996 24.52 44.5996 24.67 44.5996 24.81C44.5996 25.09 44.5996 25.38 44.5996 25.65C44.5996 26.21 44.5996 26.75 44.5996 27.28C44.5996 28.34 44.5996 29.35 44.5996 30.28L44.5396 30.22C46.5996 30.23 48.3296 30.24 49.5496 30.25C50.1496 30.25 50.6296 30.26 50.9696 30.27C51.1296 30.27 51.2496 30.27 51.3496 30.27C51.4396 30.27 51.4796 30.27 51.4896 30.27C51.4896 30.27 51.4496 30.27 51.3696 30.27C51.2796 30.27 51.1596 30.27 50.9996 30.27C50.6596 30.27 50.1896 30.27 49.5896 30.29C48.3496 30.29 46.6096 30.31 44.5396 30.32H44.4796V30.26C44.4796 29.33 44.4796 28.32 44.4796 27.26C44.4796 26.73 44.4796 26.18 44.4796 25.63C44.4796 25.35 44.4796 25.07 44.4796 24.79C44.4796 24.65 44.4796 24.51 44.4796 24.36V24.14V24.03V23.95V23.93C44.4196 23.99 44.5696 23.84 44.5496 23.85C47.1096 23.85 49.4896 23.85 51.4996 23.86H51.5596V23.92C51.5496 25.83 51.5396 27.41 51.5296 28.54C51.5296 29.08 51.5196 29.51 51.5096 29.82C51.5096 29.96 51.5096 30.07 51.5096 30.15C51.5096 30.22 51.5096 30.26 51.5096 30.26L51.4696 30.28Z" fill="#E1E1E1"/>
<path d="M51.4695 31.28H44.5195V34.46H51.4695V31.28Z" fill="#F5F5F5"/>
<path d="M51.4697 34.46C51.4697 34.46 51.4697 34.38 51.4597 34.23C51.4597 34.07 51.4597 33.86 51.4497 33.59C51.4497 33.03 51.4297 32.24 51.4197 31.28L51.4697 31.33C49.6597 31.33 47.2097 31.34 44.5197 31.35C44.4597 31.41 44.6097 31.26 44.5897 31.28V31.49V31.7C44.5897 31.84 44.5897 31.98 44.5897 32.11C44.5897 32.38 44.5897 32.65 44.5897 32.92C44.5897 33.45 44.5897 33.97 44.5897 34.46L44.5197 34.39C46.5297 34.4 48.2497 34.41 49.4897 34.42C50.0997 34.42 50.5897 34.43 50.9397 34.44C51.0997 34.44 51.2297 34.44 51.3297 34.44C51.4197 34.44 51.4697 34.44 51.4697 34.44C51.4697 34.44 51.4297 34.44 51.3497 34.44C51.2497 34.44 51.1297 34.44 50.9697 34.44C50.6197 34.44 50.1397 34.45 49.5397 34.46C48.2897 34.46 46.5497 34.48 44.5197 34.49H44.4497V34.42C44.4497 33.93 44.4497 33.41 44.4497 32.88C44.4497 32.61 44.4497 32.34 44.4497 32.07C44.4497 31.93 44.4497 31.8 44.4497 31.66V31.45V31.35V31.27V31.25C44.4497 31.25 44.5797 31.11 44.5197 31.17C47.2097 31.17 49.6597 31.18 51.4697 31.19H51.5197V31.24C51.5097 32.22 51.4997 33.02 51.4897 33.58C51.4897 33.84 51.4897 34.05 51.4797 34.21C51.4797 34.35 51.4797 34.42 51.4697 34.42V34.46Z" fill="#E1E1E1"/>
<path d="M43.2896 23.97C40.6996 27.54 37.7296 30.89 35.1396 34.46L43.2896 23.97Z" fill="white"/>
<path d="M35.1399 34.46C35.1399 34.46 35.1599 34.42 35.2099 34.34C35.2699 34.25 35.3399 34.15 35.4299 34.02C35.6199 33.74 35.9099 33.35 36.2699 32.87C36.9899 31.9 38.0099 30.6 39.1599 29.17C40.3099 27.74 41.3499 26.45 42.0899 25.5C42.4499 25.04 42.7399 24.66 42.9599 24.37C43.0599 24.25 43.1299 24.15 43.1999 24.07C43.2599 24 43.2899 23.97 43.2899 23.97C43.2899 23.97 43.2699 24.01 43.2199 24.09C43.1599 24.18 43.0899 24.28 42.9999 24.41C42.8099 24.69 42.5199 25.08 42.1599 25.56C41.4399 26.53 40.4199 27.83 39.2599 29.26C38.1099 30.69 37.0699 31.98 36.3299 32.93C35.9699 33.39 35.6799 33.77 35.4599 34.06C35.3599 34.18 35.2899 34.28 35.2199 34.36C35.1599 34.43 35.1299 34.46 35.1299 34.46H35.1399Z" fill="#E1E1E1"/>
<path d="M43.4998 34.46C43.4998 34.46 41.5698 32.15 39.2698 29.25C36.9598 26.35 35.1198 23.97 35.1498 23.95C35.1798 23.93 37.0798 26.26 39.3798 29.16C41.6898 32.06 43.5298 34.44 43.4998 34.46Z" fill="#E1E1E1"/>
<path d="M33.6097 23.97C33.6097 24.69 33.0197 25.28 32.2997 25.28C31.5797 25.28 30.9897 24.69 30.9897 23.97C30.9897 23.25 31.5797 22.66 32.2997 22.66C33.0197 22.66 33.6097 23.25 33.6097 23.97Z" fill="#E1E1E1"/>
<path d="M54.9896 20.8C54.9896 21.52 54.3996 22.11 53.6796 22.11C52.9596 22.11 52.3696 21.52 52.3696 20.8C52.3696 20.08 52.9596 19.49 53.6796 19.49C54.3996 19.49 54.9896 20.08 54.9896 20.8Z" fill="#E1E1E1"/>
<g opacity="0.5">
<path d="M108.33 11.56H74.6997V49.94H108.33V11.56Z" fill="#EAEAEA"/>
<path d="M77.5998 31.16C77.5998 31.16 77.9698 30.97 78.6798 30.75C79.3798 30.53 80.4698 30.32 81.7798 30.52C82.4298 30.62 83.1398 30.82 83.8298 31.18C84.5198 31.53 85.1798 32.04 85.8398 32.63C86.4998 33.21 87.1499 33.87 87.9099 34.48C88.6699 35.08 89.5299 35.65 90.5499 35.91C91.0599 36.04 91.5898 36.07 92.0898 36C92.5998 35.93 93.0798 35.76 93.5198 35.56C94.4098 35.14 95.1599 34.59 95.9099 34.14C96.6499 33.67 97.3999 33.3 98.1599 33.13C98.9099 32.95 99.6399 32.91 100.3 32.97C101.62 33.09 102.62 33.55 103.26 33.93C103.89 34.32 104.19 34.61 104.21 34.59C104.21 34.59 104.14 34.51 104 34.38C103.86 34.24 103.63 34.06 103.31 33.86C102.68 33.45 101.67 32.95 100.32 32.81C99.6498 32.74 98.8999 32.77 98.1199 32.95C97.3398 33.12 96.5599 33.5 95.7999 33.96C95.0399 34.42 94.2798 34.96 93.4198 35.36C92.5698 35.77 91.5698 35.95 90.5998 35.69C89.6298 35.44 88.7898 34.9 88.0398 34.31C87.2998 33.71 86.6398 33.06 85.9698 32.47C85.2998 31.89 84.6198 31.36 83.8998 31.01C83.1898 30.65 82.4598 30.46 81.7898 30.36C80.4398 30.18 79.3398 30.42 78.6398 30.67C78.2798 30.79 78.0198 30.92 77.8498 31.01C77.6798 31.1 77.5898 31.16 77.5898 31.16H77.5998Z" fill="#565656"/>
<path d="M99.0802 36.32H96.2202V44.05H99.0802V36.32Z" fill="#C6C6C6"/>
<path d="M86.9498 36.32H84.0898V44.05H86.9498V36.32Z" fill="#C6C6C6"/>
<path d="M82.9 31.78H80.04V44.05H82.9V31.78Z" fill="#C6C6C6"/>
<path d="M102.78 41.6201H99.9199V44.2201H102.78V41.6201Z" fill="#C6C6C6"/>
<path d="M95.0402 39.8101H92.1802V44.0501H95.0402V39.8101Z" fill="#C6C6C6"/>
<path d="M90.9899 38.84H88.1299V44.05H90.9899V38.84Z" fill="#C6C6C6"/>
<path d="M96.1099 44.96C96.1099 45.02 96.7999 45.07 97.6499 45.07C98.4999 45.07 99.1899 45.02 99.1899 44.96C99.1899 44.9 98.4999 44.85 97.6499 44.85C96.7999 44.85 96.1099 44.9 96.1099 44.96Z" fill="#1A2E35"/>
<path d="M99.6602 44.96C99.6602 45.02 100.35 45.07 101.2 45.07C102.05 45.07 102.74 45.02 102.74 44.96C102.74 44.9 102.05 44.85 101.2 44.85C100.35 44.85 99.6602 44.9 99.6602 44.96Z" fill="#1A2E35"/>
<path d="M79.48 44.96C79.48 45.02 80.26 45.07 81.23 45.07C82.2 45.07 82.98 45.02 82.98 44.96C82.98 44.9 82.2 44.85 81.23 44.85C80.26 44.85 79.48 44.9 79.48 44.96Z" fill="#1A2E35"/>
<path d="M85.4702 45.07C86.4367 45.07 87.2202 45.0207 87.2202 44.96C87.2202 44.8992 86.4367 44.85 85.4702 44.85C84.5037 44.85 83.7202 44.8992 83.7202 44.96C83.7202 45.0207 84.5037 45.07 85.4702 45.07Z" fill="#1A2E35"/>
<path d="M88.1299 44.96C88.1299 45.02 88.8199 45.08 89.6699 45.08C90.5199 45.08 91.2099 45.03 91.2099 44.96C91.2099 44.89 90.5199 44.85 89.6699 44.85C88.8199 44.85 88.1299 44.9 88.1299 44.96Z" fill="#1A2E35"/>
<path d="M92.3101 44.96C92.3101 45.02 93.0001 45.08 93.8501 45.08C94.7001 45.08 95.3901 45.03 95.3901 44.96C95.3901 44.9 94.7001 44.85 93.8501 44.85C93.0001 44.85 92.3101 44.9 92.3101 44.96Z" fill="#1A2E35"/>
<path d="M79.4801 26.86L102.85 26.86V17.16L79.4801 17.16V26.86Z" fill="#E1E1E1"/>
<path d="M97.9897 20.23C97.9897 20.83 98.4798 21.32 99.0798 21.32C99.6798 21.32 100.17 20.83 100.17 20.23C100.17 19.63 99.6798 19.14 99.0798 19.14C98.4798 19.14 97.9897 19.63 97.9897 20.23Z" fill="#1A2E35"/>
<path d="M89.3197 19.9H96.9097V19.48H89.3197V19.9Z" fill="#1A2E35"/>
<path d="M82.1299 20.85L96.8999 20.85V20.43L82.1299 20.43V20.85Z" fill="white"/>
<path d="M97.9897 23.57C97.9897 24.17 98.4798 24.66 99.0798 24.66C99.6798 24.66 100.17 24.17 100.17 23.57C100.17 22.97 99.6798 22.48 99.0798 22.48C98.4798 22.48 97.9897 22.97 97.9897 23.57Z" fill="#2D2D2D"/>
<path d="M93.0199 23.25H96.8999V22.83H93.0199V23.25Z" fill="#2D2D2D"/>
<path d="M82.1299 24.2L96.8999 24.2V23.78L82.1299 23.78V24.2Z" fill="white"/>
</g>
<path d="M52.0402 94.93C51.7802 94.98 51.5102 95.07 51.2502 95.21C50.4202 95.66 49.6302 96.09 48.8402 96.35C47.6402 96.76 46.4102 96.82 45.0802 96.1C42.3802 94.63 41.3802 91 42.9402 88.35C44.8602 85.09 48.3502 85.49 51.1802 87.25C52.4002 88.01 53.9402 87.3 54.2402 85.99V78.53V73.7V73.36H54.1802V73.63H41.7302C40.7702 73.38 40.1502 72.46 40.2302 71.5C40.2302 71.16 40.3102 70.81 40.5002 70.48C41.2302 69.2 41.8902 67.94 41.9602 66.61C41.9602 65.92 41.8102 65.22 41.4102 64.49C39.9402 61.79 36.3102 60.79 33.6602 62.34C31.9802 63.33 31.2702 64.73 31.2202 66.24C31.2202 67.62 31.7402 69.09 32.5602 70.41C32.8202 70.82 32.9002 71.27 32.8602 71.69C32.8402 72.58 32.2302 73.41 31.3202 73.63H20.4902C20.4502 73.68 20.4202 73.74 20.3802 73.79C19.4502 75.32 19.6402 76.45 21.0302 77.41C21.9202 78.03 22.8702 78.55 23.6502 79.35C24.8402 80.57 24.9202 81.29 24.0102 82.8C22.9802 84.5 22.9902 84.57 24.5702 85.77C24.9902 86.09 25.4402 86.34 24.8502 86.95C23.9802 87.85 24.2902 88.73 25.0402 89.39C26.1002 90.31 26.2602 91.49 26.0602 92.82C25.8902 93.97 25.6302 95.11 25.4202 96.26C24.8402 99.35 25.6502 100.79 28.4402 101.6C31.3602 102.45 34.2602 101.71 37.1602 101.43C39.1102 101.24 41.0302 100.56 43.0202 101.06C44.3102 101.38 45.0302 102.17 45.2002 103.62C45.4402 105.73 46.0702 107.75 46.4302 109.83C46.7202 111.53 47.4602 112.06 48.9902 111.99C50.2702 111.93 52.1002 111.91 54.2302 111.9V96.47C53.9902 95.47 53.0302 94.81 52.0402 94.92V94.93Z" fill="#644DF6"/>
<path opacity="0.1" d="M115.98 80.22C115.88 80.24 115.77 80.27 115.67 80.33C115.34 80.51 115.03 80.68 114.71 80.78C114.23 80.94 113.74 80.97 113.22 80.68C112.15 80.1 111.75 78.66 112.37 77.61C113.13 76.31 114.52 76.47 115.64 77.17C116.12 77.47 116.73 77.19 116.85 76.67V73.71V71.79V71.65H116.83V71.76H111.89C111.51 71.66 111.26 71.29 111.29 70.91C111.29 70.77 111.32 70.64 111.4 70.5C111.69 69.99 111.95 69.49 111.98 68.97C111.98 68.7 111.92 68.42 111.76 68.13C111.18 67.06 109.74 66.66 108.69 67.28C108.02 67.67 107.74 68.23 107.72 68.83C107.72 69.38 107.93 69.96 108.25 70.48C108.35 70.64 108.39 70.82 108.37 70.99C108.37 71.34 108.12 71.67 107.76 71.76H103.46C103.46 71.76 103.43 71.8 103.42 71.83C103.05 72.44 103.13 72.89 103.68 73.27C104.03 73.51 104.41 73.72 104.72 74.04C105.19 74.52 105.22 74.81 104.86 75.41C104.45 76.08 104.45 76.11 105.08 76.59C105.25 76.72 105.43 76.82 105.19 77.06C104.84 77.42 104.97 77.77 105.27 78.03C105.69 78.4 105.75 78.87 105.67 79.39C105.6 79.85 105.5 80.3 105.41 80.75C105.18 81.98 105.5 82.55 106.61 82.87C107.77 83.21 108.92 82.92 110.07 82.8C110.84 82.73 111.6 82.46 112.4 82.65C112.91 82.78 113.2 83.09 113.26 83.67C113.36 84.51 113.61 85.31 113.75 86.14C113.87 86.81 114.16 87.02 114.77 87C115.28 86.98 116 86.97 116.85 86.96V80.84C116.76 80.44 116.38 80.18 115.98 80.22Z" fill="#644DF6"/>
<path d="M64.7698 44.57C65.3698 45.77 67.0298 46.11 68.0398 45.09C70.3798 42.72 73.6798 41.52 76.3098 44.25C78.4398 46.46 78.3098 50.23 76.0198 52.28C74.8998 53.29 73.6898 53.51 72.4198 53.4C71.5798 53.33 70.7198 53.09 69.8098 52.85C69.5198 52.77 69.2398 52.74 68.9798 52.76C67.9898 52.89 67.2098 53.75 67.2098 54.78L68.9098 61.89L70.0398 66.62L70.0798 66.79L70.1198 66.95H70.1698L82.4298 64.01C83.6298 64.14 84.5198 65.34 84.1498 66.61C83.5098 68.8 82.9998 70.94 84.6898 72.82C86.7398 75.11 90.5098 75.24 92.7198 73.11C95.4498 70.49 94.2498 67.18 91.8798 64.84C90.9098 63.89 91.1598 62.35 92.2098 61.68L99.6998 59.89C100.09 57.13 100.06 54.4 99.6198 51.86C98.3198 45.3 95.7798 40.23 91.7598 36.54C83.5098 28.98 73.9898 26.91 63.8798 28.52C62.9298 28.67 61.9998 28.88 61.0898 29.14L63.0498 37.33L64.7798 44.58L64.7698 44.57Z" fill="#644DF6"/>
<path opacity="0.2" d="M64.7698 44.57C65.3698 45.77 67.0298 46.11 68.0398 45.09C70.3798 42.72 73.6798 41.52 76.3098 44.25C78.4398 46.46 78.3098 50.23 76.0198 52.28C74.8998 53.29 73.6898 53.51 72.4198 53.4C71.5798 53.33 70.7198 53.09 69.8098 52.85C69.5198 52.77 69.2398 52.74 68.9798 52.76C67.9898 52.89 67.2098 53.75 67.2098 54.78L68.9098 61.89L70.0398 66.62L70.0798 66.79L70.1198 66.95H70.1698L82.4298 64.01C83.6298 64.14 84.5198 65.34 84.1498 66.61C83.5098 68.8 82.9998 70.94 84.6898 72.82C86.7398 75.11 90.5098 75.24 92.7198 73.11C95.4498 70.49 94.2498 67.18 91.8798 64.84C90.9098 63.89 91.1598 62.35 92.2098 61.68L99.6998 59.89C100.09 57.13 100.06 54.4 99.6198 51.86C98.3198 45.3 95.7798 40.23 91.7598 36.54C83.5098 28.98 73.9898 26.91 63.8798 28.52C62.9298 28.67 61.9998 28.88 61.0898 29.14L63.0498 37.33L64.7798 44.58L64.7698 44.57Z" fill="black"/>
<path d="M77.3299 112.01C79.1499 111.91 78.2699 110.77 77.4299 109C70.6099 94.66 78.7299 83.09 80.0699 81.48C82.0599 79.06 83.5899 76.41 84.6599 73.71H76.9599C75.7899 74.12 75.1899 75.56 75.9099 76.71C77.6699 79.53 78.0699 83.03 74.7999 84.94C72.1499 86.5 68.5199 85.49 67.0499 82.79C65.8399 80.57 66.8299 78.61 67.9699 76.63C68.6199 75.49 68.0299 74.11 66.8999 73.7H54.2999V85.51C54.2999 85.67 54.2799 85.83 54.2399 85.98V86.03C53.9199 87.32 52.3999 88.02 51.1899 87.26C48.3699 85.5 44.8699 85.1 42.9499 88.36C41.3899 91.01 42.5499 94.58 45.2499 96.04C46.5599 96.75 47.7099 96.7 48.8499 96.33C49.6599 96.05 50.4499 95.62 51.2499 95.17C51.5099 95.02 51.7799 94.94 52.0499 94.91C53.0899 94.73 54.0099 95.3 54.2399 96.43V96.47C54.2799 96.62 54.2999 96.78 54.2999 96.95V111.91C62.5199 111.88 75.0999 112.13 77.3399 112.01H77.3299Z" fill="#644DF6"/>
<path opacity="0.1" d="M20.1702 112.03C20.7902 112 20.4902 111.61 20.2002 111.01C17.8802 106.13 20.6402 102.19 21.1002 101.64C21.7802 100.81 22.3002 99.92 22.6602 99H20.0402C19.6402 99.14 19.4402 99.63 19.6802 100.02C20.2802 100.98 20.4102 102.17 19.3002 102.82C18.4002 103.35 17.1602 103.01 16.6602 102.09C16.2502 101.33 16.5902 100.67 16.9702 99.99C17.1902 99.6 16.9902 99.13 16.6002 98.99H12.3102V103.01C12.3102 103.07 12.3102 103.12 12.2902 103.17V103.19C12.1802 103.63 11.6602 103.87 11.2502 103.61C10.2902 103.01 9.10023 102.87 8.45023 103.99C7.92023 104.89 8.31023 106.11 9.23023 106.6C9.67023 106.84 10.0702 106.83 10.4502 106.7C10.7302 106.61 11.0002 106.46 11.2702 106.3C11.3602 106.25 11.4502 106.22 11.5402 106.21C11.8902 106.15 12.2102 106.34 12.2902 106.73C12.3002 106.79 12.3102 106.85 12.3102 106.9V111.99C15.1102 111.98 19.3902 112.06 20.1502 112.02L20.1702 112.03Z" fill="#644DF6"/>
<path d="M65.53 53.08C63.61 49.82 60.12 50.22 57.29 51.98C56.07 52.74 54.53 52.03 54.23 50.72C54.2 50.57 54.17 50.41 54.17 50.25V34.84C49.96 35.03 45.87 36.3 41.94 38.22C40.88 38.74 39.85 39.3 38.82 39.89C31.6 43.98 27.58 50.26 27.92 59.46C28.11 64.62 25.81 68.38 22.42 71.54C21.81 72.11 21.2 72.68 20.69 73.36C20.62 73.45 20.56 73.54 20.5 73.64H31.33C32.24 73.41 32.85 72.59 32.87 71.7C32.87 71.33 32.78 70.94 32.56 70.59C31.7 69.22 31.17 67.69 31.22 66.26C31.28 64.75 31.98 63.35 33.66 62.36C36.31 60.8 39.94 61.81 41.41 64.51C41.81 65.24 41.97 65.95 41.96 66.63C41.95 68.02 41.25 69.34 40.49 70.67C40.33 70.95 40.25 71.24 40.23 71.52C40.15 72.48 40.77 73.4 41.73 73.65H54.18V61.68C54.18 61.51 54.2 61.36 54.24 61.2C54.48 60.2 55.44 59.54 56.43 59.65C56.7 59.68 56.97 59.76 57.23 59.91C58.03 60.37 58.82 60.8 59.63 61.07C60.83 61.48 62.06 61.54 63.39 60.82C66.09 59.35 67.09 55.72 65.53 53.07V53.08Z" fill="#644DF6"/>
<path opacity="0.1" d="M18.4901 54.28C16.8801 53.86 15.9301 55.07 15.6001 56.49C15.4601 57.1 14.7601 57.36 14.2601 57.05C14.2001 57.01 14.1501 56.97 14.1001 56.92L9.33008 52.15C8.09008 53.51 7.21008 55.17 6.59008 56.99C6.42008 57.48 6.28008 57.97 6.14007 58.47C5.17007 61.97 5.87007 65.16 8.83008 67.91C10.4901 69.45 10.9401 71.33 10.8701 73.36C10.8601 73.73 10.8401 74.09 10.9001 74.46C10.9001 74.51 10.9201 74.56 10.9301 74.61L11.9601 73.58L14.2901 71.25C14.5001 70.9 14.4401 70.45 14.1701 70.17C14.0601 70.05 13.9101 69.96 13.7301 69.92C13.0401 69.76 12.4001 69.45 11.9701 68.99C11.5201 68.5 11.3001 67.85 11.5201 67.03C11.8601 65.73 13.2901 64.91 14.5801 65.3C14.9301 65.4 15.2001 65.57 15.4101 65.79C15.8401 66.23 16.0301 66.85 16.2101 67.49C16.2501 67.62 16.3101 67.74 16.3901 67.84C16.6601 68.16 17.1401 68.25 17.5101 68.03L21.3701 64.17L21.2801 64.08L17.6601 60.46C17.6101 60.41 17.5701 60.35 17.5301 60.29C17.2901 59.91 17.3901 59.41 17.7301 59.13C17.8201 59.06 17.9301 59 18.0601 58.96C18.4501 58.85 18.8301 58.74 19.1701 58.58C19.6701 58.33 20.0701 57.97 20.2601 57.34C20.6401 56.05 19.8301 54.61 18.5201 54.28H18.4901Z" fill="#644DF6"/>
<path opacity="0.2" d="M96.5401 104.84C96.5201 104.74 96.4901 104.64 96.4301 104.54C96.2601 104.23 96.1001 103.93 96.0001 103.63C95.8501 103.18 95.8201 102.72 96.0901 102.22C96.6401 101.21 98.0001 100.83 99.0001 101.42C100.22 102.14 100.07 103.45 99.4101 104.51C99.1201 104.97 99.3901 105.54 99.8801 105.66H102.68H104.49H104.62V105.64H104.52V100.97C104.62 100.61 104.96 100.38 105.32 100.41C105.45 100.41 105.58 100.44 105.7 100.51C106.18 100.78 106.65 101.03 107.15 101.06C107.41 101.06 107.67 101 107.95 100.85C108.96 100.3 109.34 98.94 108.76 97.95C108.39 97.32 107.86 97.06 107.3 97.03C106.78 97.03 106.23 97.22 105.74 97.53C105.59 97.63 105.42 97.66 105.26 97.64C104.93 97.64 104.62 97.4 104.53 97.06V94.24V93C104.51 92.99 104.49 92.97 104.47 92.96C103.9 92.61 103.47 92.68 103.11 93.2C102.88 93.54 102.68 93.89 102.38 94.18C101.92 94.63 101.65 94.66 101.09 94.31C100.45 93.93 100.43 93.93 99.9801 94.52C99.8601 94.68 99.7701 94.85 99.5401 94.62C99.2001 94.29 98.8701 94.41 98.6301 94.69C98.2801 95.09 97.8401 95.15 97.3501 95.07C96.9201 95.01 96.4901 94.91 96.0601 94.83C94.9001 94.61 94.3601 94.92 94.0601 95.96C93.7401 97.05 94.0201 98.14 94.1201 99.23C94.1901 99.96 94.4401 100.68 94.2601 101.43C94.1401 101.92 93.8401 102.18 93.3001 102.25C92.5101 102.34 91.7501 102.58 90.9701 102.71C90.3301 102.82 90.1401 103.1 90.1601 103.67C90.1801 104.15 90.1901 104.84 90.1901 105.63H95.9801C96.3601 105.54 96.6001 105.18 96.5601 104.81L96.5401 104.84Z" fill="#644DF6"/>
<path opacity="0.2" d="M114.24 109.9C115.46 109.18 115.31 107.87 114.65 106.81C114.36 106.35 114.63 105.78 115.12 105.66C115.18 105.65 115.23 105.64 115.3 105.64H121.08C121.01 104.06 120.53 102.53 119.81 101.05C119.62 100.65 119.4 100.26 119.19 99.88C117.66 97.17 115.3 95.66 111.85 95.79C109.91 95.86 108.5 95 107.32 93.73C107.11 93.5 106.89 93.27 106.64 93.08C106.61 93.06 106.57 93.03 106.54 93.01V94.25V97.07C106.62 97.41 106.93 97.64 107.27 97.65C107.41 97.65 107.55 97.62 107.69 97.53C108.2 97.21 108.78 97.01 109.32 97.03C109.89 97.05 110.41 97.32 110.78 97.95C111.36 98.94 110.99 100.3 109.97 100.85C109.69 101 109.43 101.06 109.17 101.06C108.65 101.06 108.15 100.79 107.66 100.51C107.56 100.45 107.45 100.42 107.34 100.41C106.98 100.38 106.64 100.61 106.54 100.97V105.64H106.64H111.02C111.08 105.64 111.14 105.64 111.2 105.66C111.58 105.75 111.82 106.11 111.78 106.48C111.77 106.58 111.74 106.68 111.68 106.78C111.51 107.08 111.35 107.38 111.24 107.68C111.09 108.13 111.06 108.59 111.33 109.09C111.88 110.1 113.24 110.48 114.24 109.89V109.9Z" fill="#644DF6"/>
</g>
</g>
<defs>
<clipPath id="clip0_626_3">
<rect width="120" height="120" fill="white"/>
</clipPath>
</defs>
</svg>
