<svg width="120" height="120" viewBox="0 0 120 120" fill="none" xmlns="http://www.w3.org/2000/svg">
<rect width="120" height="120" fill="white"/>
<g clip-path="url(#clip0_614_1127)">
<g opacity="0.5">
<path d="M26.5 32.8086C34.4024 32.8086 40.8086 26.4024 40.8086 18.5C40.8086 10.5976 34.4024 4.19141 26.5 4.19141C18.5976 4.19141 12.1914 10.5976 12.1914 18.5C12.1914 26.4024 18.5976 32.8086 26.5 32.8086Z" stroke="#1A2E35" stroke-width="0.25" stroke-linecap="round" stroke-linejoin="round"/>
<path d="M29.3729 30.8113C36.1762 29.2232 40.4039 22.4205 38.8157 15.6173C37.2275 8.81399 30.4249 4.58632 23.6216 6.1745C16.8184 7.76268 12.5907 14.5653 14.1789 21.3686C15.7671 28.1718 22.5697 32.3995 29.3729 30.8113Z" stroke="#1A2E35" stroke-width="0.25" stroke-linecap="round" stroke-linejoin="round"/>
<path d="M26.4999 19.7123C27.1695 19.7123 27.7122 19.1695 27.7122 18.5C27.7122 17.8304 27.1695 17.2877 26.4999 17.2877C25.8304 17.2877 25.2876 17.8304 25.2876 18.5C25.2876 19.1695 25.8304 19.7123 26.4999 19.7123Z" fill="#1A2E35" stroke="#1A2E35" stroke-width="0.25" stroke-linecap="round" stroke-linejoin="round"/>
<path d="M30.9025 20.6535L26.4998 18.5L19.1621 26.5237" stroke="#1A2E35" stroke-width="0.25" stroke-linecap="round" stroke-linejoin="round"/>
</g>
</g>
<g clip-path="url(#clip1_614_1127)">
<path d="M63.018 92.7561H56.2788V119.677H63.018V92.7561Z" fill="#1A2E35" stroke="#1A2E35" stroke-width="0.25" stroke-linecap="round" stroke-linejoin="round"/>
<path d="M103.863 48.3494H18.8398V99.4317H103.863V48.3494Z" fill="#1A2E35" stroke="#1A2E35" stroke-width="0.25" stroke-linecap="round" stroke-linejoin="round"/>
<path d="M102.149 48.3494H17.126V99.4317H102.149V48.3494Z" fill="#644DF4" stroke="#1A2E35" stroke-width="0.25" stroke-linecap="round" stroke-linejoin="round"/>
<path d="M99.0903 50.1927H20.1963V97.5988H99.0903V50.1927Z" fill="white" stroke="#1A2E35" stroke-width="0.25" stroke-linecap="round" stroke-linejoin="round"/>
<path d="M99.0903 94.7348H20.1963V97.5884H99.0903V94.7348Z" fill="white" stroke="#1A2E35" stroke-width="0.25" stroke-linecap="round" stroke-linejoin="round"/>
<path d="M60.0111 116.667L35.0308 118.261V119.875H84.2554V118.261L60.0111 116.667Z" fill="#1A2E35" stroke="#1A2E35" stroke-width="0.25" stroke-linecap="round" stroke-linejoin="round"/>
<path d="M99.0903 50.1927H20.1963V97.5988H99.0903V50.1927Z" fill="white" stroke="#1A2E35" stroke-width="0.25" stroke-linecap="round" stroke-linejoin="round"/>
<path d="M99.1005 50.1927H97.4814V97.5988H99.1005V50.1927Z" fill="#E8E8E8" stroke="#1A2E35" stroke-width="0.25" stroke-linecap="round" stroke-linejoin="round"/>
<path d="M99.1005 59.3365H97.4814V84.4246H99.1005V59.3365Z" fill="#A69FFF" stroke="#1A2E35" stroke-width="0.25" stroke-linecap="round" stroke-linejoin="round"/>
<path d="M99.0903 50.1927H20.1963V52.0152H99.0903V50.1927Z" fill="black" stroke="#1A2E35" stroke-width="0.25" stroke-linecap="round" stroke-linejoin="round"/>
<path d="M99.0903 96.2137H20.1963V97.5883H99.0903V96.2137Z" fill="black" stroke="#1A2E35" stroke-width="0.25" stroke-linecap="round" stroke-linejoin="round"/>
<path d="M85.5383 27.125H33.3594V94.1204H85.5383V27.125Z" fill="white" stroke="#1A2E35" stroke-width="0.25" stroke-linecap="round" stroke-linejoin="round"/>
<path d="M42.6847 68.4386H38.6265" stroke="#1A2E35" stroke-width="0.25" stroke-miterlimit="10"/>
<path d="M70.7877 68.4386H45.8179" stroke="#1A2E35" stroke-width="0.25" stroke-miterlimit="10"/>
<path d="M48.6985 71.5421H38.6265" stroke="#1A2E35" stroke-width="0.25" stroke-miterlimit="10"/>
<path d="M64.1218 71.5421H51.4424" stroke="#1A2E35" stroke-width="0.25" stroke-miterlimit="10"/>
<path d="M70.7874 71.5421H66.4663" stroke="#1A2E35" stroke-width="0.25" stroke-miterlimit="10"/>
<path d="M58.2343 74.6456H38.6265" stroke="#1A2E35" stroke-width="0.25" stroke-miterlimit="10"/>
<path d="M70.7873 74.6456H62.5552" stroke="#1A2E35" stroke-width="0.25" stroke-miterlimit="10"/>
<path d="M79.6957 74.5543C81.5203 74.1247 82.6479 72.3113 82.2143 70.5038C81.7806 68.6964 79.9498 67.5794 78.1251 68.009C76.3005 68.4386 75.1729 70.2521 75.6065 72.0595C76.0402 73.867 77.871 74.9839 79.6957 74.5543Z" stroke="#1A2E35" stroke-width="0.25" stroke-miterlimit="10"/>
<path d="M77.6216 70.7194L78.5468 72.3544L82.0373 68.9906" stroke="#644DF4" stroke-miterlimit="10" stroke-linecap="round"/>
<path d="M66.7295 54.5771H70.7877" stroke="#1A2E35" stroke-width="0.25" stroke-miterlimit="10"/>
<path d="M38.6265 54.5771H63.5963" stroke="#1A2E35" stroke-width="0.25" stroke-miterlimit="10"/>
<path d="M60.7153 57.691H70.7874" stroke="#1A2E35" stroke-width="0.25" stroke-miterlimit="10"/>
<path d="M45.292 57.691H57.9714" stroke="#1A2E35" stroke-width="0.25" stroke-miterlimit="10"/>
<path d="M38.6265 57.691H42.9476" stroke="#1A2E35" stroke-width="0.25" stroke-miterlimit="10"/>
<path d="M51.1797 60.7945H70.7875" stroke="#1A2E35" stroke-width="0.25" stroke-miterlimit="10"/>
<path d="M38.6265 60.7945H46.8691" stroke="#1A2E35" stroke-width="0.25" stroke-miterlimit="10"/>
<path d="M79.7005 60.7038C81.5252 60.2742 82.6528 58.4607 82.2191 56.6533C81.7855 54.8458 79.9547 53.7289 78.13 54.1585C76.3054 54.5881 75.1777 56.4015 75.6114 58.209C76.0451 60.0164 77.8759 61.1334 79.7005 60.7038Z" stroke="#1A2E35" stroke-width="0.25" stroke-miterlimit="10"/>
<path d="M77.6216 56.7225L78.5468 58.3471L82.0373 54.9937" stroke="#644DF4" stroke-miterlimit="10" stroke-linecap="round"/>
<path d="M66.7295 82.2897H70.7877" stroke="#1A2E35" stroke-width="0.25" stroke-miterlimit="10"/>
<path d="M38.6265 82.2897H63.5963" stroke="#1A2E35" stroke-width="0.25" stroke-miterlimit="10"/>
<path d="M60.7153 85.3932H70.7874" stroke="#1A2E35" stroke-width="0.25" stroke-miterlimit="10"/>
<path d="M45.292 85.3932H57.9714" stroke="#1A2E35" stroke-width="0.25" stroke-miterlimit="10"/>
<path d="M38.6265 85.3932H42.9476" stroke="#1A2E35" stroke-width="0.25" stroke-miterlimit="10"/>
<path d="M51.1797 88.4966H70.7875" stroke="#1A2E35" stroke-width="0.25" stroke-miterlimit="10"/>
<path d="M38.6265 88.4966H46.8691" stroke="#1A2E35" stroke-width="0.25" stroke-miterlimit="10"/>
<path d="M78.9144 88.4966C80.7899 88.4966 82.3103 86.9906 82.3103 85.1328C82.3103 83.275 80.7899 81.769 78.9144 81.769C77.0389 81.769 75.5186 83.275 75.5186 85.1328C75.5186 86.9906 77.0389 88.4966 78.9144 88.4966Z" stroke="#1A2E35" stroke-width="0.25" stroke-miterlimit="10"/>
<path d="M77.1377 83.9352L78.0629 85.5598L81.5534 82.2064" stroke="#644DF4" stroke-miterlimit="10" stroke-linecap="round"/>
<path d="M93.8754 81.4149C93.518 81.3628 93.1605 81.4149 92.8451 81.5919C92.8346 81.5919 92.8241 81.6128 92.8135 81.6128C92.6138 81.4774 92.3825 81.4045 92.1407 81.3941C92.0566 81.3628 91.9935 81.3107 91.9935 81.2587C91.9935 81.217 91.9725 81.1649 91.9619 81.1233C92.046 80.9983 92.1196 80.8629 92.1407 80.79C92.2143 80.6963 92.2879 80.5922 92.3404 80.4776C92.3615 80.4776 92.372 80.4984 92.393 80.4984C92.7084 80.5297 93.0343 80.4984 93.3392 80.3943C93.3918 80.3735 93.4338 80.3214 93.4128 80.2589C93.4023 80.2068 93.3392 80.1652 93.2761 80.186C93.0028 80.2797 92.7084 80.311 92.414 80.2797C92.4771 80.1235 92.5086 79.9465 92.5297 79.7798C92.5402 79.6236 92.5297 79.4674 92.4981 79.3216C92.4876 79.2695 92.414 79.2279 92.3615 79.2487C92.2984 79.2695 92.2773 79.3216 92.2879 79.3841C92.372 79.8111 92.2563 80.2589 92.004 80.6026C91.9199 80.6651 91.8253 80.7067 91.7411 80.7067C91.5309 80.4151 91.2155 80.2068 90.8475 80.1235C90.7213 80.061 90.6582 80.009 90.5847 79.8527C90.6057 79.7382 90.6057 79.634 90.6057 79.5195C90.6057 79.5195 90.6162 79.5091 90.6162 79.4987C90.8054 79.2487 91.0998 79.0821 91.4152 79.03C91.4783 79.03 91.5099 78.9467 91.4888 78.8946C91.4678 78.8321 91.4152 78.8113 91.3521 78.8217C91.0578 78.8738 90.7949 79.0092 90.5847 79.2175C90.5636 78.9988 90.5111 78.7801 90.4269 78.5822C90.4059 78.5301 90.3534 78.4885 90.2903 78.5093C90.2377 78.5197 90.1957 78.5822 90.2167 78.6447C90.3639 79.0404 90.4164 79.4674 90.3428 79.884C90.2692 79.9881 90.1746 80.0819 90.0905 80.1652C90.0379 80.1756 89.9959 80.1964 89.9538 80.2172C89.7646 80.2381 89.5438 80.1548 89.3546 80.0714C89.3546 80.0714 89.3441 80.0714 89.3335 80.061C89.1969 79.759 89.2179 79.3945 89.3966 79.1029C89.4702 78.9779 89.281 78.8738 89.2074 78.9988C89.0392 79.28 88.9971 79.6132 89.0707 79.9361C88.8079 79.8215 88.524 79.7694 88.2401 79.7798C88.0719 79.7798 87.9037 79.8111 87.746 79.8632C87.6093 79.9048 87.6724 80.1131 87.8091 80.0714C88.2927 79.9152 88.8184 79.9985 89.2389 80.2589C89.3651 80.4151 89.3441 80.6026 89.2915 80.79C89.1443 81.0191 89.0602 81.2899 89.0602 81.5815C89.0602 81.5815 89.0602 81.5815 89.0602 81.5919C89.0497 81.6857 88.9971 81.8211 88.8289 81.8419C88.4189 81.8002 88.0088 81.6024 87.7565 81.2691C87.725 81.2274 87.6619 81.1962 87.6093 81.2274C87.5673 81.2587 87.5357 81.3316 87.5673 81.3732C87.7775 81.644 88.0719 81.8419 88.3873 81.9564C88.1245 82.2897 87.6829 82.4667 87.2624 82.4355C87.1993 82.4355 87.1572 82.4876 87.1572 82.5396C87.1572 82.6021 87.2098 82.6438 87.2624 82.6438C87.7775 82.6854 88.2717 82.4459 88.5871 82.0502C88.5871 82.0398 88.5976 82.0293 88.5976 82.0189C88.6712 82.0293 88.7343 82.0398 88.8079 82.0502C89.1022 82.0814 89.281 82.3522 89.281 82.3522C89.3651 82.4772 89.4597 82.5917 89.5753 82.6854C89.6174 82.7479 89.6489 82.8104 89.6069 82.8729C89.6069 82.8729 89.6069 82.8833 89.6069 82.8937C89.2389 83.3207 88.6291 83.4873 88.0824 83.3103C87.9457 83.2686 87.8932 83.4769 88.0193 83.5186C88.3663 83.6331 88.7658 83.6227 89.1022 83.4978C89.1128 83.4978 89.1233 83.4873 89.1443 83.4769C89.2284 83.831 89.1443 84.2059 88.934 84.4975C88.9025 84.5496 88.934 84.6225 88.9761 84.6433C89.0286 84.6746 89.0917 84.6433 89.1233 84.6017C89.3861 84.258 89.4597 83.7894 89.3546 83.3832C89.5018 83.2999 89.6279 83.1957 89.7436 83.0812C89.7856 83.0499 89.8592 82.9562 89.9644 82.9146C90.1431 82.9875 90.3428 83.0291 90.5426 83.0291C90.7634 83.0291 90.9631 82.977 91.1524 82.8937C91.268 82.8625 91.3942 82.8417 91.4888 82.8937C91.5414 82.9562 91.594 83.0083 91.657 83.0499C91.5624 83.529 91.7201 84.0393 92.0776 84.3726C92.1827 84.4663 92.3299 84.3205 92.2353 84.2163C91.9514 83.956 91.8042 83.5602 91.8568 83.1749C91.9304 83.2166 92.004 83.2478 92.0776 83.2791C92.4561 83.4249 92.8661 83.4249 93.2656 83.4144C93.4023 83.4144 93.4023 83.1957 93.2656 83.1957C92.8976 83.1957 92.5192 83.2062 92.1617 83.0812C91.9514 83.0083 91.7622 82.8833 91.6255 82.7167C91.6255 82.623 91.6781 82.5084 91.6991 82.4563C91.8463 82.2585 91.9514 82.0189 91.9935 81.769C92.0145 81.7273 92.0355 81.6544 92.0776 81.6336C92.3089 81.644 92.5297 81.7169 92.7189 81.8523C92.9607 82.0189 93.1184 82.2689 93.192 82.5396C93.2236 82.675 93.4338 82.6125 93.4023 82.4772C93.3287 82.2064 93.1815 81.9669 92.9818 81.7794C93.2341 81.6544 93.5285 81.6024 93.8018 81.644C93.8649 81.644 93.9175 81.6336 93.9385 81.5711C93.949 81.519 93.9175 81.4461 93.8649 81.4357L93.8754 81.4149Z" fill="#ECECEC"/>
<path d="M91.0577 81.4878C91.0577 81.769 90.8264 81.9981 90.5425 81.9981C90.2586 81.9981 90.0273 81.769 90.0273 81.4878C90.0273 81.2066 90.2586 80.9775 90.5425 80.9775C90.8264 80.9775 91.0577 81.2066 91.0577 81.4878Z" fill="#E1E1E1"/>
<path d="M23.4344 68.3241C23.6867 68.9802 24.1388 69.5321 24.7486 69.8966C24.7696 69.907 24.8012 69.9175 24.8222 69.9279C24.7907 70.3965 24.8958 70.8652 25.0956 71.2817C25.1166 71.4484 25.0956 71.6046 25.0114 71.6671C24.9378 71.7296 24.8748 71.792 24.8117 71.8545C24.5173 71.8441 24.2019 71.8545 24.0652 71.8754C23.8234 71.8337 23.5711 71.8233 23.3293 71.8441C23.3293 71.8025 23.3293 71.7712 23.3082 71.7296C23.0559 71.1568 22.6669 70.6465 22.1938 70.2299C22.1097 70.157 21.973 70.1466 21.8889 70.2299C21.8153 70.3132 21.8048 70.4486 21.8889 70.5319C22.32 70.9068 22.6564 71.3651 22.8982 71.8858C22.5618 71.9378 22.2359 72.042 21.9204 72.1878C21.6471 72.3232 21.3843 72.4898 21.153 72.6877C21.0688 72.7606 21.0794 72.9168 21.153 72.9897C21.2371 73.073 21.3632 73.0626 21.4578 72.9897C22.1097 72.4377 22.9928 72.1878 23.8444 72.2711C24.0337 72.344 24.1914 72.4586 24.2965 72.6148C24.0021 73.2605 23.9496 73.9999 24.1704 74.6872C24.1809 74.9684 24.1704 75.1142 23.9601 75.385C23.7498 75.4683 23.5501 75.562 23.3608 75.6662C23.3503 75.6662 23.3293 75.6662 23.3188 75.6662C22.6985 75.5933 22.1202 75.26 21.7207 74.781C21.6471 74.6976 21.4894 74.7081 21.4158 74.781C21.3317 74.8643 21.3422 74.9892 21.4158 75.083C21.7943 75.5308 22.2989 75.8328 22.8562 75.989C22.5092 76.239 22.1833 76.541 21.9099 76.8742C21.8363 76.968 21.8258 77.0929 21.9099 77.1763C21.9835 77.2492 22.1412 77.2596 22.2148 77.1763C22.7405 76.5306 23.4344 76.0307 24.2124 75.7391C24.4647 75.7703 24.7171 75.8224 24.9378 75.8849C25.0114 75.9474 25.085 76.0203 25.1586 76.0723C25.3794 76.3743 25.4635 76.8326 25.4951 77.2179C25.4951 77.2283 25.4951 77.2492 25.4951 77.2596C25.4951 77.2596 25.4951 77.2596 25.4951 77.27C25.1061 77.8011 24.4542 78.124 23.7919 78.1135C23.5185 78.1135 23.5185 78.5405 23.7919 78.5405C24.4437 78.5405 25.064 78.2906 25.5371 77.8636C25.6107 78.4156 25.7895 78.9467 26.0838 79.4153C26.2626 79.6965 26.4728 79.9569 26.7252 80.1756C26.9249 80.363 27.2298 80.061 27.0301 79.8736C26.2941 79.2175 25.9051 78.2385 25.9366 77.27C26.0943 76.9055 26.4098 76.7493 26.7988 76.6659C27.3349 76.6972 27.8922 76.5722 28.3863 76.2806C28.3863 76.2806 28.4073 76.2806 28.4073 76.2702C28.5756 76.2077 28.8699 76.1348 29.0592 76.416C29.3956 77.1554 29.4482 78.0302 29.1328 78.7905C29.0907 78.8946 29.1012 79.0196 29.2169 79.0821C29.3115 79.1341 29.4692 79.1133 29.5113 78.9988C29.7741 78.3739 29.8267 77.6866 29.711 77.0305C30.5416 77.145 31.2775 77.7074 31.635 78.4572C31.6876 78.5614 31.8348 78.5926 31.9294 78.5301C32.0345 78.4676 32.0556 78.3427 32.003 78.2385C31.5719 77.3325 30.6678 76.718 29.669 76.593C29.6374 76.593 29.6164 76.593 29.5954 76.593C29.5533 76.4577 29.5007 76.3327 29.4377 76.2077C29.1959 75.6766 29.5007 75.1142 29.5007 75.1142C29.6374 74.8539 29.732 74.5727 29.7846 74.2915C29.8582 74.1665 29.9318 74.052 30.079 74.052C30.0895 74.052 30.1 74.052 30.1105 74.052C31.2145 74.2602 32.0976 75.1246 32.3289 76.2285C32.3815 76.4993 32.802 76.3848 32.7389 76.1244C32.5917 75.4266 32.1922 74.7601 31.635 74.3123C31.614 74.2915 31.593 74.2811 31.5719 74.2602C32.0976 73.7708 32.823 73.5416 33.538 73.6145C33.6536 73.625 33.7482 73.5104 33.7588 73.4063C33.7588 73.2813 33.6641 73.2084 33.5485 73.1876C32.6969 73.0938 31.8243 73.4063 31.2145 74.0103C30.9306 73.8541 30.6257 73.7291 30.3103 73.6562C30.2157 73.6145 29.9844 73.5729 29.8056 73.4479C29.7636 73.073 29.6374 72.6981 29.4377 72.3544C29.2274 71.9899 28.9435 71.6879 28.6071 71.4484C28.4494 71.2817 28.2917 71.0943 28.2707 70.8756C28.3232 70.7298 28.3548 70.584 28.3758 70.4278C29.2905 70.1153 30.0159 69.3447 30.2367 68.4074C30.2998 68.1366 29.8898 68.0325 29.8267 68.2928C29.6479 69.0322 29.1117 69.6675 28.4073 69.9591C28.4073 69.8029 28.3863 69.6363 28.3653 69.4905C28.2391 68.7094 27.8291 68.0116 27.4191 67.3451C27.2719 67.116 26.9039 67.3243 27.0511 67.5534C27.4296 68.1679 27.8081 68.8135 27.9342 69.5321C28.0078 69.9591 27.9868 70.4069 27.8291 70.8027C27.6609 70.9068 27.4296 70.9277 27.3034 70.9277C26.8093 70.8652 26.3046 70.9277 25.8315 71.1151C25.7369 71.1359 25.6002 71.1464 25.5161 71.1151C25.3163 70.7194 25.2217 70.2715 25.2638 69.8237C25.3163 69.2614 25.5792 68.7302 25.9892 68.3345C26.189 68.147 25.8841 67.845 25.6843 68.0325C25.2953 68.4178 25.022 68.9073 24.9063 69.4384C24.4437 69.1364 24.0652 68.699 23.8655 68.1783C23.8234 68.0741 23.7288 67.9908 23.6026 68.0221C23.4975 68.0533 23.4029 68.1783 23.4449 68.2824L23.4344 68.3241Z" fill="#ECECEC"/>
<path d="M26.3363 73.0105C26.8199 72.7293 27.4507 72.8959 27.7241 73.375C28.008 73.8541 27.8397 74.4789 27.3561 74.7497C26.8725 75.0205 26.2417 74.8643 25.9683 74.3852C25.6845 73.9061 25.8527 73.2813 26.3363 73.0105Z" fill="#E1E1E1"/>
<path d="M89.8906 55.1187C90.0378 55.504 90.3111 55.8269 90.6581 56.0352C90.6686 56.0352 90.6896 56.0456 90.7002 56.056C90.6791 56.3268 90.7422 56.6079 90.8579 56.8475C90.8684 56.9412 90.8579 57.0349 90.8053 57.0766C90.7632 57.1078 90.7212 57.1495 90.6896 57.1911C90.5214 57.1911 90.3322 57.1911 90.2481 57.2016C90.1009 57.1807 89.9537 57.1703 89.817 57.1807C89.817 57.1599 89.817 57.1391 89.8065 57.1182C89.6593 56.785 89.428 56.483 89.1547 56.2434C89.1021 56.2018 89.0285 56.1914 88.9759 56.2434C88.9339 56.2851 88.9234 56.3788 88.9759 56.4205C89.2282 56.6392 89.428 56.91 89.5752 57.212C89.3754 57.2432 89.1862 57.3057 88.997 57.389C88.8393 57.4619 88.6815 57.5661 88.5449 57.6806C88.4923 57.7223 88.5028 57.816 88.5449 57.8577C88.5974 57.9097 88.671 57.8993 88.7236 57.8577C89.1021 57.5348 89.6278 57.389 90.1219 57.4411C90.2376 57.4827 90.3322 57.5556 90.3847 57.639C90.2165 58.0139 90.185 58.4513 90.3112 58.8574C90.3112 59.0241 90.3112 59.1074 90.185 59.2636C90.0588 59.3157 89.9432 59.3677 89.8275 59.4302C89.8275 59.4302 89.8065 59.4302 89.796 59.4302C89.428 59.3886 89.0916 59.1907 88.8603 58.9095C88.8182 58.8574 88.7236 58.8679 88.6815 58.9095C88.629 58.9616 88.6395 59.0345 88.6815 59.0866C88.9023 59.3469 89.1967 59.524 89.5226 59.6177C89.3124 59.7635 89.1231 59.9405 88.9654 60.1384C88.9234 60.1905 88.9128 60.2634 88.9654 60.3154C89.0075 60.3571 89.1021 60.3675 89.1441 60.3154C89.4596 59.9405 89.8591 59.6489 90.3217 59.4719C90.4689 59.4927 90.616 59.5135 90.7422 59.5552C90.7843 59.5969 90.8263 59.6281 90.8789 59.6698C91.005 59.8468 91.0576 60.1176 91.0786 60.3467C91.0786 60.3467 91.0786 60.3675 91.0786 60.3779C90.8473 60.6904 90.4689 60.8778 90.0799 60.8778C89.9221 60.8778 89.9116 61.1278 90.0799 61.1278C90.4583 61.1278 90.8263 60.982 91.0997 60.732C91.1417 61.0549 91.2469 61.3673 91.4256 61.6485C91.5307 61.8151 91.6569 61.9609 91.8041 62.0963C91.9197 62.2004 92.0985 62.0234 91.9828 61.9193C91.5518 61.5339 91.3205 60.9611 91.3415 60.3883C91.4361 60.1801 91.6254 60.0863 91.8461 60.0343C92.1615 60.0447 92.4875 59.9822 92.7818 59.8156C92.7818 59.8156 92.7818 59.8156 92.7924 59.8156C92.887 59.7739 93.0657 59.7427 93.1814 59.8989C93.3811 60.3363 93.4127 60.8466 93.2234 61.2944C93.2024 61.3569 93.2024 61.4298 93.2655 61.461C93.318 61.4923 93.4127 61.4819 93.4337 61.4194C93.5914 61.0549 93.6229 60.6487 93.5493 60.2634C94.0435 60.3363 94.4745 60.6591 94.6848 61.1069C94.7163 61.1694 94.8005 61.1798 94.853 61.1486C94.9161 61.1174 94.9266 61.0445 94.8951 60.982C94.6427 60.4508 94.1066 60.0863 93.5283 60.0134C93.5178 60.0134 93.4968 60.0134 93.4863 60.0134C93.4652 59.9301 93.4337 59.8572 93.3916 59.7843C93.2444 59.4719 93.4232 59.1386 93.4232 59.1386C93.5073 58.9824 93.5598 58.8262 93.5914 58.6492C93.6334 58.5763 93.6755 58.5034 93.7701 58.5034C93.7701 58.5034 93.7806 58.5034 93.7912 58.5034C94.443 58.6283 94.9582 59.1386 95.0948 59.7843C95.1264 59.9405 95.3682 59.878 95.3367 59.7218C95.2525 59.3053 95.0212 58.9199 94.6848 58.6596C94.6743 58.6596 94.6638 58.6387 94.6428 58.6283C94.9476 58.3367 95.3787 58.2013 95.7992 58.2534C95.8623 58.2534 95.9254 58.1909 95.9254 58.1284C95.9254 58.0555 95.8728 58.0139 95.7992 58.0035C95.2946 57.9514 94.7899 58.1284 94.4325 58.4825C94.2643 58.3888 94.0855 58.3159 93.9068 58.2742C93.8437 58.2534 93.7176 58.2222 93.6124 58.1493C93.5809 57.9306 93.5178 57.7119 93.3916 57.5036C93.2655 57.2849 93.0972 57.1078 92.908 56.9724C92.8134 56.8787 92.7188 56.7642 92.7083 56.6392C92.7398 56.5559 92.7608 56.4726 92.7713 56.3788C93.3075 56.2018 93.7386 55.7436 93.8647 55.1916C93.9068 55.0354 93.6545 54.9729 93.6229 55.1291C93.5178 55.5665 93.2024 55.931 92.7924 56.1081C92.7924 56.0143 92.7924 55.9206 92.7713 55.8269C92.6977 55.3686 92.4559 54.9625 92.2141 54.5667C92.13 54.4313 91.9092 54.5563 91.9933 54.6917C92.2141 55.0562 92.4349 55.4311 92.519 55.8477C92.5611 56.0976 92.5505 56.358 92.4559 56.5975C92.3613 56.66 92.2141 56.6704 92.1405 56.6704C91.8567 56.6288 91.5518 56.6704 91.2784 56.785C91.2258 56.785 91.1417 56.8058 91.0892 56.785C90.9735 56.5559 90.9209 56.2851 90.942 56.0247C90.9735 55.6915 91.1312 55.3791 91.3625 55.1499C91.4782 55.0354 91.2994 54.8583 91.1838 54.9729C90.9525 55.202 90.7948 55.4832 90.7212 55.7956C90.4478 55.6186 90.227 55.3582 90.1114 55.0562C90.0904 54.9937 90.0273 54.9521 89.9537 54.9625C89.8906 54.9729 89.838 55.0562 89.8591 55.1187H89.8906Z" fill="#ECECEC"/>
<path d="M91.5939 57.8681C91.8778 57.7015 92.2458 57.8056 92.414 58.0868C92.5822 58.368 92.477 58.7325 92.1932 58.8991C91.9093 59.0657 91.5413 58.9616 91.3731 58.6804C91.2049 58.3992 91.31 58.0347 91.5939 57.8681Z" fill="#E1E1E1"/>
<path d="M25.6634 55.1187C25.8211 55.5249 26.105 55.8685 26.473 56.0872C26.494 56.0872 26.5045 56.0977 26.515 56.1081C26.494 56.3997 26.5571 56.6913 26.6832 56.9412C26.6938 57.0454 26.6832 57.1391 26.6307 57.1808C26.5886 57.2224 26.5466 57.2537 26.5045 57.2953C26.3258 57.2953 26.126 57.2953 26.0419 57.3057C25.8947 57.2849 25.737 57.2745 25.5793 57.2849C25.5793 57.2641 25.5793 57.2328 25.5688 57.212C25.4111 56.8579 25.1693 56.5455 24.8854 56.2851C24.8328 56.233 24.7487 56.233 24.6962 56.2851C24.6436 56.3372 24.6436 56.4205 24.6962 56.4726C24.959 56.7121 25.1693 56.9933 25.327 57.3057C25.1167 57.337 24.917 57.3995 24.7172 57.4932C24.549 57.5765 24.3913 57.6806 24.2441 57.8056C24.1915 57.8473 24.202 57.941 24.2441 57.9931C24.2967 58.0451 24.3808 58.0347 24.4333 57.9931C24.8328 57.6494 25.3796 57.4932 25.9052 57.5557C26.0209 57.6077 26.126 57.6702 26.1786 57.7744C25.9999 58.1701 25.9578 58.6283 26.105 59.0553C26.105 59.2324 26.105 59.3261 25.9788 59.4927C25.8527 59.5448 25.7265 59.6073 25.6109 59.6698C25.6109 59.6698 25.5898 59.6698 25.5793 59.6698C25.1903 59.6177 24.8434 59.4198 24.591 59.1282C24.549 59.0762 24.4544 59.0866 24.4018 59.1282C24.3492 59.1803 24.3597 59.2636 24.4018 59.3157C24.6331 59.5865 24.9485 59.7843 25.2954 59.8781C25.0747 60.0343 24.8749 60.2217 24.7067 60.43C24.6646 60.4821 24.6541 60.5654 24.7067 60.6175C24.7487 60.6591 24.8539 60.6696 24.8959 60.6175C25.2219 60.2217 25.6529 59.9093 26.1365 59.7323C26.2942 59.7531 26.4519 59.7843 26.5886 59.826C26.6307 59.8677 26.6832 59.9093 26.7253 59.9405C26.862 60.128 26.9145 60.4092 26.9356 60.6487C26.9356 60.6487 26.9356 60.6696 26.9356 60.68C26.6938 61.0132 26.2942 61.2007 25.8842 61.2007C25.716 61.2007 25.716 61.461 25.8842 61.461C26.2837 61.461 26.6727 61.3048 26.9671 61.0341C27.0092 61.3777 27.1248 61.711 27.3035 62.0026C27.4087 62.1796 27.5454 62.3358 27.7031 62.4712C27.8292 62.5858 28.0185 62.3983 27.8923 62.2838C27.4402 61.8776 27.1984 61.2736 27.2194 60.6696C27.3141 60.4404 27.5138 60.3467 27.7556 60.2946C28.0921 60.3155 28.4285 60.2322 28.7439 60.0551C28.7439 60.0551 28.7439 60.0551 28.7544 60.0551C28.8596 60.0134 29.0383 59.9718 29.1645 60.1488C29.3747 60.6071 29.4063 61.1486 29.2065 61.6173C29.175 61.6797 29.1855 61.7631 29.2591 61.7943C29.3116 61.8255 29.4168 61.8151 29.4378 61.7422C29.5955 61.3569 29.6376 60.9299 29.564 60.5238C30.0791 60.5967 30.5312 60.9403 30.7625 61.409C30.7941 61.4715 30.8887 61.4923 30.9412 61.461C31.0043 61.4194 31.0254 61.3465 30.9938 61.284C30.7205 60.7216 30.1632 60.3467 29.5535 60.2634C29.5324 60.2634 29.5219 60.2634 29.5114 60.2634C29.4799 60.1801 29.4483 60.0968 29.4168 60.0239C29.2696 59.6906 29.4588 59.3469 29.4588 59.3469C29.5429 59.1907 29.606 59.0137 29.6376 58.8366C29.6796 58.7533 29.7322 58.6908 29.8268 58.6908C29.8268 58.6908 29.8373 58.6908 29.8478 58.6908C30.5312 58.8158 31.0779 59.3573 31.2251 60.0343C31.2567 60.2009 31.5195 60.128 31.4774 59.9718C31.3828 59.5344 31.141 59.1282 30.7941 58.847C30.7835 58.8366 30.7625 58.8262 30.752 58.8158C31.0779 58.5138 31.53 58.368 31.9716 58.4201C32.0452 58.4201 32.1083 58.3576 32.1083 58.2847C32.1083 58.2118 32.0452 58.1597 31.9716 58.1493C31.4459 58.0868 30.8992 58.2847 30.5312 58.6596C30.3525 58.5554 30.1738 58.4825 29.974 58.4409C29.9109 58.4201 29.7742 58.3888 29.6586 58.3159C29.627 58.0868 29.5535 57.8577 29.4273 57.639C29.2906 57.4099 29.1224 57.2224 28.9121 57.0766C28.8175 56.9725 28.7124 56.8579 28.7019 56.7225C28.7334 56.6288 28.7544 56.5455 28.7649 56.4517C29.3327 56.2643 29.7848 55.7748 29.9214 55.202C29.9635 55.0354 29.7006 54.9729 29.6691 55.1291C29.564 55.5874 29.2275 55.9831 28.786 56.1601C28.786 56.0664 28.786 55.9623 28.7649 55.8685C28.6913 55.3895 28.4285 54.9521 28.1762 54.5459C28.0921 54.4001 27.8608 54.5355 27.9449 54.6813C28.1762 55.0666 28.418 55.4624 28.4916 55.8998C28.5441 56.1601 28.5231 56.4413 28.4285 56.6809C28.3234 56.7433 28.1762 56.7538 28.1026 56.7642C27.7977 56.7225 27.4823 56.7642 27.1879 56.8787C27.1248 56.8892 27.0407 56.8996 26.9881 56.8787C26.862 56.6288 26.8094 56.358 26.8304 56.0768C26.862 55.7332 27.0302 55.3999 27.272 55.1604C27.3982 55.0458 27.2089 54.8584 27.0828 54.9729C26.8409 55.2124 26.6727 55.5145 26.5991 55.8373C26.3153 55.6498 26.0735 55.3791 25.9578 55.0562C25.9368 54.9937 25.8737 54.9417 25.8001 54.9625C25.737 54.9833 25.6739 55.0562 25.7055 55.1187H25.6634Z" fill="#ECECEC"/>
<path d="M27.4611 58.0139C27.766 57.8369 28.1445 57.941 28.3232 58.243C28.502 58.545 28.3968 58.9199 28.0919 59.097C27.787 59.274 27.4085 59.1699 27.2298 58.8679C27.0511 58.5659 27.1562 58.1909 27.4611 58.0139Z" fill="#E1E1E1"/>
<path d="M59.0232 46.329C58.897 46.454 60.0115 47.1726 60.4846 47.7766C60.9577 48.3806 62.6504 51.4841 63.5546 51.255C64.4693 51.0259 63.7859 48.6306 63.7859 48.6306C63.7859 48.6306 64.1959 46.0062 64.0277 46.027C63.8595 46.0478 59.4122 45.9437 59.0127 46.3394L59.0232 46.329Z" fill="#644DF6"/>
<g opacity="0.3">
<path d="M59.0232 46.329C58.897 46.454 60.0115 47.1726 60.4846 47.7766C60.9577 48.3806 62.6504 51.4841 63.5546 51.255C64.4693 51.0259 63.7859 48.6306 63.7859 48.6306C63.7859 48.6306 64.1959 46.0062 64.0277 46.027C63.8595 46.0478 59.4122 45.9437 59.0127 46.3394L59.0232 46.329Z" fill="black"/>
</g>
<path d="M47.3003 40.7365C47.3003 40.7365 47.3634 43.0068 50.0969 43.5067L52.494 43.7358C52.494 43.7358 52.5571 46.9955 56.4471 47.058L59.4751 46.6935C59.4751 46.6935 64.1326 46.5581 67.1184 46.8289C67.97 46.9018 69.2106 47.0268 70.4407 46.5998C71.6708 46.1728 75.8552 42.257 71.6393 37.3831C71.6393 37.3831 72.0073 35.1753 69.7468 34.6545C69.7468 34.6545 68.748 31.624 65.4258 31.6552C65.4258 31.6552 64.3323 30.3013 62.6712 30.8637C62.6712 30.8637 59.4751 29.437 57.0569 30.7283C57.0569 30.7283 54.1657 30.1035 51.9999 32.4467C51.9999 32.4467 49.6764 33.1757 49.0771 34.9149C49.0771 34.9149 46.2174 36.7478 47.0795 38.8619C47.0795 38.8619 46.5854 39.2368 46.68 39.9554C46.7746 40.6844 47.3108 40.7469 47.3108 40.7469L47.3003 40.7365Z" fill="#644DF6"/>
<path d="M64.5216 38.31C64.5216 38.31 64.3849 38.3308 64.1956 38.4974C64.101 38.5807 64.0064 38.6953 63.9433 38.8619C63.8802 39.0286 63.8487 39.2368 63.9223 39.4555V39.4764H63.9013C63.5859 39.3931 63.2074 39.3097 62.7763 39.2577C62.3452 39.2056 61.8721 39.1952 61.3675 39.2368C60.3477 39.3202 59.2017 39.643 58.1398 40.2991H58.1293C57.9085 40.2262 57.6667 40.1741 57.4144 40.1325C56.8571 40.0492 56.2999 40.0179 55.7742 40.0804C55.5114 40.1116 55.2591 40.1637 55.0173 40.2574C54.7755 40.3512 54.5442 40.4449 54.3339 40.5699C54.1236 40.6948 53.9449 40.8406 53.7662 40.9969C53.5979 41.1531 53.4297 41.2989 53.2825 41.4655C52.9987 41.7884 52.7884 42.1424 52.6517 42.4757C52.5781 42.6423 52.5255 42.809 52.494 42.9756C52.4625 43.1318 52.452 43.288 52.452 43.4338C52.452 43.7254 52.5045 43.9754 52.5466 44.1732C52.5991 44.3711 52.6412 44.5273 52.6833 44.6315C52.7043 44.6835 52.7148 44.7148 52.7253 44.746C52.7253 44.7773 52.7358 44.7877 52.7358 44.7877C52.7358 44.7877 52.6307 44.5794 52.5255 44.1837C52.473 43.9858 52.4204 43.7358 52.4204 43.4442C52.4204 43.2984 52.4204 43.1422 52.4625 42.9756C52.494 42.809 52.5466 42.6423 52.6202 42.4757C52.7568 42.132 52.9671 41.7779 53.251 41.4447C53.3877 41.2781 53.5664 41.1323 53.7346 40.976C53.9028 40.8198 54.0921 40.6636 54.3023 40.5386C54.5126 40.4137 54.7544 40.3199 54.9857 40.2262C55.2275 40.1325 55.4904 40.0804 55.7532 40.0492C56.2894 39.9971 56.8466 40.0179 57.4039 40.1012C57.6562 40.1429 57.898 40.195 58.1293 40.2679H58.1083C59.1701 39.6013 60.3371 39.2785 61.357 39.2056C61.8721 39.1639 62.3452 39.1744 62.7763 39.2264C63.2074 39.2785 63.5859 39.3618 63.9013 39.4555L63.8802 39.4764C63.8066 39.2577 63.8382 39.039 63.9013 38.8723C63.9643 38.7057 64.0695 38.5807 64.1641 38.5078C64.2587 38.4245 64.3428 38.3829 64.4059 38.362C64.469 38.3412 64.5005 38.3308 64.5005 38.3308L64.5216 38.31Z" fill="#1A2E35"/>
<path d="M68.6744 37.9975C68.6744 37.9975 68.6744 38.0079 68.6639 38.0392C68.6639 38.0704 68.6429 38.1121 68.6219 38.1642C68.5903 38.2683 68.5272 38.4245 68.4536 38.6224C68.3695 38.8203 68.2644 39.0494 68.1067 39.3097C68.0331 39.4451 67.9385 39.5805 67.8544 39.7159C67.7597 39.8513 67.6546 40.0075 67.5284 40.1533C67.0553 40.7469 66.3719 41.3718 65.4678 41.8404C65.0157 42.0695 64.511 42.257 63.9748 42.3924C63.4387 42.5173 62.8604 42.5902 62.2822 42.5798C61.9562 42.5798 61.6408 42.5382 61.3359 42.4965C61.031 42.4444 60.7367 42.3715 60.4423 42.2882H60.4633C59.9692 42.6631 59.3804 42.861 58.8232 42.9339C58.266 42.9964 57.7298 42.9339 57.2882 42.7673H57.3092C57.1095 42.9131 56.8887 43.0277 56.6784 43.1006C56.4681 43.1735 56.2474 43.2255 56.0476 43.2464C55.995 43.2464 55.953 43.2568 55.9004 43.2568C55.8478 43.2568 55.8058 43.2568 55.7532 43.2568C55.6586 43.2568 55.564 43.2568 55.4799 43.2359C55.4378 43.2359 55.3958 43.2359 55.3537 43.2255C55.3116 43.2255 55.2696 43.2151 55.2381 43.2047C55.1645 43.1943 55.0909 43.1735 55.0173 43.1526C54.7439 43.0693 54.5442 42.9652 54.418 42.8923C54.3549 42.8506 54.3129 42.8194 54.2813 42.7985C54.2498 42.7777 54.2393 42.7673 54.2393 42.7673C54.2393 42.7673 54.2603 42.7673 54.2918 42.7985C54.3234 42.8194 54.3759 42.8506 54.439 42.8923C54.5652 42.9652 54.7649 43.0693 55.0383 43.1422C55.1119 43.163 55.175 43.1839 55.2591 43.1943C55.3011 43.1943 55.3327 43.2047 55.3747 43.2151C55.4168 43.2151 55.4588 43.2151 55.5009 43.2255C55.585 43.2359 55.6796 43.2255 55.7637 43.2359C55.8058 43.2359 55.8584 43.2359 55.9004 43.2359C55.953 43.2359 55.995 43.2359 56.0476 43.2255C56.2474 43.2047 56.4576 43.163 56.6679 43.0797C56.8782 43.0068 57.0884 42.8923 57.2882 42.7465C57.7298 42.9027 58.2555 42.9756 58.8127 42.9131C59.3594 42.8506 59.9376 42.6423 60.4213 42.2778H60.4318C60.7156 42.3611 61.01 42.434 61.3149 42.4861C61.6198 42.5278 61.9352 42.5694 62.2506 42.5694C62.8289 42.5798 63.3966 42.5173 63.9328 42.3924C64.469 42.2674 64.9631 42.0799 65.4152 41.8508C66.3089 41.3822 66.9922 40.7573 67.4759 40.1741C67.602 40.0283 67.7072 39.8825 67.8018 39.7471C67.8964 39.6013 67.991 39.4659 68.0646 39.341C68.2223 39.0806 68.3275 38.8515 68.4221 38.6536C68.5062 38.4558 68.5693 38.31 68.6008 38.1954C68.6219 38.1433 68.6324 38.1017 68.6429 38.0808C68.6429 38.0496 68.6639 38.0392 68.6639 38.0392L68.6744 37.9975Z" fill="#1A2E35"/>
<path d="M54.7337 45.1105C54.7337 45.1105 54.7337 45.0793 54.7337 45.0272C54.7337 44.9751 54.7337 44.8918 54.7337 44.7877C54.7337 44.5898 54.7652 44.2982 54.8808 44.0066C54.9965 43.715 55.2173 43.5067 55.396 43.413C55.4906 43.3609 55.5642 43.3401 55.6273 43.3297C55.6799 43.3297 55.7114 43.3297 55.7114 43.3297C55.7114 43.3297 55.5853 43.3505 55.4065 43.4442C55.2383 43.538 55.028 43.7463 54.9124 44.0274C54.7967 44.3086 54.7757 44.5898 54.7547 44.7877C54.7442 44.9856 54.7337 45.1105 54.7231 45.1105H54.7337Z" fill="#1A2E35"/>
<path d="M67.8441 44.4961C67.8441 44.4961 67.8441 44.4961 67.8125 44.4961C67.7915 44.4961 67.76 44.4857 67.7284 44.4753C67.6548 44.4544 67.5497 44.4336 67.413 44.392C67.3499 44.3711 67.2763 44.3503 67.1922 44.3295C67.1081 44.3086 67.024 44.2878 66.9189 44.267C66.8243 44.2462 66.7191 44.2253 66.614 44.1941C66.5088 44.1733 66.3827 44.1524 66.267 44.1316C65.7729 44.0379 65.1946 43.965 64.5323 43.9129C63.8804 43.8608 63.155 43.8504 62.398 43.9025C61.4203 43.9545 60.5161 44.1003 59.7381 44.2774C58.9601 44.4544 58.3293 44.6627 57.8667 44.8189C57.8562 44.9439 57.8141 45.0689 57.7615 45.1626C57.709 45.2563 57.6354 45.3188 57.5828 45.3709C57.4672 45.4646 57.3936 45.4959 57.3936 45.4959C57.3936 45.4959 57.4041 45.4855 57.4461 45.4646C57.4777 45.4438 57.5197 45.4126 57.5828 45.3605C57.6354 45.3084 57.6984 45.2459 57.751 45.1522C57.8036 45.0585 57.8351 44.9439 57.8562 44.8085C58.3082 44.6419 58.9496 44.4336 59.7171 44.2461C60.4951 44.0691 61.3992 43.9233 62.377 43.8608C63.134 43.8192 63.8594 43.8192 64.5218 43.8816C65.1841 43.9337 65.7729 44.017 66.2565 44.1108C66.3827 44.1316 66.4983 44.1524 66.6035 44.1732C66.7086 44.1941 66.8137 44.2253 66.9084 44.2461C67.003 44.267 67.0976 44.2878 67.1817 44.3086C67.2658 44.3295 67.3394 44.3503 67.4025 44.3711C67.5392 44.4128 67.6338 44.4336 67.7074 44.4544C67.7389 44.4544 67.7705 44.4753 67.7915 44.4753C67.8125 44.4753 67.823 44.4753 67.823 44.4753L67.8441 44.4961Z" fill="#1A2E35"/>
<path d="M70.3041 43.1943C70.3041 43.1943 70.3041 43.1943 70.3251 43.1735C70.3461 43.163 70.3671 43.1422 70.3987 43.1214C70.4618 43.0797 70.5564 43.0172 70.672 42.9339C70.9033 42.7569 71.2398 42.4861 71.5342 42.0591C71.6813 41.8508 71.818 41.5905 71.9126 41.2989C72.0073 41.0073 72.0598 40.6844 72.0388 40.3408C72.0178 39.9971 71.9337 39.643 71.7444 39.3202C71.5552 38.9973 71.2713 38.7265 70.9139 38.5391C70.6931 38.4245 70.4618 38.362 70.2305 38.3412H70.1989L70.2094 38.31C70.3671 37.9975 70.4618 37.6539 70.4407 37.331C70.4302 36.9978 70.3041 36.6957 70.1464 36.4458C69.9887 36.1854 69.7889 35.9772 69.5576 35.8418C69.3368 35.696 69.095 35.6127 68.8742 35.571C68.6534 35.5293 68.4432 35.5189 68.2644 35.5189C68.0857 35.5189 67.928 35.5398 67.8018 35.5502C67.6757 35.5606 67.581 35.571 67.518 35.5814C67.5916 35.5814 67.6862 35.5606 67.8018 35.5502C67.928 35.5398 68.0857 35.5189 68.2644 35.5085C68.4432 35.5085 68.6534 35.5085 68.8742 35.5502C69.095 35.5918 69.3473 35.6751 69.5681 35.8209C69.7994 35.9667 70.0097 36.175 70.1674 36.4354C70.3251 36.6957 70.4618 36.9978 70.4723 37.3414C70.4933 37.6747 70.3987 38.0288 70.241 38.3516L70.22 38.3204C70.4513 38.3412 70.7036 38.4037 70.9244 38.5183C71.2818 38.7057 71.5762 38.9869 71.776 39.3097C71.9757 39.6326 72.0598 39.9971 72.0809 40.3512C72.1019 40.6949 72.0388 41.0281 71.9442 41.3197C71.8496 41.6113 71.7129 41.8717 71.5552 42.08C71.2503 42.5069 70.9139 42.7881 70.6826 42.9548C70.4407 43.1214 70.2936 43.1943 70.2936 43.1943H70.3041Z" fill="#1A2E35"/>
<path d="M61.9985 39.091C61.9985 39.091 61.9775 39.091 61.9249 39.091C61.9039 39.091 61.8723 39.091 61.8408 39.0702C61.8093 39.0598 61.7777 39.0494 61.7357 39.0286C61.6621 38.9973 61.578 38.9452 61.4833 38.8723C61.3992 38.7994 61.3151 38.7161 61.2415 38.612C61.1679 38.5078 61.1154 38.3933 61.0838 38.2995C61.0523 38.1954 61.0312 38.1017 61.0312 38.0184C61.0312 37.9767 61.0312 37.935 61.0312 37.9038C61.0312 37.8726 61.0312 37.8413 61.0312 37.8205C61.0312 37.7788 61.0418 37.7476 61.0523 37.7476C61.0523 37.7476 61.0523 37.8517 61.0523 38.0079C61.0523 38.0913 61.0838 38.185 61.1154 38.2787C61.1574 38.3724 61.1995 38.487 61.2731 38.5807C61.3467 38.6849 61.4203 38.7682 61.5044 38.8307C61.5885 38.8932 61.6621 38.9557 61.7357 38.9869C61.8828 39.0598 61.9775 39.0806 61.9775 39.091H61.9985Z" fill="#1A2E35"/>
<path d="M58.6338 38.8723C58.6338 38.8723 58.6653 38.9557 58.6863 39.091C58.6968 39.2264 58.6863 39.4243 58.6232 39.6326C58.5496 39.8409 58.434 39.9971 58.3394 40.1012C58.2448 40.2054 58.1606 40.247 58.1606 40.247C58.1606 40.247 58.2237 40.1846 58.3183 40.0804C58.413 39.9763 58.5181 39.82 58.5812 39.6222C58.6548 39.4243 58.6653 39.2368 58.6653 39.1015C58.6653 38.9661 58.6443 38.8828 58.6443 38.8828L58.6338 38.8723Z" fill="#1A2E35"/>
<path d="M55.7113 40.0492C55.7113 40.0492 55.7008 40.0492 55.6798 40.0492C55.6588 40.0492 55.6167 40.0492 55.5747 40.0492C55.48 40.0388 55.3539 39.9867 55.2382 39.8617C55.1226 39.7472 55.0069 39.5701 54.9754 39.3618C54.9333 39.1535 54.9438 38.914 54.9754 38.6641C54.9964 38.4141 55.0174 38.185 55.0069 37.9767C54.9964 37.7684 54.9649 37.581 54.9333 37.4143C54.9018 37.2581 54.8597 37.1332 54.8282 37.0498C54.7966 36.9665 54.7861 36.9145 54.7861 36.9145C54.7861 36.9145 54.7861 36.9145 54.8072 36.9457C54.8072 36.9665 54.8282 36.9978 54.8492 37.0394C54.8808 37.1227 54.9228 37.2477 54.9649 37.4039C55.0069 37.5601 55.0385 37.7476 55.049 37.9663C55.07 38.185 55.049 38.4141 55.0279 38.6641C55.0069 38.9036 54.9859 39.1431 55.0279 39.3514C55.07 39.5597 55.1646 39.7263 55.2803 39.8409C55.3959 39.9554 55.5116 40.0075 55.5957 40.0283C55.6798 40.0492 55.7324 40.0388 55.7324 40.0492H55.7113Z" fill="#1A2E35"/>
<path d="M53.5664 41.1323C53.5664 41.1323 53.6715 41.0177 53.703 40.7886C53.7451 40.5595 53.682 40.2262 53.4717 39.945C53.251 39.6638 52.9671 39.4972 52.7673 39.3826C52.6727 39.3306 52.5886 39.2785 52.5255 39.2473C52.4729 39.216 52.4414 39.1952 52.4414 39.1952C52.4414 39.1952 52.4729 39.2056 52.536 39.2368C52.5991 39.2681 52.6832 39.3097 52.7884 39.3618C52.9986 39.4764 53.293 39.643 53.5138 39.9242C53.7451 40.2158 53.7977 40.5699 53.7451 40.799C53.7241 40.9136 53.682 41.0073 53.64 41.0594C53.5979 41.1114 53.5769 41.1427 53.5769 41.1427L53.5664 41.1323Z" fill="#1A2E35"/>
<path d="M52.4942 42.8194C52.4942 42.8194 52.4732 42.8194 52.4206 42.8194C52.3681 42.8194 52.305 42.8194 52.2209 42.8194C52.1368 42.8194 52.0316 42.809 51.9055 42.7881C51.7898 42.7673 51.6426 42.7465 51.4955 42.7048C51.2011 42.6319 50.8541 42.4965 50.5072 42.2882C50.1602 42.08 49.8028 41.7988 49.5084 41.4343C49.214 41.0698 49.0037 40.6636 48.8881 40.2783C48.825 40.0804 48.7935 39.8929 48.7935 39.7159C48.7935 39.6222 48.7935 39.5389 48.8145 39.4555C48.8355 39.3722 48.8565 39.2993 48.8776 39.2264C48.9827 38.9348 49.1194 38.7265 49.235 38.5912C49.2876 38.5287 49.3402 38.4766 49.3717 38.4558C49.4138 38.4349 49.4348 38.4141 49.4348 38.4245C49.4348 38.4245 49.4138 38.4454 49.3822 38.4662C49.3507 38.4974 49.2981 38.5391 49.2455 38.612C49.1404 38.7474 49.0142 38.9557 48.9091 39.2368C48.8881 39.3097 48.8565 39.3826 48.846 39.466C48.8355 39.5493 48.825 39.6326 48.825 39.7159C48.825 39.8929 48.8565 40.0804 48.9196 40.2679C49.0458 40.6428 49.2455 41.0489 49.5399 41.403C49.8343 41.7571 50.1813 42.0487 50.5282 42.257C50.8751 42.4653 51.2116 42.6007 51.506 42.684C51.6532 42.7256 51.7898 42.7465 51.9055 42.7673C52.0211 42.7881 52.1263 42.7985 52.2104 42.7985C52.2945 42.7985 52.3576 42.7985 52.4101 42.7985C52.4522 42.7985 52.4837 42.7985 52.4837 42.7985L52.4942 42.8194Z" fill="#1A2E35"/>
<path d="M50.2231 36.3625C50.2231 36.3625 50.2021 36.3625 50.1706 36.3625C50.1285 36.3625 50.0865 36.3625 50.0339 36.3417C49.9182 36.3312 49.7395 36.3104 49.5187 36.3104C49.3085 36.3104 49.0456 36.3417 48.7828 36.4354C48.5199 36.5291 48.2466 36.7062 48.0784 36.9873C47.9101 37.2581 47.8786 37.6018 47.9837 37.8517C48.0889 38.1121 48.3097 38.2683 48.4989 38.362C48.6987 38.4453 48.8669 38.487 48.9825 38.4974C49.0982 38.5182 49.1718 38.5182 49.1718 38.5182C49.1718 38.5182 49.1507 38.5182 49.1192 38.5182C49.0877 38.5182 49.0351 38.5182 48.9825 38.5182C48.8669 38.5078 48.6882 38.4766 48.4884 38.3933C48.3833 38.3516 48.2781 38.2891 48.1835 38.2058C48.0889 38.1225 47.9943 38.0079 47.9417 37.8726C47.826 37.6018 47.8576 37.2477 48.0363 36.9665C48.215 36.6749 48.4989 36.4979 48.7723 36.3937C49.0456 36.2896 49.3085 36.2688 49.5292 36.2792C49.75 36.2792 49.9182 36.3 50.0444 36.3208C50.1075 36.3208 50.1495 36.3417 50.1811 36.3417C50.2126 36.3417 50.2336 36.3521 50.2231 36.3521V36.3625Z" fill="#1A2E35"/>
<path d="M57.9295 32.9987C57.9295 32.9987 57.9295 32.9987 57.9085 32.9883C57.8874 32.9778 57.8769 32.957 57.8454 32.9362C57.7928 32.8945 57.7087 32.832 57.6036 32.7591C57.3933 32.6029 57.0674 32.3946 56.6153 32.2801C56.384 32.2176 56.1317 32.1863 55.8583 32.1863C55.585 32.1863 55.2906 32.2072 54.9962 32.2905C54.7018 32.3738 54.3969 32.5092 54.1236 32.6967C53.8502 32.8841 53.5979 33.1341 53.3981 33.4257C53.3561 33.4881 53.314 33.5506 53.272 33.6131L53.2615 33.6235C52.5781 33.6027 51.9367 33.8631 51.4741 34.2171C51.2428 34.3942 51.0536 34.6129 50.9064 34.8212C50.7592 35.0399 50.6541 35.2586 50.591 35.4669C50.4438 35.8834 50.4333 36.2479 50.4438 36.4979C50.4438 36.5604 50.4438 36.6124 50.4543 36.6645C50.4543 36.7166 50.4543 36.7478 50.4648 36.7791C50.4648 36.8103 50.4648 36.8311 50.4648 36.852C50.4648 36.8728 50.4648 36.8728 50.4648 36.8728C50.4648 36.8728 50.4228 36.7374 50.4123 36.4979C50.3912 36.2479 50.4123 35.8834 50.549 35.4564C50.6225 35.2482 50.7277 35.019 50.8644 34.8003C51.0115 34.5816 51.2008 34.3629 51.4426 34.1859C51.9052 33.811 52.557 33.561 53.2615 33.5715H53.2404C53.2404 33.5715 53.3245 33.4569 53.3666 33.384C53.5664 33.0924 53.8187 32.832 54.1025 32.6446C54.3864 32.4571 54.6913 32.3217 54.9962 32.2384C55.3011 32.1551 55.5955 32.1343 55.8793 32.1343C56.1527 32.1343 56.4155 32.1759 56.6468 32.2384C57.1094 32.3634 57.4354 32.5717 57.6456 32.7279C57.7508 32.8112 57.8244 32.8737 57.8769 32.9154C57.898 32.9362 57.919 32.957 57.94 32.9674C57.9505 32.9778 57.961 32.9883 57.961 32.9883L57.9295 32.9987Z" fill="#1A2E35"/>
<path d="M52.1575 34.9045C52.1575 34.9045 52.168 34.9045 52.1995 34.9045C52.2311 34.9045 52.2626 34.9045 52.3152 34.9253C52.4098 34.9461 52.557 34.9982 52.7147 35.0919C52.8724 35.1857 53.0406 35.3419 53.1563 35.5502C53.2824 35.7585 53.3455 36.0292 53.335 36.3104C53.314 36.5916 53.2193 36.852 53.0616 37.0394C52.9145 37.2373 52.7252 37.3623 52.5675 37.4352C52.3993 37.5081 52.2521 37.5393 52.147 37.5497C52.0944 37.5497 52.0523 37.5497 52.0313 37.5497C51.9998 37.5497 51.9893 37.5497 51.9893 37.5497C51.9893 37.5497 52.0418 37.5497 52.147 37.5289C52.2416 37.5081 52.3888 37.4768 52.5465 37.3935C52.7042 37.3102 52.8829 37.1852 53.0301 36.9978C53.1773 36.8103 53.2719 36.5604 53.2824 36.2896C53.3035 36.0188 53.2299 35.7585 53.1142 35.5606C52.9986 35.3523 52.8409 35.2065 52.6832 35.1128C52.536 35.019 52.3993 34.9566 52.2942 34.9357C52.1995 34.9045 52.1364 34.9045 52.147 34.8941L52.1575 34.9045Z" fill="#1A2E35"/>
<path d="M55.1331 34.1026C55.1331 34.1026 55.1542 34.1442 55.1752 34.2171C55.1962 34.29 55.2172 34.3942 55.2172 34.5296C55.2277 34.8003 55.1647 35.1857 54.9018 35.5189C54.6495 35.8522 54.292 36.0292 54.0292 36.0813C53.8925 36.1125 53.7874 36.123 53.7138 36.123C53.6402 36.123 53.5981 36.123 53.5981 36.123C53.5981 36.1125 53.7664 36.1229 54.0292 36.0605C54.2815 35.998 54.6285 35.8209 54.8703 35.4981C55.1121 35.1752 55.1857 34.8003 55.1857 34.54C55.1857 34.2796 55.1226 34.113 55.1331 34.113V34.1026Z" fill="#1A2E35"/>
<path d="M57.1934 38.2058C57.1934 38.2058 57.1934 38.1537 57.1934 38.06C57.1934 37.9663 57.2039 37.8309 57.1934 37.6643C57.1724 37.331 57.0462 36.8624 56.7413 36.4458C56.4364 36.0292 56.0264 35.7689 55.7215 35.6439C55.5638 35.5814 55.4376 35.5398 55.343 35.5189C55.2484 35.4981 55.1958 35.4877 55.1958 35.4773C55.1958 35.4773 55.2063 35.4773 55.2379 35.4773C55.2589 35.4773 55.3009 35.4773 55.343 35.4981C55.4376 35.5189 55.5743 35.5502 55.732 35.6127C56.0474 35.7376 56.4679 35.998 56.7834 36.4146C57.0988 36.8415 57.2144 37.3206 57.2249 37.6539C57.2249 37.8205 57.2249 37.9663 57.2144 38.06C57.2144 38.1121 57.2039 38.1433 57.1934 38.1642C57.1934 38.185 57.1934 38.2058 57.1934 38.2058Z" fill="#1A2E35"/>
<path d="M56.2158 33.3111C56.2158 33.3111 56.2579 33.3319 56.3209 33.3736C56.384 33.4152 56.4786 33.4881 56.5733 33.5923C56.6679 33.6964 56.773 33.8318 56.8466 33.9984C56.9202 34.1651 56.9728 34.3734 56.9833 34.5921C56.9833 34.8108 56.9307 35.0086 56.8571 35.1857C56.7835 35.3523 56.6889 35.4981 56.5838 35.6022C56.4892 35.7064 56.3945 35.7793 56.3315 35.821C56.2684 35.8626 56.2263 35.8834 56.2263 35.8834C56.2263 35.8834 56.3735 35.7897 56.5628 35.5814C56.7415 35.3731 56.9307 35.019 56.9307 34.6025C56.9307 34.1859 56.731 33.8318 56.5522 33.6235C56.3735 33.4152 56.2053 33.3319 56.2158 33.3319V33.3111Z" fill="#1A2E35"/>
<path d="M57.5088 33.384C57.5088 33.384 57.4668 33.6339 57.3091 33.8943C57.1514 34.1651 56.9621 34.3213 56.9516 34.3109C56.9411 34.3109 57.1198 34.1234 57.267 33.863C57.4247 33.6027 57.4983 33.3736 57.5088 33.3736V33.384Z" fill="#1A2E35"/>
<path d="M59.2753 30.2076C59.2753 30.2076 59.2964 30.2076 59.3489 30.2389C59.37 30.2493 59.4015 30.2701 59.433 30.2805C59.4646 30.3013 59.5066 30.3222 59.5487 30.3534C59.7169 30.4576 59.9482 30.645 60.169 30.9366C60.3793 31.2282 60.579 31.624 60.6316 32.103C60.6842 32.5821 60.558 33.1236 60.2531 33.5819C59.9377 34.0609 59.4856 34.3942 59.0125 34.5504V34.5192C59.2333 35.1961 59.2333 35.8105 59.1807 36.2271C59.1492 36.4354 59.1176 36.602 59.0861 36.7062C59.0756 36.7582 59.0546 36.7999 59.0546 36.8311C59.0546 36.8624 59.044 36.8728 59.044 36.8728C59.044 36.8728 59.044 36.8624 59.044 36.8311C59.044 36.7999 59.0651 36.7582 59.0756 36.7062C59.0966 36.5916 59.1281 36.4354 59.1492 36.2271C59.1912 35.8105 59.1912 35.2065 58.981 34.54V34.5192H58.9915C59.4436 34.3629 59.8956 34.0297 60.2005 33.561C60.4949 33.1028 60.6211 32.5821 60.5685 32.1134C60.5265 31.6448 60.3372 31.2491 60.1269 30.9575C59.9167 30.6658 59.6854 30.4784 59.5277 30.3638C59.4856 30.3326 59.4436 30.3118 59.412 30.2909C59.3805 30.2701 59.3489 30.2597 59.3279 30.2389C59.2858 30.218 59.2543 30.1972 59.2543 30.1972L59.2753 30.2076Z" fill="#1A2E35"/>
<path d="M57.709 30.5096C57.709 30.5096 57.7405 30.5305 57.7931 30.5721C57.8456 30.6138 57.9087 30.6867 57.9823 30.7804C58.0454 30.8846 58.1085 31.0095 58.1505 31.1657C58.1821 31.322 58.1926 31.499 58.1505 31.676C58.1085 31.8531 58.0244 32.0093 57.9192 32.1343C57.8141 32.2593 57.6984 32.3426 57.6038 32.4051C57.4987 32.4675 57.4041 32.4988 57.341 32.5092C57.2779 32.53 57.2358 32.53 57.2358 32.53C57.2358 32.53 57.383 32.4988 57.5828 32.3738C57.7825 32.2593 58.0244 32.0093 58.1085 31.6656C58.1926 31.322 58.0874 30.9887 57.9613 30.8012C57.8351 30.6034 57.709 30.5201 57.7195 30.5096H57.709Z" fill="#1A2E35"/>
<path d="M65.3101 31.5094C65.2575 31.5094 65.1944 31.5094 65.0998 31.5302C64.9211 31.5511 64.6477 31.5927 64.3323 31.6969C64.1746 31.7489 64.0064 31.8218 63.8382 31.9156C63.67 32.0093 63.5018 32.1238 63.323 32.2592C62.9761 32.53 62.6291 32.8633 62.3768 33.2903C62.1245 33.7277 61.9037 34.1546 61.725 34.54C61.5462 34.9357 61.4096 35.3002 61.3254 35.6231C61.2413 35.9355 61.1888 36.2063 61.1783 36.3833C61.1677 36.477 61.1677 36.5499 61.1572 36.5916C61.1572 36.5395 61.1572 36.4666 61.1677 36.3833C61.1783 36.1958 61.2203 35.9355 61.3044 35.6126C61.3885 35.2898 61.5147 34.9253 61.6934 34.5191C61.8721 34.1234 62.0929 33.6964 62.3453 33.259C62.5976 32.8216 62.9656 32.4779 63.3125 32.2176C63.4912 32.0822 63.6595 31.9676 63.8277 31.8739C63.9959 31.7802 64.1746 31.7177 64.3323 31.6656C64.6477 31.5615 64.9211 31.5302 65.0998 31.5094C65.1944 31.5094 65.268 31.5094 65.3101 31.5094Z" fill="#1A2E35"/>
<path d="M62.4715 30.7804C62.4715 30.7804 62.3453 30.7804 62.1456 30.8221C62.0404 30.8429 61.9248 30.8741 61.7986 30.9158C61.6725 30.9574 61.5358 31.0199 61.3991 31.1032C61.2624 31.1866 61.1468 31.2699 61.0522 31.3636C60.9575 31.4573 60.8734 31.5406 60.8103 31.624C60.6842 31.7802 60.6211 31.8947 60.6211 31.8947C60.6211 31.8947 60.6211 31.8635 60.6526 31.8114C60.6631 31.7906 60.6842 31.7593 60.7052 31.7177C60.7262 31.6864 60.7473 31.6448 60.7788 31.6031C60.8419 31.5198 60.9155 31.4261 61.0206 31.3324C61.1257 31.2386 61.2414 31.1449 61.3781 31.0616C61.5147 30.9783 61.6514 30.9158 61.7881 30.8741C61.9143 30.8325 62.0404 30.8012 62.1456 30.7908C62.1981 30.7908 62.2402 30.7804 62.2822 30.7804C62.3243 30.7804 62.3558 30.7804 62.3874 30.7804C62.4505 30.7804 62.482 30.7804 62.482 30.7804H62.4715Z" fill="#1A2E35"/>
<path d="M63.2388 36.9145C63.2388 36.9145 63.2809 36.9145 63.344 36.8832C63.4071 36.8624 63.4912 36.8103 63.5753 36.727C63.6594 36.6437 63.7225 36.5187 63.775 36.3625C63.8276 36.2167 63.8696 36.0397 63.9012 35.8626C63.9748 35.4981 64.0063 35.1648 64.0063 34.9253C64.0063 34.8003 64.0063 34.7066 64.0063 34.6337C64.0063 34.5608 64.0063 34.5296 64.0063 34.5296C64.0063 34.5296 64.0063 34.5712 64.0168 34.6337C64.0168 34.7066 64.0168 34.8003 64.0168 34.9253C64.0168 35.1648 63.9958 35.5085 63.9222 35.873C63.8802 36.0605 63.8381 36.2271 63.7855 36.3833C63.733 36.5395 63.6594 36.6645 63.5648 36.7582C63.4806 36.8416 63.386 36.8936 63.3124 36.904C63.2809 36.904 63.2493 36.9145 63.2283 36.9145C63.2073 36.9145 63.1968 36.9145 63.1968 36.9145H63.2388Z" fill="#1A2E35"/>
<path d="M66.0354 38.2891C66.0354 38.2891 66.13 38.1017 66.13 37.7684C66.13 37.6018 66.088 37.4039 66.0039 37.2061C65.9198 37.0082 65.7831 36.7999 65.5939 36.6333C65.4046 36.4666 65.1838 36.3521 64.9841 36.2688C64.7738 36.1959 64.5845 36.1542 64.4163 36.1334C64.2481 36.1125 64.1114 36.1125 64.0168 36.1125C63.9222 36.1125 63.8696 36.1125 63.8696 36.1125C63.8696 36.1125 63.8801 36.1125 63.9117 36.1125C63.9327 36.1125 63.9748 36.1125 64.0168 36.1125C64.1114 36.1125 64.2481 36.1125 64.4163 36.1125C64.5845 36.1334 64.7843 36.1646 64.9946 36.2375C65.2049 36.3104 65.4256 36.4354 65.6254 36.602C65.8146 36.7791 65.9618 36.9874 66.0459 37.1956C66.1301 37.4039 66.1616 37.6018 66.1616 37.7684C66.1616 37.9351 66.1301 38.0704 66.0985 38.1642C66.088 38.2058 66.067 38.2371 66.0565 38.2683C66.0459 38.2891 66.0354 38.2996 66.0354 38.2996V38.2891Z" fill="#1A2E35"/>
<path d="M63.9011 33.4257C63.9011 33.4257 63.9222 33.4257 63.9537 33.4048C63.9958 33.3944 64.0483 33.384 64.1219 33.3632C64.2691 33.3319 64.4794 33.3007 64.7527 33.3111C65.0156 33.3111 65.3415 33.3736 65.6674 33.509C65.9933 33.6444 66.3193 33.8943 66.5506 34.238C66.7819 34.5712 66.8975 34.967 66.866 35.3211C66.8449 35.6751 66.6978 35.9772 66.5401 36.1855C66.3718 36.3937 66.1931 36.5291 66.0564 36.5916C65.9933 36.6229 65.9408 36.6437 65.8987 36.6541C65.8567 36.6645 65.8462 36.6749 65.8462 36.6749C65.8462 36.6749 65.8672 36.6749 65.8987 36.6541C65.9303 36.6437 65.9828 36.6124 66.0564 36.5812C66.1826 36.5083 66.3613 36.3833 66.519 36.1646C66.6767 35.9563 66.8134 35.6647 66.8344 35.3106C66.8555 34.967 66.7503 34.5816 66.519 34.2588C66.2877 33.9255 65.9828 33.686 65.6569 33.5506C65.3415 33.4048 65.0156 33.3528 64.7527 33.3423C64.4899 33.3423 64.2691 33.3528 64.1219 33.384C63.9747 33.4048 63.8906 33.4257 63.8906 33.4257H63.9011Z" fill="#1A2E35"/>
<path d="M66.6664 34.3421C66.6664 34.3421 66.6979 34.1963 66.6979 33.9672C66.6979 33.9047 66.6979 33.8422 66.6979 33.7797C66.6979 33.7173 66.6874 33.6444 66.6769 33.5715C66.6454 33.4257 66.6033 33.259 66.5402 33.1028C66.4666 32.9466 66.3825 32.8008 66.2984 32.6758C66.2564 32.6133 66.2143 32.5613 66.1618 32.5092C66.1197 32.4571 66.0776 32.4155 66.0356 32.3738C65.8674 32.2176 65.7412 32.1447 65.7412 32.1343C65.7412 32.1343 65.7728 32.1447 65.8358 32.1863C65.8674 32.2072 65.8989 32.228 65.9305 32.2488C65.9725 32.2801 66.0146 32.3113 66.0566 32.3426C66.0987 32.3842 66.1512 32.4259 66.1933 32.478C66.2459 32.53 66.2879 32.5821 66.33 32.6446C66.4246 32.7696 66.5087 32.9154 66.5823 33.082C66.6454 33.2486 66.6979 33.4152 66.719 33.561C66.719 33.6339 66.74 33.7068 66.74 33.7797C66.74 33.8526 66.74 33.9151 66.74 33.9672C66.74 34.0297 66.7295 34.0818 66.719 34.1234C66.719 34.1651 66.7085 34.2067 66.6979 34.238C66.6769 34.3005 66.6664 34.3317 66.6664 34.3317V34.3421Z" fill="#1A2E35"/>
<path d="M69.6735 34.4879C69.6735 34.4879 69.5263 34.4671 69.3055 34.4671C69.1899 34.4671 69.0532 34.4775 68.906 34.5087C68.7588 34.54 68.6011 34.5816 68.4329 34.6441C68.2752 34.7066 68.128 34.7899 68.0018 34.8732C67.8756 34.9565 67.7705 35.0399 67.6864 35.1232C67.5182 35.2794 67.4446 35.3939 67.4341 35.3939C67.4341 35.3939 67.4551 35.3627 67.4866 35.3106C67.5077 35.2794 67.5287 35.2481 67.5602 35.2169C67.5918 35.1857 67.6233 35.144 67.6654 35.1023C67.7495 35.019 67.8546 34.9253 67.9808 34.842C68.107 34.7587 68.2541 34.6754 68.4224 34.6025C68.5906 34.54 68.7483 34.4983 68.906 34.4671C69.0532 34.4462 69.2004 34.4358 69.316 34.4358C69.3791 34.4358 69.4317 34.4358 69.4737 34.4358C69.5158 34.4358 69.5578 34.4358 69.5894 34.4567C69.6524 34.4671 69.684 34.4775 69.684 34.4775L69.6735 34.4879Z" fill="#1A2E35"/>
<path d="M71.4397 42.2153C71.4397 42.2153 71.4397 42.2257 71.4607 42.257C71.4712 42.2882 71.4817 42.3299 71.5027 42.3924C71.5343 42.5069 71.5553 42.684 71.5343 42.8923C71.5132 43.1006 71.4607 43.3505 71.3345 43.6109C71.2189 43.8712 71.0401 44.1316 70.8193 44.3711C70.5986 44.6106 70.3462 44.7981 70.0834 44.9126C69.8206 45.0376 69.5682 45.0793 69.358 45.1001C69.1477 45.1209 68.969 45.1105 68.8533 45.1001C68.7902 45.1001 68.7482 45.1001 68.7166 45.1001C68.6851 45.1001 68.6641 45.1001 68.6641 45.1001C68.6641 45.1001 68.6746 45.1001 68.7061 45.0897C68.7377 45.0897 68.7797 45.0897 68.8428 45.0897C68.9584 45.0897 69.1372 45.0897 69.3474 45.0689C69.5577 45.048 69.81 44.996 70.0624 44.871C70.3147 44.7564 70.567 44.569 70.7773 44.3294C70.9981 44.0899 71.1663 43.84 71.2819 43.59C71.3976 43.3401 71.4607 43.0901 71.4817 42.8923C71.5027 42.684 71.4817 42.5173 71.4607 42.4028C71.4607 42.3403 71.4397 42.2986 71.4291 42.2674C71.4291 42.2362 71.4186 42.2257 71.4186 42.2257L71.4397 42.2153Z" fill="#1A2E35"/>
<g opacity="0.3">
<path d="M64.2904 38.3725C63.9014 38.5078 63.544 38.7265 63.2496 38.9973C61.7672 38.487 60.064 38.612 58.6762 39.3306C58.4344 39.4555 58.1926 39.6013 57.9192 39.6742C57.5828 39.7576 57.2358 39.7263 56.8889 39.7055C56.1109 39.6638 55.3223 39.7055 54.5759 39.945C53.8399 40.1845 53.146 40.6219 52.7045 41.2572C52.2629 41.8925 52.0947 42.7361 52.3575 43.4546L52.4416 43.5796C52.3785 42.7881 52.715 42.0071 53.3037 41.3718C53.8925 40.7261 54.702 40.1637 55.5642 40.0492C56.4263 39.9346 57.2568 40.1012 58.119 40.2574C59.8852 39.2993 61.9249 38.9765 63.8804 39.4555C63.7122 39.0598 63.8909 38.5495 64.2799 38.3516L64.2904 38.3725Z" fill="black"/>
</g>
<g opacity="0.3">
<path d="M60.4527 42.2674C59.538 42.8714 58.371 43.0589 57.3196 42.736C55.7952 43.5171 55.3431 43.2151 54.6387 42.986C54.9856 43.413 55.6375 43.6421 56.1842 43.6629C56.7309 43.6942 57.2986 43.4755 57.6876 43.0797C58.4446 43.3505 59.2857 43.2672 60.0952 43.163C60.7681 43.0797 61.441 43.0068 62.1033 42.9235C62.8498 42.8402 63.5963 42.7465 64.3007 42.5278C65.0156 42.3091 65.699 41.9341 66.1826 41.3718C64.5004 42.4965 62.4187 42.7881 60.4527 42.2466V42.2674Z" fill="black"/>
</g>
<g opacity="0.3">
<path d="M52.0732 37.5601C52.3992 37.6643 52.8618 37.5706 53.1561 37.4143C53.4505 37.2581 53.6818 36.9665 53.7659 36.6437C53.787 36.5604 53.808 36.4562 53.8816 36.4041C53.9552 36.3417 54.0603 36.3521 54.1549 36.3521C54.4703 36.3521 54.7752 36.1959 54.975 35.9459C55.1748 35.696 55.2483 35.3731 55.1748 35.0607C54.9014 35.7689 54.0393 36.2063 53.3033 35.998C53.2823 36.6333 53.0931 37.3727 52.0732 37.5601Z" fill="black"/>
</g>
<g opacity="0.3">
<path d="M58.0768 32.7279C57.4881 31.926 56.4998 31.5198 55.501 31.6552C54.5127 31.7906 53.5875 32.3738 53.0513 33.2069C52.5467 33.2173 52.042 33.3007 51.5794 33.4985C51.1168 33.6964 50.7068 34.0297 50.465 34.4775C50.0655 35.2169 50.0234 36.1125 50.4545 36.8728C50.3073 35.9563 50.4965 35.1961 50.9907 34.6129C51.4848 34.0297 52.5362 33.5402 53.3142 33.5818C53.5875 32.9466 54.1027 32.5196 54.7756 32.3217C55.4484 32.1343 56.2159 32.1134 56.8783 32.3217C57.5511 32.53 58.4974 33.5298 58.4974 33.6756C58.5394 33.3423 58.3817 33.134 58.0663 32.707L58.0768 32.7279Z" fill="black"/>
</g>
<g opacity="0.3">
<path d="M65.0471 31.5094C63.817 31.3324 62.5659 31.9989 61.8509 32.9987C61.136 33.9984 61.0519 35.1544 61.1465 36.3833C61.1465 36.3833 61.5986 34.3109 62.3451 33.3319C63.2492 32.1447 64.7527 31.3324 65.0471 31.5094Z" fill="black"/>
</g>
<g opacity="0.3">
<path d="M64.0378 34.842C64.1745 35.144 64.2166 35.4877 64.1745 35.8105C64.8053 35.8105 65.3941 36.2167 65.7305 36.7478C65.4992 36.5083 65.1628 36.3104 64.8264 36.2063C64.4899 36.1021 64.1745 36.0501 63.8696 36.1542C63.9432 35.6856 64.0694 35.2377 64.0273 34.8108" fill="black"/>
</g>
<g opacity="0.3">
<path d="M72.4806 40.0492C72.3334 39.5909 71.997 39.1848 71.5764 38.9557C72.2598 39.945 72.1547 41.2572 71.4398 42.2153C71.65 42.9548 71.4923 43.8816 70.2412 44.7981C70.9877 44.6731 71.7972 43.8712 71.9024 43.1214C71.9444 42.809 71.9024 42.4861 71.9865 42.1945C72.0706 41.9342 72.2493 41.705 72.365 41.4655C72.5857 41.0281 72.6173 40.5178 72.4701 40.0596L72.4806 40.0492Z" fill="black"/>
</g>
<g opacity="0.3">
<path d="M47.8784 37.5287C47.8784 37.5287 47.8784 37.5493 47.8784 37.5596C47.8784 37.539 47.8784 37.5184 47.8887 37.5081L47.8682 37.5287H47.8784Z" fill="black"/>
</g>
<g opacity="0.3">
<path d="M49.1611 40.7469C49.0244 40.5491 48.8983 40.3512 48.8457 40.1221C48.7195 39.5805 48.9929 39.039 49.2557 38.5495C48.6144 38.612 48.0677 38.2996 47.8889 37.5706C47.7838 38.0704 47.9205 38.6536 48.3305 38.9452C48.1518 39.6951 48.299 40.5178 48.7405 41.1635C49.1716 41.7988 49.8865 42.2466 50.6645 42.3612C50.0863 41.9029 49.5816 41.3614 49.1716 40.7573L49.1611 40.7469Z" fill="black"/>
</g>
<path d="M62.713 46.4644C62.6394 46.5998 61.7037 47.3808 62.0086 48.339C62.4081 49.5887 64.3111 49.6303 65.8146 49.3387C68.0224 48.9118 69.0633 47.9849 69.0633 46.7352C69.0633 45.725 62.713 46.4644 62.713 46.4644Z" fill="#644DF6"/>
<path d="M69.0633 46.7352C69.0633 46.7352 69.0422 46.7352 68.9897 46.7352C68.9371 46.7352 68.8635 46.7143 68.7794 46.6935C68.6848 46.6727 68.5796 46.6518 68.443 46.6414C68.3168 46.6206 68.1696 46.5998 68.0014 46.5789C67.6755 46.5373 67.2865 46.4956 66.8449 46.4748C66.4033 46.4436 65.9302 46.4331 65.4256 46.4331C64.4163 46.4331 63.5016 46.4852 62.8392 46.5165C62.5133 46.5373 62.2505 46.5477 62.0612 46.5581C61.9771 46.5581 61.9035 46.5581 61.8509 46.5685C61.9035 46.5685 61.9771 46.5581 62.0612 46.5477C62.2505 46.5269 62.5133 46.506 62.8392 46.4852C63.5016 46.4435 64.4163 46.3915 65.4256 46.3915C65.9302 46.3915 66.4138 46.4123 66.8449 46.4331C67.2865 46.4644 67.6755 46.506 68.0014 46.5477C68.1696 46.5685 68.3168 46.5894 68.443 46.6206C68.5691 46.6414 68.6848 46.6623 68.7794 46.6831C68.8635 46.7039 68.9371 46.7143 68.9897 46.7247C69.0422 46.7352 69.0633 46.7456 69.0633 46.7456V46.7352Z" fill="#1A2E35"/>
<g opacity="0.3">
<path d="M69.0631 46.756C66.8342 46.2144 64.4897 46.4332 62.1978 46.5373C64.6264 46.756 66.9394 46.7664 69.0631 46.756Z" fill="black"/>
</g>
<g opacity="0.3">
<path d="M59.3172 44.3711C58.9282 44.4857 58.2237 44.6939 57.8768 44.8293C57.8242 45.1209 57.7086 45.3605 57.4562 45.4958C57.1619 45.6312 56.8254 45.6833 56.4995 45.6416C56.8885 45.7145 57.2775 45.777 57.6665 45.6937C58.045 45.6 58.413 45.3188 58.4656 44.9335C60.6419 44.2045 62.9654 43.9025 65.2678 44.0483C63.3123 43.6525 61.2411 43.8296 59.3277 44.3815L59.3172 44.3711Z" fill="black"/>
</g>
<g opacity="0.3">
<path d="M66.4875 36.2167C66.4875 36.2167 66.498 36.2167 66.5085 36.2167C67.0132 35.9355 67.2655 35.2794 67.0763 34.7378C67.0447 34.6441 67.0027 34.5608 66.9921 34.4671C66.9921 34.3733 67.0237 34.2692 67.0552 34.1755C67.2024 33.6235 66.8975 32.9882 66.3613 32.7591C66.4875 32.9049 66.8975 33.4881 66.6347 34.4567C66.6347 34.4567 66.9501 35.019 66.8239 35.5085" fill="black"/>
</g>
<g opacity="0.3">
<path d="M57.2041 38.1433C57.4775 37.883 57.488 37.3518 57.3829 36.9873C57.2777 36.6228 57.0359 36.3208 56.7836 36.0396C57.0464 35.8418 57.2252 35.5293 57.2567 35.2065C57.2882 34.8836 57.1726 34.54 56.9518 34.3004C56.9097 34.6129 56.9098 34.9982 56.7731 35.2794C56.6364 35.5606 56.4787 35.7272 56.1948 35.873C56.9097 36.2271 57.2462 37.2373 57.2252 37.8934L57.2041 38.1433Z" fill="black"/>
</g>
<path d="M69.3049 42.7048C69.3049 42.7048 69.3785 42.5174 69.3154 42.2049C69.2839 42.0487 69.2313 41.8717 69.1157 41.705C69.0105 41.528 68.8423 41.3718 68.6426 41.2364C68.4428 41.101 68.2325 41.0073 68.0433 40.9448C67.8435 40.8823 67.6648 40.8302 67.5071 40.799C67.3494 40.7677 67.2232 40.7469 67.1391 40.7365C67.055 40.7261 67.0024 40.7157 67.0024 40.7053C67.0024 40.7053 67.055 40.7053 67.1391 40.7053C67.2232 40.7053 67.3599 40.7261 67.5071 40.7573C67.6648 40.7782 67.854 40.8302 68.0433 40.8927C68.243 40.9552 68.4533 41.0489 68.6636 41.1843C68.8633 41.3197 69.0316 41.4863 69.1472 41.6738C69.2629 41.8508 69.3154 42.0383 69.3365 42.1945C69.3575 42.3507 69.3365 42.4861 69.3365 42.5694C69.3365 42.6111 69.3154 42.6423 69.3049 42.6632C69.3049 42.684 69.2944 42.6944 69.2944 42.6944L69.3049 42.7048Z" fill="#1A2E35"/>
<g opacity="0.3">
<path d="M68.1484 40.3095C68.3377 39.8305 68.4218 39.3097 68.3797 38.789C68.0643 39.5076 67.5597 40.1741 67.0024 40.7261C67.7489 40.7678 68.5059 41.0385 69.0316 41.5592C69.0211 41.0177 68.6531 40.5074 68.1484 40.3095Z" fill="black"/>
</g>
</g>
<defs>
<clipPath id="clip0_614_1127">
<rect width="29" height="29" fill="white" transform="translate(12 4)"/>
</clipPath>
<clipPath id="clip1_614_1127">
<rect width="87" height="93" fill="white" transform="translate(17 27)"/>
</clipPath>
</defs>
</svg>
