<svg width="115" height="114" viewBox="0 0 115 114" fill="none" xmlns="http://www.w3.org/2000/svg">
<g clip-path="url(#clip0_616_233)">
<path d="M114.13 113.65H0V113.85H114.13V113.65Z" fill="#1B1A2E"/>
<path d="M106.59 68.51H39.9497C38.7197 68.51 37.7197 69.51 37.7197 70.74V110.3H108.82V70.74C108.82 69.51 107.82 68.51 106.59 68.51Z" fill="#04003D"/>
<path d="M107.23 70.44H39.2998V108.36H107.23V70.44Z" fill="white"/>
<path d="M34.0699 110.3H112.47C113.1 110.3 113.61 110.81 113.61 111.44V111.67C113.61 112.72 112.75 113.58 111.7 113.58H34.8299C33.7799 113.58 32.9199 112.72 32.9199 111.67V111.44C32.9199 110.81 33.4299 110.3 34.0599 110.3H34.0699Z" fill="#04003D"/>
<path d="M63.73 111.12H82.8C83.08 111.12 83.31 110.89 83.31 110.61C83.31 110.44 83.17 110.3 83 110.3H63.52C63.35 110.3 63.21 110.44 63.21 110.61C63.21 110.89 63.44 111.12 63.72 111.12H63.73Z" fill="#94FCFF"/>
<path d="M37.7197 110.3L55.4897 110.28L73.2697 110.27L91.0397 110.28L108.82 110.3L91.0397 110.32L73.2697 110.33L55.4897 110.32L37.7197 110.3Z" fill="#1B1A2E"/>
<path d="M73.27 69.78C73.4412 69.78 73.58 69.6412 73.58 69.47C73.58 69.2988 73.4412 69.16 73.27 69.16C73.0988 69.16 72.96 69.2988 72.96 69.47C72.96 69.6412 73.0988 69.78 73.27 69.78Z" fill="#1B1A2E"/>
<path d="M38.0097 111.67H37.7197V112.17H38.0097V111.67Z" fill="#F9A21B"/>
<path d="M38.8696 111.67H38.5796V112.17H38.8696V111.67Z" fill="#1B1A2E"/>
<path d="M39.7397 111.67H39.4497V112.17H39.7397V111.67Z" fill="#1B1A2E"/>
<path d="M105.13 71.59H41.4102V71.64H105.13V71.59Z" fill="#F0F2F5"/>
<path d="M105.13 107.16H41.4102V107.21H105.13V107.16Z" fill="#F0F2F5"/>
<path d="M34.59 76.44H0.52002V101.89H34.59V76.44Z" fill="white"/>
<g opacity="0.25">
<path d="M34.6699 76.55H0.689941V101.95H34.6699V76.55Z" fill="white"/>
<path d="M34.5698 76.55H0.589844V79.69H34.5698V76.55Z" fill="#E1E1E1"/>
<path d="M2.45 78.57C2.69853 78.57 2.9 78.3685 2.9 78.12C2.9 77.8715 2.69853 77.67 2.45 77.67C2.20147 77.67 2 77.8715 2 78.12C2 78.3685 2.20147 78.57 2.45 78.57Z" fill="white"/>
<path d="M3.97002 78.57C4.21855 78.57 4.42002 78.3685 4.42002 78.12C4.42002 77.8715 4.21855 77.67 3.97002 77.67C3.72149 77.67 3.52002 77.8715 3.52002 78.12C3.52002 78.3685 3.72149 78.57 3.97002 78.57Z" fill="white"/>
<path d="M5.4998 78.57C5.74833 78.57 5.9498 78.3685 5.9498 78.12C5.9498 77.8715 5.74833 77.67 5.4998 77.67C5.25128 77.67 5.0498 77.8715 5.0498 78.12C5.0498 78.3685 5.25128 78.57 5.4998 78.57Z" fill="white"/>
<path d="M34.5698 101.96C34.5698 101.96 34.5698 101.8 34.5698 101.5C34.5698 101.19 34.5698 100.74 34.5698 100.15C34.5698 98.97 34.5698 97.23 34.5598 95.02C34.5598 90.59 34.5498 84.25 34.5398 76.56L34.5798 76.6C24.9998 76.6 13.2598 76.6 0.599824 76.6L0.649824 76.55C0.649824 85.68 0.649824 94.33 0.649824 101.95L0.609824 101.91C10.6698 101.91 19.1598 101.93 25.1398 101.93C28.1298 101.93 30.4898 101.93 32.1098 101.94C32.9198 101.94 33.5398 101.94 33.9598 101.94C34.1698 101.94 34.3298 101.94 34.4398 101.94C34.3298 101.94 34.1798 101.94 33.9698 101.94C33.5498 101.94 32.9298 101.94 32.1298 101.94C30.5198 101.94 28.1598 101.94 25.1698 101.95C19.1898 101.95 10.6898 101.96 0.609824 101.97H0.569824V101.93C0.569824 94.3 0.569824 85.66 0.569824 76.53V76.48H0.619824C13.2798 76.48 25.0198 76.48 34.5998 76.48H34.6398V76.52C34.6398 84.22 34.6198 90.57 34.6198 95C34.6198 97.21 34.6198 98.94 34.6098 100.12C34.6098 100.71 34.6098 101.16 34.6098 101.46C34.6098 101.76 34.6098 101.92 34.6098 101.92L34.5698 101.96Z" fill="#1A2E35"/>
<path d="M32.6997 91.86C32.6997 91.86 25.9397 91.91 17.5997 91.91C9.25975 91.91 2.48975 91.89 2.48975 91.86C2.48975 91.83 9.24975 91.81 17.5997 91.81C25.9497 91.81 32.6997 91.83 32.6997 91.86Z" fill="#E1E1E1"/>
<path d="M32.6997 89.25C32.6997 89.25 25.9397 89.3 17.5997 89.3C9.25975 89.3 2.48975 89.28 2.48975 89.25C2.48975 89.22 9.24975 89.2 17.5997 89.2C25.9497 89.2 32.6997 89.22 32.6997 89.25Z" fill="#E1E1E1"/>
<path d="M32.6997 86.65C32.6997 86.65 25.9397 86.7 17.5997 86.7C9.25975 86.7 2.48975 86.68 2.48975 86.65C2.48975 86.62 9.24975 86.6 17.5997 86.6C25.9497 86.6 32.6997 86.62 32.6997 86.65Z" fill="#E1E1E1"/>
<path d="M32.6997 84.04C32.6997 84.04 25.9397 84.09 17.5997 84.09C9.25975 84.09 2.48975 84.07 2.48975 84.04C2.48975 84.01 9.24975 83.99 17.5997 83.99C25.9497 83.99 32.6997 84.01 32.6997 84.04Z" fill="#E1E1E1"/>
<path d="M7.5598 90.68H5.0498V95.73H7.5598V90.68Z" fill="#BABABA"/>
<path d="M16.5798 90.68H14.0698V95.73H16.5798V90.68Z" fill="#E1E1E1"/>
<path d="M30.26 92.4H27.75V95.73H30.26V92.4Z" fill="#E1E1E1"/>
<path d="M25.5998 88.29H23.0898V95.74H25.5998V88.29Z" fill="#E1E1E1"/>
<path d="M20.99 85.39H18.48V95.74H20.99V85.39Z" fill="#BABABA"/>
<path d="M11.8899 88.29H9.37988V95.74H11.8899V88.29Z" fill="#E1E1E1"/>
<path d="M32.3397 95.73C32.3397 95.73 32.2997 95.73 32.2297 95.73C32.1497 95.73 32.0397 95.73 31.8997 95.73C31.6097 95.73 31.1797 95.73 30.6297 95.73C29.5197 95.73 27.9297 95.73 25.9597 95.75C22.0197 95.75 16.5797 95.75 10.5697 95.76C7.68967 95.76 4.94967 95.76 2.44967 95.76H2.40967V95.72C2.40967 91.72 2.41967 88.3 2.42967 85.89C2.42967 84.69 2.42967 83.73 2.43967 83.07C2.43967 82.75 2.43967 82.49 2.43967 82.32C2.43967 82.24 2.43967 82.17 2.43967 82.13C2.43967 82.09 2.43967 82.06 2.43967 82.06C2.43967 82.06 2.43967 82.08 2.43967 82.13C2.43967 82.18 2.43967 82.24 2.43967 82.32C2.43967 82.49 2.43967 82.74 2.43967 83.07C2.43967 83.73 2.43967 84.68 2.44967 85.89C2.44967 88.31 2.45967 91.72 2.46967 95.72L2.42967 95.68C4.92967 95.68 7.66967 95.68 10.5497 95.68C16.5597 95.68 21.9997 95.69 25.9397 95.69C27.9097 95.69 29.4997 95.7 30.6097 95.71C31.1597 95.71 31.5897 95.71 31.8797 95.71C32.0197 95.71 32.1297 95.71 32.2097 95.71C32.2797 95.71 32.3197 95.71 32.3197 95.71L32.3397 95.73Z" fill="#1A2E35"/>
<path d="M8.82998 98.3H7.72998V99.4H8.82998V98.3Z" fill="#BABABA"/>
<path d="M15.58 98.26H14.48V99.36H15.58V98.26Z" fill="#E1E1E1"/>
<path d="M22.8798 98.3H21.7798V99.4H22.8798V98.3Z" fill="#E1E1E1"/>
<path d="M12.4897 98.82C12.4897 98.82 11.8197 98.87 10.9897 98.87C10.1597 98.87 9.48975 98.85 9.48975 98.82C9.48975 98.79 10.1597 98.77 10.9897 98.77C11.8197 98.77 12.4897 98.79 12.4897 98.82Z" fill="#1A2E35"/>
<path d="M19.1899 98.82C19.1899 98.82 18.5199 98.87 17.6899 98.87C16.8599 98.87 16.1899 98.85 16.1899 98.82C16.1899 98.79 16.8599 98.77 17.6899 98.77C18.5199 98.77 19.1899 98.79 19.1899 98.82Z" fill="#1A2E35"/>
<path d="M26.3198 98.82C26.3198 98.82 25.6498 98.87 24.8198 98.87C23.9898 98.87 23.3198 98.85 23.3198 98.82C23.3198 98.79 23.9898 98.77 24.8198 98.77C25.6498 98.77 26.3198 98.79 26.3198 98.82Z" fill="#1A2E35"/>
</g>
<path d="M106.79 80.39H80.8799V106.3H106.79V80.39Z" fill="white"/>
<g opacity="0.25">
<path d="M94.3901 95.36L101.53 95.46C101.48 99.27 98.2701 102.37 94.3901 102.37C94.3801 102.37 94.3601 102.37 94.3501 102.37L94.3901 95.36Z" fill="#E1E1E1"/>
<path d="M93.2599 94.35L93.1599 101.36C89.2799 101.31 86.1099 98.16 86.1099 94.35C86.1099 90.54 89.3399 87.34 93.2599 87.34C97.1799 87.34 100.41 90.5 100.41 94.35H93.2599Z" fill="#BABABA"/>
</g>
<g opacity="0.25">
<path d="M106.77 80.39H80.8799V85.49H106.77V80.39Z" fill="#E1E1E1"/>
</g>
<path d="M83.8999 83.67C84.3031 83.67 84.6299 83.3431 84.6299 82.94C84.6299 82.5368 84.3031 82.21 83.8999 82.21C83.4968 82.21 83.1699 82.5368 83.1699 82.94C83.1699 83.3431 83.4968 83.67 83.8999 83.67Z" fill="white"/>
<path d="M86.3799 83.67C86.7831 83.67 87.1099 83.3431 87.1099 82.94C87.1099 82.5368 86.7831 82.21 86.3799 82.21C85.9767 82.21 85.6499 82.5368 85.6499 82.94C85.6499 83.3431 85.9767 83.67 86.3799 83.67Z" fill="white"/>
<path d="M89.5899 82.94C89.5899 83.35 89.2599 83.67 88.8599 83.67C88.4599 83.67 88.1299 83.34 88.1299 82.94C88.1299 82.54 88.4599 82.21 88.8599 82.21C89.2599 82.21 89.5899 82.54 89.5899 82.94Z" fill="white"/>
<g opacity="0.25">
<path d="M106.79 106.3C106.79 106.3 106.79 106.26 106.79 106.18C106.79 106.1 106.79 105.98 106.79 105.82C106.79 105.5 106.79 105.03 106.79 104.43C106.79 103.21 106.79 101.43 106.77 99.16C106.77 94.63 106.75 88.16 106.74 80.4L106.8 80.46C99.2701 80.46 90.3801 80.46 80.8901 80.46L80.9601 80.39C80.9601 89.88 80.9601 98.77 80.9601 106.3L80.9001 106.24C88.6601 106.25 95.1301 106.26 99.6601 106.27C101.93 106.27 103.71 106.28 104.93 106.29C105.54 106.29 106 106.29 106.32 106.29C106.48 106.29 106.6 106.29 106.68 106.29C106.6 106.29 106.48 106.29 106.33 106.29C106.01 106.29 105.55 106.29 104.95 106.29C103.73 106.29 101.96 106.29 99.6901 106.31C95.1501 106.31 88.6601 106.33 80.8901 106.34H80.8301V106.28C80.8301 98.75 80.8301 89.86 80.8301 80.37V80.3H80.9001C90.3901 80.3 99.2801 80.3 106.81 80.3H106.87V80.36C106.86 88.14 106.85 94.62 106.84 99.16C106.84 101.42 106.83 103.2 106.82 104.42C106.82 105.02 106.82 105.49 106.82 105.8C106.82 105.95 106.82 106.07 106.82 106.15C106.82 106.23 106.82 106.27 106.82 106.27L106.79 106.3Z" fill="#1A2E35"/>
</g>
<path d="M87.9896 71.97H39.5796V107H87.9896V71.97Z" fill="white"/>
<g opacity="0.25">
<path d="M87.9998 72.02H39.5898V106.95H87.9998V72.02Z" fill="white"/>
<path d="M80.0196 79.9401H67.0596C65.5629 79.9401 64.3496 81.1534 64.3496 82.6501V85.2801C64.3496 86.7768 65.5629 87.9901 67.0596 87.9901H80.0196C81.5163 87.9901 82.7296 86.7768 82.7296 85.2801V82.6501C82.7296 81.1534 81.5163 79.9401 80.0196 79.9401Z" fill="#ECECEC"/>
<path d="M43.0499 88.93C42.9799 84.78 46.2899 81.35 50.4199 81.29C54.5499 81.22 57.9599 84.54 58.0299 88.69C58.0999 92.84 54.7899 96.27 50.6599 96.33C46.5299 96.4 43.1199 93.08 43.0499 88.93ZM54.1199 88.75C54.0899 86.77 52.4599 85.18 50.4799 85.21C48.5099 85.24 46.9299 86.88 46.9599 88.86C46.9899 90.84 48.6199 92.43 50.5999 92.4C52.5699 92.37 54.1499 90.73 54.1199 88.75Z" fill="#F5F5F5"/>
<path d="M43.0499 88.93C42.9799 84.78 46.2899 81.35 50.4199 81.29L50.4799 85.22C48.5099 85.25 46.9299 86.89 46.9599 88.87C46.9899 90.85 48.6199 92.44 50.5999 92.41L50.6599 96.34C46.5299 96.41 43.1199 93.09 43.0499 88.94V88.93Z" fill="#E1E1E1"/>
<path d="M54.1202 88.75C54.1202 88.75 54.1202 88.77 54.1202 88.81C54.1202 88.85 54.1202 88.91 54.1202 88.98C54.1202 89.06 54.1202 89.15 54.1002 89.26C54.0902 89.37 54.0702 89.5 54.0402 89.64C53.9902 89.92 53.8602 90.26 53.6702 90.61C53.4702 90.97 53.1802 91.34 52.7802 91.66C52.3802 91.98 51.8702 92.25 51.2702 92.37C50.6802 92.49 50.0102 92.48 49.3602 92.25C49.2002 92.2 49.0402 92.12 48.8802 92.05C48.7302 91.96 48.5702 91.88 48.4302 91.77C48.2802 91.67 48.1502 91.55 48.0102 91.43C47.8902 91.3 47.7602 91.17 47.6502 91.01C47.4302 90.71 47.2402 90.38 47.1202 90.02C47.0002 89.66 46.9302 89.27 46.9102 88.88C46.9102 88.49 46.9702 88.1 47.0802 87.73C47.1902 87.36 47.3702 87.02 47.5802 86.72C47.6802 86.56 47.8102 86.43 47.9302 86.29C48.0602 86.17 48.1902 86.04 48.3402 85.93C48.4802 85.81 48.6302 85.73 48.7802 85.64C48.9402 85.56 49.0902 85.48 49.2502 85.42C49.8902 85.17 50.5602 85.14 51.1502 85.24C51.7502 85.34 52.2702 85.6 52.6802 85.91C53.0902 86.22 53.4002 86.58 53.6102 86.93C53.8202 87.28 53.9502 87.61 54.0102 87.89C54.0502 88.03 54.0702 88.15 54.0802 88.26C54.1002 88.37 54.1102 88.46 54.1102 88.54C54.1102 88.61 54.1102 88.67 54.1102 88.71C54.1102 88.67 54.1102 88.61 54.0902 88.54C54.0902 88.47 54.0802 88.37 54.0502 88.27C54.0302 88.16 54.0102 88.04 53.9702 87.9C53.9002 87.62 53.7702 87.3 53.5602 86.96C53.3502 86.62 53.0502 86.26 52.6402 85.97C52.2302 85.67 51.7202 85.42 51.1402 85.33C50.5602 85.24 49.9002 85.27 49.2802 85.52C49.1202 85.57 48.9702 85.66 48.8202 85.73C48.6802 85.82 48.5202 85.91 48.3902 86.02C48.2502 86.12 48.1202 86.25 48.0002 86.37C47.8802 86.5 47.7602 86.64 47.6602 86.79C47.4602 87.09 47.2802 87.42 47.1702 87.77C47.0602 88.13 47.0102 88.51 47.0102 88.89C47.0302 89.66 47.2902 90.4 47.7302 90.97C47.8302 91.12 47.9602 91.25 48.0802 91.38C48.2102 91.5 48.3402 91.62 48.4902 91.72C48.6302 91.83 48.7802 91.91 48.9302 91.99C49.0802 92.06 49.2302 92.14 49.3902 92.19C50.0202 92.42 50.6702 92.43 51.2502 92.32C51.8302 92.21 52.3402 91.94 52.7302 91.63C53.1302 91.32 53.4202 90.95 53.6202 90.61C53.8202 90.26 53.9402 89.93 54.0002 89.66C54.0402 89.52 54.0502 89.4 54.0702 89.29C54.0902 89.18 54.1002 89.09 54.1002 89.01C54.1002 88.94 54.1002 88.88 54.1102 88.84C54.1102 88.8 54.1102 88.78 54.1102 88.78L54.1202 88.75Z" fill="#1A2E35"/>
<path d="M43.05 88.93C43.05 88.93 43.05 88.97 43.06 89.05C43.06 89.13 43.08 89.25 43.09 89.41C43.09 89.49 43.1 89.58 43.11 89.67C43.12 89.77 43.14 89.87 43.16 89.98C43.18 90.09 43.2 90.21 43.22 90.34C43.24 90.47 43.29 90.6 43.32 90.75C43.46 91.33 43.74 92.01 44.18 92.73C44.62 93.45 45.25 94.19 46.11 94.82C46.22 94.9 46.33 94.98 46.44 95.06C46.55 95.13 46.67 95.2 46.79 95.27C46.91 95.34 47.03 95.42 47.16 95.48C47.29 95.54 47.42 95.6 47.55 95.66C47.62 95.69 47.68 95.72 47.75 95.75C47.82 95.77 47.89 95.8 47.96 95.82C48.1 95.87 48.24 95.92 48.38 95.97C48.52 96.02 48.67 96.04 48.82 96.08C48.97 96.11 49.12 96.16 49.27 96.18C49.58 96.22 49.89 96.28 50.22 96.27C50.38 96.27 50.54 96.29 50.71 96.28C50.87 96.27 51.04 96.26 51.2 96.25C51.28 96.25 51.37 96.25 51.45 96.23L51.7 96.19C51.87 96.16 52.03 96.14 52.2 96.1C52.53 96.01 52.87 95.93 53.19 95.79C53.52 95.68 53.83 95.5 54.15 95.34C54.3 95.25 54.45 95.15 54.61 95.05C54.77 94.96 54.91 94.84 55.05 94.73C55.35 94.52 55.61 94.25 55.88 93.99C56 93.85 56.13 93.71 56.25 93.57L56.34 93.46L56.42 93.34L56.59 93.11L56.76 92.88L56.91 92.63L57.06 92.38L57.13 92.25L57.19 92.12C57.27 91.94 57.35 91.77 57.43 91.59C57.49 91.41 57.56 91.22 57.62 91.03C57.85 90.28 57.97 89.48 57.97 88.67C57.95 87.86 57.8 87.07 57.55 86.32C57.48 86.14 57.41 85.95 57.34 85.77C57.25 85.6 57.17 85.42 57.08 85.25L57.01 85.12L56.93 85L56.78 84.76L56.63 84.52L56.46 84.29L56.29 84.06L56.2 83.95L56.1 83.85C55.97 83.71 55.84 83.57 55.72 83.44C55.44 83.19 55.17 82.94 54.87 82.73C54.72 82.62 54.58 82.51 54.42 82.43C54.26 82.34 54.11 82.24 53.95 82.16C53.62 82.01 53.31 81.85 52.97 81.75C52.64 81.62 52.3 81.56 51.97 81.47C51.8 81.44 51.63 81.42 51.47 81.4L51.22 81.37C51.14 81.36 51.05 81.37 50.97 81.36C50.8 81.36 50.64 81.35 50.48 81.34C50.32 81.34 50.15 81.36 49.99 81.37C49.67 81.37 49.36 81.45 49.05 81.5C48.89 81.52 48.75 81.57 48.6 81.61C48.45 81.65 48.3 81.69 48.16 81.74C48.02 81.79 47.88 81.85 47.74 81.9C47.67 81.93 47.6 81.95 47.53 81.98C47.46 82.01 47.4 82.05 47.33 82.08C47.2 82.15 47.07 82.21 46.95 82.27C46.82 82.33 46.71 82.42 46.59 82.49C46.47 82.57 46.35 82.63 46.24 82.71C46.13 82.79 46.03 82.88 45.92 82.96C45.09 83.62 44.48 84.39 44.06 85.12C43.65 85.85 43.39 86.54 43.26 87.13C43.23 87.28 43.18 87.41 43.17 87.54C43.15 87.67 43.13 87.79 43.12 87.91C43.11 88.02 43.09 88.13 43.08 88.22C43.08 88.32 43.08 88.4 43.07 88.48C43.07 88.63 43.06 88.75 43.05 88.84C43.05 88.76 43.05 88.64 43.05 88.48C43.05 88.4 43.05 88.31 43.05 88.22C43.05 88.12 43.07 88.02 43.09 87.9C43.1 87.79 43.12 87.66 43.14 87.53C43.15 87.4 43.2 87.26 43.23 87.12C43.35 86.53 43.6 85.84 44.02 85.1C44.44 84.36 45.04 83.58 45.88 82.92C45.99 82.84 46.09 82.75 46.2 82.67C46.31 82.59 46.43 82.52 46.55 82.44C46.67 82.37 46.78 82.28 46.91 82.22C47.04 82.16 47.17 82.09 47.3 82.02C47.37 81.99 47.43 81.95 47.5 81.92C47.57 81.89 47.64 81.87 47.71 81.84C47.85 81.79 47.99 81.73 48.13 81.68C48.27 81.63 48.42 81.6 48.57 81.55C48.72 81.51 48.87 81.46 49.02 81.44C49.33 81.39 49.65 81.32 49.97 81.31C50.13 81.31 50.3 81.28 50.46 81.28C50.63 81.28 50.79 81.29 50.96 81.3C51.04 81.3 51.13 81.3 51.21 81.31L51.46 81.34C51.63 81.37 51.8 81.38 51.97 81.41C52.3 81.49 52.65 81.56 52.98 81.69C53.32 81.79 53.64 81.96 53.97 82.11C54.13 82.2 54.28 82.29 54.44 82.38C54.6 82.47 54.75 82.58 54.9 82.69C55.21 82.9 55.48 83.16 55.77 83.41C55.9 83.55 56.03 83.69 56.16 83.83L56.26 83.93L56.35 84.04L56.53 84.27L56.71 84.5L56.87 84.75L57.03 85L57.11 85.12L57.18 85.25C57.27 85.43 57.36 85.6 57.44 85.78C57.51 85.96 57.58 86.15 57.65 86.34C57.91 87.09 58.05 87.9 58.08 88.72C58.08 89.54 57.96 90.35 57.73 91.11C57.66 91.3 57.6 91.49 57.53 91.67C57.45 91.85 57.36 92.03 57.28 92.21L57.22 92.34L57.15 92.47L57 92.72L56.85 92.97L56.68 93.21L56.51 93.44L56.43 93.56L56.34 93.67C56.21 93.81 56.09 93.96 55.96 94.1C55.68 94.36 55.42 94.63 55.12 94.84C54.97 94.95 54.83 95.07 54.67 95.16C54.51 95.26 54.36 95.36 54.21 95.45C53.89 95.61 53.57 95.79 53.23 95.9C52.9 96.04 52.56 96.12 52.23 96.21C52.06 96.25 51.89 96.27 51.72 96.3L51.47 96.34C51.39 96.35 51.3 96.35 51.22 96.36C51.05 96.37 50.89 96.38 50.72 96.39C50.55 96.39 50.39 96.39 50.23 96.38C49.9 96.38 49.59 96.32 49.27 96.28C49.11 96.27 48.96 96.21 48.81 96.18C48.66 96.14 48.51 96.11 48.36 96.07C48.22 96.02 48.07 95.97 47.93 95.92C47.86 95.9 47.79 95.87 47.72 95.85C47.65 95.82 47.59 95.79 47.52 95.76C47.39 95.7 47.26 95.64 47.13 95.58C47 95.52 46.88 95.44 46.76 95.37C46.64 95.3 46.52 95.23 46.4 95.16C46.29 95.08 46.18 95 46.07 94.92C45.21 94.28 44.58 93.52 44.14 92.8C43.7 92.07 43.43 91.38 43.29 90.8C43.26 90.65 43.21 90.52 43.19 90.39C43.17 90.26 43.15 90.14 43.13 90.02C43.11 89.91 43.09 89.8 43.08 89.71C43.08 89.61 43.07 89.53 43.06 89.45C43.06 89.3 43.05 89.18 43.04 89.09C43.04 89.01 43.04 88.97 43.04 88.97L43.05 88.93Z" fill="#1A2E35"/>
<path d="M49.75 80.69C54.58 80.61 58.43 84.36 58.51 89.21L53.94 89.28C53.9 86.96 52.14 85.5 49.83 85.54L49.75 80.69Z" fill="#BABABA"/>
<path d="M49.75 80.6901C49.75 80.6901 49.75 80.7201 49.75 80.7801C49.75 80.8401 49.75 80.9301 49.75 81.0401C49.75 81.2701 49.76 81.6001 49.77 82.0101C49.79 82.8501 49.81 84.0601 49.85 85.5401L49.81 85.5001C50.25 85.5001 50.71 85.5401 51.18 85.6701C51.65 85.8001 52.12 86.0101 52.54 86.3301C52.96 86.6501 53.32 87.08 53.57 87.59C53.82 88.1 53.95 88.6801 53.96 89.2801L53.91 89.2301C55.03 89.2101 56.22 89.1901 57.45 89.1701C57.8 89.1701 58.15 89.1601 58.48 89.1501L58.43 89.2001C58.4 88.2501 58.24 87.3401 57.96 86.5001C57.88 86.2901 57.8 86.0901 57.73 85.8801C57.64 85.6801 57.54 85.4901 57.45 85.3001C57.36 85.1001 57.25 84.9301 57.14 84.7501C57.03 84.5801 56.93 84.3901 56.8 84.2401C56.68 84.0801 56.56 83.9201 56.44 83.7601C56.31 83.6101 56.17 83.4701 56.05 83.3301C55.98 83.2601 55.92 83.1901 55.86 83.1201C55.79 83.0601 55.72 83.0001 55.65 82.9301C55.51 82.8101 55.37 82.6901 55.24 82.5701C54.67 82.1401 54.1 81.7701 53.54 81.5201C53.4 81.4601 53.27 81.3901 53.13 81.3301C52.99 81.2801 52.86 81.2301 52.73 81.1901C52.6 81.1401 52.47 81.1001 52.35 81.0601C52.23 81.0201 52.1 81.0001 51.99 80.9701C51.87 80.9401 51.76 80.9101 51.65 80.8901C51.6 80.8801 51.54 80.8601 51.49 80.8501C51.44 80.8501 51.38 80.8301 51.33 80.8301C51.13 80.8001 50.94 80.7801 50.77 80.7501C50.6 80.7201 50.45 80.7201 50.32 80.7101C50.19 80.7101 50.08 80.7001 49.99 80.6901C49.9 80.6901 49.84 80.6901 49.79 80.6801C49.84 80.6801 49.91 80.6801 49.99 80.6801C50.08 80.6801 50.19 80.6801 50.32 80.6801C50.45 80.6801 50.61 80.6801 50.77 80.7101C50.94 80.7301 51.13 80.7601 51.33 80.7801C51.38 80.7801 51.43 80.7901 51.49 80.8001C51.54 80.8101 51.6 80.82 51.65 80.84C51.76 80.87 51.87 80.8901 51.99 80.9201C52.11 80.9501 52.23 80.9701 52.36 81.0101C52.48 81.0501 52.61 81.0901 52.74 81.1401C52.87 81.1901 53.01 81.2301 53.14 81.2801C53.27 81.3401 53.41 81.4001 53.55 81.4701C54.12 81.7101 54.69 82.08 55.27 82.5201C55.41 82.6401 55.55 82.7601 55.69 82.8801C55.76 82.9401 55.83 83.0001 55.9 83.0701C55.97 83.1401 56.03 83.2101 56.1 83.2801C56.23 83.4201 56.37 83.5601 56.5 83.7101C56.62 83.8701 56.74 84.0301 56.87 84.1901C57 84.3501 57.1 84.5301 57.21 84.7101C57.32 84.8901 57.44 85.0701 57.53 85.2601C57.62 85.4501 57.73 85.6501 57.81 85.8501C57.89 86.0601 57.97 86.2601 58.05 86.4701C58.33 87.3201 58.5 88.2501 58.52 89.2001V89.2501H58.47C58.14 89.2501 57.79 89.26 57.44 89.2701C56.21 89.2901 55.02 89.3101 53.9 89.3301H53.85V89.2801C53.85 88.7001 53.71 88.1301 53.47 87.6301C53.23 87.1301 52.88 86.7101 52.47 86.4001C52.06 86.0801 51.6 85.8701 51.14 85.7501C50.68 85.6201 50.22 85.5801 49.79 85.5801H49.75V85.5401C49.73 84.0501 49.72 82.8301 49.71 81.9801C49.71 81.5701 49.71 81.2401 49.71 81.0101C49.71 80.9001 49.71 80.8201 49.71 80.7601C49.71 80.7001 49.71 80.6801 49.71 80.6801L49.75 80.6901Z" fill="#1A2E35"/>
<path d="M87.9998 72.02H39.5898V76.69H87.9998V72.02Z" fill="#E1E1E1"/>
<path d="M80.5699 82.6401H66.9599C66.7999 82.6401 66.6699 82.5101 66.6699 82.3501C66.6699 82.1901 66.7999 82.0601 66.9599 82.0601H80.5699C80.7299 82.0601 80.8599 82.1901 80.8599 82.3501C80.8599 82.5101 80.7299 82.6401 80.5699 82.6401Z" fill="#E1E1E1"/>
<path d="M80.5699 84.19H66.9599C66.7999 84.19 66.6699 84.06 66.6699 83.9C66.6699 83.74 66.7999 83.61 66.9599 83.61H80.5699C80.7299 83.61 80.8599 83.74 80.8599 83.9C80.8599 84.06 80.7299 84.19 80.5699 84.19Z" fill="#E1E1E1"/>
<path d="M73.1497 85.73H66.9697C66.8097 85.73 66.6797 85.6 66.6797 85.44C66.6797 85.28 66.8097 85.15 66.9697 85.15H73.1497C73.3097 85.15 73.4397 85.28 73.4397 85.44C73.4397 85.6 73.3097 85.73 73.1497 85.73Z" fill="#E1E1E1"/>
<path d="M80.0196 89.79H67.0596C65.5629 89.79 64.3496 91.0033 64.3496 92.5V95.13C64.3496 96.6267 65.5629 97.84 67.0596 97.84H80.0196C81.5163 97.84 82.7296 96.6267 82.7296 95.13V92.5C82.7296 91.0033 81.5163 89.79 80.0196 89.79Z" fill="#ECECEC"/>
<path d="M80.9397 102.87H65.7497C64.8697 102.87 64.1597 102.16 64.1597 101.28C64.1597 100.4 64.8697 99.6901 65.7497 99.6901H80.9397C81.8197 99.6901 82.5297 100.4 82.5297 101.28C82.5297 102.16 81.8197 102.87 80.9397 102.87Z" fill="#ECECEC"/>
<path d="M80.4796 92.5701H66.8696C66.7096 92.5701 66.5796 92.4401 66.5796 92.2801C66.5796 92.1201 66.7096 91.9901 66.8696 91.9901H80.4796C80.6396 91.9901 80.7696 92.1201 80.7696 92.2801C80.7696 92.4401 80.6396 92.5701 80.4796 92.5701Z" fill="#E1E1E1"/>
<path d="M79.9 101.61H66.29C66.13 101.61 66 101.48 66 101.32C66 101.16 66.13 101.03 66.29 101.03H79.9C80.06 101.03 80.19 101.16 80.19 101.32C80.19 101.48 80.06 101.61 79.9 101.61Z" fill="#E1E1E1"/>
<path d="M80.4796 94.11H66.8696C66.7096 94.11 66.5796 93.98 66.5796 93.82C66.5796 93.66 66.7096 93.53 66.8696 93.53H80.4796C80.6396 93.53 80.7696 93.66 80.7696 93.82C80.7696 93.98 80.6396 94.11 80.4796 94.11Z" fill="#E1E1E1"/>
<path d="M73.0598 95.65H66.8798C66.7198 95.65 66.5898 95.52 66.5898 95.36C66.5898 95.2 66.7198 95.07 66.8798 95.07H73.0598C73.2198 95.07 73.3498 95.2 73.3498 95.36C73.3498 95.52 73.2198 95.65 73.0598 95.65Z" fill="#E1E1E1"/>
<path d="M63.3999 81.66C63.3999 81.66 63.3099 81.67 63.1499 81.68C62.9699 81.68 62.7299 81.68 62.4599 81.7C61.8699 81.7 61.0699 81.71 60.1699 81.71C59.7999 81.71 59.4499 81.71 59.1299 81.71H59.1599C58.7099 82.15 58.3099 82.53 58.0299 82.8C57.8999 82.92 57.7899 83.03 57.6999 83.11C57.6199 83.18 57.5799 83.22 57.5699 83.21C57.5599 83.2 57.5999 83.16 57.6699 83.08C57.7499 82.99 57.8599 82.88 57.9799 82.75C58.2499 82.47 58.6299 82.08 59.0799 81.62H59.0899L59.1099 81.61C59.4299 81.61 59.7899 81.61 60.1499 81.61C61.0399 81.61 61.8499 81.61 62.4399 81.62C62.7199 81.62 62.9499 81.63 63.1299 81.64C63.2899 81.64 63.3799 81.65 63.3799 81.66H63.3999Z" fill="#1A2E35"/>
<path d="M63.1996 82.07C63.415 82.07 63.5896 81.8954 63.5896 81.68C63.5896 81.4646 63.415 81.29 63.1996 81.29C62.9842 81.29 62.8096 81.4646 62.8096 81.68C62.8096 81.8954 62.9842 82.07 63.1996 82.07Z" fill="#1A2E35"/>
<path d="M63.1996 93.69C63.415 93.69 63.5896 93.5154 63.5896 93.3C63.5896 93.0846 63.415 92.91 63.1996 92.91C62.9842 92.91 62.8096 93.0846 62.8096 93.3C62.8096 93.5154 62.9842 93.69 63.1996 93.69Z" fill="#1A2E35"/>
<path d="M62.9398 93.3601C62.9398 93.3601 62.6898 93.3801 62.2898 93.3901C61.8898 93.3901 61.3398 93.3901 60.7198 93.3901C60.1198 93.3901 59.5798 93.3801 59.1498 93.3701C58.9698 93.3701 58.8098 93.3701 58.6798 93.3701C58.5698 93.3701 58.5098 93.3701 58.5098 93.3701C58.5098 93.3501 58.7598 93.3301 59.1598 93.3201C59.5598 93.3101 60.1198 93.3 60.7298 93.31C61.3398 93.31 61.8998 93.3201 62.2998 93.3301C62.6998 93.3401 62.9498 93.3601 62.9498 93.3701L62.9398 93.3601Z" fill="#1A2E35"/>
<path d="M46.75 101.86H45.48V103.13H46.75V101.86Z" fill="#E1E1E1"/>
<path d="M51 101.86H49.73V103.13H51V101.86Z" fill="#E1E1E1"/>
<path d="M55.6098 101.86H54.3398V103.13H55.6098V101.86Z" fill="#BABABA"/>
<path d="M42.8796 74.3501C42.8796 74.7201 42.5896 75.0201 42.2396 75.0201C41.8896 75.0201 41.5996 74.7201 41.5996 74.3501C41.5996 73.9801 41.8896 73.6801 42.2396 73.6801C42.5896 73.6801 42.8796 73.9801 42.8796 74.3501Z" fill="white"/>
<path d="M45.05 74.3501C45.05 74.7201 44.76 75.0201 44.41 75.0201C44.06 75.0201 43.77 74.7201 43.77 74.3501C43.77 73.9801 44.06 73.6801 44.41 73.6801C44.76 73.6801 45.05 73.9801 45.05 74.3501Z" fill="white"/>
<path d="M47.2297 74.3501C47.2297 74.7201 46.9397 75.0201 46.5897 75.0201C46.2397 75.0201 45.9497 74.7201 45.9497 74.3501C45.9497 73.9801 46.2397 73.6801 46.5897 73.6801C46.9397 73.6801 47.2297 73.9801 47.2297 74.3501Z" fill="white"/>
<path d="M87.9898 106.96C87.9898 106.64 87.9698 93.21 87.9498 72.03L87.9898 72.07C74.4398 72.07 57.6898 72.07 39.5798 72.07L39.6298 72.02C39.6298 84.54 39.6298 96.42 39.6298 106.95L39.5898 106.91C68.2198 106.94 87.6098 106.95 87.9998 106.95C87.6098 106.95 68.2198 106.97 39.5898 106.99H39.5498V106.95C39.5498 96.41 39.5498 84.54 39.5498 72.02V71.97H39.5998C57.6998 71.97 74.4598 71.97 88.0098 71.97H88.0498V72.01C88.0298 93.2 88.0098 106.62 88.0098 106.94L87.9898 106.96Z" fill="#1A2E35"/>
</g>
<path d="M104.27 11.13L8.92979 3.59002C6.01979 3.36002 3.52979 5.66002 3.52979 8.58002V64.22C3.52979 67.08 5.92979 69.36 8.78979 69.22L82.7998 65.55L81.7998 82.69L97.9398 64.8L104.13 64.49C106.8 64.36 108.89 62.16 108.89 59.49V16.12C108.89 13.51 106.88 11.33 104.28 11.13H104.27Z" fill="#F0F2F5"/>
<path d="M101.23 58.11L104.63 57.91L106.33 57.81C106.61 57.79 106.9 57.78 107.18 57.76C107.46 57.74 107.74 57.69 108.01 57.62C109.1 57.34 110.07 56.64 110.69 55.71C111 55.25 111.23 54.72 111.36 54.18C111.42 53.91 111.46 53.63 111.48 53.35C111.49 53.07 111.48 52.79 111.48 52.5L111.46 38.87L111.48 25.24L111.51 18.42L111.53 15.01V13.31L111.55 12.46C111.55 12.32 111.55 12.18 111.55 12.03C111.55 12.17 111.55 12.31 111.55 12.46V13.31L111.57 15.01L111.59 18.42L111.62 25.24L111.64 38.87L111.62 52.5C111.62 52.78 111.62 53.07 111.61 53.36C111.59 53.65 111.55 53.93 111.48 54.21C111.34 54.77 111.1 55.31 110.78 55.78C110.13 56.73 109.13 57.44 108.02 57.72C107.74 57.79 107.46 57.83 107.17 57.85C106.88 57.87 106.6 57.88 106.32 57.89L104.62 57.96L101.21 58.1L101.23 58.11Z" fill="#1B1A2E"/>
<path d="M86.9399 58.82L86.7499 62.87C86.6899 64.22 86.6099 65.57 86.5399 66.92C86.4699 68.27 86.3999 69.62 86.3199 70.97L86.0899 75.02L85.9199 74.95L87.8199 72.84L89.7299 70.73L93.5499 66.52L97.3799 62.32C98.0199 61.62 98.6599 60.92 99.2999 60.23L101.23 58.14L99.3499 60.27C98.7199 60.98 98.0999 61.69 97.4599 62.4L93.6699 66.64L89.8699 70.87L87.9699 72.98L86.0599 75.09L85.8799 75.29L85.8999 75.02L86.1399 70.98C86.2199 69.63 86.3099 68.28 86.3999 66.94C86.4899 65.59 86.5699 64.24 86.6599 62.9L86.9399 58.86V58.82Z" fill="#1B1A2E"/>
<path d="M17.0698 62.28L25.7998 61.8L34.5398 61.33L51.9998 60.45L69.4698 59.6L78.1998 59.2L86.9398 58.82L78.2098 59.3L69.4798 59.76L52.0098 60.65L34.5398 61.49L25.8098 61.9L17.0698 62.28Z" fill="#1B1A2E"/>
<path d="M111.53 11.6C111.47 11.17 111.37 10.76 111.2 10.36L111.07 10.07C111.02 9.97 110.97 9.88 110.92 9.79C110.87 9.69 110.81 9.61 110.75 9.52L110.66 9.39C110.66 9.39 110.59 9.31 110.56 9.26L110.46 9.13C110.46 9.13 110.39 9.05 110.36 9.01L110.14 8.78C109.98 8.64 109.82 8.49 109.65 8.37C109.3 8.12 108.93 7.9 108.53 7.76C108.43 7.72 108.33 7.69 108.23 7.66L108.08 7.61C108.03 7.59 107.98 7.59 107.92 7.57C107.82 7.55 107.71 7.52 107.61 7.51L107.29 7.47C106.86 7.43 106.43 7.4 106.01 7.37L103.44 7.17L93.1698 6.38L72.6398 4.78L31.5498 1.56L21.2798 0.74L18.7098 0.54L17.4298 0.44C17.3198 0.44 17.2098 0.42 17.1098 0.42H16.9498H16.7898C16.5798 0.42 16.3698 0.44 16.1598 0.47C15.3298 0.59 14.5298 0.94 13.8798 1.48C13.2298 2.01 12.7198 2.72 12.4498 3.52C12.3098 3.92 12.2298 4.33 12.1998 4.75C12.1998 4.85 12.1998 4.96 12.1898 5.07V5.39V6.03V8.6V13.75V24.05L12.1498 44.65L12.1198 54.95V57.52C12.1098 57.95 12.1598 58.38 12.2698 58.79C12.3298 59 12.3898 59.2 12.4798 59.4C12.5198 59.5 12.5698 59.59 12.6098 59.69C12.6598 59.78 12.7098 59.88 12.7598 59.97C13.1898 60.71 13.8298 61.33 14.5798 61.74C15.3298 62.15 16.1998 62.35 17.0598 62.31C16.1998 62.35 15.3298 62.17 14.5798 61.75C13.8198 61.34 13.1798 60.73 12.7398 59.99C12.6798 59.9 12.6398 59.8 12.5798 59.71C12.5398 59.61 12.4798 59.52 12.4498 59.42C12.3598 59.22 12.2998 59.02 12.2398 58.81C12.1298 58.39 12.0798 57.96 12.0798 57.53V54.96L12.0498 44.66L12.0198 24.06V13.76L12.0098 8.61V6.04V5.4V5.08C12.0098 4.97 12.0098 4.86 12.0198 4.75C12.0498 4.31 12.1298 3.88 12.2798 3.47C12.5698 2.64 13.0898 1.9 13.7698 1.35C14.4498 0.79 15.2798 0.42 16.1398 0.3C16.3598 0.27 16.5798 0.25 16.7898 0.25H16.9498H17.1098C17.2198 0.25 17.3298 0.27 17.4298 0.27L18.7098 0.37L21.2798 0.57L31.5498 1.38L72.6098 4.65L93.1398 6.3L103.4 7.14L105.97 7.35C106.4 7.39 106.83 7.42 107.25 7.46L107.57 7.5C107.68 7.52 107.78 7.54 107.89 7.57C107.94 7.58 108 7.59 108.05 7.61L108.2 7.66C108.3 7.69 108.41 7.72 108.51 7.76C108.91 7.91 109.29 8.13 109.64 8.38C109.82 8.5 109.97 8.65 110.13 8.8L110.35 9.03C110.35 9.03 110.42 9.11 110.45 9.15L110.55 9.28C110.55 9.28 110.62 9.36 110.65 9.41L110.74 9.54C110.8 9.63 110.86 9.72 110.91 9.81C110.96 9.9 111.02 10 111.06 10.09L111.19 10.38C111.35 10.78 111.46 11.2 111.51 11.62L111.53 11.6Z" fill="#1B1A2E"/>
<mask id="mask0_616_233" style="mask-type:luminance" maskUnits="userSpaceOnUse" x="9" y="-1" width="103" height="77">
<path d="M111.91 38.63L111.88 52.26C111.88 52.54 111.88 52.82 111.87 53.11C111.86 53.4 111.81 53.69 111.74 53.97C111.6 54.53 111.35 55.07 111.02 55.54C110.36 56.5 109.34 57.21 108.2 57.48C107.92 57.54 107.62 57.59 107.32 57.61C107.04 57.64 106.74 57.64 106.45 57.65L104.7 57.73L101.22 57.87L99.2901 60C98.6401 60.71 98.0001 61.43 97.3501 62.12L93.4801 66.36L89.5901 70.59L87.6401 72.7L85.6901 74.81L85.5001 75.01L85.5301 74.74L85.7801 70.69C85.8601 69.35 85.9601 68 86.0401 66.65C86.1301 65.31 86.2201 63.96 86.3101 62.61L86.5901 58.57L77.6501 59.06L68.7101 59.51L50.8401 60.41L32.9601 61.24L24.0201 61.64L15.0701 62.02C14.1901 62.07 13.3001 61.88 12.5401 61.46C11.7601 61.06 11.1001 60.45 10.6501 59.71C10.6001 59.62 10.5501 59.52 10.4901 59.42C10.4401 59.33 10.3901 59.23 10.3501 59.13C10.2601 58.94 10.1901 58.73 10.1401 58.52C10.0201 58.1 9.97014 57.67 9.97014 57.24V54.66L9.93014 44.37L9.90014 23.79V13.5L9.89014 4.80997C9.89014 4.69997 9.89014 4.57997 9.90014 4.47997C9.93014 4.03997 10.0201 3.60997 10.1701 3.18997C10.4501 2.36997 11.0001 1.61997 11.6801 1.06997C12.3801 0.509971 13.2201 0.149971 14.1101 0.0199707C14.3301 -0.0100293 14.5601 -0.0300293 14.7801 -0.0300293H15.1201C15.2401 -0.0200293 15.3401 -2.92975e-05 15.4401 0.0099707L16.7601 0.109971L19.3901 0.309971L29.9001 1.11997L71.9301 4.38997L92.9401 6.03997L103.44 6.86997L106.07 7.06997C106.51 7.10997 106.95 7.14997 107.39 7.17997L107.71 7.21997C107.83 7.22997 107.93 7.26997 108.03 7.27997C108.08 7.28997 108.15 7.30997 108.2 7.31997L108.36 7.36997C108.46 7.40997 108.57 7.42997 108.67 7.46997C109.08 7.61997 109.47 7.83997 109.82 8.08997C110 8.21997 110.17 8.36997 110.32 8.50997L110.55 8.74997C110.55 8.74997 110.61 8.82997 110.65 8.87997L110.75 9.00997C110.75 9.00997 110.81 9.08997 110.85 9.13997L110.94 9.26997C110.99 9.35997 111.06 9.44997 111.11 9.54997C111.16 9.63997 111.23 9.73997 111.27 9.82997L111.41 10.13C111.57 10.52 111.68 10.94 111.73 11.37C111.74 11.51 111.76 11.65 111.77 11.8V13.08L111.8 14.78L111.83 18.18L111.86 25L111.89 38.62L111.91 38.63Z" fill="white"/>
</mask>
<g mask="url(#mask0_616_233)">
<path d="M86.1504 28.5399V25.6399H89.0504C89.3104 25.6399 89.5104 25.4299 89.5104 25.1799V23.4999C89.5104 23.2399 89.3004 23.0399 89.0504 23.0399H86.1504V20.1399C86.1504 19.8799 85.9404 19.6799 85.6904 19.6799H84.0104C83.7504 19.6799 83.5504 19.8899 83.5504 20.1399V23.0399H80.6504C80.3904 23.0399 80.1904 23.2499 80.1904 23.4999V25.1799C80.1904 25.4399 80.4004 25.6399 80.6504 25.6399H83.5504V28.5399C83.5504 28.7999 83.7604 28.9999 84.0104 28.9999H85.6904C85.9504 28.9999 86.1504 28.7899 86.1504 28.5399Z" fill="#644DF6"/>
<path d="M93.9201 20.8499V18.9999H95.7701C95.9301 18.9999 96.0701 18.8699 96.0701 18.6999V17.6299C96.0701 17.4699 95.9401 17.3299 95.7701 17.3299H93.9201V15.4799C93.9201 15.3199 93.7901 15.1799 93.6201 15.1799H92.5501C92.3901 15.1799 92.2501 15.3099 92.2501 15.4799V17.3299H90.4001C90.2401 17.3299 90.1001 17.4599 90.1001 17.6299V18.6999C90.1001 18.8599 90.2301 18.9999 90.4001 18.9999H92.2501V20.8499C92.2501 21.0099 92.3801 21.1499 92.5501 21.1499H93.6201C93.7801 21.1499 93.9201 21.0199 93.9201 20.8499Z" fill="#644DF6"/>
<path d="M88.2404 14.6699V12.8199H90.0904C90.2504 12.8199 90.3904 12.6899 90.3904 12.5199V11.4499C90.3904 11.2899 90.2604 11.1499 90.0904 11.1499H88.2404V9.29994C88.2404 9.13994 88.1104 8.99994 87.9404 8.99994H86.8704C86.7104 8.99994 86.5704 9.12994 86.5704 9.29994V11.1499H84.7204C84.5604 11.1499 84.4204 11.2799 84.4204 11.4499V12.5199C84.4204 12.6799 84.5504 12.8199 84.7204 12.8199H86.5704V14.6699C86.5704 14.8299 86.7004 14.9699 86.8704 14.9699H87.9404C88.1004 14.9699 88.2404 14.8399 88.2404 14.6699Z" fill="#644DF6"/>
<path d="M72.0602 45.78C72.6302 47.19 73.2802 48.8 72.9002 50.35C72.5302 51.85 71.3202 53.18 69.5902 54.01C68.3902 54.58 67.0902 54.88 65.8302 55.18C65.5302 55.24 65.2302 55.31 64.9402 55.39C64.2702 55.56 63.7302 55.67 63.3002 55.76C61.7502 56.09 61.2402 56.2 59.2302 57.47C57.5702 58.51 54.7402 61.25 54.4102 67.78V69.99H30.2102V69.52C32.6302 64.67 30.7002 57.17 27.1202 53.1C25.0902 50.79 23.6902 49.39 21.3702 47.38C18.6802 45.03 16.4802 41.99 15.0102 38.6C13.5502 35.2 12.8702 31.52 13.0302 27.95C13.2002 24.37 14.2102 20.76 15.9602 17.5C17.7102 14.25 20.1702 11.42 23.0702 9.32996C27.2102 6.33996 32.5202 4.56996 38.0502 4.34996C42.8602 4.14996 47.2802 4.25996 52.7302 7.53996C53.7902 8.17996 57.4202 10.46 59.3502 12.88C61.0602 15.03 62.8502 17.26 63.9502 19.87C64.1702 20.39 64.3602 20.93 64.5602 21.46C65.0202 22.75 65.4702 23.98 66.2702 24.99C67.2902 26.27 68.6402 27.14 70.0802 28.05C70.5902 28.38 71.1202 28.72 71.6402 29.07C72.2602 29.51 73.0302 30.05 73.3602 30.91C73.6902 31.78 73.4802 32.87 72.8102 33.76C72.2602 34.48 71.5102 35.01 70.8202 35.47C70.7602 35.72 70.7602 35.91 70.8202 36.16C71.0102 36.88 71.6102 37.44 72.3302 38.03C72.7602 38.4 72.8302 39.06 72.4702 39.72C72.3502 39.94 72.1802 40.12 72.0002 40.28C72.2902 40.48 72.5302 40.73 72.6702 41.01C72.9502 41.57 72.9402 42.25 72.6402 42.8C72.5302 43.02 72.3802 43.18 72.2402 43.36C72.1502 43.47 72.0502 43.59 71.9802 43.7C71.6902 44.13 71.6302 44.7 71.8102 45.19C71.8902 45.4 71.9802 45.59 72.0602 45.8V45.78Z" fill="#FFEDE9"/>
<path d="M30.96 8.35997C22.97 11.58 17.14 19.59 16.54 28.19C16.36 30.79 16.65 33.5 17.97 35.75C19.29 38 21.8 39.65 24.4 39.42C26.43 39.23 28.18 37.98 29.82 36.77C36.23 32.03 42.65 27.29 49.06 22.54C50.74 21.3 52.46 20.02 53.65 18.31C54.64 16.9 55.71 14.25 54.8 12.56C54.02 11.11 51.53 9.99997 50.13 9.28997C46.38 7.40997 42.12 6.55997 37.93 6.81997C35.55 6.96997 33.18 7.47997 30.97 8.36997L30.96 8.35997Z" fill="#644DF6"/>
<path d="M71.8101 45.18C71.6201 44.69 71.6901 44.13 71.9801 43.69C72.0501 43.58 72.1501 43.46 72.2401 43.35C72.3801 43.17 72.5301 43.01 72.6401 42.79C72.9401 42.24 72.9501 41.56 72.6701 41C72.5301 40.72 72.2901 40.46 72.0001 40.27C72.1901 40.12 72.3501 39.93 72.4701 39.71C72.8201 39.05 72.7601 38.39 72.3301 38.02C71.6201 37.43 71.0101 36.87 70.8201 36.15C70.7601 35.9 70.7601 35.71 70.8201 35.46C71.5101 35 72.2601 34.47 72.8101 33.75C73.4801 32.86 73.6901 31.77 73.3601 30.9C73.0301 30.04 72.2601 29.51 71.6401 29.06C71.1201 28.71 70.5901 28.37 70.0801 28.04C68.6501 27.13 67.2901 26.26 66.2701 24.98C65.4601 23.97 65.0201 22.74 64.5601 21.45C64.3601 20.92 64.1701 20.38 63.9501 19.86C62.8501 17.25 61.0601 15.02 59.3501 12.87C57.4201 10.45 53.8001 8.16995 52.7301 7.52995C47.2801 4.24995 42.8601 4.13995 38.0501 4.33995C32.5301 4.55995 27.2101 6.31995 23.0701 9.31995C20.1701 11.42 17.7101 14.24 15.9601 17.49C14.2101 20.74 13.1901 24.35 13.0301 27.94C12.8801 31.51 13.5601 35.2 15.0101 38.59C16.4801 41.99 18.6701 45.02 21.3701 47.37C23.6901 49.38 25.0901 50.78 27.1201 53.09C30.6901 57.17 32.6201 64.66 30.2101 69.51V69.98H54.4001V67.77C54.7401 61.24 57.5701 58.5 59.2301 57.46C61.2301 56.19 61.7501 56.08 63.3001 55.75C63.7301 55.66 64.2701 55.54 64.9401 55.38C65.2301 55.31 65.5301 55.24 65.8301 55.17C67.0901 54.87 68.3901 54.57 69.5901 54C71.3201 53.16 72.5301 51.83 72.9001 50.34C73.2801 48.79 72.6301 47.18 72.0601 45.77C71.9801 45.56 71.8901 45.37 71.8101 45.16V45.18ZM72.1801 50.18C71.8601 51.46 70.8001 52.62 69.2601 53.36C68.1301 53.9 66.8801 54.19 65.6601 54.46L64.7601 54.68C64.1001 54.83 63.5901 54.95 63.1401 55.05C61.5401 55.39 60.9401 55.52 58.8401 56.86C56.9201 58.07 55.5101 59.99 54.6301 62.58C54.1001 64.13 53.7701 65.91 53.6801 67.76V67.78L30.5101 69.88C32.6401 64.72 31.2701 56.73 27.6701 52.63C25.6201 50.28 24.2001 48.87 21.8601 46.83C19.2401 44.56 17.1101 41.61 15.7001 38.31C14.2901 35.02 13.6101 31.45 13.7701 27.98C13.9201 24.51 14.9101 21.01 16.6101 17.85C18.3101 14.69 20.7001 11.95 23.5201 9.90995C27.5401 7.00995 32.7201 5.28995 38.0901 5.06995C43.7701 4.83995 47.5501 5.26995 52.3701 8.16995C53.4001 8.79995 56.9301 11.01 58.7801 13.33C60.4701 15.45 62.2201 17.62 63.2801 20.14C63.5001 20.65 63.6901 21.18 63.8801 21.7C64.3401 22.99 64.8301 24.33 65.7101 25.44C66.8001 26.82 68.2801 27.75 69.6901 28.66C70.2101 28.98 70.7201 29.32 71.2301 29.67C71.8901 30.13 72.4601 30.57 72.6901 31.17C72.9801 31.92 72.6501 32.77 72.2501 33.31C71.7501 33.98 71.0201 34.47 70.3201 34.93C70.2601 34.98 70.2001 35.05 70.1801 35.13C70.0501 35.57 70.0401 35.92 70.1501 36.34C70.4001 37.35 71.2601 38.07 71.8801 38.6C72.0701 38.74 71.9901 39.11 71.8501 39.37C71.7001 39.67 71.3701 39.89 71.0401 39.92C70.8501 39.94 70.7201 40.1 70.7101 40.28C70.7101 40.47 70.8401 40.62 71.0301 40.64C71.4101 40.69 71.8801 41.02 72.0401 41.34C72.2101 41.68 72.2101 42.11 72.0201 42.44C71.9401 42.58 71.8201 42.73 71.7001 42.87C71.6001 43 71.4801 43.14 71.3801 43.28C70.9701 43.91 70.8801 44.74 71.1501 45.44L71.4001 46.06C71.9601 47.43 72.5201 48.86 72.2001 50.18H72.1801Z" fill="black"/>
<path d="M55.7102 31.29C56.5502 31.29 57.3902 31.12 58.1702 30.77C59.6802 30.1 60.9702 28.77 61.6902 27.12C61.7702 26.93 61.6902 26.72 61.5002 26.64C61.3102 26.56 61.1002 26.64 61.0202 26.83C60.3702 28.31 59.2202 29.5 57.8702 30.1C56.5302 30.7 54.9902 30.71 53.6402 30.14C53.4502 30.06 53.2402 30.14 53.1602 30.33C53.0802 30.52 53.1602 30.73 53.3502 30.81C54.1002 31.13 54.9002 31.29 55.7102 31.29Z" fill="black"/>
<path opacity="0.4" d="M46.6602 37.3999C47.0302 40.9899 47.9702 44.5999 50.0302 47.5499C52.0902 50.5099 55.4102 52.7299 59.0102 52.8499C55.8002 56.2899 51.4502 58.4999 46.9302 59.8299C42.4202 61.16 37.7102 61.6699 33.0302 62.1799C28.9502 62.6199 24.6102 63.0199 20.9402 61.1799C17.8402 59.6199 15.6602 56.6299 14.4002 53.3999C13.1402 50.1699 12.7002 46.6899 12.3102 43.2499C11.5302 36.3699 10.9202 29.2699 12.8402 22.6099C15.0102 15.1099 20.4702 8.61995 27.4902 5.19994C34.5202 1.78994 42.9902 1.49994 50.2302 4.42994C51.9502 5.12995 56.2302 6.84995 56.7202 8.91995C57.1002 10.5099 54.5202 11.4499 53.5702 12.3199C49.7302 15.8599 47.8202 22.6999 46.9802 27.6599C46.4402 30.8699 46.3102 34.1499 46.6502 37.3899L46.6602 37.3999Z" fill="#644DF6"/>
<path d="M66.5004 20.7699L66.9304 20.6199C66.9904 20.7899 67.0504 20.9699 67.1004 21.1499L66.6604 21.2899C66.6104 21.1199 66.5504 20.9399 66.4904 20.7699H66.5004ZM66.1204 19.7499L66.5504 19.5799C66.6204 19.7499 66.6904 19.9299 66.7504 20.0999L66.3204 20.2599C66.2604 20.0899 66.1904 19.9199 66.1304 19.7499H66.1204ZM65.6904 18.7499L66.1104 18.5599C66.1904 18.7299 66.2604 18.8999 66.3304 19.0699L65.9104 19.2499C65.8404 19.0799 65.7704 18.9199 65.6904 18.7499ZM65.2204 17.7699L65.6304 17.5599C65.7104 17.7199 65.8004 17.8899 65.8804 18.0599L65.4704 18.2599C65.3904 18.0999 65.3104 17.9299 65.2304 17.7699H65.2204ZM64.7004 16.8099L65.1004 16.5799C65.1904 16.7399 65.2804 16.8999 65.3704 17.0699L64.9704 17.2899C64.8804 17.1299 64.8004 16.9699 64.7104 16.8099H64.7004ZM64.1404 15.8799L64.5304 15.6399C64.6304 15.7999 64.7304 15.9599 64.8204 16.1099L64.4304 16.3499C64.3404 16.1999 64.2404 16.0399 64.1404 15.8899V15.8799ZM63.5404 14.9699L63.9204 14.7099C64.0204 14.8599 64.1304 15.0099 64.2304 15.1699L63.8504 15.4199C63.7504 15.2699 63.6504 15.1199 63.5404 14.9699ZM62.9004 14.0899L63.2604 13.8099C63.3704 13.9599 63.4804 14.1099 63.5904 14.2499L63.2204 14.5199C63.1104 14.3699 63.0004 14.2299 62.8904 14.0799L62.9004 14.0899ZM62.2204 13.2399L62.5704 12.9499C62.6904 13.0899 62.8104 13.2299 62.9204 13.3799L62.5604 13.6699C62.4504 13.5299 62.3304 13.3899 62.2104 13.2499L62.2204 13.2399ZM61.5004 12.4299L61.8404 12.1199C61.9604 12.2599 62.0904 12.3899 62.2104 12.5299L61.8704 12.8299C61.7504 12.6899 61.6304 12.5599 61.5104 12.4299H61.5004ZM60.7404 11.6399L61.0604 11.3099C61.1904 11.4399 61.3204 11.5699 61.4504 11.6999L61.1204 12.0199C60.9904 11.8899 60.8704 11.7599 60.7404 11.6299V11.6399ZM59.9504 10.8999L60.2604 10.5599C60.4004 10.6799 60.5304 10.8099 60.6704 10.9399L60.3604 11.2699C60.2304 11.1499 60.0904 11.0199 59.9604 10.8999H59.9504ZM59.1304 10.1899L59.4204 9.83995C59.5604 9.95995 59.7004 10.0799 59.8504 10.1999L59.5504 10.5499C59.4104 10.4299 59.2704 10.3099 59.1304 10.1999V10.1899ZM58.2704 9.51995L58.5404 9.14995C58.6904 9.25995 58.8304 9.36995 58.9804 9.48995L58.7004 9.84995C58.5604 9.73995 58.4104 9.62995 58.2704 9.51995ZM57.3804 8.88995L57.6404 8.50995C57.7904 8.60995 57.9504 8.71995 58.1004 8.82995L57.8404 9.19995C57.6904 9.09995 57.5404 8.98995 57.3904 8.88995H57.3804Z" fill="black"/>
<path d="M32.5803 63.0199C32.6103 62.8399 32.6403 62.6699 32.6603 62.4899L33.1103 62.5499C33.0903 62.7299 33.0603 62.9199 33.0203 63.1099L32.5703 63.0299L32.5803 63.0199ZM32.7103 61.9599C32.7203 61.7799 32.7303 61.5999 32.7303 61.4199H33.1903C33.1903 61.6199 33.1803 61.7999 33.1603 61.9899L32.7003 61.9599H32.7103ZM32.7003 60.3399L33.1603 60.2999C33.1803 60.4899 33.1903 60.6699 33.1903 60.8599H32.7303C32.7303 60.6999 32.7103 60.5199 32.7003 60.3399ZM32.5703 59.2799L33.0203 59.1999C33.0503 59.3799 33.0803 59.5699 33.1003 59.7499L32.6503 59.8099C32.6303 59.6299 32.6003 59.4499 32.5703 59.2799ZM32.3403 58.2199L32.7803 58.0999C32.8303 58.2799 32.8703 58.4599 32.9103 58.6399L32.4603 58.7399C32.4203 58.5599 32.3803 58.3899 32.3303 58.2199H32.3403ZM32.0203 57.1899L32.4503 57.0399C32.5103 57.2199 32.5703 57.3899 32.6203 57.5699L32.1803 57.6999C32.1303 57.5299 32.0703 57.3599 32.0103 57.1899H32.0203ZM31.6203 56.1799L32.0403 55.9999C32.1103 56.1699 32.1903 56.3399 32.2503 56.5199L31.8203 56.6899C31.7503 56.5199 31.6903 56.3599 31.6103 56.1899L31.6203 56.1799ZM31.1603 55.2099L31.5703 54.9999C31.6603 55.1599 31.7403 55.3299 31.8203 55.4999L31.4103 55.6999C31.3303 55.5399 31.2503 55.3799 31.1703 55.2199L31.1603 55.2099ZM30.6203 54.2599L31.0103 54.0199C31.1103 54.1799 31.2003 54.3399 31.2903 54.4999L30.8903 54.7299C30.8003 54.5699 30.7103 54.4199 30.6203 54.2599ZM30.0303 53.3499L30.4103 53.0899C30.5103 53.2399 30.6203 53.3999 30.7203 53.5499L30.3403 53.7999C30.2403 53.6499 30.1403 53.4999 30.0403 53.3499H30.0303ZM29.3903 52.4699L29.7503 52.1899C29.8603 52.3399 29.9803 52.4899 30.0803 52.6299L29.7103 52.8999C29.6103 52.7599 29.5003 52.6099 29.3803 52.4599L29.3903 52.4699ZM28.7103 51.6199L29.0603 51.3299C29.1803 51.4699 29.3003 51.6099 29.4103 51.7599L29.0503 52.0499C28.9403 51.9099 28.8203 51.7699 28.7003 51.6299L28.7103 51.6199ZM27.9903 50.7999L28.3303 50.4899C28.4503 50.6299 28.5803 50.7599 28.7003 50.8999L28.3503 51.1999C28.2303 51.0599 28.1103 50.9299 27.9903 50.7899V50.7999ZM27.2503 50.0099L27.5803 49.6899C27.7103 49.8199 27.8403 49.9599 27.9603 50.0899L27.6303 50.3999C27.5103 50.2699 27.3803 50.1399 27.2503 49.9999V50.0099ZM26.4803 49.2299L26.8003 48.8999C26.9303 49.0299 27.0603 49.1599 27.1903 49.2899L26.8703 49.6099C26.7403 49.4799 26.6103 49.3499 26.4803 49.2199V49.2299ZM25.9903 48.7599C25.8903 48.6599 25.7903 48.5699 25.6903 48.4699L26.0003 48.1399C26.1003 48.2399 26.2003 48.3299 26.3003 48.4299L26.4003 48.5199L26.0803 48.8499L25.9803 48.7599H25.9903ZM24.8903 47.7299L25.2003 47.3899C25.3403 47.5099 25.4703 47.6399 25.6003 47.7599L25.2903 48.0999C25.1603 47.9799 25.0203 47.8499 24.8903 47.7299ZM24.0703 46.9899L24.3803 46.6499C24.5203 46.7699 24.6503 46.8999 24.7903 47.0199L24.4803 47.3599C24.3403 47.2399 24.2103 47.1099 24.0703 46.9899ZM23.2603 46.2499L23.5703 45.9099L23.9803 46.2799L23.6703 46.6199L23.2603 46.2499ZM22.4403 45.5199L22.7503 45.1799C22.8903 45.2999 23.0203 45.4299 23.1603 45.5499L22.8503 45.8899C22.7103 45.7699 22.5803 45.6399 22.4403 45.5199ZM21.6303 44.7699L21.9403 44.4299C22.0703 44.5499 22.2103 44.6799 22.3403 44.7999L22.0303 45.1399C21.8903 45.0199 21.7603 44.8899 21.6203 44.7699H21.6303ZM20.8203 44.0199L21.1403 43.6899C21.2703 43.8199 21.4003 43.9399 21.5403 44.0699L21.2303 44.3999C21.1003 44.2699 20.9603 44.1499 20.8303 44.0199H20.8203ZM20.0303 43.2499L20.3503 42.9299C20.4803 43.0599 20.6103 43.1899 20.7403 43.3099L20.4203 43.6399C20.2903 43.5099 20.1603 43.3799 20.0303 43.2499Z" fill="black"/>
<path d="M55.9104 65.4499C55.9504 65.2699 56.0004 65.0899 56.0404 64.9099L56.4804 65.0199C56.4404 65.1999 56.3904 65.3699 56.3504 65.5499L55.9004 65.4399L55.9104 65.4499ZM56.1904 64.3799C56.2404 64.1899 56.2904 64.0199 56.3404 63.8499L56.7804 63.9799C56.7304 64.1499 56.6804 64.3199 56.6304 64.4999L56.1904 64.3799ZM56.5004 63.3199C56.5604 63.1399 56.6204 62.9599 56.6804 62.7899L57.1104 62.9499C57.0504 63.1099 56.9904 63.2899 56.9304 63.4599L56.5004 63.3199ZM56.8904 62.2699C56.9604 62.0999 57.0404 61.9199 57.1204 61.7599L57.5304 61.9599C57.4504 62.1199 57.3804 62.2799 57.3104 62.4499L56.8904 62.2699ZM57.3804 61.2599C57.4704 61.0899 57.5704 60.9299 57.6704 60.7799L58.0604 61.0299C57.9704 61.1799 57.8704 61.3299 57.7904 61.4899L57.3904 61.2699L57.3804 61.2599ZM57.9904 60.3099C58.1004 60.1599 58.2204 60.0099 58.3504 59.8699L58.6904 60.1699C58.5804 60.2999 58.4604 60.4399 58.3604 60.5799L57.9904 60.3099ZM58.7404 59.4599C58.8704 59.3299 59.0204 59.1999 59.1604 59.0799L59.4504 59.4299C59.3104 59.5399 59.1804 59.6599 59.0504 59.7799L58.7304 59.4499L58.7404 59.4599ZM59.6204 58.7399C59.7704 58.6299 59.9304 58.5299 60.0904 58.4299L60.3304 58.8199C60.1704 58.9099 60.0204 59.0099 59.8804 59.1099L59.6204 58.7299V58.7399ZM60.5804 58.1499C60.7404 58.0699 60.9104 57.9799 61.0804 57.8999L61.2704 58.3199C61.1004 58.3999 60.9404 58.4799 60.7904 58.5599L60.5804 58.1499ZM61.6004 57.6799C61.7604 57.6099 61.9404 57.5399 62.1204 57.4799L62.2804 57.9099C62.1004 57.9799 61.9404 58.0399 61.7804 58.1099L61.6104 57.6899L61.6004 57.6799ZM62.6404 57.2899C62.8104 57.2299 62.9904 57.1699 63.1704 57.1199L63.3104 57.5599C63.1404 57.6199 62.9604 57.6699 62.7904 57.7299L62.6404 57.2999V57.2899ZM63.6904 56.9499C63.8704 56.8999 64.0404 56.8399 64.2204 56.7899L64.3504 57.2299C64.1804 57.2799 64.0004 57.3399 63.8304 57.3899L63.7004 56.9499H63.6904Z" fill="black"/>
<path d="M18.9804 31.8499C19.3104 32.5599 19.7904 33.1499 20.3804 33.5399C21.0304 33.9699 21.8104 34.1599 22.5304 34.0599C22.5304 34.0599 22.5504 34.0599 22.5604 34.0599C22.5804 34.0599 22.6004 34.0399 22.6104 34.0299C22.6104 34.0699 22.6104 34.1099 22.6204 34.1499C22.7404 35.0599 23.3904 35.8499 24.2304 36.1099C24.2804 36.1299 24.3304 36.1399 24.3804 36.1499C24.3804 36.1599 24.3704 36.1699 24.3604 36.1899C24.1404 37.0699 24.2704 38.0199 24.7204 38.7999C25.1704 39.5799 25.9204 40.1799 26.7904 40.4399C27.4904 40.6499 28.3104 40.6399 29.1404 40.4199C29.2004 40.4099 29.2504 40.3899 29.3104 40.3699C29.8504 40.2099 30.5304 39.9099 31.1004 39.3799C31.2304 39.5699 31.3404 39.7699 31.4504 39.9899C31.5104 40.0999 31.5604 40.2199 31.6304 40.3299C31.9004 40.8199 32.2104 41.1299 32.5704 41.2699C32.8304 41.3799 33.1204 41.3799 33.3904 41.2999C33.6404 41.2299 33.8504 41.0799 34.0004 40.8699C34.2204 40.5699 34.2604 40.1899 34.3004 39.8599V39.7699C34.5804 37.5999 35.7804 35.5299 37.5304 34.2199C37.5604 34.1999 37.5704 34.1699 37.5904 34.1399C37.9204 34.1399 38.2604 34.0899 38.5804 33.9899C39.3504 33.7599 40.0504 33.2799 40.5504 32.6099C41.0904 31.8899 41.3804 30.9899 41.3904 30.0499C41.6104 30.3599 41.9104 30.6399 42.2504 30.8399C42.8404 31.1999 43.5704 31.3699 44.3604 31.3299C44.7304 31.3099 45.1004 31.2499 45.4504 31.1499C46.2404 30.9099 46.9404 30.4699 47.4304 29.8699C48.1304 29.0199 48.4004 27.8699 48.1404 26.8499C48.7304 27.2699 49.5204 27.2499 50.1504 27.0599C50.2004 27.0499 50.2504 27.0299 50.2904 27.0099C51.6204 26.5399 52.6604 25.2899 52.8704 23.8999C53.0804 22.5499 52.5104 21.0899 51.4504 20.2299C51.5504 20.1399 51.6404 20.0599 51.7304 19.9599C52.5904 19.0199 52.9204 17.6199 52.5804 16.3699C52.2404 15.1399 51.2804 14.1099 50.0604 13.6799C48.9404 13.2799 47.6404 13.4199 46.6204 14.0199C46.9404 12.9499 46.7204 11.7099 46.0404 10.7399C45.3704 9.78993 44.2704 9.12993 43.0404 8.90993C41.9304 8.71993 40.6904 8.88993 39.5604 9.39993C38.7904 9.74993 38.1904 10.1899 37.7704 10.7299C37.3104 11.3099 37.0604 12.0099 37.0904 12.6799C36.9104 12.6899 36.7404 12.7299 36.5704 12.7799C35.8504 11.7799 34.6704 11.0199 33.3504 10.7199C32.1704 10.4499 30.8404 10.4999 29.4904 10.8699C28.2504 11.2099 27.2004 11.7599 26.3704 12.4999C25.4304 13.3299 24.7904 14.4099 24.5704 15.5299C24.3604 16.5799 24.5504 17.6699 25.0504 18.5399C23.9004 18.3299 22.7104 18.4899 21.7104 19.0099C20.4804 19.6499 19.5604 20.8699 19.3204 22.1799C19.0704 23.5499 19.5704 24.9999 20.5804 25.8799C20.1504 26.1799 19.7704 26.5399 19.4604 26.9699C18.4504 28.3599 18.2604 30.2599 18.9804 31.8199V31.8499ZM31.3704 39.1199C31.3704 39.1199 31.4004 39.0899 31.4104 39.0699C32.0304 38.3299 32.2904 37.3799 32.1104 36.5199C32.1104 36.5199 32.1104 36.5099 32.1104 36.4999C32.2104 36.4799 32.3204 36.4499 32.4204 36.4199C32.6504 36.3499 32.8804 36.2599 33.1104 36.1299C33.9404 35.6899 34.5904 34.9599 34.8904 34.1299C35.0204 33.7699 35.0804 33.3799 35.0704 32.9999C35.5704 33.5899 36.2904 33.9899 37.0804 34.1099C35.3804 35.4799 34.2104 37.5599 33.9404 39.7299V39.8199C33.8904 40.1299 33.8604 40.4299 33.7004 40.6599C33.4904 40.9499 33.0604 41.0699 32.7004 40.9299C32.4204 40.8199 32.1804 40.5599 31.9504 40.1499C31.8904 40.0399 31.8404 39.9299 31.7804 39.8199C31.6604 39.5799 31.5304 39.3299 31.3604 39.0999L31.3704 39.1199ZM19.7604 27.2199C20.6804 25.9599 22.3404 25.2399 23.8904 25.4299C23.9904 25.4399 24.0804 25.3699 24.0904 25.2699C24.1004 25.1699 24.0304 25.0799 23.9304 25.0699C22.8704 24.9399 21.8004 25.1899 20.8904 25.7199C20.8804 25.6999 20.8704 25.6799 20.8504 25.6699C19.9104 24.8699 19.4604 23.5399 19.6804 22.2799C19.9004 21.0799 20.7404 19.9599 21.8704 19.3699C22.9004 18.8299 24.1604 18.7099 25.3404 19.0099C25.3504 19.0199 25.3704 19.0299 25.3804 19.0399C24.7304 19.8999 24.6004 21.1199 25.1004 22.0899C25.1404 22.1699 25.2304 22.2099 25.3204 22.1799C25.3304 22.1799 25.3404 22.1799 25.3504 22.1699C25.4404 22.1199 25.4804 22.0099 25.4304 21.9199C24.9504 20.9899 25.1504 19.7399 25.8904 19.0099C26.6304 18.2799 27.8804 18.0899 28.8004 18.5799C28.8904 18.6299 29.0004 18.5899 29.0504 18.4999C29.1004 18.4099 29.0604 18.2999 28.9704 18.2499C27.9104 17.6899 26.5204 17.8899 25.6604 18.7199C25.6204 18.7099 25.5904 18.6999 25.5504 18.6899C24.9404 17.8599 24.7004 16.7199 24.9104 15.6299C25.1104 14.5899 25.7104 13.5799 26.6004 12.8099C27.3904 12.1099 28.3904 11.5899 29.5804 11.2599C30.8704 10.8999 32.1404 10.8499 33.2604 11.1099C34.4604 11.3899 35.5304 12.0599 36.2104 12.9499C36.0304 13.0299 35.8604 13.1299 35.7004 13.2599C35.0304 13.7799 34.6504 14.6199 34.7004 15.4599C34.7004 15.5599 34.7904 15.6399 34.8904 15.6299C34.9904 15.6299 35.0704 15.5399 35.0604 15.4399C35.0204 14.7199 35.3504 13.9899 35.9204 13.5499C36.4904 13.1099 37.2804 12.9699 37.9704 13.1799C38.6604 13.3999 39.2204 13.9699 39.4304 14.6599C39.4604 14.7599 39.5604 14.8099 39.6604 14.7799C39.7604 14.7499 39.8104 14.6499 39.7804 14.5499C39.5304 13.7399 38.8804 13.0799 38.0804 12.8299C37.8804 12.7699 37.6704 12.7299 37.4504 12.7199C37.4304 12.1399 37.6404 11.5199 38.0504 10.9999C38.4404 10.5099 38.9904 10.0999 39.7104 9.77993C40.7804 9.29993 41.9304 9.12993 42.9704 9.30993C44.1104 9.50993 45.1104 10.1199 45.7304 10.9899C46.3904 11.9099 46.5704 13.1099 46.2104 14.1099C46.1804 14.1899 46.2104 14.2799 46.2904 14.3299C46.2804 14.3799 46.2904 14.4299 46.3204 14.4799C46.3804 14.5599 46.4904 14.5799 46.5704 14.5299C47.5304 13.8599 48.8204 13.6799 49.9304 14.0799C51.0404 14.4699 51.9204 15.4099 52.2204 16.5299C52.5304 17.6499 52.2204 18.9299 51.4504 19.7699C50.6604 20.6299 49.4204 21.0199 48.2904 20.7699C48.1904 20.7499 48.0904 20.8099 48.0704 20.9099C48.0504 21.0099 48.1104 21.1099 48.2104 21.1299C48.8204 21.2699 49.4604 21.2399 50.0504 21.0599C50.4404 20.9399 50.8104 20.7599 51.1404 20.5299C52.1404 21.3099 52.6804 22.6599 52.4904 23.9099C52.2904 25.1699 51.3504 26.3099 50.1504 26.7399C49.5504 26.9499 48.7404 26.9999 48.2204 26.5299C48.4504 26.3199 48.6304 26.0699 48.7504 25.7899C49.0504 25.0899 48.9004 24.2599 48.3904 23.7599C48.3204 23.6899 48.2004 23.6899 48.1304 23.7599C48.0604 23.8299 48.0604 23.9499 48.1304 24.0199C48.5204 24.3999 48.6404 25.0799 48.4004 25.6399C48.1804 26.1599 47.6804 26.5799 47.0604 26.7599C46.5204 26.9199 45.8804 26.9099 45.2204 26.7199C45.1204 26.6899 45.0204 26.7499 44.9904 26.8499C44.9604 26.9499 45.0204 27.0499 45.1204 27.0799C45.8504 27.2799 46.5504 27.2999 47.1604 27.1199C47.3504 27.0599 47.5304 26.9799 47.7004 26.8899C47.9804 27.8199 47.7504 28.9099 47.0904 29.7099C46.4404 30.4999 45.3904 30.9999 44.2804 31.0399C43.5604 31.0699 42.9104 30.9199 42.3704 30.5999C41.7904 30.2499 41.3704 29.6899 41.2504 29.0899C41.2304 28.9899 41.1304 28.9299 41.0304 28.9499C40.9304 28.9699 40.8704 29.0699 40.8904 29.1699C40.8904 29.1999 40.9104 29.2299 40.9104 29.2599C40.9004 29.2899 40.8904 29.3199 40.9004 29.3599C41.0804 30.4699 40.8204 31.6299 40.1904 32.4699C39.5204 33.3699 38.4404 33.8999 37.3904 33.8499C36.3004 33.7999 35.2604 33.0999 34.8604 32.1399C34.8604 32.1399 34.8504 32.1199 34.8404 32.1099C34.7704 31.9099 34.6804 31.7099 34.5604 31.5299C34.5104 31.4399 34.3904 31.4199 34.3104 31.4799C34.2204 31.5299 34.2004 31.6499 34.2604 31.7299C34.6804 32.3899 34.7704 33.2799 34.4904 34.0699C34.2204 34.8099 33.6404 35.4599 32.8804 35.8699C32.0604 36.3099 31.1404 36.3799 30.4404 36.0599C29.6604 35.6999 29.1904 34.8099 29.4004 34.0699C29.4304 33.9699 29.3704 33.8699 29.2704 33.8399C29.1704 33.8099 29.0704 33.8699 29.0404 33.9699C28.7804 34.8799 29.3404 35.9699 30.2804 36.3999C30.7104 36.5899 31.1904 36.6599 31.7004 36.6199C31.7004 36.6299 31.7004 36.6499 31.7004 36.6599C31.8604 37.3999 31.6204 38.2499 31.0804 38.8999C30.4604 39.6399 29.6104 39.9799 29.0004 40.1399C28.2304 40.3399 27.4904 40.3499 26.8504 40.1599C26.0704 39.9299 25.4004 39.3999 24.9904 38.6899C24.5904 37.9899 24.4704 37.1299 24.6704 36.3499C24.6704 36.3199 24.6704 36.2999 24.6704 36.2699C24.9304 36.2799 25.1804 36.2499 25.4304 36.1799C25.9004 36.0399 26.3104 35.7499 26.5704 35.3499C26.6204 35.2699 26.6004 35.1499 26.5204 35.0999C26.4404 35.0499 26.3204 35.0699 26.2704 35.1499C25.8704 35.7599 25.0304 36.0599 24.3004 35.8299C23.6004 35.6099 23.0404 34.9299 22.9404 34.1699C22.8504 33.4399 23.1704 32.6299 23.7604 32.1299C23.7704 32.1299 23.7804 32.1099 23.7904 32.0999C23.8404 32.1399 23.8904 32.1799 23.9404 32.2099C24.5204 32.6099 25.2904 32.7099 25.9604 32.4999C26.1904 32.4299 26.4204 32.3199 26.6204 32.1799C26.7004 32.1199 26.7204 32.0099 26.6604 31.9199C26.6004 31.8399 26.4904 31.8199 26.4004 31.8799C25.7504 32.3499 24.8004 32.3499 24.1504 31.8999C23.4904 31.4499 23.1604 30.5599 23.3704 29.7899C23.4004 29.6899 23.3404 29.5899 23.2404 29.5699C23.1404 29.5399 23.0404 29.5999 23.0204 29.6999C22.8204 30.4399 23.0404 31.2699 23.5404 31.8499C22.9604 32.3499 22.6104 33.0699 22.5804 33.7999C22.5404 33.7799 22.5004 33.7599 22.4504 33.7699C21.8204 33.8599 21.1304 33.6899 20.5604 33.2999C20.0304 32.9399 19.5904 32.4099 19.2904 31.7599C18.6404 30.3399 18.8204 28.5399 19.7404 27.2799L19.7604 27.2199Z" fill="white"/>
<path d="M38.7305 19.2C38.4105 19.9 38.5305 20.8 39.0205 21.39C39.0905 21.47 39.0805 21.58 39.0005 21.65C38.9805 21.67 38.9605 21.68 38.9305 21.69C38.8605 21.71 38.7905 21.69 38.7405 21.63C38.1505 20.92 38.0105 19.89 38.3905 19.05C38.7805 18.21 39.6605 17.65 40.5805 17.64C41.5005 17.64 42.3905 18.19 42.7805 19.03C42.8205 19.12 42.7805 19.23 42.6905 19.27C42.6005 19.31 42.4905 19.27 42.4505 19.18C42.1205 18.48 41.3505 18 40.5805 18C39.8105 18 39.0405 18.5 38.7205 19.2H38.7305Z" fill="white"/>
<path d="M29.1101 25.5199C29.2101 25.4999 29.3001 25.5699 29.3201 25.6699C29.3401 25.7699 29.2701 25.8599 29.1701 25.8799C28.1601 26.0599 27.2501 26.8099 26.9201 27.7699C26.5801 28.7499 26.8301 29.8899 27.5501 30.6099C28.2801 31.3399 29.4401 31.5699 30.3701 31.1699C30.4601 31.1299 30.5701 31.1699 30.6101 31.2699C30.6501 31.3599 30.6101 31.4699 30.5101 31.5099C30.4201 31.5499 30.3301 31.5799 30.2301 31.6099C29.2201 31.9099 28.0401 31.6299 27.2801 30.8699C26.4601 30.0499 26.1701 28.7599 26.5601 27.6499C26.9401 26.5599 27.9401 25.7299 29.0901 25.5199H29.1101Z" fill="white"/>
<path d="M30.5903 28.7299C30.6403 28.6399 30.7503 28.6099 30.8403 28.6599C31.5403 29.0399 32.4203 29.0699 33.1403 28.7399C33.8603 28.4099 34.4103 27.7099 34.5703 26.9299C34.7203 26.2099 34.5403 25.4299 34.1003 24.8499C33.7903 25.1399 33.4103 25.3499 33.0003 25.4799C32.7903 25.5399 32.5603 25.5799 32.3403 25.5899C31.5503 25.6199 30.5803 25.1999 30.3603 24.3399C30.3303 24.2399 30.3903 24.1399 30.4903 24.1199C30.5903 24.0899 30.6903 24.1499 30.7103 24.2499C30.8903 24.9199 31.6703 25.2599 32.3203 25.2299C33.0903 25.1999 33.8303 24.7699 34.2403 24.1099C34.6503 23.4499 34.7203 22.6099 34.4103 21.8899C34.3703 21.7999 34.4103 21.6899 34.5103 21.6499C34.6003 21.6099 34.7103 21.6499 34.7503 21.7499C35.1003 22.5699 35.0303 23.5499 34.5603 24.3099C34.5003 24.4099 34.4303 24.4999 34.3503 24.5899C34.8003 25.1599 35.0303 25.8999 34.9803 26.6199L34.9203 27.0599C34.7203 27.9299 34.1003 28.6999 33.2903 29.0699C33.1703 29.1299 33.0503 29.1699 32.9203 29.2099C32.1803 29.4299 31.3403 29.3499 30.6603 28.9799C30.5703 28.9299 30.5403 28.8199 30.5903 28.7299Z" fill="white"/>
<path d="M38.7202 26.7899C38.6902 26.6599 38.8202 26.5399 38.9502 26.5799C39.3802 26.7099 39.8502 26.7299 40.2902 26.6099C40.8202 26.4699 41.3202 26.1399 41.6502 25.6999C41.8102 25.4899 41.9802 25.1699 41.9202 24.8499C41.9002 24.7499 41.9702 24.6599 42.0702 24.6399C42.1702 24.6199 42.2602 24.6899 42.2802 24.7899C42.3602 25.2399 42.1402 25.6499 41.9402 25.9199C41.8602 26.0299 41.7602 26.1399 41.6602 26.2399C41.3102 26.5899 40.8602 26.8499 40.3802 26.9699C39.8702 27.0999 39.3402 27.0799 38.8502 26.9299C38.7902 26.9099 38.7402 26.8599 38.7302 26.7899H38.7202Z" fill="white"/>
<path d="M35.2403 18.6199C35.1803 18.6999 35.0603 18.7099 34.9803 18.6399C34.0803 17.8799 32.6003 17.8699 31.6803 18.6199C30.7703 19.3599 30.4703 20.8199 31.0303 21.8599C31.0803 21.9499 31.0403 22.0599 30.9603 22.1099C30.9503 22.1099 30.9403 22.1199 30.9303 22.1199C30.8503 22.1399 30.7603 22.1099 30.7203 22.0299C30.0703 20.8199 30.4003 19.1999 31.4603 18.3399C32.5203 17.4799 34.1803 17.4899 35.2303 18.3699C35.3103 18.4299 35.3203 18.5499 35.2503 18.6299L35.2403 18.6199Z" fill="white"/>
</g>
</g>
<defs>
<clipPath id="clip0_616_233">
<rect width="114.13" height="113.85" fill="white"/>
</clipPath>
</defs>
</svg>
