<svg xmlns="http://www.w3.org/2000/svg" width="14" height="17" viewBox="0 0 14 17" fill="none">
  <g clip-path="url(#clip0_1799_158453)">
    <path d="M11.9188 9.55657H10.5598V4.99291C10.5598 3.00027 8.96334 1.37964 7.00043 1.37964C5.03752 1.37964 3.44108 3.00027 3.44108 4.99291V9.55657H2.08203V4.99291C2.08203 2.23966 4.28826 0 7.00043 0C9.71259 0 11.9188 2.23966 11.9188 4.99291V9.55657Z" fill="#737270"/>
    <path d="M13.4733 7.39062H0.526706C0.235814 7.39062 0 7.63001 0 7.92531V16.4652C0 16.7605 0.235814 16.9999 0.526706 16.9999H13.4733C13.7642 16.9999 14 16.7605 14 16.4652V7.92531C14 7.63001 13.7642 7.39062 13.4733 7.39062Z" fill="#FFCD07"/>
    <path d="M13.9997 16.4638V11.2329C9.73412 14.8959 3.58575 16.2725 0.100586 16.7771C0.197025 16.9111 0.351328 17 0.526402 17H13.4715C13.7623 17 13.9982 16.7605 13.9982 16.4653L13.9997 16.4638Z" fill="#FBB715"/>
    <path d="M8.15536 10.748C8.15536 10.0989 7.63756 9.57324 6.99809 9.57324C6.35862 9.57324 5.84082 10.0989 5.84082 10.748C5.84082 11.1351 6.02628 11.477 6.30966 11.6909L5.94171 14.3463H8.05447L7.68652 11.6909C7.9699 11.477 8.15536 11.1351 8.15536 10.748Z" fill="#58595B"/>
    <path d="M0.44043 8.40428V10.2433C0.487907 9.46311 0.858827 7.76416 3.17337 7.76416H1.07248C0.725296 7.76416 0.44043 8.05334 0.44043 8.40578V8.40428Z" fill="#FFDC54"/>
    <path d="M5.94336 14.346C5.94336 14.346 7.51161 13.8957 7.68817 11.6907L8.05612 14.346H5.94336Z" fill="#3D3B3E"/>
  </g>
  <defs>
    <clipPath id="clip0_1799_158453">
      <rect width="14" height="17" fill="white"/>
    </clipPath>
  </defs>
</svg>