<svg width="28" height="19" viewBox="0 0 28 19" fill="none" xmlns="http://www.w3.org/2000/svg">
<g filter="url(#filter0_d_26_10930)">
<path d="M13.8438 14C14.4821 14 15 14.6686 15 15.4932V15.5068C15 16.3314 14.4821 17 13.8438 17H2.15625C1.51794 17 1 16.3314 1 15.5068V15.4932C1 14.6686 1.51794 14 2.15625 14H13.8438ZM18.668 6.34375H27V10.6562H18.668L20.7852 17L12 8.50684L20.7852 0L18.668 6.34375ZM9.96387 7C10.5361 7.00003 11 7.66864 11 8.49316V8.50684C11 9.33136 10.5361 9.99997 9.96387 10H2.03613C1.46389 9.99997 1 9.33136 1 8.50684V8.49316C1 7.66864 1.46389 7.00003 2.03613 7H9.96387ZM13.8438 0C14.4821 0 15 0.668626 15 1.49316V1.50684C15 2.33137 14.4821 3 13.8438 3H2.15625C1.51794 3 1 2.33137 1 1.50684V1.49316C1 0.668626 1.51794 0 2.15625 0H13.8438Z" fill="#0047FF"/>
</g>
<defs>
<filter id="filter0_d_26_10930" x="0" y="0" width="28" height="19" filterUnits="userSpaceOnUse" color-interpolation-filters="sRGB">
<feFlood flood-opacity="0" result="BackgroundImageFix"/>
<feColorMatrix in="SourceAlpha" type="matrix" values="0 0 0 0 0 0 0 0 0 0 0 0 0 0 0 0 0 0 127 0" result="hardAlpha"/>
<feOffset dy="1"/>
<feGaussianBlur stdDeviation="0.5"/>
<feComposite in2="hardAlpha" operator="out"/>
<feColorMatrix type="matrix" values="0 0 0 0 0 0 0 0 0 0 0 0 0 0 0 0 0 0 0.1 0"/>
<feBlend mode="normal" in2="BackgroundImageFix" result="effect1_dropShadow_26_10930"/>
<feBlend mode="normal" in="SourceGraphic" in2="effect1_dropShadow_26_10930" result="shape"/>
</filter>
</defs>
</svg>
