<svg width="24" height="18" viewBox="0 0 24 18" fill="none" xmlns="http://www.w3.org/2000/svg">
<g clip-path="url(#clip0_813_2986)">
<path fill-rule="evenodd" clip-rule="evenodd" d="M23.9999 18C22.9394 12.3909 19.2389 11.9911 18.7161 11.9623H18.7141C18.6985 11.9616 18.6861 11.9609 18.6764 11.9602H18.6738H18.6725H18.6712H18.6699H18.6647H18.664H18.6634H18.6627H18.6614H18.6575H18.6061C18.6152 12.0014 18.6204 12.0432 18.6204 12.0857C18.6204 12.5796 17.9719 12.9808 17.1712 12.9808C16.3704 12.9808 15.7219 12.5802 15.7219 12.0857C15.7219 12.0432 15.7272 12.0014 15.7363 11.9602C15.7024 11.9602 15.6692 11.9609 15.6354 11.9623H15.6262C12.6451 12.0391 10.9042 15.2339 10.3456 18H24.0006H23.9999Z" fill="#EFADFF"/>
<path fill-rule="evenodd" clip-rule="evenodd" d="M17.1706 18V12.9801C16.3704 12.9801 15.7213 12.5796 15.7213 12.085C15.7213 12.0425 15.7265 12.0007 15.7357 11.9595C15.7018 11.9595 15.6686 11.9602 15.6347 11.9616H15.6256C12.6445 12.0384 10.9036 15.2332 10.345 17.9993H17.1706V18Z" fill="#EFADFF"/>
<path fill-rule="evenodd" clip-rule="evenodd" d="M17.1907 2.13238H17.1985H17.2044C19.1985 2.17627 20.6321 2.6749 21.0482 4.83402C21.166 5.44514 21.2103 6.06653 21.222 6.72497C21.1864 8.60188 20.8346 11.9766 20.1649 13.2919C20.0217 13.5732 19.6866 13.6843 19.4068 13.5382C18.5887 13.1111 18.1014 11.9943 18.1836 10.4691C18.3782 10.3958 19.3183 9.13718 19.4043 8.87792C19.4062 8.87243 19.4082 8.86695 19.4095 8.86077V8.85872C19.4121 8.85323 19.4134 8.84774 19.4147 8.84225V8.84088C19.4166 8.8354 19.4179 8.82922 19.4193 8.82305V8.82099C19.4212 8.81482 19.4225 8.80865 19.4238 8.80247V8.8011C19.4251 8.79493 19.4264 8.78876 19.4271 8.78258V8.77984C19.4284 8.77367 19.4297 8.76749 19.4303 8.76132V8.75858C19.4316 8.75172 19.4323 8.74555 19.4336 8.73869V8.73732C19.4342 8.73046 19.4349 8.7236 19.4362 8.71743V8.714C19.4375 8.70782 19.4375 8.70096 19.4381 8.69411V8.69205C19.4388 8.68519 19.4394 8.67765 19.4401 8.67079V8.66941C19.4401 8.66256 19.4407 8.6557 19.4414 8.64884V8.64335C19.4414 8.63649 19.442 8.63032 19.442 8.62346V8.6214C19.442 8.61386 19.442 8.607 19.442 8.59946V8.59603C19.442 8.58917 19.442 8.58231 19.442 8.57545V8.57134C19.442 8.56379 19.442 8.55625 19.442 8.5487V8.54459C19.442 8.53704 19.442 8.53018 19.442 8.52264V8.51921C19.442 8.51235 19.442 8.50481 19.4414 8.49795V8.49246C19.4414 8.4856 19.4407 8.47874 19.4401 8.47188V8.46845V8.46571L19.4388 8.44445V8.43828L19.4368 8.4177V8.41153L19.4342 8.38958V8.38684V8.38478L19.4316 8.36077V8.3594V8.35666L19.429 8.33608L19.4277 8.32717L19.4258 8.30933L19.4245 8.29904L19.4219 8.27984V8.27641C19.4206 8.26749 19.4199 8.25858 19.4186 8.25035V8.24417L19.4147 8.22428L19.4134 8.21674L19.4101 8.19479V8.19205L19.4095 8.1893C19.3528 7.84774 19.7617 7.59808 19.6341 7.41496C19.4635 7.17147 19.2819 6.95954 19.1491 6.67147C18.9544 6.62895 18.873 6.45611 18.5508 6.32236C19.0084 7.14952 18.5703 6.78396 18.138 6.40535C17.7532 6.06859 17.4583 5.6749 17.2031 5.27024L17.1933 5.25515L17.1836 5.27024C16.9284 5.6749 16.6341 6.06791 16.2487 6.40535C15.8164 6.78396 15.3782 7.14952 15.8359 6.32236C15.5143 6.45611 15.4323 6.62895 15.2376 6.67147C15.1041 6.95954 14.9232 7.17147 14.7526 7.41496C14.6243 7.59808 14.7207 7.95199 14.664 8.29424V8.29699L14.6634 8.29973L14.6601 8.32168L14.6588 8.32922L14.6556 8.34911V8.35529C14.6536 8.36352 14.6523 8.37175 14.651 8.37998V8.38135V8.38478L14.6478 8.40398L14.6465 8.41427L14.6445 8.4321L14.6432 8.44102L14.6406 8.4616V8.46434V8.46571L14.638 8.48972V8.49177V8.49452L14.636 8.51647V8.52264L14.6341 8.54321V8.54939L14.6321 8.57065V8.57339V8.57682C14.6321 8.58368 14.6315 8.59054 14.6308 8.5974V8.60289C14.6308 8.60974 14.6302 8.61729 14.6295 8.62415V8.62758C14.6295 8.63512 14.6295 8.64198 14.6295 8.64952V8.65158V8.65364C14.6295 8.66118 14.6295 8.66873 14.6295 8.67627V8.68039C14.6295 8.68725 14.6295 8.69411 14.6295 8.70097V8.70439C14.6295 8.71194 14.6295 8.7188 14.6295 8.72634V8.7284C14.6295 8.73526 14.6295 8.74212 14.6302 8.74829V8.75378C14.6302 8.76064 14.6308 8.76749 14.6315 8.77435V8.77572C14.6315 8.78327 14.6328 8.79013 14.6334 8.79699V8.79904C14.6341 8.8059 14.6347 8.81208 14.6354 8.81893V8.82236C14.6367 8.82922 14.6373 8.83608 14.638 8.84225V8.84363C14.6387 8.85048 14.64 8.85666 14.6406 8.86352V8.86626C14.6419 8.87243 14.6432 8.87861 14.6439 8.88478V8.88752C14.6452 8.89369 14.6465 8.89987 14.6478 8.90604V8.90741C14.6491 8.91358 14.6504 8.91976 14.6517 8.92593V8.92799C14.6536 8.93416 14.6549 8.93965 14.6562 8.94582C14.6575 8.95268 14.6595 8.95817 14.6608 8.96365V8.96571C14.6634 8.9712 14.6647 8.97737 14.6666 8.98286C14.7526 9.24212 16.0052 10.3958 16.1998 10.4691C16.2744 11.8526 15.6024 12.9 15.003 13.4016C14.7257 13.6336 14.3364 13.5435 14.1819 13.2165C13.5365 11.8514 13.197 8.56653 13.1614 6.72497C13.1732 6.06653 13.2174 5.44514 13.3353 4.83402C13.7506 2.67559 15.1849 2.17627 17.179 2.13306H17.1849H17.192L17.1907 2.13238Z" fill="#080037"/>
<path fill-rule="evenodd" clip-rule="evenodd" d="M15.6257 10.3423L18.7155 10.1982C18.7155 10.2126 18.7155 10.3704 18.7155 10.3848C18.7109 10.9781 18.6198 11.6824 18.6198 12.0844C18.6198 12.5782 17.9714 12.9794 17.1706 12.9794C16.3698 12.9794 15.7214 12.5789 15.7214 12.0844C15.7214 11.6728 15.625 10.9438 15.625 10.3416L15.6257 10.3423Z" fill="#DABFA5"/>
<path fill-rule="evenodd" clip-rule="evenodd" d="M17.1048 4.59602C18.6921 4.59602 19.9792 5.98697 19.9792 7.70302C19.9792 9.41907 18.6921 10.81 17.1048 10.81C15.5176 10.81 14.2305 9.41907 14.2305 7.70302C14.2305 5.98697 15.5176 4.59602 17.1048 4.59602Z" fill="#F4DFCC"/>
<path fill-rule="evenodd" clip-rule="evenodd" d="M17.1705 13.9204C17.3216 13.9204 17.444 14.0494 17.444 14.2085C17.444 14.3676 17.3216 14.4966 17.1705 14.4966C17.0195 14.4966 16.8971 14.3676 16.8971 14.2085C16.8971 14.0494 17.0195 13.9204 17.1705 13.9204Z" fill="#00FF00"/>
<path fill-rule="evenodd" clip-rule="evenodd" d="M17.1705 15.6619C17.3216 15.6619 17.444 15.7908 17.444 15.9499C17.444 16.1091 17.3216 16.238 17.1705 16.238C17.0195 16.238 16.8971 16.1091 16.8971 15.9499C16.8971 15.7908 17.0195 15.6619 17.1705 15.6619Z" fill="#00FF00"/>
<path fill-rule="evenodd" clip-rule="evenodd" d="M17.1705 17.4033C17.3216 17.4033 17.444 17.5322 17.444 17.6914C17.444 17.8505 17.3216 17.9794 17.1705 17.9794C17.0195 17.9794 16.8971 17.8505 16.8971 17.6914C16.8971 17.5322 17.0195 17.4033 17.1705 17.4033Z" fill="#00FF00"/>
<path fill-rule="evenodd" clip-rule="evenodd" d="M5.5755 9.12483V13.9355H10.1484V9.11043V8.84225H5.5755V9.12483Z" fill="#EDCEB2"/>
<path fill-rule="evenodd" clip-rule="evenodd" d="M0 17.6166C0 17.6166 0 14.8594 1.22135 14.1241C3.05924 13.0178 4.41862 12.2359 5.58073 11.7771C5.58073 11.7908 5.57943 11.8045 5.57943 11.8182C5.57943 12.6015 6.60026 13.2359 7.85938 13.2359C9.11849 13.2359 10.1393 12.6008 10.1393 11.8182C10.1393 11.8066 10.1393 11.7956 10.1387 11.784C11.2969 12.2435 12.6517 13.0233 14.4798 14.1241C15.7012 14.8594 15.7012 17.6166 15.7012 17.6166V17.9966H0V17.6166Z" fill="#B60808"/>
<path d="M9.80626 9.9367C11.553 8.7993 12.0938 6.38551 11.0141 4.54534C9.93448 2.70517 7.64326 2.13547 5.89654 3.27286C4.14982 4.41026 3.60905 6.82406 4.68869 8.66422C5.76832 10.5044 8.05954 11.0741 9.80626 9.9367Z" fill="#F4DFCC"/>
<path fill-rule="evenodd" clip-rule="evenodd" d="M4.39259 8.05419C4.39259 5.28533 4.5947 5.74075 5.01267 3.81962C5.01267 3.81962 7.5 5.50002 9.5 3.50002C9.5 3.50002 9.99545 2.57888 10.8685 4.71812C11.4544 5.83883 11.2747 6.90673 11.2747 8.13993C13.0755 3.84089 11.6478 -1.28257 6.24024 0.290817C3.11459 1.31962 3.34832 5.45817 4.39259 8.05419Z" fill="black"/>
<path fill-rule="evenodd" clip-rule="evenodd" d="M16.4837 5.09739L13.7357 7.61728L14.6094 3.98422L19.2298 3.90329L20.6465 7.35459L17.5482 5.04184C17.2239 4.79972 16.7838 4.82304 16.4844 5.09808L16.4837 5.09739Z" fill="#080037"/>
<path fill-rule="evenodd" clip-rule="evenodd" d="M19.5736 10.0535V9.27092C19.0267 9.89643 18.2591 10.701 17.4518 10.701H16.8249C15.9818 10.701 15.1543 9.91221 14.6055 9.238L14.5847 9.85117L14.6087 13.5L16.6743 14.8362C17.0048 15.05 17.43 15.05 17.7606 14.8362L19.8261 13.5L19.5736 10.0535Z" fill="#080037"/>
</g>
<defs>
<clipPath id="clip0_813_2986">
<rect width="24" height="18" fill="white"/>
</clipPath>
</defs>
</svg>
