<svg width="120" height="120" viewBox="0 0 120 120" fill="none" xmlns="http://www.w3.org/2000/svg">
<g clip-path="url(#clip0_616_567)">
<rect width="120" height="120" fill="white"/>
<mask id="mask0_616_567" style="mask-type:luminance" maskUnits="userSpaceOnUse" x="0" y="0" width="120" height="120">
<path d="M120 0H0V120H120V0Z" fill="white"/>
</mask>
<g mask="url(#mask0_616_567)">
<path d="M77.6196 108.88V118.84H92.1796H108.23V108.88H77.6196Z" fill="#F5F5F5"/>
<path d="M76.3398 106.1V108.88H109.3V106.1H92.1798H76.3398Z" fill="#E1E1E1"/>
<path d="M92.8197 118.84H108.23V108.88H109.3V106.1H92.1797V108.63L92.8197 118.84Z" fill="#E1E1E1"/>
<path d="M88.1099 110.49H81.8999V111.99H88.1099V110.49Z" fill="#E1E1E1"/>
<path d="M89.0696 113.86H81.0996V117.02H89.0696V113.86Z" fill="white"/>
<path d="M82.3301 96.16V106.11H96.8801H112.94V96.16H82.3301Z" fill="#F5F5F5"/>
<path d="M81.0503 93.38V96.16H114.01V93.38H96.8803H81.0503Z" fill="#E1E1E1"/>
<path d="M97.5304 106.11H112.94V96.16H114.01V93.38H96.8804V95.9L97.5304 106.11Z" fill="#E1E1E1"/>
<path d="M92.8204 97.77H86.6104V99.27H92.8204V97.77Z" fill="#E1E1E1"/>
<path d="M93.7801 101.14H85.8101V104.3H93.7801V101.14Z" fill="white"/>
<path d="M48.9798 2.7C48.9798 2.7 48.9498 2.7 48.9098 2.68C48.8498 2.66 48.7798 2.63 48.6998 2.6C48.4998 2.52 48.2398 2.41 47.8998 2.27C47.1998 1.97 46.1998 1.54 44.9798 1.02C42.5098 -0.0600004 39.1098 -1.54 35.3698 -3.17C35.2598 -3.22 35.1398 -3.27 35.0398 -3.32H35.1098C31.4298 -1.74 28.1098 -0.32 25.6898 0.71C24.4998 1.21 23.5298 1.62 22.8398 1.91C22.5098 2.04 22.2498 2.15 22.0598 2.23C21.8798 2.3 21.7898 2.34 21.7798 2.33C21.7798 2.33 21.8698 2.28 22.0398 2.2C22.2298 2.11 22.4798 2 22.7998 1.85C23.4798 1.55 24.4398 1.12 25.6298 0.599999C28.0398 -0.450001 31.3498 -1.88 35.0298 -3.48L35.0598 -3.5L35.0898 -3.48C35.1998 -3.43 35.3098 -3.38 35.4198 -3.33C39.1598 -1.68 42.5398 -0.18 45.0098 0.9C46.2198 1.44 47.2098 1.89 47.9098 2.2C48.2398 2.35 48.4998 2.47 48.6898 2.56C48.7698 2.6 48.8398 2.63 48.8898 2.66C48.9398 2.68 48.9598 2.7 48.9598 2.7H48.9798Z" fill="#E1E1E1"/>
<path d="M63.97 1.32001H2.22998V47.55H63.97V1.32001Z" fill="#E1E1E1"/>
<path d="M62.0501 3.46997H4.39014V45.65H62.0501V3.46997Z" fill="#FAFAFA"/>
<path d="M17.1201 21.9C17.1201 21.9 17.1801 28.98 17.5401 31.14L26.4201 30.72C26.4201 30.72 25.6401 23.76 25.9401 21.9H17.1201Z" fill="#E1E1E1"/>
<path d="M21.5 22.9C21.5 22.9 21.51 22.9 21.53 22.9C21.56 22.9 21.59 22.9 21.63 22.9C21.71 22.9 21.84 22.9 22 22.92C22.16 22.95 22.35 22.99 22.56 23.09C22.77 23.19 22.99 23.35 23.17 23.58C23.35 23.81 23.52 24.09 23.6 24.44C23.67 24.78 23.64 25.17 23.51 25.54C23.45 25.73 23.36 25.91 23.26 26.09C23.16 26.27 23.06 26.45 22.98 26.64C22.81 27.03 22.68 27.45 22.62 27.9V27.93H22.59C22.31 27.93 22.01 27.93 21.71 27.94C21.39 27.94 21.08 27.94 20.79 27.95H20.76V27.92C20.74 27.47 20.54 27.07 20.33 26.71C20.22 26.53 20.11 26.36 20 26.18C19.89 26.01 19.77 25.85 19.69 25.67C19.51 25.32 19.48 24.93 19.55 24.59C19.61 24.25 19.73 23.95 19.89 23.71C20.06 23.47 20.27 23.3 20.47 23.19C20.67 23.08 20.86 23.02 21.02 22.98C21.18 22.94 21.3 22.93 21.38 22.92C21.42 22.92 21.45 22.92 21.48 22.92C21.46 22.92 21.42 22.92 21.39 22.92C21.31 22.93 21.19 22.95 21.03 22.99C20.88 23.03 20.69 23.09 20.5 23.21C20.31 23.32 20.1 23.49 19.94 23.73C19.78 23.96 19.67 24.27 19.61 24.6C19.55 24.93 19.58 25.31 19.75 25.65C19.83 25.82 19.95 25.98 20.06 26.15C20.17 26.32 20.29 26.49 20.4 26.68C20.61 27.04 20.82 27.46 20.84 27.93L20.81 27.9C21.1 27.9 21.41 27.9 21.73 27.89C22.03 27.89 22.33 27.89 22.61 27.88L22.58 27.91C22.64 27.45 22.78 27.02 22.95 26.63C23.03 26.43 23.14 26.25 23.24 26.07C23.34 25.89 23.42 25.71 23.49 25.53C23.62 25.17 23.66 24.79 23.59 24.46C23.52 24.13 23.36 23.85 23.18 23.62C23 23.4 22.79 23.24 22.58 23.14C22.38 23.04 22.18 22.99 22.03 22.96C21.87 22.94 21.75 22.93 21.66 22.93C21.62 22.93 21.59 22.93 21.56 22.93C21.54 22.93 21.53 22.93 21.53 22.93L21.5 22.9Z" fill="white"/>
<path d="M21.9499 27.83C21.9499 27.83 21.9499 27.83 21.9499 27.8C21.9499 27.78 21.9499 27.75 21.9399 27.72C21.9299 27.65 21.9099 27.54 21.8899 27.4C21.8499 27.12 21.7899 26.73 21.7499 26.23C21.7499 26.11 21.7299 25.98 21.7299 25.84C21.7299 25.7 21.7199 25.56 21.7299 25.42C21.7299 25.27 21.7599 25.12 21.8299 24.98C21.8999 24.84 22.0099 24.71 22.1699 24.64C22.3299 24.57 22.5199 24.61 22.6499 24.73C22.7099 24.79 22.7599 24.88 22.7499 24.97C22.7499 25.06 22.7099 25.15 22.6599 25.22C22.6099 25.29 22.5299 25.35 22.4499 25.39C22.3699 25.43 22.2799 25.46 22.1899 25.48C22.0099 25.52 21.8199 25.54 21.6299 25.55C21.4399 25.55 21.2499 25.55 21.0699 25.52C20.9799 25.5 20.8899 25.48 20.7999 25.44C20.7199 25.4 20.6399 25.35 20.5799 25.28C20.5199 25.21 20.4699 25.13 20.4499 25.04C20.4299 24.95 20.4499 24.86 20.4799 24.78C20.5199 24.7 20.5799 24.63 20.6699 24.6C20.7499 24.57 20.8499 24.58 20.9199 24.61C20.9999 24.65 21.0599 24.7 21.1099 24.77C21.1599 24.84 21.1899 24.91 21.1999 24.99C21.2399 25.14 21.2399 25.3 21.2399 25.44C21.2599 25.73 21.2699 26 21.2799 26.25C21.3099 26.75 21.3299 27.15 21.3399 27.43C21.3399 27.57 21.3499 27.68 21.3499 27.75C21.3499 27.79 21.3499 27.81 21.3499 27.83C21.3499 27.85 21.3499 27.86 21.3499 27.86C21.3499 27.86 21.3499 27.86 21.3499 27.83C21.3499 27.81 21.3499 27.78 21.3499 27.75C21.3499 27.68 21.3399 27.57 21.3299 27.43C21.3099 27.15 21.2899 26.75 21.2599 26.25C21.2499 26 21.2299 25.73 21.2099 25.44C21.2099 25.29 21.2099 25.14 21.1599 24.99C21.1399 24.92 21.1099 24.84 21.0699 24.78C21.0199 24.72 20.9599 24.66 20.8899 24.63C20.8199 24.6 20.7299 24.59 20.6599 24.62C20.5799 24.65 20.5199 24.71 20.4899 24.79C20.4499 24.87 20.4399 24.95 20.4599 25.04C20.4799 25.12 20.5199 25.2 20.5799 25.26C20.6999 25.39 20.8799 25.46 21.0599 25.49C21.2399 25.52 21.4299 25.52 21.6199 25.52C21.8099 25.52 21.9999 25.49 22.1799 25.46C22.2699 25.44 22.3599 25.41 22.4399 25.37C22.5199 25.33 22.5899 25.28 22.6399 25.21C22.6899 25.14 22.7299 25.06 22.7299 24.97C22.7299 24.88 22.6899 24.8 22.6299 24.75C22.5099 24.63 22.3199 24.6 22.1699 24.66C22.0199 24.72 21.9099 24.85 21.8399 24.99C21.7699 25.13 21.7499 25.28 21.7399 25.43C21.7399 25.58 21.7399 25.72 21.7399 25.85C21.7399 25.99 21.7499 26.12 21.7599 26.24C21.7999 26.74 21.8499 27.14 21.8899 27.41C21.9099 27.55 21.9199 27.65 21.9299 27.73C21.9299 27.77 21.9299 27.79 21.9399 27.81C21.9399 27.83 21.9399 27.84 21.9399 27.84L21.9499 27.83Z" fill="white"/>
<path d="M20.78 27.88C20.78 27.88 20.79 27.99 20.8 28.18C20.81 28.39 20.82 28.65 20.84 28.95V28.93C21.01 29.14 21.21 29.37 21.43 29.62H21.4C21.62 29.59 21.85 29.58 22.09 29.57H22.06C22.17 29.45 22.29 29.31 22.4 29.16C22.46 29.09 22.52 29.02 22.57 28.95V28.98C22.55 28.57 22.54 28.19 22.53 27.84L22.57 27.88C22.07 27.88 21.63 27.89 21.28 27.89C21.14 27.89 21.02 27.89 20.91 27.89C20.82 27.89 20.77 27.89 20.77 27.89C20.77 27.89 20.81 27.89 20.89 27.88C21 27.88 21.12 27.87 21.25 27.86C21.61 27.85 22.05 27.83 22.56 27.81H22.6V27.85C22.61 28.2 22.62 28.58 22.63 28.99V29.01V29.02C22.57 29.09 22.52 29.16 22.46 29.23C22.34 29.37 22.23 29.51 22.11 29.65H22.1L22.08 29.66C21.84 29.67 21.61 29.68 21.39 29.69H21.37L21.36 29.68C21.15 29.43 20.95 29.19 20.77 28.98V28.96C20.77 28.65 20.77 28.39 20.77 28.17C20.77 27.99 20.77 27.89 20.77 27.89L20.78 27.88Z" fill="white"/>
<path d="M22.5701 28.88C22.5701 28.88 22.5501 28.88 22.5001 28.85C22.4601 28.83 22.4001 28.81 22.3201 28.78C22.1701 28.73 21.9401 28.68 21.7001 28.68C21.4501 28.68 21.2301 28.75 21.0801 28.81C21.0001 28.84 20.9501 28.87 20.9101 28.89C20.8701 28.91 20.8501 28.92 20.8501 28.92C20.8501 28.92 20.8701 28.9 20.9101 28.88C20.9501 28.86 21.0101 28.82 21.0801 28.79C21.2301 28.72 21.4501 28.66 21.7001 28.65C21.9501 28.65 22.1801 28.7 22.3301 28.75C22.4101 28.78 22.4701 28.81 22.5101 28.83C22.5501 28.85 22.5701 28.87 22.5701 28.87V28.88Z" fill="white"/>
<path d="M22.5701 28.6C22.5701 28.6 22.5501 28.6 22.5001 28.57C22.4501 28.54 22.4001 28.53 22.3201 28.5C22.1701 28.45 21.9401 28.4 21.7001 28.4C21.4501 28.4 21.2301 28.47 21.0801 28.53C21.0001 28.56 20.9501 28.59 20.9101 28.61C20.8701 28.63 20.8501 28.64 20.8501 28.64C20.8501 28.64 20.8701 28.62 20.9101 28.6C20.9501 28.58 21.0101 28.54 21.0801 28.51C21.2301 28.44 21.4501 28.37 21.7001 28.37C21.9501 28.37 22.1801 28.42 22.3301 28.47C22.4101 28.5 22.4701 28.53 22.5101 28.55C22.5501 28.57 22.5701 28.59 22.5701 28.59V28.6Z" fill="white"/>
<path d="M22.5501 28.34C22.5501 28.34 22.5301 28.34 22.4801 28.31C22.4401 28.29 22.3801 28.27 22.3001 28.24C22.1501 28.19 21.9201 28.14 21.6801 28.14C21.4301 28.14 21.2101 28.21 21.0601 28.27C20.9801 28.3 20.9301 28.33 20.8901 28.35C20.8501 28.37 20.8301 28.38 20.8301 28.38C20.8301 28.38 20.8501 28.36 20.8901 28.34C20.9301 28.32 20.9901 28.28 21.0601 28.25C21.2101 28.18 21.4301 28.11 21.6801 28.11C21.9301 28.11 22.1601 28.16 22.3101 28.21C22.3901 28.24 22.4501 28.27 22.4901 28.29C22.5301 28.31 22.5501 28.33 22.5501 28.33V28.34Z" fill="white"/>
<path d="M7.22998 10.32C7.22998 10.32 7.28998 17.4 7.64998 19.56L16.53 19.14C16.53 19.14 15.75 12.18 16.05 10.32H7.22998Z" fill="#ECECEC"/>
<path d="M14.7198 13.3C14.7198 13.3 13.3898 13.47 11.7498 13.57C10.0998 13.67 8.76977 13.71 8.75977 13.66C8.75977 13.61 10.0898 13.49 11.7298 13.39C13.3798 13.29 14.7098 13.25 14.7098 13.3H14.7198Z" fill="white"/>
<path d="M14.7198 14.8C14.7198 14.8 13.3898 14.97 11.7498 15.07C10.0998 15.17 8.76977 15.21 8.75977 15.16C8.75977 15.11 10.0898 14.99 11.7298 14.89C13.3798 14.79 14.7098 14.75 14.7098 14.8H14.7198Z" fill="white"/>
<path d="M13.2098 16.27C13.2098 16.27 12.4598 16.4 11.5198 16.46C10.5798 16.52 9.81982 16.52 9.81982 16.48C9.81982 16.43 10.5698 16.35 11.5098 16.29C12.4498 16.23 13.2098 16.23 13.2098 16.27Z" fill="white"/>
<path d="M6.81006 31.16C6.81006 31.16 6.87006 38.24 7.23006 40.4L16.1101 39.98C16.1101 39.98 15.3301 33.02 15.6301 31.16H6.81006Z" fill="#ECECEC"/>
<path d="M14.2901 34.13C14.2901 34.13 12.9601 34.3 11.3201 34.4C9.67008 34.5 8.34008 34.54 8.33008 34.49C8.33008 34.44 9.66008 34.32 11.3001 34.22C12.9501 34.12 14.2801 34.08 14.2801 34.13H14.2901Z" fill="white"/>
<path d="M14.2998 35.63C14.2998 35.63 12.9698 35.8 11.3298 35.9C9.67984 36 8.34984 36.04 8.33984 35.99C8.33984 35.94 9.66984 35.82 11.3098 35.72C12.9598 35.62 14.2898 35.58 14.2898 35.63H14.2998Z" fill="white"/>
<path d="M12.7899 37.1C12.7899 37.1 12.0399 37.23 11.0999 37.29C10.1599 37.35 9.3999 37.35 9.3999 37.31C9.3999 37.26 10.1499 37.18 11.0899 37.12C12.0299 37.06 12.7899 37.06 12.7899 37.1Z" fill="white"/>
<path d="M31.0796 12.2L31.9596 32.62L57.4596 32.93L56.3096 12.47L31.0796 12.2Z" fill="#ECECEC"/>
<path d="M56.12 12.05H30.79V31.17H56.12V12.05Z" fill="#F5F5F5"/>
<path d="M56.11 31.18C56.11 31.18 56.11 31.06 56.11 30.83C56.11 30.59 56.11 30.25 56.11 29.81C56.11 28.91 56.1 27.61 56.09 25.94C56.09 22.61 56.07 17.83 56.05 12.06L56.12 12.13C48.96 12.13 40.22 12.13 30.8 12.15L30.89 12.06C30.89 18.94 30.89 25.45 30.89 31.18L30.81 31.1C38.3 31.12 44.62 31.13 49.08 31.14C51.31 31.14 53.07 31.16 54.28 31.16C54.88 31.16 55.34 31.16 55.66 31.16C55.81 31.16 55.93 31.16 56.02 31.16C56.1 31.16 56.14 31.16 56.14 31.16C56.14 31.16 56.1 31.16 56.03 31.16C55.95 31.16 55.83 31.16 55.68 31.16C55.36 31.16 54.91 31.16 54.31 31.16C53.1 31.16 51.35 31.17 49.13 31.18C44.66 31.18 38.33 31.2 30.81 31.22H30.73V31.14C30.73 25.41 30.73 18.89 30.73 12.02V11.93H30.82C40.24 11.93 48.98 11.94 56.14 11.95H56.21V12.02C56.19 17.81 56.18 22.6 56.17 25.94C56.17 27.6 56.16 28.9 56.15 29.79C56.15 30.23 56.15 30.56 56.15 30.8C56.15 31.03 56.15 31.14 56.15 31.14L56.11 31.18Z" fill="#E1E1E1"/>
<path d="M44.1098 16.1H33.8398V29.02H44.1098V16.1Z" fill="#F5F5F5"/>
<path d="M44.11 29.03C44.11 29.03 44.11 29.01 44.11 28.96C44.11 28.91 44.11 28.85 44.11 28.78C44.11 28.61 44.11 28.37 44.11 28.07C44.11 27.45 44.1 26.55 44.09 25.42C44.09 23.15 44.07 19.93 44.05 16.11L44.13 16.19C41.07 16.19 37.57 16.19 33.86 16.19C33.84 16.21 34.02 16.03 33.95 16.11V16.55V17C33.95 17.3 33.95 17.59 33.95 17.88C33.95 18.47 33.95 19.05 33.95 19.62C33.95 20.77 33.95 21.89 33.95 22.97C33.95 25.14 33.95 27.17 33.94 29.02L33.87 28.95C36.95 28.97 39.51 28.98 41.3 28.99C42.19 28.99 42.89 29 43.39 29.01C43.62 29.01 43.81 29.01 43.94 29.01C44.07 29.01 44.13 29.01 44.13 29.01C44.13 29.01 44.07 29.01 43.95 29.01C43.82 29.01 43.64 29.01 43.41 29.01C42.92 29.01 42.23 29.02 41.34 29.03C39.53 29.03 36.96 29.05 33.86 29.07H33.79V29C33.79 27.15 33.79 25.12 33.78 22.95C33.78 21.86 33.78 20.74 33.78 19.6C33.78 19.03 33.78 18.45 33.78 17.86C33.78 17.57 33.78 17.27 33.78 16.98V16.53V16.31V16.11V16.09C33.7 16.16 33.89 15.98 33.87 16C37.57 16 41.08 16 44.14 16H44.22V16.08C44.2 19.92 44.19 23.16 44.18 25.44C44.18 26.56 44.16 27.45 44.16 28.07C44.16 28.36 44.16 28.59 44.16 28.76C44.16 28.83 44.16 28.89 44.16 28.94C44.16 28.98 44.16 29 44.16 29L44.11 29.03Z" fill="#E1E1E1"/>
<path d="M53.9102 13.15H34.2402V15.01H53.9102V13.15Z" fill="#F5F5F5"/>
<path d="M53.9102 15.01C53.9102 15.01 53.9102 14.96 53.9102 14.88C53.9102 14.79 53.9102 14.67 53.9102 14.52C53.9102 14.2 53.9002 13.74 53.8902 13.15L53.9302 13.19C50.6102 13.22 43.0502 13.24 34.2602 13.24C34.4302 13.07 34.3102 13.19 34.3502 13.15V13.63C34.3502 13.79 34.3502 13.95 34.3502 14.1C34.3502 14.41 34.3502 14.72 34.3502 15.01L34.2602 14.92C39.7602 14.93 44.6702 14.95 48.2102 14.96C49.9802 14.97 51.4002 14.98 52.4002 14.99C52.8902 14.99 53.2702 14.99 53.5402 15C53.6602 15 53.7602 15 53.8402 15C53.9102 15 53.9402 15 53.9502 15C53.9502 15 53.9202 15 53.8602 15C53.7902 15 53.6902 15 53.5702 15C53.3002 15 52.9302 15 52.4502 15.01C51.4602 15.01 50.0402 15.02 48.2802 15.04C44.7202 15.04 39.8002 15.06 34.2702 15.08H34.1802V14.99C34.1802 14.69 34.1802 14.39 34.1802 14.08C34.1802 13.92 34.1802 13.77 34.1802 13.61V13.37V13.25V13.16V13.14C34.1802 13.14 34.0902 13.22 34.2702 13.05C43.0602 13.05 50.6302 13.07 53.9402 13.1H53.9802V13.14C53.9802 13.74 53.9602 14.21 53.9602 14.53C53.9602 14.68 53.9602 14.79 53.9602 14.88C53.9602 14.96 53.9602 15 53.9602 14.99L53.9102 15.01Z" fill="#E1E1E1"/>
<path d="M53.9101 16.1H45.3701V23.89H53.9101V16.1Z" fill="#F5F5F5"/>
<path d="M53.9101 23.89C53.9101 23.89 53.9101 23.84 53.9101 23.74C53.9101 23.63 53.9101 23.49 53.9101 23.32C53.9101 22.94 53.9001 22.41 53.8901 21.73C53.8901 20.36 53.8701 18.43 53.8501 16.1L53.9201 16.17C51.4501 16.17 48.5201 16.17 45.3801 16.18C45.3601 16.2 45.5401 16.02 45.4701 16.09V16.62C45.4701 16.8 45.4701 16.97 45.4701 17.15C45.4701 17.5 45.4701 17.84 45.4701 18.19C45.4701 18.87 45.4701 19.55 45.4701 20.2C45.4701 21.51 45.4701 22.74 45.4701 23.89L45.3901 23.81C47.9201 23.83 50.0501 23.84 51.5501 23.85C52.2901 23.85 52.8801 23.87 53.3001 23.87C53.4901 23.87 53.6501 23.87 53.7701 23.87C53.8801 23.87 53.9301 23.87 53.9401 23.87C53.9401 23.87 53.8901 23.87 53.7901 23.87C53.6801 23.87 53.5301 23.87 53.3401 23.87C52.9301 23.87 52.3401 23.88 51.6101 23.89C50.0901 23.89 47.9501 23.91 45.4001 23.93H45.3201V23.85C45.3201 22.71 45.3201 21.47 45.3201 20.16C45.3201 19.51 45.3201 18.84 45.3201 18.15C45.3201 17.81 45.3201 17.46 45.3201 17.11C45.3201 16.94 45.3201 16.76 45.3201 16.58V16.32V16.19V16.07C45.2401 16.13 45.4301 15.95 45.4101 15.97C48.5501 15.97 51.4901 15.97 53.9501 15.98H54.0201V16.05C54.0001 18.39 53.9901 20.34 53.9801 21.72C53.9801 22.39 53.9701 22.91 53.9601 23.29C53.9601 23.46 53.9601 23.59 53.9601 23.7C53.9601 23.79 53.9601 23.84 53.9601 23.83L53.9101 23.89Z" fill="#E1E1E1"/>
<path d="M53.9096 25.11H45.3696V29.02H53.9096V25.11Z" fill="#F5F5F5"/>
<path d="M53.9098 29.03C53.9098 29.03 53.9098 28.93 53.8998 28.75C53.8998 28.55 53.8998 28.29 53.8798 27.96C53.8798 27.27 53.8598 26.3 53.8498 25.12L53.9098 25.18C51.6798 25.18 48.6698 25.19 45.3698 25.2C45.2898 25.28 45.4798 25.09 45.4598 25.11V25.37V25.63C45.4598 25.8 45.4598 25.97 45.4598 26.14C45.4598 26.48 45.4598 26.81 45.4598 27.14C45.4598 27.79 45.4598 28.43 45.4598 29.04L45.3798 28.96C47.8398 28.98 49.9598 28.99 51.4898 29C52.2398 29 52.8398 29.02 53.2698 29.02C53.4698 29.02 53.6298 29.02 53.7498 29.03C53.8598 29.03 53.9198 29.03 53.9198 29.04C53.9198 29.04 53.8698 29.04 53.7698 29.05C53.6498 29.05 53.4998 29.05 53.3098 29.06C52.8798 29.06 52.2898 29.07 51.5498 29.08C50.0098 29.08 47.8698 29.1 45.3798 29.12H45.2998V29.04C45.2998 28.43 45.2998 27.8 45.2998 27.14C45.2998 26.81 45.2998 26.48 45.2998 26.14C45.2998 25.97 45.2998 25.8 45.2998 25.63V25.37V25.24V25.13V25.11C45.2998 25.11 45.4698 24.94 45.3898 25.02C48.6998 25.02 51.7098 25.04 53.9298 25.04H53.9898V25.1C53.9798 26.3 53.9598 27.28 53.9598 27.98C53.9598 28.3 53.9498 28.56 53.9398 28.75C53.9398 28.92 53.9398 29.01 53.9298 29.01L53.9098 29.03Z" fill="#E1E1E1"/>
<path d="M43.8498 16.13C40.6698 20.52 37.0198 24.64 33.8398 29.03L43.8498 16.13Z" fill="white"/>
<path d="M33.8398 29.03C33.8398 29.03 33.8598 28.98 33.9198 28.89C33.9898 28.78 34.0798 28.65 34.1898 28.5C34.4198 28.16 34.7798 27.68 35.2198 27.08C36.0998 25.89 37.3598 24.29 38.7798 22.53C40.1898 20.77 41.4698 19.18 42.3798 18.02C42.8198 17.45 43.1798 16.98 43.4498 16.64C43.5698 16.49 43.6598 16.37 43.7398 16.27C43.8098 16.19 43.8498 16.14 43.8498 16.15C43.8498 16.15 43.8298 16.2 43.7698 16.29C43.6998 16.4 43.6098 16.53 43.4998 16.68C43.2698 17.02 42.9098 17.5 42.4698 18.1C41.5898 19.29 40.3298 20.89 38.9098 22.65C37.4998 24.41 36.2198 26 35.3098 27.16C34.8698 27.73 34.5098 28.2 34.2398 28.54C34.1198 28.69 34.0298 28.81 33.9498 28.91C33.8798 28.99 33.8398 29.04 33.8398 29.03Z" fill="#E1E1E1"/>
<path d="M44.1101 29.03C44.1101 29.03 41.7401 26.19 38.9101 22.62C36.0701 19.05 33.8101 16.14 33.8401 16.11C33.8801 16.08 36.2101 18.95 39.0401 22.52C41.8701 26.09 44.1401 29 44.1001 29.03H44.1101Z" fill="#E1E1E1"/>
<path d="M31.9597 16.13C31.9597 17.02 31.2397 17.74 30.3497 17.74C29.4597 17.74 28.7397 17.02 28.7397 16.13C28.7397 15.24 29.4597 14.52 30.3497 14.52C31.2397 14.52 31.9597 15.24 31.9597 16.13Z" fill="#E1E1E1"/>
<path d="M58.2298 12.23C58.2298 13.12 57.5098 13.84 56.6198 13.84C55.7298 13.84 55.0098 13.12 55.0098 12.23C55.0098 11.34 55.7298 10.62 56.6198 10.62C57.5098 10.62 58.2298 11.34 58.2298 12.23Z" fill="#E1E1E1"/>
<path d="M28.5498 88.07H6.56982V89.78H28.5498V88.07Z" fill="#ECECEC"/>
<path d="M28.5498 88.07H22.5098V89.78H28.5498V88.07Z" fill="#E1E1E1"/>
<path d="M3.78008 89.77V97.45H2.58008V98.28H3.78008V103.42H26.2901V98.74H24.6201V97.72H26.2901V96.19H27.0301V95.5H26.1501V89.76H3.78008V89.77Z" fill="#F5F5F5"/>
<path d="M20.3101 89.79V103.34H26.2801V98.66H24.6201V97.73H26.2801V96.2H27.0301V95.42H26.1501V89.77L20.3101 89.79Z" fill="#E1E1E1"/>
<path d="M20.73 98.17C20.73 98.17 16.66 98.26 11.64 98.26C6.62004 98.26 2.54004 98.22 2.54004 98.17C2.54004 98.12 6.61004 98.08 11.64 98.08C16.67 98.08 20.73 98.12 20.73 98.17Z" fill="#E1E1E1"/>
<path d="M20.73 97.3901C20.73 97.3901 16.66 97.48 11.64 97.48C6.62004 97.48 2.54004 97.4401 2.54004 97.3901C2.54004 97.3401 6.61004 97.3 11.64 97.3C16.67 97.3 20.73 97.3401 20.73 97.3901Z" fill="#E1E1E1"/>
<path d="M21.9 95.29C21.9 95.29 17.83 95.38 12.81 95.38C7.78996 95.38 3.70996 95.34 3.70996 95.29C3.70996 95.24 7.77996 95.2 12.81 95.2C17.84 95.2 21.9 95.24 21.9 95.29Z" fill="#E1E1E1"/>
<path d="M22.0098 101.02C22.0098 101.02 17.9398 101.11 12.9198 101.11C7.89982 101.11 3.81982 101.07 3.81982 101.02C3.81982 100.97 7.88982 100.93 12.9198 100.93C17.9498 100.93 22.0098 100.97 22.0098 101.02Z" fill="#E1E1E1"/>
<path d="M6.32988 105.05V112.73H5.12988V113.56H6.32988V118.7H28.8399V114.02H27.1699V113H28.8399V111.47H29.5799V110.78H28.6999V105.04H6.32988V105.05Z" fill="#F5F5F5"/>
<path d="M22.8599 105.07V118.62H28.8399V113.94H27.1699V113.01L28.8399 113.04V111.51H29.5899L29.5799 110.72L28.6999 110.7V105.05L22.8599 105.07Z" fill="#E1E1E1"/>
<path d="M23.2901 113.45C23.2901 113.45 19.2201 113.54 14.2001 113.54C9.1801 113.54 5.1001 113.5 5.1001 113.45C5.1001 113.4 9.1701 113.36 14.2001 113.36C19.2301 113.36 23.2901 113.4 23.2901 113.45Z" fill="#E1E1E1"/>
<path d="M23.2901 112.67C23.2901 112.67 19.2201 112.76 14.2001 112.76C9.1801 112.76 5.1001 112.72 5.1001 112.67C5.1001 112.62 9.1701 112.58 14.2001 112.58C19.2301 112.58 23.2901 112.62 23.2901 112.67Z" fill="#E1E1E1"/>
<path d="M24.46 110.57C24.46 110.57 20.39 110.66 15.37 110.66C10.35 110.66 6.27002 110.62 6.27002 110.57C6.27002 110.52 10.34 110.48 15.37 110.48C20.4 110.48 24.46 110.52 24.46 110.57Z" fill="#E1E1E1"/>
<path d="M24.5699 116.3C24.5699 116.3 20.4999 116.39 15.4799 116.39C10.4599 116.39 6.37988 116.35 6.37988 116.3C6.37988 116.25 10.4499 116.21 15.4799 116.21C20.5099 116.21 24.5699 116.25 24.5699 116.3Z" fill="#E1E1E1"/>
<path d="M6.01006 74.41V82.09H4.81006V82.92H6.01006V88.06H28.5201V83.38H26.8501V82.36H28.5201V80.83H29.2601V80.14H28.3801V74.4H6.01006V74.41Z" fill="#F5F5F5"/>
<path d="M22.5298 74.43V87.98H28.5098V83.3H26.8398V82.37L28.5098 82.4V80.87H29.2698L29.2498 80.08L28.3698 80.06V74.41L22.5298 74.43Z" fill="#E1E1E1"/>
<path d="M22.96 82.81C22.96 82.81 18.89 82.9 13.87 82.9C8.85002 82.9 4.77002 82.86 4.77002 82.81C4.77002 82.76 8.84002 82.72 13.87 82.72C18.9 82.72 22.96 82.76 22.96 82.81Z" fill="#E1E1E1"/>
<path d="M22.96 82.03C22.96 82.03 18.89 82.12 13.87 82.12C8.85002 82.12 4.77002 82.08 4.77002 82.03C4.77002 81.98 8.84002 81.94 13.87 81.94C18.9 81.94 22.96 81.98 22.96 82.03Z" fill="#E1E1E1"/>
<path d="M24.1299 79.94C24.1299 79.94 20.0599 80.03 15.0399 80.03C10.0199 80.03 5.93994 79.99 5.93994 79.94C5.93994 79.89 10.0099 79.85 15.0399 79.85C20.0699 79.85 24.1299 79.89 24.1299 79.94Z" fill="#E1E1E1"/>
<path d="M24.2398 85.66C24.2398 85.66 20.1698 85.75 15.1498 85.75C10.1298 85.75 6.0498 85.71 6.0498 85.66C6.0498 85.61 10.1198 85.57 15.1498 85.57C20.1798 85.57 24.2398 85.61 24.2398 85.66Z" fill="#E1E1E1"/>
<path d="M27.0801 103.35H5.1001V105.06H27.0801V103.35Z" fill="#ECECEC"/>
<path d="M27.08 103.35H21.04V105.06H27.08V103.35Z" fill="#E1E1E1"/>
<path d="M108.92 118.6C108.92 118.6 85.3901 118.67 56.3701 118.67C27.3501 118.67 3.81006 118.64 3.81006 118.6C3.81006 118.56 27.3401 118.53 56.3701 118.53C85.4001 118.53 108.92 118.56 108.92 118.6Z" fill="#1A2E35"/>
<path opacity="0.5" d="M89.0401 137.71C67.5401 140.57 46.3001 136.7 28.7401 127.07C12.2001 118.01 -8.15994 104.92 -9.36994 94.82C-11.4299 77.66 77.1901 -14.76 96.6001 -11.64C116.01 -8.51999 133.58 113.54 115.05 128.53C108.68 133.68 99.0001 136.38 89.0401 137.71Z" fill="#644DF6"/>
<path d="M30.0701 94.75H11.8701V69.43C11.8701 66.78 14.0201 64.63 16.6701 64.63H104.69C107.34 64.63 109.49 66.78 109.49 69.43V94.75H91.2901" fill="#EBEEF0"/>
<path d="M109.61 94.87H91.29V94.63H109.37V69.43C109.37 66.85 107.27 64.75 104.69 64.75H16.67C14.09 64.75 11.99 66.85 11.99 69.43V94.63H30.07V94.87H11.75V69.44C11.75 66.73 13.96 64.52 16.67 64.52H104.69C107.4 64.52 109.61 66.73 109.61 69.44V94.87Z" fill="#252468"/>
<g opacity="0.3">
<path d="M11.8701 85.95H27.9701C27.6001 86.82 27.3901 87.79 27.3901 88.8V94.75H11.8701V85.95Z" fill="#253169"/>
<path d="M27.51 94.87H11.75V85.83H28.15L28.08 86C27.7 86.89 27.51 87.83 27.51 88.8V94.87ZM11.99 94.63H27.27V88.79C27.27 87.84 27.44 86.93 27.79 86.06H11.99V94.63Z" fill="#252468"/>
</g>
<g opacity="0.3">
<path d="M109.49 85.95V94.75H93.9701V88.8C93.9701 87.79 93.7601 86.83 93.3901 85.95H109.49Z" fill="#252468"/>
</g>
<path d="M91.2901 94.75H109.49L106.84 104.68H91.2901H86.9901H34.3701H30.0701H14.5201L11.8701 94.75H30.0701" fill="#5780C0"/>
<g opacity="0.3">
<path d="M109.49 94.75L106.84 104.68H14.5201L11.8701 94.75H13.2601C15.2701 98.42 19.1601 100.81 23.5001 100.81H97.8701C102.21 100.81 106.1 98.42 108.11 94.75H109.5H109.49Z" fill="#252468"/>
</g>
<path d="M43.3198 84.16H78.0398C85.3498 84.16 91.2898 90.1 91.2898 97.41V104.68H30.0698V97.41C30.0698 90.1 36.0098 84.16 43.3198 84.16Z" fill="#5780C0"/>
<g opacity="0.55">
<path d="M91.2898 88.79V90.57C91.2898 88.01 89.2198 85.94 86.6598 85.94H34.6998C32.1398 85.94 30.0698 88.01 30.0698 90.57V88.79C30.0698 86.23 32.1398 84.16 34.6998 84.16H86.6598C89.2198 84.16 91.2898 86.23 91.2898 88.79Z" fill="white"/>
</g>
<g opacity="0.3">
<path d="M91.2898 96.57H30.0698V104.68H91.2898V96.57Z" fill="#252468"/>
</g>
<path d="M91.2898 105.72H30.0698C29.4998 105.72 29.0298 105.25 29.0298 104.68V88.8C29.0298 85.67 31.5798 83.13 34.6998 83.13H86.6498C89.7798 83.13 92.3198 85.68 92.3198 88.8V104.68C92.3198 105.26 91.8498 105.72 91.2798 105.72H91.2898ZM31.1098 103.64H90.2498V88.8C90.2498 86.82 88.6398 85.21 86.6598 85.21H34.7098C32.7298 85.21 31.1198 86.82 31.1198 88.8V103.64H31.1098Z" fill="#644DF6"/>
<path d="M86.9901 105.72H34.3701C33.8001 105.72 33.3301 105.25 33.3301 104.68V88.8C33.3301 88.04 33.9501 87.4301 34.7001 87.4301H86.6501C87.4101 87.4301 88.0201 88.05 88.0201 88.8V104.68C88.0201 105.26 87.5501 105.72 86.9801 105.72H86.9901ZM35.4101 103.64H85.9401V89.5101H35.4101V103.64Z" fill="#252468"/>
<path d="M86.7499 114.3H34.9399C33.6899 114.3 32.6999 113.23 32.7999 111.99L34.0899 95.06L34.7099 86.95H86.9999L87.6199 95.06L88.9099 111.99C89.0099 113.24 88.0199 114.3 86.7699 114.3H86.7499Z" fill="#EFEFEF"/>
<path d="M86.7502 115.34H34.9402C34.0502 115.34 33.2002 114.97 32.6002 114.32C32.0002 113.67 31.6902 112.79 31.7602 111.91L33.6702 86.87C33.7102 86.33 34.1602 85.91 34.7102 85.91H87.0002C87.5402 85.91 88.0002 86.33 88.0402 86.87L89.9502 111.91C90.0202 112.79 89.7102 113.67 89.1102 114.32C88.5102 114.97 87.6502 115.34 86.7702 115.34H86.7502ZM35.6702 89.5L33.8402 113.58C33.8202 113.89 34.2602 113.54 34.4802 113.77C34.6902 114 34.7102 113.88 35.0202 113.88L86.0802 113.38C86.3902 113.38 86.6202 113.2 86.8402 112.97C87.0502 112.74 87.8902 113.9 87.8702 113.58L86.0402 89.5H35.6802H35.6702Z" fill="#EFEFEF"/>
<path d="M85.7798 50.3H34.6998C26.7798 50.3 29.9298 56.72 29.9298 64.64H91.4298C91.4298 56.72 93.6998 50.3 85.7798 50.3Z" fill="#644DF6"/>
<g opacity="0.3">
<path d="M91.4302 58.59H29.9302V64.64H91.4302V58.59Z" fill="#252468"/>
</g>
<g opacity="0.55">
<path d="M91.4299 53.8V55.96C91.4299 54.03 89.8599 52.46 87.9299 52.46H33.4399C31.5099 52.46 29.9399 54.03 29.9399 55.96V53.8C29.9399 51.87 31.5099 50.3 33.4399 50.3H87.9299C89.8599 50.3 91.4299 51.87 91.4299 53.8Z" fill="white"/>
</g>
<path d="M91.4301 65.68H29.9301C29.3601 65.68 28.8901 65.21 28.8901 64.64V53.8C28.8901 51.29 30.9301 49.26 33.4301 49.26H87.9201C90.4301 49.26 92.4601 51.3 92.4601 53.8V64.64C92.4601 65.22 91.9901 65.68 91.4201 65.68H91.4301ZM30.9701 63.59H90.3801V53.79C90.3801 52.43 89.2801 51.33 87.9201 51.33H33.4301C32.0701 51.33 30.9701 52.43 30.9701 53.79V63.59Z" fill="#DFE7EC"/>
<path d="M91.4299 77.74C92.9432 77.74 94.1699 76.5133 94.1699 75C94.1699 73.4867 92.9432 72.26 91.4299 72.26C89.9167 72.26 88.6899 73.4867 88.6899 75C88.6899 76.5133 89.9167 77.74 91.4299 77.74Z" fill="#644DF6"/>
<path d="M91.4298 77.87C89.8498 77.87 88.5698 76.59 88.5698 75.01C88.5698 73.43 89.8498 72.15 91.4298 72.15C93.0098 72.15 94.2898 73.43 94.2898 75.01C94.2898 76.59 93.0098 77.87 91.4298 77.87ZM91.4298 72.38C89.9798 72.38 88.8098 73.56 88.8098 75C88.8098 76.44 89.9898 77.62 91.4298 77.62C92.8698 77.62 94.0498 76.44 94.0498 75C94.0498 73.56 92.8698 72.38 91.4298 72.38Z" fill="#252468"/>
<path d="M101.36 77.74C102.873 77.74 104.1 76.5133 104.1 75C104.1 73.4867 102.873 72.26 101.36 72.26C99.8469 72.26 98.6201 73.4867 98.6201 75C98.6201 76.5133 99.8469 77.74 101.36 77.74Z" fill="#644DF6"/>
<path d="M101.36 77.87C99.78 77.87 98.5 76.59 98.5 75.01C98.5 73.43 99.78 72.15 101.36 72.15C102.94 72.15 104.22 73.43 104.22 75.01C104.22 76.59 102.94 77.87 101.36 77.87ZM101.36 72.38C99.91 72.38 98.74 73.56 98.74 75C98.74 76.44 99.92 77.62 101.36 77.62C102.8 77.62 103.98 76.44 103.98 75C103.98 73.56 102.8 72.38 101.36 72.38Z" fill="#252468"/>
<g opacity="0.55">
<path d="M93.8602 73.73C93.5102 73.57 93.1302 73.49 92.7302 73.49C91.2202 73.49 89.9902 74.72 89.9902 76.23C89.9902 76.69 90.1002 77.13 90.3002 77.51C89.3502 77.08 88.6802 76.12 88.6802 75.01C88.6802 73.49 89.9102 72.26 91.4302 72.26C92.4902 72.26 93.4002 72.86 93.8602 73.73Z" fill="#E9EFF3"/>
</g>
<g opacity="0.55">
<path d="M103.8 73.73C103.45 73.57 103.07 73.49 102.67 73.49C101.15 73.49 99.9201 74.72 99.9201 76.23C99.9201 76.69 100.03 77.12 100.23 77.5C99.2801 77.07 98.6201 76.11 98.6201 75C98.6201 73.48 99.8501 72.25 101.36 72.25C102.42 72.25 103.33 72.85 103.79 73.72L103.8 73.73Z" fill="#E9EFF3"/>
</g>
<path d="M86.9902 16.83V64.64H34.7002V23.24C34.7002 19.82 37.4702 17.04 40.8902 17.03L86.9902 16.84V16.83Z" fill="#EFEFEF"/>
<g opacity="0.3">
<path d="M87.6001 95.05H34.0801L34.7001 86.95H86.9901L87.6001 95.05Z" fill="black"/>
</g>
<g opacity="0.31">
<path d="M55.52 108.59H40.95C40.54 108.59 40.21 108.26 40.21 107.85C40.21 107.44 40.54 107.11 40.95 107.11H55.52C55.93 107.11 56.26 107.44 56.26 107.85C56.26 108.26 55.93 108.59 55.52 108.59Z" fill="black"/>
<path d="M59.9801 99.85H41.3401C40.9301 99.85 40.6001 99.52 40.6001 99.11C40.6001 98.7 40.9301 98.37 41.3401 98.37H59.9801C60.3901 98.37 60.7201 98.7 60.7201 99.11C60.7201 99.52 60.3901 99.85 59.9801 99.85Z" fill="black"/>
<path d="M51.8001 103.91H41.3401C40.9301 103.91 40.6001 103.58 40.6001 103.17C40.6001 102.76 40.9301 102.43 41.3401 102.43H51.8001C52.2101 102.43 52.5401 102.76 52.5401 103.17C52.5401 103.58 52.2101 103.91 51.8001 103.91Z" fill="black"/>
<path d="M80.8499 108.59H70.3899C69.9799 108.59 69.6499 108.26 69.6499 107.85C69.6499 107.44 69.9799 107.11 70.3899 107.11H80.8499C81.2599 107.11 81.5899 107.44 81.5899 107.85C81.5899 108.26 81.2599 108.59 80.8499 108.59Z" fill="black"/>
</g>
<path d="M28.8901 64.64H92.4701" stroke="#9B9B9B" stroke-miterlimit="10"/>
</g>
<path d="M59.5801 51.02C59.3601 51.24 61.2601 52.48 62.0601 53.51C62.8601 54.54 65.7401 59.87 67.2901 59.48C68.8401 59.09 67.6901 54.97 67.6901 54.97C67.6901 54.97 68.3801 50.46 68.1001 50.49C67.8201 50.53 60.2401 50.35 59.5801 51.02Z" fill="#644DF6"/>
<g opacity="0.3">
<path d="M59.5801 51.02C59.3601 51.24 61.2601 52.48 62.0601 53.51C62.8601 54.54 65.7401 59.87 67.2901 59.48C68.8401 59.09 67.6901 54.97 67.6901 54.97C67.6901 54.97 68.3801 50.46 68.1001 50.49C67.8201 50.53 60.2401 50.35 59.5801 51.02Z" fill="black"/>
</g>
<path d="M39.6499 41.41C39.6499 41.41 39.7599 45.31 44.3999 46.16L48.4699 46.56C48.4699 46.56 48.5799 52.16 55.1999 52.2701L60.3499 51.65C60.3499 51.65 68.2699 51.43 73.3599 51.88C74.8099 52.01 76.9299 52.22 79.0199 51.48C81.1099 50.74 88.2299 44.02 81.0499 35.65C81.0499 35.65 81.6699 31.86 77.8299 30.96C77.8299 30.96 76.1299 25.76 70.4799 25.81C70.4799 25.81 68.6099 23.49 65.7899 24.45C65.7899 24.45 60.3599 22 56.2299 24.22C56.2299 24.22 51.3099 23.15 47.6399 27.17C47.6399 27.17 43.6799 28.4101 42.6599 31.4101C42.6599 31.4101 37.7999 34.5501 39.2699 38.1801C39.2699 38.1801 38.4199 38.82 38.5899 40.06C38.7599 41.3 39.6599 41.42 39.6599 41.42L39.6499 41.41Z" fill="#644DF6"/>
<path d="M68.9401 37.2501C68.9401 37.2501 68.7001 37.2901 68.3901 37.5601C68.2401 37.7001 68.0701 37.9101 67.9601 38.1901C67.8501 38.4701 67.8001 38.8301 67.9301 39.2001V39.2401L67.9001 39.2301C67.3601 39.0801 66.7201 38.9401 65.9901 38.8601C65.2601 38.7801 64.4601 38.7601 63.5901 38.8301C61.8601 38.9701 59.9001 39.5201 58.1001 40.6601H58.0801H58.0601C57.6801 40.5401 57.2701 40.4501 56.8401 40.3801C55.8901 40.2301 54.9501 40.1901 54.0501 40.2801C53.6001 40.3301 53.1701 40.4201 52.7601 40.5801C52.3501 40.7301 51.9601 40.9001 51.6001 41.1101C51.2401 41.3201 50.9301 41.5801 50.6401 41.8401C50.3501 42.1101 50.0601 42.3601 49.8201 42.6401C49.3401 43.2001 48.9801 43.8001 48.7401 44.3801C48.6201 44.6701 48.5301 44.9601 48.4701 45.2301C48.4101 45.5101 48.3901 45.7701 48.3901 46.0201C48.3901 46.5201 48.4701 46.9501 48.5601 47.2901C48.6401 47.6301 48.7301 47.8901 48.7901 48.0701C48.8201 48.1501 48.8401 48.2201 48.8601 48.2701C48.8801 48.3101 48.8801 48.3401 48.8801 48.3401C48.8801 48.3401 48.7101 47.9901 48.5301 47.3001C48.4401 46.9601 48.3601 46.5301 48.3501 46.0201C48.3501 45.7701 48.3701 45.5001 48.4201 45.2201C48.4801 44.9401 48.5701 44.6501 48.6801 44.3601C48.9201 43.7701 49.2801 43.1701 49.7601 42.6001C50.0001 42.3101 50.2901 42.0601 50.5801 41.7901C50.8701 41.5201 51.1901 41.2601 51.5501 41.0401C51.9101 40.8201 52.3101 40.6601 52.7201 40.5001C53.1301 40.3401 53.5701 40.2401 54.0301 40.2001C54.9401 40.1101 55.8901 40.1501 56.8401 40.3001C57.2701 40.3701 57.6901 40.4601 58.0701 40.5901H58.0401C59.8501 39.4501 61.8301 38.9001 63.5701 38.7601C64.4401 38.6901 65.2501 38.7101 65.9801 38.8001C66.7101 38.8901 67.3501 39.0401 67.9001 39.1901L67.8701 39.2201C67.7401 38.8401 67.8001 38.4601 67.9101 38.1801C68.0301 37.8901 68.2001 37.6901 68.3601 37.5501C68.5201 37.4101 68.6701 37.3401 68.7701 37.3001C68.8701 37.2701 68.9301 37.2501 68.9301 37.2501H68.9401Z" fill="#1A2E35"/>
<path d="M75.9999 36.7201C75.9999 36.7201 75.9999 36.7401 75.9799 36.7901C75.9599 36.8401 75.9399 36.9101 75.9099 37.0001C75.8599 37.1801 75.7499 37.4501 75.6199 37.7901C75.4699 38.1201 75.2899 38.5301 75.0299 38.9801C74.9099 39.2101 74.7499 39.4401 74.5899 39.6901C74.4199 39.9301 74.2399 40.1801 74.0399 40.4401C73.2299 41.4601 72.0599 42.5401 70.5299 43.3501C69.7599 43.7501 68.9099 44.0701 67.9999 44.3001C67.0899 44.5101 66.1099 44.6301 65.1199 44.6101C64.5699 44.6101 64.0399 44.5401 63.5099 44.4601C62.9899 44.3801 62.4799 44.2501 61.9899 44.1001H62.0299C61.1799 44.7401 60.1899 45.0901 59.2499 45.2001C58.2999 45.3101 57.3999 45.1801 56.6299 44.9001H56.6599C56.3199 45.1601 55.9499 45.3501 55.5799 45.4801C55.2199 45.6101 54.8599 45.6901 54.5099 45.7301C54.4199 45.7401 54.3399 45.7501 54.2599 45.7501C54.1799 45.7501 54.0999 45.7501 54.0199 45.7501C53.8599 45.7501 53.7099 45.7501 53.5599 45.7201C53.4899 45.7201 53.4199 45.7001 53.3499 45.6901C53.2799 45.6801 53.2099 45.6601 53.1499 45.6501C53.0199 45.6301 52.8899 45.5901 52.7799 45.5601C52.3099 45.4201 51.9799 45.2401 51.7599 45.1001C51.6499 45.0301 51.5699 44.9701 51.5199 44.9301C51.4699 44.8901 51.4399 44.8701 51.4399 44.8701C51.4399 44.8701 51.4699 44.8901 51.5199 44.9201C51.5799 44.9501 51.6499 45.0101 51.7599 45.0801C51.9799 45.2101 52.3199 45.3901 52.7799 45.5201C52.8999 45.5501 53.0199 45.5901 53.1499 45.6101C53.2199 45.6201 53.2799 45.6301 53.3499 45.6501C53.4199 45.6501 53.4899 45.6701 53.5599 45.6701C53.6999 45.6901 53.8599 45.6901 54.0199 45.6901C54.0999 45.6901 54.1799 45.6901 54.2599 45.6901C54.3399 45.6901 54.4299 45.6901 54.5099 45.6701C54.8499 45.6401 55.1999 45.5501 55.5599 45.4201C55.9199 45.2901 56.2799 45.1001 56.6199 44.8401H56.6299H56.6499C57.4099 45.1101 58.2999 45.2401 59.2399 45.1201C60.1699 45.0101 61.1499 44.6601 61.9799 44.0201H61.9999H62.0199C62.4999 44.1601 62.9999 44.2901 63.5199 44.3701C64.0399 44.4501 64.5699 44.5101 65.1199 44.5101C66.1099 44.5301 67.0799 44.4101 67.9799 44.2001C68.8899 43.9801 69.7299 43.6601 70.4999 43.2601C72.0199 42.4601 73.1799 41.3901 73.9999 40.3801C74.2099 40.1301 74.3899 39.8801 74.5599 39.6401C74.7199 39.3901 74.8699 39.1701 74.9999 38.9401C75.2599 38.5001 75.4499 38.0901 75.5999 37.7601C75.7399 37.4201 75.8399 37.1601 75.8999 36.9801C75.9299 36.8901 75.9599 36.8201 75.9699 36.7701C75.9899 36.7201 75.9999 36.7001 75.9999 36.7001V36.7201Z" fill="#1A2E35"/>
<path d="M52.2898 48.93C52.2898 48.93 52.2898 48.88 52.2798 48.78C52.2798 48.68 52.2798 48.54 52.2798 48.37C52.2898 48.02 52.3298 47.53 52.5298 47.03C52.7298 46.53 53.0998 46.17 53.4098 46.01C53.5698 45.93 53.6998 45.89 53.7998 45.87C53.8998 45.85 53.9498 45.85 53.9498 45.86C53.9498 45.88 53.7298 45.89 53.4398 46.06C53.1498 46.23 52.7998 46.58 52.5998 47.07C52.3998 47.55 52.3598 48.04 52.3298 48.38C52.2998 48.72 52.2898 48.94 52.2798 48.94L52.2898 48.93Z" fill="#1A2E35"/>
<path d="M74.6001 47.8801C74.6001 47.8801 74.5801 47.8801 74.5501 47.8801C74.5101 47.8801 74.4701 47.8601 74.4101 47.8501C74.2801 47.8201 74.1101 47.7701 73.8801 47.7101C73.7701 47.6801 73.6401 47.6401 73.5001 47.6101C73.3601 47.5801 73.2101 47.5401 73.0401 47.5101C72.8801 47.4701 72.7001 47.4301 72.5101 47.3901C72.3201 47.3601 72.1201 47.3201 71.9201 47.2801C71.0901 47.1201 70.0901 46.9901 68.9701 46.9101C67.8501 46.8201 66.6201 46.8101 65.3301 46.8901C63.6701 46.9901 62.1301 47.2301 60.8101 47.5401C59.4901 47.8401 58.4101 48.2101 57.6301 48.4701V48.4501C57.6201 48.6901 57.5501 48.8901 57.4601 49.0501C57.3701 49.2101 57.2501 49.3201 57.1501 49.4001C56.9501 49.5601 56.8301 49.6101 56.8301 49.6101C56.8301 49.6101 56.8601 49.5901 56.9101 49.5501C56.9601 49.5101 57.0401 49.4601 57.1401 49.3801C57.2301 49.3001 57.3401 49.1901 57.4301 49.0301C57.5201 48.8701 57.5801 48.6701 57.6001 48.4401L57.6101 48.4201C58.3801 48.1401 59.4701 47.7701 60.7801 47.4601C62.1001 47.1501 63.6501 46.9001 65.3101 46.8001C66.6001 46.7201 67.8401 46.7401 68.9601 46.8301C70.0801 46.9201 71.0801 47.0501 71.9101 47.2201C72.1201 47.2601 72.3201 47.3001 72.5001 47.3401C72.6901 47.3801 72.8601 47.4301 73.0301 47.4601C73.1901 47.5001 73.3501 47.5401 73.4901 47.5701C73.6301 47.6101 73.7601 47.6401 73.8701 47.6801C74.0901 47.7401 74.2701 47.8001 74.3901 47.8301C74.4501 47.8501 74.4901 47.8601 74.5301 47.8701C74.5601 47.8701 74.5801 47.8901 74.5801 47.8901L74.6001 47.8801Z" fill="#1A2E35"/>
<path d="M78.7796 45.6301C78.7796 45.6301 78.7896 45.6201 78.8196 45.6001C78.8496 45.5801 78.8896 45.5501 78.9496 45.5201C79.0596 45.4501 79.2196 45.3401 79.4196 45.1901C79.8196 44.8901 80.3796 44.4201 80.8796 43.6801C81.1296 43.3101 81.3596 42.8801 81.5196 42.3801C81.6796 41.8801 81.7696 41.3201 81.7396 40.7401C81.7096 40.1601 81.5596 39.5401 81.2296 38.9901C80.8996 38.4401 80.4196 37.9601 79.8196 37.6501C79.4496 37.4501 79.0396 37.3501 78.6596 37.3201H78.5996L78.6296 37.2601C78.8996 36.7201 79.0596 36.1401 79.0296 35.5701C78.9996 35.0101 78.7896 34.4901 78.5196 34.0501C78.2496 33.6101 77.8996 33.2501 77.5196 33.0001C77.1396 32.7501 76.7296 32.6101 76.3596 32.5301C75.9796 32.4501 75.6296 32.4401 75.3296 32.4501C75.0196 32.4501 74.7596 32.4801 74.5496 32.5001C74.3396 32.5201 74.1796 32.5301 74.0596 32.5401C74.0096 32.5401 73.9696 32.5401 73.9296 32.5401C73.9596 32.5401 73.9996 32.5401 74.0596 32.5201C74.1796 32.5101 74.3396 32.4901 74.5496 32.4601C74.7596 32.4401 75.0296 32.4101 75.3296 32.3901C75.6396 32.3801 75.9896 32.3901 76.3796 32.4601C76.7596 32.5301 77.1796 32.6801 77.5696 32.9301C77.9596 33.1801 78.3196 33.5401 78.5896 33.9901C78.8596 34.4301 79.0796 34.9601 79.1096 35.5401C79.1496 36.1201 78.9796 36.7201 78.7096 37.2701L78.6796 37.2101C79.0796 37.2401 79.4996 37.3501 79.8796 37.5501C80.4896 37.8701 80.9896 38.3601 81.3196 38.9201C81.6496 39.4801 81.8096 40.1101 81.8396 40.7001C81.8696 41.3001 81.7696 41.8601 81.6096 42.3701C81.4396 42.8701 81.2096 43.3101 80.9496 43.6801C80.4296 44.4201 79.8596 44.8901 79.4596 45.1801C79.0496 45.4701 78.7996 45.6001 78.7996 45.6001L78.7796 45.6301Z" fill="#1A2E35"/>
<path d="M64.64 38.6C64.64 38.6 64.6 38.6 64.52 38.58C64.48 38.58 64.43 38.56 64.38 38.54C64.33 38.52 64.27 38.5 64.2 38.47C64.07 38.41 63.93 38.33 63.78 38.21C63.64 38.09 63.49 37.94 63.37 37.76C63.25 37.58 63.16 37.39 63.1 37.22C63.04 37.04 63.01 36.87 63 36.73C63 36.66 63 36.6 63 36.54C63 36.48 63 36.44 63.01 36.4C63.02 36.32 63.03 36.28 63.04 36.28C63.06 36.28 63.03 36.45 63.06 36.73C63.07 36.87 63.11 37.03 63.17 37.2C63.23 37.37 63.32 37.55 63.44 37.72C63.56 37.89 63.7 38.04 63.83 38.15C63.97 38.26 64.11 38.36 64.23 38.42C64.47 38.54 64.65 38.58 64.64 38.59V38.6Z" fill="#1A2E35"/>
<path d="M58.9201 38.22C58.9201 38.22 58.9801 38.36 59.0101 38.6C59.0401 38.84 59.0101 39.18 58.8901 39.53C58.7701 39.88 58.5701 40.16 58.4001 40.33C58.2301 40.5 58.1001 40.58 58.1001 40.57C58.1001 40.56 58.2101 40.47 58.3601 40.29C58.5101 40.11 58.6901 39.84 58.8101 39.5C58.9301 39.16 58.9501 38.84 58.9401 38.6C58.9401 38.37 58.9001 38.22 58.9101 38.22H58.9201Z" fill="#1A2E35"/>
<path d="M53.9598 40.24C53.9598 40.24 53.9398 40.24 53.8998 40.24C53.8598 40.24 53.7998 40.24 53.7198 40.24C53.5698 40.22 53.3398 40.13 53.1398 39.93C52.9398 39.73 52.7598 39.43 52.6798 39.06C52.6098 38.69 52.6298 38.28 52.6698 37.86C52.7098 37.44 52.7398 37.04 52.7198 36.68C52.6998 36.32 52.6498 35.99 52.5898 35.72C52.5298 35.45 52.4598 35.24 52.4098 35.09C52.3598 34.94 52.3298 34.86 52.3398 34.86C52.3398 34.86 52.3498 34.88 52.3698 34.91C52.3898 34.95 52.4098 35 52.4398 35.07C52.4998 35.21 52.5698 35.43 52.6398 35.7C52.7098 35.97 52.7698 36.3 52.7898 36.67C52.8198 37.04 52.7898 37.45 52.7498 37.87C52.7098 38.29 52.6798 38.69 52.7498 39.05C52.8098 39.4 52.9798 39.7 53.1698 39.89C53.3598 40.09 53.5698 40.18 53.7198 40.21C53.8698 40.24 53.9598 40.23 53.9598 40.24Z" fill="#1A2E35"/>
<path d="M50.3097 42.1C50.3097 42.1 50.4796 41.9 50.5496 41.51C50.6196 41.12 50.5197 40.54 50.1497 40.06C49.7697 39.58 49.2896 39.29 48.9496 39.09C48.7896 39 48.6496 38.92 48.5396 38.86C48.4396 38.8 48.3896 38.77 48.3896 38.77C48.3896 38.77 48.4496 38.79 48.5496 38.84C48.6496 38.89 48.7996 38.96 48.9796 39.05C49.3296 39.24 49.8297 39.53 50.2197 40.02C50.6097 40.52 50.6996 41.13 50.6096 41.53C50.5696 41.73 50.4996 41.88 50.4296 41.98C50.3696 42.07 50.3196 42.12 50.3196 42.12L50.3097 42.1Z" fill="#1A2E35"/>
<path d="M48.4799 44.9901C48.4799 44.9901 48.4399 44.9901 48.3599 44.9901C48.2799 44.9901 48.1599 44.9901 48.0199 44.9901C47.8699 44.9901 47.6999 44.9701 47.4899 44.9401C47.2899 44.9001 47.0499 44.8701 46.7999 44.8001C46.2899 44.6701 45.6999 44.4401 45.1099 44.0801C44.5199 43.7201 43.9199 43.2301 43.4099 42.6101C42.9099 41.9801 42.5499 41.2901 42.3499 40.6301C42.2499 40.3001 42.1999 39.9701 42.1899 39.6601C42.1899 39.5001 42.1999 39.3501 42.2299 39.2101C42.2599 39.0701 42.2999 38.9401 42.3499 38.8101C42.5299 38.3201 42.7599 37.9501 42.9499 37.7301C43.0399 37.6201 43.1299 37.5401 43.1899 37.4901C43.2499 37.4501 43.2899 37.4301 43.2899 37.4301C43.2899 37.4301 43.2599 37.4601 43.1999 37.5001C43.1399 37.5501 43.0599 37.6301 42.9699 37.7401C42.7899 37.9701 42.5699 38.3301 42.3999 38.8201C42.3599 38.9401 42.3199 39.0701 42.2899 39.2101C42.2599 39.3501 42.2499 39.4901 42.2599 39.6501C42.2599 39.9501 42.3199 40.2801 42.4199 40.6001C42.6299 41.2501 42.9799 41.9301 43.4699 42.5501C43.9699 43.1701 44.5599 43.6501 45.1399 44.0101C45.7299 44.3701 46.3099 44.6001 46.8099 44.7301C47.0599 44.8101 47.2899 44.8401 47.4899 44.8801C47.6899 44.9101 47.8699 44.9301 48.0199 44.9401C48.1599 44.9401 48.2699 44.9501 48.3599 44.9501C48.4399 44.9501 48.4799 44.9501 48.4799 44.9601V44.9901Z" fill="#1A2E35"/>
<path d="M44.6196 33.9001C44.6196 33.9001 44.5896 33.9001 44.5396 33.9001C44.4796 33.9001 44.3996 33.8801 44.2996 33.8701C44.0996 33.8501 43.7996 33.8201 43.4296 33.8201C43.0596 33.8201 42.6196 33.8701 42.1696 34.0401C41.7196 34.2101 41.2496 34.5101 40.9696 34.9901C40.6896 35.4601 40.6296 36.0401 40.8096 36.4801C40.9896 36.9301 41.3596 37.2001 41.6896 37.3501C42.0196 37.5001 42.3196 37.5601 42.5196 37.5901C42.7196 37.6201 42.8396 37.6301 42.8396 37.6301C42.8396 37.6301 42.8096 37.6301 42.7596 37.6301C42.7096 37.6301 42.6296 37.6301 42.5196 37.6201C42.3196 37.6001 42.0096 37.5501 41.6696 37.4001C41.4996 37.3201 41.3196 37.2201 41.1496 37.0701C40.9896 36.9201 40.8396 36.7301 40.7396 36.5001C40.5496 36.0401 40.5996 35.4301 40.8996 34.9401C41.1996 34.4401 41.6896 34.1301 42.1396 33.9601C42.5996 33.7901 43.0496 33.7501 43.4196 33.7501C43.7896 33.7501 44.0896 33.7901 44.2896 33.8301C44.3896 33.8501 44.4696 33.8601 44.5196 33.8701C44.5696 33.8801 44.5996 33.8901 44.5996 33.8901L44.6196 33.9001Z" fill="#1A2E35"/>
<path d="M57.72 28.13C57.72 28.13 57.71 28.13 57.68 28.1C57.65 28.08 57.62 28.05 57.57 28.02C57.48 27.95 57.34 27.84 57.16 27.71C56.8 27.45 56.25 27.09 55.47 26.89C55.08 26.79 54.65 26.74 54.18 26.73C53.71 26.73 53.21 26.77 52.7 26.91C52.2 27.05 51.68 27.28 51.21 27.6C50.74 27.92 50.32 28.35 49.98 28.85C49.9 28.96 49.84 29.07 49.77 29.18V29.2H49.73C48.56 29.17 47.47 29.6 46.68 30.23C46.28 30.54 45.96 30.9 45.71 31.27C45.46 31.64 45.29 32.02 45.16 32.38C44.92 33.1 44.89 33.72 44.9 34.14C44.9 34.25 44.91 34.34 44.92 34.42C44.92 34.5 44.93 34.57 44.94 34.62C44.94 34.67 44.95 34.71 44.96 34.75C44.96 34.78 44.96 34.79 44.96 34.79C44.96 34.79 44.89 34.56 44.87 34.14C44.84 33.72 44.87 33.09 45.1 32.36C45.22 32 45.4 31.61 45.64 31.23C45.89 30.86 46.21 30.48 46.62 30.17C47.41 29.54 48.52 29.09 49.71 29.12L49.67 29.14C49.73 29.03 49.8 28.92 49.88 28.81C50.23 28.3 50.66 27.87 51.14 27.54C51.62 27.21 52.14 26.99 52.65 26.84C53.16 26.7 53.67 26.65 54.15 26.66C54.62 26.67 55.06 26.73 55.45 26.83C56.23 27.04 56.79 27.41 57.14 27.68C57.32 27.82 57.45 27.93 57.54 28C57.58 28.04 57.61 28.07 57.64 28.09C57.66 28.11 57.67 28.12 57.67 28.12L57.72 28.13Z" fill="#1A2E35"/>
<path d="M47.9099 31.4C47.9099 31.4 47.9299 31.4 47.9799 31.4C48.0299 31.4 48.0899 31.42 48.1799 31.44C48.3499 31.48 48.5899 31.56 48.8599 31.73C49.1199 31.9 49.4099 32.16 49.6199 32.52C49.8299 32.88 49.9499 33.34 49.9199 33.82C49.8899 34.3 49.7199 34.74 49.4599 35.07C49.2099 35.4 48.8899 35.62 48.6099 35.76C48.3299 35.89 48.0799 35.95 47.8999 35.97C47.8099 35.97 47.7499 35.98 47.6999 35.98C47.6499 35.98 47.6299 35.98 47.6299 35.98C47.6299 35.98 47.7299 35.98 47.8999 35.94C48.0699 35.91 48.3099 35.85 48.5899 35.71C48.8599 35.57 49.1599 35.35 49.4099 35.03C49.6499 34.71 49.8199 34.28 49.8499 33.82C49.8799 33.36 49.7699 32.91 49.5599 32.56C49.3599 32.21 49.0899 31.96 48.8399 31.78C48.5799 31.61 48.3499 31.52 48.1899 31.47C48.0299 31.42 47.9299 31.41 47.9299 31.4H47.9099Z" fill="#1A2E35"/>
<path d="M52.9699 30.03C52.9699 30.03 52.9999 30.09 53.0399 30.22C53.0699 30.34 53.1099 30.53 53.1199 30.76C53.1399 31.22 53.0199 31.89 52.5899 32.46C52.1599 33.03 51.5499 33.33 51.0999 33.43C50.8799 33.48 50.6899 33.5 50.5599 33.5C50.4299 33.5 50.3599 33.5 50.3599 33.49C50.3599 33.47 50.6499 33.49 51.0899 33.38C51.5199 33.26 52.1099 32.97 52.5299 32.41C52.9499 31.86 53.0699 31.21 53.0699 30.76C53.0699 30.31 52.9599 30.03 52.9799 30.03H52.9699Z" fill="#1A2E35"/>
<path d="M56.4796 37.0701C56.4796 37.0701 56.4796 36.9801 56.4996 36.8201C56.5096 36.6601 56.5196 36.4201 56.4996 36.1401C56.4596 35.5701 56.2496 34.7701 55.7396 34.0501C55.2196 33.3301 54.5296 32.8901 53.9996 32.6701C53.7296 32.5601 53.5096 32.4901 53.3496 32.4501C53.1896 32.4101 53.0996 32.3901 53.1096 32.3901C53.1096 32.3901 53.1296 32.3901 53.1796 32.3901C53.2196 32.3901 53.2896 32.4001 53.3696 32.4201C53.5296 32.4501 53.7596 32.5101 54.0296 32.6201C54.5696 32.8301 55.2896 33.2701 55.8196 34.0101C56.3496 34.7401 56.5496 35.5601 56.5696 36.1401C56.5896 36.4301 56.5696 36.6701 56.5496 36.8301C56.5496 36.9101 56.5296 36.9701 56.5196 37.0201C56.5196 37.0601 56.5096 37.0801 56.4996 37.0801L56.4796 37.0701Z" fill="#1A2E35"/>
<path d="M54.8198 28.67C54.8198 28.67 54.8898 28.7 54.9998 28.77C55.1098 28.84 55.2698 28.96 55.4298 29.14C55.5898 29.32 55.7598 29.55 55.8898 29.85C56.0198 30.14 56.1098 30.49 56.1098 30.86C56.1098 31.23 56.0298 31.58 55.8998 31.87C55.7698 32.16 55.6098 32.4 55.4398 32.58C55.2798 32.76 55.1198 32.88 55.0098 32.96C54.8998 33.03 54.8298 33.07 54.8298 33.06C54.8198 33.04 55.0898 32.91 55.3998 32.54C55.7098 32.19 56.0298 31.58 56.0298 30.85C56.0298 30.13 55.6898 29.52 55.3798 29.17C55.0698 28.81 54.7998 28.68 54.8098 28.66L54.8198 28.67Z" fill="#1A2E35"/>
<path d="M57.01 28.79C57.01 28.79 56.94 29.22 56.67 29.67C56.4 30.13 56.07 30.41 56.06 30.39C56.04 30.37 56.34 30.07 56.6 29.62C56.86 29.18 56.99 28.77 57.01 28.78V28.79Z" fill="#1A2E35"/>
<path d="M60.02 23.34C60.02 23.34 60.06 23.36 60.15 23.4C60.19 23.42 60.24 23.45 60.3 23.48C60.36 23.52 60.42 23.56 60.5 23.6C60.79 23.79 61.19 24.1 61.55 24.61C61.91 25.11 62.25 25.8 62.33 26.62C62.42 27.44 62.21 28.37 61.69 29.16C61.16 29.98 60.38 30.56 59.58 30.83L59.6 30.78C59.95 31.94 59.95 32.99 59.86 33.71C59.82 34.07 59.75 34.35 59.7 34.54C59.68 34.63 59.65 34.71 59.64 34.76C59.63 34.81 59.62 34.83 59.61 34.83C59.61 34.83 59.61 34.8 59.62 34.75C59.63 34.69 59.65 34.62 59.67 34.53C59.71 34.34 59.77 34.06 59.8 33.7C59.88 32.99 59.87 31.95 59.52 30.8V30.77L59.54 30.76C60.32 30.5 61.08 29.92 61.6 29.12C62.11 28.34 62.32 27.43 62.23 26.63C62.15 25.82 61.83 25.14 61.48 24.65C61.13 24.15 60.74 23.83 60.46 23.64C60.39 23.59 60.33 23.55 60.27 23.51C60.21 23.48 60.17 23.45 60.12 23.43C60.04 23.39 60 23.36 60 23.36L60.02 23.34Z" fill="#1A2E35"/>
<path d="M57.36 23.85C57.36 23.85 57.42 23.88 57.5 23.95C57.59 24.02 57.7 24.14 57.81 24.32C57.92 24.49 58.03 24.71 58.09 24.98C58.15 25.24 58.16 25.55 58.09 25.86C58.02 26.17 57.87 26.44 57.7 26.64C57.53 26.85 57.33 27 57.15 27.1C56.97 27.2 56.82 27.26 56.71 27.29C56.6 27.32 56.54 27.32 56.54 27.32C56.54 27.3 56.79 27.27 57.13 27.06C57.46 26.86 57.88 26.44 58.02 25.84C58.16 25.25 57.98 24.68 57.77 24.35C57.56 24.01 57.35 23.86 57.36 23.85Z" fill="#1A2E35"/>
<path d="M70.4099 25.5801C70.4099 25.5801 70.3699 25.5801 70.2799 25.5901C70.1999 25.5901 70.0799 25.6001 69.9199 25.6201C69.6099 25.6601 69.1599 25.7301 68.6199 25.9101C68.3499 26.0001 68.0699 26.1201 67.7799 26.2801C67.4899 26.4401 67.1999 26.6501 66.9099 26.8701C66.3299 27.3301 65.7299 27.9001 65.2999 28.6401C64.8799 29.3901 64.4999 30.1201 64.1899 30.7901C63.8899 31.4701 63.6499 32.1001 63.5099 32.6401C63.3599 33.1801 63.2899 33.6301 63.2499 33.9501C63.2299 34.1101 63.2199 34.2301 63.2099 34.3101C63.2099 34.3901 63.1999 34.4401 63.1899 34.4401C63.1899 34.4401 63.1899 34.4001 63.1899 34.3101C63.1899 34.2301 63.1899 34.1001 63.2099 33.9501C63.2399 33.6301 63.2999 33.1801 63.4399 32.6301C63.5799 32.0801 63.8099 31.4401 64.1099 30.7601C64.4099 30.0801 64.7999 29.3501 65.2199 28.6001C65.6599 27.8501 66.2699 27.2601 66.8599 26.8101C67.1599 26.5801 67.4499 26.3801 67.7399 26.2201C68.0299 26.0601 68.3199 25.9401 68.5899 25.8601C69.1299 25.6901 69.5899 25.6201 69.8999 25.5901C70.0599 25.5801 70.1799 25.5701 70.2599 25.5701C70.3399 25.5701 70.3899 25.5701 70.3899 25.5701L70.4099 25.5801Z" fill="#1A2E35"/>
<path d="M65.45 24.3201C65.45 24.3201 65.23 24.3301 64.89 24.3901C64.72 24.4201 64.52 24.4701 64.3 24.5501C64.09 24.6301 63.85 24.7301 63.63 24.8701C63.4 25.0101 63.2 25.1601 63.03 25.3201C62.86 25.4801 62.72 25.6301 62.62 25.7701C62.41 26.0401 62.31 26.2401 62.29 26.2301C62.29 26.2301 62.31 26.1801 62.35 26.0901C62.37 26.0501 62.4 25.9901 62.44 25.9301C62.48 25.8701 62.52 25.8001 62.57 25.7301C62.67 25.5901 62.81 25.4301 62.98 25.2601C63.15 25.1001 63.35 24.9401 63.59 24.8001C63.82 24.6601 64.06 24.5601 64.28 24.4801C64.5 24.4101 64.71 24.3601 64.88 24.3401C64.97 24.3201 65.05 24.3201 65.12 24.3201C65.19 24.3201 65.25 24.3201 65.3 24.3201C65.4 24.3201 65.45 24.3201 65.45 24.3301V24.3201Z" fill="#1A2E35"/>
<path d="M66.7598 34.86C66.7598 34.86 66.8198 34.85 66.9298 34.81C67.0398 34.77 67.1898 34.69 67.3298 34.54C67.4698 34.39 67.5898 34.17 67.6698 33.92C67.7498 33.66 67.8198 33.37 67.8898 33.06C68.0098 32.44 68.0598 31.86 68.0798 31.45C68.0798 31.24 68.0798 31.07 68.0898 30.96C68.0898 30.84 68.0898 30.78 68.0898 30.78C68.0898 30.78 68.0998 30.84 68.1098 30.96C68.1098 31.08 68.1298 31.25 68.1298 31.45C68.1298 31.87 68.0898 32.45 67.9698 33.08C67.9098 33.39 67.8298 33.69 67.7398 33.95C67.6498 34.21 67.5198 34.44 67.3698 34.59C67.2198 34.74 67.0598 34.82 66.9398 34.85C66.8798 34.87 66.8398 34.87 66.8098 34.87C66.7798 34.87 66.7598 34.87 66.7598 34.87V34.86Z" fill="#1A2E35"/>
<path d="M71.5101 37.2101C71.5101 37.2101 71.6801 36.88 71.6701 36.31C71.6701 36.03 71.6101 35.6901 71.4601 35.3501C71.3201 35.0101 71.0801 34.6601 70.7601 34.3701C70.4401 34.0801 70.0701 33.8801 69.7201 33.7501C69.3701 33.6201 69.0301 33.5501 68.7501 33.5201C68.4701 33.4901 68.2401 33.4801 68.0801 33.4801C67.9201 33.4801 67.8301 33.4801 67.8301 33.4801C67.8301 33.4801 67.8501 33.48 67.8901 33.47C67.9301 33.47 67.9901 33.46 68.0701 33.45C68.2301 33.44 68.4601 33.4401 68.7501 33.4601C69.0401 33.4901 69.3801 33.5501 69.7401 33.6801C70.1001 33.8101 70.4801 34.01 70.8101 34.31C71.1401 34.61 71.3801 34.9701 71.5201 35.3201C71.6601 35.6801 71.7201 36.02 71.7201 36.31C71.7201 36.6 71.6601 36.8301 71.6101 36.9801C71.5901 37.0601 71.5501 37.11 71.5401 37.15C71.5201 37.19 71.5101 37.2101 71.5101 37.2101Z" fill="#1A2E35"/>
<path d="M67.8796 28.8601C67.8796 28.8601 67.9096 28.85 67.9796 28.83C68.0396 28.81 68.1396 28.79 68.2596 28.76C68.5096 28.71 68.8796 28.66 69.3296 28.67C69.7796 28.69 70.3296 28.77 70.8896 29.01C71.4496 29.25 71.9896 29.6701 72.3896 30.2501C72.7796 30.8301 72.9796 31.51 72.9296 32.12C72.8896 32.7301 72.6496 33.2501 72.3696 33.6101C72.0896 33.9701 71.7796 34.2 71.5496 34.31C71.4396 34.37 71.3396 34.41 71.2796 34.42C71.2196 34.44 71.1796 34.45 71.1796 34.45C71.1796 34.45 71.2096 34.4301 71.2696 34.4101C71.3296 34.3901 71.4196 34.34 71.5296 34.28C71.7496 34.16 72.0496 33.9301 72.3196 33.5701C72.5796 33.2101 72.8096 32.7001 72.8496 32.1101C72.8896 31.5201 72.6996 30.86 72.3196 30.29C71.9296 29.72 71.3996 29.3101 70.8596 29.0701C70.3196 28.8301 69.7796 28.74 69.3296 28.72C68.8796 28.7 68.5096 28.75 68.2596 28.79C68.0096 28.83 67.8696 28.8701 67.8696 28.8601H67.8796Z" fill="#1A2E35"/>
<path d="M72.5799 30.4401C72.5799 30.4401 72.6299 30.2001 72.6399 29.8001C72.6399 29.7001 72.6399 29.5901 72.6399 29.4801C72.6399 29.3601 72.6199 29.2401 72.5999 29.1101C72.5499 28.8501 72.4799 28.5801 72.3699 28.3001C72.2499 28.0201 72.1099 27.7801 71.9599 27.5601C71.8799 27.4601 71.8099 27.3601 71.7299 27.2701C71.6599 27.1801 71.5799 27.1101 71.5099 27.0401C71.2199 26.7701 71.0099 26.6501 71.0199 26.6301C71.0199 26.6301 71.0799 26.6501 71.1699 26.7101C71.2199 26.7401 71.2799 26.7701 71.3399 26.8201C71.3999 26.8701 71.4799 26.9201 71.5499 26.9901C71.6299 27.0601 71.7099 27.1301 71.7799 27.2201C71.8599 27.3001 71.9399 27.4001 72.0199 27.5101C72.1799 27.7301 72.3199 27.9801 72.4399 28.2601C72.5599 28.5401 72.6299 28.8301 72.6699 29.0901C72.6899 29.2201 72.6999 29.3501 72.6999 29.4601C72.6999 29.5801 72.6999 29.6901 72.6999 29.7901C72.6999 29.8901 72.6799 29.9801 72.6699 30.0601C72.6699 30.1401 72.6499 30.2101 72.6299 30.2601C72.5999 30.3701 72.5899 30.4301 72.5799 30.4301V30.4401Z" fill="#1A2E35"/>
<path d="M77.6996 30.6901C77.6996 30.6901 77.4596 30.6601 77.0696 30.6601C76.8696 30.6601 76.6396 30.6801 76.3896 30.7301C76.1396 30.7801 75.8596 30.8501 75.5896 30.9601C75.3196 31.0701 75.0696 31.2101 74.8496 31.3501C74.6396 31.5001 74.4596 31.6401 74.3196 31.7801C74.0396 32.0501 73.8996 32.2501 73.8896 32.2401C73.8896 32.2401 73.9196 32.1901 73.9796 32.0901C74.0096 32.0401 74.0496 31.9901 74.0996 31.9301C74.1496 31.8701 74.2096 31.8001 74.2796 31.7301C74.4196 31.5901 74.5996 31.4301 74.8096 31.2801C75.0296 31.1301 75.2796 30.9901 75.5596 30.8701C75.8396 30.7601 76.1196 30.6801 76.3796 30.6401C76.6396 30.6001 76.8796 30.5801 77.0696 30.5901C77.1696 30.5901 77.2596 30.6001 77.3396 30.6101C77.4196 30.6101 77.4896 30.6301 77.5396 30.6401C77.6496 30.6601 77.7096 30.6701 77.7096 30.6801L77.6996 30.6901Z" fill="#1A2E35"/>
<path d="M80.71 43.96C80.71 43.96 80.73 43.98 80.75 44.03C80.77 44.08 80.79 44.16 80.82 44.26C80.87 44.46 80.9 44.75 80.87 45.12C80.84 45.48 80.74 45.91 80.54 46.35C80.34 46.79 80.04 47.24 79.67 47.65C79.29 48.06 78.86 48.38 78.42 48.59C77.98 48.8 77.55 48.88 77.19 48.92C76.83 48.96 76.53 48.94 76.33 48.94C76.23 48.94 76.15 48.94 76.1 48.94C76.05 48.94 76.02 48.94 76.02 48.94C76.02 48.94 76.05 48.94 76.1 48.92C76.15 48.92 76.23 48.91 76.33 48.91C76.53 48.91 76.83 48.91 77.18 48.87C77.54 48.83 77.96 48.74 78.39 48.53C78.82 48.33 79.24 48.01 79.61 47.61C79.98 47.21 80.27 46.77 80.48 46.34C80.68 45.91 80.79 45.49 80.82 45.13C80.86 44.77 80.82 44.48 80.79 44.28C80.77 44.18 80.75 44.11 80.74 44.05C80.73 44 80.72 43.97 80.72 43.97L80.71 43.96Z" fill="#1A2E35"/>
<g opacity="0.3">
<path d="M68.5497 37.35C67.8897 37.58 67.2797 37.95 66.7797 38.43C64.2497 37.55 61.3697 37.76 58.9997 39C58.5797 39.22 58.1697 39.47 57.7197 39.59C57.1497 39.74 56.5597 39.68 55.9697 39.65C54.6497 39.58 53.2997 39.65 52.0397 40.07C50.7797 40.48 49.6097 41.24 48.8597 42.33C48.1097 43.42 47.8297 44.86 48.2597 46.11L48.4097 46.33C48.2897 44.98 48.8797 43.64 49.8797 42.54C50.8797 41.44 52.2497 40.47 53.7297 40.26C55.1997 40.06 56.6197 40.35 58.0797 40.62C61.0797 38.98 64.5597 38.43 67.8697 39.25C67.5797 38.57 67.8997 37.69 68.5497 37.35Z" fill="black"/>
</g>
<g opacity="0.3">
<path d="M62.0099 44.0601C60.4599 45.0901 58.4699 45.4201 56.6799 44.8701C54.0899 46.2101 53.3099 45.6901 52.1099 45.3001C52.6999 46.0301 53.7999 46.4201 54.7399 46.4701C55.6799 46.5201 56.6299 46.1401 57.2899 45.4801C58.5799 45.9501 60.0099 45.7901 61.3799 45.6301C62.5199 45.4901 63.6599 45.3601 64.7999 45.2201C66.0599 45.0701 67.3299 44.9201 68.5399 44.5401C69.7499 44.1601 70.9099 43.5301 71.7399 42.5601C68.8699 44.5001 65.3399 44.9901 61.9999 44.0601H62.0099Z" fill="black"/>
</g>
<g opacity="0.3">
<path d="M47.7598 35.96C48.3098 36.14 49.0998 35.98 49.6098 35.7C50.1198 35.42 50.4998 34.93 50.6498 34.38C50.6898 34.23 50.7198 34.07 50.8398 33.97C50.9698 33.87 51.1498 33.88 51.3098 33.88C51.8498 33.87 52.3698 33.61 52.6998 33.19C53.0298 32.77 53.1598 32.2 53.0498 31.67C52.5898 32.9 51.1198 33.64 49.8598 33.27C49.8198 34.35 49.4898 35.64 47.7598 35.96Z" fill="black"/>
</g>
<g opacity="0.3">
<path d="M57.9698 27.67C56.9598 26.3 55.2798 25.6 53.5998 25.83C51.9098 26.06 50.3498 27.06 49.4398 28.5C48.5798 28.52 47.7198 28.66 46.9298 29C46.1398 29.35 45.4398 29.92 45.0298 30.67C44.3598 31.93 44.2698 33.48 45.0098 34.79C44.7598 33.22 45.0798 31.91 45.9298 30.91C46.7798 29.91 48.5698 29.08 49.8798 29.14C50.3398 28.04 51.2098 27.31 52.3598 26.98C53.5098 26.66 54.8098 26.62 55.9398 26.98C57.0798 27.34 58.6998 29.06 58.6998 29.31C58.7598 28.75 58.4998 28.37 57.9698 27.65V27.67Z" fill="black"/>
</g>
<g opacity="0.3">
<path d="M69.8296 25.57C67.7396 25.26 65.6096 26.41 64.3896 28.13C63.1696 29.85 63.0296 31.83 63.1896 33.94C63.1896 33.94 63.9596 30.38 65.2196 28.69C66.7496 26.64 69.3196 25.26 69.8196 25.57H69.8296Z" fill="black"/>
</g>
<g opacity="0.3">
<path d="M68.1198 31.29C68.3498 31.81 68.4298 32.39 68.3498 32.95C69.4298 32.95 70.4198 33.64 71.0098 34.55C70.6198 34.14 70.0398 33.8 69.4698 33.63C68.8998 33.46 68.3698 33.37 67.8398 33.54C67.9698 32.73 68.1798 31.96 68.1098 31.23" fill="black"/>
</g>
<g opacity="0.3">
<path d="M82.4797 40.24C82.2297 39.45 81.6697 38.76 80.9397 38.36C82.0997 40.06 81.9197 42.32 80.7097 43.95C81.0697 45.23 80.7997 46.82 78.6797 48.39C79.9497 48.18 81.3297 46.79 81.4997 45.51C81.5697 44.98 81.4997 44.42 81.6497 43.91C81.7897 43.46 82.0897 43.08 82.2997 42.65C82.6697 41.91 82.7397 41.02 82.4897 40.23L82.4797 40.24Z" fill="black"/>
</g>
<g opacity="0.3">
<path d="M40.6401 35.9101C40.6401 35.9101 40.6501 35.9501 40.6601 35.9701C40.6601 35.9401 40.6701 35.9101 40.6801 35.8701L40.6401 35.9101Z" fill="black"/>
</g>
<g opacity="0.3">
<path d="M42.81 41.4301C42.58 41.1001 42.37 40.7401 42.28 40.3501C42.06 39.4201 42.53 38.4901 42.98 37.6501C41.88 37.7601 40.95 37.2101 40.65 35.9601C40.47 36.8101 40.7 37.8201 41.4 38.3201C41.09 39.6101 41.35 41.0201 42.09 42.1201C42.83 43.2201 44.05 43.9901 45.36 44.1801C44.38 43.3901 43.52 42.4601 42.81 41.4201V41.4301Z" fill="black"/>
</g>
<path d="M65.8696 51.2601C65.7396 51.4901 64.1496 52.8301 64.6696 54.4801C65.3496 56.6301 68.5896 56.7001 71.1396 56.2001C74.8896 55.4701 76.6596 53.8701 76.6596 51.7301C76.6596 50.0001 65.8696 51.2701 65.8696 51.2701V51.2601Z" fill="#644DF6"/>
<path d="M76.6597 51.73C76.6597 51.73 76.6197 51.73 76.5297 51.71C76.4397 51.69 76.3197 51.67 76.1697 51.64C76.0197 51.61 75.8297 51.58 75.5997 51.54C75.3797 51.5 75.1297 51.46 74.8497 51.43C74.2897 51.35 73.6297 51.29 72.8797 51.25C72.1397 51.2 71.3197 51.18 70.4597 51.18C68.7397 51.18 67.1897 51.26 66.0597 51.32C65.4997 51.35 65.0497 51.38 64.7297 51.4C64.5797 51.4 64.4597 51.41 64.3697 51.42C64.2897 51.42 64.2397 51.42 64.2397 51.42C64.2397 51.42 64.2797 51.42 64.3697 51.4C64.4597 51.4 64.5797 51.38 64.7297 51.37C65.0397 51.34 65.4997 51.31 66.0597 51.27C67.1797 51.19 68.7397 51.1 70.4597 51.1C71.3197 51.1 72.1397 51.13 72.8797 51.18C73.6197 51.23 74.2897 51.3 74.8497 51.38C75.1297 51.42 75.3797 51.46 75.5997 51.5C75.8197 51.54 76.0097 51.57 76.1597 51.61C76.3097 51.64 76.4297 51.67 76.5097 51.69C76.5897 51.71 76.6297 51.72 76.6297 51.72L76.6597 51.73Z" fill="#1A2E35"/>
<g opacity="0.3">
<path d="M76.66 51.7601C72.87 50.8201 68.88 51.2101 64.98 51.3901C69.1 51.7701 73.04 51.7801 76.66 51.7601Z" fill="black"/>
</g>
<g opacity="0.3">
<path d="M60.09 47.6601C59.43 47.8501 58.23 48.2201 57.64 48.4401C57.55 48.9301 57.35 49.3501 56.92 49.5801C56.41 49.8101 55.84 49.8901 55.29 49.8201C55.94 49.9501 56.62 50.0601 57.27 49.9001C57.92 49.7501 58.53 49.2601 58.63 48.6001C62.34 47.3401 66.29 46.8201 70.2 47.0701C66.87 46.3901 63.35 46.6901 60.09 47.6501V47.6601Z" fill="black"/>
</g>
<g opacity="0.3">
<path d="M72.2798 33.66C72.2798 33.66 72.2998 33.65 72.3098 33.64C73.1698 33.16 73.6098 32.03 73.2798 31.1C73.2198 30.94 73.1498 30.79 73.1398 30.63C73.1398 30.46 73.1998 30.3 73.2398 30.14C73.4898 29.19 72.9598 28.1 72.0698 27.71C72.2898 27.96 72.9698 28.96 72.5398 30.63C72.5398 30.63 73.0798 31.6 72.8598 32.44" fill="black"/>
</g>
<g opacity="0.3">
<path d="M56.5 36.97C56.97 36.53 56.98 35.6 56.81 34.98C56.64 34.36 56.23 33.83 55.79 33.35C56.24 33.01 56.54 32.48 56.6 31.92C56.65 31.36 56.46 30.78 56.08 30.36C56.01 30.89 56.01 31.56 55.77 32.04C55.53 32.52 55.26 32.8 54.79 33.06C56.01 33.67 56.59 35.41 56.54 36.54L56.5 36.97Z" fill="black"/>
</g>
<path d="M77.0697 44.79C77.0697 44.79 77.1897 44.46 77.0997 43.93C77.0497 43.67 76.9497 43.36 76.7597 43.07C76.5697 42.77 76.2997 42.49 75.9597 42.26C75.6197 42.03 75.2697 41.87 74.9297 41.76C74.5897 41.64 74.2897 41.57 74.0197 41.51C73.7597 41.46 73.5397 41.43 73.3897 41.4C73.2397 41.38 73.1597 41.36 73.1597 41.36C73.1597 41.36 73.2397 41.36 73.3897 41.37C73.5397 41.38 73.7597 41.41 74.0197 41.45C74.2897 41.49 74.5997 41.57 74.9397 41.68C75.2797 41.79 75.6497 41.95 75.9897 42.19C76.3297 42.43 76.6197 42.71 76.8097 43.02C76.9997 43.33 77.0997 43.64 77.1397 43.91C77.1797 44.18 77.1597 44.4 77.1297 44.55C77.1097 44.62 77.0997 44.68 77.0797 44.72C77.0697 44.76 77.0597 44.78 77.0597 44.78L77.0697 44.79Z" fill="#1A2E35"/>
<g opacity="0.3">
<path d="M75.1099 40.6901C75.4299 39.8601 75.5699 38.9701 75.4999 38.0801C74.9599 39.3201 74.1099 40.4501 73.1499 41.4001C74.4099 41.4701 75.6999 41.9501 76.5999 42.8301C76.5799 41.9101 75.9599 41.0201 75.1099 40.6901Z" fill="black"/>
</g>
</g>
<defs>
<clipPath id="clip0_616_567">
<rect width="120" height="120" fill="white"/>
</clipPath>
</defs>
</svg>
