<svg width="120" height="120" viewBox="0 0 120 120" fill="none" xmlns="http://www.w3.org/2000/svg">
<g clip-path="url(#clip0_614_833)">
<rect width="120" height="120" fill="white"/>
<mask id="mask0_614_833" style="mask-type:luminance" maskUnits="userSpaceOnUse" x="0" y="0" width="120" height="120">
<path d="M120 0H0V120H120V0Z" fill="white"/>
</mask>
<g mask="url(#mask0_614_833)">
<mask id="mask1_614_833" style="mask-type:luminance" maskUnits="userSpaceOnUse" x="2" y="0" width="121" height="120">
<path d="M122.23 0H2.22998V120H122.23V0Z" fill="white"/>
</mask>
<g mask="url(#mask1_614_833)">
<path d="M134.02 100.53H-9.56006V100.6H134.02V100.53Z" fill="#ECECEC"/>
<path d="M119.63 105.15H110.12V105.22H119.63V105.15Z" fill="#ECECEC"/>
<path d="M68.8997 104.25H65.1997V104.32H68.8997V104.25Z" fill="#ECECEC"/>
<path d="M90.8501 104.56H83.0601V104.63H90.8501V104.56Z" fill="#ECECEC"/>
<path d="M109.83 102.49H93.7197V102.56H109.83V102.49Z" fill="#ECECEC"/>
<path d="M13.12 105.81H5.5V105.88H13.12V105.81Z" fill="#ECECEC"/>
<path d="M22.2802 105.81H15.6802V105.88H22.2802V105.81Z" fill="#ECECEC"/>
<path d="M45.5201 104.22H28.0601V104.29H45.5201V104.22Z" fill="#ECECEC"/>
<path d="M58.5002 87.72H3.05016C2.15016 87.72 1.41016 86.98 1.41016 86.08V8.14C1.41016 7.24 2.15016 6.5 3.05016 6.5H58.5002C59.4002 6.5 60.1402 7.24 60.1402 8.14V86.09C60.1402 86.99 59.4002 87.73 58.5002 87.73V87.72ZM3.05016 6.57C2.19016 6.57 1.48016 7.27 1.48016 8.14V86.09C1.48016 86.95 2.18016 87.66 3.05016 87.66H58.5002C59.3602 87.66 60.0702 86.96 60.0702 86.09V8.14C60.0702 7.28 59.3702 6.57 58.5002 6.57H3.05016Z" fill="#ECECEC"/>
<path d="M120.61 87.72H65.16C64.26 87.72 63.52 86.98 63.52 86.08V8.14C63.52 7.24 64.26 6.5 65.16 6.5H120.61C121.51 6.5 122.25 7.24 122.25 8.14V86.09C122.25 86.99 121.51 87.73 120.61 87.73V87.72ZM65.16 6.57C64.3 6.57 63.59 7.27 63.59 8.14V86.09C63.59 86.95 64.29 87.66 65.16 87.66H120.61C121.47 87.66 122.18 86.96 122.18 86.09V8.14C122.18 7.28 121.48 6.57 120.61 6.57H65.16Z" fill="#ECECEC"/>
<path d="M63.8601 97.6H50.2601C49.9301 97.6 49.6601 97.36 49.6201 97.03L49.3401 94.56C49.3001 94.18 49.5901 93.85 49.9801 93.85H64.1401C64.5201 93.85 64.8201 94.18 64.7801 94.56L64.5001 97.03C64.4601 97.35 64.1901 97.6 63.8601 97.6Z" fill="#F0F0F0"/>
<path d="M82.1401 77.11H89.4501C89.925 77.11 90.3101 76.725 90.3101 76.25V76.19C90.3101 75.715 89.925 75.33 89.4501 75.33H82.1401C81.6651 75.33 81.2801 75.715 81.2801 76.19V76.25C81.2801 76.725 81.6651 77.11 82.1401 77.11Z" fill="#F5F5F5"/>
<path d="M82.16 66.48H89.41C89.9 66.48 90.3 66.08 90.3 65.59C90.3 65.1 89.9 64.7 89.41 64.7H82.16C81.67 64.7 81.27 65.1 81.27 65.59C81.27 66.08 81.67 66.48 82.16 66.48Z" fill="#F5F5F5"/>
<path d="M82.16 87.75H89.41C89.9 87.75 90.3 87.35 90.3 86.86C90.3 86.37 89.9 85.97 89.41 85.97H82.16C81.67 85.97 81.27 86.37 81.27 86.86C81.27 87.35 81.67 87.75 82.16 87.75Z" fill="#F5F5F5"/>
<path d="M62.2298 113.5C92.981 113.5 117.91 112.045 117.91 110.25C117.91 108.455 92.981 107 62.2298 107C31.4786 107 6.5498 108.455 6.5498 110.25C6.5498 112.045 31.4786 113.5 62.2298 113.5Z" fill="#F5F5F5"/>
</g>
<path d="M50.3302 52.56L49.8802 51.3C49.2402 49.52 47.4602 48.41 45.5902 48.63L27.7402 50.72C25.5102 50.98 23.9202 53 24.1802 55.22L29.2602 98.65C29.4402 100.18 30.8202 101.27 32.3502 101.09L96.2002 93.62C97.7302 93.44 98.8202 92.06 98.6402 90.53L94.2502 52.99C94.0702 51.46 92.6902 50.37 91.1602 50.55L54.0802 54.89C52.4402 55.08 50.8802 54.11 50.3202 52.56H50.3302Z" fill="#DDDDDD" stroke="#644DF4" stroke-width="0.5" stroke-miterlimit="10"/>
<g opacity="0.4">
<path d="M52.1699 54.15L39.7399 56.63C39.1399 56.75 38.5499 56.36 38.4299 55.76C38.3099 55.16 38.6999 54.57 39.2999 54.45L51.7299 51.97C52.3299 51.85 52.9199 52.24 53.0399 52.84C53.1599 53.44 52.7699 54.03 52.1699 54.15Z" fill="#007CFF"/>
<path d="M49.6898 59.42L40.6598 61.22C40.0598 61.34 39.4698 60.95 39.3498 60.35C39.2298 59.75 39.6198 59.16 40.2198 59.04L49.2498 57.24C49.8498 57.12 50.4398 57.51 50.5598 58.11C50.6798 58.71 50.2898 59.3 49.6898 59.42Z" fill="#007CFF"/>
</g>
<g opacity="0.4">
<path d="M56.3901 57.74L47.2201 58.54C46.6101 58.59 46.0701 58.14 46.0101 57.53C45.9601 56.92 46.4101 56.38 47.0201 56.32L56.1901 55.52C56.8001 55.47 57.3401 55.92 57.4001 56.53C57.4501 57.14 57.0001 57.68 56.3901 57.74Z" fill="#007CFF"/>
</g>
<g opacity="0.4">
<path d="M80.3899 56.15L71.1899 56.59C70.5799 56.62 70.0499 56.15 70.0199 55.53C69.9899 54.92 70.4599 54.39 71.0799 54.36L80.2799 53.92C80.8899 53.89 81.4199 54.36 81.4499 54.98C81.4799 55.59 81.0099 56.12 80.3899 56.15Z" fill="#007CFF"/>
</g>
<path d="M57.5602 54.11C57.2102 54.46 60.2402 56.43 61.5102 58.07C62.7802 59.71 67.3602 68.19 69.8302 67.57C72.3002 66.95 70.4602 60.39 70.4602 60.39C70.4602 60.39 71.5602 53.21 71.1102 53.27C70.6702 53.33 58.6102 53.04 57.5602 54.12V54.11Z" fill="#644DF6"/>
<g opacity="0.3">
<path d="M57.5602 54.11C57.2102 54.46 60.2402 56.43 61.5102 58.07C62.7802 59.71 67.3602 68.19 69.8302 67.57C72.3002 66.95 70.4602 60.39 70.4602 60.39C70.4602 60.39 71.5602 53.21 71.1102 53.27C70.6702 53.33 58.6102 53.04 57.5602 54.12V54.11Z" fill="black"/>
</g>
<path d="M25.8502 38.82C25.8502 38.82 26.0302 45.02 33.4002 46.37L39.8702 47C39.8702 47 40.0502 55.9 50.5702 56.08L58.7502 55.09C58.7502 55.09 71.3402 54.73 79.4302 55.45C81.7402 55.65 85.1002 55.98 88.4302 54.81C91.7602 53.64 103.08 42.95 91.6602 29.64C91.6602 29.64 92.6502 23.62 86.5302 22.18C86.5302 22.18 83.8302 13.91 74.8402 14C74.8402 14 71.8702 10.31 67.3802 11.84C67.3802 11.84 58.7502 7.95 52.1802 11.47C52.1802 11.47 44.3602 9.77 38.5102 16.16C38.5102 16.16 32.2202 18.14 30.6002 22.9C30.6002 22.9 22.8702 27.89 25.2002 33.67C25.2002 33.67 23.8502 34.68 24.1202 36.66C24.3902 38.64 25.8302 38.82 25.8302 38.82H25.8502Z" fill="#644DF6"/>
<path d="M72.4399 32.2C72.4399 32.2 72.0699 32.26 71.5599 32.7C71.3199 32.92 71.0499 33.25 70.8799 33.7C70.7099 34.14 70.6299 34.72 70.8399 35.31L70.8599 35.38L70.7899 35.36C69.9199 35.13 68.9099 34.9 67.7499 34.77C66.5999 34.64 65.3099 34.61 63.9299 34.72C61.1799 34.94 58.0599 35.82 55.1899 37.63L55.1599 37.65H55.1299C54.5299 37.45 53.8699 37.3 53.1899 37.19C51.6799 36.96 50.1799 36.89 48.7499 37.04C48.0299 37.12 47.3399 37.26 46.6999 37.51C46.0499 37.75 45.4199 38.01 44.8599 38.35C44.2899 38.68 43.7899 39.1 43.3299 39.52C42.8699 39.95 42.4099 40.35 42.0299 40.8C41.2699 41.69 40.6999 42.65 40.3199 43.57C40.1299 44.03 39.9899 44.49 39.8999 44.93C39.8099 45.37 39.7699 45.79 39.7799 46.19C39.7799 46.98 39.9199 47.66 40.0399 48.21C40.1699 48.75 40.3099 49.17 40.3999 49.45C40.4499 49.59 40.4799 49.69 40.5099 49.77C40.5399 49.84 40.5399 49.88 40.5399 49.88C40.5399 49.88 40.2699 49.32 39.9799 48.23C39.8399 47.69 39.7099 47 39.6899 46.2C39.6899 45.8 39.7199 45.37 39.7999 44.92C39.8899 44.47 40.0299 44.01 40.2199 43.54C40.5999 42.61 41.1699 41.64 41.9399 40.74C42.3199 40.28 42.7799 39.88 43.2399 39.45C43.7099 39.03 44.2099 38.61 44.7899 38.26C45.3599 37.92 45.9999 37.65 46.6499 37.41C47.2999 37.15 48.0099 37 48.7299 36.93C50.1799 36.78 51.6899 36.85 53.1999 37.08C53.8799 37.19 54.5399 37.34 55.1599 37.53H55.1099C57.9999 35.72 61.1399 34.84 63.9099 34.63C65.2899 34.52 66.5899 34.56 67.7499 34.69C68.9099 34.83 69.9299 35.06 70.7999 35.31L70.7599 35.36C70.5499 34.75 70.6399 34.16 70.8199 33.71C70.9999 33.25 71.2799 32.92 71.5299 32.7C71.7899 32.48 72.0299 32.37 72.1899 32.3C72.3599 32.25 72.4399 32.23 72.4399 32.23V32.2Z" fill="#1A2E35"/>
<path d="M83.6701 31.36C83.6701 31.36 83.6701 31.4 83.6401 31.47C83.6101 31.55 83.5801 31.66 83.5401 31.8C83.4501 32.09 83.2901 32.51 83.0801 33.05C82.8501 33.58 82.5601 34.23 82.1401 34.94C81.9401 35.3 81.7001 35.67 81.4501 36.06C81.1801 36.44 80.9001 36.85 80.5701 37.25C79.2801 38.86 77.4301 40.59 74.9901 41.87C73.7701 42.5 72.4201 43.02 70.9601 43.38C69.5101 43.72 67.9601 43.91 66.3701 43.88C65.5001 43.88 64.6501 43.78 63.8101 43.65C62.9801 43.52 62.1701 43.31 61.4001 43.08H61.4601C60.1101 44.09 58.5401 44.66 57.0401 44.83C55.5301 45.01 54.0901 44.81 52.8801 44.36H52.9301C52.3901 44.77 51.8001 45.07 51.2201 45.28C50.6401 45.49 50.0701 45.62 49.5201 45.67C49.3801 45.69 49.2501 45.7 49.1201 45.7C48.9901 45.7 48.8601 45.71 48.7301 45.71C48.4801 45.7 48.2301 45.71 48.0001 45.67C47.8801 45.66 47.7701 45.64 47.6601 45.63C47.5501 45.61 47.4401 45.59 47.3401 45.57C47.1301 45.54 46.9301 45.48 46.7501 45.42C46.0101 45.2 45.4701 44.91 45.1301 44.69C44.9601 44.58 44.8301 44.48 44.7501 44.42C44.6701 44.36 44.6201 44.32 44.6201 44.32C44.6201 44.32 44.6701 44.35 44.7501 44.4C44.8401 44.46 44.9601 44.55 45.1401 44.65C45.4901 44.85 46.0201 45.14 46.7601 45.35C46.9401 45.4 47.1401 45.46 47.3501 45.49C47.4501 45.51 47.5601 45.53 47.6701 45.55C47.7801 45.56 47.8901 45.57 48.0101 45.59C48.2401 45.62 48.4801 45.62 48.7301 45.63C48.8601 45.63 48.9801 45.62 49.1101 45.61C49.2401 45.61 49.3701 45.6 49.5101 45.58C50.0501 45.53 50.6101 45.4 51.1801 45.18C51.7501 44.97 52.3301 44.67 52.8601 44.26L52.8801 44.24H52.9101C54.1101 44.68 55.5401 44.88 57.0201 44.7C58.5001 44.52 60.0501 43.96 61.3801 42.95L61.4101 42.93H61.4401C62.2101 43.17 63.0101 43.37 63.8301 43.5C64.6601 43.63 65.5001 43.72 66.3701 43.73C67.9401 43.76 69.4801 43.58 70.9301 43.24C72.3701 42.89 73.7201 42.38 74.9301 41.75C77.3501 40.48 79.2001 38.78 80.4901 37.18C80.8201 36.78 81.1001 36.38 81.3701 36C81.6201 35.61 81.8701 35.25 82.0701 34.89C82.4901 34.18 82.7901 33.54 83.0301 33.01C83.2501 32.48 83.4201 32.06 83.5101 31.77C83.5601 31.63 83.6001 31.52 83.6301 31.44C83.6601 31.37 83.6701 31.33 83.6701 31.33V31.36Z" fill="#1A2E35"/>
<path d="M45.9599 50.77C45.9599 50.77 45.9399 50.68 45.9399 50.53C45.9399 50.38 45.9399 50.15 45.9399 49.88C45.9599 49.33 46.0199 48.55 46.3399 47.75C46.6699 46.95 47.2499 46.38 47.7399 46.12C47.9899 45.99 48.2099 45.92 48.3599 45.9C48.5099 45.87 48.5999 45.87 48.5999 45.88C48.5999 45.91 48.2499 45.93 47.7799 46.2C47.3099 46.47 46.7599 47.03 46.4499 47.8C46.1399 48.57 46.0699 49.34 46.0199 49.88C45.9799 50.43 45.9599 50.77 45.9399 50.77H45.9599Z" fill="#1A2E35"/>
<path d="M81.4399 49.11C81.4399 49.11 81.4099 49.11 81.3599 49.1C81.2999 49.09 81.2299 49.07 81.1399 49.05C80.9399 49 80.6599 48.93 80.2999 48.83C80.1199 48.78 79.9199 48.73 79.6899 48.67C79.4699 48.62 79.2199 48.57 78.9599 48.51C78.6999 48.45 78.4199 48.39 78.1199 48.32C77.8199 48.27 77.5099 48.21 77.1799 48.15C75.8599 47.9 74.2599 47.69 72.4899 47.56C70.7199 47.42 68.7499 47.4 66.6999 47.53C64.0599 47.68 61.5999 48.07 59.5099 48.56C57.4199 49.04 55.6899 49.62 54.4599 50.05L54.4799 50.02C54.4399 50.39 54.3299 50.72 54.1899 50.98C54.0399 51.24 53.8599 51.41 53.6999 51.54C53.3799 51.79 53.1899 51.88 53.1899 51.88C53.1899 51.88 53.2299 51.85 53.3199 51.79C53.3999 51.73 53.5299 51.65 53.6799 51.52C53.8299 51.39 53.9999 51.21 54.1399 50.96C54.2799 50.71 54.3699 50.39 54.4099 50.02V50H54.4299C55.6599 49.56 57.3799 48.96 59.4799 48.47C61.5699 47.97 64.0399 47.58 66.6799 47.42C68.7399 47.29 70.6999 47.32 72.4799 47.46C74.2599 47.6 75.8499 47.82 77.1799 48.08C77.5099 48.14 77.8299 48.21 78.1299 48.26C78.4299 48.33 78.6999 48.4 78.9699 48.46C79.2299 48.52 79.4699 48.58 79.6999 48.63C79.9199 48.69 80.1199 48.75 80.3099 48.8C80.6699 48.9 80.9499 48.98 81.1399 49.04C81.2299 49.07 81.2999 49.09 81.3599 49.11C81.4099 49.13 81.4299 49.13 81.4299 49.14L81.4399 49.11Z" fill="#1A2E35"/>
<path d="M88.0803 45.53C88.0803 45.53 88.1003 45.51 88.1503 45.48C88.2003 45.45 88.2703 45.4 88.3503 45.35C88.5203 45.24 88.7803 45.06 89.1003 44.83C89.7303 44.35 90.6203 43.6 91.4303 42.43C91.8303 41.85 92.2003 41.16 92.4503 40.36C92.7003 39.57 92.8503 38.68 92.8003 37.75C92.7503 36.82 92.5103 35.84 91.9903 34.97C91.4703 34.1 90.7003 33.34 89.7403 32.85C89.1503 32.54 88.5003 32.37 87.8903 32.32H87.7903L87.8303 32.23C88.2603 31.37 88.5203 30.44 88.4603 29.55C88.4203 28.65 88.0803 27.83 87.6503 27.13C87.2203 26.43 86.6703 25.86 86.0603 25.47C85.4503 25.07 84.8103 24.84 84.2103 24.72C83.6103 24.59 83.0503 24.57 82.5703 24.59C82.0803 24.6 81.6703 24.64 81.3303 24.68C81.0003 24.71 80.7303 24.73 80.5503 24.75C80.4703 24.75 80.4003 24.76 80.3503 24.76C80.3003 24.76 80.2803 24.76 80.2803 24.76C80.2803 24.76 80.3003 24.76 80.3503 24.75C80.4003 24.75 80.4703 24.73 80.5503 24.72C80.7403 24.7 81.0003 24.67 81.3303 24.63C81.6703 24.59 82.0903 24.54 82.5703 24.52C83.0603 24.5 83.6203 24.52 84.2303 24.64C84.8403 24.76 85.5003 24.98 86.1203 25.39C86.7403 25.79 87.3103 26.37 87.7503 27.08C88.1803 27.79 88.5403 28.63 88.5803 29.55C88.6403 30.47 88.3803 31.43 87.9403 32.3L87.8903 32.21C88.5203 32.26 89.1903 32.43 89.7903 32.75C90.7703 33.25 91.5603 34.04 92.0903 34.92C92.6203 35.81 92.8603 36.81 92.9103 37.76C92.9503 38.71 92.8003 39.61 92.5403 40.41C92.2803 41.21 91.9003 41.91 91.4903 42.49C90.6703 43.67 89.7603 44.41 89.1203 44.88C88.4703 45.35 88.0703 45.54 88.0703 45.54L88.0803 45.53Z" fill="#1A2E35"/>
<path d="M65.6103 34.34C65.6103 34.34 65.5403 34.34 65.4203 34.31C65.3603 34.3 65.2803 34.28 65.2003 34.25C65.1203 34.22 65.0203 34.19 64.9203 34.14C64.7103 34.05 64.4803 33.91 64.2503 33.73C64.0203 33.54 63.7903 33.3 63.5903 33.02C63.4003 32.74 63.2603 32.44 63.1603 32.16C63.0703 31.88 63.0203 31.61 63.0103 31.39C63.0003 31.28 63.0103 31.18 63.0103 31.09C63.0103 31 63.0203 30.92 63.0303 30.86C63.0503 30.74 63.0703 30.67 63.0703 30.67C63.1003 30.67 63.0503 30.95 63.1003 31.38C63.1203 31.6 63.1803 31.85 63.2703 32.12C63.3703 32.39 63.5103 32.68 63.7003 32.95C63.8903 33.22 64.1103 33.45 64.3303 33.64C64.5503 33.82 64.7703 33.97 64.9603 34.06C65.3503 34.26 65.6203 34.31 65.6203 34.34H65.6103Z" fill="#1A2E35"/>
<path d="M56.5004 33.74C56.5004 33.74 56.6004 33.96 56.6404 34.34C56.6804 34.72 56.6404 35.26 56.4604 35.82C56.2704 36.38 55.9604 36.82 55.6904 37.09C55.4204 37.37 55.2204 37.49 55.2104 37.48C55.2004 37.46 55.3804 37.32 55.6204 37.03C55.8604 36.75 56.1504 36.31 56.3404 35.78C56.5304 35.24 56.5704 34.72 56.5504 34.35C56.5404 33.98 56.4804 33.75 56.5004 33.74Z" fill="#1A2E35"/>
<path d="M48.6103 36.95C48.6103 36.95 48.5803 36.95 48.5103 36.96C48.4403 36.96 48.3503 36.96 48.2203 36.95C47.9703 36.91 47.6203 36.77 47.3003 36.45C46.9803 36.14 46.6903 35.66 46.5803 35.07C46.4603 34.49 46.5003 33.83 46.5603 33.17C46.6303 32.5 46.6703 31.87 46.6303 31.29C46.6003 30.71 46.5203 30.2 46.4203 29.77C46.3203 29.34 46.2203 29 46.1403 28.77C46.0603 28.54 46.0203 28.41 46.0303 28.4C46.0303 28.4 46.0503 28.43 46.0803 28.49C46.1103 28.55 46.1503 28.64 46.1903 28.75C46.2803 28.98 46.4003 29.32 46.5103 29.75C46.6203 30.18 46.7103 30.7 46.7503 31.29C46.7903 31.88 46.7503 32.52 46.6903 33.19C46.6303 33.86 46.5903 34.5 46.6903 35.06C46.7903 35.62 47.0603 36.09 47.3603 36.39C47.6603 36.7 47.9903 36.85 48.2303 36.9C48.4703 36.95 48.6103 36.94 48.6103 36.95Z" fill="#1A2E35"/>
<path d="M42.8102 39.91C42.8102 39.91 43.0802 39.59 43.1902 38.97C43.3002 38.36 43.1502 37.43 42.5602 36.66C41.9602 35.9 41.1902 35.43 40.6402 35.11C40.3802 34.96 40.1602 34.84 39.9802 34.74C39.8202 34.65 39.7402 34.6 39.7402 34.59C39.7402 34.59 39.8402 34.62 40.0002 34.69C40.1602 34.76 40.4002 34.88 40.6802 35.03C41.2402 35.33 42.0402 35.79 42.6502 36.58C43.2602 37.38 43.4102 38.34 43.2702 38.98C43.2002 39.3 43.0902 39.54 42.9802 39.69C42.8802 39.84 42.8002 39.91 42.8002 39.91H42.8102Z" fill="#1A2E35"/>
<path d="M39.9102 44.51C39.9102 44.51 39.8502 44.51 39.7202 44.51C39.5902 44.51 39.4102 44.51 39.1802 44.51C38.9502 44.49 38.6602 44.47 38.3402 44.43C38.0102 44.37 37.6402 44.32 37.2402 44.21C36.4302 44 35.5002 43.64 34.5502 43.07C33.6102 42.5 32.6502 41.72 31.8502 40.73C31.0502 39.74 30.4902 38.64 30.1602 37.58C30.0002 37.05 29.9102 36.53 29.9102 36.03C29.9102 35.78 29.9302 35.54 29.9702 35.32C30.0102 35.09 30.0802 34.89 30.1502 34.69C30.4402 33.91 30.8102 33.33 31.1102 32.97C31.2602 32.79 31.4002 32.67 31.4902 32.59C31.5902 32.52 31.6502 32.49 31.6502 32.49C31.6502 32.49 31.6002 32.53 31.5102 32.61C31.4202 32.69 31.2902 32.81 31.1502 33C30.8702 33.36 30.5202 33.94 30.2402 34.72C30.1702 34.91 30.1102 35.12 30.0702 35.34C30.0302 35.56 30.0102 35.79 30.0202 36.03C30.0202 36.51 30.1202 37.03 30.2802 37.55C30.6102 38.59 31.1702 39.67 31.9602 40.65C32.7502 41.63 33.6902 42.4 34.6202 42.97C35.5502 43.54 36.4702 43.9 37.2702 44.12C37.6702 44.24 38.0402 44.3 38.3602 44.36C38.6902 44.4 38.9702 44.43 39.2002 44.46C39.4202 44.46 39.6002 44.48 39.7302 44.48C39.8502 44.48 39.9202 44.49 39.9202 44.5L39.9102 44.51Z" fill="#1A2E35"/>
<path d="M33.7601 26.88C33.7601 26.88 33.7101 26.88 33.6301 26.88C33.5301 26.87 33.4101 26.85 33.2601 26.84C32.9301 26.8 32.4601 26.75 31.8801 26.76C31.3001 26.76 30.6001 26.83 29.8801 27.11C29.1701 27.38 28.4201 27.86 27.9701 28.62C27.5201 29.37 27.4401 30.29 27.7201 30.99C28.0101 31.7 28.6001 32.14 29.1201 32.37C29.6501 32.61 30.1201 32.7 30.4401 32.75C30.7601 32.8 30.9401 32.81 30.9401 32.82C30.9401 32.82 30.8901 32.82 30.8101 32.82C30.7201 32.82 30.6001 32.82 30.4301 32.8C30.1001 32.76 29.6301 32.69 29.0801 32.45C28.8101 32.33 28.5201 32.17 28.2601 31.93C28.0001 31.7 27.7601 31.39 27.6101 31.02C27.3101 30.28 27.3901 29.33 27.8601 28.54C28.3401 27.75 29.1101 27.26 29.8401 26.99C30.5801 26.72 31.2901 26.66 31.8801 26.66C32.4701 26.66 32.9401 26.73 33.2701 26.78C33.4301 26.81 33.5601 26.83 33.6401 26.85C33.7201 26.87 33.7701 26.88 33.7701 26.88H33.7601Z" fill="#1A2E35"/>
<path d="M54.6002 17.7C54.6002 17.7 54.5802 17.69 54.5402 17.66C54.5002 17.63 54.4402 17.58 54.3702 17.53C54.2202 17.41 54.0102 17.24 53.7202 17.03C53.1502 16.62 52.2702 16.05 51.0402 15.73C50.4302 15.57 49.7402 15.49 48.9902 15.47C48.2502 15.46 47.4502 15.53 46.6402 15.76C45.8402 15.99 45.0202 16.35 44.2702 16.86C43.5202 17.37 42.8502 18.06 42.3102 18.85C42.1902 19.03 42.0802 19.2 41.9802 19.37L41.9602 19.4H41.9202C40.0602 19.35 38.3202 20.04 37.0802 21.03C36.4502 21.52 35.9402 22.1 35.5402 22.68C35.1502 23.27 34.8702 23.88 34.6702 24.44C34.2802 25.58 34.2302 26.58 34.2602 27.25C34.2602 27.42 34.2802 27.57 34.2902 27.7C34.2902 27.83 34.3102 27.94 34.3302 28.03C34.3402 28.11 34.3502 28.18 34.3602 28.23C34.3602 28.28 34.3602 28.3 34.3602 28.3C34.3602 28.3 34.2602 27.94 34.2102 27.26C34.1702 26.59 34.2102 25.59 34.5802 24.42C34.7702 23.84 35.0502 23.23 35.4402 22.63C35.8402 22.03 36.3502 21.44 36.9902 20.94C38.2502 19.93 40.0102 19.23 41.9102 19.27L41.8502 19.3C41.9502 19.13 42.0602 18.95 42.1802 18.77C42.7302 17.96 43.4102 17.27 44.1802 16.75C44.9502 16.23 45.7702 15.87 46.5902 15.64C47.4102 15.41 48.2202 15.34 48.9702 15.36C49.7202 15.38 50.4202 15.47 51.0402 15.64C52.2802 15.97 53.1602 16.56 53.7302 16.99C54.0102 17.2 54.2302 17.38 54.3702 17.51C54.4402 17.57 54.4902 17.62 54.5302 17.65C54.5702 17.68 54.5802 17.7 54.5802 17.7H54.6002Z" fill="#1A2E35"/>
<path d="M39.0003 22.9C39.0003 22.9 39.0403 22.9 39.1103 22.9C39.1803 22.9 39.2903 22.93 39.4203 22.96C39.6903 23.02 40.0703 23.16 40.5003 23.42C40.9203 23.69 41.3703 24.1 41.7103 24.67C42.0503 25.24 42.2303 25.97 42.1903 26.74C42.1403 27.5 41.8703 28.21 41.4603 28.73C41.0603 29.26 40.5603 29.61 40.1103 29.82C39.6603 30.03 39.2603 30.12 38.9803 30.15C38.8403 30.16 38.7303 30.17 38.6603 30.17C38.5903 30.17 38.5503 30.17 38.5503 30.17C38.5503 30.16 38.7003 30.16 38.9703 30.11C39.2403 30.07 39.6303 29.97 40.0603 29.75C40.4903 29.53 40.9703 29.18 41.3603 28.67C41.7503 28.16 42.0103 27.48 42.0603 26.74C42.1003 26 41.9303 25.29 41.6103 24.74C41.2903 24.18 40.8603 23.78 40.4603 23.51C40.0503 23.24 39.6803 23.1 39.4203 23.02C39.1603 22.94 39.0103 22.92 39.0103 22.91L39.0003 22.9Z" fill="#1A2E35"/>
<path d="M47.0504 20.71C47.0504 20.71 47.1004 20.81 47.1604 21.01C47.2204 21.21 47.2704 21.5 47.2904 21.87C47.3304 22.6 47.1404 23.66 46.4504 24.57C45.7604 25.48 44.7904 25.95 44.0804 26.12C43.7204 26.21 43.4204 26.23 43.2204 26.23C43.0204 26.23 42.9004 26.22 42.9004 26.21C42.9004 26.18 43.3604 26.22 44.0504 26.03C44.7404 25.85 45.6704 25.37 46.3404 24.49C47.0004 23.61 47.2004 22.58 47.1904 21.87C47.1904 21.15 47.0204 20.72 47.0504 20.71Z" fill="#1A2E35"/>
<path d="M52.6303 31.92C52.6303 31.92 52.6303 31.78 52.6603 31.52C52.6803 31.26 52.6903 30.89 52.6603 30.43C52.5903 29.52 52.2703 28.25 51.4503 27.11C50.6303 25.97 49.5203 25.26 48.6803 24.91C48.2603 24.73 47.9003 24.62 47.6503 24.56C47.4003 24.5 47.2603 24.47 47.2603 24.46C47.2603 24.46 47.3003 24.46 47.3603 24.46C47.4303 24.47 47.5303 24.48 47.6603 24.51C47.9203 24.56 48.2803 24.65 48.7103 24.82C49.5703 25.15 50.7103 25.86 51.5503 27.02C52.3903 28.18 52.7003 29.49 52.7503 30.41C52.7803 30.87 52.7503 31.25 52.7103 31.51C52.7003 31.64 52.6703 31.74 52.6603 31.8C52.6503 31.87 52.6403 31.9 52.6303 31.9V31.92Z" fill="#1A2E35"/>
<path d="M49.9802 18.56C49.9802 18.56 50.0902 18.6 50.2702 18.72C50.4502 18.83 50.7002 19.03 50.9602 19.31C51.2202 19.59 51.4902 19.97 51.7002 20.43C51.9102 20.89 52.0502 21.45 52.0602 22.04C52.0602 22.63 51.9302 23.19 51.7202 23.65C51.5202 24.12 51.2502 24.5 50.9902 24.78C50.7302 25.06 50.4902 25.26 50.3102 25.38C50.1302 25.5 50.0202 25.55 50.0202 25.54C50.0002 25.52 50.4302 25.29 50.9202 24.72C51.4102 24.16 51.9302 23.19 51.9202 22.04C51.9102 20.89 51.3802 19.92 50.8902 19.37C50.3902 18.8 49.9602 18.59 49.9802 18.56Z" fill="#1A2E35"/>
<path d="M53.4703 18.75C53.4703 18.75 53.3604 19.43 52.9304 20.15C52.5004 20.88 51.9803 21.33 51.9603 21.3C51.9303 21.27 52.4004 20.79 52.8204 20.08C53.2404 19.37 53.4403 18.73 53.4703 18.74V18.75Z" fill="#1A2E35"/>
<path d="M58.2502 10.09C58.2502 10.09 58.3202 10.12 58.4502 10.18C58.5202 10.21 58.6002 10.25 58.6902 10.3C58.7802 10.36 58.8902 10.42 59.0002 10.49C59.4602 10.79 60.0902 11.29 60.6702 12.09C61.2502 12.88 61.7802 13.98 61.9102 15.28C62.0602 16.58 61.7202 18.06 60.9002 19.32C60.0602 20.62 58.8102 21.55 57.5502 21.97L57.5902 21.9C58.1502 23.75 58.1402 25.42 58.0002 26.56C57.9302 27.13 57.8302 27.58 57.7502 27.88C57.7102 28.03 57.6802 28.14 57.6502 28.22C57.6302 28.3 57.6102 28.34 57.6102 28.34C57.6102 28.34 57.6102 28.3 57.6302 28.22C57.6502 28.13 57.6802 28.02 57.7102 27.87C57.7802 27.57 57.8602 27.12 57.9202 26.55C58.0402 25.42 58.0402 23.76 57.4702 21.94L57.4502 21.89L57.5002 21.87C58.7302 21.45 59.9502 20.54 60.7802 19.26C61.5802 18.02 61.9202 16.57 61.7802 15.3C61.6602 14.02 61.1402 12.94 60.5802 12.15C60.0202 11.35 59.4002 10.84 58.9502 10.54C58.8402 10.47 58.7402 10.4 58.6502 10.34C58.5602 10.29 58.4802 10.25 58.4202 10.21C58.2902 10.14 58.2302 10.1 58.2302 10.1L58.2502 10.09Z" fill="#1A2E35"/>
<path d="M54.02 10.9C54.02 10.9 54.11 10.95 54.25 11.07C54.39 11.19 54.57 11.38 54.75 11.65C54.93 11.92 55.1 12.28 55.2 12.7C55.3 13.12 55.32 13.61 55.2 14.1C55.08 14.59 54.85 15.02 54.57 15.35C54.29 15.68 53.99 15.93 53.7 16.09C53.42 16.25 53.17 16.34 52.99 16.39C52.81 16.43 52.71 16.44 52.71 16.44C52.71 16.41 53.11 16.36 53.65 16.02C54.18 15.7 54.84 15.03 55.07 14.08C55.29 13.14 55 12.24 54.67 11.71C54.34 11.17 54 10.94 54.02 10.92V10.9Z" fill="#1A2E35"/>
<path d="M74.7703 13.64C74.7703 13.64 74.7003 13.65 74.5703 13.66C74.4403 13.66 74.2403 13.68 74.0003 13.71C73.5003 13.77 72.7803 13.88 71.9403 14.17C71.5203 14.31 71.0603 14.5 70.6103 14.76C70.1503 15.02 69.6903 15.34 69.2303 15.7C68.3003 16.43 67.3503 17.34 66.6703 18.52C66.0003 19.71 65.3903 20.87 64.9003 21.95C64.4203 23.03 64.0503 24.03 63.8203 24.9C63.5903 25.76 63.4603 26.48 63.4103 26.98C63.3703 27.23 63.3703 27.42 63.3503 27.55C63.3403 27.68 63.3303 27.75 63.3203 27.75C63.3203 27.75 63.3203 27.68 63.3203 27.55C63.3203 27.42 63.3203 27.22 63.3603 26.97C63.4003 26.47 63.5103 25.75 63.7303 24.87C63.9503 24 64.3103 22.98 64.7903 21.9C65.2703 20.81 65.8803 19.65 66.5503 18.46C67.2503 17.26 68.2103 16.34 69.1503 15.61C69.6203 15.25 70.0903 14.92 70.5603 14.67C71.0303 14.41 71.4903 14.23 71.9203 14.09C72.7803 13.81 73.5103 13.71 74.0103 13.67C74.2603 13.65 74.4603 13.64 74.5903 13.64C74.7203 13.64 74.7903 13.64 74.7903 13.64H74.7703Z" fill="#1A2E35"/>
<path d="M66.8904 11.64C66.8904 11.64 66.5404 11.66 66.0004 11.76C65.7304 11.81 65.4104 11.89 65.0604 12.01C64.7204 12.14 64.3504 12.3 63.9904 12.52C63.6304 12.74 63.3104 12.99 63.0404 13.23C62.7704 13.48 62.5504 13.72 62.3804 13.94C62.0404 14.38 61.8804 14.68 61.8604 14.67C61.8604 14.67 61.8904 14.59 61.9604 14.45C61.9904 14.38 62.0404 14.29 62.1004 14.2C62.1604 14.11 62.2204 14 62.3104 13.88C62.4704 13.65 62.6904 13.4 62.9604 13.14C63.2304 12.89 63.5604 12.63 63.9204 12.41C64.2904 12.19 64.6704 12.02 65.0204 11.9C65.3704 11.78 65.7004 11.71 65.9804 11.67C66.1204 11.64 66.2504 11.64 66.3604 11.63C66.4704 11.62 66.5704 11.62 66.6504 11.63C66.8104 11.63 66.8904 11.63 66.8904 11.65V11.64Z" fill="#1A2E35"/>
<path d="M68.9702 28.4C68.9702 28.4 69.0702 28.38 69.2402 28.32C69.4102 28.26 69.6502 28.13 69.8702 27.89C70.0902 27.66 70.2802 27.31 70.4202 26.9C70.5502 26.49 70.6602 26.02 70.7602 25.53C70.9602 24.54 71.0302 23.63 71.0602 22.97C71.0702 22.64 71.0702 22.37 71.0802 22.19C71.0802 22 71.0802 21.9 71.0902 21.9C71.0902 21.9 71.1102 22 71.1302 22.19C71.1402 22.38 71.1602 22.64 71.1502 22.98C71.1502 23.64 71.0902 24.57 70.8902 25.56C70.7902 26.06 70.6802 26.53 70.5302 26.95C70.3902 27.37 70.1802 27.73 69.9402 27.97C69.7002 28.21 69.4402 28.33 69.2602 28.38C69.1702 28.41 69.1002 28.41 69.0502 28.42C69.0002 28.42 68.9702 28.42 68.9702 28.42V28.4Z" fill="#1A2E35"/>
<path d="M76.5302 32.14C76.5302 32.14 76.8002 31.62 76.7902 30.71C76.7902 30.26 76.6902 29.73 76.4602 29.18C76.2302 28.63 75.8602 28.08 75.3502 27.62C74.8302 27.17 74.2502 26.85 73.6902 26.64C73.1302 26.43 72.6002 26.32 72.1502 26.27C71.7002 26.22 71.3302 26.2 71.0802 26.21C70.8302 26.21 70.6902 26.21 70.6802 26.21C70.6802 26.21 70.7102 26.2 70.7802 26.19C70.8502 26.19 70.9502 26.17 71.0702 26.16C71.3202 26.14 71.7002 26.14 72.1502 26.18C72.6102 26.22 73.1502 26.32 73.7202 26.53C74.2902 26.73 74.8902 27.06 75.4202 27.53C75.9502 28 76.3202 28.58 76.5502 29.14C76.7802 29.71 76.8702 30.26 76.8602 30.72C76.8602 31.18 76.7702 31.55 76.6802 31.79C76.6402 31.91 76.5902 32 76.5702 32.06C76.5402 32.12 76.5202 32.15 76.5202 32.15L76.5302 32.14Z" fill="#1A2E35"/>
<path d="M70.7502 18.86C70.7502 18.86 70.8002 18.84 70.9002 18.81C71.0002 18.78 71.1502 18.74 71.3502 18.7C71.7502 18.62 72.3302 18.53 73.0602 18.55C73.7802 18.57 74.6602 18.71 75.5402 19.1C76.4202 19.48 77.2902 20.16 77.9202 21.08C78.5502 22 78.8502 23.08 78.7802 24.05C78.7102 25.02 78.3302 25.84 77.8902 26.42C77.4402 27 76.9502 27.35 76.5902 27.53C76.4102 27.62 76.2602 27.68 76.1602 27.71C76.0602 27.74 76.0102 27.76 76.0002 27.76C76.0002 27.76 76.0502 27.73 76.1502 27.69C76.2502 27.65 76.3902 27.58 76.5702 27.49C76.9202 27.3 77.3902 26.94 77.8202 26.37C78.2402 25.8 78.6002 24.99 78.6602 24.05C78.7202 23.11 78.4202 22.06 77.8102 21.16C77.1902 20.26 76.3502 19.6 75.4802 19.22C74.6202 18.83 73.7602 18.69 73.0502 18.66C72.3302 18.63 71.7502 18.7 71.3602 18.77C70.9602 18.84 70.7502 18.9 70.7402 18.88L70.7502 18.86Z" fill="#1A2E35"/>
<path d="M78.23 21.37C78.23 21.37 78.31 20.98 78.33 20.36C78.33 20.2 78.33 20.03 78.33 19.85C78.33 19.67 78.29 19.47 78.27 19.27C78.2 18.86 78.08 18.42 77.9 17.98C77.71 17.54 77.48 17.15 77.25 16.81C77.12 16.65 77.01 16.49 76.88 16.35C76.76 16.21 76.64 16.09 76.53 15.98C76.07 15.55 75.73 15.36 75.74 15.33C75.74 15.33 75.83 15.37 75.98 15.46C76.06 15.5 76.15 15.56 76.25 15.64C76.35 15.72 76.47 15.8 76.59 15.91C76.71 16.02 76.84 16.13 76.96 16.27C77.09 16.4 77.21 16.56 77.34 16.73C77.59 17.07 77.82 17.47 78.01 17.92C78.19 18.37 78.31 18.82 78.38 19.24C78.4 19.45 78.43 19.65 78.43 19.84C78.44 20.03 78.43 20.2 78.43 20.36C78.43 20.52 78.4 20.66 78.38 20.79C78.37 20.92 78.34 21.02 78.32 21.11C78.28 21.28 78.25 21.38 78.24 21.37H78.23Z" fill="#1A2E35"/>
<path d="M86.3603 21.76C86.3603 21.76 85.9703 21.71 85.3503 21.72C85.0403 21.72 84.6703 21.75 84.2703 21.82C83.8703 21.9 83.4303 22.02 82.9903 22.19C82.5503 22.37 82.1603 22.59 81.8203 22.82C81.4803 23.05 81.1903 23.28 80.9703 23.5C80.5203 23.93 80.3003 24.25 80.2803 24.24C80.2803 24.24 80.3203 24.15 80.4303 24.01C80.4803 23.94 80.5403 23.85 80.6303 23.76C80.7103 23.67 80.8003 23.55 80.9103 23.44C81.1303 23.21 81.4103 22.97 81.7503 22.72C82.1003 22.49 82.5003 22.26 82.9403 22.07C83.3903 21.89 83.8303 21.77 84.2403 21.7C84.6503 21.63 85.0303 21.61 85.3403 21.62C85.5003 21.62 85.6403 21.64 85.7603 21.65C85.8803 21.65 85.9903 21.68 86.0803 21.69C86.2503 21.72 86.3503 21.74 86.3503 21.75L86.3603 21.76Z" fill="#1A2E35"/>
<path d="M91.1602 42.87C91.1602 42.87 91.1902 42.91 91.2202 42.99C91.2502 43.07 91.2902 43.19 91.3202 43.35C91.3902 43.67 91.4502 44.14 91.4002 44.72C91.3502 45.3 91.1902 45.98 90.8702 46.68C90.5502 47.38 90.0802 48.09 89.4802 48.74C88.8802 49.4 88.1902 49.9 87.4902 50.23C86.7902 50.56 86.1002 50.7 85.5302 50.75C84.9502 50.81 84.4802 50.78 84.1602 50.78C84.0002 50.78 83.8702 50.78 83.7902 50.78C83.7102 50.78 83.6602 50.78 83.6602 50.78C83.6602 50.78 83.7002 50.77 83.7902 50.75C83.8702 50.74 84.0002 50.73 84.1602 50.73C84.4802 50.73 84.9502 50.73 85.5202 50.66C86.0902 50.59 86.7602 50.45 87.4402 50.12C88.1202 49.8 88.8002 49.3 89.3902 48.65C89.9802 48.01 90.4502 47.31 90.7702 46.63C91.0902 45.95 91.2602 45.28 91.3202 44.71C91.3802 44.14 91.3302 43.68 91.2802 43.36C91.2502 43.2 91.2202 43.08 91.2002 43C91.1802 42.92 91.1602 42.88 91.1702 42.87H91.1602Z" fill="#1A2E35"/>
<g opacity="0.3">
<path d="M71.8202 32.36C70.7702 32.73 69.8102 33.32 69.0002 34.08C64.9802 32.68 60.3902 33.02 56.6202 34.99C55.9602 35.34 55.3102 35.74 54.5802 35.93C53.6802 36.17 52.7302 36.07 51.8002 36.02C49.7002 35.9 47.5602 36.03 45.5502 36.68C43.5502 37.33 41.6902 38.54 40.4902 40.28C39.3002 42.02 38.8402 44.31 39.5402 46.29L39.7702 46.64C39.5902 44.49 40.5202 42.36 42.1002 40.61C43.6902 38.86 45.8802 37.31 48.2202 36.99C50.5602 36.67 52.8102 37.13 55.1402 37.56C59.9102 34.95 65.4402 34.07 70.7102 35.38C70.2502 34.3 70.7502 32.9 71.8002 32.36H71.8202Z" fill="black"/>
</g>
<g opacity="0.3">
<path d="M61.4199 43.03C58.9499 44.67 55.7799 45.19 52.9499 44.32C48.8299 46.44 47.5999 45.63 45.6899 45C46.6299 46.16 48.3799 46.78 49.8799 46.86C51.3699 46.93 52.8799 46.34 53.9299 45.28C55.9899 46.03 58.2599 45.78 60.4299 45.52C62.2499 45.3 64.0599 45.09 65.8799 44.87C67.8899 44.63 69.8999 44.39 71.8299 43.78C73.7599 43.17 75.6099 42.17 76.9099 40.63C72.3499 43.72 66.7299 44.5 61.4199 43.02V43.03Z" fill="black"/>
</g>
<g opacity="0.3">
<path d="M38.7502 30.15C39.6202 30.43 40.8902 30.18 41.6902 29.74C42.5002 29.3 43.1102 28.52 43.3402 27.63C43.4002 27.39 43.4502 27.13 43.6402 26.98C43.8402 26.82 44.1302 26.84 44.3902 26.83C45.2402 26.81 46.0802 26.39 46.6002 25.73C47.1202 25.07 47.3302 24.15 47.1502 23.32C46.4202 25.27 44.0802 26.45 42.0802 25.87C42.0102 27.59 41.5002 29.64 38.7402 30.15" fill="black"/>
</g>
<g opacity="0.3">
<path d="M54.9903 16.97C53.3903 14.79 50.7203 13.68 48.0303 14.04C45.3503 14.4 42.8603 16 41.4103 18.29C40.0403 18.33 38.6703 18.54 37.4203 19.09C36.1703 19.64 35.0503 20.55 34.4103 21.75C33.3403 23.76 33.2103 26.21 34.3803 28.3C33.9803 25.81 34.4903 23.73 35.8403 22.12C37.1903 20.51 40.0303 19.2 42.1303 19.31C42.8703 17.56 44.2503 16.4 46.0803 15.88C47.9103 15.36 49.9703 15.31 51.7803 15.88C53.5903 16.46 56.1703 19.19 56.1703 19.59C56.2703 18.69 55.8503 18.1 55.0103 16.96L54.9903 16.97Z" fill="black"/>
</g>
<g opacity="0.3">
<path d="M73.8599 13.62C70.5399 13.12 67.1399 14.95 65.2099 17.69C63.2799 20.43 63.0499 23.58 63.3099 26.92C63.3099 26.92 64.5399 21.25 66.5399 18.58C68.9799 15.33 73.0599 13.13 73.8599 13.62Z" fill="black"/>
</g>
<g opacity="0.3">
<path d="M71.1404 22.72C71.5004 23.54 71.6304 24.47 71.5004 25.36C73.2204 25.35 74.7904 26.47 75.7204 27.91C75.0904 27.25 74.1804 26.72 73.2604 26.44C72.3404 26.16 71.5104 26.02 70.6704 26.3C70.8804 25.01 71.2104 23.78 71.1004 22.63" fill="black"/>
</g>
<g opacity="0.3">
<path d="M93.9799 36.96C93.5799 35.7 92.6799 34.61 91.5299 33.97C93.3699 36.67 93.0899 40.27 91.1699 42.87C91.7499 44.9 91.3099 47.43 87.9399 49.93C89.9599 49.59 92.1599 47.39 92.4199 45.35C92.5299 44.5 92.4199 43.62 92.6599 42.81C92.8799 42.09 93.3599 41.49 93.6899 40.81C94.2699 39.63 94.3799 38.22 93.9899 36.96H93.9799Z" fill="black"/>
</g>
<g opacity="0.3">
<path d="M27.4299 30.07C27.4299 30.07 27.4499 30.13 27.4499 30.16C27.4599 30.11 27.4699 30.06 27.4799 30.01L27.4199 30.07H27.4299Z" fill="black"/>
</g>
<g opacity="0.3">
<path d="M30.8901 38.85C30.5301 38.32 30.1901 37.76 30.0401 37.13C29.6901 35.66 30.4401 34.17 31.1601 32.83C29.4201 33.01 27.9301 32.13 27.4501 30.15C27.1601 31.5 27.5301 33.1 28.6501 33.91C28.1601 35.96 28.5701 38.21 29.7501 39.95C30.9301 41.7 32.8601 42.92 34.9401 43.23C33.3801 41.98 32.0101 40.49 30.8901 38.84V38.85Z" fill="black"/>
</g>
<path d="M67.5598 54.49C67.3598 54.85 64.8298 56.98 65.6498 59.6C66.7298 63.01 71.8798 63.13 75.9398 62.34C81.8998 61.18 84.7198 58.63 84.7198 55.22C84.7198 52.47 67.5498 54.48 67.5498 54.48L67.5598 54.49Z" fill="#644DF6"/>
<path d="M84.73 55.22C84.73 55.22 84.66 55.22 84.53 55.19C84.39 55.16 84.2 55.13 83.96 55.09C83.71 55.04 83.41 54.99 83.06 54.94C82.71 54.88 82.31 54.82 81.87 54.77C80.98 54.65 79.92 54.55 78.74 54.48C77.56 54.41 76.26 54.37 74.89 54.37C72.16 54.37 69.69 54.5 67.9 54.6C67.02 54.65 66.3 54.69 65.78 54.72C65.54 54.73 65.35 54.74 65.2 54.75C65.07 54.75 65 54.75 65 54.75C65 54.75 65.07 54.74 65.2 54.72C65.34 54.71 65.53 54.69 65.77 54.67C66.27 54.62 66.99 54.57 67.88 54.5C69.67 54.38 72.14 54.23 74.88 54.23C76.25 54.23 77.55 54.27 78.73 54.35C79.91 54.44 80.98 54.54 81.86 54.67C82.3 54.73 82.7 54.8 83.05 54.86C83.4 54.92 83.7 54.98 83.95 55.03C84.19 55.08 84.37 55.13 84.51 55.16C84.64 55.19 84.71 55.21 84.7 55.21L84.73 55.22Z" fill="#1A2E35"/>
<g opacity="0.3">
<path d="M84.7299 55.27C78.6999 53.78 72.3599 54.4 66.1499 54.68C72.7099 55.29 78.9699 55.3 84.7299 55.27Z" fill="black"/>
</g>
<g opacity="0.3">
<path d="M58.3702 48.76C57.3302 49.07 55.4102 49.65 54.4702 50C54.3302 50.78 54.0102 51.44 53.3202 51.81C52.5202 52.17 51.6102 52.31 50.7402 52.19C51.7802 52.39 52.8602 52.57 53.8902 52.32C54.9202 52.08 55.9002 51.3 56.0602 50.26C61.9502 48.26 68.2402 47.43 74.4602 47.83C69.1702 46.75 63.5702 47.23 58.3802 48.75L58.3702 48.76Z" fill="black"/>
</g>
<g opacity="0.3">
<path d="M77.7502 26.5C77.7502 26.5 77.7802 26.48 77.8002 26.47C79.1702 25.71 79.8602 23.91 79.3402 22.43C79.2502 22.18 79.1302 21.94 79.1202 21.68C79.1102 21.41 79.2102 21.15 79.2802 20.89C79.6802 19.38 78.8402 17.65 77.4102 17.03C77.7502 17.43 78.8502 19.03 78.1502 21.67C78.1502 21.67 79.0102 23.21 78.6702 24.55" fill="black"/>
</g>
<g opacity="0.3">
<path d="M52.6504 31.76C53.4004 31.06 53.4204 29.59 53.1404 28.6C52.8604 27.61 52.2104 26.77 51.5204 26.01C52.2404 25.47 52.7204 24.63 52.8004 23.73C52.8904 22.84 52.5804 21.92 51.9704 21.25C51.8604 22.1 51.8504 23.15 51.4804 23.92C51.1004 24.69 50.6804 25.13 49.9204 25.54C51.8604 26.51 52.7704 29.27 52.7004 31.07L52.6404 31.75L52.6504 31.76Z" fill="black"/>
</g>
<path d="M85.3702 44.19C85.3702 44.19 85.5602 43.67 85.4102 42.83C85.3402 42.41 85.1802 41.93 84.8702 41.46C84.5702 40.99 84.1302 40.55 83.6002 40.18C83.0702 39.82 82.5002 39.56 81.9702 39.38C81.4402 39.2 80.9502 39.07 80.5302 38.99C80.1102 38.91 79.7702 38.86 79.5302 38.82C79.2902 38.78 79.1602 38.76 79.1602 38.75C79.1602 38.75 79.2902 38.75 79.5302 38.77C79.7702 38.79 80.1102 38.83 80.5402 38.9C80.9602 38.97 81.4602 39.09 82.0002 39.27C82.5402 39.45 83.1202 39.7 83.6702 40.08C84.2102 40.45 84.6702 40.91 84.9702 41.4C85.2702 41.89 85.4302 42.39 85.4902 42.82C85.5502 43.25 85.5202 43.6 85.4702 43.84C85.4502 43.96 85.4202 44.05 85.4002 44.11C85.3802 44.17 85.3702 44.2 85.3602 44.2L85.3702 44.19Z" fill="#1A2E35"/>
<g opacity="0.3">
<path d="M82.2504 37.68C82.7604 36.37 82.9804 34.94 82.8704 33.53C82.0104 35.5 80.6604 37.3 79.1304 38.81C81.1404 38.92 83.1904 39.68 84.6204 41.08C84.5904 39.61 83.6104 38.21 82.2404 37.67L82.2504 37.68Z" fill="black"/>
</g>
<path d="M56.0302 53.36L55.7002 52.13C55.2402 50.39 53.5802 49.31 51.7002 49.53L33.8502 51.62C31.6202 51.88 29.8602 53.86 29.9102 56.04L30.9202 98.55C30.9602 100.04 32.2202 101.11 33.7502 100.93L97.6002 93.46C99.1302 93.28 100.34 91.93 100.3 90.43L99.4202 53.68C99.3802 52.19 98.1202 51.12 96.5902 51.3L59.5102 55.64C57.8702 55.83 56.4202 54.89 56.0102 53.36H56.0302Z" fill="#007CFF"/>
<path d="M56.0302 53.36L55.7002 52.13C55.2402 50.39 53.5802 49.31 51.7002 49.53L33.8502 51.62C31.6202 51.88 29.8602 53.86 29.9102 56.04L30.9202 98.55C30.9602 100.04 32.2202 101.11 33.7502 100.93L97.6002 93.46C99.1302 93.28 100.34 91.93 100.3 90.43L99.4202 53.68C99.3802 52.19 98.1202 51.12 96.5902 51.3L59.5102 55.64C57.8702 55.83 56.4202 54.89 56.0102 53.36H56.0302Z" fill="white" stroke="#644DF4" stroke-width="0.5" stroke-miterlimit="10"/>
<path d="M89.4472 61.4188L38.206 67.3205C36.9386 67.4664 36.0295 68.6122 36.1754 69.8796L38.2979 88.3078C38.4438 89.5752 39.5896 90.4843 40.857 90.3383L92.0983 84.4367C93.3657 84.2907 94.2748 83.1449 94.1288 81.8775L92.0064 63.4494C91.8604 62.182 90.7146 61.2729 89.4472 61.4188Z" fill="#644DF4"/>
<path d="M44.5602 94.79C44.5602 100.43 39.9902 104.99 34.3602 104.99C28.7202 104.99 24.1602 100.42 24.1602 94.79C24.1602 89.15 28.7302 84.59 34.3602 84.59C40.0002 84.59 44.5602 89.16 44.5602 94.79Z" fill="white" stroke="#644DF4" stroke-width="0.5" stroke-miterlimit="10"/>
<path d="M40.1186 100.546C43.2975 97.3675 43.2975 92.2135 40.1186 89.0347C36.9398 85.8558 31.7858 85.8558 28.6069 89.0347C25.4281 92.2135 25.4281 97.3675 28.6069 100.546C31.7858 103.725 36.9398 103.725 40.1186 100.546Z" fill="white" stroke="#644DF4" stroke-width="0.5" stroke-miterlimit="10"/>
<path d="M39.2702 93.49H35.6502V89.88H33.0602V93.49H29.4502V96.09H33.0602V99.7H35.6502V96.09H39.2702V93.49Z" fill="#644DF4"/>
<path d="M58.17 78.54C57.98 79.16 57.67 79.67 57.25 80.08L58.73 81.01L57.59 82.23L55.61 80.97C55.44 81.01 55.27 81.05 55.1 81.06C54.36 81.15 53.69 81.05 53.09 80.77C52.49 80.49 52 80.06 51.62 79.48C51.24 78.9 51 78.21 50.91 77.41L50.86 76.96C50.76 76.13 50.83 75.38 51.07 74.71C51.3 74.04 51.68 73.5 52.2 73.09C52.72 72.68 53.35 72.43 54.09 72.35C54.83 72.27 55.49 72.37 56.09 72.66C56.69 72.95 57.19 73.39 57.56 73.98C57.93 74.57 58.17 75.27 58.26 76.06L58.31 76.45C58.4 77.22 58.35 77.92 58.16 78.53L58.17 78.54ZM55.56 74.48C55.23 74.08 54.8 73.9 54.28 73.96C53.76 74.02 53.36 74.28 53.13 74.74C52.91 75.2 52.84 75.84 52.94 76.68L52.99 77.07C53.09 77.91 53.3 78.54 53.63 78.95C53.96 79.36 54.39 79.53 54.93 79.47C55.47 79.41 55.82 79.15 56.05 78.68C56.28 78.21 56.34 77.56 56.25 76.74L56.2 76.35C56.1 75.52 55.89 74.9 55.56 74.49V74.48Z" fill="white"/>
<path d="M64.6698 76.21L61.4498 76.58L61.6798 78.6L65.4698 78.16L65.6498 79.73L59.8198 80.4L58.8398 71.92L64.6798 71.25L64.8598 72.82L61.0598 73.26L61.2698 75.05L64.4898 74.68L64.6698 76.21Z" fill="white"/>
<path d="M71.35 75.44L68.13 75.81L68.36 77.83L72.15 77.39L72.33 78.96L66.5 79.63L65.52 71.15L71.36 70.48L71.54 72.05L67.74 72.49L67.95 74.28L71.17 73.91L71.35 75.44Z" fill="white"/>
<path d="M78.7101 78.03C78.1301 78.31 77.4801 78.49 76.7601 78.57C76.0401 78.65 75.3601 78.57 74.7601 78.33C74.1701 78.09 73.6801 77.69 73.3101 77.15C72.9301 76.61 72.7001 75.94 72.6001 75.14L72.5001 74.4C72.4001 73.67 72.4501 72.98 72.6401 72.32C72.8301 71.66 73.1801 71.11 73.6901 70.66C74.2001 70.21 74.8401 69.95 75.6401 69.86C76.7001 69.74 77.5401 69.88 78.1801 70.3C78.8201 70.72 79.2401 71.4 79.4501 72.35L77.4801 72.58C77.3601 72.12 77.1701 71.8 76.9201 71.62C76.6701 71.44 76.3301 71.38 75.8901 71.43C75.3801 71.49 75.0101 71.75 74.7801 72.22C74.5501 72.69 74.4801 73.33 74.5701 74.13L74.6301 74.64C74.7301 75.49 74.9501 76.11 75.2901 76.5C75.6301 76.89 76.1101 77.05 76.7201 76.98C77.2601 76.92 77.6401 76.75 77.8601 76.49L77.7101 75.18L76.2901 75.34L76.1301 73.93L79.6001 73.53L80.0001 77.01C79.7201 77.4 79.2901 77.74 78.7101 78.02V78.03Z" fill="white"/>
</g>
</g>
<defs>
<clipPath id="clip0_614_833">
<rect width="120" height="120" fill="white"/>
</clipPath>
</defs>
</svg>
