<svg width="120" height="120" viewBox="0 0 120 120" fill="none" xmlns="http://www.w3.org/2000/svg">
<g clip-path="url(#clip0_614_531)">
<rect width="120" height="120" fill="white"/>
<g clip-path="url(#clip1_614_531)">
<mask id="mask0_614_531" style="mask-type:luminance" maskUnits="userSpaceOnUse" x="0" y="0" width="120" height="120">
<path d="M120 0H0V120H120V0Z" fill="white"/>
</mask>
<g mask="url(#mask0_614_531)">
<path d="M31.2999 106.77C31.2999 107.57 30.6499 108.21 29.8599 108.21C29.0699 108.21 28.4199 107.56 28.4199 106.77C28.4199 105.98 29.0699 105.33 29.8599 105.33C30.6499 105.33 31.2999 105.98 31.2999 106.77Z" fill="#644DF6"/>
<path d="M39.7498 107.61C39.7498 108.07 39.3798 108.44 38.9198 108.44C38.4598 108.44 38.0898 108.07 38.0898 107.61C38.0898 107.15 38.4598 106.78 38.9198 106.78C39.3798 106.78 39.7498 107.15 39.7498 107.61Z" fill="#644DF6"/>
<path d="M33.9798 101.82C33.9798 102.28 33.6098 102.65 33.1498 102.65C32.6898 102.65 32.3198 102.28 32.3198 101.82C32.3198 101.36 32.6898 100.99 33.1498 100.99C33.6098 100.99 33.9798 101.36 33.9798 101.82Z" fill="#644DF6"/>
<path d="M22.38 109.08C22.6119 109.08 22.8 108.892 22.8 108.66C22.8 108.428 22.6119 108.24 22.38 108.24C22.148 108.24 21.96 108.428 21.96 108.66C21.96 108.892 22.148 109.08 22.38 109.08Z" fill="#644DF6"/>
<path d="M30.2799 100.69C30.2799 100.92 30.0899 101.11 29.8599 101.11C29.6299 101.11 29.4399 100.92 29.4399 100.69C29.4399 100.46 29.6299 100.27 29.8599 100.27C30.0899 100.27 30.2799 100.46 30.2799 100.69Z" fill="#644DF6"/>
<path d="M23.9498 24.17C22.6998 23.97 21.4198 24.18 20.3098 24.79C20.2598 24.82 20.2298 24.85 20.1998 24.88C19.4898 24.41 18.6698 24.15 17.8298 24.08C17.5498 23.96 17.3198 23.8 17.3098 23.59C17.2798 23.43 17.2398 23.27 17.1898 23.11C17.4798 22.66 17.7298 22.17 17.8198 21.93C18.0998 21.58 18.3398 21.21 18.5398 20.81C18.5998 20.84 18.6698 20.87 18.7398 20.87C19.8598 20.99 21.0098 20.86 22.0798 20.5C22.2798 20.43 22.4098 20.23 22.3498 20.03C22.2998 19.84 22.0698 19.7 21.8798 19.76C20.8998 20.09 19.8698 20.2 18.8498 20.11C19.0598 19.54 19.1998 18.93 19.2498 18.31C19.2898 17.76 19.2498 17.21 19.1498 16.67C19.1098 16.47 18.8598 16.35 18.6798 16.4C18.4698 16.46 18.3698 16.67 18.4098 16.87C18.6898 18.38 18.2898 19.98 17.3898 21.22C17.0998 21.45 16.7698 21.59 16.4498 21.6C15.7098 20.56 14.5998 19.81 13.2998 19.53C12.8498 19.3 12.6298 19.13 12.3898 18.58C12.4498 18.18 12.4798 17.79 12.4798 17.39C12.4998 17.37 12.5198 17.35 12.5398 17.33C13.2198 16.44 14.2498 15.84 15.3598 15.65C15.5598 15.61 15.6798 15.36 15.6298 15.18C15.5698 14.96 15.3598 14.87 15.1598 14.91C14.1298 15.09 13.1898 15.6 12.4398 16.32C12.3598 15.54 12.1798 14.78 11.8998 14.04C11.8298 13.85 11.6398 13.71 11.4298 13.77C11.2398 13.82 11.0898 14.05 11.1598 14.24C11.6998 15.65 11.8598 17.17 11.6198 18.65C11.3398 19.02 11.0398 19.36 10.7398 19.64C10.5698 19.69 10.3998 19.75 10.2398 19.82C9.55982 19.89 8.77982 19.6 8.13982 19.3C8.11982 19.29 8.08982 19.27 8.06982 19.26C8.06982 19.26 8.06982 19.24 8.06982 19.23C7.57982 18.14 7.66982 16.84 8.26982 15.82C8.51982 15.39 7.85982 15 7.60982 15.43C7.01982 16.44 6.85982 17.64 7.11982 18.76C6.18982 18.37 5.17982 18.17 4.17982 18.21C3.57982 18.23 2.98982 18.33 2.41982 18.51C1.94982 18.66 2.14982 19.4 2.61982 19.25C4.30982 18.7 6.18982 18.99 7.68982 19.91C8.11982 20.48 8.06982 21.12 7.86982 21.8C7.34982 22.61 7.03982 23.58 7.03982 24.62C7.03982 24.64 7.03982 24.65 7.03982 24.67C6.99982 24.99 6.82982 25.5 6.21982 25.55C4.74982 25.41 3.33982 24.68 2.42982 23.51C2.29982 23.35 2.09982 23.26 1.89982 23.37C1.73982 23.46 1.62982 23.73 1.75982 23.9C2.50982 24.87 3.53982 25.59 4.66982 25.99C3.73982 27.18 2.18982 27.81 0.699824 27.69C0.489824 27.67 0.319824 27.88 0.319824 28.07C0.319824 28.29 0.499824 28.44 0.699824 28.45C2.50982 28.59 4.28982 27.75 5.37982 26.32C5.40982 26.28 5.42982 26.24 5.42982 26.19C5.67982 26.24 5.92982 26.28 6.17982 26.31C7.23982 26.41 7.83982 27.39 7.83982 27.39C8.12982 27.83 8.47983 28.24 8.87982 28.58C9.01982 28.81 9.12982 29.03 8.98982 29.26C8.97982 29.28 8.96982 29.3 8.95982 29.32C7.63982 30.85 5.48982 31.44 3.54982 30.8C3.07982 30.65 2.87982 31.39 3.34982 31.54C4.58982 31.94 5.96982 31.93 7.18982 31.46C7.23982 31.44 7.27982 31.42 7.32982 31.4C7.62982 32.66 7.33982 34 6.56982 35.04C6.44982 35.21 6.53982 35.47 6.70982 35.57C6.90982 35.68 7.10982 35.6 7.23982 35.43C8.14982 34.19 8.44982 32.55 8.03982 31.06C8.03982 31.06 8.03982 31.06 8.03982 31.05C8.54982 30.76 8.99982 30.39 9.39982 29.96C9.54982 29.84 9.81983 29.53 10.1798 29.36C10.8098 29.63 11.4998 29.78 12.2298 29.78C12.9998 29.78 13.7298 29.61 14.3898 29.31C14.7898 29.21 15.2298 29.13 15.5898 29.31C15.7698 29.52 15.9698 29.71 16.1898 29.88C15.8598 31.58 16.4198 33.42 17.6898 34.61C18.0498 34.95 18.5998 34.41 18.2298 34.07C17.2298 33.12 16.7198 31.71 16.8898 30.35C17.1398 30.49 17.3998 30.61 17.6698 30.71C18.9998 31.22 20.4698 31.22 21.8798 31.19C22.3698 31.18 22.3798 30.41 21.8798 30.42C20.5698 30.45 19.2298 30.46 17.9798 30.01C17.2398 29.75 16.5598 29.31 16.0798 28.7C16.0798 28.7 16.0798 28.69 16.0798 28.68C16.0598 28.33 16.2498 27.94 16.3598 27.74C16.8998 27.04 17.2598 26.19 17.3798 25.27C17.4398 25.1 17.5398 24.87 17.6798 24.78C18.4798 24.82 19.2698 25.09 19.9298 25.55C20.7698 26.13 21.3598 27.03 21.6098 28.02C21.7298 28.5 22.4798 28.3 22.3498 27.82C22.0998 26.86 21.5698 26 20.8498 25.33C21.7398 24.88 22.7698 24.7 23.7598 24.85C23.9698 24.88 24.1698 24.8 24.2298 24.58C24.2798 24.4 24.1698 24.14 23.9598 24.11L23.9498 24.17Z" fill="#ECECEC"/>
<path d="M13.9998 24.43C13.9998 25.44 13.1798 26.26 12.1698 26.26C11.1598 26.26 10.3398 25.44 10.3398 24.43C10.3398 23.42 11.1598 22.6 12.1698 22.6C13.1798 22.6 13.9998 23.42 13.9998 24.43Z" fill="#E1E1E1"/>
<path d="M100.28 18.06C100.74 19.24 101.55 20.24 102.64 20.9C102.69 20.93 102.73 20.94 102.78 20.95C102.73 21.8 102.91 22.64 103.28 23.4C103.32 23.7 103.29 23.98 103.12 24.1C103 24.21 102.88 24.33 102.76 24.45C102.23 24.42 101.67 24.45 101.42 24.49C100.98 24.42 100.53 24.4 100.09 24.43C100.09 24.36 100.08 24.29 100.05 24.22C99.59 23.19 98.9 22.26 98.06 21.51C97.9 21.37 97.67 21.36 97.52 21.51C97.38 21.65 97.37 21.92 97.52 22.05C98.29 22.74 98.91 23.57 99.34 24.5C98.74 24.6 98.14 24.79 97.59 25.05C97.09 25.29 96.63 25.6 96.22 25.95C96.06 26.09 96.08 26.36 96.22 26.49C96.38 26.65 96.61 26.62 96.76 26.49C97.92 25.49 99.52 25.04 101.04 25.2C101.38 25.34 101.67 25.55 101.85 25.83C101.32 26.99 101.22 28.33 101.63 29.59C101.65 30.09 101.62 30.37 101.26 30.86C100.89 31.01 100.53 31.18 100.18 31.38C100.15 31.38 100.13 31.37 100.1 31.36C98.99 31.22 97.96 30.62 97.23 29.76C97.1 29.6 96.82 29.63 96.69 29.76C96.53 29.92 96.56 30.14 96.69 30.3C97.36 31.1 98.27 31.67 99.27 31.95C98.64 32.41 98.06 32.95 97.57 33.56C97.44 33.72 97.42 33.95 97.57 34.1C97.71 34.24 97.98 34.26 98.11 34.1C99.06 32.93 100.3 32.03 101.7 31.5C102.15 31.56 102.61 31.64 103 31.76C103.13 31.88 103.26 32 103.4 32.1C103.8 32.65 103.94 33.47 104 34.18C104 34.21 104 34.23 104 34.26C104 34.26 103.99 34.27 103.98 34.28C103.29 35.25 102.11 35.82 100.92 35.81C100.42 35.81 100.42 36.58 100.92 36.58C102.09 36.59 103.21 36.13 104.05 35.34C104.17 36.34 104.51 37.31 105.04 38.16C105.36 38.67 105.74 39.13 106.19 39.53C106.56 39.86 107.1 39.32 106.73 38.98C105.41 37.79 104.72 36.02 104.77 34.26C105.05 33.6 105.63 33.32 106.32 33.16C107.29 33.21 108.28 32.99 109.17 32.47C109.18 32.47 109.2 32.45 109.21 32.44C109.51 32.32 110.03 32.2 110.38 32.71C110.99 34.05 111.07 35.64 110.51 37.01C110.43 37.2 110.46 37.42 110.65 37.54C110.81 37.63 111.1 37.59 111.18 37.4C111.65 36.27 111.76 35.02 111.53 33.83C113.03 34.04 114.35 35.06 114.99 36.42C115.08 36.61 115.35 36.66 115.52 36.56C115.71 36.45 115.75 36.22 115.66 36.03C114.88 34.39 113.26 33.27 111.47 33.05C111.42 33.05 111.38 33.05 111.33 33.07C111.25 32.83 111.16 32.59 111.06 32.36C110.62 31.39 111.17 30.38 111.17 30.38C111.42 29.91 111.59 29.41 111.68 28.89C111.81 28.66 111.95 28.45 112.21 28.45C112.23 28.45 112.25 28.45 112.27 28.45C114.25 28.83 115.84 30.4 116.26 32.39C116.36 32.88 117.11 32.68 117.01 32.2C116.74 30.93 116.04 29.73 115.02 28.91C114.98 28.88 114.94 28.85 114.9 28.82C115.84 27.93 117.14 27.51 118.43 27.65C118.64 27.67 118.82 27.46 118.82 27.27C118.82 27.04 118.64 26.91 118.44 26.88C116.91 26.71 115.34 27.28 114.26 28.37C113.75 28.08 113.21 27.86 112.64 27.73C112.46 27.66 112.05 27.58 111.73 27.36C111.65 26.68 111.43 26.01 111.07 25.38C110.68 24.71 110.17 24.16 109.58 23.75C109.29 23.45 109.01 23.11 108.97 22.71C109.06 22.45 109.13 22.18 109.17 21.91C110.81 21.35 112.12 19.94 112.52 18.24C112.63 17.76 111.89 17.56 111.78 18.04C111.46 19.38 110.49 20.52 109.23 21.06C109.23 20.77 109.2 20.48 109.15 20.2C108.92 18.79 108.19 17.52 107.46 16.32C107.2 15.9 106.54 16.28 106.79 16.7C107.47 17.82 108.15 18.98 108.38 20.28C108.52 21.05 108.48 21.86 108.19 22.58C108.19 22.58 108.18 22.58 108.17 22.59C107.87 22.78 107.45 22.81 107.22 22.82C106.34 22.71 105.43 22.82 104.57 23.17C104.4 23.2 104.15 23.23 104 23.16C103.64 22.44 103.47 21.63 103.54 20.82C103.63 19.8 104.11 18.84 104.83 18.13C105.18 17.78 104.64 17.24 104.28 17.59C103.57 18.28 103.09 19.17 102.87 20.13C102.03 19.58 101.36 18.78 101 17.85C100.93 17.66 100.75 17.52 100.53 17.57C100.35 17.62 100.18 17.84 100.25 18.04L100.28 18.06Z" fill="#ECECEC"/>
<path d="M105.49 26.55C106.37 26.04 107.49 26.34 107.99 27.22C108.5 28.1 108.2 29.22 107.32 29.72C106.44 30.22 105.32 29.93 104.82 29.05C104.31 28.17 104.61 27.05 105.49 26.55Z" fill="#E1E1E1"/>
<path d="M75.1999 73.79C75.7299 75.17 76.6799 76.33 77.9499 77.1C77.9999 77.13 78.0599 77.15 78.1099 77.16C78.0499 78.15 78.2599 79.13 78.6899 80.01C78.7299 80.36 78.6999 80.69 78.5099 80.82C78.3599 80.95 78.2299 81.08 78.0999 81.22C77.4799 81.19 76.8399 81.22 76.5399 81.27C76.0299 81.19 75.5099 81.17 74.9899 81.2C74.9899 81.12 74.9699 81.04 74.9399 80.96C74.3999 79.76 73.6099 78.68 72.6199 77.8C72.4399 77.64 72.1599 77.63 71.9899 77.8C71.8299 77.97 71.8099 78.27 71.9899 78.43C72.8899 79.23 73.5999 80.19 74.1099 81.28C73.4099 81.4 72.7199 81.61 72.0699 81.92C71.4899 82.2 70.9599 82.55 70.4699 82.97C70.2899 83.13 70.3099 83.44 70.4699 83.6C70.6499 83.78 70.9199 83.75 71.0999 83.6C72.4499 82.44 74.3099 81.91 76.0799 82.09C76.4799 82.25 76.8099 82.49 77.0199 82.82C76.3999 84.17 76.2899 85.73 76.7699 87.2C76.7999 87.79 76.7599 88.1 76.3399 88.68C75.9099 88.85 75.4899 89.05 75.0799 89.28C75.0499 89.28 75.0199 89.26 74.9799 89.26C73.6799 89.1 72.4899 88.4 71.6499 87.4C71.4899 87.21 71.1699 87.24 71.0199 87.4C70.8399 87.59 70.8699 87.85 71.0199 88.03C71.7999 88.97 72.8599 89.62 74.0199 89.95C73.2899 90.48 72.6199 91.11 72.0399 91.82C71.8899 92.01 71.8599 92.27 72.0399 92.45C72.1999 92.61 72.5199 92.63 72.6699 92.45C73.7699 91.09 75.2099 90.04 76.8499 89.42C77.3799 89.49 77.8999 89.59 78.3599 89.73C78.5099 89.87 78.6699 90.01 78.8299 90.13C79.2899 90.77 79.4599 91.73 79.5299 92.55C79.5299 92.58 79.5299 92.61 79.5299 92.64C79.5299 92.64 79.5199 92.66 79.5099 92.66C78.6999 93.79 77.3299 94.45 75.9499 94.44C75.3699 94.44 75.3699 95.33 75.9499 95.34C77.3099 95.35 78.6099 94.82 79.5899 93.9C79.7399 95.06 80.1299 96.19 80.7399 97.18C81.1099 97.77 81.5599 98.31 82.0699 98.78C82.4999 99.17 83.1299 98.53 82.6999 98.14C81.1699 96.75 80.3599 94.7 80.4199 92.65C80.7399 91.89 81.4199 91.56 82.2199 91.37C83.3399 91.43 84.4999 91.17 85.5399 90.57C85.5599 90.56 85.5699 90.55 85.5899 90.54C85.9299 90.4 86.5499 90.26 86.9599 90.85C87.6699 92.41 87.7699 94.26 87.1099 95.85C87.0199 96.07 87.0499 96.33 87.2799 96.46C87.4699 96.57 87.7999 96.52 87.8899 96.29C88.4299 94.97 88.5599 93.52 88.2999 92.14C90.0399 92.39 91.5799 93.58 92.3299 95.15C92.4299 95.37 92.7399 95.43 92.9399 95.31C93.1599 95.18 93.2099 94.92 93.0999 94.7C92.1899 92.79 90.3099 91.49 88.2299 91.23C88.1699 91.23 88.1199 91.23 88.0699 91.25C87.9799 90.97 87.8699 90.69 87.7499 90.43C87.2399 89.31 87.8799 88.13 87.8799 88.13C88.1699 87.59 88.3699 87 88.4799 86.39C88.6299 86.12 88.7899 85.88 89.0999 85.88C89.1299 85.88 89.1499 85.88 89.1699 85.88C91.4799 86.32 93.3199 88.15 93.8099 90.47C93.9299 91.04 94.7999 90.81 94.6799 90.24C94.3699 88.76 93.5499 87.37 92.3599 86.41C92.3199 86.37 92.2699 86.34 92.2199 86.31C93.3199 85.27 94.8299 84.78 96.3299 84.95C96.5699 84.98 96.7799 84.73 96.7799 84.5C96.7799 84.24 96.5799 84.08 96.3299 84.05C94.5499 83.85 92.7199 84.51 91.4599 85.78C91.4599 85.78 91.4599 85.78 91.4599 85.79C90.8699 85.45 90.2399 85.2 89.5699 85.05C89.3599 84.96 88.8899 84.88 88.5099 84.62C88.4199 83.83 88.1599 83.04 87.7399 82.31C87.2899 81.53 86.6999 80.9 86.0099 80.41C85.6699 80.07 85.3399 79.67 85.2999 79.2C85.4099 78.9 85.4799 78.58 85.5299 78.26C87.4399 77.61 88.9599 75.97 89.4299 73.99C89.5599 73.43 88.6999 73.2 88.5599 73.76C88.1899 75.32 87.0599 76.65 85.5899 77.28C85.5899 76.94 85.5599 76.61 85.4999 76.28C85.2399 74.64 84.3799 73.16 83.5299 71.76C83.2299 71.27 82.4499 71.71 82.7499 72.21C83.5399 73.51 84.3299 74.86 84.6099 76.37C84.7699 77.27 84.7199 78.21 84.3899 79.04C84.3899 79.04 84.3799 79.04 84.3699 79.05C84.0199 79.27 83.5299 79.3 83.2599 79.32C82.2399 79.19 81.1799 79.32 80.1799 79.73C79.9799 79.77 79.6899 79.8 79.5099 79.71C79.0899 78.88 78.8999 77.93 78.9799 76.99C79.0799 75.81 79.6399 74.69 80.4899 73.86C80.8999 73.46 80.2599 72.83 79.8499 73.23C79.0299 74.04 78.4699 75.07 78.2099 76.19C77.2399 75.56 76.4499 74.62 76.0299 73.53C75.9399 73.3 75.7399 73.14 75.4799 73.21C75.2699 73.27 75.0699 73.53 75.1599 73.76L75.1999 73.79Z" fill="#ECECEC"/>
<path d="M81.2601 83.67C82.2801 83.08 83.5801 83.43 84.1701 84.45C84.7601 85.47 84.4101 86.77 83.3901 87.36C82.3701 87.95 81.0701 87.6 80.4801 86.58C79.8901 85.56 80.2401 84.26 81.2601 83.67Z" fill="#E1E1E1"/>
<path d="M20.9001 87.33C21.1201 87.91 21.5201 88.4 22.0501 88.72C22.0701 88.73 22.1001 88.74 22.1201 88.75C22.1001 89.16 22.1801 89.58 22.3601 89.95C22.3801 90.1 22.3601 90.23 22.2801 90.29C22.2201 90.34 22.1601 90.4 22.1101 90.46C21.8501 90.45 21.5801 90.46 21.4501 90.48C21.2401 90.45 21.0201 90.44 20.8001 90.45C20.8001 90.42 20.8001 90.38 20.7801 90.35C20.5501 89.85 20.2201 89.39 19.8101 89.03C19.7301 88.96 19.6201 88.96 19.5401 89.03C19.4701 89.1 19.4701 89.23 19.5401 89.3C19.9201 89.64 20.2201 90.04 20.4301 90.5C20.1401 90.55 19.8501 90.64 19.5701 90.77C19.3301 90.89 19.1001 91.04 18.9001 91.21C18.8201 91.28 18.8301 91.41 18.9001 91.48C18.9801 91.56 19.0901 91.54 19.1701 91.48C19.7401 90.99 20.5201 90.77 21.2601 90.85C21.4301 90.92 21.5701 91.02 21.6501 91.16C21.3901 91.73 21.3401 92.38 21.5401 93C21.5501 93.25 21.5401 93.38 21.3601 93.62C21.1801 93.69 21.0001 93.78 20.8301 93.87C20.8201 93.87 20.8001 93.87 20.7901 93.87C20.2501 93.8 19.7401 93.51 19.3901 93.09C19.3201 93.01 19.1901 93.02 19.1201 93.09C19.0401 93.17 19.0601 93.28 19.1201 93.36C19.4501 93.75 19.8901 94.03 20.3801 94.17C20.0701 94.39 19.7901 94.66 19.5501 94.95C19.4901 95.03 19.4701 95.14 19.5501 95.22C19.6201 95.29 19.7501 95.3 19.8201 95.22C20.2801 94.65 20.8901 94.21 21.5701 93.95C21.7901 93.98 22.0101 94.02 22.2001 94.08C22.2601 94.14 22.3301 94.2 22.4001 94.25C22.5901 94.52 22.6601 94.92 22.6901 95.27C22.6901 95.28 22.6901 95.3 22.6901 95.31C22.6901 95.31 22.6901 95.31 22.6901 95.32C22.3501 95.79 21.7801 96.07 21.2001 96.07C20.9601 96.07 20.9601 96.44 21.2001 96.45C21.7701 96.45 22.3201 96.23 22.7301 95.85C22.7901 96.34 22.9501 96.81 23.2101 97.23C23.3601 97.48 23.5501 97.71 23.7701 97.9C23.9501 98.06 24.2101 97.8 24.0301 97.63C23.3901 97.05 23.0501 96.19 23.0701 95.32C23.2101 95 23.4901 94.86 23.8301 94.78C24.3001 94.8 24.7801 94.7 25.2201 94.44C25.2201 94.44 25.2301 94.44 25.2401 94.43C25.3801 94.37 25.6401 94.31 25.8101 94.56C26.1101 95.22 26.1501 95.99 25.8701 96.66C25.8301 96.75 25.8401 96.86 25.9401 96.92C26.0201 96.97 26.1601 96.94 26.2001 96.85C26.4301 96.3 26.4801 95.69 26.3701 95.11C27.1001 95.21 27.7401 95.71 28.0601 96.37C28.1001 96.46 28.2301 96.49 28.3201 96.44C28.4101 96.39 28.4301 96.28 28.3901 96.18C28.0101 95.38 27.2201 94.83 26.3501 94.72C26.3301 94.72 26.3001 94.72 26.2801 94.72C26.2401 94.6 26.2001 94.49 26.1501 94.37C25.9401 93.9 26.2001 93.4 26.2001 93.4C26.3201 93.17 26.4001 92.92 26.4501 92.67C26.5101 92.56 26.5801 92.45 26.7101 92.45C26.7201 92.45 26.7301 92.45 26.7401 92.45C27.7101 92.63 28.4801 93.4 28.6901 94.37C28.7401 94.61 29.1001 94.51 29.0501 94.28C28.9201 93.66 28.5701 93.08 28.0801 92.67C28.0601 92.65 28.0401 92.64 28.0201 92.63C28.4801 92.19 29.1201 91.99 29.7501 92.06C29.8501 92.07 29.9401 91.97 29.9401 91.87C29.9401 91.76 29.8501 91.69 29.7501 91.68C29.0001 91.6 28.2401 91.87 27.7101 92.41C27.4601 92.27 27.2001 92.16 26.9201 92.1C26.8301 92.06 26.6301 92.03 26.4801 91.92C26.4401 91.59 26.3301 91.26 26.1601 90.95C25.9701 90.62 25.7201 90.36 25.4301 90.15C25.2901 90.01 25.1501 89.84 25.1301 89.64C25.1701 89.51 25.2101 89.38 25.2301 89.25C26.0301 88.98 26.6701 88.29 26.8701 87.46C26.9301 87.22 26.5601 87.13 26.5101 87.36C26.3601 88.02 25.8801 88.57 25.2701 88.84C25.2701 88.7 25.2601 88.56 25.2301 88.42C25.1201 87.73 24.7601 87.11 24.4001 86.52C24.2701 86.31 23.9501 86.5 24.0701 86.71C24.4001 87.26 24.7301 87.82 24.8501 88.46C24.9201 88.84 24.9001 89.23 24.7601 89.58C24.6101 89.67 24.4101 89.69 24.2901 89.69C23.8601 89.63 23.4201 89.69 23.0001 89.86C22.9201 89.88 22.7901 89.89 22.7201 89.86C22.5401 89.51 22.4601 89.11 22.5001 88.72C22.5401 88.22 22.7801 87.75 23.1301 87.41C23.3001 87.24 23.0401 86.98 22.8601 87.15C22.5101 87.49 22.2801 87.92 22.1701 88.39C21.7601 88.12 21.4301 87.73 21.2601 87.27C21.2201 87.18 21.1401 87.11 21.0301 87.14C20.9401 87.16 20.8601 87.27 20.9001 87.37V87.33Z" fill="#ECECEC"/>
<path d="M23.4399 91.47C23.8699 91.22 24.4099 91.37 24.6599 91.8C24.9099 92.23 24.7599 92.77 24.3299 93.02C23.8999 93.27 23.3599 93.12 23.1099 92.69C22.8599 92.26 23.0099 91.72 23.4399 91.47Z" fill="#E1E1E1"/>
<path d="M69.88 12.29C70.1 12.87 70.5 13.36 71.03 13.68C71.05 13.69 71.08 13.7 71.1 13.71C71.08 14.12 71.16 14.54 71.34 14.91C71.36 15.06 71.34 15.19 71.26 15.25C71.2 15.3 71.14 15.36 71.09 15.42C70.83 15.41 70.56 15.42 70.43 15.44C70.22 15.41 70 15.4 69.78 15.41C69.78 15.38 69.78 15.34 69.76 15.31C69.53 14.81 69.2 14.35 68.79 13.99C68.71 13.92 68.6 13.92 68.52 13.99C68.45 14.06 68.45 14.19 68.52 14.26C68.9 14.6 69.2 15 69.41 15.46C69.12 15.51 68.83 15.6 68.55 15.73C68.31 15.85 68.08 16 67.88 16.17C67.8 16.24 67.81 16.37 67.88 16.44C67.96 16.52 68.07 16.5 68.15 16.44C68.72 15.95 69.5 15.73 70.24 15.81C70.41 15.88 70.55 15.98 70.63 16.12C70.37 16.69 70.32 17.34 70.52 17.96C70.53 18.21 70.52 18.34 70.34 18.58C70.16 18.65 69.98 18.74 69.81 18.83C69.8 18.83 69.78 18.83 69.77 18.83C69.23 18.76 68.72 18.47 68.37 18.05C68.3 17.97 68.17 17.98 68.1 18.05C68.02 18.13 68.04 18.24 68.1 18.32C68.43 18.71 68.87 18.99 69.36 19.13C69.05 19.35 68.77 19.62 68.53 19.91C68.47 19.99 68.45 20.1 68.53 20.18C68.6 20.25 68.73 20.26 68.8 20.18C69.26 19.61 69.87 19.17 70.55 18.91C70.77 18.94 70.99 18.98 71.18 19.04C71.24 19.1 71.31 19.16 71.38 19.21C71.57 19.48 71.64 19.88 71.67 20.23C71.67 20.24 71.67 20.26 71.67 20.27C71.67 20.27 71.67 20.27 71.67 20.28C71.33 20.75 70.76 21.03 70.18 21.03C69.94 21.03 69.94 21.4 70.18 21.41C70.75 21.41 71.3 21.19 71.71 20.81C71.77 21.3 71.93 21.77 72.19 22.19C72.34 22.44 72.53 22.67 72.75 22.86C72.93 23.02 73.19 22.76 73.01 22.59C72.37 22.01 72.03 21.15 72.05 20.28C72.19 19.96 72.47 19.82 72.81 19.74C73.28 19.76 73.76 19.66 74.2 19.4C74.2 19.4 74.21 19.4 74.22 19.39C74.36 19.33 74.62 19.27 74.79 19.52C75.09 20.18 75.13 20.95 74.85 21.62C74.81 21.71 74.82 21.82 74.92 21.88C75 21.93 75.14 21.9 75.18 21.81C75.41 21.26 75.46 20.65 75.35 20.07C76.08 20.17 76.72 20.67 77.04 21.33C77.08 21.42 77.21 21.45 77.3 21.4C77.39 21.35 77.41 21.24 77.37 21.14C76.99 20.34 76.2 19.79 75.33 19.68C75.31 19.68 75.28 19.68 75.26 19.68C75.22 19.56 75.18 19.45 75.13 19.33C74.92 18.86 75.18 18.36 75.18 18.36C75.3 18.13 75.38 17.88 75.43 17.63C75.49 17.52 75.56 17.41 75.69 17.41C75.7 17.41 75.71 17.41 75.72 17.41C76.69 17.59 77.46 18.36 77.67 19.33C77.72 19.57 78.08 19.47 78.03 19.24C77.9 18.62 77.55 18.04 77.06 17.63C77.04 17.61 77.02 17.6 77 17.59C77.46 17.15 78.1 16.95 78.73 17.02C78.83 17.03 78.92 16.93 78.92 16.83C78.92 16.72 78.83 16.65 78.73 16.64C77.98 16.56 77.22 16.83 76.69 17.37C76.44 17.23 76.18 17.12 75.9 17.06C75.81 17.02 75.61 16.99 75.46 16.88C75.42 16.55 75.31 16.22 75.14 15.91C74.95 15.58 74.7 15.32 74.41 15.11C74.27 14.97 74.13 14.8 74.11 14.6C74.15 14.47 74.19 14.34 74.21 14.21C75.01 13.94 75.65 13.25 75.85 12.42C75.91 12.18 75.54 12.09 75.49 12.32C75.34 12.98 74.86 13.53 74.25 13.8C74.25 13.66 74.24 13.52 74.21 13.38C74.1 12.69 73.74 12.07 73.38 11.48C73.25 11.27 72.93 11.46 73.05 11.67C73.38 12.22 73.71 12.78 73.83 13.42C73.9 13.8 73.88 14.19 73.74 14.54C73.59 14.63 73.39 14.65 73.27 14.65C72.84 14.59 72.4 14.65 71.98 14.82C71.9 14.84 71.77 14.85 71.7 14.82C71.52 14.47 71.44 14.07 71.48 13.68C71.52 13.18 71.76 12.71 72.11 12.37C72.28 12.2 72.02 11.94 71.84 12.11C71.49 12.45 71.26 12.88 71.15 13.35C70.74 13.08 70.41 12.69 70.24 12.23C70.2 12.14 70.12 12.07 70.01 12.1C69.92 12.12 69.84 12.23 69.88 12.33V12.29Z" fill="#ECECEC"/>
<path d="M72.4199 16.44C72.8499 16.19 73.3899 16.34 73.6399 16.77C73.8899 17.2 73.7399 17.74 73.3099 17.99C72.8799 18.24 72.3399 18.09 72.0899 17.66C71.8399 17.23 71.9899 16.69 72.4199 16.44Z" fill="#E1E1E1"/>
<path d="M75.5099 29.2C75.5099 29.2 75.4699 29.19 75.3999 29.15C75.3199 29.1 75.2199 29.05 75.1099 28.98C74.8399 28.82 74.4799 28.6 74.0499 28.33C73.1399 27.77 71.9199 27 70.5699 26.16C69.2199 25.31 68.0099 24.54 67.0999 23.97C66.6699 23.7 66.3199 23.47 66.0499 23.3C65.9399 23.23 65.8399 23.17 65.7699 23.12C65.7099 23.08 65.6699 23.05 65.6699 23.05C65.6699 23.05 65.7099 23.06 65.7799 23.1C65.8499 23.13 65.9499 23.19 66.0799 23.26C66.3299 23.41 66.6999 23.62 67.1499 23.9C68.0499 24.44 69.2799 25.21 70.6399 26.06C71.9999 26.91 73.2199 27.69 74.0999 28.26C74.5299 28.54 74.8799 28.77 75.1399 28.94C75.2499 29.02 75.3399 29.08 75.4199 29.13C75.4799 29.17 75.5199 29.2 75.5099 29.2Z" fill="#1A2E35"/>
<path d="M105.95 28.98C105.95 28.98 103.47 29.12 100.42 29.22C97.3599 29.32 94.8799 29.37 94.8799 29.33C94.8799 29.3 97.3599 29.19 100.42 29.09C103.48 28.99 105.96 28.94 105.96 28.98H105.95Z" fill="#1A2E35"/>
<path d="M94.6502 40.2C94.6502 40.2 94.6002 40.24 94.4902 40.3C94.3802 40.37 94.2102 40.46 94.0002 40.59C93.5602 40.85 92.9202 41.22 92.1002 41.7C90.4402 42.66 88.0502 44.05 85.1002 45.77H85.0802H85.0602C82.3402 44.2 79.0802 42.32 75.4802 40.25L75.4502 40.23V40.2C75.4502 36.78 75.4502 33.04 75.4502 29.15V29.11L75.4802 29.09C78.8402 27.15 82.0702 25.29 85.0502 23.57L85.0802 23.55L85.1102 23.57C88.7002 25.65 91.9402 27.52 94.6802 29.11H94.7002V29.15C94.7002 32.56 94.6802 35.33 94.6802 37.24C94.6802 38.19 94.6802 38.93 94.6702 39.44C94.6702 39.69 94.6702 39.88 94.6702 40.01C94.6702 40.14 94.6702 40.2 94.6702 40.2C94.6702 40.2 94.6702 40.13 94.6702 40C94.6702 39.87 94.6702 39.67 94.6702 39.42C94.6702 38.91 94.6702 38.17 94.6602 37.22C94.6602 35.31 94.6502 32.55 94.6402 29.15L94.6602 29.19C91.9202 27.61 88.6802 25.75 85.0802 23.67H85.1402C82.1602 25.39 78.9302 27.26 75.5702 29.2L75.6002 29.15C75.6002 33.05 75.6002 36.79 75.6002 40.2L75.5702 40.15C79.1602 42.23 82.4202 44.11 85.1402 45.69H85.0902C88.0402 44 90.4302 42.63 92.0902 41.67C92.9202 41.2 93.5602 40.83 94.0102 40.58C94.2302 40.46 94.4002 40.36 94.5102 40.3C94.6202 40.24 94.6902 40.21 94.6902 40.21L94.6502 40.2Z" fill="#1A2E35"/>
<path d="M66 24.3C66.5413 24.3 66.98 23.8612 66.98 23.32C66.98 22.7788 66.5413 22.34 66 22.34C65.4588 22.34 65.02 22.7788 65.02 23.32C65.02 23.8612 65.4588 24.3 66 24.3Z" fill="#644DF6"/>
<path d="M77.02 29.2C77.02 30.03 76.34 30.71 75.51 30.71C74.68 30.71 74 30.03 74 29.2C74 28.37 74.68 27.69 75.51 27.69C76.34 27.69 77.02 28.37 77.02 29.2Z" fill="#644DF6"/>
<path d="M96.0303 29.2C96.0303 30.03 95.3502 30.71 94.5202 30.71C93.6902 30.71 93.0103 30.03 93.0103 29.2C93.0103 28.37 93.6902 27.69 94.5202 27.69C95.3502 27.69 96.0303 28.37 96.0303 29.2Z" fill="#644DF6"/>
<path d="M96.0303 40.58C96.0303 41.41 95.3502 42.09 94.5202 42.09C93.6902 42.09 93.0103 41.41 93.0103 40.58C93.0103 39.75 93.6902 39.07 94.5202 39.07C95.3502 39.07 96.0303 39.75 96.0303 40.58Z" fill="#644DF6"/>
<path d="M105.95 30C106.574 30 107.08 29.4941 107.08 28.87C107.08 28.2459 106.574 27.74 105.95 27.74C105.326 27.74 104.82 28.2459 104.82 28.87C104.82 29.4941 105.326 30 105.95 30Z" fill="#644DF6"/>
<path d="M85.0598 47.32C85.8937 47.32 86.5698 46.644 86.5698 45.81C86.5698 44.9761 85.8937 44.3 85.0598 44.3C84.2258 44.3 83.5498 44.9761 83.5498 45.81C83.5498 46.644 84.2258 47.32 85.0598 47.32Z" fill="#375A64"/>
<path d="M77.2202 40.05C77.2202 40.88 76.5402 41.56 75.7102 41.56C74.8802 41.56 74.2002 40.88 74.2002 40.05C74.2002 39.22 74.8802 38.54 75.7102 38.54C76.5402 38.54 77.2202 39.22 77.2202 40.05Z" fill="#375A64"/>
<path d="M85.08 12.65C85.08 12.65 85.14 15.04 85.14 17.99C85.14 20.94 85.11 23.33 85.08 23.33C85.05 23.33 85.02 20.94 85.02 17.99C85.02 15.04 85.05 12.65 85.08 12.65Z" fill="#1A2E35"/>
<path d="M86.5898 23.62C86.5898 24.45 85.9098 25.13 85.0798 25.13C84.2498 25.13 83.5698 24.45 83.5698 23.62C83.5698 22.79 84.2498 22.11 85.0798 22.11C85.9098 22.11 86.5898 22.79 86.5898 23.62Z" fill="#644DF6"/>
<path d="M86.3101 12.23C86.3101 12.91 85.7601 13.46 85.0801 13.46C84.4001 13.46 83.8501 12.91 83.8501 12.23C83.8501 11.55 84.4001 11 85.0801 11C85.7601 11 86.3101 11.55 86.3101 12.23Z" fill="#644DF6"/>
<path d="M18.8503 39.8C18.8503 39.8 17.6203 39.04 16.1603 38.04C14.6903 37.04 13.5203 36.2 13.5403 36.17C13.5603 36.14 14.7703 36.93 16.2303 37.93C17.7003 38.93 18.8703 39.77 18.8503 39.8Z" fill="#1A2E35"/>
<path d="M47.6303 56.41C47.6303 56.41 45.4103 55.3 42.7203 53.85C40.0203 52.41 37.8503 51.21 37.8703 51.18C37.8903 51.15 40.0903 52.29 42.7803 53.74C45.4803 55.18 47.6503 56.38 47.6303 56.41Z" fill="#1A2E35"/>
<path d="M38.0003 50.8C38.0003 50.8 37.9503 50.84 37.8403 50.9C37.7303 50.97 37.5603 51.06 37.3503 51.19C36.9103 51.45 36.2703 51.82 35.4503 52.3C33.7903 53.26 31.4003 54.65 28.4503 56.37H28.4303H28.4103C25.6903 54.8 22.4303 52.92 18.8303 50.85L18.8003 50.83V50.8C18.8003 47.38 18.8003 43.64 18.8003 39.75V39.71L18.8303 39.69C22.1903 37.75 25.4203 35.89 28.4003 34.17L28.4303 34.15L28.4603 34.17C32.0503 36.25 35.2903 38.12 38.0303 39.71H38.0503V39.75C38.0503 43.16 38.0303 45.93 38.0303 47.84C38.0303 48.79 38.0303 49.53 38.0203 50.04C38.0203 50.29 38.0203 50.48 38.0203 50.61C38.0203 50.74 38.0203 50.8 38.0203 50.8C38.0203 50.8 38.0203 50.73 38.0203 50.6C38.0203 50.47 38.0203 50.27 38.0203 50.02C38.0203 49.51 38.0203 48.77 38.0103 47.82C38.0103 45.91 38.0003 43.15 37.9903 39.75L38.0103 39.79C35.2703 38.21 32.0303 36.35 28.4303 34.27H28.4903C25.5103 35.99 22.2803 37.86 18.9203 39.8L18.9503 39.75C18.9503 43.65 18.9503 47.39 18.9503 50.8L18.9203 50.75C22.5103 52.83 25.7703 54.71 28.4903 56.29H28.4403C31.3903 54.6 33.7803 53.23 35.4403 52.27C36.2703 51.8 36.9103 51.43 37.3603 51.18C37.5803 51.06 37.7503 50.96 37.8603 50.9C37.9703 50.84 38.0403 50.81 38.0403 50.81L38.0003 50.8Z" fill="#1A2E35"/>
<path d="M13.5401 37.15C14.0813 37.15 14.5201 36.7112 14.5201 36.17C14.5201 35.6288 14.0813 35.19 13.5401 35.19C12.9988 35.19 12.5601 35.6288 12.5601 36.17C12.5601 36.7112 12.9988 37.15 13.5401 37.15Z" fill="#644DF6"/>
<path d="M20.3598 39.8C20.3598 40.63 19.6798 41.31 18.8498 41.31C18.0198 41.31 17.3398 40.63 17.3398 39.8C17.3398 38.97 18.0198 38.29 18.8498 38.29C19.6798 38.29 20.3598 38.97 20.3598 39.8Z" fill="#644DF6"/>
<path d="M39.3701 39.8C39.3701 40.63 38.6901 41.31 37.8601 41.31C37.0301 41.31 36.3501 40.63 36.3501 39.8C36.3501 38.97 37.0301 38.29 37.8601 38.29C38.6901 38.29 39.3701 38.97 39.3701 39.8Z" fill="#375A64"/>
<path d="M37.8601 52.69C38.694 52.69 39.3701 52.014 39.3701 51.18C39.3701 50.3461 38.694 49.67 37.8601 49.67C37.0261 49.67 36.3501 50.3461 36.3501 51.18C36.3501 52.014 37.0261 52.69 37.8601 52.69Z" fill="#375A64"/>
<path d="M48.76 56.41C48.76 57.03 48.26 57.54 47.63 57.54C47 57.54 46.5 57.04 46.5 56.41C46.5 55.78 47 55.28 47.63 55.28C48.26 55.28 48.76 55.78 48.76 56.41Z" fill="#375A64"/>
<path d="M29.9199 56.41C29.9199 57.24 29.2399 57.92 28.4099 57.92C27.5799 57.92 26.8999 57.24 26.8999 56.41C26.8999 55.58 27.5799 54.9 28.4099 54.9C29.2399 54.9 29.9199 55.58 29.9199 56.41Z" fill="#375A64"/>
<path d="M20.5703 50.64C20.5703 51.47 19.8903 52.15 19.0603 52.15C18.2303 52.15 17.5503 51.47 17.5503 50.64C17.5503 49.81 18.2303 49.13 19.0603 49.13C19.8903 49.13 20.5703 49.81 20.5703 50.64Z" fill="#644DF6"/>
<path d="M28.4199 23.24C28.4199 23.24 28.4799 25.63 28.4799 28.58C28.4799 31.53 28.4499 33.92 28.4199 33.92C28.3899 33.92 28.3599 31.53 28.3599 28.58C28.3599 25.63 28.3899 23.24 28.4199 23.24Z" fill="#1A2E35"/>
<path d="M29.9302 34.22C29.9302 35.05 29.2502 35.73 28.4202 35.73C27.5902 35.73 26.9102 35.05 26.9102 34.22C26.9102 33.39 27.5902 32.71 28.4202 32.71C29.2502 32.71 29.9302 33.39 29.9302 34.22Z" fill="#644DF6"/>
<path d="M28.4199 24.05C29.0993 24.05 29.6499 23.4993 29.6499 22.82C29.6499 22.1407 29.0993 21.59 28.4199 21.59C27.7406 21.59 27.1899 22.1407 27.1899 22.82C27.1899 23.4993 27.7406 24.05 28.4199 24.05Z" fill="#644DF6"/>
<path d="M58.7203 97.61C58.7203 97.61 58.7603 97.62 58.8303 97.66C58.9103 97.71 59.0103 97.76 59.1203 97.83C59.3903 97.99 59.7503 98.21 60.1803 98.48C61.0903 99.04 62.3103 99.81 63.6603 100.65C65.0103 101.5 66.2203 102.27 67.1303 102.84C67.5603 103.11 67.9103 103.34 68.1803 103.51C68.2903 103.58 68.3903 103.64 68.4603 103.69C68.5203 103.73 68.5603 103.76 68.5603 103.76C68.5603 103.76 68.5203 103.75 68.4503 103.71C68.3803 103.68 68.2803 103.62 68.1503 103.55C67.9003 103.4 67.5303 103.19 67.0803 102.91C66.1803 102.37 64.9503 101.6 63.5903 100.75C62.2303 99.9 61.0103 99.12 60.1303 98.55C59.7003 98.27 59.3503 98.04 59.0903 97.87C58.9803 97.79 58.8903 97.73 58.8103 97.68C58.7503 97.64 58.7103 97.61 58.7203 97.61Z" fill="#1A2E35"/>
<path d="M29.9401 81C29.9401 81 32.1601 82.11 34.8501 83.56C37.5501 85 39.7201 86.2 39.7001 86.23C39.6801 86.26 37.4801 85.12 34.7901 83.67C32.0901 82.23 29.9201 81.03 29.9401 81Z" fill="#1A2E35"/>
<path d="M39.57 86.61C39.57 86.61 39.62 86.57 39.73 86.51C39.84 86.44 40.01 86.35 40.22 86.22C40.66 85.96 41.3 85.59 42.12 85.11C43.78 84.15 46.17 82.76 49.12 81.04H49.14H49.16C51.88 82.61 55.14 84.49 58.74 86.56L58.77 86.58V86.61C58.77 90.03 58.77 93.77 58.77 97.66V97.7L58.74 97.72C55.38 99.66 52.15 101.52 49.17 103.24L49.14 103.26L49.11 103.24C45.52 101.16 42.28 99.29 39.54 97.7H39.52V97.66C39.52 94.25 39.54 91.48 39.54 89.57C39.54 88.62 39.54 87.88 39.55 87.37C39.55 87.12 39.55 86.93 39.55 86.8C39.55 86.67 39.55 86.61 39.55 86.61C39.55 86.61 39.55 86.68 39.55 86.81C39.55 86.94 39.55 87.14 39.55 87.39C39.55 87.9 39.55 88.64 39.56 89.59C39.56 91.5 39.57 94.26 39.58 97.66L39.56 97.62C42.3 99.2 45.54 101.06 49.14 103.14H49.08C52.06 101.42 55.29 99.55 58.65 97.61L58.62 97.66C58.62 93.76 58.62 90.02 58.62 86.61L58.65 86.66C55.06 84.58 51.8 82.7 49.08 81.12H49.13C46.18 82.81 43.79 84.18 42.13 85.14C41.3 85.61 40.66 85.98 40.21 86.23C39.99 86.35 39.82 86.45 39.71 86.51C39.6 86.57 39.53 86.6 39.53 86.6L39.57 86.61Z" fill="#1A2E35"/>
<path d="M67.2402 103.49C67.2402 102.95 67.6802 102.51 68.2202 102.51C68.7602 102.51 69.2002 102.95 69.2002 103.49C69.2002 104.03 68.7602 104.47 68.2202 104.47C67.6802 104.47 67.2402 104.03 67.2402 103.49Z" fill="#644DF6"/>
<path d="M57.21 97.61C57.21 96.78 57.89 96.1 58.72 96.1C59.55 96.1 60.23 96.78 60.23 97.61C60.23 98.44 59.55 99.12 58.72 99.12C57.89 99.12 57.21 98.44 57.21 97.61Z" fill="#644DF6"/>
<path d="M38.2002 97.61C38.2002 96.78 38.8802 96.1 39.7102 96.1C40.5402 96.1 41.2202 96.78 41.2202 97.61C41.2202 98.44 40.5402 99.12 39.7102 99.12C38.8802 99.12 38.2002 98.44 38.2002 97.61Z" fill="#644DF6"/>
<path d="M39.7102 87.74C40.5441 87.74 41.2202 87.064 41.2202 86.23C41.2202 85.3961 40.5441 84.72 39.7102 84.72C38.8762 84.72 38.2002 85.3961 38.2002 86.23C38.2002 87.064 38.8762 87.74 39.7102 87.74Z" fill="#644DF6"/>
<path d="M29.9401 82.13C30.5641 82.13 31.0701 81.6241 31.0701 81C31.0701 80.3759 30.5641 79.87 29.9401 79.87C29.316 79.87 28.8101 80.3759 28.8101 81C28.8101 81.6241 29.316 82.13 29.9401 82.13Z" fill="#644DF6"/>
<path d="M47.6499 81C47.6499 80.17 48.3299 79.49 49.1599 79.49C49.9899 79.49 50.6699 80.17 50.6699 81C50.6699 81.83 49.9899 82.51 49.1599 82.51C48.3299 82.51 47.6499 81.83 47.6499 81Z" fill="#644DF6"/>
<path d="M57 86.77C57 85.94 57.68 85.26 58.51 85.26C59.34 85.26 60.02 85.94 60.02 86.77C60.02 87.6 59.34 88.28 58.51 88.28C57.68 88.28 57 87.6 57 86.77Z" fill="#644DF6"/>
<path d="M47.6401 103.19C47.6401 102.36 48.3201 101.68 49.1501 101.68C49.9801 101.68 50.6601 102.36 50.6601 103.19C50.6601 104.02 49.9801 104.7 49.1501 104.7C48.3201 104.7 47.6401 104.02 47.6401 103.19Z" fill="#644DF6"/>
<path d="M55.73 75.64C55.39 75.99 58.37 77.92 59.62 79.53C60.87 81.14 65.38 89.49 67.81 88.88C70.24 88.27 68.43 81.82 68.43 81.82C68.43 81.82 69.51 74.76 69.07 74.81C68.63 74.87 56.77 74.59 55.73 75.64Z" fill="#644DF6"/>
<g opacity="0.3">
<path d="M55.73 75.64C55.39 75.99 58.37 77.92 59.62 79.53C60.87 81.14 65.38 89.49 67.81 88.88C70.24 88.27 68.43 81.82 68.43 81.82C68.43 81.82 69.51 74.76 69.07 74.81C68.63 74.87 56.77 74.59 55.73 75.64Z" fill="black"/>
</g>
<path d="M24.5199 60.6C24.5199 60.6 24.6999 66.71 31.9499 68.03L38.3199 68.65C38.3199 68.65 38.4999 77.41 48.8499 77.59L56.8999 76.62C56.8999 76.62 69.2899 76.27 77.2599 76.97C79.5299 77.17 82.8399 77.49 86.1099 76.34C89.3799 75.19 100.53 64.66 89.2899 51.57C89.2899 51.57 90.2599 45.64 84.2499 44.22C84.2499 44.22 81.5899 36.08 72.7399 36.17C72.7399 36.17 69.8199 32.54 65.3899 34.05C65.3899 34.05 56.8899 30.22 50.4299 33.68C50.4299 33.68 42.7299 32.01 36.9799 38.29C36.9799 38.29 30.7799 40.24 29.1899 44.93C29.1899 44.93 21.5799 49.84 23.8799 55.53C23.8799 55.53 22.5499 56.53 22.8199 58.47C23.0899 60.42 24.4999 60.59 24.4999 60.59L24.5199 60.6Z" fill="#644DF6"/>
<path d="M70.3699 54.08C70.3699 54.08 69.9999 54.14 69.4999 54.57C69.2599 54.79 68.9999 55.11 68.8299 55.55C68.6599 55.99 68.5799 56.56 68.7899 57.13L68.8099 57.19L68.7399 57.17C67.8899 56.94 66.8899 56.72 65.7499 56.59C64.6099 56.46 63.3499 56.43 61.9899 56.54C59.2899 56.75 56.2099 57.63 53.3899 59.4L53.3599 59.42H53.3299C52.7399 59.22 52.0899 59.08 51.4199 58.97C49.9399 58.74 48.4599 58.67 47.0499 58.82C46.3499 58.89 45.6699 59.04 45.0299 59.29C44.3899 59.53 43.7699 59.79 43.2199 60.12C42.6599 60.45 42.1699 60.86 41.7099 61.27C41.2599 61.69 40.7999 62.09 40.4299 62.53C39.6799 63.41 39.1199 64.35 38.7399 65.25C38.5499 65.7 38.4099 66.15 38.3199 66.59C38.2299 67.02 38.1899 67.44 38.1999 67.83C38.1999 68.61 38.3299 69.28 38.4599 69.81C38.5899 70.35 38.7199 70.75 38.8199 71.03C38.8699 71.16 38.8999 71.27 38.9299 71.34C38.9499 71.41 38.9599 71.45 38.9599 71.45C38.9599 71.45 38.6899 70.9 38.4099 69.82C38.2699 69.28 38.1399 68.61 38.1299 67.82C38.1299 67.43 38.1599 67 38.2399 66.56C38.3299 66.12 38.4699 65.67 38.6499 65.21C39.0299 64.29 39.5799 63.34 40.3399 62.45C40.7199 62 41.1699 61.6 41.6199 61.18C42.0799 60.76 42.5699 60.35 43.1399 60.01C43.7099 59.67 44.3299 59.41 44.9699 59.17C45.6099 58.92 46.3099 58.77 47.0199 58.69C48.4399 58.54 49.9299 58.61 51.4199 58.84C52.0899 58.95 52.7399 59.09 53.3399 59.29H53.2899C56.1299 57.51 59.2299 56.64 61.9499 56.43C63.3099 56.32 64.5899 56.36 65.7299 56.49C66.8699 56.63 67.8699 56.86 68.7299 57.1L68.6899 57.15C68.4799 56.55 68.5699 55.97 68.7499 55.52C68.9299 55.07 69.1999 54.75 69.4499 54.53C69.6999 54.31 69.9399 54.2 70.0899 54.14C70.2499 54.09 70.3399 54.07 70.3399 54.07L70.3699 54.08Z" fill="#1A2E35"/>
<path d="M81.42 53.26C81.42 53.26 81.42 53.3 81.39 53.37C81.37 53.45 81.33 53.56 81.29 53.7C81.2 53.99 81.05 54.4 80.84 54.93C80.61 55.45 80.32 56.09 79.91 56.79C79.72 57.15 79.48 57.51 79.23 57.9C78.96 58.28 78.69 58.67 78.36 59.07C77.09 60.66 75.27 62.35 72.87 63.62C71.67 64.24 70.34 64.75 68.91 65.1C67.48 65.44 65.95 65.62 64.39 65.59C63.53 65.59 62.69 65.49 61.87 65.36C61.05 65.23 60.26 65.03 59.5 64.8H59.56C58.23 65.8 56.68 66.35 55.21 66.53C53.73 66.71 52.31 66.51 51.11 66.07H51.16C50.62 66.47 50.05 66.77 49.48 66.98C48.91 67.19 48.35 67.32 47.81 67.36C47.68 67.38 47.55 67.39 47.42 67.39C47.29 67.39 47.16 67.4 47.04 67.4C46.79 67.39 46.55 67.4 46.32 67.36C46.21 67.35 46.09 67.33 45.98 67.32C45.87 67.3 45.77 67.28 45.66 67.26C45.45 67.23 45.26 67.17 45.08 67.12C44.35 66.9 43.82 66.62 43.48 66.41C43.31 66.3 43.19 66.21 43.1 66.15C43.02 66.09 42.98 66.05 42.98 66.05C42.98 66.05 43.03 66.08 43.11 66.13C43.2 66.18 43.32 66.28 43.49 66.38C43.84 66.58 44.36 66.86 45.09 67.06C45.27 67.11 45.46 67.17 45.67 67.2C45.77 67.22 45.88 67.24 45.99 67.26C46.1 67.27 46.21 67.28 46.32 67.3C46.55 67.33 46.79 67.33 47.03 67.34C47.15 67.34 47.28 67.33 47.41 67.33C47.54 67.33 47.67 67.32 47.8 67.3C48.33 67.25 48.89 67.12 49.45 66.91C50.01 66.7 50.58 66.41 51.1 66L51.12 65.98H51.15C52.33 66.42 53.73 66.61 55.2 66.43C56.66 66.25 58.18 65.7 59.49 64.71L59.52 64.69H59.55C60.31 64.92 61.09 65.13 61.91 65.25C62.72 65.37 63.56 65.47 64.41 65.47C65.96 65.5 67.47 65.32 68.89 64.99C70.31 64.64 71.64 64.14 72.83 63.52C75.21 62.27 77.03 60.59 78.3 59.02C78.62 58.63 78.9 58.23 79.17 57.86C79.42 57.48 79.66 57.12 79.86 56.76C80.27 56.07 80.57 55.43 80.8 54.91C81.02 54.38 81.18 53.97 81.28 53.69C81.33 53.55 81.37 53.45 81.4 53.37C81.43 53.3 81.44 53.26 81.44 53.26H81.42Z" fill="#1A2E35"/>
<path d="M44.31 72.36C44.31 72.36 44.29 72.28 44.29 72.12C44.29 71.97 44.29 71.75 44.29 71.48C44.31 70.94 44.37 70.17 44.69 69.39C45.01 68.61 45.58 68.04 46.07 67.79C46.31 67.66 46.53 67.59 46.68 67.57C46.83 67.54 46.92 67.54 46.92 67.55C46.92 67.58 46.58 67.6 46.12 67.87C45.66 68.13 45.12 68.69 44.81 69.44C44.5 70.2 44.43 70.95 44.39 71.49C44.35 72.03 44.33 72.37 44.31 72.36Z" fill="#1A2E35"/>
<path d="M79.2297 70.73C79.2297 70.73 79.1997 70.73 79.1597 70.72C79.0997 70.71 79.0297 70.69 78.9397 70.67C78.7397 70.62 78.4697 70.55 78.1097 70.46C77.9297 70.41 77.7297 70.36 77.5097 70.31C77.2897 70.26 77.0497 70.21 76.7897 70.15C76.5297 70.09 76.2597 70.03 75.9697 69.97C75.6797 69.92 75.3697 69.86 75.0397 69.8C73.7397 69.55 72.1697 69.35 70.4197 69.22C68.6697 69.08 66.7397 69.06 64.7297 69.19C62.1297 69.34 59.7097 69.72 57.6597 70.2C55.5997 70.67 53.8997 71.24 52.6897 71.66L52.7097 71.63C52.6697 72 52.5697 72.32 52.4197 72.57C52.2697 72.82 52.0897 73 51.9397 73.12C51.6297 73.37 51.4297 73.45 51.4297 73.45C51.4297 73.45 51.4697 73.42 51.5597 73.36C51.6397 73.3 51.7697 73.22 51.9197 73.09C52.0697 72.96 52.2397 72.79 52.3797 72.54C52.5197 72.29 52.6097 71.98 52.6497 71.61V71.59H52.6697C53.8797 71.15 55.5697 70.57 57.6397 70.08C59.6997 69.59 62.1297 69.2 64.7297 69.05C66.7497 68.93 68.6897 68.95 70.4397 69.09C72.1897 69.23 73.7597 69.44 75.0597 69.7C75.3897 69.76 75.6997 69.82 75.9897 69.88C76.2797 69.95 76.5597 70.01 76.8097 70.07C77.0697 70.13 77.2997 70.19 77.5297 70.24C77.7497 70.29 77.9497 70.36 78.1297 70.41C78.4797 70.51 78.7597 70.59 78.9497 70.65C79.0397 70.68 79.1097 70.7 79.1597 70.71C79.2097 70.73 79.2297 70.73 79.2297 70.74V70.73Z" fill="#1A2E35"/>
<path d="M85.7601 67.2C85.7601 67.2 85.7801 67.18 85.8201 67.15C85.8701 67.12 85.9301 67.08 86.0201 67.02C86.1901 66.91 86.4501 66.74 86.7601 66.5C87.3801 66.03 88.2601 65.29 89.0501 64.14C89.4401 63.57 89.8001 62.89 90.0601 62.11C90.3101 61.33 90.4501 60.46 90.4101 59.54C90.3601 58.63 90.1201 57.66 89.6101 56.81C89.1001 55.96 88.3401 55.2 87.4001 54.72C86.8201 54.41 86.1801 54.25 85.5801 54.2H85.4901L85.5301 54.11C85.9501 53.27 86.2101 52.35 86.1501 51.47C86.1101 50.59 85.7701 49.78 85.3601 49.09C84.9401 48.4 84.4001 47.84 83.8001 47.45C83.2001 47.06 82.5701 46.83 81.9801 46.72C81.3901 46.6 80.8401 46.58 80.3601 46.59C79.8801 46.6 79.4701 46.64 79.1401 46.67C78.8101 46.7 78.5501 46.72 78.3701 46.74C78.2901 46.74 78.2201 46.75 78.1701 46.75C78.1201 46.75 78.1001 46.75 78.1001 46.75C78.1001 46.75 78.1201 46.75 78.1701 46.74C78.2201 46.74 78.2901 46.73 78.3701 46.71C78.5501 46.69 78.8101 46.66 79.1401 46.62C79.4701 46.58 79.8801 46.53 80.3701 46.52C80.8501 46.5 81.4101 46.52 82.0101 46.63C82.6101 46.74 83.2601 46.97 83.8701 47.36C84.4801 47.75 85.0401 48.32 85.4701 49.02C85.9001 49.72 86.2401 50.54 86.2901 51.45C86.3501 52.36 86.0901 53.3 85.6601 54.15L85.6101 54.06C86.2301 54.11 86.8901 54.28 87.4801 54.59C88.4401 55.09 89.2201 55.85 89.7401 56.73C90.2601 57.61 90.5001 58.59 90.5501 59.52C90.5901 60.45 90.4401 61.34 90.1901 62.13C89.9301 62.92 89.5601 63.6 89.1601 64.18C88.3501 65.34 87.4601 66.07 86.8301 66.53C86.1901 66.99 85.8001 67.18 85.8001 67.18L85.7601 67.2Z" fill="#1A2E35"/>
<path d="M63.6499 56.19C63.6499 56.19 63.5799 56.19 63.4599 56.17C63.3999 56.16 63.3299 56.14 63.2399 56.11C63.1599 56.08 63.0599 56.05 62.9599 56C62.7599 55.91 62.5299 55.77 62.2999 55.59C62.0699 55.4 61.8499 55.17 61.6499 54.89C61.4599 54.61 61.3199 54.32 61.2199 54.04C61.1299 53.76 61.0799 53.5 61.0699 53.28C61.0599 53.17 61.0699 53.07 61.0699 52.98C61.0699 52.89 61.0799 52.82 61.0899 52.76C61.1099 52.64 61.1199 52.57 61.1299 52.57C61.1599 52.57 61.1099 52.84 61.1599 53.27C61.1799 53.48 61.2399 53.73 61.3299 54C61.4299 54.27 61.5699 54.55 61.7499 54.82C61.9399 55.09 62.1499 55.31 62.3699 55.5C62.5899 55.68 62.7999 55.82 62.9899 55.92C63.3699 56.12 63.6399 56.17 63.6299 56.19H63.6499Z" fill="#1A2E35"/>
<path d="M54.6801 55.6C54.6801 55.6 54.7801 55.82 54.8201 56.19C54.8601 56.56 54.8201 57.1 54.6401 57.64C54.4501 58.19 54.1401 58.62 53.8801 58.89C53.6201 59.16 53.4101 59.28 53.4101 59.27C53.4001 59.25 53.5801 59.11 53.8201 58.83C54.0601 58.55 54.3401 58.12 54.5301 57.6C54.7101 57.07 54.7601 56.56 54.7401 56.19C54.7301 55.82 54.6701 55.6 54.6901 55.59L54.6801 55.6Z" fill="#1A2E35"/>
<path d="M46.9199 58.76C46.9199 58.76 46.8899 58.76 46.8199 58.77C46.7599 58.77 46.6599 58.77 46.5399 58.76C46.2999 58.72 45.9499 58.58 45.6299 58.27C45.3199 57.96 45.0299 57.49 44.9199 56.92C44.7999 56.35 44.8399 55.7 44.8999 55.05C44.9699 54.39 45.0099 53.77 44.9699 53.2C44.9399 52.63 44.8599 52.12 44.7599 51.7C44.6699 51.28 44.5599 50.94 44.4899 50.72C44.4099 50.49 44.3699 50.36 44.3799 50.36C44.3799 50.36 44.3999 50.39 44.4299 50.45C44.4599 50.51 44.4999 50.59 44.5399 50.71C44.6299 50.94 44.7499 51.27 44.8499 51.69C44.9599 52.11 45.0499 52.63 45.0899 53.2C45.1299 53.78 45.0899 54.41 45.0299 55.07C44.9699 55.73 44.9299 56.36 45.0299 56.91C45.1299 57.46 45.3999 57.92 45.6899 58.22C45.9899 58.53 46.3099 58.67 46.5399 58.73C46.7699 58.78 46.9099 58.76 46.9099 58.78L46.9199 58.76Z" fill="#1A2E35"/>
<path d="M41.2097 61.67C41.2097 61.67 41.4797 61.36 41.5797 60.74C41.6897 60.14 41.5397 59.23 40.9597 58.47C40.3697 57.72 39.6097 57.26 39.0697 56.95C38.8097 56.81 38.5997 56.68 38.4197 56.58C38.2697 56.49 38.1797 56.44 38.1897 56.43C38.1897 56.43 38.2797 56.46 38.4497 56.53C38.6097 56.6 38.8397 56.71 39.1197 56.86C39.6697 57.16 40.4497 57.61 41.0597 58.39C41.6597 59.18 41.8097 60.13 41.6697 60.75C41.5997 61.07 41.4897 61.3 41.3897 61.45C41.2897 61.6 41.2197 61.67 41.2097 61.66V61.67Z" fill="#1A2E35"/>
<path d="M38.3498 66.2C38.3498 66.2 38.2898 66.2 38.1698 66.2C38.0398 66.2 37.8598 66.2 37.6398 66.2C37.4098 66.18 37.1298 66.16 36.8098 66.13C36.4898 66.07 36.1198 66.02 35.7298 65.91C34.9398 65.7 34.0098 65.35 33.0798 64.79C32.1498 64.23 31.2098 63.46 30.4198 62.49C29.6298 61.51 29.0798 60.43 28.7598 59.39C28.5998 58.87 28.5198 58.35 28.5098 57.87C28.5098 57.63 28.5298 57.39 28.5698 57.17C28.6098 56.95 28.6798 56.74 28.7498 56.55C29.0398 55.78 29.3998 55.21 29.6898 54.86C29.8298 54.68 29.9698 54.56 30.0698 54.49C30.1698 54.42 30.2198 54.39 30.2298 54.39C30.2298 54.39 30.1798 54.43 30.0898 54.51C29.9998 54.59 29.8698 54.71 29.7398 54.89C29.4598 55.25 29.1198 55.82 28.8498 56.58C28.7898 56.77 28.7198 56.97 28.6798 57.19C28.6398 57.4 28.6298 57.63 28.6298 57.87C28.6298 58.34 28.7298 58.85 28.8798 59.36C29.1998 60.38 29.7498 61.45 30.5298 62.41C31.3098 63.38 32.2398 64.13 33.1498 64.69C34.0698 65.25 34.9798 65.61 35.7598 65.82C36.1498 65.94 36.5098 65.99 36.8298 66.06C37.1498 66.1 37.4298 66.13 37.6498 66.16C37.8698 66.16 38.0398 66.18 38.1698 66.18C38.2898 66.18 38.3498 66.19 38.3498 66.2Z" fill="#1A2E35"/>
<path d="M32.3 48.85C32.3 48.85 32.25 48.85 32.17 48.85C32.07 48.84 31.95 48.82 31.8 48.81C31.48 48.77 31.02 48.73 30.44 48.73C29.87 48.73 29.18 48.8 28.47 49.07C27.77 49.33 27.04 49.81 26.59 50.55C26.14 51.29 26.07 52.19 26.34 52.88C26.62 53.58 27.21 54.01 27.72 54.24C28.24 54.48 28.7 54.56 29.02 54.61C29.34 54.66 29.52 54.67 29.52 54.68C29.52 54.68 29.48 54.68 29.39 54.68C29.3 54.68 29.18 54.68 29.02 54.66C28.7 54.62 28.23 54.55 27.69 54.32C27.42 54.2 27.14 54.04 26.88 53.81C26.62 53.58 26.39 53.28 26.24 52.92C25.94 52.19 26.02 51.25 26.49 50.48C26.96 49.7 27.72 49.22 28.44 48.95C29.17 48.68 29.87 48.63 30.45 48.63C31.03 48.63 31.5 48.7 31.82 48.75C31.98 48.78 32.1 48.8 32.19 48.82C32.27 48.84 32.32 48.85 32.32 48.85H32.3Z" fill="#1A2E35"/>
<path d="M52.81 39.81C52.81 39.81 52.79 39.8 52.75 39.77C52.71 39.74 52.65 39.69 52.59 39.64C52.45 39.53 52.23 39.36 51.95 39.15C51.39 38.74 50.52 38.18 49.31 37.87C48.71 37.71 48.03 37.63 47.29 37.62C46.56 37.61 45.77 37.68 44.98 37.91C44.19 38.14 43.39 38.49 42.65 38.99C41.91 39.5 41.26 40.17 40.72 40.95C40.6 41.12 40.49 41.3 40.4 41.46L40.38 41.49H40.34C38.51 41.45 36.8 42.12 35.57 43.09C34.95 43.57 34.45 44.14 34.06 44.72C33.67 45.3 33.4 45.9 33.21 46.46C32.83 47.59 32.78 48.56 32.81 49.22C32.81 49.39 32.83 49.53 32.84 49.66C32.84 49.79 32.86 49.89 32.88 49.98C32.89 50.06 32.9 50.13 32.91 50.18C32.91 50.22 32.91 50.25 32.91 50.25C32.91 50.25 32.81 49.89 32.76 49.23C32.72 48.57 32.76 47.58 33.13 46.44C33.32 45.87 33.59 45.27 33.98 44.67C34.37 44.08 34.88 43.5 35.51 43.01C36.75 42.02 38.49 41.32 40.35 41.37L40.29 41.4C40.39 41.23 40.5 41.05 40.62 40.88C41.16 40.09 41.83 39.4 42.58 38.89C43.33 38.38 44.14 38.03 44.95 37.8C45.75 37.58 46.55 37.51 47.29 37.52C48.03 37.54 48.72 37.63 49.33 37.79C50.55 38.12 51.42 38.7 51.98 39.12C52.26 39.33 52.47 39.51 52.61 39.63C52.67 39.69 52.73 39.73 52.77 39.77C52.8 39.8 52.82 39.82 52.82 39.82L52.81 39.81Z" fill="#1A2E35"/>
<path d="M37.4498 44.93C37.4498 44.93 37.4898 44.93 37.5598 44.93C37.6298 44.93 37.7398 44.96 37.8698 44.99C38.1298 45.05 38.5098 45.18 38.9298 45.45C39.3398 45.71 39.7898 46.12 40.1198 46.68C40.4498 47.24 40.6398 47.96 40.5898 48.71C40.5398 49.46 40.2698 50.16 39.8698 50.67C39.4698 51.19 38.9798 51.53 38.5398 51.74C38.0998 51.95 37.6998 52.03 37.4298 52.06C37.2898 52.07 37.1898 52.08 37.1198 52.08C37.0498 52.08 37.0098 52.08 37.0098 52.08C37.0098 52.07 37.1598 52.07 37.4298 52.02C37.6898 51.98 38.0798 51.88 38.4998 51.67C38.9198 51.45 39.3998 51.11 39.7798 50.61C40.1598 50.11 40.4198 49.44 40.4698 48.71C40.5098 47.98 40.3398 47.29 40.0198 46.74C39.7098 46.19 39.2798 45.79 38.8898 45.53C38.4898 45.27 38.1198 45.12 37.8698 45.05C37.6098 44.97 37.4598 44.95 37.4598 44.94L37.4498 44.93Z" fill="#1A2E35"/>
<path d="M45.3798 42.78C45.3798 42.78 45.4298 42.88 45.4798 43.07C45.5298 43.26 45.5898 43.55 45.5998 43.91C45.6398 44.63 45.4498 45.67 44.7698 46.57C44.0898 47.46 43.1398 47.93 42.4398 48.09C42.0898 48.17 41.7998 48.2 41.5898 48.2C41.3898 48.2 41.2798 48.19 41.2798 48.18C41.2798 48.15 41.7298 48.18 42.4198 48C43.0998 47.82 44.0198 47.35 44.6698 46.49C45.3198 45.62 45.5198 44.61 45.5098 43.91C45.5098 43.2 45.3398 42.77 45.3698 42.77L45.3798 42.78Z" fill="#1A2E35"/>
<path d="M50.8698 53.8C50.8698 53.8 50.8698 53.66 50.8998 53.41C50.9198 53.16 50.9298 52.79 50.8998 52.34C50.8298 51.45 50.5198 50.19 49.7098 49.07C48.8998 47.95 47.8098 47.25 46.9798 46.91C46.5598 46.73 46.2098 46.63 45.9698 46.57C45.7198 46.51 45.5898 46.48 45.5898 46.47C45.5898 46.47 45.6298 46.47 45.6898 46.47C45.7598 46.47 45.8598 46.49 45.9798 46.52C46.2298 46.57 46.5898 46.66 47.0198 46.83C47.8698 47.16 48.9898 47.85 49.8198 49C50.6498 50.15 50.9598 51.43 50.9998 52.34C51.0198 52.8 50.9998 53.17 50.9698 53.42C50.9598 53.55 50.9298 53.64 50.9198 53.71C50.9098 53.78 50.8998 53.81 50.8898 53.81L50.8698 53.8Z" fill="#1A2E35"/>
<path d="M48.2598 40.66C48.2598 40.66 48.3698 40.7 48.5498 40.82C48.7298 40.93 48.9698 41.12 49.2298 41.4C49.4898 41.68 49.7498 42.05 49.9598 42.51C50.1698 42.97 50.2998 43.51 50.3098 44.09C50.3098 44.67 50.1798 45.22 49.9798 45.68C49.7798 46.14 49.5198 46.52 49.2698 46.79C49.0198 47.07 48.7798 47.26 48.5998 47.38C48.4198 47.5 48.3198 47.55 48.3198 47.54C48.2998 47.52 48.7198 47.3 49.2098 46.73C49.6898 46.18 50.1998 45.22 50.1998 44.09C50.1898 42.96 49.6698 42.01 49.1798 41.46C48.6898 40.9 48.2698 40.69 48.2798 40.66H48.2598Z" fill="#1A2E35"/>
<path d="M51.6996 40.85C51.6996 40.85 51.5896 41.52 51.1696 42.23C50.7496 42.94 50.2396 43.39 50.2196 43.36C50.1896 43.33 50.6596 42.86 51.0596 42.16C51.4696 41.47 51.6696 40.83 51.6996 40.84V40.85Z" fill="#1A2E35"/>
<path d="M56.3996 32.32C56.3996 32.32 56.4696 32.35 56.5996 32.41C56.6696 32.44 56.7396 32.48 56.8296 32.53C56.9196 32.59 57.0196 32.65 57.1396 32.72C57.5896 33.01 58.2196 33.51 58.7896 34.3C59.3596 35.08 59.8796 36.16 60.0096 37.44C60.1496 38.72 59.8196 40.17 59.0096 41.42C58.1796 42.7 56.9596 43.61 55.7096 44.03L55.7496 43.96C56.2996 45.78 56.2896 47.42 56.1496 48.54C56.0796 49.1 55.9796 49.54 55.9096 49.84C55.8696 49.99 55.8396 50.1 55.8096 50.18C55.7896 50.26 55.7696 50.29 55.7696 50.29C55.7696 50.29 55.7696 50.25 55.7896 50.17C55.8096 50.08 55.8396 49.97 55.8696 49.83C55.9296 49.53 56.0196 49.09 56.0796 48.53C56.1996 47.42 56.1996 45.79 55.6396 43.99L55.6196 43.94L55.6696 43.92C56.8796 43.51 58.0796 42.61 58.8996 41.35C59.6896 40.13 60.0196 38.71 59.8896 37.45C59.7696 36.19 59.2596 35.12 58.7096 34.35C58.1596 33.57 57.5496 33.07 57.1096 32.76C56.9996 32.69 56.8996 32.62 56.8096 32.56C56.7196 32.51 56.6496 32.47 56.5796 32.43C56.4596 32.36 56.3896 32.32 56.3896 32.32H56.3996Z" fill="#1A2E35"/>
<path d="M52.2397 33.12C52.2397 33.12 52.3297 33.17 52.4597 33.28C52.5997 33.4 52.7797 33.58 52.9497 33.85C53.1297 34.12 53.2897 34.47 53.3897 34.88C53.4897 35.29 53.4997 35.77 53.3897 36.25C53.2697 36.73 53.0397 37.15 52.7697 37.48C52.4997 37.81 52.1897 38.05 51.9197 38.21C51.6397 38.37 51.3997 38.46 51.2197 38.5C51.0497 38.54 50.9497 38.55 50.9497 38.55C50.9497 38.52 51.3397 38.47 51.8697 38.14C52.3897 37.82 53.0397 37.16 53.2597 36.23C53.4797 35.3 53.1897 34.42 52.8697 33.9C52.5397 33.37 52.2097 33.14 52.2297 33.12H52.2397Z" fill="#1A2E35"/>
<path d="M72.6596 35.82C72.6596 35.82 72.5896 35.83 72.4596 35.84C72.3296 35.84 72.1396 35.86 71.8896 35.89C71.3996 35.95 70.6896 36.06 69.8596 36.34C69.4396 36.48 68.9996 36.66 68.5496 36.92C68.0996 37.17 67.6496 37.49 67.1896 37.85C66.2796 38.56 65.3396 39.47 64.6696 40.63C64.0096 41.8 63.4096 42.94 62.9296 44C62.4496 45.06 62.0896 46.05 61.8596 46.9C61.6296 47.75 61.5096 48.46 61.4596 48.95C61.4196 49.19 61.4196 49.39 61.3996 49.52C61.3896 49.65 61.3796 49.72 61.3696 49.72C61.3696 49.72 61.3696 49.65 61.3696 49.52C61.3696 49.39 61.3696 49.2 61.3996 48.95C61.4396 48.46 61.5496 47.75 61.7696 46.89C61.9896 46.03 62.3396 45.03 62.8196 43.96C63.2996 42.89 63.8896 41.75 64.5496 40.57C65.2396 39.39 66.1896 38.48 67.1096 37.76C67.5796 37.4 68.0296 37.08 68.4896 36.83C68.9496 36.58 69.3996 36.4 69.8296 36.26C70.6796 35.99 71.3896 35.89 71.8796 35.84C72.1296 35.82 72.3196 35.81 72.4496 35.81C72.5796 35.81 72.6496 35.81 72.6496 35.81L72.6596 35.82Z" fill="#1A2E35"/>
<path d="M64.9 33.85C64.9 33.85 64.56 33.87 64.02 33.96C63.75 34.01 63.44 34.09 63.1 34.21C62.76 34.33 62.4 34.5 62.05 34.71C61.7 34.93 61.38 35.17 61.12 35.41C60.86 35.65 60.64 35.89 60.47 36.11C60.13 36.54 59.98 36.84 59.96 36.83C59.96 36.83 59.99 36.75 60.06 36.61C60.09 36.54 60.14 36.46 60.2 36.37C60.26 36.28 60.32 36.17 60.41 36.06C60.57 35.83 60.79 35.58 61.05 35.33C61.32 35.08 61.64 34.83 62 34.61C62.36 34.39 62.73 34.23 63.08 34.11C63.43 34 63.75 33.92 64.02 33.89C64.16 33.87 64.28 33.86 64.39 33.85C64.5 33.84 64.59 33.84 64.67 33.85C64.82 33.85 64.91 33.85 64.91 33.87L64.9 33.85Z" fill="#1A2E35"/>
<path d="M66.9497 50.34C66.9497 50.34 67.0497 50.32 67.2197 50.26C67.3897 50.2 67.6197 50.07 67.8397 49.84C68.0597 49.61 68.2497 49.27 68.3797 48.86C68.5097 48.45 68.6197 47.99 68.7197 47.51C68.9097 46.54 68.9897 45.64 69.0097 44.99C69.0197 44.66 69.0197 44.4 69.0297 44.22C69.0297 44.04 69.0297 43.94 69.0397 43.94C69.0397 43.94 69.0597 44.04 69.0797 44.22C69.0897 44.4 69.1097 44.67 69.0997 44.99C69.0997 45.64 69.0397 46.55 68.8397 47.53C68.7397 48.02 68.6297 48.48 68.4897 48.9C68.3497 49.31 68.1497 49.67 67.9097 49.9C67.6697 50.14 67.4197 50.26 67.2397 50.31C67.1497 50.34 67.0797 50.34 67.0297 50.35C66.9797 50.35 66.9597 50.35 66.9597 50.35L66.9497 50.34Z" fill="#1A2E35"/>
<path d="M74.3896 54.02C74.3896 54.02 74.6496 53.51 74.6396 52.61C74.6396 52.17 74.5396 51.64 74.3096 51.1C74.0796 50.56 73.7197 50.02 73.2197 49.56C72.7097 49.11 72.1396 48.8 71.5896 48.59C71.0396 48.38 70.5197 48.28 70.0797 48.22C69.6397 48.17 69.2796 48.16 69.0296 48.16C68.7796 48.16 68.6396 48.16 68.6396 48.16C68.6396 48.16 68.6696 48.15 68.7396 48.14C68.8096 48.14 68.8996 48.12 69.0296 48.11C69.2796 48.09 69.6496 48.09 70.0996 48.13C70.5496 48.17 71.0796 48.27 71.6396 48.48C72.1996 48.68 72.7896 49 73.3096 49.46C73.8296 49.93 74.1996 50.49 74.4196 51.05C74.6396 51.61 74.7397 52.15 74.7297 52.6C74.7297 53.05 74.6397 53.42 74.5497 53.65C74.5097 53.77 74.4597 53.86 74.4397 53.92C74.4097 53.98 74.3896 54.01 74.3896 54.01V54.02Z" fill="#1A2E35"/>
<path d="M68.71 40.95C68.71 40.95 68.76 40.93 68.86 40.9C68.96 40.87 69.11 40.83 69.31 40.79C69.7 40.71 70.27 40.63 70.99 40.64C71.7 40.66 72.56 40.79 73.43 41.18C74.3 41.55 75.16 42.22 75.78 43.13C76.4 44.04 76.7 45.1 76.63 46.05C76.57 47 76.19 47.81 75.76 48.38C75.32 48.95 74.84 49.3 74.48 49.48C74.3 49.57 74.16 49.63 74.06 49.66C73.96 49.69 73.91 49.71 73.91 49.71C73.91 49.71 73.96 49.68 74.05 49.64C74.15 49.6 74.29 49.53 74.46 49.44C74.8 49.25 75.27 48.9 75.69 48.33C76.1 47.77 76.46 46.97 76.52 46.04C76.58 45.11 76.29 44.09 75.69 43.2C75.08 42.31 74.25 41.66 73.4 41.29C72.55 40.91 71.71 40.77 71 40.74C70.29 40.71 69.72 40.78 69.33 40.85C68.94 40.92 68.73 40.97 68.72 40.96L68.71 40.95Z" fill="#1A2E35"/>
<path d="M76.0697 43.43C76.0697 43.43 76.1497 43.05 76.1697 42.43C76.1697 42.28 76.1697 42.11 76.1697 41.93C76.1697 41.75 76.1297 41.56 76.1097 41.36C76.0397 40.96 75.9197 40.53 75.7497 40.09C75.5697 39.66 75.3397 39.27 75.1097 38.94C74.9897 38.78 74.8697 38.62 74.7497 38.49C74.6297 38.35 74.5097 38.23 74.3997 38.13C73.9497 37.71 73.6097 37.52 73.6297 37.49C73.6297 37.49 73.7198 37.53 73.8698 37.62C73.9498 37.66 74.0397 37.72 74.1297 37.8C74.2297 37.88 74.3497 37.96 74.4597 38.06C74.5797 38.16 74.6997 38.28 74.8297 38.42C74.9597 38.55 75.0797 38.71 75.2097 38.87C75.4497 39.21 75.6898 39.6 75.8698 40.04C76.0498 40.48 76.1598 40.93 76.2298 41.34C76.2498 41.55 76.2797 41.74 76.2797 41.93C76.2897 42.11 76.2797 42.29 76.2797 42.44C76.2797 42.6 76.2498 42.74 76.2298 42.86C76.2198 42.98 76.1897 43.09 76.1697 43.17C76.1297 43.34 76.0997 43.43 76.0897 43.43H76.0697Z" fill="#1A2E35"/>
<path d="M84.0701 43.81C84.0701 43.81 83.6901 43.76 83.0801 43.77C82.7701 43.77 82.4101 43.8 82.0101 43.87C81.6101 43.95 81.1901 44.06 80.7501 44.24C80.3201 44.42 79.9301 44.63 79.5901 44.86C79.2601 45.09 78.9701 45.32 78.7601 45.53C78.3201 45.95 78.1001 46.27 78.0801 46.25C78.0801 46.25 78.1201 46.16 78.2201 46.02C78.2701 45.95 78.3301 45.86 78.4101 45.77C78.4901 45.68 78.5801 45.57 78.6901 45.46C78.9001 45.23 79.1901 44.99 79.5201 44.76C79.8601 44.53 80.2501 44.31 80.6901 44.12C81.1301 43.94 81.5701 43.83 81.9701 43.76C82.3801 43.7 82.7501 43.67 83.0601 43.68C83.2201 43.68 83.3501 43.7 83.4801 43.71C83.6001 43.71 83.7101 43.74 83.7901 43.75C83.9601 43.78 84.0501 43.8 84.0501 43.81H84.0701Z" fill="#1A2E35"/>
<path d="M88.7999 64.58C88.7999 64.58 88.8299 64.62 88.8599 64.7C88.8899 64.78 88.9299 64.9 88.9599 65.05C89.0299 65.36 89.0899 65.82 89.0399 66.4C88.9899 66.97 88.8399 67.64 88.5199 68.33C88.1999 69.02 87.7399 69.72 87.1499 70.36C86.5599 71 85.8799 71.51 85.1899 71.82C84.4999 72.14 83.8299 72.28 83.2599 72.34C82.6899 72.4 82.2299 72.37 81.9099 72.37C81.7499 72.37 81.6299 72.37 81.5499 72.37C81.4699 72.37 81.4199 72.37 81.4199 72.37C81.4199 72.37 81.4599 72.36 81.5399 72.34C81.6199 72.33 81.7499 72.32 81.9099 72.32C82.2299 72.32 82.6899 72.32 83.2499 72.25C83.8099 72.18 84.4699 72.04 85.1399 71.72C85.8099 71.4 86.4799 70.91 87.0599 70.28C87.6399 69.65 88.0999 68.96 88.4099 68.29C88.7299 67.62 88.8899 66.96 88.9499 66.4C89.0099 65.84 88.9599 65.38 88.9099 65.07C88.8799 64.91 88.8499 64.8 88.8299 64.72C88.8099 64.64 88.7999 64.6 88.7999 64.6V64.58Z" fill="#1A2E35"/>
<g opacity="0.3">
<path d="M69.76 54.24C68.73 54.6 67.78 55.18 66.99 55.93C63.04 54.55 58.52 54.89 54.81 56.83C54.16 57.17 53.52 57.56 52.8 57.75C51.91 57.99 50.98 57.89 50.06 57.84C47.99 57.72 45.88 57.85 43.91 58.49C41.94 59.13 40.11 60.32 38.93 62.03C37.76 63.74 37.31 65.99 37.99 67.95L38.22 68.29C38.04 66.17 38.96 64.08 40.52 62.35C42.08 60.63 44.24 59.11 46.54 58.79C48.85 58.47 51.06 58.93 53.35 59.36C58.05 56.8 63.48 55.93 68.68 57.21C68.22 56.14 68.72 54.77 69.75 54.24H69.76Z" fill="black"/>
</g>
<g opacity="0.3">
<path d="M59.5198 64.74C57.0898 66.36 53.9698 66.86 51.1798 66.01C47.1298 68.1 45.9098 67.3 44.0298 66.68C44.9598 67.82 46.6798 68.44 48.1498 68.51C49.6198 68.58 51.1098 68 52.1398 66.96C54.1698 67.7 56.3998 67.45 58.5398 67.2C60.3298 66.99 62.1098 66.77 63.8998 66.56C65.8698 66.33 67.8598 66.09 69.7598 65.49C71.6598 64.89 73.4798 63.91 74.7598 62.39C70.2698 65.43 64.7398 66.2 59.5098 64.74H59.5198Z" fill="black"/>
</g>
<g opacity="0.3">
<path d="M37.21 52.07C38.07 52.35 39.31 52.1 40.11 51.67C40.9 51.24 41.5 50.47 41.74 49.6C41.8 49.37 41.85 49.11 42.04 48.96C42.24 48.8 42.52 48.82 42.78 48.81C43.62 48.79 44.44 48.38 44.96 47.72C45.48 47.06 45.68 46.17 45.5 45.35C44.78 47.27 42.48 48.43 40.51 47.86C40.45 49.55 39.94 51.57 37.23 52.07" fill="black"/>
</g>
<g opacity="0.3">
<path d="M53.2 39.09C51.62 36.94 48.99 35.85 46.35 36.21C43.71 36.57 41.26 38.14 39.83 40.39C38.49 40.43 37.13 40.64 35.9 41.18C34.67 41.72 33.57 42.61 32.93 43.8C31.88 45.77 31.75 48.19 32.9 50.25C32.51 47.8 33.01 45.75 34.34 44.17C35.67 42.59 38.46 41.3 40.53 41.41C41.26 39.69 42.62 38.54 44.41 38.03C46.21 37.52 48.24 37.47 50.02 38.03C51.8 38.6 54.34 41.28 54.34 41.68C54.44 40.8 54.02 40.21 53.2 39.09Z" fill="black"/>
</g>
<g opacity="0.3">
<path d="M71.76 35.8C68.49 35.31 65.15 37.11 63.25 39.81C61.35 42.51 61.13 45.61 61.38 48.9C61.38 48.9 62.59 43.32 64.56 40.69C66.96 37.49 70.98 35.32 71.77 35.8H71.76Z" fill="black"/>
</g>
<g opacity="0.3">
<path d="M69.0896 44.75C69.4496 45.56 69.5696 46.47 69.4496 47.35C71.1396 47.34 72.6896 48.44 73.6096 49.86C72.9896 49.21 72.0997 48.69 71.1897 48.41C70.2797 48.13 69.4696 48 68.6396 48.27C68.8396 47 69.1696 45.79 69.0596 44.66" fill="black"/>
</g>
<g opacity="0.3">
<path d="M91.5696 58.76C91.1796 57.52 90.2996 56.44 89.1596 55.82C90.9696 58.48 90.6896 62.02 88.7996 64.58C89.3696 66.58 88.9396 69.07 85.6196 71.53C87.6096 71.2 89.7696 69.03 90.0296 67.03C90.1396 66.2 90.0296 65.33 90.2696 64.53C90.4796 63.82 90.9596 63.23 91.2896 62.56C91.8696 61.39 91.9696 60.01 91.5796 58.77L91.5696 58.76Z" fill="black"/>
</g>
<g opacity="0.3">
<path d="M26.0701 51.98C26.0701 51.98 26.0901 52.04 26.0901 52.07C26.1001 52.02 26.1101 51.97 26.1201 51.92L26.0601 51.98H26.0701Z" fill="black"/>
</g>
<g opacity="0.3">
<path d="M29.47 60.63C29.12 60.11 28.78 59.56 28.64 58.94C28.29 57.49 29.03 56.02 29.74 54.71C28.02 54.88 26.56 54.02 26.09 52.07C25.8 53.4 26.17 54.97 27.27 55.77C26.79 57.79 27.19 60 28.35 61.72C29.51 63.44 31.41 64.64 33.46 64.95C31.92 63.72 30.57 62.26 29.47 60.63Z" fill="black"/>
</g>
<path d="M65.5596 76.02C65.3596 76.37 62.8696 78.47 63.6796 81.05C64.7396 84.41 69.8096 84.52 73.8096 83.75C79.6796 82.61 82.4496 80.1 82.4496 76.75C82.4496 74.05 65.5496 76.03 65.5496 76.03L65.5596 76.02Z" fill="#644DF6"/>
<path d="M82.4598 76.74C82.4598 76.74 82.3898 76.74 82.2598 76.71C82.1198 76.68 81.9398 76.65 81.6998 76.61C81.4598 76.56 81.1598 76.51 80.8198 76.46C80.4698 76.4 80.0798 76.34 79.6398 76.29C78.7698 76.17 77.7198 76.08 76.5598 76C75.3998 75.93 74.1198 75.89 72.7798 75.89C70.0898 75.89 67.6598 76.02 65.8998 76.11C65.0298 76.16 64.3198 76.2 63.8198 76.23C63.5798 76.24 63.3898 76.25 63.2498 76.26C63.1198 76.26 63.0498 76.26 63.0498 76.26C63.0498 76.26 63.1198 76.25 63.2498 76.23C63.3898 76.22 63.5798 76.2 63.8198 76.18C64.3098 76.14 65.0198 76.08 65.8998 76.02C67.6598 75.9 70.0898 75.75 72.7898 75.76C74.1398 75.76 75.4198 75.8 76.5798 75.88C77.7398 75.96 78.7898 76.07 79.6598 76.2C80.0998 76.26 80.4898 76.32 80.8398 76.39C81.1898 76.45 81.4798 76.51 81.7198 76.56C81.9498 76.61 82.1398 76.65 82.2698 76.69C82.3998 76.72 82.4598 76.74 82.4598 76.74Z" fill="#1A2E35"/>
<g opacity="0.3">
<path d="M82.4597 76.79C76.5297 75.33 70.2797 75.93 64.1797 76.21C70.6397 76.81 76.7997 76.82 82.4597 76.79Z" fill="black"/>
</g>
<g opacity="0.3">
<path d="M56.5198 70.38C55.4898 70.68 53.6098 71.25 52.6798 71.6C52.5398 72.37 52.2298 73.02 51.5498 73.39C50.7598 73.75 49.8698 73.88 49.0098 73.77C50.0298 73.97 51.0998 74.14 52.1098 73.9C53.1198 73.66 54.0898 72.9 54.2398 71.87C60.0398 69.9 66.2298 69.08 72.3398 69.48C67.1298 68.42 61.6198 68.89 56.5198 70.38Z" fill="black"/>
</g>
<g opacity="0.3">
<path d="M75.5898 48.47C75.5898 48.47 75.6198 48.45 75.6398 48.44C76.9898 47.69 77.6698 45.92 77.1498 44.46C77.0598 44.22 76.9498 43.98 76.9398 43.72C76.9298 43.46 77.0298 43.2 77.0998 42.95C77.4898 41.47 76.6698 39.76 75.2598 39.15C75.5998 39.54 76.6798 41.11 75.9898 43.72C75.9898 43.72 76.8398 45.24 76.4998 46.55" fill="black"/>
</g>
<g opacity="0.3">
<path d="M50.89 53.65C51.63 52.96 51.65 51.51 51.37 50.54C51.1 49.57 50.46 48.74 49.78 48C50.49 47.47 50.96 46.64 51.04 45.76C51.12 44.88 50.82 43.97 50.22 43.32C50.11 44.16 50.11 45.19 49.74 45.95C49.37 46.71 48.95 47.14 48.21 47.54C50.12 48.49 51.02 51.21 50.95 52.98L50.89 53.65Z" fill="black"/>
</g>
<path d="M83.09 65.89C83.09 65.89 83.27 65.38 83.13 64.55C83.06 64.14 82.9 63.66 82.6 63.2C82.31 62.74 81.87 62.3 81.35 61.94C80.82 61.58 80.27 61.33 79.74 61.15C79.22 60.97 78.73 60.84 78.32 60.77C77.91 60.69 77.57 60.64 77.34 60.6C77.11 60.56 76.98 60.54 76.98 60.53C76.98 60.53 77.11 60.53 77.35 60.55C77.58 60.57 77.92 60.61 78.34 60.68C78.76 60.75 79.25 60.87 79.78 61.04C80.31 61.22 80.88 61.47 81.42 61.83C81.96 62.2 82.4 62.65 82.7 63.13C83 63.61 83.16 64.11 83.22 64.53C83.28 64.95 83.25 65.3 83.2 65.53C83.18 65.65 83.15 65.74 83.13 65.79C83.11 65.85 83.1 65.88 83.09 65.88V65.89Z" fill="#1A2E35"/>
<g opacity="0.3">
<path d="M80.0197 59.47C80.5297 58.18 80.7397 56.77 80.6297 55.39C79.7897 57.32 78.4497 59.1 76.9497 60.59C78.9297 60.7 80.9397 61.44 82.3597 62.83C82.3297 61.39 81.3597 60 80.0197 59.48V59.47Z" fill="black"/>
</g>
<path d="M20.9698 75.1C18.4198 75.1 16.8798 74.69 16.6098 73.83C15.9798 71.82 22.0398 68.44 27.2298 65.96L27.3298 66.18C20.2098 69.58 16.3898 72.34 16.8298 73.75C17.7998 76.81 37.9898 73.28 60.9298 66.04C83.8698 58.8 102.44 50.1 101.47 47.04C101.02 45.61 96.2298 45.56 88.3298 46.9L88.2898 46.66C94.0598 45.69 101.07 44.95 101.71 46.97C102.75 50.27 84.8698 58.75 61.0098 66.28C43.3898 71.84 28.1498 75.1 20.9598 75.1H20.9698Z" fill="#FFA300"/>
<g opacity="0.6">
<mask id="path-102-inside-1_614_531" fill="white">
<path d="M20.9698 75.1C18.4198 75.1 16.8798 74.69 16.6098 73.83C15.9798 71.83 22.0398 68.45 27.2298 65.96L27.3298 66.18C20.2098 69.58 16.3898 72.34 16.8298 73.75C17.7998 76.81 37.9898 73.28 60.9298 66.04C83.8698 58.8 102.44 50.1 101.47 47.04C101.02 45.62 96.2298 45.56 88.3298 46.9L88.2898 46.66C94.0598 45.69 101.07 44.95 101.71 46.97C102.75 50.27 84.8698 58.75 61.0098 66.28C43.3898 71.84 28.1498 75.1 20.9598 75.1H20.9698Z"/>
</mask>
<path d="M20.9698 75.1C18.4198 75.1 16.8798 74.69 16.6098 73.83C15.9798 71.83 22.0398 68.45 27.2298 65.96L27.3298 66.18C20.2098 69.58 16.3898 72.34 16.8298 73.75C17.7998 76.81 37.9898 73.28 60.9298 66.04C83.8698 58.8 102.44 50.1 101.47 47.04C101.02 45.62 96.2298 45.56 88.3298 46.9L88.2898 46.66C94.0598 45.69 101.07 44.95 101.71 46.97C102.75 50.27 84.8698 58.75 61.0098 66.28C43.3898 71.84 28.1498 75.1 20.9598 75.1H20.9698Z" fill="#FFA300"/>
<path d="M16.6098 73.83L18.5179 73.2309L18.5174 73.2291L16.6098 73.83ZM27.2298 65.96L29.0505 65.1324L28.2056 63.2736L26.3646 64.1568L27.2298 65.96ZM27.3298 66.18L28.1916 67.9848L29.9626 67.1391L29.1505 65.3524L27.3298 66.18ZM16.8298 73.75L14.9206 74.3458L14.9233 74.3543L16.8298 73.75ZM101.47 47.04L99.5632 47.6442L99.5633 47.6443L101.47 47.04ZM88.3298 46.9L86.357 47.2288L86.6867 49.2073L88.6642 48.8718L88.3298 46.9ZM88.2898 46.66L87.9582 44.6877L85.9886 45.0188L86.317 46.9888L88.2898 46.66ZM101.71 46.97L103.617 46.3688L103.616 46.3659L101.71 46.97ZM61.0098 66.28L61.6116 68.1873L61.6117 68.1873L61.0098 66.28ZM20.9698 73.1C19.768 73.1 18.9592 72.9997 18.4825 72.864C17.8973 72.6973 18.3347 72.6473 18.5179 73.2309L14.7016 74.4291C15.1548 75.8727 16.4973 76.4577 17.3871 76.711C18.3854 76.9953 19.6216 77.1 20.9698 77.1V73.1ZM18.5174 73.2291C18.7038 73.821 18.2765 73.9944 18.7749 73.428C19.1674 72.982 19.8624 72.4067 20.8556 71.7369C22.816 70.4147 25.5216 68.9978 28.0949 67.7632L26.3646 64.1568C23.7479 65.4122 20.8286 66.9303 18.6189 68.4206C17.5271 69.157 16.5009 69.9574 15.7721 70.7854C15.1493 71.4931 14.2007 72.839 14.7022 74.4309L18.5174 73.2291ZM25.409 66.7876L25.509 67.0076L29.1505 65.3524L29.0505 65.1324L25.409 66.7876ZM26.4679 64.3752C22.8653 66.0956 20.0067 67.6955 18.0747 69.0892C17.1201 69.7778 16.2936 70.4852 15.7208 71.2022C15.2252 71.8227 14.496 72.9852 14.9206 74.3458L18.739 73.1542C18.9436 73.8098 18.5268 74.0985 18.8462 73.6987C19.0884 73.3954 19.5794 72.9359 20.4148 72.3333C22.0628 71.1445 24.6743 69.6644 28.1916 67.9848L26.4679 64.3752ZM14.9233 74.3543C15.3793 75.7931 16.7529 76.3169 17.5515 76.5279C18.492 76.7763 19.654 76.8616 20.9152 76.8543C23.4679 76.8396 26.9268 76.4372 30.9855 75.7276C39.1306 74.3036 50.0014 71.5863 61.5317 67.9473L60.3278 64.1327C48.9182 67.7337 38.224 70.4014 30.2966 71.7874C26.3189 72.4828 23.1148 72.8416 20.8922 72.8544C19.7657 72.8609 19.012 72.7765 18.5731 72.6605C17.9923 72.5071 18.5227 72.4719 18.7363 73.1456L14.9233 74.3543ZM61.5317 67.9473C73.062 64.3082 83.526 60.2929 91.0147 56.7835C94.7462 55.0348 97.8103 53.3789 99.909 51.9259C100.946 51.2081 101.849 50.4712 102.476 49.7278C103.008 49.0966 103.833 47.877 103.376 46.4357L99.5633 47.6443C99.3489 46.968 99.8056 46.6897 99.4186 47.1483C99.1264 47.4946 98.5582 47.996 97.6321 48.6372C95.8048 49.9023 92.9746 51.4477 89.3174 53.1615C82.0286 56.5771 71.7376 60.5317 60.3278 64.1327L61.5317 67.9473ZM103.376 46.4358C102.942 45.0652 101.661 44.532 100.895 44.3098C100.005 44.0518 98.9095 43.9484 97.7158 43.9351C95.3 43.9082 91.9923 44.2502 87.9953 44.9282L88.6642 48.8718C92.5672 48.2098 95.6046 47.9118 97.6712 47.9349C98.7188 47.9466 99.3986 48.0407 99.7807 48.1515C100.286 48.298 99.7726 48.3048 99.5632 47.6442L103.376 46.4358ZM90.3026 46.5712L90.2626 46.3312L86.317 46.9888L86.357 47.2288L90.3026 46.5712ZM88.6213 48.6323C91.4825 48.1513 94.5615 47.7439 96.9656 47.6933C98.1834 47.6677 99.1003 47.7378 99.6907 47.8785C100.44 48.0572 99.9908 48.1663 99.8032 47.5741L103.616 46.3659C103.109 44.7637 101.543 44.2078 100.618 43.9874C99.5337 43.7291 98.2174 43.6661 96.8814 43.6942C94.178 43.7511 90.867 44.1987 87.9582 44.6877L88.6213 48.6323ZM99.8023 47.5712C99.6277 47.0173 99.9765 46.8015 99.6575 47.213C99.3917 47.5559 98.8613 48.0567 97.9721 48.7001C96.2163 49.9705 93.4614 51.5138 89.84 53.2318C82.6252 56.6545 72.2815 60.6255 60.4079 64.3727L61.6117 68.1873C73.598 64.4045 84.1244 60.3705 91.5545 56.8457C95.2556 55.0899 98.267 53.4239 100.317 51.9408C101.33 51.2075 102.213 50.4456 102.819 49.6637C103.372 48.9504 104.052 47.7477 103.617 46.3688L99.8023 47.5712ZM60.4079 64.3727C42.7901 69.932 27.8116 73.1 20.9598 73.1V77.1C28.4879 77.1 43.9894 73.748 61.6116 68.1873L60.4079 64.3727ZM20.9598 77.1H20.9698V73.1H20.9598V77.1Z" fill="#FFA300" mask="url(#path-102-inside-1_614_531)"/>
</g>
<path d="M48.5598 88.27C48.5598 88.77 48.1598 89.17 47.6598 89.17C47.1598 89.17 46.7598 88.77 46.7598 88.27C46.7598 87.77 47.1598 87.37 47.6598 87.37C48.1598 87.37 48.5598 87.77 48.5598 88.27Z" fill="#644DF6"/>
<path d="M89.2097 78.96C89.2097 79.46 88.8097 79.86 88.3097 79.86C87.8097 79.86 87.4097 79.46 87.4097 78.96C87.4097 78.46 87.8097 78.06 88.3097 78.06C88.8097 78.06 89.2097 78.46 89.2097 78.96Z" fill="#644DF6"/>
<path d="M88.7098 36.77C88.7098 37.1 88.4398 37.37 88.1098 37.37C87.7798 37.37 87.5098 37.1 87.5098 36.77C87.5098 36.44 87.7798 36.17 88.1098 36.17C88.4398 36.17 88.7098 36.44 88.7098 36.77Z" fill="#644DF6"/>
<path d="M86.3199 86.54C86.817 86.54 87.2199 86.1371 87.2199 85.64C87.2199 85.1429 86.817 84.74 86.3199 84.74C85.8229 84.74 85.4199 85.1429 85.4199 85.64C85.4199 86.1371 85.8229 86.54 86.3199 86.54Z" fill="#644DF6"/>
<path d="M53.5195 88.91C53.5195 89.75 52.8395 90.44 51.9895 90.44C51.1395 90.44 50.4595 89.76 50.4595 88.91C50.4595 88.06 51.1395 87.38 51.9895 87.38C52.8395 87.38 53.5195 88.06 53.5195 88.91Z" fill="#644DF6"/>
<path d="M99.8598 82.04C99.8598 82.88 99.1798 83.57 98.3298 83.57C97.4798 83.57 96.7998 82.89 96.7998 82.04C96.7998 81.19 97.4798 80.51 98.3298 80.51C99.1798 80.51 99.8598 81.19 99.8598 82.04Z" fill="#644DF6"/>
<path d="M84.3498 37.39C84.9077 37.39 85.3598 36.9378 85.3598 36.38C85.3598 35.8222 84.9077 35.37 84.3498 35.37C83.792 35.37 83.3398 35.8222 83.3398 36.38C83.3398 36.9378 83.792 37.39 84.3498 37.39Z" fill="#644DF6"/>
<path d="M60.7599 28.14C60.7599 28.94 60.1099 29.58 59.3199 29.58C58.5299 29.58 57.8799 28.93 57.8799 28.14C57.8799 27.35 58.5299 26.7 59.3199 26.7C60.1099 26.7 60.7599 27.35 60.7599 28.14Z" fill="#644DF6"/>
<path d="M17.9197 62.98C18.5935 62.98 19.1397 62.4338 19.1397 61.76C19.1397 61.0862 18.5935 60.54 17.9197 60.54C17.2459 60.54 16.6997 61.0862 16.6997 61.76C16.6997 62.4338 17.2459 62.98 17.9197 62.98Z" fill="#644DF6"/>
<path d="M40.8596 24.39C41.5334 24.39 42.0797 23.8438 42.0797 23.17C42.0797 22.4962 41.5334 21.95 40.8596 21.95C40.1859 21.95 39.6396 22.4962 39.6396 23.17C39.6396 23.8438 40.1859 24.39 40.8596 24.39Z" fill="#644DF6"/>
<path d="M55.0697 28.03C55.0697 28.49 54.6997 28.86 54.2397 28.86C53.7797 28.86 53.4097 28.49 53.4097 28.03C53.4097 27.57 53.7797 27.2 54.2397 27.2C54.6997 27.2 55.0697 27.57 55.0697 28.03Z" fill="#644DF6"/>
<path d="M71.0199 29.16C71.0199 29.62 70.6499 29.99 70.1899 29.99C69.7299 29.99 69.3599 29.62 69.3599 29.16C69.3599 28.7 69.7299 28.33 70.1899 28.33C70.6499 28.33 71.0199 28.7 71.0199 29.16Z" fill="#644DF6"/>
<path d="M39.0199 26.7C39.0199 27.16 38.6499 27.53 38.1899 27.53C37.7299 27.53 37.3599 27.16 37.3599 26.7C37.3599 26.24 37.7299 25.87 38.1899 25.87C38.6499 25.87 39.0199 26.24 39.0199 26.7Z" fill="#644DF6"/>
<path d="M59.7399 24.26C59.7399 24.49 59.5499 24.68 59.3199 24.68C59.0899 24.68 58.8999 24.49 58.8999 24.26C58.8999 24.03 59.0899 23.84 59.3199 23.84C59.5499 23.84 59.7399 24.03 59.7399 24.26Z" fill="#644DF6"/>
<path d="M51.0895 19.89C51.0895 20.12 50.8995 20.31 50.6695 20.31C50.4395 20.31 50.2495 20.12 50.2495 19.89C50.2495 19.66 50.4395 19.47 50.6695 19.47C50.8995 19.47 51.0895 19.66 51.0895 19.89Z" fill="#644DF6"/>
<path d="M44.2599 28.87C44.2599 29.1 44.0699 29.29 43.8399 29.29C43.6099 29.29 43.4199 29.1 43.4199 28.87C43.4199 28.64 43.6099 28.45 43.8399 28.45C44.0699 28.45 44.2599 28.64 44.2599 28.87Z" fill="#644DF6"/>
<path d="M99.8596 59.52C100.279 59.52 100.62 59.1797 100.62 58.76C100.62 58.3403 100.279 58 99.8596 58C99.4399 58 99.0996 58.3403 99.0996 58.76C99.0996 59.1797 99.4399 59.52 99.8596 59.52Z" fill="#644DF6"/>
<path d="M97.6296 62.29C97.6296 62.79 97.2296 63.19 96.7296 63.19C96.2296 63.19 95.8296 62.79 95.8296 62.29C95.8296 61.79 96.2296 61.39 96.7296 61.39C97.2296 61.39 97.6296 61.79 97.6296 62.29Z" fill="#644DF6"/>
<path d="M95.9795 55.53C95.8495 55.36 95.8795 55.12 96.0495 55C96.2195 54.88 96.4595 54.9 96.5795 55.07C96.6995 55.24 96.6795 55.48 96.5095 55.6C96.3395 55.72 96.0995 55.7 95.9795 55.53Z" fill="#644DF6"/>
<path d="M84.0498 39.6C84.221 39.6 84.3597 39.4612 84.3597 39.29C84.3597 39.1188 84.221 38.98 84.0498 38.98C83.8785 38.98 83.7397 39.1188 83.7397 39.29C83.7397 39.4612 83.8785 39.6 84.0498 39.6Z" fill="#644DF6"/>
<path d="M92.1499 77.84C92.404 77.84 92.6099 77.634 92.6099 77.38C92.6099 77.1259 92.404 76.92 92.1499 76.92C91.8959 76.92 91.6899 77.1259 91.6899 77.38C91.6899 77.634 91.8959 77.84 92.1499 77.84Z" fill="#644DF6"/>
<path d="M41.2499 80.81C41.9845 80.81 42.5799 80.2145 42.5799 79.48C42.5799 78.7455 41.9845 78.15 41.2499 78.15C40.5154 78.15 39.9199 78.7455 39.9199 79.48C39.9199 80.2145 40.5154 80.81 41.2499 80.81Z" fill="#644DF6"/>
<path d="M39.4199 83.46C39.6961 83.46 39.9199 83.2361 39.9199 82.96C39.9199 82.6839 39.6961 82.46 39.4199 82.46C39.1438 82.46 38.9199 82.6839 38.9199 82.96C38.9199 83.2361 39.1438 83.46 39.4199 83.46Z" fill="#644DF6"/>
</g>
</g>
</g>
<defs>
<clipPath id="clip0_614_531">
<rect width="120" height="120" fill="white"/>
</clipPath>
<clipPath id="clip1_614_531">
<rect width="120" height="120" fill="white"/>
</clipPath>
</defs>
</svg>
