<svg xmlns="http://www.w3.org/2000/svg" width="14" height="20" viewBox="0 0 14 20" fill="none">
  <g clip-path="url(#clip0_380_17284)">
    <path d="M0.0834751 18.567L4.37139 11.2805L4.44428 11.1567L4.57912 10.9277L4.62002 10.858L5.04197 10.141L5.13713 10.1971L5.16872 10.2156L5.78584 9.12603C3.89032 7.56484 3.33717 4.7878 4.5937 2.56897C4.62731 2.50914 4.66254 2.45097 4.69817 2.39321C4.70344 2.38455 4.7087 2.37588 4.71397 2.36763C4.7496 2.31111 4.78605 2.25541 4.8233 2.20054C4.82735 2.19435 4.8314 2.18857 4.83585 2.18239C4.87594 2.12421 4.91725 2.06769 4.95936 2.01158C4.97313 1.99343 4.9869 1.97527 5.00066 1.95753C5.03508 1.91297 5.07031 1.86883 5.10595 1.82551C5.12377 1.80405 5.14158 1.7826 5.15981 1.76156C5.1922 1.72401 5.2246 1.68647 5.2578 1.64975C5.27845 1.62665 5.29951 1.60395 5.32097 1.58126C5.34851 1.55197 5.37645 1.52309 5.40439 1.49462C5.43922 1.45914 5.47445 1.42448 5.51008 1.39024C5.53519 1.36631 5.56029 1.34197 5.58621 1.31845C5.61253 1.29411 5.63966 1.27018 5.66639 1.24625C5.67246 1.24089 5.67813 1.23552 5.6842 1.23057C5.6842 1.23099 5.68339 1.23181 5.68299 1.23222C7.26145 -0.141651 9.57852 -0.429629 11.4789 0.687625C13.8899 2.10523 14.7168 5.24617 13.3254 7.70264C13.2408 7.85199 13.1497 7.99516 13.0533 8.13255C13.0391 8.15276 13.0237 8.17215 13.0092 8.19237C12.9768 8.23693 12.9444 8.2819 12.9108 8.32563C12.8614 8.38917 12.8107 8.45147 12.7589 8.51212C12.7585 8.51294 12.7577 8.51335 12.7573 8.51418C12.7063 8.57359 12.6544 8.63176 12.6014 8.68828C12.6002 8.68952 12.599 8.69076 12.5978 8.69241C12.5447 8.74893 12.4904 8.80381 12.4354 8.85744C12.4342 8.85868 12.4333 8.8595 12.4321 8.86074C12.2641 9.02371 12.0859 9.17347 11.9 9.30921C11.7142 9.44495 11.5198 9.56748 11.3189 9.67558C11.3169 9.67682 11.3145 9.67805 11.3125 9.67888C11.2481 9.71353 11.1825 9.74654 11.1169 9.77831C11.1132 9.77996 11.1096 9.78202 11.106 9.78367C11.0408 9.81462 10.9752 9.84432 10.9087 9.87279C10.9047 9.87444 10.9002 9.8765 10.8962 9.87815C10.8298 9.90621 10.763 9.93302 10.6953 9.95819C10.6917 9.95943 10.6885 9.96067 10.6848 9.9619C10.6164 9.98748 10.5471 10.0114 10.4775 10.0337C10.4759 10.0341 10.4742 10.0345 10.4726 10.0353C10.2588 10.1038 10.041 10.1579 9.82026 10.1967C9.81703 10.1971 9.81419 10.1979 9.81095 10.1983C9.7409 10.2107 9.67084 10.221 9.60038 10.2305C9.59431 10.2313 9.58783 10.2321 9.58175 10.233C9.51332 10.2416 9.44448 10.2491 9.37564 10.2548C9.36754 10.2557 9.35985 10.2561 9.35175 10.2569C9.28372 10.2623 9.21569 10.2664 9.14725 10.2689C9.13875 10.2689 9.13025 10.2697 9.12174 10.2697C9.05371 10.2722 8.98528 10.273 8.91684 10.2726C8.90874 10.2726 8.90064 10.2726 8.89255 10.2726C8.8233 10.2717 8.75406 10.2697 8.68481 10.2656C8.67833 10.2656 8.67185 10.2647 8.66537 10.2643C8.59411 10.2602 8.52284 10.2544 8.45157 10.2474C8.44833 10.2474 8.44509 10.2466 8.44185 10.2462C8.36815 10.2383 8.29485 10.2293 8.22116 10.2181C8.22035 10.2181 8.21994 10.2181 8.21954 10.2181C8.14746 10.2074 8.07538 10.1946 8.0037 10.1802C7.99803 10.1789 7.99236 10.1781 7.98669 10.1769C7.91785 10.1628 7.84942 10.1476 7.78098 10.1306C7.77248 10.1286 7.76398 10.1265 7.75507 10.1245C7.68825 10.1075 7.62184 10.0894 7.55584 10.0696C7.54571 10.0667 7.536 10.0638 7.52587 10.0605C7.46027 10.0407 7.39508 10.0193 7.33029 9.99656C7.31976 9.99285 7.30963 9.98913 7.29911 9.98542C7.25173 9.96851 7.20475 9.95118 7.15778 9.93261L6.54065 11.0218L6.57224 11.0404L6.6674 11.0965L6.26934 11.8272L6.17702 11.9967L1.98831 19.6863C1.81864 19.9862 1.44205 20.089 1.14766 19.9161L0.309836 19.4239C0.0154448 19.2506 -0.0853853 18.8673 0.0842848 18.5674L0.0834751 18.567Z" fill="#455B71"/>
    <path d="M0.0823307 18.5671L4.37024 11.2806L4.44313 11.1569L4.57798 10.9279L4.61888 10.8582L5.04082 10.1411L5.13598 10.1972L5.16757 10.2158L6.53829 11.0215L6.56988 11.0401L6.66504 11.0962L6.26698 11.8269L6.17466 11.9965L1.98595 19.686C1.81629 19.986 1.43969 20.0887 1.1453 19.9158L0.307477 19.4236C0.0130858 19.2504 -0.0877447 18.8671 0.0819254 18.5671H0.0823307Z" fill="#7C3027"/>
    <path d="M5.13642 10.1968L5.168 10.2158L6.53873 11.0215L6.57031 11.0401L6.31439 11.5096L4.86551 10.6577L5.13642 10.1968Z" fill="#A03B33"/>
    <path d="M0.671251 17.7907L4.46635 11.3368L5.9375 12.2019L2.35175 18.7788C2.20193 19.0437 1.86947 19.1344 1.6095 18.9818L0.870077 18.5469C0.610105 18.3943 0.521018 18.0556 0.670846 17.7907H0.671251Z" fill="#A03B33"/>
    <path d="M2.05902 18.4532C1.90959 18.3893 1.86545 18.2878 1.95373 18.0122C2.04201 17.7366 4.74296 13.44 4.85067 13.2862C5.03006 13.0295 5.2548 13.1108 5.15519 13.4652C5.15519 13.4652 2.50486 18.3534 2.40645 18.4677C2.30765 18.582 2.21735 18.5213 2.05942 18.4532H2.05902Z" fill="#BB443E"/>
    <path d="M4.44377 11.1569L4.56322 10.9539L4.57861 10.9279L4.61951 10.8578L4.77015 10.602L4.86571 10.6577L6.31459 11.5096L6.41016 11.5657L6.26762 11.8269L6.17529 11.9969L6.03316 12.2576L5.93759 12.2015L4.46644 11.3368L4.37088 11.2806L4.44377 11.1569Z" fill="#D89333"/>
    <path d="M5.58248 3.15126C6.65841 1.25177 9.04188 0.60031 10.9062 1.69652C12.7706 2.79273 13.41 5.22115 12.334 7.12065C11.2581 9.02015 8.87464 9.67119 7.0103 8.57498C5.14595 7.47876 4.50655 5.05035 5.58248 3.15085V3.15126Z" fill="#E1F5FF"/>
    <path d="M5.58248 3.15126C6.65841 1.25177 9.04188 0.60031 10.9062 1.69652C12.7706 2.79273 13.41 5.22115 12.334 7.12065C11.2581 9.02015 8.87464 9.67119 7.0103 8.57498C5.14595 7.47876 4.50655 5.05035 5.58248 3.15085V3.15126ZM12.07 6.96552C13.0617 5.21455 12.4725 2.97633 10.754 1.96593C9.03541 0.955537 6.8386 1.55583 5.84691 3.3068C4.85521 5.05777 5.44439 7.29599 7.16296 8.30639C8.88153 9.31679 11.0783 8.71649 12.07 6.96552Z" fill="#417EB1"/>
    <path d="M10.9222 2.32569C13.3911 4.0189 11.7661 7.40697 11.3482 7.36778C10.9303 7.32899 9.59806 7.13137 8.75862 5.70716C7.91917 4.28254 7.97384 3.34971 6.87929 2.53404C6.87929 2.53404 8.53954 0.691895 10.9222 2.32569Z" fill="#59C1EE"/>
    <path d="M6.64262 9.69677C6.64788 9.69966 6.65274 9.70254 6.65801 9.70502C6.7232 9.73926 6.7888 9.77144 6.85481 9.80239C6.86291 9.8061 6.87101 9.81023 6.8791 9.81394C6.94349 9.84364 7.00828 9.8717 7.07348 9.89893C7.08319 9.90305 7.09291 9.90718 7.10263 9.91089C7.12004 9.91791 7.13786 9.92492 7.15527 9.93193L6.53814 11.0211L5.16742 10.2154L5.78455 9.12576C5.98743 9.29286 6.20569 9.44633 6.43893 9.58331C6.50615 9.62292 6.57418 9.66046 6.64221 9.69635L6.64262 9.69677Z" fill="#0D1E2E"/>
    <path d="M5.58248 3.15126C6.65841 1.25177 9.04188 0.60031 10.9062 1.69652C12.7706 2.79273 13.41 5.22115 12.334 7.12065C11.2581 9.02015 8.87464 9.67119 7.0103 8.57498C5.14595 7.47876 4.50655 5.05035 5.58248 3.15085V3.15126ZM12.07 6.96552C13.0617 5.21455 12.4725 2.97633 10.754 1.96593C9.03541 0.955537 6.8386 1.55583 5.84691 3.3068C4.85521 5.05777 5.44439 7.29599 7.16296 8.30639C8.88153 9.31679 11.0783 8.71649 12.07 6.96552Z" fill="#E1F5FF"/>
    <path d="M10.9222 2.32569C13.3911 4.0189 11.7661 7.40697 11.3482 7.36778C10.9303 7.32899 9.59806 7.13137 8.75862 5.70716C7.91917 4.28254 7.97384 3.34971 6.87929 2.53404C6.87929 2.53404 8.53954 0.691895 10.9222 2.32569Z" fill="#F4FBFF"/>
    <path d="M6.26758 11.8269L6.17525 11.9969L4.52148 11.0244L4.56318 10.9539L4.57857 10.9279L4.61947 10.8578L6.26758 11.8269Z" fill="#7B511C"/>
  </g>
  <defs>
    <clipPath id="clip0_380_17284">
      <rect width="14" height="20" fill="white" transform="matrix(-1 0 0 1 14 0)"/>
    </clipPath>
  </defs>
</svg>