<svg xmlns="http://www.w3.org/2000/svg" width="12" height="18" viewBox="0 0 12 18" fill="none">
  <g clip-path="url(#clip0_1674_120379)">
    <path d="M10.2195 16.6967L9.06954 16.8101L4.37712 17.2445L2.91189 17.3767C2.5224 17.4145 2.18855 17.1311 2.15146 16.7345V16.4323L1.66923 11.3893L1.13137 5.49631C1.09427 5.09966 1.37248 4.75968 1.76197 4.72191L4.02472 4.51414L5.93508 4.34415L9.08809 4.04195C9.47758 4.00418 9.81143 4.28749 9.84852 4.68413L9.94126 5.76073L10.5533 12.4848L10.8686 15.9034C10.9057 16.3001 10.6275 16.6401 10.238 16.6778L10.2195 16.6967Z" fill="#CDC0B3"/>
    <path d="M2.85623 17.3956C2.68931 17.3956 2.54093 17.339 2.4111 17.2256C2.26272 17.0934 2.16999 16.9234 2.15144 16.7346L1.13135 5.51525C1.13135 5.32637 1.16844 5.1375 1.29827 4.9864C1.4281 4.83529 1.59503 4.74086 1.7805 4.72197L9.08807 4.04201C9.47756 4.00423 9.82996 4.30644 9.86705 4.70308L10.8686 15.9224C10.8686 16.1113 10.8315 16.3001 10.7017 16.4512C10.5718 16.6023 10.4049 16.6968 10.2194 16.7157L2.91187 17.3956C2.91187 17.3956 2.87478 17.3956 2.83768 17.3956H2.85623ZM9.14371 4.07979C9.14371 4.07979 9.10662 4.07979 9.08807 4.07979L1.7805 4.75974C1.59503 4.75974 1.44665 4.85418 1.31682 5.00528C1.20554 5.1375 1.14989 5.32637 1.16844 5.51525L2.16999 16.7346C2.16999 16.9234 2.26272 17.0745 2.4111 17.2068C2.54093 17.3201 2.7264 17.3767 2.91187 17.3579L10.2194 16.6779C10.4049 16.6779 10.5533 16.5835 10.6831 16.4324C10.7944 16.3001 10.85 16.1113 10.8315 15.9224L9.82996 4.70308C9.79286 4.34421 9.49611 4.07979 9.16226 4.07979H9.14371Z" fill="#390075"/>
    <path d="M3.71617 3.93767L0.0674438 14.5838C-0.0574472 14.9482 0.13139 15.3468 0.489224 15.4739L7.44118 17.9449C7.79901 18.072 8.19034 17.8797 8.31523 17.5153L11.9639 6.86917C12.0888 6.50477 11.9 6.10625 11.5422 5.97907L4.59022 3.50814C4.23238 3.38096 3.84106 3.57327 3.71617 3.93767Z" fill="#FFECDA"/>
    <path d="M7.6414 17.9999C7.6414 17.9999 7.47447 17.9999 7.40029 17.9622L0.463655 15.5068C0.0927122 15.3746 -0.0927591 14.959 0.0185237 14.5813L3.69086 3.92859C3.82069 3.55084 4.22872 3.36196 4.59967 3.47529L11.5363 5.93069C11.7218 5.98736 11.8516 6.11957 11.9443 6.28956C12.0185 6.45955 12.0371 6.66731 11.9814 6.8373L8.32764 17.4711C8.272 17.66 8.14217 17.7922 7.97525 17.8866C7.88251 17.9433 7.77123 17.9622 7.65995 17.9622L7.6414 17.9999ZM4.35855 3.49418C4.08035 3.49418 3.82069 3.66417 3.72795 3.94748L0.0741651 14.5813C-0.0556649 14.9401 0.129807 15.3368 0.482202 15.4501L7.41883 17.9055C7.58576 17.9622 7.77123 17.9622 7.93815 17.8677C8.10508 17.7922 8.21636 17.6411 8.29055 17.4711L11.9443 6.8373C12 6.66731 12 6.47844 11.9072 6.30845C11.8331 6.13846 11.6847 6.02513 11.5178 5.94958L4.58112 3.49418C4.58112 3.49418 4.43274 3.4564 4.35855 3.4564V3.49418Z" fill="#390075"/>
    <path d="M6.88095 12.1071L10.238 1.52993C10.3864 1.05774 10.1267 0.566658 9.68157 0.415556L8.53164 0.0378018C8.06797 -0.1133 7.58574 0.151128 7.43736 0.604434L4.09888 11.1816V11.276L4.13597 14.2791V15.148C4.13597 15.3746 4.43273 15.4691 4.5811 15.2802L5.08188 14.5813L6.84385 12.1637L6.8995 12.0882L6.88095 12.1071Z" fill="#FFBE06"/>
    <path d="M9.90413 2.56876L10.238 1.52993C10.3864 1.05774 10.1267 0.566658 9.68157 0.415556L8.53165 0.0378018C8.06797 -0.1133 7.58574 0.151128 7.43736 0.604433L7.10352 1.64326L9.92268 2.56876H9.90413Z" fill="#F72872"/>
    <path d="M7.08458 1.66338L6.80017 2.56226L9.60705 3.4833L9.89146 2.58442L7.08458 1.66338Z" fill="#D7DCF0"/>
    <path d="M9.62591 3.49415L6.7882 2.56865H6.76965L7.06641 1.62427L9.90412 2.54977H9.92267L9.62591 3.49415ZM6.82529 2.53088L9.60737 3.43749L9.88557 2.56865L7.1035 1.66204L6.82529 2.53088Z" fill="#390075"/>
    <path d="M6.8253 12.2015C6.54709 12.0126 6.73256 11.5593 6.38017 11.4082C6.00922 11.2571 5.82375 11.7482 5.4899 11.6348C5.13751 11.5215 5.28589 11.0115 4.8964 10.9171C4.52545 10.8415 4.41417 11.3326 4.08032 11.2948L4.11742 14.298V15.1668C4.11742 15.3935 4.41417 15.4879 4.56255 15.299L5.06332 14.6002L6.8253 12.1826V12.2015Z" fill="#FFDC9C"/>
    <path d="M4.58109 15.3179C4.58109 15.3179 4.39562 15.4501 4.30288 15.4123C4.1916 15.3746 4.11741 15.2801 4.11741 15.1668L4.06177 11.257H4.08031C4.22869 11.257 4.32143 11.1815 4.43271 11.0682C4.56254 10.9548 4.69237 10.8226 4.89639 10.8793C5.10041 10.9359 5.1746 11.1059 5.23024 11.257C5.28588 11.4081 5.34152 11.5403 5.4899 11.597C5.65682 11.6537 5.7681 11.5781 5.89793 11.4837C6.04631 11.3892 6.19469 11.2948 6.38016 11.3704C6.58418 11.4648 6.60273 11.6348 6.63982 11.8048C6.65837 11.9559 6.69546 12.0881 6.82529 12.1636H6.84384L4.56254 15.3179H4.58109ZM4.1545 15.1668C4.1545 15.2801 4.22869 15.3557 4.30288 15.3746C4.37707 15.3934 4.4698 15.3746 4.54399 15.299L6.80674 12.2014C6.67691 12.107 6.65837 11.9559 6.62127 11.8237C6.58418 11.6537 6.56563 11.5026 6.38016 11.427C6.19469 11.3515 6.06486 11.427 5.93503 11.5403C5.8052 11.6348 5.67537 11.7292 5.4899 11.6537C5.30443 11.597 5.24878 11.4459 5.19314 11.2948C5.1375 11.1437 5.08186 10.9926 4.89639 10.9359C4.71092 10.8982 4.59963 11.0115 4.4698 11.1248C4.35852 11.2193 4.26579 11.3326 4.09886 11.3326L4.1545 15.1857V15.1668Z" fill="#390075"/>
    <g opacity="0.3">
      <path d="M6.88094 12.107L10.238 1.52984C10.3863 1.05764 10.1267 0.566564 9.68156 0.415462L8.93967 0.169922C9.40335 0.321024 9.64446 0.812105 9.49609 1.2843L6.17615 11.767C6.17615 11.767 6.12051 11.8992 6.08341 11.937L4.37708 15.3934C4.45126 15.3934 4.50691 15.3557 4.56255 15.299L5.06332 14.6001L6.8253 12.1825L6.88094 12.107Z" fill="#390075"/>
    </g>
    <g opacity="0.55">
      <path d="M4.48836 15.3746C4.48836 15.3746 4.46981 15.318 4.46981 15.2802V14.4114L4.41417 11.4082V11.3138L7.75266 0.71776C7.90103 0.245567 8.38326 2.63336e-05 8.84694 0.151128L8.51309 0.0378018C8.04941 -0.1133 7.56718 0.151128 7.41881 0.604433L4.08032 11.1816V11.276L4.11742 14.2791V15.148C4.11742 15.3369 4.33998 15.4313 4.48836 15.3557V15.3746Z" fill="white"/>
    </g>
    <path d="M5.06334 14.619C4.78513 14.3735 4.46983 14.2602 4.11743 14.3168V15.1857C4.11743 15.4123 4.41419 15.5068 4.56256 15.3179L5.06334 14.619Z" fill="#390075"/>
  </g>
  <defs>
    <clipPath id="clip0_1674_120379">
      <rect width="12" height="18" fill="white"/>
    </clipPath>
  </defs>
</svg>